<?xml version="1.0" encoding="utf-8"?>
<!-- Generator: Adobe Illustrator 22.1.0, SVG Export Plug-In . SVG Version: 6.00 Build 0)  -->
<svg version="1.1" id="Layer_1" xmlns="http://www.w3.org/2000/svg" xmlns:xlink="http://www.w3.org/1999/xlink" x="0px" y="0px"
	 viewBox="0 0 256 256" style="enable-background:new 0 0 256 256;" xml:space="preserve">
<style type="text/css">
	.st0{fill:#E0EBFC;}
	.st1{fill:#3762CC;}
	.st2{fill:#4671C6;}
	.st3{fill:#6BDDDD;}
	.st4{fill:#F9A7A7;}
	.st5{fill:#A4C9FF;}
	.st6{fill:#FFEA92;}
	.st7{fill:#F9CFCF;}
	.st8{fill:#FFE164;}
	.st9{fill:#FFDC85;}
	.st10{fill:#FFEA94;}
	.st11{fill:#B9BEFC;}
	.st12{fill:#EAA97D;}
</style>
<g>
	<g>
		<path class="st0" d="M192.437,247.909H20.931c-4.816,0-8.721-3.904-8.721-8.721V16.812c0-4.816,3.904-8.721,8.721-8.721h171.506
			c4.816,0,8.721,3.904,8.721,8.721v222.376C201.158,244.004,197.254,247.909,192.437,247.909z"/>
	</g>
	<g>
		<path class="st5" d="M177.446,53.094h-64.948c-3.211,0-5.814-2.603-5.814-5.814v0c0-3.211,2.603-5.814,5.814-5.814h64.948
			c3.211,0,5.814,2.603,5.814,5.814v0C183.26,50.491,180.657,53.094,177.446,53.094z"/>
	</g>
	<g>
		<path class="st5" d="M177.446,85.069h-64.948c-3.211,0-5.814-2.603-5.814-5.814v0c0-3.211,2.603-5.814,5.814-5.814h64.948
			c3.211,0,5.814,2.603,5.814,5.814v0C183.26,82.467,180.657,85.069,177.446,85.069z"/>
	</g>
	<g>
		<path class="st5" d="M177.446,117.045H39.001c-3.211,0-5.814-2.603-5.814-5.814v0c0-3.211,2.603-5.814,5.814-5.814h138.445
			c3.211,0,5.814,2.603,5.814,5.814v0C183.26,114.442,180.657,117.045,177.446,117.045z"/>
	</g>
	<g>
		<path class="st5" d="M177.446,149.021H39.001c-3.211,0-5.814-2.603-5.814-5.814v0c0-3.211,2.603-5.814,5.814-5.814h138.445
			c3.211,0,5.814,2.603,5.814,5.814v0C183.26,146.418,180.657,149.021,177.446,149.021z"/>
	</g>
	<g>
		<path class="st5" d="M177.446,180.997H39.001c-3.211,0-5.814-2.603-5.814-5.814v0c0-3.211,2.603-5.814,5.814-5.814h138.445
			c3.211,0,5.814,2.603,5.814,5.814v0C183.26,178.394,180.657,180.997,177.446,180.997z"/>
	</g>
	<g>
		<path class="st5" d="M177.446,212.972H39.001c-3.211,0-5.814-2.603-5.814-5.814v0c0-3.211,2.603-5.814,5.814-5.814h138.445
			c3.211,0,5.814,2.603,5.814,5.814v0C183.26,210.369,180.657,212.972,177.446,212.972z"/>
	</g>
	<g>
		<path class="st1" d="M192.437,249.909H20.932c-5.912,0-10.721-4.809-10.721-10.721V16.812c0-5.912,4.809-10.721,10.721-10.721
			h171.506c5.912,0,10.721,4.809,10.721,10.721v222.376C203.158,245.1,198.349,249.909,192.437,249.909z M20.932,10.091
			c-3.706,0-6.721,3.015-6.721,6.721v222.376c0,3.706,3.015,6.721,6.721,6.721h171.506c3.706,0,6.721-3.015,6.721-6.721V16.812
			c0-3.706-3.015-6.721-6.721-6.721H20.932z"/>
	</g>
	<g>
		<path class="st4" d="M85.444,91.025v-7.053c0-12.183-9.876-22.06-22.06-22.06s-22.06,9.876-22.06,22.06v7.053H85.444z"/>
	</g>
	<g>
		<path class="st5" d="M85.444,91.025v-7.053c0-12.183-9.876-22.06-22.06-22.06s-22.06,9.876-22.06,22.06v7.053H85.444z"/>
	</g>
	<g>
		<path class="st1" d="M85.444,93.025h-44.12c-1.104,0-2-0.896-2-2v-7.053c0-13.267,10.793-24.06,24.06-24.06
			s24.06,10.793,24.06,24.06v7.053C87.444,92.13,86.549,93.025,85.444,93.025z M43.325,89.025h40.12v-5.053
			c0-11.061-8.999-20.06-20.06-20.06s-20.06,8.999-20.06,20.06V89.025z"/>
	</g>
	<g>
		<path class="st1" d="M85.444,93.025h-44.12c-1.104,0-2-0.896-2-2v-7.053c0-13.267,10.793-24.06,24.06-24.06
			s24.06,10.793,24.06,24.06v7.053C87.444,92.13,86.549,93.025,85.444,93.025z M43.325,89.025h40.12v-5.053
			c0-11.061-8.999-20.06-20.06-20.06s-20.06,8.999-20.06,20.06V89.025z"/>
	</g>
	<g>
		<circle class="st7" cx="63.385" cy="45.542" r="18.53"/>
	</g>
	<g>
		<path class="st1" d="M63.385,66.072c-11.32,0-20.53-9.209-20.53-20.53s9.21-20.53,20.53-20.53s20.53,9.21,20.53,20.53
			S74.705,66.072,63.385,66.072z M63.385,29.012c-9.115,0-16.53,7.416-16.53,16.53s7.416,16.53,16.53,16.53s16.53-7.415,16.53-16.53
			S72.5,29.012,63.385,29.012z"/>
	</g>
	<g>
		<path class="st6" d="M241.838,171.33c0-12.626,0-22.363,0-33.568l-3.253,1.25c0,10.8,0,25.234,0,32.318
			c-1.158,0.593-1.951,1.795-1.951,3.184v8.565h7.155v-8.565C243.789,173.124,242.995,171.922,241.838,171.33z"/>
	</g>
	<g>
		<path class="st2" d="M165.684,106.204l-67.735,26.021c-2.527,0.971-2.527,4.545,0,5.516l67.735,26.021
			c2.728,1.048,5.748,1.048,8.476,0l67.735-26.021c2.527-0.971,2.527-4.545,0-5.516l-67.735-26.021
			C171.431,105.156,168.412,105.156,165.684,106.204z"/>
	</g>
	<g>
		<path class="st1" d="M169.921,166.548c-1.679,0-3.357-0.307-4.955-0.92l-67.735-26.021c-1.93-0.742-3.178-2.557-3.178-4.625
			c0-2.068,1.248-3.884,3.178-4.625l67.735-26.021l0,0c3.195-1.227,6.715-1.227,9.91,0l67.735,26.021
			c1.931,0.742,3.178,2.557,3.178,4.625c0,2.068-1.247,3.883-3.178,4.625l-67.734,26.021
			C173.279,166.241,171.6,166.548,169.921,166.548z M166.401,108.071l-67.735,26.021c-0.552,0.212-0.612,0.694-0.612,0.891
			c0,0.197,0.06,0.679,0.612,0.891l67.735,26.02c2.27,0.872,4.771,0.872,7.042,0l67.734-26.021c0.553-0.212,0.612-0.694,0.612-0.891
			c0-0.197-0.06-0.679-0.612-0.891l-67.734-26.021C171.172,107.199,168.67,107.199,166.401,108.071L166.401,108.071z"/>
	</g>
	<g>
		<path class="st2" d="M211.57,139.523h-83.016c-0.759,0-1.375,0.615-1.375,1.375v20.497c0,4.524,19.199,8.192,42.882,8.192
			s42.882-3.668,42.882-8.192h0.001v-20.497C212.945,140.139,212.329,139.523,211.57,139.523z"/>
	</g>
	<g>
		<path class="st1" d="M170.062,171.587c-1.833,0-44.882-0.116-44.882-10.192v-20.497c0-1.861,1.514-3.375,3.375-3.375h83.017
			c1.861,0,3.375,1.514,3.375,3.375v20.497C214.943,171.472,171.894,171.587,170.062,171.587z M129.179,161.322
			c1.103,2.269,15.571,6.265,40.882,6.265s39.78-3.996,40.882-6.265l0.001-19.799h-81.766V161.322z M211.57,141.523h0.01H211.57z"/>
	</g>
	<g>
		<circle class="st3" cx="170.229" cy="189.625" r="36.34"/>
	</g>
	<g>
		<path class="st6" d="M170.229,216.898c-15.038,0-27.273-12.235-27.273-27.273c0-15.038,12.235-27.273,27.273-27.273
			s27.272,12.234,27.272,27.273C197.501,204.663,185.267,216.898,170.229,216.898z"/>
	</g>
	<g>
		<path class="st4" d="M161.84,206.787c-0.007,0-0.013,0-0.019,0c-2.016-0.006-3.916-0.991-5.082-2.634l-8.573-12.075
			c-1.333-1.878-0.892-4.481,0.987-5.815c1.88-1.335,4.482-0.89,5.815,0.986l6.884,9.696l18.005-25.032
			c1.345-1.87,3.951-2.295,5.821-0.95c1.869,1.345,2.295,3.951,0.95,5.821l-19.709,27.401
			C165.745,205.815,163.847,206.787,161.84,206.787z"/>
	</g>
	<g>
		<path class="st1" d="M170.229,227.965c-21.141,0-38.34-17.199-38.34-38.34s17.199-38.34,38.34-38.34s38.34,17.199,38.34,38.34
			S191.37,227.965,170.229,227.965z M170.229,155.285c-18.936,0-34.34,15.405-34.34,34.34s15.405,34.34,34.34,34.34
			s34.34-15.405,34.34-34.34S189.165,155.285,170.229,155.285z"/>
	</g>
</g>
</svg>
