<?xml version="1.0" encoding="utf-8"?>
<!-- Generator: Adobe Illustrator 22.1.0, SVG Export Plug-In . SVG Version: 6.00 Build 0)  -->
<svg version="1.1" id="Layer_1" xmlns="http://www.w3.org/2000/svg" xmlns:xlink="http://www.w3.org/1999/xlink" x="0px" y="0px"
	 viewBox="0 0 256 256" style="enable-background:new 0 0 256 256;" xml:space="preserve">
<style type="text/css">
	.st0{fill:#E0EBFC;}
	.st1{fill:#3762CC;}
	.st2{fill:#4671C6;}
	.st3{fill:#6BDDDD;}
	.st4{fill:#F9A7A7;}
	.st5{fill:#A4C9FF;}
	.st6{fill:#FFEA92;}
	.st7{fill:#F9CFCF;}
	.st8{fill:#FFE164;}
	.st9{fill:#FFDC85;}
	.st10{fill:#FFEA94;}
	.st11{fill:#B9BEFC;}
	.st12{fill:#EAA97D;}
</style>
<g>
	<g>
		<circle class="st0" cx="128" cy="127.865" r="78.263"/>
	</g>
	<g>
		<path class="st1" d="M128,208.128c-44.257,0-80.263-36.006-80.263-80.263S83.743,47.603,128,47.603s80.263,36.006,80.263,80.263
			S172.257,208.128,128,208.128z M128,51.603c-42.052,0-76.263,34.211-76.263,76.263S85.948,204.128,128,204.128
			s76.263-34.211,76.263-76.263S170.052,51.603,128,51.603z"/>
	</g>
	<g>
		<path class="st6" d="M189.052,145.645c0-8.782,0-16.294,0-23.746l-3.587,1.378c0,8.664,0,17.252,0,22.368
			c-1.277,0.653-2.152,1.979-2.152,3.512v9.446h7.892v-9.446C191.205,147.624,190.329,146.298,189.052,145.645z"/>
	</g>
	<g>
		<path class="st2" d="M123.643,94.423l-58.591,22.508c-2.186,0.84-2.186,3.932,0,4.771l58.591,22.508
			c2.36,0.907,4.972,0.907,7.332,0l58.591-22.508c2.186-0.84,2.186-3.932,0-4.771l-58.591-22.508
			C128.615,93.516,126.003,93.516,123.643,94.423z"/>
	</g>
	<g>
		<path class="st1" d="M127.309,146.891c-1.485,0-2.97-0.271-4.383-0.814l-58.591-22.508c-1.775-0.682-2.923-2.352-2.923-4.253
			s1.147-3.571,2.922-4.252l58.592-22.508l0.717,1.867l-0.717-1.867c2.826-1.085,5.939-1.085,8.766,0l58.591,22.508
			c1.775,0.682,2.923,2.352,2.923,4.253s-1.147,3.571-2.922,4.252l-58.592,22.508C130.278,146.62,128.794,146.891,127.309,146.891z
			 M127.309,95.742c-0.999,0-1.998,0.183-2.949,0.548l-58.591,22.508c-0.294,0.113-0.356,0.344-0.356,0.519s0.063,0.406,0.357,0.519
			l58.59,22.507c1.902,0.73,3.996,0.73,5.898,0l58.591-22.508c0.294-0.113,0.356-0.344,0.356-0.519s-0.063-0.406-0.357-0.519
			l-58.59-22.507C129.307,95.925,128.308,95.742,127.309,95.742z"/>
	</g>
	<g>
		<path class="st2" d="M163.335,123.245h-71.81c-0.657,0-1.189,0.532-1.189,1.189v17.73c0,3.914,16.607,7.086,37.094,7.086
			c20.486,0,37.094-3.173,37.094-7.086h0.001v-17.73C164.524,123.777,163.992,123.245,163.335,123.245z"/>
	</g>
	<g>
		<path class="st1" d="M127.43,151.25c-4.001,0-39.094-0.255-39.094-9.086v-17.73c0-1.758,1.431-3.189,3.189-3.189h71.81
			c1.759,0,3.189,1.431,3.189,3.189v17.73C166.522,150.995,131.431,151.25,127.43,151.25z M92.336,142.018
			c1.317,1.915,13.916,5.232,35.094,5.232s33.776-3.318,35.094-5.232l0.001-16.773H92.336V142.018z M163.335,125.245h0.01H163.335z"
			/>
	</g>
	<g>
		<path class="st5" d="M237.182,172.967c-11.697-11.697-29.286-13.906-43.211-6.632l-16.677-4.188
			c-1.911-0.48-3.643,1.252-3.164,3.163l4.188,16.677c-7.274,13.925-5.065,31.514,6.632,43.211
			c14.423,14.423,37.808,14.423,52.232,0C251.606,210.775,251.606,187.39,237.182,172.967z"/>
	</g>
	<g>
		<path class="st4" d="M224.883,224.57V220.1c0-7.723-6.261-13.984-13.984-13.984s-13.984,6.261-13.984,13.984v4.471H224.883z"/>
	</g>
	<g>
		<path class="st2" d="M224.883,224.57V220.1c0-7.723-6.261-13.984-13.984-13.984s-13.984,6.261-13.984,13.984v4.471H224.883z"/>
	</g>
	<g>
		<path class="st1" d="M224.884,226.57h-27.968c-1.104,0-2-0.896-2-2V220.1c0-8.813,7.17-15.984,15.983-15.984
			s15.984,7.17,15.984,15.984v4.471C226.884,225.675,225.988,226.57,224.884,226.57z M198.916,222.57h23.968V220.1
			c0-6.608-5.376-11.984-11.984-11.984c-6.607,0-11.983,5.376-11.983,11.984V222.57z"/>
	</g>
	<g>
		<path class="st1" d="M224.884,226.57h-27.968c-1.104,0-2-0.896-2-2V220.1c0-8.813,7.17-15.984,15.983-15.984
			s15.984,7.17,15.984,15.984v4.471C226.884,225.675,225.988,226.57,224.884,226.57z M198.916,222.57h23.968V220.1
			c0-6.608-5.376-11.984-11.984-11.984c-6.607,0-11.983,5.376-11.983,11.984V222.57z"/>
	</g>
	<g>
		<path class="st6" d="M210.899,204.257c-7.288,0-13.438,4.948-15.278,11.661l15.214,2.972l15.335-2.996
			C224.323,209.194,218.179,204.257,210.899,204.257z"/>
	</g>
	<g>
		<path class="st1" d="M210.835,220.89c-0.128,0-0.257-0.012-0.384-0.037l-15.213-2.972c-0.546-0.106-1.022-0.436-1.315-0.909
			c-0.294-0.473-0.377-1.046-0.229-1.583c2.118-7.732,9.193-13.132,17.206-13.132c7.999,0,15.071,5.389,17.199,13.105
			c0.148,0.537,0.065,1.111-0.228,1.584c-0.293,0.474-0.771,0.803-1.316,0.91l-15.336,2.996
			C211.092,220.877,210.963,220.89,210.835,220.89z M198.289,214.401l12.546,2.451l12.665-2.474
			c-2.218-4.871-7.13-8.121-12.601-8.121C205.417,206.257,200.501,209.516,198.289,214.401z"/>
	</g>
	<g>
		<circle class="st7" cx="210.899" cy="195.585" r="12.365"/>
	</g>
	<g>
		<path class="st1" d="M210.899,209.95c-7.921,0-14.364-6.444-14.364-14.365s6.443-14.365,14.364-14.365s14.365,6.444,14.365,14.365
			S218.82,209.95,210.899,209.95z M210.899,185.22c-5.715,0-10.364,4.649-10.364,10.365s4.649,10.365,10.364,10.365
			c5.716,0,10.365-4.649,10.365-10.365S216.615,185.22,210.899,185.22z"/>
	</g>
	<g>
		<path class="st6" d="M231.491,194.037c0-4.14,0-7.438,0-11.022l-1.2,0.461c0,3.765,0,8.235,0,10.561
			c-0.427,0.219-0.72,0.662-0.72,1.175v3.16h2.64v-3.16C232.211,194.699,231.918,194.255,231.491,194.037z"/>
	</g>
	<g>
		<path class="st2" d="M209.609,173.823l-19.601,7.53c-0.731,0.281-0.731,1.315,0,1.596l19.601,7.53
			c0.789,0.303,1.663,0.303,2.453,0l19.601-7.53c0.731-0.281,0.731-1.315,0-1.596l-19.601-7.53
			C211.272,173.519,210.398,173.519,209.609,173.823z"/>
	</g>
	<g>
		<path class="st1" d="M210.835,192.707c-0.658,0-1.316-0.12-1.943-0.361l-19.601-7.53c-1.112-0.427-1.831-1.473-1.832-2.664
			c0-1.192,0.719-2.238,1.831-2.666l19.602-7.53l0,0c1.255-0.481,2.635-0.481,3.888,0l19.601,7.529
			c1.113,0.428,1.832,1.475,1.832,2.667c-0.001,1.191-0.72,2.237-1.832,2.664l-19.602,7.53
			C212.152,192.587,211.494,192.707,210.835,192.707z M193.507,182.151l16.818,6.461c0.33,0.127,0.69,0.126,1.019,0l16.819-6.461
			l-16.818-6.461c-0.327-0.126-0.688-0.127-1.02,0L193.507,182.151z"/>
	</g>
	<g>
		<path class="st2" d="M222.888,183.465h-24.024c-0.22,0-0.398,0.178-0.398,0.398v5.932c0,1.309,5.556,2.371,12.41,2.371
			c6.854,0,12.41-1.061,12.41-2.371h0v-5.932C223.285,183.643,223.107,183.465,222.888,183.465z"/>
	</g>
	<g>
		<path class="st1" d="M210.876,194.165c-9.562,0-14.41-1.471-14.41-4.371v-5.932c0-1.322,1.076-2.398,2.398-2.398h24.023
			c1.322,0,2.397,1.076,2.397,2.398v5.932C225.285,192.694,220.438,194.165,210.876,194.165z M200.466,188.987
			c1.287,0.495,4.922,1.178,10.41,1.178s9.122-0.683,10.409-1.178v-3.522h-20.819V188.987z M222.888,185.465h0.01H222.888z"/>
	</g>
	<g>
		<path class="st3" d="M78.705,162.147l-16.677,4.188c-13.925-7.274-31.514-5.065-43.211,6.632
			c-14.423,14.423-14.423,37.808,0,52.232c14.423,14.423,37.808,14.423,52.232,0c11.697-11.697,13.906-29.286,6.632-43.211
			l4.188-16.677C82.349,163.4,80.617,161.667,78.705,162.147z"/>
	</g>
	<g>
		<path class="st4" d="M65.358,194.037c0-4.14,0-7.438,0-11.022l-1.2,0.461c0,3.765,0,8.235,0,10.561
			c-0.427,0.219-0.72,0.662-0.72,1.175v3.16h2.64v-3.16C66.078,194.699,65.785,194.255,65.358,194.037z"/>
	</g>
	<g>
		<path class="st4" d="M58.75,224.57V220.1c0-7.723-6.261-13.984-13.984-13.984s-13.984,6.261-13.984,13.984v4.471H58.75z"/>
	</g>
	<g>
		<path class="st2" d="M58.75,224.57V220.1c0-7.723-6.261-13.984-13.984-13.984s-13.984,6.261-13.984,13.984v4.471H58.75z"/>
	</g>
	<g>
		<path class="st1" d="M58.75,226.57H30.782c-1.104,0-2-0.896-2-2V220.1c0-8.813,7.171-15.984,15.984-15.984
			s15.983,7.17,15.983,15.984v4.471C60.75,225.675,59.854,226.57,58.75,226.57z M32.782,222.57H56.75V220.1
			c0-6.608-5.376-11.984-11.983-11.984c-6.608,0-11.984,5.376-11.984,11.984V222.57z"/>
	</g>
	<g>
		<path class="st1" d="M58.75,226.57H30.782c-1.104,0-2-0.896-2-2V220.1c0-8.813,7.171-15.984,15.984-15.984
			s15.983,7.17,15.983,15.984v4.471C60.75,225.675,59.854,226.57,58.75,226.57z M32.782,222.57H56.75V220.1
			c0-6.608-5.376-11.984-11.983-11.984c-6.608,0-11.984,5.376-11.984,11.984V222.57z"/>
	</g>
	<g>
		<path class="st4" d="M44.766,204.257c-7.288,0-13.438,4.948-15.278,11.661l15.214,2.972l15.335-2.996
			C58.19,209.194,52.046,204.257,44.766,204.257z"/>
	</g>
	<g>
		<path class="st1" d="M44.702,220.89c-0.128,0-0.257-0.012-0.384-0.037l-15.214-2.972c-0.546-0.106-1.022-0.436-1.315-0.909
			c-0.294-0.473-0.377-1.046-0.229-1.583c2.119-7.732,9.195-13.132,17.207-13.132c8,0,15.072,5.389,17.198,13.105
			c0.148,0.537,0.065,1.111-0.228,1.584c-0.293,0.473-0.771,0.803-1.316,0.91l-15.335,2.996
			C44.959,220.877,44.831,220.89,44.702,220.89z M32.155,214.401l12.547,2.451l12.664-2.474c-2.217-4.871-7.129-8.121-12.6-8.121
			C39.285,206.257,34.368,209.517,32.155,214.401z"/>
	</g>
	<g>
		<circle class="st7" cx="44.766" cy="195.585" r="12.365"/>
	</g>
	<g>
		<path class="st1" d="M44.767,209.95c-7.921,0-14.365-6.444-14.365-14.365s6.444-14.365,14.365-14.365
			c7.921,0,14.364,6.444,14.364,14.365S52.687,209.95,44.767,209.95z M44.767,185.22c-5.716,0-10.365,4.649-10.365,10.365
			s4.649,10.365,10.365,10.365c5.715,0,10.364-4.649,10.364-10.365S50.481,185.22,44.767,185.22z"/>
	</g>
	<g>
		<path class="st2" d="M43.476,173.823l-19.601,7.53c-0.731,0.281-0.731,1.315,0,1.596l19.601,7.53c0.789,0.303,1.663,0.303,2.453,0
			l19.601-7.53c0.731-0.281,0.731-1.315,0-1.596l-19.601-7.53C45.139,173.519,44.265,173.519,43.476,173.823z"/>
	</g>
	<g>
		<path class="st1" d="M44.702,192.707c-0.658,0-1.316-0.12-1.943-0.361l-19.602-7.53c-1.112-0.428-1.831-1.473-1.831-2.664
			c0-1.191,0.718-2.238,1.829-2.666l19.604-7.531l0,0c1.254-0.481,2.633-0.481,3.887,0l19.602,7.53
			c1.113,0.429,1.831,1.475,1.831,2.667c0,1.191-0.719,2.236-1.83,2.664l-19.603,7.531C46.02,192.586,45.36,192.707,44.702,192.707z
			 M27.374,182.151l16.818,6.461c0.328,0.126,0.691,0.126,1.02,0l16.818-6.461l-16.818-6.461c-0.328-0.126-0.689-0.126-1.02,0
			L27.374,182.151z"/>
	</g>
	<g>
		<path class="st2" d="M56.755,183.465H32.731c-0.22,0-0.398,0.178-0.398,0.398v5.932c0,1.309,5.556,2.371,12.41,2.371
			c6.854,0,12.41-1.061,12.41-2.371h0v-5.932C57.152,183.643,56.974,183.465,56.755,183.465z"/>
	</g>
	<g>
		<path class="st1" d="M44.743,194.165c-9.562,0-14.41-1.471-14.41-4.371v-5.932c0-1.322,1.076-2.398,2.398-2.398h24.023
			c1.322,0,2.397,1.076,2.397,2.398v5.932C59.152,192.694,54.305,194.165,44.743,194.165z M34.333,188.987
			c1.287,0.495,4.921,1.178,10.41,1.178c5.488,0,9.122-0.683,10.409-1.178v-3.522H34.333V188.987z M56.755,185.465h0.01H56.755z"/>
	</g>
	<g>
		<path class="st6" d="M81.869,90.689l-4.188-16.677c7.274-13.925,5.065-31.514-6.632-43.211c-14.423-14.423-37.808-14.423-52.232,0
			c-14.423,14.423-14.423,37.808,0,52.232c11.697,11.697,29.286,13.906,43.211,6.632l16.677,4.188
			C80.617,94.332,82.349,92.6,81.869,90.689z"/>
	</g>
	<g>
		<path class="st3" d="M65.358,50.235c0-4.14,0-7.438,0-11.022l-1.2,0.461c0,3.765,0,8.235,0,10.561
			c-0.427,0.219-0.72,0.662-0.72,1.175v3.16h2.64v-3.16C66.078,50.896,65.785,50.453,65.358,50.235z"/>
	</g>
	<g>
		<path class="st4" d="M58.75,80.768v-4.471c0-7.723-6.261-13.984-13.984-13.984s-13.984,6.261-13.984,13.984v4.471H58.75z"/>
	</g>
	<g>
		<path class="st2" d="M58.75,80.768v-4.471c0-7.723-6.261-13.984-13.984-13.984s-13.984,6.261-13.984,13.984v4.471H58.75z"/>
	</g>
	<g>
		<path class="st1" d="M58.75,82.768H30.782c-1.104,0-2-0.896-2-2v-4.471c0-8.813,7.171-15.984,15.984-15.984
			s15.983,7.17,15.983,15.984v4.471C60.75,81.873,59.854,82.768,58.75,82.768z M32.782,78.768H56.75v-2.471
			c0-6.608-5.376-11.984-11.983-11.984c-6.608,0-11.984,5.376-11.984,11.984V78.768z"/>
	</g>
	<g>
		<path class="st1" d="M58.75,82.768H30.782c-1.104,0-2-0.896-2-2v-4.471c0-8.813,7.171-15.984,15.984-15.984
			s15.983,7.17,15.983,15.984v4.471C60.75,81.873,59.854,82.768,58.75,82.768z M32.782,78.768H56.75v-2.471
			c0-6.608-5.376-11.984-11.983-11.984c-6.608,0-11.984,5.376-11.984,11.984V78.768z"/>
	</g>
	<g>
		<path class="st3" d="M44.766,60.455c-7.288,0-13.438,4.948-15.278,11.661l15.214,2.972l15.335-2.996
			C58.19,65.392,52.046,60.455,44.766,60.455z"/>
	</g>
	<g>
		<path class="st1" d="M44.702,77.087c-0.128,0-0.257-0.012-0.384-0.037l-15.214-2.972c-0.546-0.106-1.022-0.436-1.315-0.909
			c-0.294-0.473-0.377-1.046-0.229-1.583c2.119-7.732,9.195-13.132,17.207-13.132c7.999,0,15.071,5.389,17.198,13.105
			c0.148,0.537,0.065,1.111-0.228,1.584c-0.293,0.474-0.771,0.803-1.316,0.91L45.086,77.05
			C44.959,77.075,44.83,77.087,44.702,77.087z M32.155,70.599l12.547,2.451l12.664-2.474c-2.218-4.871-7.129-8.121-12.6-8.121
			C39.285,62.455,34.368,65.714,32.155,70.599z"/>
	</g>
	<g>
		<circle class="st7" cx="44.766" cy="51.783" r="12.365"/>
	</g>
	<g>
		<path class="st1" d="M44.767,66.147c-7.921,0-14.365-6.444-14.365-14.365s6.444-14.365,14.365-14.365
			c7.921,0,14.364,6.444,14.364,14.365S52.687,66.147,44.767,66.147z M44.767,41.418c-5.716,0-10.365,4.649-10.365,10.365
			s4.649,10.365,10.365,10.365c5.715,0,10.364-4.649,10.364-10.365S50.481,41.418,44.767,41.418z"/>
	</g>
	<g>
		<path class="st2" d="M43.476,30.02l-19.601,7.53c-0.731,0.281-0.731,1.315,0,1.596l19.601,7.53c0.789,0.303,1.663,0.303,2.453,0
			l19.601-7.53c0.731-0.281,0.731-1.315,0-1.596l-19.601-7.53C45.139,29.717,44.265,29.717,43.476,30.02z"/>
	</g>
	<g>
		<path class="st1" d="M44.702,48.905c-0.658,0-1.316-0.12-1.943-0.361l-19.602-7.53c-1.112-0.428-1.831-1.473-1.831-2.664
			c0-1.191,0.718-2.238,1.829-2.666l19.604-7.531l0,0c1.254-0.481,2.633-0.481,3.887,0l19.602,7.53
			c1.113,0.429,1.831,1.475,1.831,2.667c0,1.191-0.719,2.236-1.83,2.664l-19.603,7.531C46.02,48.784,45.36,48.905,44.702,48.905z
			 M27.374,38.349l16.818,6.461c0.328,0.126,0.691,0.126,1.02,0l16.818-6.461l-16.818-6.461c-0.328-0.126-0.689-0.126-1.02,0
			L27.374,38.349z"/>
	</g>
	<g>
		<path class="st2" d="M56.755,39.663H32.731c-0.22,0-0.398,0.178-0.398,0.398v5.932c0,1.309,5.556,2.371,12.41,2.371
			c6.854,0,12.41-1.061,12.41-2.371h0v-5.932C57.152,39.841,56.974,39.663,56.755,39.663z"/>
	</g>
	<g>
		<path class="st1" d="M44.743,50.363c-9.562,0-14.41-1.471-14.41-4.371v-5.932c0-1.322,1.076-2.398,2.398-2.398h24.023
			c1.322,0,2.397,1.076,2.397,2.398v5.932C59.152,48.892,54.305,50.363,44.743,50.363z M34.333,45.185
			c1.287,0.495,4.921,1.178,10.41,1.178c5.488,0,9.122-0.683,10.409-1.178v-3.522H34.333V45.185z M56.755,41.663h0.01H56.755z"/>
	</g>
	<g>
		<path class="st4" d="M237.169,30.801c-14.423-14.423-37.808-14.423-52.232,0c-11.697,11.697-13.906,29.286-6.632,43.211
			l-4.188,16.677c-0.48,1.911,1.252,3.643,3.164,3.164l16.677-4.188c13.925,7.274,31.514,5.065,43.211-6.632
			C251.593,68.61,251.593,45.225,237.169,30.801z"/>
	</g>
	<g>
		<path class="st4" d="M224.87,80.768v-4.471c0-7.723-6.261-13.984-13.984-13.984s-13.984,6.261-13.984,13.984v4.471H224.87z"/>
	</g>
	<g>
		<path class="st2" d="M224.87,80.768v-4.471c0-7.723-6.261-13.984-13.984-13.984s-13.984,6.261-13.984,13.984v4.471H224.87z"/>
	</g>
	<g>
		<path class="st1" d="M224.87,82.768h-27.968c-1.104,0-2-0.896-2-2v-4.471c0-8.813,7.171-15.984,15.984-15.984
			s15.983,7.17,15.983,15.984v4.471C226.87,81.873,225.975,82.768,224.87,82.768z M198.902,78.768h23.968v-2.471
			c0-6.608-5.376-11.984-11.983-11.984c-6.608,0-11.984,5.376-11.984,11.984V78.768z"/>
	</g>
	<g>
		<path class="st1" d="M224.87,82.768h-27.968c-1.104,0-2-0.896-2-2v-4.471c0-8.813,7.171-15.984,15.984-15.984
			s15.983,7.17,15.983,15.984v4.471C226.87,81.873,225.975,82.768,224.87,82.768z M198.902,78.768h23.968v-2.471
			c0-6.608-5.376-11.984-11.983-11.984c-6.608,0-11.984,5.376-11.984,11.984V78.768z"/>
	</g>
	<g>
		<path class="st5" d="M210.886,60.455c-7.288,0-13.438,4.948-15.278,11.661l15.214,2.972l15.335-2.996
			C224.31,65.392,218.166,60.455,210.886,60.455z"/>
	</g>
	<g>
		<path class="st1" d="M210.822,77.087c-0.128,0-0.257-0.012-0.384-0.037l-15.214-2.972c-0.546-0.106-1.022-0.436-1.315-0.909
			c-0.294-0.473-0.377-1.046-0.229-1.583c2.119-7.732,9.195-13.132,17.207-13.132c7.998,0,15.07,5.389,17.198,13.105
			c0.148,0.537,0.065,1.111-0.228,1.584c-0.293,0.474-0.771,0.803-1.316,0.91l-15.335,2.996
			C211.079,77.075,210.95,77.087,210.822,77.087z M198.275,70.599l12.547,2.451l12.664-2.474c-2.218-4.871-7.13-8.121-12.6-8.121
			C205.405,62.455,200.488,65.714,198.275,70.599z"/>
	</g>
	<g>
		<circle class="st7" cx="210.886" cy="51.783" r="12.365"/>
	</g>
	<g>
		<path class="st1" d="M210.887,66.147c-7.921,0-14.365-6.444-14.365-14.365s6.444-14.365,14.365-14.365s14.364,6.444,14.364,14.365
			S218.808,66.147,210.887,66.147z M210.887,41.418c-5.716,0-10.365,4.649-10.365,10.365s4.649,10.365,10.365,10.365
			c5.715,0,10.364-4.649,10.364-10.365S216.602,41.418,210.887,41.418z"/>
	</g>
	<g>
		<path class="st5" d="M231.478,50.235c0-4.14,0-7.438,0-11.022l-1.2,0.461c0,3.765,0,8.235,0,10.561
			c-0.427,0.219-0.72,0.662-0.72,1.175v3.16h2.64v-3.16C232.198,50.896,231.905,50.453,231.478,50.235z"/>
	</g>
	<g>
		<path class="st2" d="M209.596,30.02l-19.601,7.53c-0.731,0.281-0.731,1.315,0,1.596l19.601,7.53c0.789,0.303,1.663,0.303,2.453,0
			l19.601-7.53c0.731-0.281,0.731-1.315,0-1.596l-19.601-7.53C211.259,29.717,210.385,29.717,209.596,30.02z"/>
	</g>
	<g>
		<path class="st1" d="M210.821,48.905c-0.658,0-1.316-0.121-1.943-0.361l-19.601-7.53c-1.112-0.427-1.831-1.473-1.832-2.664
			c0-1.192,0.719-2.238,1.831-2.666l19.603-7.53c1.251-0.481,2.632-0.482,3.887,0l19.602,7.53c1.113,0.429,1.831,1.475,1.831,2.667
			c0,1.191-0.719,2.236-1.83,2.664l-19.603,7.531C212.139,48.785,211.48,48.905,210.821,48.905z M193.494,38.349l16.818,6.461
			c0.328,0.127,0.691,0.126,1.02,0l16.818-6.461l-16.818-6.461c-0.33-0.127-0.69-0.126-1.019,0l-0.001,0L193.494,38.349z
			 M209.596,30.021h0.01H209.596z"/>
	</g>
	<g>
		<path class="st2" d="M222.875,39.663h-24.024c-0.22,0-0.398,0.178-0.398,0.398v5.932c0,1.309,5.556,2.371,12.41,2.371
			c6.854,0,12.41-1.061,12.41-2.371h0v-5.932C223.272,39.841,223.094,39.663,222.875,39.663z"/>
	</g>
	<g>
		<path class="st1" d="M210.862,50.363c-9.562,0-14.409-1.471-14.409-4.371v-5.932c0-1.322,1.075-2.398,2.397-2.398h24.024
			c1.322,0,2.397,1.076,2.397,2.398v5.932C225.272,48.892,220.424,50.363,210.862,50.363z M200.453,45.185
			c1.287,0.495,4.921,1.178,10.409,1.178s9.123-0.683,10.41-1.178v-3.522h-20.819V45.185z M222.875,41.663h0.01H222.875z"/>
	</g>
	<g>
		<path class="st1" d="M211.066,237.998c-9.97,0-19.94-3.795-27.53-11.385c-11.913-11.913-14.818-29.851-7.34-44.865l-4.005-15.949
			c-0.398-1.587,0.055-3.224,1.211-4.38s2.794-1.609,4.38-1.21l15.949,4.005c15.014-7.478,32.951-4.574,44.865,7.34l0,0
			c15.18,15.18,15.18,39.88,0,55.06C231.007,234.203,221.036,237.998,211.066,237.998z M176.65,164.067
			c-0.205,0-0.347,0.106-0.42,0.18c-0.091,0.091-0.232,0.287-0.16,0.577l4.188,16.676c0.12,0.476,0.061,0.979-0.167,1.413
			c-7.1,13.593-4.579,30.018,6.273,40.871c13.621,13.62,35.783,13.619,49.404,0c13.62-13.621,13.62-35.783,0-49.404l0,0
			c-10.854-10.853-27.279-13.374-40.871-6.273c-0.436,0.227-0.936,0.285-1.413,0.167l-16.677-4.188
			C176.752,164.073,176.699,164.067,176.65,164.067z"/>
	</g>
	<g>
		<path class="st1" d="M44.934,237.998c-9.97,0-19.94-3.795-27.53-11.385c-15.18-15.18-15.18-39.88,0-55.06
			c11.915-11.914,29.854-14.817,44.865-7.34l15.949-4.005c1.586-0.397,3.224,0.055,4.38,1.21c1.156,1.156,1.609,2.793,1.211,4.38
			l-4.005,15.95c7.479,15.014,4.573,32.952-7.34,44.865C64.874,234.203,54.903,237.998,44.934,237.998z M44.902,164.11
			c-9.031,0-17.926,3.526-24.671,10.271c-13.62,13.621-13.62,35.783,0,49.404c13.621,13.62,35.783,13.619,49.404,0
			c10.853-10.853,13.373-27.278,6.273-40.871c-0.228-0.435-0.287-0.938-0.167-1.413l4.188-16.677c0.072-0.29-0.069-0.486-0.16-0.577
			c-0.09-0.091-0.286-0.231-0.577-0.16l0,0l-16.677,4.188c-0.477,0.118-0.979,0.06-1.413-0.167
			C55.957,165.42,50.403,164.11,44.902,164.11z M78.705,162.147h0.01H78.705z"/>
	</g>
	<g>
		<path class="st1" d="M79.356,95.934c-0.378,0-0.76-0.046-1.139-0.142l-15.949-4.005c-15.014,7.478-32.952,4.573-44.865-7.34
			c-15.18-15.18-15.18-39.88,0-55.06c15.18-15.18,39.881-15.18,55.061,0c11.913,11.913,14.818,29.851,7.34,44.865l4.005,15.949
			c0,0,0,0,0,0c0.398,1.586-0.055,3.224-1.211,4.38C81.718,95.462,80.559,95.934,79.356,95.934z M62.028,87.665
			c0.163,0,0.326,0.02,0.487,0.06l16.677,4.188c0.291,0.075,0.486-0.068,0.577-0.16c0.091-0.091,0.232-0.287,0.16-0.577L75.742,74.5
			c-0.12-0.476-0.061-0.979,0.167-1.413c7.1-13.593,4.579-30.018-6.273-40.871c-13.621-13.621-35.783-13.619-49.404,0
			c-13.62,13.621-13.62,35.783,0,49.404c10.853,10.852,27.275,13.374,40.871,6.273C61.391,87.742,61.708,87.665,62.028,87.665z"/>
	</g>
	<g>
		<path class="st1" d="M176.63,95.934c-1.203,0-2.361-0.473-3.241-1.353c-1.156-1.157-1.609-2.794-1.21-4.38l4.005-15.949
			c-7.479-15.013-4.574-32.951,7.34-44.865c7.354-7.354,17.131-11.403,27.53-11.403s20.176,4.05,27.529,11.403l0,0l0,0
			c7.354,7.354,11.404,17.13,11.404,27.53c0,10.4-4.051,20.177-11.404,27.53c-11.913,11.913-29.852,14.818-44.864,7.34l-15.95,4.005
			C177.39,95.888,177.007,95.934,176.63,95.934z M211.054,21.984c-9.331,0-18.104,3.634-24.702,10.231
			c-10.853,10.854-13.374,27.278-6.273,40.871c0.228,0.435,0.287,0.938,0.167,1.414l-4.188,16.677
			c-0.072,0.291,0.068,0.486,0.159,0.577s0.29,0.234,0.577,0.159l16.678-4.188c0.477-0.119,0.979-0.06,1.413,0.167
			c13.594,7.102,30.019,4.581,40.87-6.273c6.598-6.598,10.232-15.371,10.232-24.702c0-9.331-3.635-18.104-10.232-24.702l0,0
			C229.157,25.618,220.385,21.984,211.054,21.984z"/>
	</g>
</g>
</svg>
