<?xml version="1.0" encoding="utf-8"?>
<!-- Generator: Adobe Illustrator 22.1.0, SVG Export Plug-In . SVG Version: 6.00 Build 0)  -->
<svg version="1.1" id="Layer_1" xmlns="http://www.w3.org/2000/svg" xmlns:xlink="http://www.w3.org/1999/xlink" x="0px" y="0px"
	 viewBox="0 0 256 256" style="enable-background:new 0 0 256 256;" xml:space="preserve">
<style type="text/css">
	.st0{fill:#E0EBFC;}
	.st1{fill:#3762CC;}
	.st2{fill:#4671C6;}
	.st3{fill:#6BDDDD;}
	.st4{fill:#F9A7A7;}
	.st5{fill:#A4C9FF;}
	.st6{fill:#FFEA92;}
	.st7{fill:#F9CFCF;}
	.st8{fill:#FFE164;}
	.st9{fill:#FFDC85;}
	.st10{fill:#FFEA94;}
	.st11{fill:#B9BEFC;}
	.st12{fill:#EAA97D;}
</style>
<g>
	<g>
		<path class="st4" d="M43,240V16c0-4.418,3.582-8,8-8h154c4.418,0,8,3.582,8,8v224c0,4.418-3.582,8-8,8H51
			C46.582,248,43,244.418,43,240z"/>
	</g>
	<g>
		<path class="st0" d="M59.448,20.2h137.103c2.209,0,4,1.791,4,4v207.6c0,2.209-1.791,4-4,4H59.448c-2.209,0-4-1.791-4-4V24.2
			C55.448,21.991,57.239,20.2,59.448,20.2z"/>
	</g>
	<g>
		<path class="st1" d="M205,250H51c-5.514,0-10-4.486-10-10V16c0-5.514,4.486-10,10-10h154c5.514,0,10,4.486,10,10v224
			C215,245.514,210.514,250,205,250z M51,10c-3.309,0-6,2.691-6,6v224c0,3.309,2.691,6,6,6h154c3.309,0,6-2.691,6-6V16
			c0-3.309-2.691-6-6-6H51z"/>
	</g>
	<g>
		<path class="st6" d="M172.757,71.43c0-7.891,0-13.978,0-20.981l-2.033,0.781c0,6.75,0,15.772,0,20.2
			c-0.724,0.37-1.22,1.122-1.22,1.99v5.353h4.472V73.42C173.977,72.551,173.481,71.8,172.757,71.43z"/>
	</g>
	<g>
		<path class="st2" d="M125.159,30.724L82.823,46.988c-1.579,0.607-1.579,2.841,0,3.448l42.336,16.264
			c1.705,0.655,3.592,0.655,5.298,0l42.336-16.264c1.579-0.607,1.579-2.841,0-3.448l-42.336-16.264
			C128.752,30.069,126.864,30.069,125.159,30.724z"/>
	</g>
	<g>
		<path class="st1" d="M127.808,69.191c-1.141,0-2.281-0.208-3.366-0.626L82.106,52.302c-1.499-0.576-2.467-1.985-2.467-3.591
			s0.968-3.015,2.467-3.591l42.335-16.264c0,0,0,0,0,0c2.17-0.833,4.561-0.833,6.731,0l42.336,16.264
			c1.499,0.576,2.467,1.985,2.467,3.591s-0.969,3.015-2.468,3.591l-42.335,16.264C130.089,68.983,128.948,69.191,127.808,69.191z
			 M83.914,48.711l41.963,16.12c1.245,0.479,2.617,0.479,3.863,0l41.963-16.121l-41.963-16.12c-1.246-0.479-2.618-0.479-3.863,0
			L83.914,48.711z"/>
	</g>
	<g>
		<path class="st2" d="M153.839,51.55h-51.887c-0.475,0-0.859,0.385-0.859,0.859V65.22c0,2.828,12,5.12,26.803,5.12
			s26.803-2.292,26.803-5.12h0.001V52.409C154.699,51.935,154.314,51.55,153.839,51.55z"/>
	</g>
	<g>
		<path class="st1" d="M127.896,72.34c-4.81,0-28.803-0.343-28.803-7.12V52.409c0-1.577,1.283-2.859,2.859-2.859h51.887
			c1.577,0,2.859,1.283,2.859,2.859V65.22C156.698,71.997,132.705,72.34,127.896,72.34z M103.093,64.881
			c1.453,1.244,9.956,3.459,24.803,3.459s23.35-2.215,24.803-3.459l0-11.332h-49.606V64.881z M153.839,53.55h0.01H153.839z"/>
	</g>
	<g>
		<path class="st5" d="M128,97.413c-23.165,0.05-44.143,6.965-59.312,18.089c-2.961,2.172-2.592,6.705,0.681,8.371h0
			c1.659,0.844,3.643,0.673,5.146-0.426c13.444-9.827,32.437-15.986,53.484-16.034c21.047,0.049,40.041,6.207,53.484,16.034
			c1.503,1.098,3.487,1.27,5.146,0.426l0,0c3.273-1.665,3.643-6.199,0.681-8.371C172.142,104.379,151.165,97.463,128,97.413z"/>
	</g>
	<g>
		<path class="st5" d="M170.749,168.448h-85c-2.761,0-5-2.239-5-5l0,0c0-2.761,2.239-5,5-5h85c2.761,0,5,2.239,5,5l0,0
			C175.749,166.209,173.51,168.448,170.749,168.448z"/>
	</g>
	<g>
		<path class="st2" d="M118.97,131.244c1.495-1.016,2.25-2.448,2.25-4.273c0-1.32-0.457-2.491-1.241-3.424
			c-0.856-1.017-2.027-1.689-3.446-1.929c-1.41-0.237-2.174-0.184-8.993-0.184c-1.005,0-1.762,0.248-2.252,0.737
			c-0.489,0.489-0.737,1.256-0.737,2.279v14.932c0,1.001,0.241,1.76,0.714,2.256c0.481,0.504,1.246,0.759,2.275,0.759
			c6.561,0,8.949,0.174,11.129-0.737c2.1-0.922,3.486-2.989,3.486-5.476C122.155,133.898,121.085,132.24,118.97,131.244z
			 M115.905,128.51c-0.223,0.412-0.534,0.683-0.95,0.827c-1.052,0.366-2.928,0.254-5.279,0.254v-4.035
			c2.816,0,4.599-0.088,5.751,0.444c0.322,0.149,0.751,0.466,0.751,1.499C116.177,127.872,116.092,128.196,115.905,128.51z
			 M109.675,133.578c3.724,0,5.366-0.135,6.497,0.59c0.541,0.347,0.804,0.909,0.804,1.719c0,2.956-3.618,2.391-7.301,2.391V133.578z
			"/>
	</g>
	<g>
		<path class="st2" d="M125.833,137.559c-1.484,0-2.569,1.189-2.569,2.569c0,1.661,1.237,2.609,2.61,2.609
			c1.303,0,2.568-0.929,2.568-2.609C128.442,138.69,127.277,137.559,125.833,137.559z"/>
	</g>
	<g>
		<path class="st2" d="M141.747,121.485c-0.458-0.258-1.021-0.389-1.673-0.389c-0.645,0-1.203,0.131-1.66,0.39
			c-1.463,0.831-1.224,0.944-7.399,16.634c-0.567,1.401-1.116,2.726,0.13,3.91c0.491,0.47,1.07,0.708,1.721,0.708
			c1.602,0,2.032-0.961,2.752-2.892l0.815-2.189h7.314l0.819,2.152c0.551,1.345,1.002,2.929,2.839,2.929
			c0.691,0,1.289-0.248,1.778-0.737c1.157-1.159,0.754-2.386,0.086-3.989C142.912,122.31,143.206,122.314,141.747,121.485z
			 M137.888,133.534l2.163-6.031l2.203,6.031H137.888z"/>
	</g>
	<g>
		<path class="st2" d="M154.477,137.559c-1.468,0-2.568,1.173-2.568,2.569c0,1.666,1.242,2.609,2.609,2.609
			c1.313,0,2.569-0.936,2.569-2.609C157.087,138.694,155.925,137.559,154.477,137.559z"/>
	</g>
	<g>
		<path class="st7" d="M148.915,91.565c3.592-0.487,7.041-1.397,10.305-2.667c-0.339-1.37,0.325-3.629,1.825-5.771
			c1.976-2.823,4.645-4.364,5.961-3.443c1.127,0.789,0.887,3.13-0.445,5.559c6.387-3.937,11.711-9.396,15.501-15.831
			c-1.141-0.795-2.258-2.615-2.867-4.887c-0.892-3.328-0.357-6.363,1.194-6.779c1.551-0.416,3.532,1.946,4.424,5.274
			c0.051,0.191,0.097,0.382,0.139,0.571c2.198-5.346,3.415-11.168,3.415-17.23c0-1.086,0.881-1.967,1.967-1.967
			s1.967,0.881,1.967,1.967c0,2.018-0.135,4.009-0.375,5.971c0.474-0.376,1.001-0.738,1.575-1.068
			c2.984-1.723,6.054-1.992,6.857-0.601c0.803,1.391-0.965,3.915-3.949,5.638c-2.023,1.168-4.068,1.65-5.437,1.417
			c-1.802,7.593-5.374,14.557-10.269,20.406c3.138-0.721,5.911-0.169,6.307,1.309c0.416,1.552-1.945,3.532-5.273,4.424
			c-2.655,0.711-5.119,0.512-6.22-0.384c-7.127,6.317-16.098,10.638-26.072,11.992c-0.09,0.012-0.179,0.017-0.267,0.017
			c-0.969,0-1.813-0.715-1.947-1.702C147.085,92.702,147.839,91.711,148.915,91.565z"/>
	</g>
	<g>
		<path class="st7" d="M107.085,91.565c-3.592-0.487-7.041-1.397-10.305-2.667c0.339-1.37-0.325-3.629-1.825-5.771
			c-1.976-2.823-4.645-4.364-5.961-3.443c-1.127,0.789-0.887,3.13,0.445,5.559c-6.387-3.937-11.711-9.396-15.501-15.831
			c1.141-0.795,2.258-2.615,2.867-4.887c0.892-3.328,0.357-6.363-1.194-6.779c-1.551-0.416-3.532,1.946-4.424,5.274
			c-0.051,0.191-0.097,0.382-0.139,0.571c-2.198-5.346-3.415-11.168-3.415-17.23c0-1.086-0.881-1.967-1.967-1.967
			s-1.967,0.881-1.967,1.967c0,2.018,0.135,4.009,0.375,5.971c-0.474-0.376-1.001-0.738-1.575-1.068
			c-2.984-1.723-6.054-1.992-6.857-0.601c-0.803,1.391,0.965,3.915,3.949,5.638c2.023,1.168,4.068,1.65,5.437,1.417
			c1.802,7.593,5.374,14.557,10.269,20.406c-3.138-0.721-5.911-0.169-6.307,1.309c-0.416,1.552,1.945,3.532,5.273,4.424
			c2.655,0.711,5.119,0.512,6.22-0.384c7.127,6.317,16.098,10.638,26.072,11.992c0.09,0.012,0.179,0.017,0.267,0.017
			c0.969,0,1.813-0.715,1.947-1.702C108.915,92.702,108.161,91.711,107.085,91.565z"/>
	</g>
	<g>
		<path class="st5" d="M170.749,192.448h-85c-2.761,0-5-2.239-5-5l0,0c0-2.761,2.239-5,5-5h85c2.761,0,5,2.239,5,5l0,0
			C175.749,190.209,173.51,192.448,170.749,192.448z"/>
	</g>
	<g>
		<path class="st3" d="M128,216.496c-3.437,0-5.964-5.484-9.065-6.49c-3.214-1.044-8.475,1.871-11.15-0.076
			c-2.702-1.966-1.546-7.883-3.512-10.585c-1.947-2.675-7.942-3.393-8.985-6.607c-1.007-3.101,3.388-7.192,3.388-10.628
			c0-3.437-4.395-7.528-3.388-10.629c1.044-3.214,7.039-3.932,8.985-6.607c1.966-2.702,0.81-8.619,3.512-10.585
			c2.675-1.947,7.936,0.968,11.149-0.076c3.101-1.007,5.628-6.49,9.065-6.49c3.437,0,5.964,5.484,9.065,6.49
			c3.214,1.044,8.475-1.871,11.15,0.076c2.702,1.966,1.546,7.883,3.512,10.585c1.947,2.675,7.942,3.393,8.985,6.607
			c1.007,3.101-3.388,7.192-3.388,10.628c0,3.437,4.395,7.528,3.388,10.629c-1.044,3.214-7.039,3.932-8.985,6.607
			c-1.966,2.702-0.81,8.619-3.512,10.585c-2.675,1.947-7.936-0.968-11.149,0.076C133.964,211.013,131.436,216.496,128,216.496z"/>
	</g>
	<g>
		<path class="st2" d="M137.065,210.006c-3.101,1.007-5.628,6.49-9.065,6.49c-3.437,0-5.964-5.484-9.065-6.49
			c-1.883-0.612-4.468,0.133-6.824,0.465v35.407c0,1.878,2.262,2.827,3.602,1.512l10.804-10.6c0.824-0.809,2.144-0.809,2.968,0
			l10.804,10.6c1.34,1.315,3.602,0.366,3.602-1.512v-35.406C141.533,210.139,138.948,209.394,137.065,210.006z"/>
	</g>
	<g>
		<path class="st1" d="M128,218.496c-2.776,0-4.816-2.135-6.616-4.019c-1.071-1.122-2.179-2.281-3.067-2.569
			c-0.969-0.316-2.604-0.024-4.186,0.258c-2.514,0.447-5.363,0.954-7.523-0.619c-2.181-1.587-2.578-4.47-2.927-7.013
			c-0.217-1.578-0.441-3.209-1.025-4.012c-0.569-0.783-2.037-1.49-3.457-2.174c-2.329-1.122-4.969-2.394-5.813-4.992
			c-0.813-2.503,0.537-5.031,1.728-7.261c0.769-1.438,1.563-2.927,1.563-3.985s-0.794-2.546-1.563-3.985
			c-1.19-2.23-2.541-4.758-1.728-7.262c0.844-2.598,3.484-3.87,5.813-4.992c1.42-0.684,2.888-1.391,3.458-2.174
			c0.584-0.802,0.808-2.434,1.025-4.011c0.35-2.543,0.746-5.426,2.927-7.014c2.162-1.572,5.011-1.065,7.523-0.619
			c1.582,0.281,3.216,0.572,4.186,0.258c0.888-0.288,1.996-1.448,3.067-2.569c1.8-1.884,3.839-4.019,6.616-4.019
			s4.816,2.135,6.616,4.019c1.071,1.122,2.179,2.281,3.067,2.569c0.967,0.315,2.603,0.023,4.186-0.258
			c2.515-0.446,5.364-0.953,7.523,0.619c2.181,1.587,2.578,4.47,2.927,7.013c0.217,1.578,0.441,3.209,1.025,4.012
			c0.569,0.783,2.037,1.49,3.457,2.174c2.329,1.122,4.969,2.394,5.813,4.992c0.813,2.504-0.537,5.031-1.728,7.261
			c-0.768,1.439-1.563,2.927-1.563,3.985s0.794,2.546,1.563,3.985c1.19,2.23,2.541,4.758,1.728,7.261
			c-0.844,2.598-3.484,3.87-5.813,4.992c-1.42,0.684-2.888,1.391-3.458,2.174c-0.584,0.802-0.808,2.434-1.025,4.012
			c-0.35,2.543-0.746,5.426-2.927,7.014c-2.161,1.573-5.01,1.066-7.523,0.619c-1.581-0.282-3.218-0.573-4.186-0.258
			c-0.888,0.288-1.996,1.448-3.067,2.569C132.816,216.361,130.776,218.496,128,218.496z M117.248,207.771
			c0.789,0,1.563,0.091,2.304,0.332c1.848,0.6,3.31,2.131,4.724,3.611c1.246,1.304,2.658,2.782,3.724,2.782
			c1.065,0,2.478-1.478,3.724-2.782c1.414-1.48,2.876-3.01,4.724-3.61c1.92-0.624,4.056-0.243,6.122,0.124
			c1.728,0.308,3.685,0.656,4.469,0.085c0.804-0.585,1.077-2.572,1.318-4.324c0.284-2.067,0.578-4.205,1.753-5.82
			c1.162-1.596,3.09-2.525,4.956-3.424c1.608-0.774,3.43-1.652,3.745-2.624c0.288-0.885-0.636-2.615-1.452-4.142
			c-1-1.873-2.034-3.81-2.034-5.869s1.034-3.996,2.034-5.869c0.815-1.526,1.739-3.256,1.452-4.142
			c-0.315-0.972-2.137-1.849-3.745-2.624c-1.865-0.899-3.794-1.828-4.955-3.424c-1.176-1.615-1.47-3.753-1.754-5.821
			c-0.241-1.752-0.514-3.739-1.318-4.324c-0.785-0.572-2.742-0.223-4.469,0.085c-2.065,0.368-4.201,0.748-6.122,0.124
			c-1.848-0.6-3.31-2.131-4.724-3.611c-1.246-1.304-2.658-2.782-3.724-2.782c-1.065,0-2.478,1.478-3.724,2.782
			c-1.414,1.48-2.876,3.01-4.724,3.61c-1.92,0.624-4.056,0.244-6.122-0.124c-1.728-0.307-3.684-0.655-4.469-0.085
			c-0.804,0.585-1.077,2.572-1.318,4.324c-0.284,2.067-0.578,4.205-1.753,5.82c-1.162,1.596-3.09,2.525-4.956,3.424
			c-1.608,0.774-3.43,1.652-3.745,2.624c-0.288,0.885,0.636,2.616,1.452,4.142c1,1.873,2.034,3.81,2.034,5.869
			c0,2.06-1.034,3.996-2.034,5.869c-0.815,1.526-1.739,3.257-1.452,4.142c0.315,0.972,2.137,1.849,3.745,2.624
			c1.865,0.899,3.794,1.828,4.955,3.424c1.176,1.615,1.47,3.753,1.754,5.821c0.241,1.752,0.514,3.739,1.318,4.324
			c0.783,0.57,2.741,0.222,4.469-0.085C114.699,208.001,115.993,207.771,117.248,207.771z"/>
	</g>
	<g>
		<path class="st1" d="M114.231,249.997c-0.538,0-1.08-0.105-1.597-0.322c-1.533-0.644-2.524-2.134-2.524-3.798V210.47
			c0-0.997,0.734-1.841,1.721-1.98c0.523-0.074,1.059-0.169,1.595-0.264c2.067-0.367,4.205-0.746,6.126-0.123
			c1.848,0.6,3.31,2.131,4.724,3.611c1.246,1.304,2.658,2.782,3.724,2.782c1.065,0,2.478-1.478,3.724-2.782
			c1.414-1.48,2.876-3.01,4.724-3.61c1.921-0.623,4.06-0.245,6.126,0.123c0.536,0.095,1.072,0.19,1.595,0.264
			c0.987,0.139,1.721,0.984,1.721,1.98v35.406c0,1.663-0.991,3.154-2.524,3.798c-1.533,0.645-3.291,0.307-4.479-0.858l-10.804-10.6
			c-0.046-0.046-0.12-0.046-0.167,0l-10.803,10.6C116.326,249.589,115.289,249.997,114.231,249.997z M114.11,212.167v33.71
			c0,0.044,0,0.079,0.073,0.109c0.071,0.031,0.095,0.007,0.128-0.024l10.804-10.601c1.591-1.561,4.179-1.561,5.769,0l10.804,10.6
			c0.031,0.031,0.055,0.057,0.129,0.025c0.073-0.03,0.073-0.065,0.073-0.109v-33.71c-0.005-0.001-0.01-0.002-0.015-0.003
			c-1.583-0.281-3.222-0.572-4.191-0.256c0,0,0,0,0,0c-0.888,0.288-1.996,1.448-3.067,2.569c-1.8,1.884-3.839,4.019-6.616,4.019
			s-4.816-2.135-6.616-4.019c-1.071-1.122-2.179-2.281-3.067-2.569c-0.972-0.315-2.608-0.024-4.192,0.256
			C114.12,212.165,114.115,212.166,114.11,212.167z M137.065,210.006h0.01H137.065z"/>
	</g>
	<g>
		<circle class="st6" cx="128" cy="182.177" r="20.392"/>
	</g>
</g>
</svg>
