<?xml version="1.0" encoding="utf-8"?>
<!-- Generator: Adobe Illustrator 22.1.0, SVG Export Plug-In . SVG Version: 6.00 Build 0)  -->
<svg version="1.1" id="Layer_1" xmlns="http://www.w3.org/2000/svg" xmlns:xlink="http://www.w3.org/1999/xlink" x="0px" y="0px"
	 viewBox="0 0 256 256" style="enable-background:new 0 0 256 256;" xml:space="preserve">
<style type="text/css">
	.st0{fill:#E0EBFC;}
	.st1{fill:#3762CC;}
	.st2{fill:#4671C6;}
	.st3{fill:#6BDDDD;}
	.st4{fill:#F9A7A7;}
	.st5{fill:#A4C9FF;}
	.st6{fill:#FFEA92;}
	.st7{fill:#F9CFCF;}
	.st8{fill:#FFE164;}
	.st9{fill:#FFDC85;}
	.st10{fill:#FFEA94;}
	.st11{fill:#B9BEFC;}
	.st12{fill:#EAA97D;}
</style>
<g>
	<g>
		<rect x="20.5" y="141" class="st0" width="215" height="82"/>
	</g>
	<g>
		<rect x="20.5" y="174.125" class="st7" width="215" height="6"/>
	</g>
	<g>
		<path class="st5" d="M15.5,131.25h225V139c0,1.105-0.895,2-2,2h-221c-1.105,0-2-0.895-2-2V131.25z"/>
	</g>
	<g>
		<path class="st2" d="M222.185,95.75H33.815c-2.009,0-3.824,1.203-4.606,3.054L15.5,131.25h225l-13.71-32.446
			C226.008,96.953,224.194,95.75,222.185,95.75z"/>
	</g>
	<g>
		<path class="st1" d="M238.5,143h-221c-2.206,0-4-1.794-4-4v-7.75c0-1.104,0.896-2,2-2h225c1.104,0,2,0.896,2,2V139
			C242.5,141.206,240.706,143,238.5,143z M17.5,133.25V139h221v-5.75H17.5z"/>
	</g>
	<g>
		<path class="st1" d="M240.5,133.25h-225c-0.67,0-1.296-0.336-1.667-0.895s-0.436-1.267-0.175-1.884l13.709-32.446
			c1.098-2.598,3.629-4.275,6.448-4.275h188.369c2.819,0,5.351,1.678,6.448,4.275l13.709,32.446
			c0.261,0.617,0.195,1.325-0.175,1.884S241.17,133.25,240.5,133.25z M18.516,129.25h218.968l-12.536-29.668
			c-0.47-1.112-1.555-1.832-2.764-1.832H33.815c-1.208,0-2.293,0.72-2.764,1.832L18.516,129.25z"/>
	</g>
	<g>
		<path class="st1" d="M235.5,225h-215c-1.104,0-2-0.896-2-2v-82c0-1.104,0.896-2,2-2h215c1.104,0,2,0.896,2,2v82
			C237.5,224.104,236.604,225,235.5,225z M22.5,221h211v-78h-211V221z"/>
	</g>
	<g>
		<path class="st3" d="M151.5,24.905H128V7.953h23.5c1.105,0,2,0.895,2,2v12.953C153.5,24.01,152.605,24.905,151.5,24.905z"/>
	</g>
	<g>
		<path class="st1" d="M151.5,26.905H128c-1.104,0-2-0.896-2-2s0.896-2,2-2h23.5V9.953H128c-1.104,0-2-0.896-2-2s0.896-2,2-2h23.5
			c2.206,0,4,1.794,4,4v12.952C155.5,25.111,153.706,26.905,151.5,26.905z"/>
	</g>
	<g>
		<path class="st1" d="M128,43.953c-1.104,0-2-0.896-2-2v-34c0-1.104,0.896-2,2-2s2,0.896,2,2v34
			C130,43.058,129.104,43.953,128,43.953z"/>
	</g>
	<g>
		<path class="st3" d="M245,248H11c-1.657,0-3-1.343-3-3v-8c0-1.657,1.343-3,3-3h234c1.657,0,3,1.343,3,3v8
			C248,246.657,246.657,248,245,248z"/>
	</g>
	<g>
		<path class="st3" d="M242,234H14v-8c0-1.657,1.343-3,3-3h222c1.657,0,3,1.343,3,3V234z"/>
	</g>
	<g>
		<path class="st1" d="M245,250H11c-2.757,0-5-2.243-5-5v-8c0-2.757,2.243-5,5-5h234c2.757,0,5,2.243,5,5v8
			C250,247.757,247.757,250,245,250z M11,236c-0.551,0-1,0.448-1,1v8c0,0.552,0.449,1,1,1h234c0.551,0,1-0.448,1-1v-8
			c0-0.552-0.449-1-1-1H11z"/>
	</g>
	<g>
		<path class="st1" d="M242,236H14c-1.104,0-2-0.896-2-2v-8c0-2.757,2.243-5,5-5h222c2.757,0,5,2.243,5,5v8
			C244,235.104,243.104,236,242,236z M16,232h224v-6c0-0.552-0.449-1-1-1H17c-0.551,0-1,0.448-1,1V232z"/>
	</g>
	<g>
		<path class="st2" d="M45.5,216h-15v-21.25c0-4.142,3.358-7.5,7.5-7.5h0c4.142,0,7.5,3.358,7.5,7.5V216z"/>
	</g>
	<g>
		<path class="st2" d="M69.5,216h-15v-21.25c0-4.142,3.358-7.5,7.5-7.5h0c4.142,0,7.5,3.358,7.5,7.5V216z"/>
	</g>
	<g>
		<path class="st2" d="M201.5,216h-15v-21.25c0-4.142,3.358-7.5,7.5-7.5l0,0c4.142,0,7.5,3.358,7.5,7.5V216z"/>
	</g>
	<g>
		<path class="st2" d="M225.5,216h-15v-21.25c0-4.142,3.358-7.5,7.5-7.5l0,0c4.142,0,7.5,3.358,7.5,7.5V216z"/>
	</g>
	<g>
		<path class="st2" d="M43.5,164.75h-11c-1.105,0-2-0.895-2-2v-11c0-1.105,0.895-2,2-2h11c1.105,0,2,0.895,2,2v11
			C45.5,163.855,44.605,164.75,43.5,164.75z"/>
	</g>
	<g>
		<path class="st2" d="M67.5,164.75h-11c-1.105,0-2-0.895-2-2v-11c0-1.105,0.895-2,2-2h11c1.105,0,2,0.895,2,2v11
			C69.5,163.855,68.605,164.75,67.5,164.75z"/>
	</g>
	<g>
		<path class="st2" d="M199.5,164.75h-11c-1.105,0-2-0.895-2-2v-11c0-1.105,0.895-2,2-2h11c1.105,0,2,0.895,2,2v11
			C201.5,163.855,200.605,164.75,199.5,164.75z"/>
	</g>
	<g>
		<path class="st2" d="M223.5,164.75h-11c-1.105,0-2-0.895-2-2v-11c0-1.105,0.895-2,2-2h11c1.105,0,2,0.895,2,2v11
			C225.5,163.855,224.605,164.75,223.5,164.75z"/>
	</g>
	<g>
		<path class="st7" d="M164,52.5H92c-2.209,0-4,1.791-4,4v65.502h80V56.5C168,54.291,166.209,52.5,164,52.5z"/>
	</g>
	<g>
		<path class="st7" d="M154,52.5h-52V41.25c0-2.209,1.791-4,4-4h44c2.209,0,4,1.791,4,4V52.5z"/>
	</g>
	<g>
		<circle class="st2" cx="126.933" cy="87.251" r="23.365"/>
	</g>
	<g>
		<circle class="st3" cx="126.933" cy="87.251" r="16.615"/>
	</g>
	<g>
		<path class="st1" d="M126.933,112.616c-13.986,0-25.365-11.379-25.365-25.365s11.379-25.365,25.365-25.365
			c13.987,0,25.366,11.379,25.366,25.365S140.919,112.616,126.933,112.616z M126.933,65.886c-11.781,0-21.365,9.584-21.365,21.365
			s9.584,21.365,21.365,21.365c11.781,0,21.366-9.584,21.366-21.365S138.714,65.886,126.933,65.886z"/>
	</g>
	<g>
		<path class="st4" d="M178.499,223H77.501v-96.998c0-2.209,1.791-4,4-4h92.998c2.209,0,4,1.791,4,4V223z"/>
	</g>
	<g>
		<path class="st2" d="M150.5,223h-45v-36.25c0-12.426,10.074-22.5,22.5-22.5h0c12.426,0,22.5,10.074,22.5,22.5V223z"/>
	</g>
	<g>
		<path class="st1" d="M168,124.002H88c-1.104,0-2-0.896-2-2V56.5c0-3.309,2.691-6,6-6h72c3.309,0,6,2.691,6,6v65.502
			C170,123.106,169.104,124.002,168,124.002z M90,120.002h76V56.5c0-1.103-0.897-2-2-2H92c-1.103,0-2,0.897-2,2V120.002z"/>
	</g>
	<g>
		<path class="st1" d="M154,54.5h-52c-1.104,0-2-0.896-2-2V41.25c0-3.309,2.691-6,6-6h44c3.309,0,6,2.691,6,6V52.5
			C156,53.604,155.104,54.5,154,54.5z M104,50.5h48v-9.25c0-1.103-0.897-2-2-2h-44c-1.103,0-2,0.897-2,2V50.5z"/>
	</g>
	<g>
		<path class="st1" d="M178.499,225H77.501c-1.104,0-2-0.896-2-2v-96.998c0-3.309,2.691-6,6-6h92.998c3.309,0,6,2.691,6,6V223
			C180.499,224.104,179.604,225,178.499,225z M79.501,221h96.998v-94.998c0-1.103-0.897-2-2-2H81.501c-1.103,0-2,0.897-2,2V221z"/>
	</g>
	<g>
		<path class="st1" d="M150.5,225h-45c-1.104,0-2-0.896-2-2v-36.25c0-13.51,10.991-24.5,24.5-24.5s24.5,10.99,24.5,24.5V223
			C152.5,224.104,151.604,225,150.5,225z M107.5,221h41v-34.25c0-11.304-9.196-20.5-20.5-20.5s-20.5,9.196-20.5,20.5V221z"/>
	</g>
</g>
</svg>
