<?xml version="1.0" encoding="utf-8"?>
<!-- Generator: Adobe Illustrator 22.1.0, SVG Export Plug-In . SVG Version: 6.00 Build 0)  -->
<svg version="1.1" id="Layer_1" xmlns="http://www.w3.org/2000/svg" xmlns:xlink="http://www.w3.org/1999/xlink" x="0px" y="0px"
	 viewBox="0 0 256 256" style="enable-background:new 0 0 256 256;" xml:space="preserve">
<style type="text/css">
	.st0{fill:#E0EBFC;}
	.st1{fill:#3762CC;}
	.st2{fill:#4671C6;}
	.st3{fill:#6BDDDD;}
	.st4{fill:#F9A7A7;}
	.st5{fill:#A4C9FF;}
	.st6{fill:#FFEA92;}
	.st7{fill:#F9CFCF;}
	.st8{fill:#FFE164;}
	.st9{fill:#FFDC85;}
	.st10{fill:#FFEA94;}
	.st11{fill:#B9BEFC;}
	.st12{fill:#EAA97D;}
</style>
<g>
	<g>
		<path class="st3" d="M13.835,129.217h163.383c3.223,0,5.835-2.612,5.835-5.835V17.899c0-3.223-2.612-5.835-5.835-5.835H13.835
			C10.612,12.064,8,14.676,8,17.899v105.483C8,126.604,10.612,129.217,13.835,129.217z"/>
	</g>
	<g>
		<path class="st5" d="M171.869,117.746V23.534c0-1.165-0.945-2.11-2.11-2.11H21.294c-1.165,0-2.11,0.945-2.11,2.11v94.212
			c0,1.165,0.945,2.11,2.11,2.11h148.465C170.924,119.856,171.869,118.911,171.869,117.746z"/>
	</g>
	<g>
		<path class="st1" d="M177.218,131.217H13.835c-4.32,0-7.835-3.515-7.835-7.835V17.898c0-4.32,3.515-7.835,7.835-7.835h163.383
			c4.32,0,7.835,3.515,7.835,7.835v105.483C185.053,127.702,181.538,131.217,177.218,131.217z M13.835,14.063
			c-2.115,0-3.835,1.72-3.835,3.835v105.483c0,2.115,1.72,3.835,3.835,3.835h163.383c2.115,0,3.835-1.721,3.835-3.835V17.898
			c0-2.115-1.72-3.835-3.835-3.835H13.835z"/>
	</g>
	<g>
		<path class="st1" d="M169.759,121.856H21.294c-2.266,0-4.11-1.844-4.11-4.11V23.534c0-2.267,1.844-4.11,4.11-4.11h148.465
			c2.267,0,4.11,1.844,4.11,4.11v94.212C173.869,120.013,172.025,121.856,169.759,121.856z M21.294,23.424
			c-0.061,0-0.11,0.049-0.11,0.11v94.212c0,0.061,0.049,0.11,0.11,0.11h148.465c0.061,0,0.11-0.049,0.11-0.11V23.534
			c0-0.061-0.049-0.11-0.11-0.11H21.294z"/>
	</g>
	<g>
		<path class="st4" d="M19.184,129.217h71.531v-12.722c0-1.611-1.306-2.918-2.918-2.918H22.101c-1.611,0-2.918,1.306-2.918,2.918
			V129.217z"/>
	</g>
	<g>
		<path class="st1" d="M90.715,131.217H19.184c-1.104,0-2-0.896-2-2v-12.723c0-2.711,2.206-4.917,4.917-4.917h65.696
			c2.711,0,4.917,2.206,4.917,4.917v12.723C92.715,130.321,91.82,131.217,90.715,131.217z M21.184,127.217h67.531v-10.723
			c0-0.506-0.412-0.917-0.917-0.917H22.102c-0.506,0-0.917,0.412-0.917,0.917V127.217z"/>
	</g>
	<g>
		<path class="st6" d="M149.824,91.175c0-9.573,0-16.957,0-25.453l-2.466,0.947c0,8.189,0,19.134,0,24.505
			c-0.878,0.449-1.48,1.361-1.48,2.414v6.494h5.425v-6.494C151.304,92.535,150.702,91.624,149.824,91.175z"/>
	</g>
	<g>
		<path class="st2" d="M92.08,41.793l-51.36,19.73c-1.916,0.736-1.916,3.446,0,4.182l51.36,19.73c2.069,0.795,4.358,0.795,6.427,0
			l51.36-19.73c1.916-0.736,1.916-3.446,0-4.182l-51.36-19.73C96.438,40.998,94.149,40.998,92.08,41.793z"/>
	</g>
	<g>
		<path class="st1" d="M95.293,88.033c-1.332,0-2.663-0.244-3.93-0.73l-51.36-19.73c-1.652-0.635-2.72-2.189-2.719-3.959
			c0-1.77,1.067-3.323,2.719-3.958l51.36-19.73c2.534-0.974,5.327-0.974,7.861,0l51.36,19.729c1.652,0.635,2.72,2.188,2.72,3.958
			c0,1.77-1.067,3.324-2.72,3.958l-51.36,19.73C97.957,87.789,96.625,88.033,95.293,88.033z M95.293,43.196
			c-0.846,0-1.691,0.155-2.496,0.464c0,0,0,0,0,0l-51.36,19.73c-0.054,0.021-0.154,0.059-0.154,0.224s0.1,0.204,0.154,0.225
			l51.359,19.729c1.609,0.618,3.383,0.618,4.992,0l51.36-19.73c0.054-0.021,0.154-0.059,0.154-0.224s-0.1-0.204-0.154-0.224
			L97.79,43.66C96.985,43.351,96.139,43.196,95.293,43.196z M92.08,41.793h0.01H92.08z"/>
	</g>
	<g>
		<path class="st2" d="M126.874,67.058H63.927c-0.576,0-1.042,0.467-1.042,1.042v15.542c0,3.431,14.558,6.212,32.516,6.212
			s32.516-2.781,32.516-6.212h0.001V68.1C127.916,67.524,127.449,67.058,126.874,67.058z"/>
	</g>
	<g>
		<path class="st1" d="M95.4,91.854c-3.533,0-34.516-0.23-34.516-8.211V68.1c0-1.678,1.365-3.042,3.042-3.042h62.947
			c1.678,0,3.042,1.365,3.042,3.042v15.542C129.915,91.623,98.933,91.854,95.4,91.854z M64.884,83.421
			c1.365,1.555,11.65,4.433,30.516,4.433s29.151-2.877,30.516-4.433l0-14.363H64.884V83.421z M126.874,69.058h0.01H126.874z"/>
	</g>
	<g>
		<path class="st0" d="M240,211.23H109.7c-4.418,0-8-3.582-8-8v-85.197c0-4.418,3.582-8,8-8H240c4.418,0,8,3.582,8,8v85.197
			C248,207.648,244.418,211.23,240,211.23z"/>
	</g>
	<g>
		<path class="st4" d="M149.365,168.835v-5.081c0-8.778-7.116-15.894-15.894-15.894s-15.894,7.116-15.894,15.894v5.081H149.365z"/>
	</g>
	<g>
		<path class="st5" d="M149.365,168.835v-5.081c0-8.778-7.116-15.894-15.894-15.894s-15.894,7.116-15.894,15.894v5.081H149.365z"/>
	</g>
	<g>
		<path class="st1" d="M149.365,170.835h-31.787c-1.104,0-2-0.896-2-2v-5.082c0-9.867,8.027-17.894,17.894-17.894
			s17.894,8.027,17.894,17.894v5.082C151.365,169.939,150.47,170.835,149.365,170.835z M119.578,166.835h27.787v-3.082
			c0-7.661-6.232-13.894-13.894-13.894s-13.894,6.232-13.894,13.894V166.835z"/>
	</g>
	<g>
		<path class="st1" d="M149.365,170.835h-31.787c-1.104,0-2-0.896-2-2v-5.082c0-9.867,8.027-17.894,17.894-17.894
			s17.894,8.027,17.894,17.894v5.082C151.365,169.939,150.47,170.835,149.365,170.835z M119.578,166.835h27.787v-3.082
			c0-7.661-6.232-13.894-13.894-13.894s-13.894,6.232-13.894,13.894V166.835z"/>
	</g>
	<g>
		<circle class="st7" cx="133.472" cy="135.961" r="14.053"/>
	</g>
	<g>
		<path class="st1" d="M133.472,152.015c-8.852,0-16.053-7.202-16.053-16.053s7.202-16.053,16.053-16.053
			s16.053,7.202,16.053,16.053S142.323,152.015,133.472,152.015z M133.472,123.908c-6.646,0-12.053,5.407-12.053,12.053
			s5.407,12.053,12.053,12.053s12.053-5.407,12.053-12.053S140.118,123.908,133.472,123.908z"/>
	</g>
	<g>
		<path class="st7" d="M227.429,131.294h-58.54c-2.592,0-4.693-2.101-4.693-4.693v0c0-2.592,2.101-4.693,4.693-4.693h58.54
			c2.592,0,4.693,2.101,4.693,4.693v0C232.122,129.193,230.021,131.294,227.429,131.294z"/>
	</g>
	<g>
		<path class="st7" d="M227.429,150.064h-58.54c-2.592,0-4.693-2.101-4.693-4.693v0c0-2.592,2.101-4.693,4.693-4.693h58.54
			c2.592,0,4.693,2.101,4.693,4.693v0C232.122,147.963,230.021,150.064,227.429,150.064z"/>
	</g>
	<g>
		<path class="st7" d="M227.429,168.835h-58.54c-2.592,0-4.693-2.101-4.693-4.693v0c0-2.592,2.101-4.693,4.693-4.693h58.54
			c2.592,0,4.693,2.101,4.693,4.693v0C232.122,166.734,230.021,168.835,227.429,168.835z"/>
	</g>
	<g>
		<path class="st5" d="M90.333,190.911H60.949c-1.103,0-2-0.897-2-2v-33.895h4.173c1.835,0,2.931-2.042,1.917-3.571l-8.173-12.322
			c-0.91-1.372-2.924-1.372-3.833,0l-8.173,12.322c-1.014,1.529,0.082,3.571,1.917,3.571h4.173v33.895c0,5.514,4.486,10,10,10
			h29.384c2.209,0,4-1.791,4-4S92.542,190.911,90.333,190.911z"/>
	</g>
	<g>
		<path class="st5" d="M193.116,45.759H222.5c1.103,0,2,0.897,2,2v33.895h-4.173c-1.835,0-2.931,2.042-1.917,3.571l8.173,12.322
			c0.91,1.372,2.924,1.372,3.833,0l8.173-12.322c1.014-1.529-0.082-3.571-1.917-3.571H232.5V47.759c0-5.514-4.486-10-10-10h-29.384
			c-2.209,0-4,1.791-4,4S190.907,45.759,193.116,45.759z"/>
	</g>
	<g>
		<path class="st1" d="M240,213.23H109.7c-5.514,0-10-4.486-10-10v-85.197c0-5.514,4.486-10,10-10H240c5.514,0,10,4.486,10,10
			v85.197C250,208.744,245.514,213.23,240,213.23z M109.7,112.033c-3.309,0-6,2.691-6,6v85.197c0,3.309,2.691,6,6,6H240
			c3.309,0,6-2.691,6-6v-85.197c0-3.309-2.691-6-6-6H109.7z"/>
	</g>
	<g>
		<circle class="st3" cx="175.719" cy="211.23" r="32.706"/>
	</g>
	<g>
		<path class="st6" d="M175.719,235.776c-13.534,0-24.546-11.011-24.546-24.546c0-13.535,11.012-24.545,24.546-24.545
			s24.545,11.011,24.545,24.545C200.264,224.765,189.253,235.776,175.719,235.776z"/>
	</g>
	<g>
		<path class="st4" d="M168.169,226.676c-0.006,0-0.012,0-0.017,0c-1.814-0.005-3.524-0.892-4.573-2.371l-7.716-10.867
			c-1.199-1.69-0.803-4.033,0.888-5.233c1.692-1.201,4.034-0.801,5.233,0.888l6.195,8.726l16.204-22.529
			c1.21-1.683,3.556-2.065,5.239-0.855c1.682,1.21,2.065,3.556,0.855,5.239l-17.738,24.661
			C171.684,225.801,169.976,226.676,168.169,226.676z"/>
	</g>
	<g>
		<path class="st1" d="M175.719,245.937c-19.137,0-34.706-15.569-34.706-34.707s15.569-34.706,34.706-34.706
			s34.707,15.569,34.707,34.706S194.856,245.937,175.719,245.937z M175.719,180.524c-16.931,0-30.706,13.775-30.706,30.706
			c0,16.932,13.775,30.707,30.706,30.707c16.932,0,30.707-13.775,30.707-30.707C206.425,194.299,192.65,180.524,175.719,180.524z"/>
	</g>
</g>
</svg>
