<?xml version="1.0" encoding="utf-8"?>
<!-- Generator: Adobe Illustrator 22.1.0, SVG Export Plug-In . SVG Version: 6.00 Build 0)  -->
<svg version="1.1" id="Layer_1" xmlns="http://www.w3.org/2000/svg" xmlns:xlink="http://www.w3.org/1999/xlink" x="0px" y="0px"
	 viewBox="0 0 256 256" style="enable-background:new 0 0 256 256;" xml:space="preserve">
<style type="text/css">
	.st0{fill:#E0EBFC;}
	.st1{fill:#3762CC;}
	.st2{fill:#4671C6;}
	.st3{fill:#6BDDDD;}
	.st4{fill:#F9A7A7;}
	.st5{fill:#A4C9FF;}
	.st6{fill:#FFEA92;}
	.st7{fill:#F9CFCF;}
	.st8{fill:#FFE164;}
	.st9{fill:#FFDC85;}
	.st10{fill:#FFEA94;}
	.st11{fill:#B9BEFC;}
	.st12{fill:#EAA97D;}
</style>
<g>
	<g>
		<path class="st4" d="M77.262,248.08v-7.598c0-13.125-10.64-23.764-23.764-23.764s-23.764,10.64-23.764,23.764v7.598H77.262z"/>
	</g>
	<g>
		<path class="st4" d="M151.764,248.08v-7.598c0-13.125-10.64-23.764-23.764-23.764s-23.764,10.64-23.764,23.764v7.598H151.764z"/>
	</g>
	<g>
		<path class="st3" d="M151.764,248.08v-7.598c0-13.125-10.64-23.764-23.764-23.764s-23.764,10.64-23.764,23.764v7.598H151.764z"/>
	</g>
	<g>
		<path class="st4" d="M226.267,248.08v-7.598c0-13.125-10.64-23.764-23.764-23.764s-23.764,10.64-23.764,23.764v7.598H226.267z"/>
	</g>
	<g>
		<path class="st5" d="M226.267,248.08v-7.598c0-13.125-10.64-23.764-23.764-23.764s-23.764,10.64-23.764,23.764v7.598H226.267z"/>
	</g>
	<g>
		<path class="st1" d="M77.262,250.08H29.733c-1.104,0-2-0.896-2-2v-7.598c0-14.207,11.558-25.764,25.764-25.764
			s25.764,11.558,25.764,25.764v7.598C79.262,249.185,78.366,250.08,77.262,250.08z M31.733,246.08h43.528v-5.598
			c0-12.001-9.763-21.764-21.764-21.764s-21.764,9.763-21.764,21.764V246.08z"/>
	</g>
	<g>
		<path class="st1" d="M151.764,250.08h-47.528c-1.104,0-2-0.896-2-2v-7.598c0-14.207,11.558-25.764,25.764-25.764
			s25.764,11.558,25.764,25.764v7.598C153.764,249.185,152.869,250.08,151.764,250.08z M106.236,246.08h43.528v-5.598
			c0-12.001-9.763-21.764-21.764-21.764s-21.764,9.763-21.764,21.764V246.08z"/>
	</g>
	<g>
		<path class="st1" d="M151.764,250.08h-47.528c-1.104,0-2-0.896-2-2v-7.598c0-14.207,11.558-25.764,25.764-25.764
			s25.764,11.558,25.764,25.764v7.598C153.764,249.185,152.869,250.08,151.764,250.08z M106.236,246.08h43.528v-5.598
			c0-12.001-9.763-21.764-21.764-21.764s-21.764,9.763-21.764,21.764V246.08z"/>
	</g>
	<g>
		<path class="st1" d="M226.267,250.08h-47.528c-1.104,0-2-0.896-2-2v-7.598c0-14.207,11.558-25.764,25.764-25.764
			s25.764,11.558,25.764,25.764v7.598C228.267,249.185,227.371,250.08,226.267,250.08z M180.738,246.08h43.528v-5.598
			c0-12.001-9.763-21.764-21.764-21.764s-21.764,9.763-21.764,21.764V246.08z"/>
	</g>
	<g>
		<path class="st1" d="M226.267,250.08h-47.528c-1.104,0-2-0.896-2-2v-7.598c0-14.207,11.558-25.764,25.764-25.764
			s25.764,11.558,25.764,25.764v7.598C228.267,249.185,227.371,250.08,226.267,250.08z M180.738,246.08h43.528v-5.598
			c0-12.001-9.763-21.764-21.764-21.764s-21.764,9.763-21.764,21.764V246.08z"/>
	</g>
	<g>
		<path class="st3" d="M240.505,158.396H30.65c-4.139,0-7.495-3.356-7.495-7.495V15.415c0-4.139,3.356-7.495,7.495-7.495h209.856
			c4.139,0,7.495,3.356,7.495,7.495v135.487C248,155.041,244.644,158.396,240.505,158.396z"/>
	</g>
	<g>
		<path class="st5" d="M32.359,146.847V19.469c0-1.576,1.277-2.853,2.853-2.853h200.731c1.576,0,2.853,1.277,2.853,2.853v127.379
			c0,1.576-1.277,2.853-2.853,2.853H35.212C33.636,149.701,32.359,148.423,32.359,146.847z"/>
	</g>
	<g>
		<path class="st0" d="M59.883,88.677c4.065-4.029,8.375-6.102,11.297-10.922c3.84-6.341,0.857-16.499-10.889-16.499
			c-13.445,0-15.753,14.903-8.521,14.903c3.897,0,4.224-4.065,5.074-5.566c3.296-5.051,12.476,0.818,2.041,8.202
			c-2.235,1.505-7.024,6.315-8.95,8.314c-4.093,4.35-2.367,9.766,2.698,9.766h16.289c2.857,0,4.386-1.899,4.386-4.077
			C73.309,87.513,66.383,88.677,59.883,88.677z"/>
	</g>
	<g>
		<path class="st0" d="M102.359,83.043c4.166-5.611,7.943-9.164,4.504-12.122c-1.531-1.313-4.062-1.415-5.634-0.117
			c-1.274,1.053-2.593,3.144-4.526,5.863c-3.709-5.072-4.539-6.779-7.286-6.779c-2.604,0-4.21,1.857-4.21,3.789
			c0,2.015,1.082,3.059,5.764,9.367c-5.073,7.27-6.361,8.712-6.361,10.53c0,1.944,1.744,3.856,4.254,3.856
			c2.804,0,3.6-1.727,7.841-7.808c3.776,5.549,4.831,7.808,7.806,7.808c1.144,0,2.133-0.352,2.941-1.047
			C110.682,93.597,107.635,90.603,102.359,83.043z"/>
	</g>
	<g>
		<path class="st0" d="M141.493,88.677h-8.398c4.878-4.835,16.124-10.621,12.113-20.612c-3.721-9.272-19.663-9.099-23.481,0.13
			c-3.203,7.751,3.875,9.605,6.321,6.623c1.412-1.727,1.202-2.8,2.008-4.224c2.534-3.883,8.656-1.332,6.381,3.575
			c-2.116,4.565-20.825,14.843-14.226,21.359c0.905,0.895,2.128,1.348,3.635,1.348c17.384,0,18.001,0.401,19.545-1.212
			c0.739-0.774,1.131-1.764,1.131-2.864C146.522,90.547,144.874,88.677,141.493,88.677z"/>
	</g>
	<g>
		<path class="st0" d="M162.85,80.001h16.909c5.803,0,5.795-8.773,0-8.773H162.85c-2.422,0-4.386,1.964-4.386,4.386
			C158.464,78.036,160.426,80.001,162.85,80.001z"/>
	</g>
	<g>
		<path class="st0" d="M162.85,92.802h16.909c5.803,0,5.795-8.773,0-8.773H162.85c-2.422,0-4.386,1.964-4.386,4.386
			C158.464,90.836,160.426,92.802,162.85,92.802z"/>
	</g>
	<g>
		<path class="st0" d="M218.738,82.026V66.372c0-3.393-1.768-5.338-4.851-5.338c-3.045,0-2.799,0.961-17.414,20.316
			c-3.436,4.589-0.677,8.596,4.134,8.596h9.624c0,1.777-0.657,7.481,4.253,7.481c4.826,0,4.253-5.212,4.253-7.482
			c1.38-0.017,2.439-0.297,3.237-0.853C224.067,87.634,224.838,82.275,218.738,82.026z M205.152,82.015l5.079-6.863v6.863H205.152z"
			/>
	</g>
	<g>
		<path class="st1" d="M240.505,160.396H30.649c-5.235,0-9.495-4.259-9.495-9.495V15.415c0-5.235,4.259-9.495,9.495-9.495h209.856
			c5.235,0,9.495,4.259,9.495,9.495v135.487C250,156.137,245.741,160.396,240.505,160.396z M30.649,9.92
			c-3.03,0-5.495,2.465-5.495,5.495v135.487c0,3.03,2.465,5.495,5.495,5.495h209.856c3.03,0,5.495-2.465,5.495-5.495V15.415
			c0-3.03-2.465-5.495-5.495-5.495H30.649z"/>
	</g>
	<g>
		<path class="st1" d="M235.943,151.701H35.212c-2.676,0-4.853-2.177-4.853-4.853V19.469c0-2.676,2.177-4.854,4.853-4.854h200.731
			c2.676,0,4.853,2.177,4.853,4.854v127.379C240.796,149.523,238.619,151.701,235.943,151.701z M35.212,18.615
			c-0.47,0-0.853,0.383-0.853,0.854v127.379c0,0.47,0.383,0.853,0.853,0.853h200.731c0.47,0,0.853-0.383,0.853-0.853V19.469
			c0-0.471-0.383-0.854-0.853-0.854H35.212z"/>
	</g>
	<g>
		<path class="st4" d="M238.796,158.396h-91.878v-16.341c0-2.07,1.678-3.747,3.747-3.747h84.383c2.07,0,3.747,1.678,3.747,3.747
			V158.396z"/>
	</g>
	<g>
		<path class="st1" d="M238.796,160.396h-91.878c-1.104,0-2-0.896-2-2v-16.341c0-3.169,2.578-5.748,5.748-5.748h84.383
			c3.169,0,5.748,2.578,5.748,5.748v16.341C240.796,159.501,239.9,160.396,238.796,160.396z M148.918,156.396h87.878v-14.341
			c0-0.963-0.784-1.748-1.748-1.748h-84.383c-0.963,0-1.748,0.784-1.748,1.748V156.396z"/>
	</g>
	<g>
		<path class="st2" d="M34.261,135.064C19.757,135.064,8,146.822,8,161.325c0,10.36,0,18.292,0,28.153h52.522
			c0-9.762,0-17.938,0-28.153C60.522,146.822,48.764,135.064,34.261,135.064z"/>
	</g>
	<g>
		<path class="st1" d="M60.522,191.479H8c-1.104,0-2-0.896-2-2v-28.153c0-15.583,12.678-28.261,28.261-28.261
			c15.583,0,28.261,12.678,28.261,28.261v28.153C62.522,190.583,61.626,191.479,60.522,191.479z M10,187.479h48.522v-26.153
			c0-13.377-10.884-24.261-24.261-24.261S10,147.948,10,161.325V187.479z"/>
	</g>
	<g>
		<circle class="st7" cx="34.261" cy="113.085" r="25.8"/>
	</g>
	<g>
		<path class="st1" d="M34.261,140.885c-15.329,0-27.8-12.471-27.8-27.8s12.471-27.8,27.8-27.8s27.8,12.471,27.8,27.8
			S49.59,140.885,34.261,140.885z M34.261,89.285c-13.123,0-23.8,10.677-23.8,23.8s10.677,23.8,23.8,23.8
			c13.124,0,23.8-10.677,23.8-23.8S47.384,89.285,34.261,89.285z"/>
	</g>
	<g>
		<circle class="st7" cx="53.497" cy="196.928" r="23.347"/>
	</g>
	<g>
		<circle class="st7" cx="128" cy="196.928" r="23.347"/>
	</g>
	<g>
		<circle class="st7" cx="202.503" cy="196.928" r="23.347"/>
	</g>
	<g>
		<path class="st1" d="M53.498,222.275c-13.977,0-25.348-11.371-25.348-25.347s11.371-25.348,25.348-25.348
			s25.347,11.371,25.347,25.348S67.474,222.275,53.498,222.275z M53.498,175.58c-11.771,0-21.348,9.577-21.348,21.348
			s9.577,21.347,21.348,21.347s21.347-9.576,21.347-21.347S65.269,175.58,53.498,175.58z"/>
	</g>
	<g>
		<path class="st1" d="M128,222.275c-13.977,0-25.347-11.371-25.347-25.347S114.023,171.58,128,171.58s25.347,11.371,25.347,25.348
			S141.977,222.275,128,222.275z M128,175.58c-11.771,0-21.347,9.577-21.347,21.348s9.576,21.347,21.347,21.347
			s21.347-9.576,21.347-21.347S139.771,175.58,128,175.58z"/>
	</g>
	<g>
		<path class="st1" d="M202.502,222.275c-13.977,0-25.347-11.371-25.347-25.347s11.371-25.348,25.347-25.348
			s25.348,11.371,25.348,25.348S216.479,222.275,202.502,222.275z M202.502,175.58c-11.771,0-21.347,9.577-21.347,21.348
			s9.576,21.347,21.347,21.347s21.348-9.576,21.348-21.347S214.273,175.58,202.502,175.58z"/>
	</g>
</g>
</svg>
