<?xml version="1.0" encoding="utf-8"?>
<!-- Generator: Adobe Illustrator 22.1.0, SVG Export Plug-In . SVG Version: 6.00 Build 0)  -->
<svg version="1.1" id="Layer_1" xmlns="http://www.w3.org/2000/svg" xmlns:xlink="http://www.w3.org/1999/xlink" x="0px" y="0px"
	 viewBox="0 0 256 256" style="enable-background:new 0 0 256 256;" xml:space="preserve">
<style type="text/css">
	.st0{fill:#E0EBFC;}
	.st1{fill:#3762CC;}
	.st2{fill:#4671C6;}
	.st3{fill:#6BDDDD;}
	.st4{fill:#F9A7A7;}
	.st5{fill:#A4C9FF;}
	.st6{fill:#FFEA92;}
	.st7{fill:#F9CFCF;}
	.st8{fill:#FFE164;}
	.st9{fill:#FFDC85;}
	.st10{fill:#FFEA94;}
	.st11{fill:#B9BEFC;}
	.st12{fill:#EAA97D;}
</style>
<g>
	<g>
		<rect x="23.215" y="132.755" class="st0" width="209.571" height="90.245"/>
	</g>
	<g>
		<path class="st1" d="M232.785,225H23.215c-1.104,0-2-0.896-2-2v-90.246c0-1.104,0.896-2,2-2h209.57c1.104,0,2,0.896,2,2V223
			C234.785,224.104,233.89,225,232.785,225z M25.215,221h205.57v-86.246H25.215V221z"/>
	</g>
	<g>
		<path class="st2" d="M237.121,117.809H18.879c-1.105,0-2,0.895-2,2v10.946c0,1.105,0.895,2,2,2h218.242c1.105,0,2-0.895,2-2
			v-10.946C239.121,118.704,238.226,117.809,237.121,117.809z"/>
	</g>
	<g>
		<path class="st1" d="M237.121,134.754H18.879c-2.206,0-4-1.794-4-4v-10.946c0-2.206,1.794-4,4-4h218.242c2.206,0,4,1.794,4,4
			v10.946C241.121,132.96,239.327,134.754,237.121,134.754z M18.879,119.809v10.946h218.242v-10.946H18.879z"/>
	</g>
	<g>
		<path class="st3" d="M151.5,24.953H128V8h23.5c1.105,0,2,0.895,2,2v12.953C153.5,24.057,152.605,24.953,151.5,24.953z"/>
	</g>
	<g>
		<path class="st3" d="M245,248H11c-1.657,0-3-1.343-3-3v-8c0-1.657,1.343-3,3-3h234c1.657,0,3,1.343,3,3v8
			C248,246.657,246.657,248,245,248z"/>
	</g>
	<g>
		<path class="st3" d="M242,234H14v-8c0-1.657,1.343-3,3-3h222c1.657,0,3,1.343,3,3V234z"/>
	</g>
	<g>
		<rect x="81.699" y="96.113" class="st0" width="92.601" height="126.887"/>
	</g>
	<g>
		<path class="st2" d="M103.843,210.572H91.885c-1.105,0-2-0.895-2-2v-31.854c0-4.407,3.572-7.979,7.979-7.979h0
			c4.407,0,7.979,3.572,7.979,7.979v31.854C105.843,209.677,104.948,210.572,103.843,210.572z"/>
	</g>
	<g>
		<path class="st2" d="M164.115,210.572h-11.958c-1.105,0-2-0.895-2-2v-31.854c0-4.407,3.572-7.979,7.979-7.979h0
			c4.407,0,7.979,3.572,7.979,7.979v31.854C166.115,209.677,165.22,210.572,164.115,210.572z"/>
	</g>
	<g>
		<path class="st4" d="M142.621,223h-29.242v-39.64c0-8.075,6.546-14.621,14.621-14.621h0c8.075,0,14.621,6.546,14.621,14.621V223z"
			/>
	</g>
	<g>
		<path class="st5" d="M45.341,168.577H33.745c-1.105,0-2-0.895-2-2V147.67c0-1.105,0.895-2,2-2h11.596c1.105,0,2,0.895,2,2v18.907
			C47.341,167.681,46.445,168.577,45.341,168.577z"/>
	</g>
	<g>
		<path class="st5" d="M70.684,168.577H59.088c-1.105,0-2-0.895-2-2V147.67c0-1.105,0.895-2,2-2h11.596c1.105,0,2,0.895,2,2v18.907
			C72.684,167.681,71.789,168.577,70.684,168.577z"/>
	</g>
	<g>
		<path class="st5" d="M45.341,207.566H33.745c-1.105,0-2-0.895-2-2V186.66c0-1.105,0.895-2,2-2h11.596c1.105,0,2,0.895,2,2v18.907
			C47.341,206.671,46.445,207.566,45.341,207.566z"/>
	</g>
	<g>
		<path class="st5" d="M70.684,207.566H59.088c-1.105,0-2-0.895-2-2V186.66c0-1.105,0.895-2,2-2h11.596c1.105,0,2,0.895,2,2v18.907
			C72.684,206.671,71.789,207.566,70.684,207.566z"/>
	</g>
	<g>
		<path class="st5" d="M196.427,168.577h-11.596c-1.105,0-2-0.895-2-2V147.67c0-1.105,0.895-2,2-2h11.596c1.105,0,2,0.895,2,2
			v18.907C198.427,167.681,197.531,168.577,196.427,168.577z"/>
	</g>
	<g>
		<path class="st5" d="M221.77,168.577h-11.596c-1.105,0-2-0.895-2-2V147.67c0-1.105,0.895-2,2-2h11.596c1.105,0,2,0.895,2,2v18.907
			C223.77,167.681,222.875,168.577,221.77,168.577z"/>
	</g>
	<g>
		<path class="st5" d="M196.427,207.566h-11.596c-1.105,0-2-0.895-2-2V186.66c0-1.105,0.895-2,2-2h11.596c1.105,0,2,0.895,2,2
			v18.907C198.427,206.671,197.531,207.566,196.427,207.566z"/>
	</g>
	<g>
		<path class="st5" d="M221.77,207.566h-11.596c-1.105,0-2-0.895-2-2V186.66c0-1.105,0.895-2,2-2h11.596c1.105,0,2,0.895,2,2v18.907
			C223.77,206.671,222.875,207.566,221.77,207.566z"/>
	</g>
	<g>
		<path class="st1" d="M128,44c-1.104,0-2-0.896-2-2V8c0-1.104,0.896-2,2-2s2,0.896,2,2v34C130,43.104,129.104,44,128,44z"/>
	</g>
	<g>
		<path class="st2" d="M81.699,81.113h92.601l-43.448-44.21c-1.568-1.595-4.138-1.595-5.706,0L81.699,81.113z"/>
	</g>
	<g>
		<path class="st1" d="M151.5,26.953H128c-1.104,0-2-0.896-2-2V8c0-1.104,0.896-2,2-2h23.5c2.206,0,4,1.794,4,4v12.953
			C155.5,25.158,153.706,26.953,151.5,26.953z M130,22.953h21.502L151.5,10H130V22.953z"/>
	</g>
	<g>
		<path class="st1" d="M245,250H11c-2.757,0-5-2.243-5-5v-8c0-2.757,2.243-5,5-5h234c2.757,0,5,2.243,5,5v8
			C250,247.757,247.757,250,245,250z M11,236c-0.551,0-1,0.449-1,1v8c0,0.551,0.449,1,1,1h234c0.551,0,1-0.449,1-1v-8
			c0-0.551-0.449-1-1-1H11z"/>
	</g>
	<g>
		<path class="st1" d="M242,236H14c-1.104,0-2-0.896-2-2v-8c0-2.757,2.243-5,5-5h222c2.757,0,5,2.243,5,5v8
			C244,235.104,243.104,236,242,236z M16,232h224v-6c0-0.551-0.449-1-1-1H17c-0.551,0-1,0.449-1,1V232z"/>
	</g>
	<g>
		<path class="st1" d="M174.3,225H81.7c-1.104,0-2-0.896-2-2V96.113c0-1.104,0.896-2,2-2H174.3c1.104,0,2,0.896,2,2V223
			C176.3,224.104,175.405,225,174.3,225z M83.7,221H172.3V98.113H83.7V221z"/>
	</g>
	<g>
		<circle class="st3" cx="128" cy="129.282" r="22.5"/>
	</g>
	<g>
		<path class="st1" d="M174.3,83.113H81.7c-0.806,0-1.533-0.483-1.844-1.227s-0.147-1.601,0.418-2.175l43.447-44.21
			c1.137-1.157,2.657-1.794,4.279-1.794s3.142,0.637,4.279,1.794l43.447,44.21c0.565,0.575,0.729,1.432,0.418,2.175
			S175.106,83.113,174.3,83.113z M86.469,79.113h83.062l-40.104-40.808c-0.759-0.771-2.095-0.771-2.854,0L86.469,79.113z"/>
	</g>
	<g>
		<path class="st1" d="M142.621,225h-29.242c-1.104,0-2-0.896-2-2v-39.64c0-9.165,7.456-16.621,16.621-16.621
			s16.621,7.456,16.621,16.621V223C144.621,224.104,143.726,225,142.621,225z M115.379,221h25.242v-37.64
			c0-6.959-5.662-12.621-12.621-12.621s-12.621,5.662-12.621,12.621V221z"/>
	</g>
	<g>
		<path class="st1" d="M103.843,212.572H91.885c-2.206,0-4-1.794-4-4v-31.854c0-5.502,4.477-9.979,9.979-9.979
			c5.502,0,9.979,4.477,9.979,9.979v31.854C107.843,210.777,106.049,212.572,103.843,212.572z M97.864,170.739
			c-3.297,0-5.979,2.682-5.979,5.979v31.854h11.961l-0.002-31.854C103.843,173.421,101.161,170.739,97.864,170.739z"/>
	</g>
	<g>
		<path class="st1" d="M164.115,212.572h-11.958c-2.206,0-4-1.794-4-4v-31.854c0-5.502,4.477-9.979,9.979-9.979
			c5.503,0,9.979,4.477,9.979,9.979v31.854C168.115,210.777,166.321,212.572,164.115,212.572z M158.136,170.739
			c-3.297,0-5.979,2.682-5.979,5.979v31.854h11.961l-0.002-31.854C164.115,173.421,161.433,170.739,158.136,170.739z"/>
	</g>
	<g>
		<path class="st1" d="M45.341,170.577H33.745c-2.206,0-4-1.794-4-4V147.67c0-2.206,1.794-4,4-4h11.596c2.206,0,4,1.794,4,4v18.907
			C49.341,168.782,47.546,170.577,45.341,170.577z M33.745,147.67v18.907h11.598l-0.002-18.907H33.745z"/>
	</g>
	<g>
		<path class="st1" d="M70.685,170.577H59.088c-2.206,0-4-1.794-4-4V147.67c0-2.206,1.794-4,4-4h11.596c2.206,0,4,1.794,4,4v18.907
			C74.685,168.782,72.89,170.577,70.685,170.577z M59.088,147.67v18.907h11.599l-0.002-18.907H59.088z"/>
	</g>
	<g>
		<path class="st1" d="M45.341,209.566H33.745c-2.206,0-4-1.794-4-4V186.66c0-2.206,1.794-4,4-4h11.596c2.206,0,4,1.794,4,4v18.906
			C49.341,207.772,47.546,209.566,45.341,209.566z M33.745,186.66v18.906h11.598l-0.002-18.906H33.745z"/>
	</g>
	<g>
		<path class="st1" d="M70.685,209.566H59.088c-2.206,0-4-1.794-4-4V186.66c0-2.206,1.794-4,4-4h11.596c2.206,0,4,1.794,4,4v18.906
			C74.685,207.772,72.89,209.566,70.685,209.566z M59.088,186.66v18.906h11.599l-0.002-18.906H59.088z"/>
	</g>
	<g>
		<path class="st1" d="M196.427,170.577h-11.596c-2.206,0-4-1.794-4-4V147.67c0-2.206,1.794-4,4-4h11.596c2.206,0,4,1.794,4,4
			v18.907C200.427,168.782,198.632,170.577,196.427,170.577z M184.831,147.67v18.907h11.598l-0.002-18.907H184.831z"/>
	</g>
	<g>
		<path class="st1" d="M221.77,170.577h-11.596c-2.206,0-4-1.794-4-4V147.67c0-2.206,1.794-4,4-4h11.596c2.206,0,4,1.794,4,4v18.907
			C225.77,168.782,223.976,170.577,221.77,170.577z M210.174,147.67v18.907h11.598l-0.002-18.907H210.174z"/>
	</g>
	<g>
		<path class="st1" d="M196.427,209.566h-11.596c-2.206,0-4-1.794-4-4V186.66c0-2.206,1.794-4,4-4h11.596c2.206,0,4,1.794,4,4
			v18.906C200.427,207.772,198.632,209.566,196.427,209.566z M184.831,186.66v18.906h11.598l-0.002-18.906H184.831z"/>
	</g>
	<g>
		<path class="st1" d="M221.77,209.566h-11.596c-2.206,0-4-1.794-4-4V186.66c0-2.206,1.794-4,4-4h11.596c2.206,0,4,1.794,4,4v18.906
			C225.77,207.772,223.976,209.566,221.77,209.566z M210.174,186.66v18.906h11.598l-0.002-18.906H210.174z"/>
	</g>
	<g>
		<path class="st5" d="M178.5,81.113h-101c-1.105,0-2,0.895-2,2v11c0,1.105,0.895,2,2,2h101c1.105,0,2-0.895,2-2v-11
			C180.5,82.008,179.605,81.113,178.5,81.113z"/>
	</g>
	<g>
		<path class="st1" d="M178.5,98.113h-101c-2.206,0-4-1.794-4-4v-11c0-2.206,1.794-4,4-4h101c2.206,0,4,1.794,4,4v11
			C182.5,96.318,180.706,98.113,178.5,98.113z M77.5,83.113v11h101v-11H77.5z"/>
	</g>
	<g>
		<circle class="st2" cx="128" cy="129.282" r="16.841"/>
	</g>
	<g>
		<path class="st6" d="M137.548,133.233c0,0.683-0.168,1.422-0.505,2.217c-0.337,0.795-0.866,1.576-1.588,2.342
			c-0.722,0.766-1.644,1.388-2.766,1.866c-1.122,0.478-2.43,0.717-3.922,0.717c-1.132,0-2.162-0.107-3.088-0.322
			c-0.927-0.215-1.768-0.549-2.525-1.003c-0.756-0.454-1.452-1.051-2.086-1.793c-0.566-0.673-1.049-1.427-1.449-2.261
			c-0.4-0.834-0.7-1.725-0.9-2.671c-0.2-0.946-0.3-1.951-0.3-3.015c0-1.727,0.251-3.274,0.754-4.64
			c0.503-1.366,1.222-2.534,2.159-3.505c0.937-0.971,2.034-1.71,3.293-2.217c1.259-0.507,2.6-0.761,4.025-0.761
			c1.737,0,3.283,0.346,4.64,1.039c1.356,0.693,2.395,1.549,3.118,2.569c0.722,1.02,1.083,1.983,1.083,2.891
			c0,0.498-0.175,0.937-0.527,1.317c-0.351,0.381-0.776,0.571-1.273,0.571c-0.556,0-0.974-0.132-1.251-0.395
			c-0.278-0.263-0.588-0.717-0.93-1.361c-0.566-1.063-1.232-1.859-1.998-2.386c-0.766-0.527-1.71-0.79-2.832-0.79
			c-1.786,0-3.208,0.678-4.267,2.034c-1.059,1.356-1.588,3.284-1.588,5.781c0,1.669,0.234,3.057,0.703,4.164
			c0.468,1.108,1.131,1.934,1.99,2.481c0.858,0.547,1.864,0.82,3.015,0.82c1.249,0,2.305-0.31,3.169-0.929
			c0.864-0.62,1.515-1.529,1.954-2.73c0.185-0.566,0.414-1.027,0.688-1.383c0.273-0.356,0.712-0.534,1.317-0.534
			c0.517,0,0.961,0.181,1.332,0.542C137.362,132.248,137.548,132.697,137.548,133.233z"/>
	</g>
	<g>
		<path class="st1" d="M128,153.782c-13.509,0-24.5-10.991-24.5-24.5s10.991-24.5,24.5-24.5s24.5,10.991,24.5,24.5
			S141.509,153.782,128,153.782z M128,108.782c-11.304,0-20.5,9.196-20.5,20.5s9.196,20.5,20.5,20.5s20.5-9.196,20.5-20.5
			S139.304,108.782,128,108.782z"/>
	</g>
</g>
</svg>
