<?xml version="1.0" encoding="utf-8"?>
<!-- Generator: Adobe Illustrator 22.1.0, SVG Export Plug-In . SVG Version: 6.00 Build 0)  -->
<svg version="1.1" id="Layer_1" xmlns="http://www.w3.org/2000/svg" xmlns:xlink="http://www.w3.org/1999/xlink" x="0px" y="0px"
	 viewBox="0 0 256 256" style="enable-background:new 0 0 256 256;" xml:space="preserve">
<style type="text/css">
	.st0{fill:#E0EBFC;}
	.st1{fill:#3762CC;}
	.st2{fill:#4671C6;}
	.st3{fill:#6BDDDD;}
	.st4{fill:#F9A7A7;}
	.st5{fill:#A4C9FF;}
	.st6{fill:#FFEA92;}
	.st7{fill:#F9CFCF;}
	.st8{fill:#FFE164;}
	.st9{fill:#FFDC85;}
	.st10{fill:#FFEA94;}
	.st11{fill:#B9BEFC;}
	.st12{fill:#EAA97D;}
</style>
<g>
	<g>
		<path class="st5" d="M168,230.853H13c-2.761,0-5-2.239-5-5V111.814c0-2.761,2.239-5,5-5h155c2.761,0,5,2.239,5,5v114.038
			C173,228.614,170.761,230.853,168,230.853z"/>
	</g>
	<g>
		<path class="st0" d="M20.093,216.123v-94.579c0-1.657,1.343-3,3-3h134.814c1.657,0,3,1.343,3,3v94.579c0,1.657-1.343,3-3,3H23.093
			C21.436,219.123,20.093,217.78,20.093,216.123z"/>
	</g>
	<g>
		<path class="st1" d="M168,232.853h-12c-1.104,0-2-0.896-2-2s0.896-2,2-2h12c1.104,0,2,0.896,2,2S169.104,232.853,168,232.853z
			 M144,232.853h-12c-1.104,0-2-0.896-2-2s0.896-2,2-2h12c1.104,0,2,0.896,2,2S145.104,232.853,144,232.853z M120,232.853h-12
			c-1.104,0-2-0.896-2-2s0.896-2,2-2h12c1.104,0,2,0.896,2,2S121.104,232.853,120,232.853z M96,232.853H84c-1.104,0-2-0.896-2-2
			s0.896-2,2-2h12c1.104,0,2,0.896,2,2S97.104,232.853,96,232.853z M72,232.853H60c-1.104,0-2-0.896-2-2s0.896-2,2-2h12
			c1.104,0,2,0.896,2,2S73.104,232.853,72,232.853z M48,232.853H36c-1.104,0-2-0.896-2-2s0.896-2,2-2h12c1.104,0,2,0.896,2,2
			S49.104,232.853,48,232.853z M24,232.853H13c-0.466,0-0.932-0.046-1.387-0.137c-1.083-0.216-1.785-1.27-1.568-2.353
			c0.216-1.083,1.266-1.788,2.354-1.569c0.196,0.039,0.399,0.059,0.602,0.059h11c1.104,0,2,0.896,2,2S25.104,232.853,24,232.853z
			 M172.456,230.118c-0.306,0-0.615-0.07-0.907-0.219c-0.983-0.502-1.374-1.707-0.872-2.69c0.215-0.421,0.323-0.877,0.323-1.356
			v-9.648c0-1.104,0.896-2,2-2s2,0.896,2,2v9.648c0,1.101-0.263,2.199-0.761,3.174C173.886,229.719,173.185,230.118,172.456,230.118
			z M8,222.709c-1.104,0-2-0.896-2-2v-12c0-1.104,0.896-2,2-2s2,0.896,2,2v12C10,221.814,9.104,222.709,8,222.709z M173,206.204
			c-1.104,0-2-0.896-2-2v-12c0-1.104,0.896-2,2-2s2,0.896,2,2v12C175,205.309,174.104,206.204,173,206.204z M8,198.709
			c-1.104,0-2-0.896-2-2v-12c0-1.104,0.896-2,2-2s2,0.896,2,2v12C10,197.814,9.104,198.709,8,198.709z M173,182.204
			c-1.104,0-2-0.896-2-2v-12c0-1.104,0.896-2,2-2s2,0.896,2,2v12C175,181.309,174.104,182.204,173,182.204z M8,174.709
			c-1.104,0-2-0.896-2-2v-12c0-1.104,0.896-2,2-2s2,0.896,2,2v12C10,173.814,9.104,174.709,8,174.709z M173,158.204
			c-1.104,0-2-0.896-2-2v-12c0-1.104,0.896-2,2-2s2,0.896,2,2v12C175,157.309,174.104,158.204,173,158.204z M8,150.709
			c-1.104,0-2-0.896-2-2v-12c0-1.104,0.896-2,2-2s2,0.896,2,2v12C10,149.814,9.104,150.709,8,150.709z M173,134.204
			c-1.104,0-2-0.896-2-2v-12c0-1.104,0.896-2,2-2s2,0.896,2,2v12C175,133.309,174.104,134.204,173,134.204z M8,126.709
			c-1.104,0-2-0.896-2-2v-12c0-1.104,0.896-2,2-2s2,0.896,2,2v12C10,125.814,9.104,126.709,8,126.709z M171.755,110.511
			c-0.555,0-1.106-0.229-1.501-0.678c-0.571-0.647-1.393-1.019-2.254-1.019h-7.753c-1.104,0-2-0.896-2-2s0.896-2,2-2H168
			c2.01,0,3.925,0.865,5.254,2.375c0.73,0.829,0.651,2.092-0.178,2.823C172.696,110.346,172.225,110.511,171.755,110.511z
			 M148.247,108.814h-12c-1.104,0-2-0.896-2-2s0.896-2,2-2h12c1.104,0,2,0.896,2,2S149.352,108.814,148.247,108.814z
			 M124.247,108.814h-12c-1.104,0-2-0.896-2-2s0.896-2,2-2h12c1.104,0,2,0.896,2,2S125.352,108.814,124.247,108.814z
			 M100.247,108.814h-12c-1.104,0-2-0.896-2-2s0.896-2,2-2h12c1.104,0,2,0.896,2,2S101.352,108.814,100.247,108.814z
			 M76.247,108.814h-12c-1.104,0-2-0.896-2-2s0.896-2,2-2h12c1.104,0,2,0.896,2,2S77.352,108.814,76.247,108.814z M52.247,108.814
			h-12c-1.104,0-2-0.896-2-2s0.896-2,2-2h12c1.104,0,2,0.896,2,2S53.352,108.814,52.247,108.814z M28.247,108.814h-12
			c-1.104,0-2-0.896-2-2s0.896-2,2-2h12c1.104,0,2,0.896,2,2S29.352,108.814,28.247,108.814z"/>
	</g>
	<g>
		<path class="st4" d="M243,149.186H88c-2.761,0-5-2.239-5-5V30.147c0-2.761,2.239-5,5-5h155c2.761,0,5,2.239,5,5v114.038
			C248,146.947,245.761,149.186,243,149.186z"/>
	</g>
	<g>
		<path class="st0" d="M95.093,134.456V39.877c0-1.657,1.343-3,3-3h134.814c1.657,0,3,1.343,3,3v94.579c0,1.657-1.343,3-3,3H98.093
			C96.436,137.456,95.093,136.113,95.093,134.456z"/>
	</g>
	<g>
		<path class="st1" d="M243.06,151.186h-11.923c-1.104,0-2-0.896-2-2s0.896-2,2-2H243c1.104,0,2.03,0.896,2.03,2
			S244.164,151.186,243.06,151.186z M219.273,151.186h-11.864c-1.104,0-2-0.896-2-2s0.896-2,2-2h11.864c1.104,0,2,0.896,2,2
			S220.378,151.186,219.273,151.186z M195.546,151.186h-11.863c-1.104,0-2-0.896-2-2s0.896-2,2-2h11.863c1.104,0,2,0.896,2,2
			S196.65,151.186,195.546,151.186z M171.819,151.186h-11.863c-1.104,0-2-0.896-2-2s0.896-2,2-2h11.863c1.104,0,2,0.896,2,2
			S172.924,151.186,171.819,151.186z M148.092,151.186h-11.863c-1.104,0-2-0.896-2-2s0.896-2,2-2h11.863c1.104,0,2,0.896,2,2
			S149.196,151.186,148.092,151.186z M124.365,151.186h-11.863c-1.104,0-2-0.896-2-2s0.896-2,2-2h11.863c1.104,0,2,0.896,2,2
			S125.47,151.186,124.365,151.186z M100.639,151.186H88.774c-1.104,0-2-0.896-2-2s0.896-2,2-2h11.864c1.104,0,2,0.896,2,2
			S101.743,151.186,100.639,151.186z M83,142.955c-1.104,0-2-0.896-2-2v-11.864c0-1.104,0.896-2,2-2s2,0.896,2,2v11.864
			C85,142.059,84.104,142.955,83,142.955z M248,142.121c-1.104,0-2-0.896-2-2v-11.863c0-1.104,0.896-2,2-2s2,0.896,2,2v11.863
			C250,141.225,249.104,142.121,248,142.121z M83,119.228c-1.104,0-2-0.896-2-2v-11.863c0-1.104,0.896-2,2-2s2,0.896,2,2v11.863
			C85,118.332,84.104,119.228,83,119.228z M248,118.394c-1.104,0-2-0.896-2-2V104.53c0-1.104,0.896-2,2-2s2,0.896,2,2v11.864
			C250,117.499,249.104,118.394,248,118.394z M83,95.5c-1.104,0-2-0.896-2-2V81.637c0-1.104,0.896-2,2-2s2,0.896,2,2V93.5
			C85,94.605,84.104,95.5,83,95.5z M248,94.667c-1.104,0-2-0.896-2-2V80.803c0-1.104,0.896-2,2-2s2,0.896,2,2v11.864
			C250,93.771,249.104,94.667,248,94.667z M83,71.774c-1.104,0-2-0.896-2-2V57.91c0-1.104,0.896-2,2-2s2,0.896,2,2v11.864
			C85,70.878,84.104,71.774,83,71.774z M248,70.94c-1.104,0-2-0.896-2-2V57.077c0-1.104,0.896-2,2-2s2,0.896,2,2V68.94
			C250,70.044,249.104,70.94,248,70.94z M83,48.047c-1.104,0-2-0.896-2-2V34.183c0-1.104,0.896-2,2-2s2,0.896,2,2v11.864
			C85,47.151,84.104,48.047,83,48.047z M248,47.213c-1.104,0-2-0.896-2-2V33.35c0-1.104,0.896-2,2-2s2,0.896,2,2v11.863
			C250,46.317,249.104,47.213,248,47.213z M242.195,27.147h-11.863c-1.104,0-2-0.896-2-2s0.896-2,2-2h11.863c1.104,0,2,0.896,2,2
			S243.3,27.147,242.195,27.147z M218.469,27.147h-11.863c-1.104,0-2-0.896-2-2s0.896-2,2-2h11.863c1.104,0,2,0.896,2,2
			S219.573,27.147,218.469,27.147z M194.742,27.147h-11.864c-1.104,0-2-0.896-2-2s0.896-2,2-2h11.864c1.104,0,2,0.896,2,2
			S195.847,27.147,194.742,27.147z M171.015,27.147h-11.863c-1.104,0-2-0.896-2-2s0.896-2,2-2h11.863c1.104,0,2,0.896,2,2
			S172.119,27.147,171.015,27.147z M147.288,27.147h-11.863c-1.104,0-2-0.896-2-2s0.896-2,2-2h11.863c1.104,0,2,0.896,2,2
			S148.393,27.147,147.288,27.147z M123.561,27.147h-11.863c-1.104,0-2-0.896-2-2s0.896-2,2-2h11.863c1.104,0,2,0.896,2,2
			S124.665,27.147,123.561,27.147z M99.834,27.147H88c-1.104,0-2.015-0.896-2.015-2s0.881-2,1.985-2h11.863c1.104,0,2,0.896,2,2
			S100.938,27.147,99.834,27.147z"/>
	</g>
	<g>
		<path class="st3" d="M205.5,190.019h-155c-2.761,0-5-2.239-5-5V70.981c0-2.761,2.239-5,5-5h155c2.761,0,5,2.239,5,5v114.038
			C210.5,187.781,208.261,190.019,205.5,190.019z"/>
	</g>
	<g>
		<path class="st0" d="M57.593,175.29V80.71c0-1.657,1.343-3,3-3h134.814c1.657,0,3,1.343,3,3v94.579c0,1.657-1.343,3-3,3H60.593
			C58.936,178.29,57.593,176.946,57.593,175.29z"/>
	</g>
	<g>
		<path class="st1" d="M205.5,192.019h-155c-3.859,0-7-3.14-7-7V70.981c0-3.86,3.141-7,7-7h155c3.859,0,7,3.14,7,7v114.038
			C212.5,188.879,209.359,192.019,205.5,192.019z M50.5,67.981c-1.654,0-3,1.346-3,3v114.038c0,1.654,1.346,3,3,3h155
			c1.654,0,3-1.346,3-3V70.981c0-1.654-1.346-3-3-3H50.5z"/>
	</g>
	<g>
		<path class="st4" d="M227.812,158.794c-2.209,0-4,1.791-4,4v39.498c0,2.206-1.794,4-4,4h-9.531v-5.15
			c0-0.765-0.824-1.247-1.491-0.871l-16.234,9.15c-0.679,0.383-0.679,1.36,0,1.742l16.234,9.15c0.667,0.376,1.491-0.106,1.491-0.871
			v-5.15h9.531c6.617,0,12-5.383,12-12v-39.498C231.812,160.585,230.021,158.794,227.812,158.794z"/>
	</g>
	<g>
		<path class="st5" d="M64.09,46.225l-16.234-9.15c-0.667-0.376-1.491,0.106-1.491,0.871v5.15h-9.531c-6.617,0-12,5.383-12,12
			v39.498c0,2.209,1.791,4,4,4s4-1.791,4-4V55.096c0-2.206,1.794-4,4-4h9.531v5.15c0,0.765,0.824,1.247,1.491,0.871l16.234-9.15
			C64.768,47.585,64.768,46.607,64.09,46.225z"/>
	</g>
	<g>
		<path class="st7" d="M183.575,154.407H72.425c-2.099,0-3.8-1.701-3.8-3.8l0,0c0-2.099,1.701-3.8,3.8-3.8h111.15
			c2.099,0,3.8,1.701,3.8,3.8l0,0C187.375,152.706,185.674,154.407,183.575,154.407z"/>
	</g>
	<g>
		<path class="st7" d="M167.564,169.612H88.436c-2.099,0-3.8-1.701-3.8-3.8v0c0-2.099,1.701-3.8,3.8-3.8h79.128
			c2.099,0,3.8,1.701,3.8,3.8v0C171.364,167.91,169.662,169.612,167.564,169.612z"/>
	</g>
	<g>
		<path class="st6" d="M182.76,132.823c0-8.186,0-14.702,0-21.794c-0.01,0.004-0.017,0.012-0.028,0.016l-2.335,0.897
			c0,7.431,0,16.284,0,20.881c-0.841,0.43-1.417,1.304-1.417,2.313v6.222h5.198v-6.222
			C184.178,134.126,183.601,133.253,182.76,132.823z"/>
	</g>
	<g>
		<path class="st2" d="M124.598,86.988l-51.669,19.849c-1.927,0.74-1.927,3.467,0,4.208l51.669,19.849
			c2.081,0.799,4.384,0.799,6.465,0l51.669-19.849c1.927-0.74,1.927-3.467,0-4.208l-51.669-19.849
			C128.982,86.189,126.679,86.189,124.598,86.988z"/>
	</g>
	<g>
		<path class="st1" d="M127.83,133.494c-1.338,0-2.676-0.245-3.949-0.733l-51.669-19.849c-1.658-0.637-2.729-2.195-2.729-3.971
			c0-1.775,1.07-3.334,2.729-3.971l51.669-19.849l0,0c2.547-0.978,5.353-0.979,7.899,0l51.669,19.849
			c1.657,0.637,2.729,2.195,2.729,3.971c0,1.776-1.071,3.334-2.729,3.971l-51.669,19.849
			C130.507,133.25,129.169,133.494,127.83,133.494z M125.314,88.855l-51.669,19.849c-0.057,0.021-0.162,0.063-0.162,0.236
			c0,0.174,0.105,0.215,0.162,0.237l51.669,19.849c1.624,0.623,3.41,0.623,5.032,0l51.669-19.849
			c0.057-0.021,0.162-0.062,0.162-0.237c0-0.174-0.105-0.215-0.162-0.236l-51.669-19.849
			C128.723,88.232,126.937,88.231,125.314,88.855L125.314,88.855z"/>
	</g>
	<g>
		<path class="st2" d="M159.601,112.405H96.275c-0.579,0-1.049,0.469-1.049,1.049v15.635c0,3.451,14.645,6.249,32.711,6.249
			s32.711-2.798,32.711-6.249h0.001v-15.635C160.649,112.874,160.18,112.405,159.601,112.405z"/>
	</g>
	<g>
		<path class="st1" d="M127.938,137.338c-3.553,0-34.712-0.231-34.712-8.249v-15.635c0-1.681,1.368-3.049,3.049-3.049h63.326
			c1.681,0,3.049,1.368,3.049,3.049v15.635C162.647,137.106,131.49,137.338,127.938,137.338z M97.226,128.871
			c1.359,1.566,11.705,4.467,30.712,4.467s29.352-2.9,30.711-4.467l0.001-14.466H97.226V128.871z M159.601,114.405h0.01H159.601z"/>
	</g>
</g>
</svg>
