<?xml version="1.0" encoding="utf-8"?>
<!-- Generator: Adobe Illustrator 22.1.0, SVG Export Plug-In . SVG Version: 6.00 Build 0)  -->
<svg version="1.1" id="Layer_1" xmlns="http://www.w3.org/2000/svg" xmlns:xlink="http://www.w3.org/1999/xlink" x="0px" y="0px"
	 viewBox="0 0 256 256" style="enable-background:new 0 0 256 256;" xml:space="preserve">
<style type="text/css">
	.st0{fill:#E0EBFC;}
	.st1{fill:#3762CC;}
	.st2{fill:#4671C6;}
	.st3{fill:#6BDDDD;}
	.st4{fill:#F9A7A7;}
	.st5{fill:#A4C9FF;}
	.st6{fill:#FFEA92;}
	.st7{fill:#F9CFCF;}
	.st8{fill:#FFE164;}
	.st9{fill:#FFDC85;}
	.st10{fill:#FFEA94;}
	.st11{fill:#B9BEFC;}
	.st12{fill:#EAA97D;}
</style>
<g>
	<g>
		<path class="st0" d="M196.818,248H25.182c-4.82,0-8.727-3.907-8.727-8.727V16.727c0-4.82,3.907-8.727,8.727-8.727h171.636
			c4.82,0,8.727,3.907,8.727,8.727v222.545C205.545,244.093,201.638,248,196.818,248z"/>
	</g>
	<g>
		<path class="st1" d="M196.818,250H25.182c-5.915,0-10.728-4.812-10.728-10.727V16.727C14.454,10.812,19.267,6,25.182,6h171.637
			c5.915,0,10.728,4.812,10.728,10.727v222.546C207.546,245.188,202.733,250,196.818,250z M25.182,10
			c-3.71,0-6.728,3.018-6.728,6.727v222.546c0,3.709,3.018,6.727,6.728,6.727h171.637c3.71,0,6.728-3.018,6.728-6.727V16.727
			c0-3.709-3.018-6.727-6.728-6.727H25.182z"/>
	</g>
	<g>
		<path class="st5" d="M181.768,129.17H43.217c-3.213,0-5.818-2.605-5.818-5.818v0c0-3.213,2.605-5.818,5.818-5.818h138.55
			c3.213,0,5.818,2.605,5.818,5.818v0C187.586,126.565,184.981,129.17,181.768,129.17z"/>
	</g>
	<g>
		<path class="st5" d="M181.768,161.17H43.217c-3.213,0-5.818-2.605-5.818-5.818v0c0-3.213,2.605-5.818,5.818-5.818h138.55
			c3.213,0,5.818,2.605,5.818,5.818v0C187.586,158.565,184.981,161.17,181.768,161.17z"/>
	</g>
	<g>
		<path class="st5" d="M181.768,193.17H43.217c-3.213,0-5.818-2.605-5.818-5.818v0c0-3.213,2.605-5.818,5.818-5.818h138.55
			c3.213,0,5.818,2.605,5.818,5.818v0C187.586,190.565,184.981,193.17,181.768,193.17z"/>
	</g>
	<g>
		<path class="st5" d="M181.768,225.17H43.217c-3.213,0-5.818-2.605-5.818-5.818v0c0-3.213,2.605-5.818,5.818-5.818h138.55
			c3.213,0,5.818,2.605,5.818,5.818v0C187.586,222.565,184.981,225.17,181.768,225.17z"/>
	</g>
	<g>
		<circle class="st3" cx="189.545" cy="186.051" r="50"/>
	</g>
	<g>
		<path class="st6" d="M189.546,223.139c-20.45,0-37.089-16.638-37.089-37.088s16.638-37.088,37.089-37.088
			s37.087,16.637,37.087,37.088S209.996,223.139,189.546,223.139z"/>
	</g>
	<g>
		<path class="st1" d="M189.546,238.051c-28.673,0-52-23.327-52-52s23.327-52,52-52s52,23.327,52,52
			S218.219,238.051,189.546,238.051z M189.546,138.051c-26.468,0-48,21.533-48,48s21.532,48,48,48s48-21.533,48-48
			S216.014,138.051,189.546,138.051z"/>
	</g>
	<g>
		<path class="st2" d="M214.05,184.17c-1.657,0-3,1.343-3,3v7.733c0,0.551-0.448,1-1,1h-32.547v-4.957
			c0-0.855-0.933-1.383-1.666-0.943l-13.262,7.957c-0.712,0.427-0.712,1.459,0,1.886l13.262,7.957
			c0.733,0.44,1.666-0.088,1.666-0.943v-4.957h32.547c3.859,0,7-3.14,7-7v-7.733C217.05,185.514,215.707,184.17,214.05,184.17z"/>
	</g>
	<g>
		<path class="st4" d="M216.516,172.619l-13.262-7.957c-0.733-0.44-1.666,0.088-1.666,0.943v4.957H169.04c-3.859,0-7,3.14-7,7v7.733
			c0,1.657,1.343,3,3,3s3-1.343,3-3v-7.733c0-0.551,0.448-1,1-1h32.547v4.957c0,0.855,0.933,1.383,1.666,0.943l13.262-7.957
			C217.228,174.079,217.228,173.047,216.516,172.619z"/>
	</g>
	<g>
		<path class="st6" d="M184.187,96.742c0-12.626,0-22.363,0-33.568l-3.252,1.249c0,10.8,0,25.234,0,32.318
			c-1.157,0.593-1.951,1.795-1.951,3.184v8.565h7.155v-8.565C186.138,98.536,185.344,97.334,184.187,96.742z"/>
	</g>
	<g>
		<path class="st2" d="M108.033,31.616L40.298,57.636c-2.527,0.971-2.527,4.545,0,5.516l67.735,26.021
			c2.728,1.048,5.748,1.048,8.476,0l67.735-26.021c2.527-0.971,2.527-4.545,0-5.516l-67.735-26.021
			C113.78,30.568,110.761,30.568,108.033,31.616z"/>
	</g>
	<g>
		<path class="st1" d="M112.271,91.96c-1.679,0-3.357-0.307-4.955-0.92L39.581,65.02c-1.931-0.742-3.178-2.557-3.178-4.625
			c0-2.068,1.247-3.884,3.177-4.625l67.735-26.021l0,0c3.195-1.227,6.715-1.227,9.91,0l67.734,26.021
			c1.931,0.742,3.178,2.557,3.178,4.625c0,2.068-1.247,3.883-3.177,4.625L117.226,91.04C115.628,91.653,113.949,91.96,112.271,91.96
			z M108.749,33.483L41.015,59.503c-0.552,0.212-0.611,0.694-0.611,0.891c0,0.197,0.06,0.679,0.612,0.891l67.733,26.02
			c2.272,0.872,4.772,0.871,7.043,0l67.734-26.021c0.552-0.212,0.611-0.694,0.611-0.891c0-0.197-0.06-0.679-0.612-0.891
			l-67.733-26.021C113.52,32.61,111.02,32.611,108.749,33.483L108.749,33.483z"/>
	</g>
	<g>
		<path class="st2" d="M153.919,64.936H70.903c-0.759,0-1.375,0.615-1.375,1.375v20.497c0,4.524,19.199,8.192,42.882,8.192
			s42.882-3.668,42.882-8.192h0.001V66.31C155.294,65.551,154.678,64.936,153.919,64.936z"/>
	</g>
	<g>
		<path class="st1" d="M112.41,97c-1.833,0-44.882-0.116-44.882-10.192V66.311c0-1.861,1.514-3.375,3.374-3.375h83.017
			c1.861,0,3.375,1.514,3.375,3.375v20.497C157.292,96.884,114.243,97,112.41,97z M71.528,86.735C72.632,89.003,87.101,93,112.41,93
			c25.309,0,39.778-3.996,40.883-6.265l0.001-19.799H71.528V86.735z M153.919,66.936h0.01H153.919z"/>
	</g>
</g>
</svg>
