<?xml version="1.0" encoding="utf-8"?>
<!-- Generator: Adobe Illustrator 22.1.0, SVG Export Plug-In . SVG Version: 6.00 Build 0)  -->
<svg version="1.1" id="Layer_1" xmlns="http://www.w3.org/2000/svg" xmlns:xlink="http://www.w3.org/1999/xlink" x="0px" y="0px"
	 viewBox="0 0 256 256" style="enable-background:new 0 0 256 256;" xml:space="preserve">
<style type="text/css">
	.st0{fill:#E0EBFC;}
	.st1{fill:#3762CC;}
	.st2{fill:#4671C6;}
	.st3{fill:#6BDDDD;}
	.st4{fill:#F9A7A7;}
	.st5{fill:#A4C9FF;}
	.st6{fill:#FFEA92;}
	.st7{fill:#F9CFCF;}
	.st8{fill:#FFE164;}
	.st9{fill:#FFDC85;}
	.st10{fill:#FFEA94;}
	.st11{fill:#B9BEFC;}
	.st12{fill:#EAA97D;}
</style>
<g>
	<g>
		<path class="st5" d="M184.333,123.047h-40.376c-2.209,0-4,1.791-4,4s1.791,4,4,4h40.376V123.047z"/>
	</g>
	<g>
		<path class="st5" d="M184.333,43.047h-12.188c-5.514,0-10,4.486-10,10v51.458c0,1.103-0.897,2-2,2h-16.188c-2.209,0-4,1.791-4,4
			s1.791,4,4,4h16.188c5.514,0,10-4.486,10-10V53.047c0-1.103,0.897-2,2-2h12.188V43.047z"/>
	</g>
	<g>
		<path class="st5" d="M184.333,203.047h-12.188c-1.103,0-2-0.897-2-2v-51.457c0-5.514-4.486-10-10-10h-16.188c-2.209,0-4,1.791-4,4
			s1.791,4,4,4h16.188c1.103,0,2,0.897,2,2v51.457c0,5.514,4.486,10,10,10h12.188V203.047z"/>
	</g>
	<g>
		<rect x="112.837" y="98.54" class="st0" width="12.406" height="57.014"/>
	</g>
	<g>
		<rect x="26.098" y="98.54" class="st0" width="12.406" height="57.014"/>
	</g>
	<g>
		<path class="st1" d="M125.243,157.554h-12.406c-1.104,0-2-0.896-2-2V98.54c0-1.104,0.896-2,2-2h12.406c1.104,0,2,0.896,2,2v57.014
			C127.243,156.658,126.348,157.554,125.243,157.554z M114.837,153.554h8.406V100.54h-8.406V153.554z"/>
	</g>
	<g>
		<path class="st1" d="M38.504,157.554H26.098c-1.104,0-2-0.896-2-2V98.54c0-1.104,0.896-2,2-2h12.406c1.104,0,2,0.896,2,2v57.014
			C40.504,156.658,39.609,157.554,38.504,157.554z M28.098,153.554h8.406V100.54h-8.406V153.554z"/>
	</g>
	<g>
		<path class="st0" d="M141.649,169.652H9.692c-0.934,0-1.692-0.757-1.692-1.692v-4.511c0-0.934,0.757-1.692,1.692-1.692h131.958
			c0.934,0,1.692,0.757,1.692,1.692v4.511C143.341,168.894,142.584,169.652,141.649,169.652z"/>
	</g>
	<g>
		<path class="st0" d="M139.958,161.757H11.384v-4.511c0-0.934,0.757-1.692,1.692-1.692h125.191c0.934,0,1.692,0.757,1.692,1.692
			V161.757z"/>
	</g>
	<g>
		<path class="st0" d="M13.639,78.52h124.063c1.246,0,2.256,1.01,2.256,2.256v7.049c0,1.246-1.01,2.256-2.256,2.256H13.639
			c-1.246,0-2.256-1.01-2.256-2.256v-7.049C11.384,79.53,12.393,78.52,13.639,78.52z"/>
	</g>
	<g>
		<path class="st0" d="M16.459,90.081h118.424v6.203c0,1.246-1.01,2.256-2.256,2.256H18.715c-1.246,0-2.256-1.01-2.256-2.256V90.081
			z"/>
	</g>
	<g>
		<path class="st0" d="M16.459,78.52h118.424L77.096,44.674c-0.88-0.515-1.97-0.515-2.85,0L16.459,78.52z"/>
	</g>
	<g>
		<path class="st5" d="M28.364,78.52h94.613L76.809,51.479c-0.703-0.412-1.574-0.412-2.277,0L28.364,78.52z"/>
	</g>
	<g>
		<path class="st1" d="M141.649,171.652H9.692c-2.036,0-3.692-1.656-3.692-3.692v-4.511c0-2.036,1.656-3.692,3.692-3.692h131.958
			c2.035,0,3.691,1.656,3.691,3.692v4.511C145.341,169.996,143.685,171.652,141.649,171.652z M10,167.652h131.341v-3.895H10V167.652
			z"/>
	</g>
	<g>
		<path class="st1" d="M137.702,92.081H13.639c-2.347,0-4.256-1.909-4.256-4.255v-7.049c0-2.346,1.909-4.255,4.256-4.255h124.063
			c2.347,0,4.256,1.909,4.256,4.255v7.049C141.958,90.171,140.049,92.081,137.702,92.081z M13.639,80.521
			c-0.141,0-0.256,0.115-0.256,0.255v7.049c0,0.141,0.115,0.255,0.256,0.255h124.063c0.141,0,0.256-0.115,0.256-0.255v-7.049
			c0-0.141-0.115-0.255-0.256-0.255H13.639z"/>
	</g>
	<g>
		<path class="st1" d="M132.627,100.54H18.714c-2.346,0-4.255-1.909-4.255-4.256v-6.203c0-1.104,0.896-2,2-2h118.424
			c1.104,0,2,0.896,2,2v6.203C136.883,98.63,134.974,100.54,132.627,100.54z M18.459,92.081v4.203c0,0.141,0.115,0.256,0.255,0.256
			h113.913c0.141,0,0.256-0.115,0.256-0.256v-4.203H18.459z"/>
	</g>
	<g>
		<path class="st1" d="M134.883,80.521H16.459c-0.903,0-1.694-0.605-1.93-1.477c-0.236-0.871,0.14-1.793,0.919-2.249l57.787-33.847
			c1.502-0.881,3.369-0.881,4.872,0l57.787,33.847c0.779,0.456,1.156,1.378,0.92,2.249
			C136.576,79.916,135.786,80.521,134.883,80.521z M23.831,76.521h103.68L76.085,46.399c-0.255-0.149-0.573-0.15-0.828,0
			L23.831,76.521z"/>
	</g>
	<g>
		<path class="st1" d="M122.977,80.521H28.364c-0.903,0-1.694-0.605-1.93-1.477c-0.236-0.871,0.14-1.793,0.919-2.249l46.168-27.042
			c1.326-0.776,2.973-0.776,4.298,0l46.168,27.042c0.779,0.456,1.156,1.378,0.919,2.249
			C124.671,79.916,123.88,80.521,122.977,80.521z M35.736,76.521h79.87L75.798,53.205c-0.079-0.046-0.177-0.046-0.256,0
			L35.736,76.521z"/>
	</g>
	<g>
		<rect x="85.513" y="98.54" class="st0" width="12.406" height="57.014"/>
	</g>
	<g>
		<path class="st1" d="M97.919,157.554H85.513c-1.104,0-2-0.896-2-2V98.54c0-1.104,0.896-2,2-2h12.406c1.104,0,2,0.896,2,2v57.014
			C99.919,156.658,99.024,157.554,97.919,157.554z M87.513,153.554h8.406V100.54h-8.406V153.554z"/>
	</g>
	<g>
		<rect x="53.422" y="98.54" class="st0" width="12.406" height="57.014"/>
	</g>
	<g>
		<path class="st1" d="M65.828,157.554H53.422c-1.104,0-2-0.896-2-2V98.54c0-1.104,0.896-2,2-2h12.406c1.104,0,2,0.896,2,2v57.014
			C67.828,156.658,66.933,157.554,65.828,157.554z M55.422,153.554h8.406V100.54h-8.406V153.554z"/>
	</g>
	<g>
		<path class="st1" d="M139.958,163.757H11.383c-1.104,0-2-0.896-2-2v-4.511c0-2.036,1.656-3.692,3.692-3.692h125.19
			c2.036,0,3.692,1.656,3.692,3.692v4.511C141.958,162.861,141.062,163.757,139.958,163.757z M13.383,159.757h124.575v-2.203H13.383
			V159.757z"/>
	</g>
	<g>
		<path class="st3" d="M240,153.538h-47.667c-4.418,0-8-3.582-8-8v-36.983c0-4.418,3.582-8,8-8H240c4.418,0,8,3.582,8,8v36.983
			C248,149.957,244.418,153.538,240,153.538z"/>
	</g>
	<g>
		<path class="st4" d="M240,74.492h-47.667c-4.418,0-8-3.582-8-8V29.508c0-4.418,3.582-8,8-8H240c4.418,0,8,3.582,8,8v36.983
			C248,70.91,244.418,74.492,240,74.492z"/>
	</g>
	<g>
		<path class="st11" d="M240,234.492h-47.667c-4.418,0-8-3.582-8-8v-36.983c0-4.418,3.582-8,8-8H240c4.418,0,8,3.582,8,8v36.983
			C248,230.91,244.418,234.492,240,234.492z"/>
	</g>
	<g>
		<path class="st1" d="M240,155.538h-47.667c-5.514,0-10-4.486-10-10v-36.983c0-5.514,4.486-10,10-10H240c5.514,0,10,4.486,10,10
			v36.983C250,151.052,245.514,155.538,240,155.538z M192.333,102.555c-3.309,0-6,2.691-6,6v36.983c0,3.309,2.691,6,6,6H240
			c3.309,0,6-2.691,6-6v-36.983c0-3.309-2.691-6-6-6H192.333z"/>
	</g>
	<g>
		<path class="st1" d="M240,76.492h-47.667c-5.514,0-10-4.486-10-10V29.508c0-5.514,4.486-10,10-10H240c5.514,0,10,4.486,10,10
			v36.983C250,72.006,245.514,76.492,240,76.492z M192.333,23.508c-3.309,0-6,2.691-6,6v36.983c0,3.309,2.691,6,6,6H240
			c3.309,0,6-2.691,6-6V29.508c0-3.309-2.691-6-6-6H192.333z"/>
	</g>
	<g>
		<path class="st1" d="M240,236.492h-47.667c-5.514,0-10-4.486-10-10v-36.983c0-5.514,4.486-10,10-10H240c5.514,0,10,4.486,10,10
			v36.983C250,232.006,245.514,236.492,240,236.492z M192.333,183.508c-3.309,0-6,2.691-6,6v36.983c0,3.309,2.691,6,6,6H240
			c3.309,0,6-2.691,6-6v-36.983c0-3.309-2.691-6-6-6H192.333z"/>
	</g>
</g>
</svg>
