<?xml version="1.0" encoding="utf-8"?>
<!-- Generator: Adobe Illustrator 22.1.0, SVG Export Plug-In . SVG Version: 6.00 Build 0)  -->
<svg version="1.1" id="Layer_1" xmlns="http://www.w3.org/2000/svg" xmlns:xlink="http://www.w3.org/1999/xlink" x="0px" y="0px"
	 viewBox="0 0 256 256" style="enable-background:new 0 0 256 256;" xml:space="preserve">
<style type="text/css">
	.st0{fill:#E0EBFC;}
	.st1{fill:#3762CC;}
	.st2{fill:#4671C6;}
	.st3{fill:#6BDDDD;}
	.st4{fill:#F9A7A7;}
	.st5{fill:#A4C9FF;}
	.st6{fill:#FFEA92;}
	.st7{fill:#F9CFCF;}
	.st8{fill:#FFE164;}
	.st9{fill:#FFDC85;}
	.st10{fill:#FFEA94;}
	.st11{fill:#B9BEFC;}
	.st12{fill:#EAA97D;}
</style>
<g>
	<g>
		<rect x="22.815" y="164.792" class="st0" width="210.37" height="51.852"/>
	</g>
	<g>
		<rect x="22.815" y="61.827" class="st0" width="210.37" height="51.852"/>
	</g>
	<g>
		<path class="st1" d="M233.186,218.644H22.814c-1.104,0-2-0.896-2-2v-51.852c0-1.104,0.896-2,2-2h210.371c1.104,0,2,0.896,2,2
			v51.852C235.186,217.748,234.29,218.644,233.186,218.644z M24.814,214.644h206.371v-47.852H24.814V214.644z"/>
	</g>
	<g>
		<path class="st1" d="M233.186,115.679H22.814c-1.104,0-2-0.896-2-2V61.827c0-1.104,0.896-2,2-2h210.371c1.104,0,2,0.896,2,2
			v51.852C235.186,114.783,234.29,115.679,233.186,115.679z M24.814,111.679h206.371V63.827H24.814V111.679z"/>
	</g>
	<g>
		<path class="st5" d="M19.852,242.815h-8.889c-1.636,0-2.963-1.327-2.963-2.963V16.148c0-1.636,1.327-2.963,2.963-2.963h8.889
			c1.636,0,2.963,1.327,2.963,2.963v223.704C22.815,241.488,21.488,242.815,19.852,242.815z"/>
	</g>
	<g>
		<path class="st5" d="M245.037,242.815h-8.889c-1.636,0-2.963-1.327-2.963-2.963V38.37c0-1.636,1.327-2.963,2.963-2.963h8.889
			c1.636,0,2.963,1.327,2.963,2.963v201.481C248,241.488,246.673,242.815,245.037,242.815z"/>
	</g>
	<g>
		<path class="st4" d="M233.185,229.113H86.272c-3.273,0-5.926-2.653-5.926-5.926v-58.395h152.84V229.113z"/>
	</g>
	<g>
		<path class="st7" d="M68.864,164.792H27.259c-2.455,0-4.444-1.99-4.444-4.444v-7.161c0-4.091,3.316-7.407,7.407-7.407h35.679
			c4.091,0,7.407,3.316,7.407,7.407v7.161C73.309,162.802,71.319,164.792,68.864,164.792z"/>
	</g>
	<g>
		<path class="st4" d="M233.185,126.148H86.272c-3.273,0-5.926-2.653-5.926-5.926V61.827h152.84V126.148z"/>
	</g>
	<g>
		<path class="st7" d="M68.864,61.827H27.259c-2.455,0-4.444-1.99-4.444-4.444v-7.16c0-4.091,3.316-7.407,7.407-7.407h35.679
			c4.091,0,7.407,3.316,7.407,7.407v7.16C73.309,59.837,71.319,61.827,68.864,61.827z"/>
	</g>
	<g>
		<path class="st1" d="M19.852,244.814h-8.889c-2.736,0-4.963-2.227-4.963-4.963V16.148c0-2.736,2.227-4.963,4.963-4.963h8.889
			c2.736,0,4.963,2.227,4.963,4.963v223.703C24.814,242.588,22.588,244.814,19.852,244.814z M10.963,15.186
			c-0.531,0-0.963,0.432-0.963,0.963v223.703c0,0.531,0.432,0.963,0.963,0.963h8.889c0.531,0,0.963-0.432,0.963-0.963V16.148
			c0-0.531-0.432-0.963-0.963-0.963H10.963z"/>
	</g>
	<g>
		<path class="st1" d="M245.037,244.814h-8.889c-2.736,0-4.963-2.227-4.963-4.963V38.37c0-2.736,2.227-4.963,4.963-4.963h8.889
			c2.736,0,4.963,2.227,4.963,4.963v201.481C250,242.588,247.773,244.814,245.037,244.814z M236.148,37.407
			c-0.531,0-0.963,0.432-0.963,0.963v201.481c0,0.531,0.432,0.963,0.963,0.963h8.889c0.531,0,0.963-0.432,0.963-0.963V38.37
			c0-0.531-0.432-0.963-0.963-0.963H236.148z"/>
	</g>
	<g>
		<path class="st1" d="M233.186,231.112H86.271c-4.37,0-7.926-3.556-7.926-7.926v-58.395c0-1.104,0.896-2,2-2h152.84
			c1.104,0,2,0.896,2,2v64.32C235.186,230.217,234.29,231.112,233.186,231.112z M82.346,166.792v56.395
			c0,2.165,1.761,3.926,3.926,3.926h144.914v-60.32H82.346z"/>
	</g>
	<g>
		<path class="st1" d="M68.864,166.792H27.259c-3.554,0-6.444-2.891-6.444-6.444v-7.161c0-5.188,4.221-9.407,9.408-9.407h35.679
			c5.188,0,9.407,4.22,9.407,9.407v7.161C75.309,163.901,72.418,166.792,68.864,166.792z M30.223,147.779
			c-2.982,0-5.408,2.426-5.408,5.407v7.161c0,1.348,1.097,2.444,2.444,2.444h41.605c1.348,0,2.444-1.097,2.444-2.444v-7.161
			c0-2.981-2.426-5.407-5.407-5.407H30.223z"/>
	</g>
	<g>
		<path class="st1" d="M233.186,128.148H86.271c-4.37,0-7.926-3.556-7.926-7.926V61.827c0-1.104,0.896-2,2-2h152.84
			c1.104,0,2,0.896,2,2v64.321C235.186,127.253,234.29,128.148,233.186,128.148z M82.346,63.827v56.396
			c0,2.165,1.761,3.926,3.926,3.926h144.914V63.827H82.346z"/>
	</g>
	<g>
		<path class="st1" d="M68.864,63.827H27.259c-3.554,0-6.444-2.891-6.444-6.444v-7.16c0-5.188,4.221-9.408,9.408-9.408h35.679
			c5.188,0,9.407,4.221,9.407,9.408v7.16C75.309,60.937,72.418,63.827,68.864,63.827z M30.223,44.814
			c-2.982,0-5.408,2.426-5.408,5.408v7.16c0,1.348,1.097,2.444,2.444,2.444h41.605c1.348,0,2.444-1.097,2.444-2.444v-7.16
			c0-2.982-2.426-5.408-5.407-5.408H30.223z"/>
	</g>
	<g>
		
			<rect x="205.893" y="176.625" transform="matrix(-1.836970e-16 1 -1 -1.836970e-16 409.8098 -12.1161)" class="st0" width="10.14" height="44.444"/>
	</g>
	<g>
		
			<rect x="205.893" y="205.597" transform="matrix(-1.836970e-16 1 -1 -1.836970e-16 438.7818 16.8558)" class="st0" width="10.14" height="44.444"/>
	</g>
	<g>
		
			<rect x="205.893" y="147.653" transform="matrix(-1.836970e-16 1 -1 -1.836970e-16 380.8379 -41.0881)" class="st0" width="10.14" height="44.444"/>
	</g>
	<g>
		
			<rect x="205.893" y="118.681" transform="matrix(-1.836970e-16 1 -1 -1.836970e-16 351.8659 -70.0601)" class="st0" width="10.14" height="44.444"/>
	</g>
	<g>
		
			<rect x="205.893" y="89.709" transform="matrix(-1.836970e-16 1 -1 -1.836970e-16 322.8939 -99.032)" class="st0" width="10.14" height="44.444"/>
	</g>
	<g>
		
			<rect x="205.893" y="60.737" transform="matrix(-1.836970e-16 1 -1 -1.836970e-16 293.922 -128.004)" class="st0" width="10.14" height="44.444"/>
	</g>
	<g>
		<path class="st1" d="M233.186,205.917h-44.444c-1.104,0-2-0.896-2-2v-10.141c0-1.104,0.896-2,2-2h44.444c1.104,0,2,0.896,2,2
			v10.141C235.186,205.021,234.29,205.917,233.186,205.917z M190.741,201.917h40.444v-6.141h-40.444V201.917z"/>
	</g>
	<g>
		<path class="st1" d="M233.186,234.889h-44.444c-1.104,0-2-0.896-2-2v-10.14c0-1.104,0.896-2,2-2h44.444c1.104,0,2,0.896,2,2v10.14
			C235.186,233.993,234.29,234.889,233.186,234.889z M190.741,230.889h40.444v-6.14h-40.444V230.889z"/>
	</g>
	<g>
		<path class="st1" d="M233.186,176.945h-44.444c-1.104,0-2-0.896-2-2v-10.141c0-1.104,0.896-2,2-2h44.444c1.104,0,2,0.896,2,2
			v10.141C235.186,176.05,234.29,176.945,233.186,176.945z M190.741,172.945h40.444v-6.141h-40.444V172.945z"/>
	</g>
	<g>
		<path class="st1" d="M233.186,147.973h-44.444c-1.104,0-2-0.896-2-2v-10.14c0-1.104,0.896-2,2-2h44.444c1.104,0,2,0.896,2,2v10.14
			C235.186,147.077,234.29,147.973,233.186,147.973z M190.741,143.973h40.444v-6.14h-40.444V143.973z"/>
	</g>
	<g>
		<path class="st1" d="M233.186,119.001h-44.444c-1.104,0-2-0.896-2-2v-10.14c0-1.104,0.896-2,2-2h44.444c1.104,0,2,0.896,2,2v10.14
			C235.186,118.105,234.29,119.001,233.186,119.001z M190.741,115.001h40.444v-6.14h-40.444V115.001z"/>
	</g>
	<g>
		<path class="st1" d="M233.186,90.029h-44.444c-1.104,0-2-0.896-2-2V77.889c0-1.104,0.896-2,2-2h44.444c1.104,0,2,0.896,2,2v10.141
			C235.186,89.134,234.29,90.029,233.186,90.029z M190.741,86.029h40.444v-6.141h-40.444V86.029z"/>
	</g>
	<g>
		<path class="st5" d="M185.778,242.815h-8.889c-1.636,0-2.963-1.327-2.963-2.963V38.37c0-1.636,1.327-2.963,2.963-2.963h8.889
			c1.636,0,2.963,1.327,2.963,2.963v201.481C188.741,241.488,187.414,242.815,185.778,242.815z"/>
	</g>
	<g>
		<path class="st1" d="M185.777,244.814h-8.889c-2.736,0-4.963-2.227-4.963-4.963V38.37c0-2.736,2.227-4.963,4.963-4.963h8.889
			c2.737,0,4.964,2.227,4.964,4.963v201.481C190.741,242.588,188.515,244.814,185.777,244.814z M176.889,37.407
			c-0.531,0-0.963,0.432-0.963,0.963v201.481c0,0.531,0.432,0.963,0.963,0.963h8.889c0.531,0,0.964-0.432,0.964-0.963V38.37
			c0-0.531-0.433-0.963-0.964-0.963H176.889z"/>
	</g>
</g>
</svg>
