<?xml version="1.0" encoding="utf-8"?>
<!-- Generator: Adobe Illustrator 22.1.0, SVG Export Plug-In . SVG Version: 6.00 Build 0)  -->
<svg version="1.1" id="Layer_1" xmlns="http://www.w3.org/2000/svg" xmlns:xlink="http://www.w3.org/1999/xlink" x="0px" y="0px"
	 viewBox="0 0 256 256" style="enable-background:new 0 0 256 256;" xml:space="preserve">
<style type="text/css">
	.st0{fill:#E0EBFC;}
	.st1{fill:#3762CC;}
	.st2{fill:#4671C6;}
	.st3{fill:#6BDDDD;}
	.st4{fill:#F9A7A7;}
	.st5{fill:#A4C9FF;}
	.st6{fill:#FFEA92;}
	.st7{fill:#F9CFCF;}
	.st8{fill:#FFE164;}
	.st9{fill:#FFDC85;}
	.st10{fill:#FFEA94;}
	.st11{fill:#B9BEFC;}
	.st12{fill:#EAA97D;}
</style>
<g>
	<g>
		<path class="st5" d="M13.862,216.815V64.28c0-2.905,2.355-5.26,5.26-5.26h96.781c2.905,0,5.26,2.355,5.26,5.26v152.535
			c0,2.905-2.355,5.26-5.26,5.26H19.122C16.217,222.075,13.862,219.72,13.862,216.815z"/>
	</g>
	<g>
		<path class="st7" d="M134.838,216.815V64.28c0-2.905,2.355-5.26,5.26-5.26h96.781c2.905,0,5.26,2.355,5.26,5.26v152.535
			c0,2.905-2.355,5.26-5.26,5.26h-96.781C137.193,222.075,134.838,219.72,134.838,216.815z"/>
	</g>
	<g>
		<path class="st0" d="M104.331,101.773H30.693c-2.905,0-5.26-2.355-5.26-5.26v0c0-2.905,2.355-5.26,5.26-5.26h73.638
			c2.905,0,5.26,2.355,5.26,5.26v0C109.591,99.418,107.236,101.773,104.331,101.773z"/>
	</g>
	<g>
		<path class="st0" d="M104.331,127.02H30.693c-2.905,0-5.26-2.355-5.26-5.26v0c0-2.905,2.355-5.26,5.26-5.26h73.638
			c2.905,0,5.26,2.355,5.26,5.26v0C109.591,124.665,107.236,127.02,104.331,127.02z"/>
	</g>
	<g>
		<path class="st0" d="M93.811,152.267H41.213c-2.905,0-5.26-2.355-5.26-5.26v0c0-2.905,2.355-5.26,5.26-5.26h52.598
			c2.905,0,5.26,2.355,5.26,5.26v0C99.071,149.912,96.716,152.267,93.811,152.267z"/>
	</g>
	<g>
		<path class="st4" d="M225.307,101.773h-73.638c-2.905,0-5.26-2.355-5.26-5.26v0c0-2.905,2.355-5.26,5.26-5.26h73.638
			c2.905,0,5.26,2.355,5.26,5.26v0C230.567,99.418,228.212,101.773,225.307,101.773z"/>
	</g>
	<g>
		<path class="st4" d="M225.307,127.02h-73.638c-2.905,0-5.26-2.355-5.26-5.26v0c0-2.905,2.355-5.26,5.26-5.26h73.638
			c2.905,0,5.26,2.355,5.26,5.26v0C230.567,124.665,228.212,127.02,225.307,127.02z"/>
	</g>
	<g>
		<path class="st4" d="M214.787,152.267h-52.598c-2.905,0-5.26-2.355-5.26-5.26v0c0-2.905,2.355-5.26,5.26-5.26h52.598
			c2.905,0,5.26,2.355,5.26,5.26v0C220.047,149.912,217.692,152.267,214.787,152.267z"/>
	</g>
	<g>
		<path class="st1" d="M115.902,224.075H19.122c-4.003,0-7.26-3.257-7.26-7.26V64.28c0-4.003,3.257-7.26,7.26-7.26h96.781
			c4.003,0,7.26,3.257,7.26,7.26v152.535C123.162,220.818,119.905,224.075,115.902,224.075z M19.122,61.021
			c-1.797,0-3.26,1.462-3.26,3.26v152.535c0,1.798,1.462,3.26,3.26,3.26h96.781c1.797,0,3.26-1.462,3.26-3.26V64.28
			c0-1.797-1.462-3.26-3.26-3.26H19.122z"/>
	</g>
	<g>
		<path class="st1" d="M236.878,224.075h-96.781c-4.003,0-7.26-3.257-7.26-7.26V64.28c0-4.003,3.257-7.26,7.26-7.26h96.781
			c4.003,0,7.26,3.257,7.26,7.26v152.535C244.138,220.818,240.881,224.075,236.878,224.075z M140.098,61.021
			c-1.797,0-3.26,1.462-3.26,3.26v152.535c0,1.798,1.462,3.26,3.26,3.26h96.781c1.797,0,3.26-1.462,3.26-3.26V64.28
			c0-1.797-1.462-3.26-3.26-3.26H140.098z"/>
	</g>
	<g>
		<path class="st6" d="M198.584,73.176c0-12.485,0-22.113,0-33.193l-3.216,1.236c0,10.679,0,24.952,0,31.957
			c-1.145,0.586-1.93,1.775-1.93,3.148v8.469h7.075v-8.469C200.514,74.95,199.729,73.761,198.584,73.176z"/>
	</g>
	<g>
		<path class="st2" d="M123.281,8.777l-66.978,25.73c-2.498,0.96-2.498,4.494,0,5.454l66.978,25.73c2.698,1.036,5.684,1.036,8.381,0
			l66.978-25.73c2.498-0.96,2.498-4.494,0-5.454l-66.978-25.73C128.964,7.741,125.979,7.741,123.281,8.777z"/>
	</g>
	<g>
		<path class="st1" d="M127.471,68.47c-1.663,0-3.325-0.304-4.908-0.912l-66.978-25.73c-1.918-0.737-3.157-2.541-3.157-4.595
			c0-2.054,1.239-3.857,3.157-4.594l66.978-25.73v0c3.165-1.218,6.651-1.217,9.816,0l66.978,25.729
			c1.917,0.736,3.156,2.54,3.157,4.594c0,2.054-1.239,3.858-3.157,4.595l-66.978,25.73C130.797,68.166,129.134,68.47,127.471,68.47z
			 M127.471,9.999c-1.177,0-2.353,0.215-3.473,0.646v0L57.02,36.375c-0.514,0.197-0.591,0.623-0.591,0.859
			c0,0.237,0.077,0.663,0.591,0.861l66.978,25.729c2.24,0.86,4.707,0.859,6.947,0l66.978-25.73c0.515-0.197,0.591-0.624,0.591-0.86
			c0-0.236-0.077-0.662-0.591-0.859l-66.979-25.73C129.825,10.214,128.648,9.999,127.471,9.999z M123.281,8.777h0.01H123.281z"/>
	</g>
	<g>
		<path class="st2" d="M168.655,41.725H86.566c-0.751,0-1.359,0.609-1.359,1.359v20.268c0,4.474,18.985,8.101,42.403,8.101
			s42.403-3.627,42.403-8.101h0.001V43.084C170.014,42.333,169.406,41.725,168.655,41.725z"/>
	</g>
	<g>
		<path class="st1" d="M127.61,73.453c-1.813,0-44.403-0.115-44.403-10.1V43.084c0-1.852,1.507-3.359,3.359-3.359h82.089
			c1.852,0,3.359,1.507,3.359,3.359v20.269C172.013,73.338,129.423,73.453,127.61,73.453z M87.207,63.274
			c1.124,2.239,15.441,6.178,40.403,6.178s39.28-3.939,40.404-6.178l0-19.549H87.207V63.274z M168.655,43.725h0.01H168.655z"/>
	</g>
	<g>
		<path class="st4" d="M67.512,222.659c-2.764,0-4.798-4.411-7.292-5.221c-2.585-0.839-6.817,1.505-8.969-0.061
			c-2.173-1.582-1.243-6.341-2.825-8.514c-1.566-2.152-6.388-2.729-7.227-5.314c-0.81-2.494,2.726-5.785,2.726-8.549
			c0-2.764-3.535-6.055-2.725-8.55c0.839-2.585,5.662-3.163,7.228-5.314c1.582-2.173,0.652-6.933,2.825-8.514
			c2.152-1.566,6.383,0.778,8.968-0.061c2.494-0.81,4.527-5.221,7.291-5.221c2.764,0,4.798,4.411,7.292,5.221
			c2.585,0.839,6.817-1.505,8.969,0.061c2.173,1.582,1.243,6.341,2.825,8.514c1.566,2.152,6.388,2.729,7.227,5.314
			c0.81,2.494-2.726,5.785-2.726,8.549c0,2.764,3.535,6.055,2.725,8.55c-0.839,2.585-5.662,3.163-7.228,5.314
			c-1.582,2.173-0.652,6.933-2.825,8.514c-2.152,1.566-6.383-0.778-8.968,0.061C72.309,218.248,70.276,222.659,67.512,222.659z"/>
	</g>
	<g>
		<path class="st2" d="M74.803,217.438c-2.494,0.81-4.527,5.221-7.291,5.221c-2.764,0-4.798-4.411-7.292-5.221
			c-1.515-0.492-3.594,0.107-5.489,0.374v28.48c0,1.511,1.82,2.274,2.898,1.216l8.69-8.527c0.663-0.65,1.724-0.65,2.387,0
			l8.69,8.527c1.078,1.058,2.898,0.294,2.898-1.216v-28.48C78.397,217.545,76.318,216.947,74.803,217.438z"/>
	</g>
	<g>
		<path class="st1" d="M67.512,224.659c-2.401,0-4.103-1.782-5.605-3.354c-0.79-0.827-1.685-1.763-2.305-1.964
			c-0.686-0.223-2.01,0.012-3.178,0.22c-2.098,0.373-4.477,0.796-6.35-0.567c-1.889-1.375-2.22-3.781-2.512-5.904
			c-0.16-1.165-0.341-2.484-0.753-3.05c-0.4-0.55-1.587-1.122-2.634-1.626c-1.944-0.937-4.148-1.999-4.878-4.247
			c-0.705-2.172,0.422-4.283,1.417-6.146c0.567-1.063,1.211-2.268,1.211-3.021s-0.644-1.958-1.211-3.021
			c-0.995-1.863-2.122-3.974-1.417-6.146c0.73-2.249,2.934-3.311,4.878-4.247c1.047-0.504,2.234-1.077,2.634-1.626
			c0.412-0.566,0.593-1.886,0.753-3.05c0.292-2.124,0.623-4.53,2.512-5.905c1.873-1.363,4.252-0.94,6.35-0.566
			c1.168,0.208,2.492,0.444,3.178,0.22c0.62-0.201,1.515-1.138,2.304-1.964c1.502-1.572,3.204-3.354,5.605-3.354
			c2.4,0,4.103,1.782,5.604,3.354c0.79,0.826,1.685,1.763,2.305,1.964c0.687,0.225,2.01-0.012,3.178-0.22
			c2.098-0.374,4.477-0.797,6.35,0.567c1.889,1.375,2.22,3.781,2.512,5.904c0.16,1.165,0.341,2.484,0.753,3.05
			c0.4,0.55,1.587,1.122,2.634,1.626c1.944,0.937,4.148,1.999,4.878,4.247c0.705,2.172-0.422,4.283-1.417,6.146
			c-0.567,1.063-1.211,2.268-1.211,3.021s0.644,1.958,1.211,3.021c0.995,1.862,2.122,3.974,1.417,6.146
			c-0.731,2.249-2.935,3.311-4.878,4.247c-1.047,0.504-2.234,1.077-2.635,1.626c-0.412,0.566-0.593,1.886-0.753,3.05
			c-0.292,2.124-0.623,4.53-2.512,5.905c-1.873,1.364-4.252,0.939-6.35,0.566c-1.168-0.207-2.491-0.443-3.178-0.22
			c-0.62,0.201-1.515,1.138-2.305,1.964C71.615,222.877,69.913,224.659,67.512,224.659z M58.864,215.25
			c0.67,0,1.332,0.078,1.974,0.287c1.58,0.513,2.791,1.78,3.961,3.006c0.901,0.943,2.023,2.117,2.713,2.117s1.811-1.174,2.712-2.117
			c1.171-1.226,2.381-2.494,3.961-3.006c1.639-0.531,3.405-0.218,5.114,0.087c1.182,0.21,2.799,0.499,3.295,0.137
			c0.512-0.373,0.738-2.016,0.903-3.215c0.235-1.71,0.479-3.48,1.482-4.858c0.992-1.363,2.589-2.133,4.133-2.876
			c1.101-0.53,2.608-1.256,2.81-1.879c0.18-0.553-0.583-1.982-1.141-3.026c-0.789-1.477-1.683-3.151-1.683-4.905
			c0-1.755,0.894-3.429,1.683-4.906c0.557-1.043,1.32-2.473,1.141-3.026c-0.202-0.623-1.709-1.349-2.81-1.879
			c-1.544-0.744-3.141-1.513-4.133-2.876c-1.003-1.379-1.247-3.148-1.482-4.859c-0.165-1.2-0.391-2.842-0.902-3.215
			c-0.496-0.362-2.114-0.073-3.296,0.137c-1.708,0.304-3.474,0.619-5.114,0.086c-1.579-0.513-2.79-1.78-3.961-3.006
			c-0.901-0.943-2.022-2.117-2.712-2.117s-1.812,1.174-2.712,2.117c-1.171,1.226-2.382,2.493-3.961,3.006
			c-1.638,0.533-3.405,0.218-5.114-0.087c-1.182-0.21-2.799-0.499-3.295-0.137c-0.512,0.373-0.738,2.016-0.903,3.215
			c-0.235,1.71-0.479,3.48-1.482,4.858c-0.992,1.363-2.589,2.133-4.133,2.876c-1.1,0.53-2.607,1.256-2.81,1.879
			c-0.18,0.554,0.583,1.983,1.14,3.026c0.789,1.477,1.683,3.151,1.683,4.906s-0.894,3.428-1.683,4.905
			c-0.557,1.043-1.32,2.473-1.141,3.026c0.202,0.623,1.709,1.349,2.81,1.879c1.544,0.744,3.141,1.513,4.133,2.876
			c1.003,1.379,1.247,3.148,1.482,4.859c0.165,1.2,0.391,2.842,0.902,3.215c0.495,0.36,2.114,0.074,3.296-0.137
			C56.763,215.438,57.824,215.25,58.864,215.25z"/>
	</g>
	<g>
		<path class="st1" d="M56.437,249.998c-0.483,0-0.971-0.095-1.436-0.29c-1.38-0.579-2.271-1.919-2.271-3.416v-28.48
			c0-0.997,0.734-1.841,1.721-1.98c0.417-0.059,0.842-0.135,1.269-0.21c1.71-0.303,3.478-0.618,5.118-0.085
			c1.58,0.513,2.791,1.78,3.961,3.006c0.901,0.943,2.023,2.117,2.713,2.117s1.811-1.174,2.712-2.117
			c1.171-1.226,2.381-2.494,3.961-3.006c1.64-0.533,3.408-0.219,5.117,0.085c0.427,0.076,0.853,0.152,1.27,0.21
			c0.987,0.139,1.721,0.984,1.721,1.98v28.48c0,1.496-0.891,2.836-2.271,3.416c-1.379,0.579-2.96,0.275-4.028-0.772l-8.483-8.323
			l-8.482,8.323C58.322,249.631,57.388,249.998,56.437,249.998z M67.512,236.502c0.939,0,1.878,0.351,2.594,1.052l8.188,8.033
			v-26.083c-1.087-0.19-2.243-0.37-2.873-0.164l0,0c-0.62,0.201-1.515,1.138-2.305,1.964c-1.501,1.572-3.204,3.354-5.604,3.354
			c-2.401,0-4.103-1.782-5.605-3.354c-0.79-0.827-1.685-1.763-2.305-1.964c-0.627-0.204-1.786-0.025-2.872,0.164v26.083l8.187-8.033
			C65.633,236.853,66.573,236.502,67.512,236.502z M74.803,217.438h0.01H74.803z"/>
	</g>
	<g>
		<circle class="st6" cx="67.512" cy="195.054" r="16.403"/>
	</g>
	<g>
		<path class="st5" d="M188.488,222.659c-2.764,0-4.798-4.411-7.292-5.221c-2.585-0.839-6.817,1.505-8.969-0.061
			c-2.173-1.582-1.243-6.341-2.825-8.514c-1.566-2.152-6.388-2.729-7.227-5.314c-0.81-2.494,2.725-5.785,2.725-8.549
			c0-2.764-3.535-6.055-2.725-8.55c0.839-2.585,5.662-3.163,7.228-5.314c1.582-2.173,0.652-6.933,2.825-8.514
			c2.152-1.566,6.383,0.778,8.968-0.061c2.494-0.81,4.527-5.221,7.291-5.221c2.764,0,4.798,4.411,7.292,5.221
			c2.585,0.839,6.817-1.505,8.969,0.061c2.173,1.582,1.243,6.341,2.825,8.514c1.566,2.152,6.388,2.729,7.227,5.314
			c0.81,2.494-2.725,5.785-2.725,8.549c0,2.764,3.535,6.055,2.725,8.55c-0.839,2.585-5.662,3.163-7.228,5.314
			c-1.582,2.173-0.652,6.933-2.825,8.514c-2.152,1.566-6.383-0.778-8.968,0.061C193.285,218.248,191.252,222.659,188.488,222.659z"
			/>
	</g>
	<g>
		<path class="st2" d="M195.779,217.438c-2.494,0.81-4.527,5.221-7.291,5.221c-2.764,0-4.798-4.411-7.292-5.221
			c-1.515-0.492-3.594,0.107-5.489,0.374v28.48c0,1.511,1.82,2.274,2.898,1.216l8.69-8.527c0.663-0.65,1.724-0.65,2.387,0
			l8.69,8.527c1.078,1.058,2.898,0.294,2.898-1.216v-28.48C199.373,217.545,197.294,216.947,195.779,217.438z"/>
	</g>
	<g>
		<path class="st1" d="M188.488,224.659c-2.4,0-4.103-1.782-5.604-3.354c-0.79-0.826-1.685-1.763-2.305-1.964
			c-0.685-0.223-2.009,0.012-3.178,0.22c-2.099,0.373-4.477,0.796-6.35-0.567c-1.889-1.375-2.22-3.781-2.512-5.904
			c-0.16-1.165-0.341-2.484-0.753-3.05c-0.4-0.55-1.587-1.122-2.634-1.626c-1.944-0.937-4.148-1.999-4.878-4.247
			c-0.705-2.172,0.422-4.283,1.417-6.146c0.567-1.063,1.211-2.268,1.211-3.021s-0.644-1.958-1.211-3.022
			c-0.995-1.862-2.122-3.974-1.417-6.146c0.731-2.249,2.935-3.311,4.878-4.247c1.047-0.504,2.234-1.077,2.635-1.626
			c0.412-0.566,0.593-1.886,0.753-3.05c0.292-2.124,0.623-4.53,2.512-5.905c1.873-1.363,4.252-0.94,6.35-0.566
			c1.168,0.208,2.492,0.444,3.178,0.22c0.62-0.201,1.515-1.138,2.305-1.964c1.501-1.572,3.204-3.354,5.604-3.354
			c2.401,0,4.103,1.782,5.605,3.354c0.79,0.827,1.685,1.763,2.305,1.964c0.687,0.225,2.01-0.012,3.178-0.22
			c2.098-0.374,4.477-0.797,6.35,0.567c1.889,1.375,2.22,3.781,2.512,5.904c0.16,1.165,0.341,2.484,0.753,3.05
			c0.4,0.55,1.587,1.122,2.634,1.626c1.944,0.937,4.148,1.999,4.878,4.247c0.705,2.172-0.422,4.283-1.417,6.146
			c-0.567,1.063-1.211,2.268-1.211,3.021s0.643,1.958,1.211,3.021c0.995,1.863,2.122,3.974,1.417,6.146
			c-0.73,2.249-2.934,3.311-4.878,4.247c-1.047,0.504-2.234,1.077-2.634,1.626c-0.412,0.566-0.593,1.886-0.753,3.05
			c-0.292,2.124-0.623,4.53-2.512,5.905c-1.872,1.364-4.252,0.939-6.35,0.566c-1.167-0.207-2.491-0.443-3.178-0.22
			c-0.62,0.201-1.515,1.138-2.304,1.964C192.591,222.877,190.889,224.659,188.488,224.659z M179.84,215.25
			c0.67,0,1.332,0.078,1.974,0.287c1.58,0.513,2.791,1.78,3.962,3.006c0.901,0.943,2.022,2.117,2.712,2.117s1.812-1.174,2.712-2.117
			c1.171-1.226,2.382-2.493,3.961-3.006c1.639-0.531,3.405-0.218,5.114,0.087c1.182,0.21,2.8,0.499,3.295,0.137
			c0.512-0.373,0.738-2.016,0.903-3.215c0.235-1.71,0.479-3.48,1.482-4.858c0.992-1.363,2.589-2.133,4.133-2.876
			c1.1-0.53,2.607-1.256,2.81-1.879c0.18-0.554-0.583-1.983-1.141-3.026c-0.789-1.477-1.682-3.151-1.682-4.905
			c0-1.755,0.894-3.429,1.683-4.906c0.557-1.043,1.32-2.473,1.141-3.026c-0.202-0.623-1.709-1.349-2.81-1.879
			c-1.544-0.744-3.141-1.513-4.133-2.876c-1.003-1.379-1.247-3.148-1.482-4.859c-0.165-1.2-0.391-2.842-0.902-3.215
			c-0.497-0.362-2.113-0.073-3.296,0.137c-1.708,0.304-3.475,0.619-5.114,0.086c-1.579-0.513-2.79-1.78-3.961-3.006
			c-0.901-0.943-2.023-2.117-2.713-2.117s-1.811,1.174-2.712,2.117c-1.171,1.226-2.381,2.494-3.961,3.006
			c-1.638,0.533-3.405,0.218-5.114-0.087c-1.182-0.21-2.799-0.499-3.295-0.137c-0.512,0.373-0.738,2.016-0.903,3.215
			c-0.235,1.71-0.479,3.48-1.482,4.858c-0.992,1.363-2.589,2.133-4.133,2.876c-1.101,0.53-2.608,1.256-2.81,1.879
			c-0.18,0.553,0.583,1.982,1.141,3.026c0.789,1.477,1.683,3.151,1.683,4.906c0,1.754-0.894,3.428-1.683,4.905
			c-0.557,1.043-1.32,2.473-1.141,3.026c0.202,0.623,1.709,1.349,2.81,1.879c1.544,0.744,3.141,1.513,4.133,2.876
			c1.003,1.379,1.247,3.148,1.482,4.859c0.165,1.2,0.391,2.842,0.902,3.215c0.496,0.36,2.113,0.074,3.296-0.137
			C177.739,215.438,178.8,215.25,179.84,215.25z"/>
	</g>
	<g>
		<path class="st1" d="M177.414,249.998c-0.483,0-0.971-0.095-1.436-0.29c-1.38-0.579-2.271-1.919-2.271-3.416v-28.48
			c0-0.997,0.734-1.841,1.721-1.98c0.417-0.059,0.842-0.135,1.269-0.21c1.709-0.303,3.478-0.618,5.118-0.085
			c1.58,0.513,2.791,1.78,3.962,3.006c0.901,0.943,2.022,2.117,2.712,2.117s1.812-1.174,2.712-2.117
			c1.171-1.226,2.382-2.493,3.961-3.006c1.64-0.533,3.408-0.219,5.117,0.085c0.427,0.076,0.853,0.152,1.27,0.21
			c0.987,0.139,1.721,0.984,1.721,1.98v28.48c0,1.496-0.891,2.836-2.271,3.416s-2.961,0.275-4.028-0.772l-8.482-8.323l-8.483,8.323
			C179.298,249.631,178.364,249.998,177.414,249.998z M188.488,236.502c0.939,0,1.878,0.351,2.594,1.052l8.188,8.033v-26.083
			c-1.087-0.19-2.243-0.37-2.873-0.164l0,0c-0.62,0.201-1.515,1.138-2.304,1.964c-1.502,1.572-3.204,3.354-5.605,3.354
			c-2.4,0-4.103-1.782-5.604-3.354c-0.79-0.826-1.685-1.763-2.305-1.964c-0.626-0.204-1.786-0.025-2.872,0.164v26.083l8.187-8.033
			C186.609,236.853,187.549,236.502,188.488,236.502z M195.779,217.438h0.01H195.779z"/>
	</g>
	<g>
		<circle class="st6" cx="188.488" cy="195.054" r="16.403"/>
	</g>
</g>
</svg>
