<?xml version="1.0" encoding="utf-8"?>
<!-- Generator: Adobe Illustrator 22.1.0, SVG Export Plug-In . SVG Version: 6.00 Build 0)  -->
<svg version="1.1" id="Layer_1" xmlns="http://www.w3.org/2000/svg" xmlns:xlink="http://www.w3.org/1999/xlink" x="0px" y="0px"
	 viewBox="0 0 256 256" style="enable-background:new 0 0 256 256;" xml:space="preserve">
<style type="text/css">
	.st0{fill:#E0EBFC;}
	.st1{fill:#3762CC;}
	.st2{fill:#4671C6;}
	.st3{fill:#6BDDDD;}
	.st4{fill:#F9A7A7;}
	.st5{fill:#A4C9FF;}
	.st6{fill:#FFEA92;}
	.st7{fill:#F9CFCF;}
	.st8{fill:#FFE164;}
	.st9{fill:#FFDC85;}
	.st10{fill:#FFEA94;}
	.st11{fill:#B9BEFC;}
	.st12{fill:#EAA97D;}
</style>
<g>
	<g>
		<path class="st0" d="M194,195.333H62c-4.971,0-9-4.029-9-9V17c0-4.971,4.029-9,9-9h132c4.971,0,9,4.029,9,9v169.333
			C203,191.304,198.971,195.333,194,195.333z"/>
	</g>
	<g>
		<path class="st1" d="M194,197.333H62c-6.065,0-11-4.935-11-11V17c0-6.065,4.935-11,11-11h132c6.065,0,11,4.935,11,11v169.333
			C205,192.399,200.065,197.333,194,197.333z M62,10c-3.86,0-7,3.14-7,7v169.333c0,3.86,3.14,7,7,7h132c3.86,0,7-3.14,7-7V17
			c0-3.86-3.14-7-7-7H62z"/>
	</g>
	<g>
		<path class="st5" d="M185.167,39.875h-20.333c-2.761,0-5-2.239-5-5v0c0-2.761,2.239-5,5-5h20.333c2.761,0,5,2.239,5,5v0
			C190.167,37.636,187.928,39.875,185.167,39.875z"/>
	</g>
	<g>
		<path class="st5" d="M80.833,43.875h-12c-1.657,0-3-1.343-3-3v-12c0-1.657,1.343-3,3-3h12c1.657,0,3,1.343,3,3v12
			C83.833,42.532,82.49,43.875,80.833,43.875z"/>
	</g>
	<g>
		<path class="st5" d="M185.167,73.875h-20.333c-2.761,0-5-2.239-5-5v0c0-2.761,2.239-5,5-5h20.333c2.761,0,5,2.239,5,5v0
			C190.167,71.636,187.928,73.875,185.167,73.875z"/>
	</g>
	<g>
		<path class="st5" d="M80.833,77.875h-12c-1.657,0-3-1.343-3-3v-12c0-1.657,1.343-3,3-3h12c1.657,0,3,1.343,3,3v12
			C83.833,76.532,82.49,77.875,80.833,77.875z"/>
	</g>
	<g>
		<path class="st5" d="M185.167,107.875h-20.333c-2.761,0-5-2.239-5-5v0c0-2.761,2.239-5,5-5h20.333c2.761,0,5,2.239,5,5v0
			C190.167,105.636,187.928,107.875,185.167,107.875z"/>
	</g>
	<g>
		<path class="st7" d="M74.654,74.997c-0.004,0-0.007,0-0.01,0c-1.016-0.003-1.974-0.499-2.561-1.328l-4.321-6.086
			c-0.672-0.947-0.45-2.259,0.497-2.931c0.947-0.673,2.259-0.449,2.931,0.497l3.469,4.887l9.075-12.616
			c0.678-0.943,1.992-1.157,2.934-0.479c0.942,0.678,1.157,1.991,0.479,2.934l-9.934,13.81
			C76.622,74.506,75.666,74.997,74.654,74.997z"/>
	</g>
	<g>
		<path class="st5" d="M148.833,43.875h-12c-1.657,0-3-1.343-3-3v-12c0-1.657,1.343-3,3-3h12c1.657,0,3,1.343,3,3v12
			C151.833,42.532,150.49,43.875,148.833,43.875z"/>
	</g>
	<g>
		<path class="st5" d="M148.833,77.875h-12c-1.657,0-3-1.343-3-3v-12c0-1.657,1.343-3,3-3h12c1.657,0,3,1.343,3,3v12
			C151.833,76.532,150.49,77.875,148.833,77.875z"/>
	</g>
	<g>
		<path class="st7" d="M142.654,39.875c-0.004,0-0.007,0-0.01,0c-1.016-0.003-1.974-0.499-2.561-1.328l-4.321-6.086
			c-0.672-0.947-0.45-2.259,0.497-2.931c0.947-0.673,2.259-0.449,2.931,0.497l3.469,4.887l9.075-12.616
			c0.678-0.943,1.992-1.157,2.934-0.479c0.942,0.678,1.157,1.991,0.479,2.934l-9.934,13.81
			C144.622,39.385,143.666,39.875,142.654,39.875z"/>
	</g>
	<g>
		<path class="st5" d="M148.833,111.875h-12c-1.657,0-3-1.343-3-3v-12c0-1.657,1.343-3,3-3h12c1.657,0,3,1.343,3,3v12
			C151.833,110.532,150.49,111.875,148.833,111.875z"/>
	</g>
	<g>
		<path class="st5" d="M115.167,39.875H94.833c-2.761,0-5-2.239-5-5v0c0-2.761,2.239-5,5-5h20.333c2.761,0,5,2.239,5,5v0
			C120.167,37.636,117.928,39.875,115.167,39.875z"/>
	</g>
	<g>
		<path class="st5" d="M115.167,73.875H94.833c-2.761,0-5-2.239-5-5v0c0-2.761,2.239-5,5-5h20.333c2.761,0,5,2.239,5,5v0
			C120.167,71.636,117.928,73.875,115.167,73.875z"/>
	</g>
	<g>
		<path class="st5" d="M115.167,107.875H94.833c-2.761,0-5-2.239-5-5v0c0-2.761,2.239-5,5-5h20.333c2.761,0,5,2.239,5,5v0
			C120.167,105.636,117.928,107.875,115.167,107.875z"/>
	</g>
	<g>
		<path class="st7" d="M142.654,109c-0.004,0-0.007,0-0.01,0c-1.016-0.003-1.974-0.499-2.561-1.328l-4.321-6.086
			c-0.672-0.947-0.45-2.259,0.497-2.931c0.947-0.673,2.259-0.449,2.931,0.497l3.469,4.887l9.075-12.616
			c0.678-0.943,1.992-1.157,2.934-0.479c0.942,0.678,1.157,1.991,0.479,2.934l-9.934,13.81C144.622,108.51,143.666,109,142.654,109z
			"/>
	</g>
	<g>
		<path class="st5" d="M82,111.875H70c-1.657,0-3-1.343-3-3v-12c0-1.657,1.343-3,3-3h12c1.657,0,3,1.343,3,3v12
			C85,110.532,83.657,111.875,82,111.875z"/>
	</g>
	<g>
		<path class="st4" d="M101.753,108.299l-10.95-19.018c-1.274-2.212-3.632-3.576-6.185-3.576H39.774
			c-3.942,0-7.137,3.196-7.137,7.137v19.033v111.026c0,3.942,3.196,7.137,7.137,7.137h176.451c3.942,0,7.137-3.195,7.137-7.137
			V119.012c0-3.942-3.195-7.137-7.137-7.137H107.939C105.386,111.875,103.027,110.511,101.753,108.299z"/>
	</g>
	<g>
		<path class="st1" d="M216.226,232.038H39.774c-5.039,0-9.138-4.099-9.138-9.137V92.842c0-5.038,4.099-9.137,9.138-9.137h44.844
			c3.258,0,6.292,1.754,7.919,4.578l10.95,19.018c0.914,1.588,2.62,2.574,4.452,2.574h108.287c5.039,0,9.138,4.099,9.138,9.137
			v103.889C225.363,227.939,221.264,232.038,216.226,232.038z M39.774,87.705c-2.833,0-5.138,2.305-5.138,5.137v130.059
			c0,2.833,2.305,5.137,5.138,5.137h176.451c2.833,0,5.138-2.305,5.138-5.137V119.012c0-2.833-2.305-5.137-5.138-5.137H107.939
			c-3.258,0-6.292-1.754-7.919-4.578l0,0L89.07,90.279c-0.914-1.588-2.62-2.574-4.452-2.574H39.774z"/>
	</g>
	<g>
		<path class="st6" d="M201.385,200.285c0-12.231,0-22.648,0-33.02l-4.879,1.874c0,12.029,0,24.05,0,31.145
			c-1.736,0.889-2.927,2.692-2.927,4.777v12.848h10.734v-12.848C204.313,202.976,203.121,201.173,201.385,200.285z"/>
	</g>
	<g>
		<path class="st2" d="M123.622,134.312l-69.977,26.882c-2.61,1.003-2.61,4.696,0,5.698l69.977,26.882
			c2.818,1.083,5.938,1.083,8.756,0l69.977-26.882c2.61-1.003,2.61-4.696,0-5.698l-69.977-26.882
			C129.56,133.229,126.44,133.229,123.622,134.312z"/>
	</g>
	<g>
		<path class="st1" d="M128,196.587c-1.726,0-3.452-0.315-5.095-0.946l-69.977-26.882c-1.969-0.757-3.241-2.608-3.24-4.717
			c0-2.109,1.272-3.96,3.241-4.716l69.976-26.882c3.287-1.262,6.906-1.261,10.191,0l69.977,26.881
			c1.968,0.756,3.24,2.607,3.24,4.716c0,2.109-1.271,3.96-3.24,4.717l-69.977,26.882C131.452,196.272,129.726,196.587,128,196.587z
			 M128,135.499c-1.24,0-2.48,0.227-3.661,0.681l0,0l-69.977,26.882c-0.609,0.234-0.675,0.764-0.675,0.981
			c0,0.218,0.065,0.749,0.675,0.982l69.977,26.882c2.361,0.907,4.962,0.906,7.322,0l69.977-26.882
			c0.609-0.234,0.675-0.765,0.675-0.982c0-0.217-0.065-0.748-0.674-0.981l-69.978-26.882C130.48,135.726,129.24,135.499,128,135.499
			z M123.622,134.312h0.01H123.622z"/>
	</g>
	<g>
		<path class="st2" d="M172.749,199.959H83.542c-1.121,0-2.03-0.909-2.03-2.03v-27.981c0-1.121,0.909-2.03,2.03-2.03h89.207
			c1.121,0,2.03,0.909,2.03,2.03v27.981C174.779,199.05,173.87,199.959,172.749,199.959z"/>
	</g>
	<g>
		<path class="st1" d="M172.749,201.958H83.542c-2.222,0-4.03-1.808-4.03-4.03v-27.98c0-2.223,1.808-4.031,4.03-4.031h89.207
			c2.222,0,4.03,1.808,4.03,4.031v27.98C176.779,200.15,174.971,201.958,172.749,201.958z M83.542,169.917l-0.03,28.011l89.237,0.03
			c0.017,0,0.03-0.014,0.03-0.03v-27.98L83.542,169.917z"/>
	</g>
	<g>
		<circle class="st3" cx="128" cy="213" r="35"/>
	</g>
	<g>
		<path class="st6" d="M128,238.962c-14.315,0-25.962-11.646-25.962-25.962c0-14.315,11.647-25.962,25.962-25.962
			s25.961,11.646,25.961,25.962C153.961,227.315,142.315,238.962,128,238.962z"/>
	</g>
	<g>
		<path class="st1" d="M128,250c-20.402,0-37-16.598-37-37s16.598-37,37-37s37,16.598,37,37S148.402,250,128,250z M128,180
			c-18.196,0-33,14.804-33,33s14.804,33,33,33s33-14.804,33-33S146.196,180,128,180z"/>
	</g>
	<g>
		<path class="st4" d="M130.421,194.673l4.119,8.346c0.393,0.797,1.154,1.349,2.033,1.477l9.211,1.338
			c2.215,0.322,3.099,3.043,1.496,4.605l-6.665,6.497c-0.636,0.62-0.927,1.514-0.777,2.39l1.573,9.173
			c0.378,2.206-1.937,3.888-3.918,2.846l-8.238-4.331c-0.787-0.414-1.726-0.414-2.513,0l-8.238,4.331
			c-1.981,1.041-4.296-0.641-3.918-2.846l1.573-9.173c0.15-0.876-0.14-1.77-0.777-2.39l-6.665-6.497
			c-1.603-1.562-0.718-4.284,1.496-4.605l9.211-1.338c0.879-0.128,1.64-0.68,2.033-1.477l4.119-8.346
			C126.569,192.666,129.431,192.666,130.421,194.673z"/>
	</g>
</g>
</svg>
