<?xml version="1.0" encoding="utf-8"?>
<!-- Generator: Adobe Illustrator 22.1.0, SVG Export Plug-In . SVG Version: 6.00 Build 0)  -->
<svg version="1.1" id="Layer_1" xmlns="http://www.w3.org/2000/svg" xmlns:xlink="http://www.w3.org/1999/xlink" x="0px" y="0px"
	 viewBox="0 0 256 256" style="enable-background:new 0 0 256 256;" xml:space="preserve">
<style type="text/css">
	.st0{fill:#E0EBFC;}
	.st1{fill:#3762CC;}
	.st2{fill:#4671C6;}
	.st3{fill:#6BDDDD;}
	.st4{fill:#F9A7A7;}
	.st5{fill:#A4C9FF;}
	.st6{fill:#FFEA92;}
	.st7{fill:#F9CFCF;}
	.st8{fill:#FFE164;}
	.st9{fill:#FFDC85;}
	.st10{fill:#FFEA94;}
	.st11{fill:#B9BEFC;}
	.st12{fill:#EAA97D;}
</style>
<g>
	<g>
		<path class="st2" d="M65.877,93.512v-5.153c0-0.295,0.018-0.586,0.022-0.88c-6.69-2.432-12.582-6.529-17.159-11.804v7.629
			c0,5.898,1.309,11.487,3.639,16.506C55.501,95.905,60.354,93.4,65.877,93.512z"/>
	</g>
	<g>
		<path class="st2" d="M173.858,73.524c1.344,4.719,2.078,9.69,2.078,14.835v5.153c4.936-0.1,9.336,1.894,12.446,5.105
			c4.702-8.387,7.251-18.144,7.251-29.348c0-10.847-5.853-20.321-14.569-25.453c0.298,2.02,0.457,4.084,0.457,6.186
			C181.521,58.798,178.674,66.925,173.858,73.524z"/>
	</g>
	<g>
		<path class="st1" d="M52.38,101.809c-0.079,0-0.159-0.005-0.239-0.014c-0.688-0.083-1.283-0.516-1.575-1.144
			c-2.537-5.466-3.824-11.303-3.824-17.348v-7.629c0-0.835,0.519-1.582,1.301-1.874c0.779-0.293,1.662-0.068,2.21,0.563
			c4.392,5.063,10.039,8.948,16.331,11.234c0.799,0.291,1.327,1.056,1.316,1.906l-0.012,0.433c-0.006,0.14-0.011,0.28-0.011,0.421
			v5.153c0,0.538-0.217,1.052-0.601,1.429c-0.384,0.376-0.924,0.583-1.44,0.571c-4.623-0.073-9,1.927-11.894,5.547
			C53.56,101.536,52.983,101.809,52.38,101.809z M50.741,80.586v2.717c0,4.456,0.773,8.785,2.304,12.909
			c3.008-2.67,6.779-4.29,10.832-4.635v-2.731C59.042,86.904,54.584,84.096,50.741,80.586z"/>
	</g>
	<g>
		<path class="st1" d="M188.382,100.617c-0.538,0-1.058-0.217-1.437-0.608c-2.892-2.985-6.816-4.572-10.968-4.498
			c-0.526,0.008-1.057-0.195-1.44-0.571c-0.384-0.376-0.601-0.891-0.601-1.429v-5.153c0-4.814-0.674-9.621-2.003-14.287
			c-0.168-0.592-0.055-1.229,0.309-1.727c4.762-6.524,7.278-14.25,7.278-22.343c0-1.951-0.146-3.934-0.436-5.894
			c-0.112-0.762,0.223-1.521,0.861-1.951s1.468-0.455,2.132-0.064c9.595,5.648,15.555,16.062,15.555,27.177
			c0,11.239-2.525,21.442-7.507,30.326c-0.309,0.551-0.86,0.924-1.486,1.005C188.554,100.612,188.468,100.617,188.382,100.617z
			 M177.937,91.577c3.628,0.307,7.022,1.631,9.873,3.846c3.866-7.752,5.823-16.537,5.823-26.154c0-8.304-3.813-16.161-10.162-21.346
			c0.033,0.695,0.05,1.389,0.05,2.079c0,8.62-2.584,16.865-7.482,23.908c1.26,4.729,1.898,9.585,1.898,14.449V91.577z"/>
	</g>
	<g>
		<path class="st5" d="M189.602,243.492H52.212v-39.538c0-16.26,13.181-29.441,29.441-29.441h78.508
			c16.26,0,29.441,13.181,29.441,29.441V243.492z"/>
	</g>
	<g>
		<path class="st7" d="M120.907,168.773c-9.234,0-17.929-2.263-25.569-6.248v11.989v0.003c0,14.108,11.436,25.544,25.544,25.544h0
			c14.108,0,25.544-11.436,25.544-25.544v-0.003v-11.962C138.799,166.519,130.121,168.773,120.907,168.773z"/>
	</g>
	<g>
		<path class="st1" d="M189.602,245.492H52.212c-1.104,0-2-0.896-2-2v-39.538c0-17.336,14.104-31.44,31.44-31.44h11.686v-9.989
			c0-0.699,0.365-1.348,0.963-1.71c0.6-0.363,1.343-0.386,1.962-0.063c7.554,3.939,16.075,6.021,24.644,6.021
			c8.674,0,16.949-2.017,24.597-5.996c0.62-0.322,1.362-0.298,1.961,0.065c0.597,0.362,0.962,1.011,0.962,1.709v9.962h11.735
			c17.336,0,31.44,14.104,31.44,31.44v39.538C191.602,244.597,190.706,245.492,189.602,245.492z M54.212,241.492h133.39v-37.538
			c0-15.131-12.31-27.44-27.44-27.44h-13.735c-1.104,0-2-0.896-2-2v-8.773c-7.351,3.3-15.417,5.032-23.52,5.032
			c-8.12,0-16.202-1.74-23.568-5.055v8.796c0,1.104-0.896,2-2,2H81.652c-15.131,0-27.44,12.31-27.44,27.44V241.492z"/>
	</g>
	<g>
		<path class="st0" d="M116.508,243.492h22.48l37.114-64.284c1.103-1.91,0.448-4.352-1.462-5.455l-9.943-5.741
			c-1.91-1.103-4.352-0.448-5.455,1.462L116.508,243.492z"/>
	</g>
	<g>
		<path class="st1" d="M138.987,245.492h-22.479c-0.715,0-1.375-0.381-1.732-1c-0.356-0.619-0.356-1.381,0-2l42.734-74.019
			c0.801-1.386,2.093-2.378,3.64-2.792c1.545-0.415,3.161-0.201,4.548,0.599l9.943,5.741c1.387,0.8,2.378,2.093,2.792,3.639
			s0.202,3.162-0.6,4.548l-37.113,64.284C140.362,245.111,139.702,245.492,138.987,245.492z M119.972,241.492h17.861l36.536-63.284
			c0.267-0.461,0.338-0.999,0.2-1.513s-0.468-0.944-0.929-1.21l-9.943-5.741c-0.463-0.267-1-0.336-1.513-0.199
			c-0.515,0.138-0.944,0.468-1.21,0.929L119.972,241.492z"/>
	</g>
	<g>
		<path class="st7" d="M175.936,93.512v-5.153c0-30.118-24.637-54.534-55.029-54.534l0,0c-30.392,0-55.029,24.416-55.029,54.534
			v5.153c-9.555-0.194-17.136,7.418-17.136,16.62c0,9.825,8.578,17.597,18.59,16.539c5.679,24.127,27.503,42.103,53.576,42.103
			c26.074,0,47.897-17.977,53.576-42.103c9.999,1.057,18.59-6.7,18.59-16.539C193.072,100.926,185.486,93.318,175.936,93.512z"/>
	</g>
	<g>
		<path class="st1" d="M131.678,144.535c-1.104,0-2-0.896-2-2c0-1.335-0.581-2.627-1.68-3.735c-0.979-0.985-2.314-1.755-3.863-2.226
			c-0.933-0.284-1.99-0.421-3.235-0.421c-1.244,0-2.302,0.138-3.234,0.421c-1.55,0.471-2.886,1.241-3.863,2.227
			c-1.099,1.108-1.68,2.399-1.68,3.735c0,1.104-0.896,2-2,2s-2-0.896-2-2c0-2.378,1.009-4.706,2.84-6.552
			c1.442-1.454,3.357-2.573,5.539-3.237c1.315-0.4,2.754-0.594,4.398-0.594s3.084,0.194,4.399,0.594
			c2.18,0.663,4.095,1.782,5.538,3.236c1.832,1.847,2.841,4.174,2.841,6.553C133.678,143.64,132.782,144.535,131.678,144.535z"/>
	</g>
	<g>
		<path class="st1" d="M149.476,122.649L149.476,122.649c-4.268,0-7.728-3.46-7.728-7.728v-8.243c0-4.268,3.46-7.728,7.728-7.728h0
			c4.268,0,7.728,3.46,7.728,7.728v8.243C157.204,119.189,153.744,122.649,149.476,122.649z"/>
	</g>
	<g>
		<path class="st1" d="M92.324,122.649L92.324,122.649c-4.268,0-7.728-3.46-7.728-7.728v-8.243c0-4.268,3.46-7.728,7.728-7.728h0
			c4.268,0,7.728,3.46,7.728,7.728v8.243C100.052,119.189,96.592,122.649,92.324,122.649z"/>
	</g>
	<g>
		<path class="st1" d="M120.907,170.773c-26.073,0-48.498-17.19-55.113-42.01c-4.716,0.053-9.356-1.65-12.885-4.825
			c-3.92-3.527-6.168-8.559-6.168-13.806c0-5.022,1.984-9.733,5.588-13.264c3.145-3.082,7.187-4.921,11.548-5.29v-3.218
			c0-31.173,25.584-56.534,57.03-56.534s57.029,25.361,57.029,56.534v3.218c4.361,0.369,8.402,2.208,11.548,5.291
			c3.604,3.531,5.588,8.241,5.588,13.264c0,5.247-2.247,10.279-6.166,13.805c-3.53,3.175-8.177,4.876-12.887,4.826
			C169.403,153.583,146.979,170.773,120.907,170.773z M67.333,124.67c0.917,0,1.73,0.631,1.945,1.542
			c5.62,23.882,26.852,40.561,51.629,40.561c24.776,0,46.007-16.679,51.628-40.561c0.231-0.981,1.163-1.641,2.157-1.531
			c4.208,0.444,8.416-0.909,11.538-3.718c3.077-2.769,4.842-6.717,4.842-10.832c0-3.938-1.558-7.634-4.388-10.407
			c-2.855-2.799-6.662-4.286-10.707-4.213c-0.526,0.008-1.057-0.195-1.44-0.571c-0.384-0.376-0.601-0.891-0.601-1.429v-5.153
			c0-28.967-23.789-52.534-53.029-52.534c-29.241,0-53.03,23.566-53.03,52.534v5.153c0,0.538-0.217,1.052-0.601,1.429
			c-0.384,0.375-0.924,0.583-1.44,0.571c-4.082-0.077-7.852,1.415-10.707,4.213c-2.829,2.772-4.388,6.468-4.388,10.407
			c0,4.115,1.766,8.063,4.843,10.833c3.121,2.808,7.33,4.162,11.537,3.717C67.191,124.673,67.263,124.67,67.333,124.67z"/>
	</g>
	<g>
		<path class="st2" d="M133.953,243.492H75.632v-74.719h54.356c2.19,0,3.965,1.775,3.965,3.965V243.492z"/>
	</g>
	<g>
		<path class="st4" d="M75.632,243.492h-9.72v-70.754c0-2.19,1.775-3.965,3.965-3.965h5.755V243.492z"/>
	</g>
	<g>
		<path class="st0" d="M123.895,196.22H85.69c-1.133,0-2.052-0.919-2.052-2.052V182.03c0-1.133,0.919-2.052,2.052-2.052h38.205
			c1.133,0,2.052,0.919,2.052,2.052v12.138C125.947,195.301,125.028,196.22,123.895,196.22z"/>
	</g>
	<g>
		<path class="st1" d="M133.953,245.492H75.632c-1.104,0-2-0.896-2-2v-74.719c0-1.104,0.896-2,2-2h54.355
			c3.29,0,5.966,2.676,5.966,5.965v70.754C135.953,244.597,135.058,245.492,133.953,245.492z M77.632,241.492h54.321v-68.754
			c0-1.083-0.882-1.965-1.966-1.965H77.632V241.492z"/>
	</g>
	<g>
		<path class="st1" d="M75.632,245.492h-9.72c-1.104,0-2-0.896-2-2v-70.754c0-3.289,2.676-5.965,5.965-5.965h5.755
			c1.104,0,2,0.896,2,2v74.719C77.632,244.597,76.736,245.492,75.632,245.492z M67.912,241.492h5.72v-70.719h-3.755
			c-1.083,0-1.965,0.882-1.965,1.965V241.492z"/>
	</g>
	<g>
		<path class="st7" d="M150.84,239.548v-26.451c0-1.452-0.786-2.789-2.055-3.495l-6.715-3.737c-1.487-0.828-3.161-1.262-4.863-1.262
			h-13.03c-5.106,0-10.128,1.303-14.589,3.786l-0.003,0.002c-0.869,0.484-1.855,0.717-2.848,0.673l-62.354-2.718
			c-9.041-0.395-17.22,5.334-19.94,13.966h0c-1.232,3.91-1.232,8.105,0,12.015h0c2.719,8.632,10.898,14.36,19.94,13.966
			l62.358-2.719c0.993-0.043,1.979,0.19,2.848,0.673h0c4.462,2.483,9.483,3.786,14.589,3.786h13.098c1.713,0,3.398-0.44,4.892-1.278
			l6.63-3.719C150.059,242.329,150.84,240.995,150.84,239.548z"/>
	</g>
	<g>
		<path class="st1" d="M137.275,250.033h-13.098c-5.433,0-10.813-1.396-15.562-4.039c-0.546-0.304-1.155-0.445-1.789-0.423
			l-62.357,2.719c-9.934,0.431-18.948-5.885-21.934-15.363c-1.363-4.323-1.363-8.894,0-13.217
			c2.985-9.479,12.023-15.799,21.934-15.363l62.354,2.719c0.625,0.023,1.242-0.119,1.788-0.423
			c4.751-2.645,10.133-4.041,15.565-4.041h13.03c2.037,0,4.056,0.524,5.836,1.515l6.715,3.737c1.901,1.058,3.082,3.067,3.082,5.243
			v26.451c0,2.167-1.175,4.173-3.065,5.233l-6.629,3.718C141.358,249.503,139.328,250.033,137.275,250.033z M106.976,241.568
			c1.253,0,2.486,0.319,3.585,0.931c4.155,2.312,8.863,3.534,13.617,3.534h13.098c1.368,0,2.722-0.354,3.914-1.022l6.629-3.718
			c0.631-0.354,1.022-1.022,1.022-1.745v-26.451c0-0.725-0.394-1.395-1.027-1.748l-6.715-3.737c-1.188-0.661-2.532-1.01-3.891-1.01
			h-13.03c-4.754,0-9.462,1.222-13.616,3.534c-1.195,0.666-2.535,0.99-3.911,0.926l-62.354-2.719
			c-8.136-0.338-15.502,4.814-17.945,12.569c-1.114,3.537-1.114,7.276,0,10.813c2.442,7.754,9.808,12.912,17.945,12.569
			l62.357-2.719C106.761,241.571,106.868,241.568,106.976,241.568z"/>
	</g>
	<g>
		<path class="st0" d="M156.495,121.332l-4.04,6.906c-1.366,2.335-0.832,5.316,1.259,7.032l0,0c2.029,1.665,4.952,1.665,6.981,0l0,0
			c2.091-1.716,2.624-4.697,1.259-7.032l-4.04-6.906C157.596,120.789,156.812,120.789,156.495,121.332z"/>
	</g>
	<g>
		<path class="st4" d="M225.491,223.492h-47.18c-3.86,0-6.99-3.129-6.99-6.99v-64.42c0-3.86,3.129-6.99,6.99-6.99h47.18
			c3.86,0,6.99,3.129,6.99,6.99v64.42C232.481,220.363,229.351,223.492,225.491,223.492z"/>
	</g>
	<g>
		<path class="st6" d="M217.354,204.987c-1.341,0-2.683-0.512-3.706-1.535l-30.905-30.905c-2.048-2.047-2.048-5.366,0-7.414
			c2.046-2.047,5.367-2.047,7.413,0l30.905,30.905c2.048,2.047,2.048,5.366,0,7.414
			C220.038,204.475,218.695,204.987,217.354,204.987z"/>
	</g>
	<g>
		<path class="st6" d="M186.449,204.987c-1.341,0-2.683-0.512-3.706-1.535c-2.048-2.047-2.048-5.366,0-7.414l30.905-30.905
			c2.046-2.047,5.367-2.047,7.413,0c2.048,2.047,2.048,5.366,0,7.414l-30.905,30.905
			C189.132,204.475,187.79,204.987,186.449,204.987z"/>
	</g>
	<g>
		<rect x="196.901" y="223.492" class="st0" width="10" height="20"/>
	</g>
	<g>
		<path class="st1" d="M225.491,225.492h-47.18c-4.957,0-8.989-4.033-8.989-8.99v-64.42c0-4.957,4.032-8.99,8.989-8.99h47.18
			c4.957,0,8.989,4.033,8.989,8.99v64.42C234.48,221.459,230.448,225.492,225.491,225.492z M178.312,147.092
			c-2.751,0-4.989,2.238-4.989,4.99v64.42c0,2.751,2.238,4.99,4.989,4.99h47.18c2.751,0,4.989-2.238,4.989-4.99v-64.42
			c0-2.751-2.238-4.99-4.989-4.99H178.312z"/>
	</g>
	<g>
		<path class="st1" d="M206.901,245.492h-10c-1.104,0-2-0.896-2-2v-20c0-1.104,0.896-2,2-2h10c1.104,0,2,0.896,2,2v20
			C208.901,244.597,208.006,245.492,206.901,245.492z M198.901,241.492h6v-16h-6V241.492z"/>
	</g>
	<g>
		<path class="st1" d="M120.907,170.773c-26.073,0-48.498-17.19-55.113-42.01c-4.716,0.053-9.356-1.65-12.885-4.825
			c-3.92-3.527-6.168-8.559-6.168-13.806c0-5.022,1.984-9.733,5.588-13.264c3.145-3.082,7.187-4.921,11.548-5.29v-3.218
			c0-31.173,25.584-56.534,57.03-56.534s57.029,25.361,57.029,56.534v3.218c4.361,0.369,8.402,2.208,11.548,5.291
			c3.604,3.531,5.588,8.241,5.588,13.264c0,5.247-2.247,10.279-6.166,13.805c-3.53,3.175-8.177,4.876-12.887,4.826
			C169.403,153.583,146.979,170.773,120.907,170.773z M67.333,124.67c0.917,0,1.73,0.631,1.945,1.542
			c5.62,23.882,26.852,40.561,51.629,40.561c24.776,0,46.007-16.679,51.628-40.561c0.231-0.981,1.163-1.641,2.157-1.531
			c4.208,0.444,8.416-0.909,11.538-3.718c3.077-2.769,4.842-6.717,4.842-10.832c0-3.938-1.558-7.634-4.388-10.407
			c-2.855-2.799-6.662-4.286-10.707-4.213c-0.526,0.008-1.057-0.195-1.44-0.571c-0.384-0.376-0.601-0.891-0.601-1.429v-5.153
			c0-28.967-23.789-52.534-53.029-52.534c-29.241,0-53.03,23.566-53.03,52.534v5.153c0,0.538-0.217,1.052-0.601,1.429
			c-0.384,0.375-0.924,0.583-1.44,0.571c-4.082-0.077-7.852,1.415-10.707,4.213c-2.829,2.772-4.388,6.468-4.388,10.407
			c0,4.115,1.766,8.063,4.843,10.833c3.121,2.808,7.33,4.162,11.537,3.717C67.191,124.673,67.263,124.67,67.333,124.67z"/>
	</g>
	<g>
		<path class="st2" d="M72.483,23.233C64.616,32.989,54.05,39.37,42.298,40.481c-2.1,0.198-3.683,2.002-3.683,4.111v3.971
			c0,22.867,18.537,41.404,41.404,41.404h61.537c22.072,0,39.965-17.893,39.965-39.965v0c0-23.215-18.82-42.035-42.035-42.035
			l-34.9,0C92.133,7.967,80.3,13.54,72.483,23.233z"/>
	</g>
	<g>
		<path class="st1" d="M141.556,91.967H80.019c-23.933,0-43.403-19.471-43.403-43.404v-3.971c0-3.183,2.362-5.806,5.494-6.103
			c10.821-1.022,21.055-6.886,28.817-16.511c8.204-10.175,20.473-16.011,33.659-16.011h34.899c24.281,0,44.035,19.754,44.035,44.035
			C183.521,73.142,164.695,91.967,141.556,91.967z M104.586,9.967c-11.971,0-23.104,5.293-30.546,14.522l0,0
			C65.596,34.96,54.389,41.347,42.486,42.472c-1.049,0.099-1.871,1.03-1.871,2.12v3.971c0,21.728,17.676,39.404,39.403,39.404
			h61.537c20.934,0,37.965-17.031,37.965-37.965c0-22.076-17.96-40.035-40.035-40.035H104.586z M72.483,23.233h0.01H72.483z"/>
	</g>
</g>
</svg>
