<?xml version="1.0" encoding="utf-8"?>
<!-- Generator: Adobe Illustrator 22.1.0, SVG Export Plug-In . SVG Version: 6.00 Build 0)  -->
<svg version="1.1" id="Layer_1" xmlns="http://www.w3.org/2000/svg" xmlns:xlink="http://www.w3.org/1999/xlink" x="0px" y="0px"
	 viewBox="0 0 256 256" style="enable-background:new 0 0 256 256;" xml:space="preserve">
<style type="text/css">
	.st0{fill:#E0EBFC;}
	.st1{fill:#3762CC;}
	.st2{fill:#4671C6;}
	.st3{fill:#6BDDDD;}
	.st4{fill:#F9A7A7;}
	.st5{fill:#A4C9FF;}
	.st6{fill:#FFEA92;}
	.st7{fill:#F9CFCF;}
	.st8{fill:#FFE164;}
	.st9{fill:#FFDC85;}
	.st10{fill:#FFEA94;}
	.st11{fill:#B9BEFC;}
	.st12{fill:#EAA97D;}
</style>
<g>
	<g>
		<path class="st0" d="M213.818,248H42.182c-4.82,0-8.727-3.907-8.727-8.727V16.727c0-4.82,3.907-8.727,8.727-8.727h171.636
			c4.82,0,8.727,3.907,8.727,8.727v222.545C222.545,244.093,218.638,248,213.818,248z"/>
	</g>
	<g>
		<path class="st1" d="M213.818,250H42.182c-5.915,0-10.727-4.812-10.727-10.727V16.727C31.455,10.812,36.267,6,42.182,6h171.637
			c5.915,0,10.728,4.812,10.728,10.727v222.546C224.546,245.188,219.733,250,213.818,250z M42.182,10
			c-3.709,0-6.727,3.018-6.727,6.727v222.546c0,3.709,3.018,6.727,6.727,6.727h171.637c3.71,0,6.728-3.018,6.728-6.727V16.727
			c0-3.709-3.018-6.727-6.728-6.727H42.182z"/>
	</g>
	<g>
		<path class="st5" d="M197.301,98.543H58.699c-3.199,0-5.793-2.593-5.793-5.793v0c0-3.199,2.593-5.793,5.793-5.793h138.602
			c3.199,0,5.793,2.593,5.793,5.793v0C203.093,95.949,200.5,98.543,197.301,98.543z"/>
	</g>
	<g>
		<path class="st5" d="M73.907,127.75h-12c-1.657,0-3-1.343-3-3v-12c0-1.657,1.343-3,3-3h12c1.657,0,3,1.343,3,3v12
			C76.907,126.407,75.563,127.75,73.907,127.75z"/>
	</g>
	<g>
		<path class="st5" d="M197.301,154H58.699c-3.199,0-5.793-2.593-5.793-5.793v0c0-3.199,2.593-5.793,5.793-5.793h138.602
			c3.199,0,5.793,2.593,5.793,5.793v0C203.093,151.407,200.5,154,197.301,154z"/>
	</g>
	<g>
		<path class="st5" d="M197.301,206H58.699c-3.199,0-5.793-2.593-5.793-5.793v0c0-3.199,2.593-5.793,5.793-5.793h138.602
			c3.199,0,5.793,2.593,5.793,5.793v0C203.093,203.407,200.5,206,197.301,206z"/>
	</g>
	<g>
		<path class="st5" d="M197.301,232H58.699c-3.199,0-5.793-2.593-5.793-5.793v0c0-3.199,2.593-5.793,5.793-5.793h138.602
			c3.199,0,5.793,2.593,5.793,5.793v0C203.093,229.407,200.5,232,197.301,232z"/>
	</g>
	<g>
		<path class="st5" d="M133.907,127.75h-12c-1.657,0-3-1.343-3-3v-12c0-1.657,1.343-3,3-3h12c1.657,0,3,1.343,3,3v12
			C136.907,126.407,135.563,127.75,133.907,127.75z"/>
	</g>
	<g>
		<path class="st5" d="M193.907,127.917h-12c-1.657,0-3-1.343-3-3v-12c0-1.657,1.343-3,3-3h12c1.657,0,3,1.343,3,3v12
			C196.907,126.574,195.563,127.917,193.907,127.917z"/>
	</g>
	<g>
		<path class="st5" d="M73.907,183.207h-12c-1.657,0-3-1.343-3-3v-12c0-1.657,1.343-3,3-3h12c1.657,0,3,1.343,3,3v12
			C76.907,181.864,75.563,183.207,73.907,183.207z"/>
	</g>
	<g>
		<path class="st5" d="M133.907,183.207h-12c-1.657,0-3-1.343-3-3v-12c0-1.657,1.343-3,3-3h12c1.657,0,3,1.343,3,3v12
			C136.907,181.864,135.563,183.207,133.907,183.207z"/>
	</g>
	<g>
		<path class="st5" d="M193.907,183.207h-12c-1.657,0-3-1.343-3-3v-12c0-1.657,1.343-3,3-3h12c1.657,0,3,1.343,3,3v12
			C196.907,181.864,195.563,183.207,193.907,183.207z"/>
	</g>
	<g>
		<path class="st7" d="M126.923,125.313c-0.005,0-0.009,0-0.013,0c-1.324-0.004-2.571-0.651-3.336-1.73l-5.629-7.928
			c-0.875-1.233-0.586-2.942,0.648-3.818c1.234-0.876,2.943-0.584,3.818,0.648l4.52,6.366l11.822-16.435
			c0.883-1.228,2.594-1.507,3.822-0.624c1.227,0.883,1.507,2.594,0.624,3.822l-12.941,17.991
			C129.487,124.675,128.241,125.313,126.923,125.313z"/>
	</g>
	<g>
		<path class="st7" d="M126.923,180.771c-0.005,0-0.009,0-0.013,0c-1.324-0.004-2.571-0.651-3.336-1.73l-5.629-7.928
			c-0.875-1.233-0.586-2.942,0.648-3.818c1.234-0.876,2.943-0.584,3.818,0.648l4.52,6.366l11.822-16.435
			c0.883-1.228,2.594-1.507,3.822-0.624c1.227,0.883,1.507,2.594,0.624,3.822l-12.941,17.991
			C129.487,180.132,128.241,180.771,126.923,180.771z"/>
	</g>
	<g>
		<path class="st4" d="M174.001,53.941H160.1c-1.66,4.458-2.435,6.746-3.266,7.849c-1.413,1.875-5.528,0.684-5.528-2.228
			c0-1,0.347-1.899,1.003-3.522c10.643-27.019,10.22-26.971,12.327-28.164c1.408-0.798,4.666-1.056,6.367,1.411
			c0.716,1.04,1.015,1.803,2.041,4.502c9.701,23.96,9.983,24.264,9.983,25.727c0,1.508-1.409,3.172-3.382,3.172
			C177.01,62.688,176.582,60.725,174.001,53.941z M161.919,48.74h10.216l-5.155-14.111L161.919,48.74z"/>
	</g>
	<g>
		<path class="st4" d="M184.554,44.309v-3.81h-3.841c-1.077,0-1.95-0.873-1.95-1.95v-0.061c0-1.077,0.873-1.95,1.95-1.95h3.841
			v-3.841c0-2.594,3.901-2.598,3.901,0v3.841h3.871c1.077,0,1.95,0.873,1.95,1.95v0.061c0,1.077-0.873,1.95-1.95,1.95h-3.871v3.81
			C188.455,46.903,184.554,46.907,184.554,44.309z"/>
	</g>
	<g>
		<path class="st4" d="M148.801,70.835c-6.233-6.233-9.666-14.521-9.666-23.335c0-10.624,4.986-20.158,13.052-26.293
			c2.63-1.999,5.659,1.977,3.027,3.979c-21.488,16.35-9.567,50.313,16.92,50.313c25.004,0,37.287-30.309,19.799-47.799
			c-4.354-4.353-9.869-7.097-15.95-7.936c-1.368-0.189-2.323-1.451-2.135-2.818c0.189-1.367,1.448-2.324,2.818-2.135
			c26.297,3.629,37.538,35.215,20.048,54.708C184.006,83.684,162.154,84.187,148.801,70.835z"/>
	</g>
	<g>
		<path class="st5" d="M119.608,40.521H58.049c-2.84,0-5.142-2.302-5.142-5.142v0c0-2.84,2.302-5.142,5.142-5.142h61.559
			c2.84,0,5.142,2.302,5.142,5.142v0C124.75,38.219,122.448,40.521,119.608,40.521z"/>
	</g>
	<g>
		<path class="st5" d="M119.608,58.275H58.049c-2.84,0-5.142-2.302-5.142-5.142v0c0-2.84,2.302-5.142,5.142-5.142h61.559
			c2.84,0,5.142,2.302,5.142,5.142v0C124.75,55.973,122.448,58.275,119.608,58.275z"/>
	</g>
</g>
</svg>
