<?xml version="1.0" encoding="utf-8"?>
<!-- Generator: Adobe Illustrator 22.1.0, SVG Export Plug-In . SVG Version: 6.00 Build 0)  -->
<svg version="1.1" id="Layer_1" xmlns="http://www.w3.org/2000/svg" xmlns:xlink="http://www.w3.org/1999/xlink" x="0px" y="0px"
	 viewBox="0 0 256 256" style="enable-background:new 0 0 256 256;" xml:space="preserve">
<style type="text/css">
	.st0{fill:#E0EBFC;}
	.st1{fill:#3762CC;}
	.st2{fill:#4671C6;}
	.st3{fill:#6BDDDD;}
	.st4{fill:#F9A7A7;}
	.st5{fill:#A4C9FF;}
	.st6{fill:#FFEA92;}
	.st7{fill:#F9CFCF;}
	.st8{fill:#FFE164;}
	.st9{fill:#FFDC85;}
	.st10{fill:#FFEA94;}
	.st11{fill:#B9BEFC;}
	.st12{fill:#EAA97D;}
</style>
<g>
	<g>
		<path class="st4" d="M141.634,195.027h-44.89c-1.617,0-2.928-1.311-2.928-2.928V154.04c0-1.617,1.311-2.928,2.928-2.928h44.89
			c1.617,0,2.928,1.311,2.928,2.928v38.059C144.562,193.716,143.251,195.027,141.634,195.027z"/>
	</g>
	<g>
		<path class="st4" d="M141.634,195.027l-22.822,0l7.131,26.612c0.236,0.879,1.44,0.986,1.826,0.162l5.872-12.523
			c0.257-0.548,0.945-0.732,1.442-0.386l11.347,7.909c0.747,0.52,1.736-0.174,1.501-1.053l-5.579-20.82
			C142.121,194.986,141.883,195.027,141.634,195.027z"/>
	</g>
	<g>
		<path class="st4" d="M96.744,195.027c-0.265,0-0.517-0.047-0.761-0.112l-5.56,20.748c-0.236,0.879,0.754,1.574,1.501,1.053
			l11.347-7.909c0.496-0.346,1.185-0.161,1.442,0.386l5.872,12.524c0.386,0.824,1.591,0.717,1.826-0.162l7.108-26.528
			L96.744,195.027z"/>
	</g>
	<g>
		<path class="st0" d="M212.594,149.413l-68.103,3.998c0.045,0.203,0.072,0.413,0.072,0.629l0,38.059
			c0,0.216-0.027,0.426-0.072,0.629l68.103,3.998c6.726,0.395,12.397-4.953,12.397-11.69l0-23.933
			C224.991,154.366,219.32,149.018,212.594,149.413z"/>
	</g>
	<g>
		<path class="st1" d="M126.896,224.363c-0.09,0-0.181-0.004-0.271-0.012c-1.26-0.111-2.285-0.972-2.613-2.193l-7.13-26.614
			c-0.161-0.601-0.033-1.242,0.345-1.735c0.379-0.493,0.965-0.782,1.587-0.782h22.821c0.052,0,0.129-0.013,0.228-0.038
			c1.064-0.271,2.14,0.365,2.423,1.421l5.578,20.82c0.328,1.22-0.129,2.479-1.164,3.206c-1.034,0.726-2.374,0.73-3.412,0.005
			l-10.35-7.213l-5.356,11.423C129.082,223.712,128.048,224.363,126.896,224.363z M121.419,197.027l5.729,21.387l4.683-9.985
			c0.373-0.796,1.075-1.384,1.925-1.611c0.846-0.227,1.75-0.069,2.472,0.434l9.046,6.305l-4.429-16.529H121.419z"/>
	</g>
	<g>
		<path class="st1" d="M111.459,224.278c-1.152,0-2.188-0.652-2.685-1.714l-5.356-11.421l-10.351,7.214
			c-1.036,0.723-2.375,0.72-3.409-0.005c-1.036-0.726-1.493-1.985-1.166-3.206l5.56-20.749c0.138-0.513,0.473-0.95,0.934-1.215
			c0.459-0.266,1.006-0.335,1.52-0.198c0.105,0.028,0.187,0.043,0.239,0.043h22.775c0.622,0,1.208,0.289,1.587,0.782
			c0.378,0.494,0.506,1.135,0.345,1.735l-7.107,26.528c-0.327,1.222-1.353,2.083-2.613,2.194
			C111.64,224.274,111.549,224.278,111.459,224.278z M103.827,206.631c0.258,0,0.518,0.033,0.772,0.102
			c0.849,0.228,1.551,0.814,1.924,1.61l4.683,9.985l5.707-21.301H97.488l-4.406,16.444l9.046-6.305
			C102.633,206.814,103.226,206.631,103.827,206.631z"/>
	</g>
	<g>
		<path class="st1" d="M213.307,198.748c-0.275,0-0.552-0.008-0.83-0.024l-68.104-3.998c-0.585-0.034-1.125-0.323-1.479-0.791
			c-0.353-0.467-0.483-1.066-0.357-1.638c0.017-0.074,0.024-0.138,0.024-0.197v-38.06c0-0.059-0.008-0.124-0.024-0.197
			c-0.126-0.572,0.005-1.17,0.357-1.638c0.354-0.467,0.894-0.756,1.479-0.791l68.104-3.998c3.804-0.218,7.435,1.095,10.209,3.712
			c2.776,2.617,4.305,6.16,4.305,9.975v23.933c0,3.815-1.528,7.358-4.305,9.975C220.113,197.438,216.809,198.748,213.307,198.748z
			 M146.562,190.847l66.149,3.883c2.687,0.156,5.265-0.775,7.23-2.629c1.966-1.854,3.049-4.363,3.049-7.065v-23.933
			c0-2.702-1.083-5.211-3.049-7.065c-1.966-1.854-4.532-2.79-7.23-2.629l0,0l-66.149,3.883V190.847z M212.594,149.413h0.01H212.594z
			"/>
	</g>
	<g>
		<rect x="107.385" y="151.112" class="st7" width="23.609" height="43.915"/>
	</g>
	<g>
		<path class="st1" d="M141.634,197.027h-44.89c-2.717,0-4.928-2.21-4.928-4.928V154.04c0-2.717,2.211-4.928,4.928-4.928h44.89
			c2.717,0,4.928,2.21,4.928,4.928v38.059C146.562,194.816,144.351,197.027,141.634,197.027z M96.744,153.112
			c-0.512,0-0.928,0.416-0.928,0.928v38.059c0,0.512,0.416,0.928,0.928,0.928h44.89c0.512,0,0.928-0.416,0.928-0.928V154.04
			c0-0.512-0.416-0.928-0.928-0.928H96.744z"/>
	</g>
	<g>
		<path class="st0" d="M25.784,196.726l68.103-3.998c-0.045-0.203-0.072-0.413-0.072-0.629l0-38.059
			c0-0.216,0.027-0.426,0.072-0.629l-68.103-3.998c-6.726-0.395-12.397,4.953-12.397,11.69l0,23.933
			C13.387,191.773,19.059,197.121,25.784,196.726z"/>
	</g>
	<g>
		<path class="st1" d="M25.072,198.748c-3.504,0-6.808-1.31-9.381-3.737c-2.775-2.617-4.304-6.16-4.304-9.975v-23.933
			c0-3.815,1.528-7.357,4.304-9.975c2.776-2.617,6.408-3.928,10.21-3.712l68.104,3.999c0.585,0.034,1.125,0.323,1.479,0.791
			c0.353,0.467,0.483,1.066,0.357,1.638c-0.017,0.074-0.024,0.138-0.024,0.197v38.06c0,0.059,0.008,0.124,0.024,0.197
			c0.126,0.572-0.005,1.17-0.357,1.638c-0.354,0.467-0.894,0.756-1.479,0.791l-68.104,3.998l0,0
			C25.624,198.739,25.347,198.748,25.072,198.748z M25.784,196.727h0.01H25.784z M25.079,151.392c-2.48,0-4.82,0.928-6.644,2.646
			c-1.965,1.854-3.048,4.363-3.048,7.064v23.933c0,2.702,1.083,5.211,3.048,7.064c1.966,1.854,4.526,2.79,7.231,2.629l66.149-3.883
			v-35.554l-66.149-3.884C25.471,151.397,25.274,151.392,25.079,151.392z"/>
	</g>
	<g>
		<path class="st6" d="M239.729,144.358c0-22.655,0-38.992,0-60.597c-0.02,0.008-0.036,0.019-0.057,0.027l-4.75,1.825
			c0,15.219,0,45.585,0,58.745c-1.71,0.875-2.883,2.652-2.883,4.705v12.656h10.573v-12.656
			C242.613,147.01,241.439,145.234,239.729,144.358z"/>
	</g>
	<g>
		<path class="st2" d="M121.424,34.857L16.328,75.23c-3.92,1.506-3.92,7.052,0,8.558l105.097,40.373
			c4.233,1.626,8.918,1.626,13.151,0l105.097-40.373c3.92-1.506,3.92-7.052,0-8.558L134.575,34.857
			C130.343,33.231,125.657,33.231,121.424,34.857z"/>
	</g>
	<g>
		<path class="st1" d="M128,127.383c-2.471,0-4.941-0.451-7.292-1.354L15.611,85.655c-2.566-0.985-4.224-3.398-4.224-6.146
			c0-2.748,1.657-5.161,4.224-6.146l105.097-40.374c4.701-1.806,9.883-1.806,14.584,0l105.097,40.374
			c2.566,0.985,4.224,3.398,4.224,6.146c0,2.749-1.657,5.161-4.224,6.146l-105.097,40.374
			C132.941,126.932,130.471,127.383,128,127.383z M122.142,36.724L17.045,77.097c-1.538,0.591-1.657,1.996-1.657,2.412
			c0,0.417,0.119,1.821,1.657,2.412l105.097,40.374c3.779,1.452,7.938,1.452,11.717,0l105.097-40.374
			c1.538-0.591,1.657-1.996,1.657-2.412c0-0.416-0.119-1.821-1.657-2.412L133.858,36.724
			C130.079,35.272,125.921,35.272,122.142,36.724L122.142,36.724z M121.425,34.856h0.01H121.425z"/>
	</g>
	<g>
		<path class="st2" d="M192.622,86.555H63.814c-1.178,0-2.133,0.955-2.133,2.133v31.803c0,7.02,29.789,12.711,66.536,12.711
			c36.747,0,66.536-5.691,66.536-12.711h0.001V88.688C194.755,87.51,193.8,86.555,192.622,86.555z"/>
	</g>
	<g>
		<path class="st1" d="M128.217,135.202c-23.705,0-68.535-3.075-68.535-14.711V88.688c0-2.279,1.854-4.133,4.133-4.133h128.808
			c2.279,0,4.133,1.854,4.133,4.133v31.803C196.752,132.127,151.921,135.202,128.217,135.202z M63.814,88.555
			c-0.073,0-0.133,0.06-0.133,0.133v31.803c0,1.004,3.209,4.224,17.863,7.023c12.446,2.378,29.021,3.688,46.672,3.688
			s34.226-1.31,46.673-3.688c14.654-2.799,17.863-6.019,17.863-7.023l0.002-31.803c0-0.074-0.06-0.133-0.133-0.133H63.814z"/>
	</g>
</g>
</svg>
