<?xml version="1.0" encoding="utf-8"?>
<!-- Generator: Adobe Illustrator 22.1.0, SVG Export Plug-In . SVG Version: 6.00 Build 0)  -->
<svg version="1.1" id="Layer_1" xmlns="http://www.w3.org/2000/svg" xmlns:xlink="http://www.w3.org/1999/xlink" x="0px" y="0px"
	 viewBox="0 0 256 256" style="enable-background:new 0 0 256 256;" xml:space="preserve">
<style type="text/css">
	.st0{fill:#E0EBFC;}
	.st1{fill:#3762CC;}
	.st2{fill:#4671C6;}
	.st3{fill:#6BDDDD;}
	.st4{fill:#F9A7A7;}
	.st5{fill:#A4C9FF;}
	.st6{fill:#FFEA92;}
	.st7{fill:#F9CFCF;}
	.st8{fill:#FFE164;}
	.st9{fill:#FFDC85;}
	.st10{fill:#FFEA94;}
	.st11{fill:#B9BEFC;}
	.st12{fill:#EAA97D;}
</style>
<g>
	<g>
		<path class="st3" d="M212.953,216.598H72.766l0,0H46.411c-4.955,0-8.972,4.017-8.972,8.972l0,0v13.458
			c0,4.955,4.017,8.972,8.972,8.972h166.542c3.097,0,5.607-2.511,5.607-5.608c0-13.314,0-17.018,0-31.402
			C218.561,214.087,216.05,216.598,212.953,216.598z"/>
	</g>
	<g>
		<path class="st1" d="M212.953,250H46.411c-6.05,0-10.972-4.922-10.972-10.972V225.57c0-6.05,4.922-10.972,10.972-10.972h166.542
			c1.989,0,3.607-1.618,3.607-3.607c0-1.104,0.896-2,2-2s2,0.896,2,2v31.401C220.561,246.587,217.148,250,212.953,250z
			 M46.411,218.598c-3.844,0-6.972,3.128-6.972,6.972v13.458c0,3.844,3.127,6.972,6.972,6.972h166.542
			c1.989,0,3.607-1.619,3.607-3.608v-24.705c-1.074,0.581-2.303,0.911-3.607,0.911H46.411z"/>
	</g>
	<g>
		<path class="st0" d="M72.766,216.598H46.411c-4.955,0-8.972,4.017-8.972,8.972v4.486c0,4.955,4.017,8.972,8.972,8.972h162.617
			v-22.43H72.766z"/>
	</g>
	<g>
		<path class="st3" d="M212.953,216.598H72.766V8h140.187c3.097,0,5.607,2.511,5.607,5.607v197.383
			C218.561,214.088,216.05,216.598,212.953,216.598z"/>
	</g>
	<g>
		<path class="st2" d="M46.411,216.598h26.355V8H46.411c-4.955,0-8.972,4.017-8.972,8.972V225.57
			C37.439,220.615,41.456,216.598,46.411,216.598z"/>
	</g>
	<g>
		<path class="st1" d="M212.953,218.598H72.767c-1.104,0-2-0.896-2-2V8c0-1.104,0.896-2,2-2h140.187
			c4.195,0,7.607,3.413,7.607,7.607v197.383C220.561,215.186,217.148,218.598,212.953,218.598z M74.767,214.598h138.187
			c1.989,0,3.607-1.618,3.607-3.607V13.607c0-1.989-1.618-3.607-3.607-3.607H74.767V214.598z"/>
	</g>
	<g>
		<path class="st1" d="M37.439,227.57c-1.104,0-2-0.896-2-2V16.972C35.439,10.922,40.361,6,46.411,6h26.355c1.104,0,2,0.896,2,2
			v208.598c0,1.104-0.896,2-2,2H46.411c-3.844,0-6.972,3.128-6.972,6.972C39.439,226.675,38.544,227.57,37.439,227.57z M46.411,10
			c-3.844,0-6.972,3.128-6.972,6.972v200.132c1.897-1.565,4.326-2.506,6.972-2.506h24.355V10H46.411z"/>
	</g>
	<g>
		<path class="st7" d="M198.383,118.07h-106c-3.314,0-6-2.686-6-6v-73c0-3.314,2.686-6,6-6h106c3.314,0,6,2.686,6,6v73
			C204.383,115.384,201.697,118.07,198.383,118.07z"/>
	</g>
	<g>
		<path class="st7" d="M196.131,157.346H94.636c-3.716,0-6.729-3.013-6.729-6.729v0c0-3.716,3.013-6.729,6.729-6.729h101.495
			c3.716,0,6.729,3.013,6.729,6.729v0C202.86,154.333,199.847,157.346,196.131,157.346z"/>
	</g>
	<g>
		<path class="st7" d="M196.131,183.346H94.636c-3.716,0-6.729-3.013-6.729-6.729v0c0-3.716,3.013-6.729,6.729-6.729h101.495
			c3.716,0,6.729,3.013,6.729,6.729v0C202.86,180.333,199.847,183.346,196.131,183.346z"/>
	</g>
	<g>
		<path class="st5" d="M62,239.028v-22.43l-15.589,0c-4.955,0-8.972,4.017-8.972,8.972v4.486c0,4.955,4.017,8.972,8.972,8.972
			L62,239.028z"/>
	</g>
	<g>
		<path class="st1" d="M209.028,241.028H46.411c-6.05,0-10.972-4.922-10.972-10.972v-4.486c0-6.05,4.922-10.972,10.972-10.972
			h162.617c1.104,0,2,0.896,2,2v22.43C211.028,240.132,210.132,241.028,209.028,241.028z M46.411,218.598
			c-3.844,0-6.972,3.128-6.972,6.972v4.486c0,3.844,3.127,6.972,6.972,6.972h160.617v-18.43H46.411z"/>
	</g>
	<g>
		<path class="st4" d="M125.445,90.883l-1.852-4.868h-15.77l-1.852,4.974c-0.724,1.941-1.341,3.25-1.852,3.929
			c-0.512,0.679-1.349,1.019-2.514,1.019c-0.988,0-1.861-0.362-2.619-1.085c-0.759-0.723-1.138-1.543-1.138-2.461
			c0-0.529,0.088-1.076,0.265-1.64c0.176-0.564,0.467-1.349,0.873-2.355l9.922-25.189c0.282-0.723,0.622-1.592,1.019-2.606
			c0.397-1.014,0.82-1.856,1.27-2.527c0.45-0.67,1.04-1.212,1.773-1.627c0.732-0.414,1.636-0.622,2.712-0.622
			c1.093,0,2.006,0.208,2.738,0.622c0.731,0.415,1.323,0.948,1.773,1.601c0.45,0.653,0.829,1.354,1.138,2.103
			c0.308,0.75,0.701,1.751,1.177,3.003l10.133,25.03c0.794,1.905,1.191,3.29,1.191,4.154c0,0.9-0.375,1.724-1.124,2.474
			c-0.75,0.749-1.654,1.125-2.712,1.125c-0.618,0-1.147-0.11-1.587-0.331c-0.441-0.221-0.812-0.52-1.111-0.9
			c-0.3-0.379-0.622-0.961-0.966-1.746C125.987,92.176,125.691,91.483,125.445,90.883z M109.887,80.114h11.589l-5.847-16.008
			L109.887,80.114z"/>
	</g>
	<g>
		<path class="st2" d="M161.195,86.708l20.689-24.755h-17.777c-1.246,0-2.185-0.275-2.816-0.824
			c-0.632-0.55-0.948-1.273-0.948-2.171c0-0.934,0.316-1.69,0.948-2.267c0.632-0.577,1.57-0.865,2.816-0.865h22.914
			c2.968,0,4.451,1.383,4.451,4.149c0,1.319-0.248,2.372-0.742,3.16c-0.495,0.788-1.493,2.061-2.995,3.819l-19.343,23.025h21.321
			c1.264,0,2.207,0.261,2.83,0.783c0.623,0.522,0.934,1.25,0.934,2.184c0,0.971-0.312,1.741-0.934,2.308
			c-0.623,0.568-1.566,0.852-2.83,0.852h-26.157c-1.777,0-3.114-0.398-4.011-1.195c-0.898-0.797-1.347-1.864-1.347-3.201
			c0-0.458,0.073-0.879,0.22-1.264c0.147-0.385,0.344-0.746,0.591-1.085c0.247-0.339,0.59-0.769,1.03-1.291
			C160.481,87.546,160.866,87.092,161.195,86.708z"/>
	</g>
	<g>
		<path class="st0" d="M151.383,78.57h-12c-1.657,0-3-1.343-3-3v0c0-1.657,1.343-3,3-3h12c1.657,0,3,1.343,3,3v0
			C154.383,77.227,153.04,78.57,151.383,78.57z"/>
	</g>
</g>
</svg>
