<?xml version="1.0" encoding="utf-8"?>
<!-- Generator: Adobe Illustrator 22.1.0, SVG Export Plug-In . SVG Version: 6.00 Build 0)  -->
<svg version="1.1" id="Layer_1" xmlns="http://www.w3.org/2000/svg" xmlns:xlink="http://www.w3.org/1999/xlink" x="0px" y="0px"
	 viewBox="0 0 256 256" style="enable-background:new 0 0 256 256;" xml:space="preserve">
<style type="text/css">
	.st0{fill:#E0EBFC;}
	.st1{fill:#3762CC;}
	.st2{fill:#4671C6;}
	.st3{fill:#6BDDDD;}
	.st4{fill:#F9A7A7;}
	.st5{fill:#A4C9FF;}
	.st6{fill:#FFEA92;}
	.st7{fill:#F9CFCF;}
	.st8{fill:#FFE164;}
	.st9{fill:#FFDC85;}
	.st10{fill:#FFEA94;}
	.st11{fill:#B9BEFC;}
	.st12{fill:#EAA97D;}
</style>
<g>
	<g>
		<path class="st2" d="M242.557,175.592L190.42,59.582v-0.004l-29.469-4.96H95.009l-29.467,4.959c-0.001,0-0.001,0-0.002,0
			l-0.001,0.001h0v0L13.443,175.5l-1.378,10.185c11.364,5.107,20.04,9.006,31.403,14.113l6.701-7.792l15.371-34.201v34.004
			c0,4.726,2.282,9.16,6.127,11.907h112.625c3.845-2.747,6.127-7.181,6.127-11.907v-34.001l15.41,34.29l6.701,7.792
			c20.626-9.27,15.38-6.912,31.404-14.113L242.557,175.592z"/>
	</g>
	<g>
		<path class="st0" d="M184.293,203.716H71.667v9.045c0,1.934,1.568,3.501,3.501,3.501h105.623c1.934,0,3.501-1.568,3.501-3.501
			V203.716z"/>
	</g>
	<g>
		<rect x="123.98" y="54.618" class="st0" width="8" height="149.097"/>
	</g>
	<g>
		<path class="st0" d="M43.469,199.798l-31.403-14.113l-3.834,8.53c-0.595,1.323-0.004,2.877,1.319,3.472l26.613,11.96
			c1.323,0.595,2.877,0.004,3.472-1.319L43.469,199.798z"/>
	</g>
	<g>
		
			<rect x="23.812" y="180.989" transform="matrix(0.4099 -0.9121 0.9121 0.4099 -165.85 140.0436)" class="st2" width="3" height="34.429"/>
	</g>
	<g>
		<path class="st0" d="M212.531,199.89l31.403-14.113l3.834,8.53c0.594,1.323,0.004,2.877-1.319,3.472l-26.613,11.96
			c-1.323,0.595-2.877,0.004-3.472-1.319L212.531,199.89z"/>
	</g>
	<g>
		
			<rect x="213.474" y="196.796" transform="matrix(0.9122 -0.4099 0.4099 0.9122 -61.0062 111.9673)" class="st2" width="34.429" height="3"/>
	</g>
	<g>
		<rect x="71.667" y="208.489" class="st2" width="112.625" height="3"/>
	</g>
	<g>
		<path class="st3" d="M179.565,177.755l-3.79,2.188c-0.837,0.483-1.908,0.197-2.391-0.641l-16.061-27.818
			c-0.483-0.837-0.197-1.908,0.641-2.391l3.79-2.188c0.837-0.483,1.908-0.197,2.391,0.641l16.061,27.818
			C180.689,176.201,180.402,177.272,179.565,177.755z"/>
	</g>
	<g>
		<path class="st3" d="M76.396,177.755l3.79,2.188c0.837,0.483,1.908,0.197,2.391-0.641l16.055-27.807
			c0.483-0.837,0.197-1.908-0.641-2.391l-3.79-2.188c-0.837-0.483-1.908-0.197-2.391,0.641l-16.055,27.807
			C75.271,176.201,75.558,177.272,76.396,177.755z"/>
	</g>
	<g>
		<circle class="st2" cx="127.98" cy="76.502" r="3.501"/>
	</g>
	<g>
		<circle class="st2" cx="127.98" cy="111.515" r="3.501"/>
	</g>
	<g>
		<circle class="st2" cx="127.98" cy="146.528" r="3.501"/>
	</g>
	<g>
		<circle class="st2" cx="127.98" cy="181.541" r="3.501"/>
	</g>
	<g>
		<path class="st6" d="M152.145,83.52v18.739c0,0.751,0.36,1.457,0.967,1.899l10.447,7.593c0.823,0.598,1.938,0.598,2.76,0
			l10.447-7.593c0.608-0.442,0.967-1.148,0.967-1.899V83.52c0-0.595-0.482-1.077-1.077-1.077h-23.436
			C152.627,82.443,152.145,82.926,152.145,83.52z"/>
	</g>
	<g>
		<path class="st3" d="M155.343,101.351V86.704c0-0.532,0.431-0.963,0.963-0.963h17.269c0.532,0,0.963,0.431,0.963,0.963v14.647
			c0,0.308-0.148,0.598-0.397,0.779l-8.634,6.275c-0.338,0.245-0.795,0.245-1.132,0l-8.634-6.275
			C155.49,101.948,155.343,101.659,155.343,101.351z"/>
	</g>
	<g>
		<path class="st6" d="M158.873,89.625c0-2.45,2.922-2.364,2.922,0c0,7.719-0.789,10.825,3.159,10.825
			c3.899,0,3.129-3.078,3.129-10.825c0-2.406,2.922-2.411,2.922,0c0,7.165,1.214,13.147-5.845,13.147
			C157.62,102.772,158.873,97.62,158.873,89.625z"/>
	</g>
	<g>
		<path class="st1" d="M184.293,205.716H71.667c-0.417,0-0.823-0.13-1.162-0.372c-4.361-3.115-6.965-8.175-6.965-13.534V59.578
			c0-0.977,0.705-1.811,1.668-1.973l29.469-4.96c0.11-0.018,0.221-0.027,0.332-0.027h65.942c0.111,0,0.223,0.01,0.332,0.027
			l29.469,4.96c0.963,0.162,1.668,0.996,1.668,1.973V191.81c0,5.359-2.604,10.419-6.965,13.534
			C185.116,205.586,184.71,205.716,184.293,205.716z M72.334,201.716h111.292c3.013-2.385,4.794-6.043,4.794-9.906V61.27
			l-27.636-4.651H95.176L67.54,61.27v130.54C67.54,195.673,69.321,199.331,72.334,201.716z"/>
	</g>
	<g>
		<path class="st1" d="M180.791,218.262H75.169c-3.034,0-5.501-2.468-5.501-5.501v-9.045c0-1.104,0.896-2,2-2h112.625
			c1.104,0,2,0.896,2,2v9.045C186.293,215.794,183.825,218.262,180.791,218.262z M73.667,205.716v7.045
			c0,0.828,0.673,1.501,1.501,1.501h105.622c0.828,0,1.502-0.673,1.502-1.501v-7.045H73.667z"/>
	</g>
	<g>
		<path class="st1" d="M37.232,211.878c-0.632,0-1.275-0.131-1.888-0.406L8.73,199.511c-2.327-1.046-3.369-3.79-2.323-6.116
			l3.833-8.529c0.217-0.484,0.618-0.862,1.114-1.051s1.046-0.173,1.53,0.046l31.404,14.113c0.484,0.218,0.861,0.618,1.05,1.114
			s0.172,1.046-0.045,1.53l-3.834,8.53C40.69,210.86,39,211.878,37.232,211.878z M13.069,188.329l-3.014,6.705
			c-0.142,0.315,0,0.687,0.315,0.828l26.612,11.961c0.315,0.141,0.686-0.001,0.827-0.314l3.015-6.707L13.069,188.329z"/>
	</g>
	<g>
		<path class="st1" d="M218.769,211.969c-1.768,0-3.458-1.017-4.228-2.729l-3.834-8.53c-0.218-0.484-0.233-1.034-0.046-1.53
			c0.188-0.496,0.566-0.896,1.05-1.114l31.403-14.113c1.007-0.45,2.191-0.004,2.645,1.004l3.834,8.53
			c1.046,2.326,0.004,5.07-2.322,6.116l-26.613,11.961C220.043,211.839,219.4,211.969,218.769,211.969z M215.176,200.894
			l3.014,6.706c0.142,0.315,0.51,0.458,0.829,0.314l26.611-11.96c0.314-0.142,0.456-0.513,0.314-0.827l-3.014-6.706L215.176,200.894
			z"/>
	</g>
	<g>
		<path class="st1" d="M174.905,182.177c-1.297,0-2.561-0.672-3.254-1.874l-16.062-27.818c-0.501-0.867-0.634-1.878-0.374-2.846
			c0.259-0.968,0.88-1.776,1.747-2.276l3.79-2.189c1.791-1.032,4.09-0.418,5.123,1.373l16.062,27.817
			c0.501,0.868,0.634,1.879,0.375,2.846c-0.26,0.969-0.88,1.777-1.749,2.278l-3.789,2.188
			C176.186,182.016,175.541,182.177,174.905,182.177z M159.18,150.701l15.811,27.386l3.358-1.939l-15.812-27.386L159.18,150.701z
			 M178.565,176.022C178.564,176.022,178.564,176.022,178.565,176.022C178.564,176.022,178.564,176.022,178.565,176.022z"/>
	</g>
	<g>
		<path class="st1" d="M81.054,182.177c-0.636,0-1.279-0.161-1.868-0.501l-3.791-2.188c0,0,0-0.001,0-0.001
			c-1.79-1.033-2.406-3.332-1.373-5.122l16.055-27.808c0.5-0.868,1.31-1.488,2.278-1.748c0.968-0.259,1.979-0.125,2.846,0.376
			l3.79,2.187c0.868,0.501,1.489,1.311,1.748,2.278s0.126,1.979-0.375,2.846L84.31,180.303
			C83.615,181.505,82.352,182.177,81.054,182.177z M77.611,176.147l3.359,1.939l15.805-27.376l-3.358-1.938L77.611,176.147z
			 M77.396,176.023L77.396,176.023C77.396,176.023,77.396,176.023,77.396,176.023L77.396,176.023z"/>
	</g>
	<g>
		<path class="st1" d="M184.293,205.716H71.667c-0.417,0-0.823-0.13-1.162-0.372c-4.361-3.115-6.965-8.175-6.965-13.534v-24.676
			l-11.546,25.692c-0.079,0.175-0.183,0.338-0.308,0.483l-6.701,7.792c-0.579,0.673-1.527,0.882-2.336,0.521l-31.404-14.113
			c-0.808-0.363-1.281-1.215-1.162-2.093l1.378-10.185c0.026-0.19,0.079-0.376,0.158-0.552L63.716,58.759
			c0.274-0.608,0.836-1.042,1.495-1.153l29.466-4.96c0.11-0.018,0.221-0.027,0.332-0.027h65.942c0.111,0,0.223,0.01,0.332,0.027
			l29.469,4.96c0.706,0.119,1.273,0.6,1.526,1.232l52.103,115.935c0.079,0.176,0.132,0.361,0.157,0.552l1.378,10.184
			c0.119,0.878-0.354,1.729-1.161,2.093l-31.404,14.113c-0.808,0.361-1.757,0.152-2.336-0.521l-6.701-7.792
			c-0.125-0.146-0.229-0.309-0.308-0.483l-11.586-25.78v24.672c0,5.359-2.604,10.419-6.965,13.534
			C185.116,205.586,184.71,205.716,184.293,205.716z M72.334,201.716h111.292c3.013-2.385,4.794-6.043,4.794-9.906v-34.001
			c0-0.943,0.659-1.758,1.581-1.956c0.913-0.19,1.856,0.275,2.243,1.136l15.291,34.025l5.538,6.439l28.679-12.889l-1.139-8.416
			L189.032,61.373l-28.248-4.755H95.176l-28.252,4.756L15.386,176.056l-1.139,8.417l28.679,12.889l5.538-6.439l15.252-33.938
			c0.387-0.859,1.319-1.333,2.244-1.135c0.922,0.197,1.581,1.012,1.581,1.955v34.005C67.54,195.673,69.321,199.331,72.334,201.716z"
			/>
	</g>
	<g>
		<path class="st0" d="M95.009,54.618v-13.13c0-0.967,0.784-1.751,1.751-1.751h4.12c7.301,0,10.278,1.779,27.1,8.461v10.796
			L95.009,54.618z"/>
	</g>
	<g>
		<path class="st0" d="M160.951,54.618v-13.13c0-0.967-0.784-1.751-1.751-1.751h-4.12c-3.832,0-7.63,0.727-11.191,2.142
			l-15.909,6.32v10.796L160.951,54.618z"/>
	</g>
	<g>
		<path class="st2" d="M127.98,52.917c-15.562-6.183-19.468-8.453-32.971-9.292v2.995c7.893,0.641,14.1,1.065,32.971,9.555V52.917z"
			/>
	</g>
	<g>
		<path class="st2" d="M160.951,43.625c-13.425,0.833-17.182,3.019-32.97,9.292v3.257c18.813-8.467,25.08-8.915,32.97-9.556V43.625z
			"/>
	</g>
	<g>
		<path class="st1" d="M127.98,60.995c-0.087,0-0.175-0.006-0.263-0.018l-32.971-4.377c-0.994-0.132-1.737-0.979-1.737-1.982v-13.13
			c0-2.067,1.683-3.75,3.751-3.75h4.12c6.497,0,9.774,1.324,20.634,5.711c2.085,0.842,4.46,1.801,7.204,2.892
			c0.762,0.303,1.261,1.039,1.261,1.858v10.796c0,0.576-0.248,1.125-0.682,1.504C128.931,60.821,128.462,60.995,127.98,60.995z
			 M97.009,52.866l28.971,3.846v-7.156c-2.227-0.889-4.199-1.685-5.964-2.397c-10.575-4.271-13.417-5.42-19.136-5.42h-3.871V52.866z
			"/>
	</g>
	<g>
		<path class="st1" d="M127.98,60.995c-0.482,0-0.951-0.174-1.318-0.496c-0.434-0.379-0.682-0.928-0.682-1.504V48.199
			c0-0.819,0.5-1.556,1.262-1.858l15.909-6.32c3.813-1.515,7.827-2.282,11.93-2.282h4.12c2.068,0,3.751,1.683,3.751,3.75v13.13
			c0,1.003-0.743,1.851-1.736,1.982l-32.972,4.377C128.155,60.989,128.067,60.995,127.98,60.995z M129.979,49.557v7.155
			l28.972-3.846V41.738h-3.871c-3.595,0-7.111,0.673-10.453,1.999L129.979,49.557z M160.951,54.618h0.01H160.951z"/>
	</g>
</g>
</svg>
