<?xml version="1.0" encoding="utf-8"?>
<!-- Generator: Adobe Illustrator 22.1.0, SVG Export Plug-In . SVG Version: 6.00 Build 0)  -->
<svg version="1.1" id="Layer_1" xmlns="http://www.w3.org/2000/svg" xmlns:xlink="http://www.w3.org/1999/xlink" x="0px" y="0px"
	 viewBox="0 0 256 256" style="enable-background:new 0 0 256 256;" xml:space="preserve">
<style type="text/css">
	.st0{fill:#E0EBFC;}
	.st1{fill:#3762CC;}
	.st2{fill:#4671C6;}
	.st3{fill:#6BDDDD;}
	.st4{fill:#F9A7A7;}
	.st5{fill:#A4C9FF;}
	.st6{fill:#FFEA92;}
	.st7{fill:#F9CFCF;}
	.st8{fill:#FFE164;}
	.st9{fill:#FFDC85;}
	.st10{fill:#FFEA94;}
	.st11{fill:#B9BEFC;}
	.st12{fill:#EAA97D;}
</style>
<g>
	<g>
		<path class="st2" d="M48.201,124.089v-4.32c0-0.247,0.015-0.491,0.019-0.738c-5.609-2.039-10.549-5.474-14.386-9.897v6.396
			c0,4.945,1.098,9.631,3.051,13.838C39.501,126.096,43.57,123.995,48.201,124.089z"/>
	</g>
	<g>
		<path class="st1" d="M36.885,131.369c-0.08,0-0.16-0.005-0.24-0.014c-0.688-0.083-1.283-0.516-1.575-1.144
			c-2.148-4.627-3.237-9.566-3.237-14.681v-6.396c0-0.835,0.519-1.582,1.3-1.874c0.783-0.293,1.663-0.068,2.21,0.563
			c3.647,4.203,8.335,7.429,13.559,9.327c0.802,0.292,1.33,1.059,1.316,1.912l-0.01,0.353c-0.004,0.117-0.009,0.235-0.009,0.353
			v4.32c0,0.538-0.216,1.052-0.6,1.429c-0.384,0.376-0.908,0.593-1.44,0.571c-3.814-0.072-7.35,1.573-9.713,4.529
			C38.065,131.095,37.488,131.369,36.885,131.369z M35.833,113.975v1.555c0,3.539,0.589,6.982,1.753,10.272
			c2.437-2.038,5.417-3.299,8.614-3.629v-1.778C42.414,118.847,38.904,116.67,35.833,113.975z"/>
	</g>
	<g>
		<path class="st2" d="M138.733,107.331c1.127,3.956,1.742,8.125,1.742,12.438v4.32c4.138-0.084,7.827,1.588,10.435,4.28
			c3.942-7.031,6.079-15.212,6.079-24.606c0-9.094-4.907-17.037-12.215-21.34c0.25,1.693,0.383,3.424,0.383,5.186
			C145.157,94.984,142.77,101.798,138.733,107.331z"/>
	</g>
	<g>
		<path class="st1" d="M150.91,130.369c-0.538,0-1.057-0.217-1.437-0.608c-2.361-2.438-5.556-3.723-8.958-3.672
			c-0.537,0.024-1.056-0.194-1.44-0.571c-0.384-0.376-0.6-0.891-0.6-1.429v-4.32c0-4.008-0.561-8.009-1.666-11.89
			c-0.169-0.592-0.055-1.229,0.308-1.727c3.952-5.414,6.04-11.825,6.04-18.542c0-1.621-0.122-3.268-0.362-4.895
			c-0.112-0.762,0.223-1.521,0.861-1.951c0.639-0.43,1.467-0.455,2.132-0.064c8.143,4.794,13.201,13.632,13.201,23.064
			c0,9.479-2.131,18.086-6.334,25.583c-0.309,0.551-0.86,0.924-1.487,1.005C151.082,130.364,150.996,130.369,150.91,130.369z
			 M142.475,122.172c2.862,0.294,5.544,1.331,7.839,3.025c3.104-6.368,4.675-13.566,4.675-21.434c0-6.619-2.93-12.895-7.846-17.178
			c0.009,0.342,0.014,0.684,0.014,1.024c0,7.244-2.156,14.174-6.246,20.105c1.038,3.945,1.563,7.995,1.563,12.053V122.172z"/>
	</g>
	<g>
		<path class="st3" d="M151.932,247.836H36.744v-33.149c0-13.632,11.051-24.683,24.683-24.683h65.822
			c13.632,0,24.683,11.051,24.683,24.683V247.836z"/>
	</g>
	<g>
		<path class="st7" d="M94.338,187.188c-7.742,0-15.032-1.898-21.437-5.238v8.054v0.002c0,11.828,9.588,21.416,21.416,21.416h0
			c11.828,0,21.416-9.588,21.416-21.416v-0.002v-8.032C109.339,185.299,102.063,187.188,94.338,187.188z"/>
	</g>
	<g>
		<path class="st1" d="M151.933,249.836H36.744c-1.104,0-2-0.896-2-2v-33.149c0-14.713,11.97-26.683,26.683-26.683h9.474v-6.055
			c0-0.699,0.365-1.348,0.963-1.71c0.599-0.362,1.343-0.386,1.962-0.063c6.286,3.279,13.379,5.012,20.512,5.012
			c7.219,0,14.107-1.679,20.473-4.99c0.619-0.323,1.363-0.298,1.96,0.065c0.598,0.362,0.962,1.011,0.962,1.709v6.032h9.516
			c14.713,0,26.684,11.97,26.684,26.683v33.149C153.933,248.941,153.037,249.836,151.933,249.836z M38.744,245.836h111.189v-31.149
			c0-12.507-10.176-22.683-22.684-22.683h-11.516c-1.104,0-2-0.896-2-2v-4.862c-6.083,2.654-12.724,4.046-19.396,4.046
			c-6.688,0-13.344-1.398-19.437-4.064v4.881c0,1.104-0.896,2-2,2H61.427c-12.507,0-22.683,10.175-22.683,22.683V245.836z"/>
	</g>
	<g>
		<path class="st4" d="M94.396,247.836H12.184c-2.311,0-4.184-1.873-4.184-4.184v0c0-2.311,1.873-4.184,4.184-4.184h82.212V247.836z
			"/>
	</g>
	<g>
		<path class="st4" d="M94.396,247.836h82.212c2.311,0,4.184-1.873,4.184-4.184v0c0-2.311-1.873-4.184-4.184-4.184H94.396V247.836z"
			/>
	</g>
	<g>
		<path class="st1" d="M94.396,249.836H12.184c-3.41,0-6.184-2.774-6.184-6.184s2.774-6.184,6.184-6.184h82.212c1.104,0,2,0.896,2,2
			v8.368C96.396,248.941,95.501,249.836,94.396,249.836z M12.184,241.468c-1.204,0-2.184,0.98-2.184,2.184s0.98,2.184,2.184,2.184
			h80.212v-4.368H12.184z"/>
	</g>
	<g>
		<path class="st1" d="M176.608,249.836H94.396c-1.104,0-2-0.896-2-2v-8.368c0-1.104,0.896-2,2-2h82.212
			c3.41,0,6.184,2.774,6.184,6.184S180.019,249.836,176.608,249.836z M96.396,245.836h80.212c1.204,0,2.184-0.98,2.184-2.184
			s-0.98-2.184-2.184-2.184H96.396V245.836z"/>
	</g>
	<g>
		<path class="st0" d="M94.396,239.468v-9.621l-31.016-3.579c-14.864-1.715-29.891-1.42-44.677,0.877h0
			c-2.486,0.386-4.32,2.527-4.32,5.043v7.28H94.396z"/>
	</g>
	<g>
		<path class="st0" d="M94.396,239.468v-9.621l31.016-3.579c14.864-1.715,29.891-1.42,44.677,0.877h0
			c2.486,0.386,4.32,2.527,4.32,5.043v7.28H94.396z"/>
	</g>
	<g>
		<path class="st1" d="M94.396,241.468H14.383c-1.104,0-2-0.896-2-2v-7.28c0-3.526,2.529-6.478,6.013-7.019
			c14.96-2.325,30.172-2.624,45.213-0.888l31.017,3.579c1.009,0.116,1.771,0.971,1.771,1.987v9.621
			C96.396,240.573,95.501,241.468,94.396,241.468z M16.383,237.468h76.013v-5.838l-29.246-3.375
			c-14.682-1.695-29.534-1.403-44.14,0.866c-1.522,0.237-2.627,1.526-2.627,3.067V237.468z"/>
	</g>
	<g>
		<path class="st1" d="M174.409,241.468H94.396c-1.104,0-2-0.896-2-2v-9.621c0-1.016,0.762-1.871,1.771-1.987l31.016-3.579
			c15.041-1.735,30.252-1.437,45.213,0.888c3.484,0.541,6.013,3.493,6.013,7.019v7.28
			C176.409,240.573,175.514,241.468,174.409,241.468z M96.396,237.468h76.013v-5.28c0-1.541-1.105-2.83-2.627-3.067
			c-14.606-2.269-29.458-2.561-44.14-0.866l-29.246,3.375V237.468z"/>
	</g>
	<g>
		<path class="st7" d="M140.475,124.089v-4.32c0-25.251-20.656-45.721-46.137-45.721l0,0c-25.481,0-46.137,20.47-46.137,45.721v4.32
			c-8.011-0.162-14.367,6.22-14.367,13.934c0,8.238,7.192,14.754,15.586,13.866c4.761,20.229,23.059,35.299,44.918,35.299
			c21.861,0,40.157-15.072,44.918-35.299c8.383,0.886,15.586-5.617,15.586-13.866C154.842,130.305,148.482,123.926,140.475,124.089z
			"/>
	</g>
	<g>
		<path class="st1" d="M94.348,172.27L94.348,172.27c-3.356,0-6.482-1.21-8.577-3.321c-1.596-1.609-2.475-3.641-2.475-5.721
			c0-1.104,0.896-2,2-2s2,0.896,2,2c0,1.033,0.455,2.037,1.315,2.904c1.329,1.339,3.473,2.139,5.737,2.139
			c2.278,0,4.357-0.779,5.706-2.139c0.86-0.867,1.315-1.872,1.315-2.904c0-1.104,0.896-2,2-2s2,0.896,2,2
			c0,2.08-0.879,4.111-2.475,5.721C100.799,171.06,97.684,172.27,94.348,172.27z"/>
	</g>
	<g>
		<path class="st1" d="M118.291,153.583L118.291,153.583c-3.578,0-6.479-2.901-6.479-6.479v-6.911c0-3.578,2.901-6.479,6.479-6.479
			h0c3.578,0,6.479,2.901,6.479,6.479v6.911C124.77,150.682,121.869,153.583,118.291,153.583z"/>
	</g>
	<g>
		<path class="st1" d="M70.374,153.583L70.374,153.583c-3.578,0-6.479-2.901-6.479-6.479v-6.911c0-3.578,2.901-6.479,6.479-6.479h0
			c3.578,0,6.479,2.901,6.479,6.479v6.911C76.853,150.682,73.952,153.583,70.374,153.583z"/>
	</g>
	<g>
		<path class="st1" d="M94.338,189.188c-21.923,0-40.79-14.398-46.454-35.22c-3.966-0.009-7.815-1.469-10.772-4.129
			c-3.354-3.019-5.278-7.325-5.278-11.816c0-4.299,1.698-8.33,4.782-11.352c2.62-2.567,5.967-4.127,9.586-4.499v-2.404
			c0-26.313,21.594-47.721,48.137-47.721c26.543,0,48.137,21.408,48.137,47.721v2.404c3.618,0.372,6.965,1.932,9.585,4.5
			c3.083,3.021,4.782,7.053,4.782,11.351c0,4.491-1.923,8.797-5.276,11.814c-2.958,2.662-6.808,4.122-10.774,4.131
			C135.128,174.79,116.262,189.188,94.338,189.188z M49.421,149.889c0.918,0,1.731,0.631,1.945,1.542
			c4.679,19.876,22.349,33.758,42.972,33.758c20.623,0,38.293-13.882,42.972-33.757c0.231-0.98,1.154-1.636,2.157-1.531
			c3.439,0.365,6.875-0.744,9.423-3.037c2.512-2.26,3.952-5.482,3.952-8.841c0-3.214-1.272-6.231-3.581-8.494
			c-2.333-2.286-5.459-3.492-8.746-3.44c-0.537,0.024-1.056-0.194-1.44-0.571c-0.384-0.376-0.6-0.891-0.6-1.429v-4.32
			c0-24.108-19.8-43.721-44.137-43.721c-24.337,0-44.137,19.613-44.137,43.721v4.32c0,0.538-0.216,1.052-0.6,1.429
			c-0.384,0.376-0.908,0.593-1.44,0.571c-3.299-0.059-6.414,1.155-8.746,3.44c-2.31,2.263-3.582,5.28-3.582,8.495
			c0,3.358,1.441,6.582,3.954,8.842c2.585,2.326,5.928,3.402,9.421,3.035C49.28,149.893,49.351,149.889,49.421,149.889z"/>
	</g>
	<g>
		<path class="st2" d="M53.739,65.167c-6.596,8.179-15.454,13.529-25.308,14.46c-1.761,0.166-3.088,1.678-3.088,3.447v3.329
			c0,19.172,15.542,34.714,34.714,34.714h51.593c18.505,0,33.507-15.002,33.507-33.507v0c0-19.464-15.779-35.243-35.243-35.243
			l-29.26,0C70.214,52.367,60.293,57.04,53.739,65.167z"/>
	</g>
	<g>
		<path class="st1" d="M111.65,123.117H60.057c-20.244,0-36.713-16.47-36.713-36.713v-3.33c0-2.836,2.106-5.174,4.899-5.438
			c8.985-0.849,17.487-5.723,23.939-13.724c6.94-8.608,17.318-13.544,28.472-13.544h29.26c20.536,0,37.243,16.707,37.243,37.243
			C147.157,107.188,131.229,123.117,111.65,123.117z M80.654,54.367c-9.938,0-19.18,4.394-25.358,12.055c0,0,0,0,0,0
			C48.161,75.27,38.687,80.667,28.62,81.618c-0.715,0.067-1.276,0.707-1.276,1.456v3.33c0,18.038,14.675,32.713,32.713,32.713
			h51.593c17.373,0,31.507-14.134,31.507-31.507c0-18.33-14.913-33.243-33.243-33.243H80.654z M53.739,65.167h0.01H53.739z"/>
	</g>
	<g>
		<path class="st0" d="M197.5,8.164c-27.89,0-50.5,22.61-50.5,50.5c0,9.147,2.445,17.719,6.698,25.119l-5.967,17.286
			c-0.816,2.365,1.45,4.631,3.815,3.815l16.042-5.537c8.374,6.167,18.715,9.817,29.912,9.817c27.89,0,50.5-22.61,50.5-50.5
			S225.39,8.164,197.5,8.164z"/>
	</g>
	<g>
		<path class="st2" d="M235.492,49.208h-7.695c-0.569-1.817-1.305-3.589-2.192-5.276c9.265-9.265,9.183-7.2-2.434-18.818
			c-1.518-1.518-3.975-1.518-5.492,0l-5.445,5.446c-1.687-0.888-3.46-1.624-5.277-2.193v-7.694c0-2.141-1.742-3.884-3.884-3.884
			h-11.144c-2.142,0-3.884,1.742-3.884,3.884v7.694c-1.816,0.568-3.589,1.305-5.277,2.193c-5.701-5.701-6.11-6.583-8.191-6.583
			c-1.038,0-2.013,0.404-2.746,1.137c-11.688,11.688-11.686,9.566-2.434,18.818c-0.888,1.687-1.624,3.46-2.192,5.276h-7.695
			c-2.142,0-3.884,1.742-3.884,3.884v11.144c0,2.141,1.742,3.884,3.884,3.884h7.695c0.569,1.817,1.305,3.589,2.192,5.276
			c-9.265,9.265-9.183,7.2,2.434,18.818c1.518,1.518,3.975,1.518,5.492,0l5.445-5.446c1.687,0.888,3.46,1.624,5.277,2.193v7.694
			c0,2.141,1.742,3.884,3.884,3.884h11.144c2.142,0,3.884-1.742,3.884-3.884v-7.694c1.816-0.568,3.589-1.305,5.277-2.193
			l5.445,5.446c1.518,1.518,3.975,1.518,5.492,0c8.513-8.513,9.018-8.542,9.018-10.626c0-2.065-0.835-2.443-6.583-8.192
			c0.888-1.687,1.624-3.46,2.192-5.276h7.695c2.142,0,3.884-1.742,3.884-3.884V53.091C239.375,50.95,237.633,49.208,235.492,49.208z
			 M216.148,58.664c0,10.283-8.365,18.648-18.648,18.648s-18.648-8.365-18.648-18.648c0-10.283,8.365-18.648,18.648-18.648
			S216.148,48.381,216.148,58.664z"/>
	</g>
	<g>
		<path class="st1" d="M197.5,111.164c-10.924,0-21.357-3.312-30.241-9.588l-15.061,5.199c-1.822,0.628-3.803,0.173-5.167-1.191
			s-1.82-3.344-1.191-5.167l5.673-16.436C147.25,76.249,145,67.516,145,58.664c0-28.949,23.551-52.5,52.5-52.5
			s52.5,23.551,52.5,52.5S226.449,111.164,197.5,111.164z M167.587,97.346c0.421,0,0.838,0.133,1.186,0.39
			c8.375,6.167,18.308,9.428,28.727,9.428c26.743,0,48.5-21.757,48.5-48.5s-21.757-48.5-48.5-48.5S149,31.92,149,58.664
			c0,8.46,2.224,16.802,6.431,24.123c0.288,0.501,0.345,1.103,0.157,1.649l-5.966,17.286c-0.184,0.534,0.105,0.901,0.238,1.034
			c0.133,0.133,0.5,0.424,1.034,0.238l16.042-5.537C167.147,97.382,167.368,97.346,167.587,97.346z"/>
	</g>
	<g>
		<circle class="st5" cx="197.5" cy="58.664" r="18.648"/>
	</g>
	<g>
		<path class="st6" d="M91.622,37.026L91.622,37.026c-2.43,0-4.4-1.97-4.4-4.4v-13.2c0-2.43,1.97-4.4,4.4-4.4h0
			c2.43,0,4.4,1.97,4.4,4.4v13.2C96.022,35.056,94.052,37.026,91.622,37.026z"/>
	</g>
	<g>
		<path class="st6" d="M59.4,47.804L59.4,47.804c-1.718,1.718-4.504,1.718-6.223,0l-9.334-9.334c-1.718-1.718-1.718-4.504,0-6.223
			l0,0c1.718-1.718,4.504-1.718,6.223,0l9.334,9.334C61.118,43.3,61.118,46.086,59.4,47.804z"/>
	</g>
	<g>
		<path class="st6" d="M123.844,47.804L123.844,47.804c1.718,1.718,4.504,1.718,6.223,0l9.334-9.334
			c1.718-1.718,1.718-4.504,0-6.223v0c-1.718-1.718-4.504-1.718-6.223,0l-9.334,9.334C122.125,43.3,122.125,46.086,123.844,47.804z"
			/>
	</g>
	<g>
		<path class="st8" d="M205.081,50.542l0.032,0.032c0.446,0.446,1.169,0.446,1.615,0l2.502-2.502c0.446-0.446,0.446-1.169,0-1.615
			l-0.032-0.032c-0.446-0.446-1.169-0.446-1.615,0l-2.502,2.502C204.635,49.373,204.635,50.096,205.081,50.542z"/>
	</g>
	<g>
		<path class="st8" d="M197.521,47.537h-0.042c-0.631,0-1.143-0.512-1.143-1.143v-3.551c0-0.631,0.512-1.143,1.143-1.143h0.042
			c0.631,0,1.143,0.512,1.143,1.143v3.551C198.664,47.025,198.153,47.537,197.521,47.537z"/>
	</g>
	<g>
		<path class="st8" d="M190.039,50.542l-0.032,0.032c-0.446,0.446-1.169,0.446-1.615,0l-2.502-2.502
			c-0.446-0.446-0.446-1.169,0-1.615l0.032-0.032c0.446-0.446,1.169-0.446,1.615,0l2.502,2.502
			C190.484,49.373,190.484,50.096,190.039,50.542z"/>
	</g>
	<g>
		<path class="st9" d="M208.486,55.183v-0.045c0-0.631,0.511-1.142,1.142-1.142h3.539c0.631,0,1.142,0.511,1.142,1.142v0.045
			c0,0.631-0.511,1.142-1.142,1.142h-3.539C208.997,56.325,208.486,55.813,208.486,55.183z"/>
	</g>
	<g>
		<path class="st8" d="M180.692,55.183v-0.045c0-0.631,0.511-1.142,1.142-1.142h3.539c0.631,0,1.142,0.511,1.142,1.142v0.045
			c0,0.631-0.511,1.142-1.142,1.142h-3.539C181.203,56.325,180.692,55.813,180.692,55.183z"/>
	</g>
	<g>
		<path class="st4" d="M202.116,74.104c-9.755,0-9.742,0.193-9.742-0.51c0-1.604-0.149-2.286,0.51-2.286
			c9.755,0,9.742-0.193,9.742,0.51C202.626,73.423,202.775,74.104,202.116,74.104z"/>
	</g>
	<g>
		<path class="st4" d="M201.353,76.9h-7.473c-1.019,0-0.807-1.073-0.807-2.796h9.087C202.16,75.717,202.389,76.9,201.353,76.9z"/>
	</g>
	<g>
		<path class="st4" d="M198.432,80.629h-1.864c-1.544,0-2.796-1.252-2.796-2.796V76.9h7.456v0.932
			C201.228,79.377,199.976,80.629,198.432,80.629z"/>
	</g>
	<g>
		<path class="st10" d="M206.82,59.794c0-5.147-4.173-9.32-9.32-9.32c-5.147,0-9.32,4.173-9.32,9.32
			c0,2.425,0.927,4.633,2.445,6.291H190.6c1.229,1.455,2.06,3.251,2.351,5.223c5.89-0.001,8.192-0.071,9.093,0.032
			c0.286-1.985,1.12-3.792,2.355-5.255h-0.024C205.894,64.427,206.82,62.219,206.82,59.794z"/>
	</g>
	<g>
		<path class="st7" d="M197.5,33.823c-13.696,0-24.84,11.143-24.84,24.84c0,13.698,11.143,24.841,24.84,24.841
			c13.698,0,24.841-11.143,24.841-24.841C222.341,44.967,211.198,33.823,197.5,33.823z M197.5,77.312
			c-10.283,0-18.648-8.365-18.648-18.648s8.365-18.648,18.648-18.648s18.648,8.365,18.648,18.648S207.783,77.312,197.5,77.312z"/>
	</g>
</g>
</svg>
