<?xml version="1.0" encoding="utf-8"?>
<!-- Generator: Adobe Illustrator 22.1.0, SVG Export Plug-In . SVG Version: 6.00 Build 0)  -->
<svg version="1.1" id="Layer_1" xmlns="http://www.w3.org/2000/svg" xmlns:xlink="http://www.w3.org/1999/xlink" x="0px" y="0px"
	 viewBox="0 0 256 256" style="enable-background:new 0 0 256 256;" xml:space="preserve">
<style type="text/css">
	.st0{fill:#E0EBFC;}
	.st1{fill:#3762CC;}
	.st2{fill:#4671C6;}
	.st3{fill:#6BDDDD;}
	.st4{fill:#F9A7A7;}
	.st5{fill:#A4C9FF;}
	.st6{fill:#FFEA92;}
	.st7{fill:#F9CFCF;}
	.st8{fill:#FFE164;}
	.st9{fill:#FFDC85;}
	.st10{fill:#FFEA94;}
	.st11{fill:#B9BEFC;}
	.st12{fill:#EAA97D;}
</style>
<g>
	<g>
		<path class="st7" d="M8,235.5v-21c0-1.105,0.895-2,2-2h236c1.105,0,2,0.895,2,2v21c0,1.105-0.895,2-2,2H10
			C8.895,237.5,8,236.605,8,235.5z"/>
	</g>
	<g>
		<path class="st1" d="M246,239.5H10c-2.206,0-4-1.794-4-4v-21c0-2.206,1.794-4,4-4h236c2.206,0,4,1.794,4,4v21
			C250,237.706,248.206,239.5,246,239.5z M10,214.5v21.002l236-0.002v-21H10z"/>
	</g>
	<g>
		<path class="st2" d="M52.33,212.5H25.492c-3.176,0-5.751-2.575-5.751-5.751V26.552c0-3.176,2.575-5.751,5.751-5.751H52.33
			c3.176,0,5.751,2.575,5.751,5.751v180.197C58.081,209.925,55.506,212.5,52.33,212.5z"/>
	</g>
	<g>
		<path class="st5" d="M38.911,157.236L38.911,157.236c-4.764,0-8.626-3.862-8.626-8.626V51.311c0-4.764,3.862-8.626,8.626-8.626h0
			c4.764,0,8.626,3.862,8.626,8.626v97.299C47.537,153.374,43.675,157.236,38.911,157.236z"/>
	</g>
	<g>
		<rect x="19.741" y="177.355" class="st3" width="38.34" height="15.274"/>
	</g>
	<g>
		<path class="st1" d="M52.33,214.5H25.492c-4.273,0-7.751-3.477-7.751-7.751V26.552c0-4.274,3.478-7.751,7.751-7.751H52.33
			c4.273,0,7.751,3.477,7.751,7.751v180.197C60.081,211.023,56.604,214.5,52.33,214.5z M25.492,22.801
			c-2.068,0-3.751,1.683-3.751,3.751v180.197c0,2.068,1.683,3.751,3.751,3.751H52.33c2.068,0,3.751-1.683,3.751-3.751V26.552
			c0-2.068-1.683-3.751-3.751-3.751H25.492z"/>
	</g>
	<g>
		<path class="st3" d="M90.67,212.5H63.832c-3.176,0-5.751-2.575-5.751-5.751V26.552c0-3.176,2.575-5.751,5.751-5.751H90.67
			c3.176,0,5.751,2.575,5.751,5.751v180.197C96.421,209.925,93.846,212.5,90.67,212.5z"/>
	</g>
	<g>
		<path class="st0" d="M77.251,157.236L77.251,157.236c-4.764,0-8.626-3.862-8.626-8.626V51.311c0-4.764,3.862-8.626,8.626-8.626h0
			c4.764,0,8.626,3.862,8.626,8.626v97.299C85.877,153.374,82.015,157.236,77.251,157.236z"/>
	</g>
	<g>
		<rect x="58.081" y="177.355" class="st4" width="38.34" height="15.274"/>
	</g>
	<g>
		<path class="st1" d="M90.67,214.5H63.832c-4.273,0-7.751-3.477-7.751-7.751V26.552c0-4.274,3.478-7.751,7.751-7.751H90.67
			c4.273,0,7.751,3.477,7.751,7.751v180.197C98.421,211.023,94.943,214.5,90.67,214.5z M63.832,22.801
			c-2.068,0-3.751,1.683-3.751,3.751v180.197c0,2.068,1.683,3.751,3.751,3.751H90.67c2.068,0,3.751-1.683,3.751-3.751V26.552
			c0-2.068-1.683-3.751-3.751-3.751H63.832z"/>
	</g>
	<g>
		<path class="st4" d="M129.01,212.5h-26.838c-3.176,0-5.751-2.575-5.751-5.751V26.552c0-3.176,2.575-5.751,5.751-5.751h26.838
			c3.176,0,5.751,2.575,5.751,5.751v180.197C134.761,209.925,132.186,212.5,129.01,212.5z"/>
	</g>
	<g>
		<path class="st7" d="M115.591,157.236L115.591,157.236c-4.764,0-8.626-3.862-8.626-8.626V51.311c0-4.764,3.862-8.626,8.626-8.626
			h0c4.764,0,8.626,3.862,8.626,8.626v97.299C124.217,153.374,120.355,157.236,115.591,157.236z"/>
	</g>
	<g>
		<rect x="96.421" y="177.355" class="st0" width="38.34" height="15.274"/>
	</g>
	<g>
		<path class="st1" d="M129.01,214.5h-26.838c-4.273,0-7.751-3.477-7.751-7.751V26.552c0-4.274,3.478-7.751,7.751-7.751h26.838
			c4.273,0,7.751,3.477,7.751,7.751v180.197C136.761,211.023,133.283,214.5,129.01,214.5z M102.172,22.801
			c-2.068,0-3.751,1.683-3.751,3.751v180.197c0,2.068,1.683,3.751,3.751,3.751h26.838c2.068,0,3.751-1.683,3.751-3.751V26.552
			c0-2.068-1.683-3.751-3.751-3.751H102.172z"/>
	</g>
	<g>
		<path class="st2" d="M167.349,212.5h-26.838c-3.176,0-5.751-2.575-5.751-5.751V26.552c0-3.176,2.575-5.751,5.751-5.751h26.838
			c3.176,0,5.751,2.575,5.751,5.751v180.197C173.1,209.925,170.526,212.5,167.349,212.5z"/>
	</g>
	<g>
		<path class="st5" d="M153.93,157.236L153.93,157.236c-4.764,0-8.626-3.862-8.626-8.626V51.311c0-4.764,3.862-8.626,8.626-8.626h0
			c4.764,0,8.626,3.862,8.626,8.626v97.299C162.557,153.374,158.695,157.236,153.93,157.236z"/>
	</g>
	<g>
		<rect x="134.761" y="177.355" class="st3" width="38.34" height="15.274"/>
	</g>
	<g>
		<path class="st1" d="M167.35,214.5h-26.838c-4.273,0-7.751-3.477-7.751-7.751V26.552c0-4.274,3.478-7.751,7.751-7.751h26.838
			c4.273,0,7.751,3.477,7.751,7.751v180.197C175.101,211.023,171.623,214.5,167.35,214.5z M140.512,22.801
			c-2.068,0-3.751,1.683-3.751,3.751v180.197c0,2.068,1.683,3.751,3.751,3.751h26.838c2.068,0,3.751-1.683,3.751-3.751V26.552
			c0-2.068-1.683-3.751-3.751-3.751H140.512z"/>
	</g>
	<g>
		<path class="st3" d="M231.308,208.39l-26.577,3.735c-3.145,0.442-6.053-1.749-6.495-4.895L173.157,28.787
			c-0.442-3.145,1.749-6.053,4.895-6.495l26.577-3.735c3.145-0.442,6.053,1.749,6.495,4.895l25.079,178.444
			C236.644,205.04,234.453,207.948,231.308,208.39z"/>
	</g>
	<g>
		<path class="st0" d="M210.372,155.847L210.372,155.847c-4.718,0.663-9.08-2.624-9.743-7.342l-13.541-96.352
			c-0.663-4.718,2.624-9.08,7.342-9.743h0c4.718-0.663,9.08,2.624,9.743,7.342l13.541,96.352
			C218.377,150.822,215.09,155.184,210.372,155.847z"/>
	</g>
	<g>
		
			<rect x="195.021" y="175.381" transform="matrix(0.9903 -0.1392 0.1392 0.9903 -23.3866 31.5907)" class="st4" width="38.34" height="15.274"/>
	</g>
	<g>
		<path class="st1" d="M203.925,214.182c-3.799,0-7.126-2.805-7.67-6.673L171.177,29.065c-0.288-2.05,0.239-4.09,1.485-5.743
			s3.062-2.723,5.111-3.011l26.576-3.735c4.228-0.594,8.16,2.364,8.755,6.596l25.078,178.444c0.288,2.05-0.239,4.09-1.485,5.743
			s-3.062,2.723-5.111,3.011l-26.577,3.735C204.645,214.157,204.283,214.182,203.925,214.182z M205.431,20.5
			c-0.173,0-0.349,0.012-0.524,0.037l-26.576,3.735c-0.992,0.14-1.871,0.657-2.474,1.457c-0.604,0.8-0.858,1.787-0.719,2.779
			l25.078,178.444c0.288,2.048,2.192,3.482,4.236,3.193l26.577-3.735l0,0c0.992-0.14,1.871-0.657,2.474-1.457
			c0.604-0.8,0.858-1.787,0.719-2.779L209.144,23.729C208.88,21.858,207.27,20.5,205.431,20.5z"/>
	</g>
</g>
</svg>
