<?xml version="1.0" encoding="utf-8"?>
<!-- Generator: Adobe Illustrator 22.1.0, SVG Export Plug-In . SVG Version: 6.00 Build 0)  -->
<svg version="1.1" id="Layer_1" xmlns="http://www.w3.org/2000/svg" xmlns:xlink="http://www.w3.org/1999/xlink" x="0px" y="0px"
	 viewBox="0 0 256 256" style="enable-background:new 0 0 256 256;" xml:space="preserve">
<style type="text/css">
	.st0{fill:#E0EBFC;}
	.st1{fill:#3762CC;}
	.st2{fill:#4671C6;}
	.st3{fill:#6BDDDD;}
	.st4{fill:#F9A7A7;}
	.st5{fill:#A4C9FF;}
	.st6{fill:#FFEA92;}
	.st7{fill:#F9CFCF;}
	.st8{fill:#FFE164;}
	.st9{fill:#FFDC85;}
	.st10{fill:#FFEA94;}
	.st11{fill:#B9BEFC;}
	.st12{fill:#EAA97D;}
</style>
<g>
	<g>
		<path class="st2" d="M43.491,82.276v-4.474c0-0.256,0.015-0.509,0.02-0.764c-5.809-2.112-10.925-5.669-14.899-10.249v6.624
			c0,5.121,1.137,9.974,3.16,14.331C34.481,84.354,38.695,82.179,43.491,82.276z"/>
	</g>
	<g>
		<path class="st1" d="M31.771,89.744c-0.079,0-0.159-0.005-0.239-0.015c-0.688-0.082-1.283-0.515-1.574-1.143
			c-2.221-4.782-3.347-9.887-3.347-15.174v-6.624c0-0.835,0.519-1.582,1.301-1.874c0.779-0.291,1.662-0.066,2.21,0.563
			c3.786,4.363,8.652,7.71,14.072,9.68c0.804,0.292,1.332,1.063,1.316,1.918l-0.01,0.336c-0.005,0.13-0.01,0.26-0.01,0.39v4.475
			c0,0.537-0.217,1.053-0.601,1.429s-0.905,0.577-1.44,0.571c-3.965-0.055-7.655,1.638-10.116,4.717
			C32.951,89.471,32.375,89.744,31.771,89.744z M30.611,71.645v1.769c0,3.708,0.623,7.315,1.854,10.759
			c2.543-2.154,5.67-3.48,9.025-3.815v-1.953C37.511,76.782,33.826,74.49,30.611,71.645z"/>
	</g>
	<g>
		<path class="st2" d="M137.247,64.921c2.037,7.152,1.804,12.077,1.804,17.355c4.285-0.087,8.106,1.645,10.807,4.433
			c4.083-7.282,6.296-15.754,6.296-25.482c0-9.418-5.082-17.644-12.65-22.1c0.259,1.754,0.397,3.546,0.397,5.371
			C143.9,52.135,141.429,59.192,137.247,64.921z"/>
	</g>
	<g>
		<path class="st1" d="M149.858,88.709c-0.538,0-1.058-0.217-1.437-0.608c-2.46-2.539-5.781-3.889-9.329-3.824
			c-0.561,0.001-1.057-0.195-1.44-0.571s-0.601-0.892-0.601-1.429l0.004-1.475c0.02-4.689,0.038-9.119-1.732-15.332
			c-0.168-0.592-0.055-1.229,0.309-1.727c4.101-5.62,6.269-12.275,6.269-19.245c0-1.685-0.126-3.394-0.375-5.079
			c-0.112-0.762,0.223-1.521,0.861-1.951s1.469-0.455,2.132-0.064c8.411,4.952,13.636,14.081,13.636,23.823
			c0,9.803-2.204,18.705-6.552,26.46c-0.309,0.552-0.859,0.924-1.486,1.006C150.03,88.703,149.944,88.709,149.858,88.709z
			 M141.058,80.356c3,0.298,5.813,1.388,8.209,3.177c3.245-6.626,4.888-14.117,4.888-22.307c0-6.931-3.093-13.498-8.273-17.949
			c0.013,0.407,0.02,0.814,0.02,1.221c0,7.497-2.235,14.67-6.474,20.808C141.037,71.377,141.074,75.959,141.058,80.356z"/>
	</g>
	<g>
		<path class="st5" d="M148.021,166.355c1.846,3.535,2.896,7.552,2.896,11.816c0,3.458,0,14.818,0,27.458
			c5.869-3.793,10.207-3.095,21.13-3.095L148.021,166.355z"/>
	</g>
	<g>
		<path class="st0" d="M125.355,152.608H57.188c-14.118,0-25.562,11.444-25.562,25.563V212.5h0V248h119.292
			c0-8.143,0-61.561,0-69.829C150.917,164.053,139.472,152.608,125.355,152.608z"/>
	</g>
	<g>
		<path class="st7" d="M91.271,147.623c-8.017,0-15.567-1.965-22.201-5.425v10.41v0.003c0,12.249,9.93,22.179,22.179,22.179h0
			c12.249,0,22.179-9.93,22.179-22.179v-0.003v-10.387C106.806,145.667,99.271,147.623,91.271,147.623z"/>
	</g>
	<g>
		<path class="st1" d="M150.917,250H31.625c-1.104,0-2-0.896-2-2v-69.829c0-15.198,12.364-27.563,27.562-27.563h9.883v-8.409
			c0-0.699,0.365-1.348,0.963-1.71c0.6-0.364,1.343-0.387,1.962-0.063c6.521,3.4,13.878,5.197,21.276,5.197
			c7.384,0,14.727-1.79,21.234-5.176c0.62-0.321,1.362-0.297,1.961,0.064c0.597,0.363,0.962,1.011,0.962,1.71v8.387h9.926
			c15.198,0,27.563,12.364,27.563,27.563V248C152.917,249.104,152.021,250,150.917,250z M33.625,246h115.292v-67.829
			c0-12.992-10.57-23.563-23.563-23.563h-11.926c-1.104,0-2-0.896-2-2v-7.213c-6.315,2.773-13.221,4.228-20.157,4.228
			c-6.952,0-13.872-1.461-20.201-4.246v7.231c0,1.104-0.896,2-2,2H57.187c-12.992,0-23.562,10.57-23.562,23.563V246z"/>
	</g>
	<g>
		<path class="st5" d="M84.439,160.503l-15.369-14.844h-5.823l-10.339,7.31l13.521,18.022c1.416,1.887,4.15,2.145,5.894,0.556
			L84.439,160.503z"/>
	</g>
	<g>
		<path class="st5" d="M98.103,160.503l15.369-14.844h5.823l10.339,7.31l-13.521,18.022c-1.416,1.887-4.15,2.145-5.894,0.556
			L98.103,160.503z"/>
	</g>
	<g>
		<path class="st5" d="M76.265,152.608H57.188c-14.118,0-25.562,11.444-25.562,25.563c0,8.404,0,61.695,0,69.829h52.814
			c0-6.74,0-76.39,0-87.497L76.265,152.608z"/>
	</g>
	<g>
		<path class="st5" d="M125.355,152.608h-19.077l-8.174,7.895c0,11.173,0,78.695,0,87.497h52.814c0-8.143,0-61.561,0-69.829
			C150.917,164.053,139.472,152.608,125.355,152.608z"/>
	</g>
	<g>
		<path class="st1" d="M84.439,250H31.625c-1.104,0-2-0.896-2-2v-69.829c0-15.198,12.364-27.563,27.562-27.563h19.078
			c0.519,0,1.017,0.201,1.39,0.562l8.174,7.896c0.39,0.377,0.61,0.896,0.61,1.438V248C86.439,249.104,85.544,250,84.439,250z
			 M33.625,246h48.814v-84.647l-6.982-6.744h-18.27c-12.992,0-23.562,10.57-23.562,23.563V246z"/>
	</g>
	<g>
		<path class="st1" d="M150.917,250H98.104c-1.104,0-2-0.896-2-2v-87.496c0-0.542,0.221-1.062,0.61-1.438l8.174-7.896
			c0.373-0.36,0.871-0.562,1.39-0.562h19.077c15.198,0,27.563,12.364,27.563,27.563V248C152.917,249.104,152.021,250,150.917,250z
			 M100.104,246h48.813v-67.829c0-12.992-10.57-23.563-23.563-23.563h-18.269l-6.982,6.744V246z"/>
	</g>
	<g>
		<path class="st5" d="M84.439,160.503l-15.369-14.844h-5.823l-10.339,7.31l13.521,18.022c1.416,1.887,4.15,2.145,5.894,0.556
			L84.439,160.503z"/>
	</g>
	<g>
		<path class="st5" d="M98.103,160.503l15.369-14.844h5.823l10.339,7.31l-13.521,18.022c-1.416,1.887-4.15,2.145-5.894,0.556
			L98.103,160.503z"/>
	</g>
	<g>
		<path class="st1" d="M69.626,174.59c-0.187,0-0.373-0.009-0.561-0.026c-1.68-0.158-3.224-1.023-4.235-2.373l-13.521-18.021
			c-0.324-0.432-0.46-0.977-0.376-1.511c0.084-0.533,0.38-1.011,0.821-1.322l10.339-7.31c0.337-0.239,0.741-0.367,1.154-0.367h5.823
			c0.519,0,1.017,0.201,1.39,0.562l15.369,14.844c0.397,0.384,0.618,0.915,0.61,1.468c-0.008,0.552-0.244,1.077-0.652,1.449
			l-12.116,11.043C72.562,174.034,71.113,174.59,69.626,174.59z M55.743,153.414l12.286,16.376c0.343,0.456,0.844,0.737,1.412,0.791
			c0.568,0.053,1.113-0.129,1.534-0.514l10.541-9.606l-13.255-12.802h-4.379L55.743,153.414z"/>
	</g>
	<g>
		<path class="st1" d="M112.917,174.59c-1.488,0-2.938-0.556-4.046-1.565l-12.115-11.043c-0.408-0.373-0.645-0.897-0.652-1.449
			c-0.008-0.553,0.213-1.084,0.61-1.468l15.368-14.844c0.373-0.36,0.871-0.562,1.39-0.562h5.823c0.413,0,0.816,0.128,1.154,0.367
			l10.34,7.31c0.441,0.312,0.737,0.789,0.821,1.322c0.084,0.534-0.052,1.079-0.376,1.511l-13.521,18.021
			c-1.012,1.35-2.556,2.215-4.236,2.373C113.29,174.581,113.103,174.59,112.917,174.59z M101.026,160.461l10.54,9.606
			c0.422,0.386,0.967,0.565,1.535,0.514c0.568-0.054,1.069-0.335,1.412-0.791l12.286-16.376l-8.141-5.755h-4.379L101.026,160.461z"
			/>
	</g>
	<g>
		<path class="st7" d="M139.052,82.276v-4.474c0-26.151-21.392-47.35-47.78-47.35l0,0c-26.388,0-47.78,21.199-47.78,47.35v4.474
			c-8.297-0.168-14.879,6.441-14.879,14.431c0,8.531,7.448,15.279,16.141,14.36c4.931,20.949,23.88,36.557,46.518,36.557
			c22.64,0,41.588-15.609,46.518-36.557c8.682,0.918,16.141-5.817,16.141-14.36C153.931,88.714,147.343,82.108,139.052,82.276z"/>
	</g>
	<g>
		<path class="st1" d="M91.285,126.857c-3.459,0-6.68-1.247-8.836-3.42c-1.64-1.653-2.542-3.739-2.542-5.874c0-1.104,0.896-2,2-2
			s2,0.896,2,2c0,1.089,0.478,2.146,1.382,3.058c1.389,1.399,3.631,2.236,5.996,2.236c2.375,0,4.546-0.815,5.956-2.236
			c0.904-0.912,1.382-1.969,1.382-3.058c0-1.104,0.896-2,2-2s2,0.896,2,2c0,2.135-0.902,4.221-2.542,5.874
			C97.925,125.61,94.72,126.857,91.285,126.857z"/>
	</g>
	<g>
		<path class="st1" d="M66.453,107.575L66.453,107.575c-3.706,0-6.71-3.004-6.71-6.71v-7.158c0-3.706,3.004-6.71,6.71-6.71h0
			c3.706,0,6.71,3.004,6.71,6.71v7.158C73.163,104.571,70.159,107.575,66.453,107.575z"/>
	</g>
	<g>
		<path class="st1" d="M91.271,149.623c-22.691,0-42.215-14.914-48.055-36.475c-0.006,0-0.012,0-0.018,0
			c-4.103,0-8.087-1.506-11.145-4.258c-3.46-3.112-5.443-7.553-5.443-12.184c0-4.433,1.751-8.59,4.932-11.706
			c2.717-2.662,6.192-4.273,9.948-4.645v-2.554c0-27.212,22.331-49.351,49.78-49.351s49.78,22.139,49.78,49.351v2.554
			c3.756,0.372,7.231,1.983,9.948,4.646c3.18,3.115,4.931,7.272,4.931,11.704c0,4.631-1.983,9.071-5.441,12.183
			c-3.059,2.752-7.044,4.259-11.146,4.259c-0.006,0-0.012,0-0.018,0C133.486,134.709,113.962,149.623,91.271,149.623z
			 M44.755,109.066c0.917,0,1.73,0.631,1.945,1.542c4.852,20.616,23.181,35.015,44.571,35.015s39.72-14.398,44.571-35.015
			c0.231-0.981,1.155-1.63,2.158-1.531c3.58,0.38,7.159-0.773,9.813-3.161c2.616-2.354,4.117-5.711,4.117-9.209
			c0-3.348-1.324-6.49-3.73-8.848c-2.431-2.38-5.691-3.675-9.108-3.583c-0.521,0.001-1.056-0.195-1.439-0.571
			c-0.385-0.376-0.601-0.892-0.601-1.429v-4.474c0-25.007-20.537-45.351-45.78-45.351s-45.78,20.344-45.78,45.351v4.474
			c0,0.537-0.217,1.053-0.601,1.429s-0.905,0.577-1.44,0.571c-3.423-0.085-6.679,1.201-9.108,3.582
			c-2.405,2.357-3.73,5.5-3.73,8.849c0,3.498,1.501,6.855,4.118,9.21c2.654,2.388,6.238,3.541,9.813,3.16
			C44.613,109.07,44.685,109.066,44.755,109.066z"/>
	</g>
	<g>
		<path class="st2" d="M49.226,21.256c-6.831,8.47-16.005,14.011-26.209,14.975c-1.823,0.172-3.198,1.738-3.198,3.569v3.448
			c0,19.855,16.095,35.95,35.95,35.95H109.2c19.164,0,34.7-15.536,34.7-34.7v0C143.9,24.341,127.56,8,107.403,8L77.1,8
			C66.288,8,56.014,12.839,49.226,21.256z"/>
	</g>
	<g>
		<path class="st1" d="M109.2,81.198H55.77c-20.926,0-37.95-17.024-37.95-37.95v-3.447c0-2.899,2.153-5.291,5.01-5.562
			C32.152,33.358,40.975,28.302,47.67,20C54.844,11.103,65.571,6,77.1,6h30.303C128.63,6,145.9,23.271,145.9,44.498
			C145.9,64.734,129.437,81.198,109.2,81.198z M77.1,10c-10.313,0-19.904,4.561-26.316,12.512l0,0
			c-7.378,9.147-17.172,14.727-27.577,15.71c-0.777,0.073-1.387,0.768-1.387,1.579v3.447c0,18.72,15.23,33.95,33.95,33.95H109.2
			c18.031,0,32.7-14.669,32.7-32.7C141.9,25.476,126.425,10,107.402,10H77.1z M49.227,21.256h0.01H49.227z"/>
	</g>
	<g>
		<path class="st1" d="M116.077,107.575L116.077,107.575c-3.706,0-6.71-3.004-6.71-6.71v-7.158c0-3.706,3.004-6.71,6.71-6.71h0
			c3.706,0,6.71,3.004,6.71,6.71v7.158C122.787,104.571,119.783,107.575,116.077,107.575z"/>
	</g>
	<g>
		<path class="st6" d="M232.403,47.179h-5.927c-0.553-1.824-1.28-3.571-2.165-5.222l4.192-4.192c0.937-0.937,0.937-2.456,0-3.393
			l-8.481-8.481c-0.937-0.937-2.456-0.937-3.392,0l-4.192,4.192c-1.652-0.884-3.399-1.612-5.222-2.165v-5.927
			c0-1.325-1.074-2.399-2.399-2.399h-11.994c-1.325,0-2.399,1.074-2.399,2.399v5.927c-1.824,0.553-3.571,1.28-5.222,2.165
			l-4.192-4.192c-0.937-0.937-2.456-0.937-3.392,0l-8.481,8.481c-0.937,0.937-0.937,2.456,0,3.393l4.192,4.192
			c-0.884,1.652-1.612,3.399-2.165,5.222h-5.927c-1.325,0-2.399,1.074-2.399,2.399v11.994c0,1.325,1.074,2.399,2.399,2.399h5.927
			c0.553,1.824,1.28,3.571,2.165,5.222l-4.192,4.192c-0.937,0.937-0.937,2.456,0,3.393l8.481,8.481c0.937,0.937,2.456,0.937,3.392,0
			l4.192-4.192c1.652,0.884,3.399,1.612,5.222,2.165v5.927c0,1.325,1.074,2.399,2.399,2.399h11.994c1.325,0,2.399-1.074,2.399-2.399
			v-5.927c1.824-0.553,3.571-1.28,5.222-2.165l4.192,4.192c0.937,0.937,2.456,0.937,3.392,0l8.481-8.481
			c0.937-0.937,0.937-2.456,0-3.393l-4.192-4.192c0.884-1.652,1.612-3.399,2.165-5.222h5.927c1.325,0,2.399-1.074,2.399-2.399
			V49.577C234.802,48.253,233.728,47.179,232.403,47.179z M198.819,65.873c-5.679,0-10.299-4.62-10.299-10.299
			s4.62-10.299,10.299-10.299s10.299,4.62,10.299,10.299S204.498,65.873,198.819,65.873z"/>
	</g>
	<g>
		<path class="st5" d="M198.819,36.64c-10.441,0-18.934,8.494-18.934,18.934s8.494,18.934,18.934,18.934s18.934-8.494,18.934-18.934
			S209.26,36.64,198.819,36.64z M198.819,65.873c-5.679,0-10.299-4.62-10.299-10.299s4.62-10.299,10.299-10.299
			s10.299,4.62,10.299,10.299S204.498,65.873,198.819,65.873z"/>
	</g>
	<g>
		<path class="st1" d="M198.819,67.873c-6.781,0-12.299-5.518-12.299-12.299s5.518-12.298,12.299-12.298s12.299,5.517,12.299,12.298
			S205.601,67.873,198.819,67.873z M198.819,47.276c-4.576,0-8.299,3.723-8.299,8.298c0,4.576,3.723,8.299,8.299,8.299
			s8.299-3.723,8.299-8.299C207.118,50.999,203.396,47.276,198.819,47.276z"/>
	</g>
	<g>
		<path class="st1" d="M204.816,93.557h-11.994c-2.426,0-4.398-1.973-4.398-4.398v-4.482c-0.962-0.344-1.907-0.735-2.831-1.173
			l-3.17,3.17c-1.714,1.714-4.504,1.715-6.22,0.001l-8.481-8.482c-0.831-0.83-1.289-1.935-1.289-3.11s0.458-2.28,1.29-3.111
			l3.168-3.169c-0.438-0.923-0.829-1.868-1.173-2.83h-4.482c-2.426,0-4.398-1.974-4.398-4.399V49.577
			c0-2.426,1.973-4.398,4.398-4.398h4.482c0.344-0.962,0.735-1.908,1.173-2.831l-3.169-3.17c-0.831-0.83-1.289-1.935-1.289-3.11
			c0-1.175,0.458-2.279,1.289-3.11l8.48-8.48c1.716-1.714,4.505-1.716,6.221,0l3.17,3.17c0.923-0.438,1.869-0.83,2.831-1.174v-4.481
			c0-2.426,1.973-4.399,4.398-4.399h11.994c2.426,0,4.398,1.974,4.398,4.399v4.481c0.962,0.344,1.908,0.735,2.831,1.174l3.17-3.17
			c1.715-1.715,4.506-1.715,6.221,0l8.48,8.48c0.831,0.831,1.289,1.936,1.289,3.11c0,1.176-0.458,2.28-1.29,3.111l-3.168,3.169
			c0.438,0.923,0.829,1.869,1.173,2.831h4.482c2.426,0,4.398,1.973,4.398,4.398v11.994c0,2.426-1.973,4.399-4.398,4.399h-4.482
			c-0.344,0.962-0.735,1.907-1.173,2.83l3.169,3.17c0.831,0.83,1.289,1.935,1.289,3.11s-0.458,2.28-1.29,3.111l-8.479,8.48
			c-1.716,1.716-4.507,1.714-6.221,0l-3.17-3.17c-0.924,0.438-1.869,0.829-2.831,1.173v4.482
			C209.215,91.584,207.242,93.557,204.816,93.557z M185.202,79.066c0.321,0,0.646,0.077,0.942,0.236
			c1.547,0.828,3.182,1.505,4.859,2.014c0.843,0.256,1.42,1.033,1.42,1.914v5.928c0,0.22,0.179,0.398,0.398,0.398h11.994
			c0.22,0,0.398-0.179,0.398-0.398V83.23c0-0.881,0.577-1.658,1.42-1.914c1.678-0.509,3.313-1.186,4.859-2.014
			c0.774-0.417,1.733-0.274,2.357,0.35l4.192,4.192c0.156,0.154,0.408,0.154,0.564,0l8.48-8.481
			c0.097-0.097,0.117-0.207,0.117-0.282s-0.021-0.186-0.116-0.281l-4.192-4.193c-0.623-0.623-0.765-1.581-0.35-2.357
			c0.828-1.547,1.505-3.181,2.014-4.858c0.256-0.844,1.033-1.42,1.914-1.42h5.928c0.22,0,0.398-0.179,0.398-0.399V49.577
			c0-0.22-0.179-0.398-0.398-0.398h-5.928c-0.881,0-1.658-0.577-1.914-1.42c-0.509-1.678-1.186-3.313-2.014-4.859
			c-0.415-0.776-0.273-1.734,0.35-2.357l4.191-4.192c0.097-0.097,0.117-0.207,0.117-0.282s-0.021-0.186-0.117-0.282l-8.48-8.48
			c-0.156-0.154-0.408-0.154-0.564,0l-4.192,4.192c-0.623,0.624-1.579,0.768-2.358,0.349c-1.545-0.827-3.18-1.505-4.858-2.014
			c-0.843-0.256-1.42-1.033-1.42-1.914v-5.927c0-0.221-0.179-0.399-0.398-0.399h-11.994c-0.22,0-0.398,0.179-0.398,0.399v5.927
			c0,0.881-0.577,1.658-1.42,1.914c-1.679,0.509-3.313,1.187-4.858,2.014c-0.779,0.418-1.735,0.274-2.358-0.349l-4.192-4.192
			c-0.156-0.154-0.409-0.155-0.565,0.001l-8.479,8.479c-0.097,0.097-0.117,0.207-0.117,0.282s0.021,0.186,0.116,0.281l4.192,4.193
			c0.623,0.623,0.765,1.581,0.35,2.357c-0.828,1.547-1.505,3.182-2.014,4.859c-0.256,0.843-1.033,1.42-1.914,1.42h-5.928
			c-0.22,0-0.398,0.179-0.398,0.398v11.994c0,0.221,0.179,0.399,0.398,0.399h5.928c0.881,0,1.658,0.576,1.914,1.42
			c0.509,1.678,1.186,3.312,2.014,4.858c0.415,0.776,0.273,1.734-0.35,2.357l-4.191,4.192c-0.097,0.097-0.117,0.207-0.117,0.282
			s0.021,0.186,0.116,0.281l8.481,8.482c0.156,0.154,0.408,0.154,0.564,0l4.192-4.192C184.172,79.268,184.684,79.066,185.202,79.066
			z M198.819,67.873c-6.781,0-12.299-5.518-12.299-12.299s5.518-12.298,12.299-12.298s12.299,5.517,12.299,12.298
			S205.601,67.873,198.819,67.873z M198.819,47.276c-4.576,0-8.299,3.723-8.299,8.298c0,4.576,3.723,8.299,8.299,8.299
			s8.299-3.723,8.299-8.299C207.118,50.999,203.396,47.276,198.819,47.276z"/>
	</g>
	<g>
		<path class="st1" d="M198.819,76.509c-11.543,0-20.935-9.392-20.935-20.935s9.392-20.935,20.935-20.935
			s20.935,9.392,20.935,20.935S210.362,76.509,198.819,76.509z M198.819,38.64c-9.338,0-16.935,7.597-16.935,16.935
			s7.597,16.935,16.935,16.935s16.935-7.597,16.935-16.935S208.157,38.64,198.819,38.64z M198.819,67.873
			c-6.781,0-12.299-5.518-12.299-12.299s5.518-12.298,12.299-12.298s12.299,5.517,12.299,12.298S205.601,67.873,198.819,67.873z
			 M198.819,47.276c-4.576,0-8.299,3.723-8.299,8.298c0,4.576,3.723,8.299,8.299,8.299s8.299-3.723,8.299-8.299
			C207.118,50.999,203.396,47.276,198.819,47.276z"/>
	</g>
	<g>
		<path class="st3" d="M232.558,248h-90.56v-26.061c0-10.717,8.688-19.406,19.406-19.406h51.748
			c10.717,0,19.406,8.688,19.406,19.406V248z"/>
	</g>
	<g>
		<path class="st7" d="M170.425,196.512c0,0.754,0,5.269,0,6.023c0,9.299,7.538,16.837,16.837,16.837s16.837-7.538,16.837-16.837
			v-0.002v-6.004C193.58,202.002,180.957,202.005,170.425,196.512z"/>
	</g>
	<g>
		<path class="st1" d="M232.559,250h-90.56c-1.104,0-2-0.896-2-2v-26.061c0-11.804,9.603-21.406,21.405-21.406h7.021v-4.021
			c0-0.699,0.365-1.348,0.963-1.71c0.6-0.363,1.343-0.387,1.962-0.063c9.962,5.194,21.859,5.201,31.827,0.017
			c0.62-0.321,1.362-0.297,1.961,0.064c0.597,0.363,0.962,1.011,0.962,1.71v4.004h7.053c11.804,0,21.406,9.603,21.406,21.406V248
			C234.559,249.104,233.663,250,232.559,250z M143.999,246h86.56v-24.061c0-9.598-7.809-17.406-17.406-17.406H204.1
			c-1.104,0-2-0.896-2-2v-2.861c-9.487,3.959-20.193,3.956-29.675-0.015v2.876c0,1.104-0.896,2-2,2h-9.021
			c-9.598,0-17.405,7.809-17.405,17.406V246z"/>
	</g>
	<g>
		<path class="st2" d="M203.117,99.852h-9.601c-3.438,0-6.227,2.773-6.257,6.204c-0.03-3.431-2.818-6.204-6.257-6.204h-9.601
			c-17.243,0-31.221,13.978-31.221,31.221v14.538c0,15.968,12.944,28.912,28.912,28.912h18.165h0.006h18.165
			c15.968,0,28.912-12.944,28.912-28.912v-14.538C234.339,113.831,220.36,99.852,203.117,99.852z"/>
	</g>
	<g>
		<path class="st1" d="M205.427,176.523h-36.335c-17.045,0-30.912-13.867-30.912-30.912v-14.537
			c0-18.318,14.903-33.222,33.222-33.222h9.601c2.493,0,4.739,1.12,6.257,2.884c1.519-1.764,3.765-2.884,6.258-2.884h9.601
			c18.318,0,33.222,14.903,33.222,33.222v14.537C236.339,162.656,222.472,176.523,205.427,176.523z M171.401,101.853
			c-16.113,0-29.222,13.108-29.222,29.222v14.537c0,14.84,12.072,26.912,26.912,26.912h36.335c14.84,0,26.912-12.072,26.912-26.912
			v-14.537c0-16.113-13.108-29.222-29.222-29.222h-9.601c-2.327,0-4.237,1.894-4.257,4.221c-0.01,1.099-0.902,1.983-2,1.983
			s-1.99-0.885-2-1.982c-0.021-2.328-1.931-4.222-4.258-4.222H171.401z"/>
	</g>
	<g>
		<path class="st7" d="M223.551,151.022v-3.396c0-19.852-16.24-35.945-36.272-35.945l0,0c-20.033,0-36.272,16.093-36.272,35.945
			v3.396c-6.298-0.128-11.295,4.89-11.295,10.955c0,6.476,5.654,11.599,12.253,10.901c3.743,15.903,18.129,27.752,35.314,27.752
			c17.187,0,31.571-11.85,35.314-27.752c6.591,0.697,12.253-4.416,12.253-10.901C234.846,155.909,229.845,150.895,223.551,151.022z"
			/>
	</g>
	<g>
		<path class="st1" d="M187.28,183.465c-2.749,0-5.315-0.997-7.041-2.735c-1.335-1.348-2.069-3.052-2.069-4.8c0-1.104,0.896-2,2-2
			s2,0.896,2,2c0,0.696,0.314,1.382,0.91,1.982c0.964,0.972,2.534,1.553,4.2,1.553c1.683,0,3.21-0.566,4.188-1.553
			c0.595-0.601,0.909-1.286,0.909-1.982c0-1.104,0.896-2,2-2s2,0.896,2,2c0,1.748-0.734,3.452-2.068,4.799
			C192.584,182.467,190.022,183.464,187.28,183.465z"/>
	</g>
	<g>
		<path class="st1" d="M206.11,170.228L206.11,170.228c-2.813,0-5.094-2.281-5.094-5.094V159.7c0-2.813,2.281-5.094,5.094-5.094l0,0
			c2.813,0,5.094,2.281,5.094,5.094v5.434C211.204,167.947,208.923,170.228,206.11,170.228z"/>
	</g>
	<g>
		<path class="st1" d="M168.438,170.228L168.438,170.228c-2.813,0-5.094-2.281-5.094-5.094V159.7c0-2.813,2.281-5.094,5.094-5.094
			l0,0c2.813,0,5.094,2.281,5.094,5.094v5.434C173.532,167.947,171.251,170.228,168.438,170.228z"/>
	</g>
	<g>
		<path class="st1" d="M187.278,202.63c-17.321,0-32.242-11.306-36.848-27.693c-3.107-0.084-6.106-1.263-8.429-3.353
			c-2.727-2.454-4.291-5.955-4.291-9.606c0-3.495,1.381-6.773,3.888-9.23c2.037-1.996,4.614-3.242,7.407-3.611v-1.51
			c0-20.923,17.169-37.945,38.272-37.945s38.272,17.022,38.272,37.945v1.51c2.793,0.369,5.37,1.615,7.407,3.611
			c2.507,2.457,3.888,5.734,3.888,9.23c0,3.651-1.563,7.152-4.289,9.605c-2.322,2.09-5.322,3.269-8.43,3.354
			C219.521,191.324,204.6,202.63,187.278,202.63z M151.967,170.879c0.918,0,1.73,0.631,1.945,1.542
			c3.632,15.432,17.353,26.209,33.366,26.209s29.735-10.777,33.367-26.209c0.231-0.981,1.15-1.626,2.157-1.531
			c2.616,0.277,5.135-0.532,7.078-2.28c1.884-1.695,2.965-4.112,2.965-6.632c0-2.412-0.954-4.675-2.688-6.373
			c-1.705-1.671-3.962-2.584-6.372-2.584c-0.065,0-0.13,0-0.194,0.002c-0.542-0.005-1.058-0.195-1.44-0.571
			c-0.384-0.376-0.601-0.892-0.601-1.429v-3.396c0-18.718-15.375-33.945-34.272-33.945s-34.272,15.228-34.272,33.945v3.396
			c0,0.537-0.217,1.053-0.601,1.429s-0.887,0.571-1.44,0.571c-2.479-0.09-4.815,0.866-6.566,2.581
			c-1.733,1.699-2.688,3.962-2.688,6.374c0,2.519,1.081,4.937,2.967,6.633c1.941,1.747,4.45,2.559,7.077,2.279
			C151.826,170.883,151.896,170.879,151.967,170.879z"/>
	</g>
	<g>
		<path class="st2" d="M226.694,148.525h-58.441c-8.868,0-16.057-7.189-16.057-16.057v-4.021c0-10.975,8.897-19.872,19.872-19.872
			h34.754c10.975,0,19.872,8.897,19.872,19.872V148.525z"/>
	</g>
	<g>
		<path class="st1" d="M226.694,150.524h-58.44c-9.956,0-18.057-8.101-18.057-18.057c0-0.416-0.004-0.835-0.008-1.258
			c-0.039-4.371-0.084-9.326,3.744-14.993c0.618-0.913,1.859-1.155,2.777-0.537c0.915,0.618,1.155,1.861,0.537,2.777
			c-3.132,4.635-3.095,8.743-3.059,12.717c0.004,0.435,0.008,0.866,0.008,1.294c0,7.751,6.306,14.057,14.057,14.057h56.443
			c0.007-2.63,0.027-4.977,0.045-7.086c0.115-13.367,0.143-16.544-3.454-21.489c-0.65-0.894-0.452-2.145,0.44-2.794
			c0.895-0.653,2.146-0.453,2.794,0.44c4.373,6.014,4.338,10.155,4.22,23.878c-0.022,2.619-0.048,5.607-0.048,9.051
			C228.694,149.629,227.799,150.524,226.694,150.524z"/>
	</g>
	<g>
		<path class="st7" d="M229.333,224.062h-18.385c-3.782,0-6.848-3.066-6.848-6.848v-16.226c0-2.521,2.044-4.565,4.565-4.565h22.951
			c2.521,0,4.565,2.044,4.565,4.565v16.226C236.181,220.996,233.115,224.062,229.333,224.062z"/>
	</g>
	<g>
		<path class="st1" d="M229.333,226.062h-18.386c-4.879,0-8.848-3.969-8.848-8.848v-16.227c0-3.62,2.945-6.565,6.565-6.565h22.95
			c3.62,0,6.565,2.945,6.565,6.565v16.227C238.181,222.093,234.212,226.062,229.333,226.062z M208.665,198.422
			c-1.415,0-2.565,1.15-2.565,2.565v16.227c0,2.673,2.175,4.848,4.848,4.848h18.386c2.673,0,4.848-2.175,4.848-4.848v-16.227
			c0-1.415-1.15-2.565-2.565-2.565H208.665z"/>
	</g>
</g>
</svg>
