<?xml version="1.0" encoding="utf-8"?>
<!-- Generator: Adobe Illustrator 22.1.0, SVG Export Plug-In . SVG Version: 6.00 Build 0)  -->
<svg version="1.1" id="Layer_1" xmlns="http://www.w3.org/2000/svg" xmlns:xlink="http://www.w3.org/1999/xlink" x="0px" y="0px"
	 viewBox="0 0 256 256" style="enable-background:new 0 0 256 256;" xml:space="preserve">
<style type="text/css">
	.st0{fill:#E0EBFC;}
	.st1{fill:#3762CC;}
	.st2{fill:#4671C6;}
	.st3{fill:#6BDDDD;}
	.st4{fill:#F9A7A7;}
	.st5{fill:#A4C9FF;}
	.st6{fill:#FFEA92;}
	.st7{fill:#F9CFCF;}
	.st8{fill:#FFE164;}
	.st9{fill:#FFDC85;}
	.st10{fill:#FFEA94;}
	.st11{fill:#B9BEFC;}
	.st12{fill:#EAA97D;}
</style>
<g>
	<g>
		<rect x="33" y="104.603" class="st2" width="190" height="118"/>
	</g>
	<g>
		<rect x="201" y="104.603" class="st0" width="22" height="118"/>
	</g>
	<g>
		<rect x="33" y="104.603" class="st0" width="22" height="118"/>
	</g>
	<g>
		<path class="st3" d="M150.614,186.546h-45.228c-1.959,0-3.547-1.588-3.547-3.547v-59.417c0-1.959,1.588-3.547,3.547-3.547h45.228
			c1.959,0,3.547,1.588,3.547,3.547v59.417C154.161,184.958,152.573,186.546,150.614,186.546z"/>
	</g>
	<g>
		<path class="st0" d="M123.395,163.85l-5.438-21.611v23.416c0,1.296-0.288,2.268-0.868,2.915c-0.578,0.648-1.345,0.972-2.302,0.972
			c-0.925,0-1.681-0.32-2.268-0.96c-0.586-0.64-0.879-1.616-0.879-2.927v-26.84c0-1.481,0.385-2.479,1.156-2.996
			c0.771-0.516,1.813-0.775,3.124-0.775h2.13c1.279,0,2.21,0.115,2.788,0.347c0.578,0.231,1.006,0.648,1.284,1.249
			s0.593,1.581,0.949,2.939l4.929,18.58l4.929-18.58c0.354-1.357,0.67-2.337,0.948-2.939s0.707-1.018,1.285-1.249
			c0.578-0.232,1.507-0.347,2.788-0.347h2.128c1.311,0,2.352,0.258,3.124,0.775c0.771,0.517,1.158,1.516,1.158,2.996v26.84
			c0,1.296-0.29,2.268-0.868,2.915c-0.578,0.648-1.354,0.972-2.326,0.972c-0.909,0-1.658-0.324-2.243-0.972
			c-0.587-0.648-0.88-1.62-0.88-2.915v-23.416l-5.438,21.611c-0.354,1.404-0.644,2.433-0.866,3.089
			c-0.224,0.656-0.636,1.253-1.239,1.793c-0.601,0.54-1.434,0.81-2.498,0.81c-0.802,0-1.481-0.174-2.036-0.521
			c-0.555-0.347-0.988-0.791-1.296-1.331c-0.308-0.539-0.552-1.137-0.728-1.793C123.762,165.242,123.581,164.56,123.395,163.85z"/>
	</g>
	<g>
		<path class="st1" d="M223,224.603h-22c-1.104,0-2-0.896-2-2v-118c0-1.104,0.896-2,2-2h22c1.104,0,2,0.896,2,2v118
			C225,223.707,224.104,224.603,223,224.603z M203,220.603h18v-114h-18V220.603z"/>
	</g>
	<g>
		<path class="st1" d="M55,224.603H33c-1.104,0-2-0.896-2-2v-118c0-1.104,0.896-2,2-2h22c1.104,0,2,0.896,2,2v118
			C57,223.707,56.104,224.603,55,224.603z M35,220.603h18v-114H35V220.603z"/>
	</g>
	<g>
		<path class="st0" d="M245,247.603H11c-1.657,0-3-1.343-3-3v-8c0-1.657,1.343-3,3-3h234c1.657,0,3,1.343,3,3v8
			C248,246.26,246.657,247.603,245,247.603z"/>
	</g>
	<g>
		<path class="st0" d="M242,233.603H14v-8c0-1.657,1.343-3,3-3h222c1.657,0,3,1.343,3,3V233.603z"/>
	</g>
	<g>
		<path class="st0" d="M18,69.103h220c2.209,0,4,1.791,4,4v12.5c0,2.209-1.791,4-4,4H18c-2.209,0-4-1.791-4-4v-12.5
			C14,70.894,15.791,69.103,18,69.103z"/>
	</g>
	<g>
		<path class="st0" d="M23,89.603h210v11c0,2.209-1.791,4-4,4H27c-2.209,0-4-1.791-4-4V89.603z"/>
	</g>
	<g>
		<path class="st0" d="M23,69.103h210L130.527,9.083c-1.561-0.914-3.493-0.914-5.054,0L23,69.103z"/>
	</g>
	<g>
		<path class="st5" d="M44.111,69.103h167.777l-81.87-47.952c-1.247-0.73-2.791-0.73-4.038,0L44.111,69.103z"/>
	</g>
	<g>
		<path class="st1" d="M245,249.603H11c-2.757,0-5-2.243-5-5v-8c0-2.757,2.243-5,5-5h234c2.757,0,5,2.243,5,5v8
			C250,247.359,247.757,249.603,245,249.603z M11,235.603c-0.551,0-1,0.449-1,1v8c0,0.551,0.449,1,1,1h234c0.552,0,1-0.449,1-1v-8
			c0-0.551-0.448-1-1-1H11z"/>
	</g>
	<g>
		<path class="st1" d="M238,91.603H18c-3.309,0-6-2.691-6-6v-12.5c0-3.309,2.691-6,6-6h220c3.309,0,6,2.691,6,6v12.5
			C244,88.911,241.309,91.603,238,91.603z M18,71.103c-1.103,0-2,0.897-2,2v12.5c0,1.103,0.897,2,2,2h220c1.103,0,2-0.897,2-2v-12.5
			c0-1.103-0.897-2-2-2H18z"/>
	</g>
	<g>
		<path class="st1" d="M229,106.603H27c-3.309,0-6-2.691-6-6v-11c0-1.104,0.896-2,2-2h210c1.104,0,2,0.896,2,2v11
			C235,103.911,232.309,106.603,229,106.603z M25,91.603v9c0,1.103,0.897,2,2,2h202c1.103,0,2-0.897,2-2v-9H25z"/>
	</g>
	<g>
		<path class="st1" d="M233,71.103H23c-0.903,0-1.694-0.605-1.93-1.477c-0.236-0.871,0.14-1.793,0.919-2.249l102.473-60.02
			c2.182-1.279,4.893-1.277,7.076,0l102.473,60.02c0.779,0.456,1.156,1.378,0.92,2.249C234.693,70.498,233.903,71.103,233,71.103z
			 M30.372,67.103h195.256l-96.111-56.294c-0.936-0.547-2.097-0.548-3.033,0L30.372,67.103z"/>
	</g>
	<g>
		<path class="st1" d="M211.889,71.103H44.111c-0.903,0-1.694-0.605-1.93-1.477c-0.236-0.871,0.14-1.793,0.919-2.249l81.87-47.952
			c1.869-1.095,4.192-1.095,6.059,0l81.87,47.952c0.779,0.456,1.156,1.378,0.92,2.249C213.582,70.498,212.792,71.103,211.889,71.103
			z M51.483,67.103h153.033l-75.509-44.227c-0.623-0.365-1.395-0.364-2.016,0L51.483,67.103z"/>
	</g>
	<g>
		<rect x="169" y="104.603" class="st0" width="22" height="118"/>
	</g>
	<g>
		<path class="st1" d="M191,224.603h-22c-1.104,0-2-0.896-2-2v-118c0-1.104,0.896-2,2-2h22c1.104,0,2,0.896,2,2v118
			C193,223.707,192.104,224.603,191,224.603z M171,220.603h18v-114h-18V220.603z"/>
	</g>
	<g>
		<rect x="65" y="104.603" class="st0" width="22" height="118"/>
	</g>
	<g>
		<path class="st1" d="M87,224.603H65c-1.104,0-2-0.896-2-2v-118c0-1.104,0.896-2,2-2h22c1.104,0,2,0.896,2,2v118
			C89,223.707,88.104,224.603,87,224.603z M67,220.603h18v-114H67V220.603z"/>
	</g>
	<g>
		<path class="st7" d="M128,198.108c-17.728,0-32.15-11.423-32.15-25.463c0-1.381,1.119-2.5,2.5-2.5s2.5,1.119,2.5,2.5
			c0,11.283,12.18,20.463,27.15,20.463s27.15-9.18,27.15-20.463c0-1.381,1.119-2.5,2.5-2.5s2.5,1.119,2.5,2.5
			C160.15,186.686,145.728,198.108,128,198.108z"/>
	</g>
	<g>
		<path class="st4" d="M166.374,222.603h-17.447v-5.234c0-0.964,0.781-1.745,1.745-1.745h13.957c0.964,0,1.745,0.781,1.745,1.745
			V222.603z"/>
	</g>
	<g>
		<circle class="st4" cx="157.651" cy="170.793" r="5.94"/>
	</g>
	<g>
		<path class="st4" d="M157.651,176.733c-1.306,0-2.509-0.426-3.489-1.14v40.031h6.979v-40.031
			C160.16,176.307,158.956,176.733,157.651,176.733z"/>
	</g>
	<g>
		<path class="st4" d="M107.073,222.603H89.626v-5.234c0-0.964,0.781-1.745,1.745-1.745h13.957c0.964,0,1.745,0.781,1.745,1.745
			V222.603z"/>
	</g>
	<g>
		<circle class="st4" cx="98.349" cy="170.793" r="5.94"/>
	</g>
	<g>
		<path class="st4" d="M98.349,176.733c-1.306,0-2.509-0.426-3.489-1.14v40.031h6.979v-40.031
			C100.858,176.307,99.655,176.733,98.349,176.733z"/>
	</g>
	<g>
		<path class="st1" d="M242,235.603H14c-1.104,0-2-0.896-2-2v-8c0-2.757,2.243-5,5-5h222c2.757,0,5,2.243,5,5v8
			C244,234.707,243.104,235.603,242,235.603z M16,231.603h224v-6c0-0.551-0.448-1-1-1H17c-0.551,0-1,0.449-1,1V231.603z"/>
	</g>
</g>
</svg>
