<?xml version="1.0" encoding="utf-8"?>
<!-- Generator: Adobe Illustrator 22.1.0, SVG Export Plug-In . SVG Version: 6.00 Build 0)  -->
<svg version="1.1" id="Layer_1" xmlns="http://www.w3.org/2000/svg" xmlns:xlink="http://www.w3.org/1999/xlink" x="0px" y="0px"
	 viewBox="0 0 256 256" style="enable-background:new 0 0 256 256;" xml:space="preserve">
<style type="text/css">
	.st0{fill:#E0EBFC;}
	.st1{fill:#3762CC;}
	.st2{fill:#4671C6;}
	.st3{fill:#6BDDDD;}
	.st4{fill:#F9A7A7;}
	.st5{fill:#A4C9FF;}
	.st6{fill:#FFEA92;}
	.st7{fill:#F9CFCF;}
	.st8{fill:#FFE164;}
	.st9{fill:#FFDC85;}
	.st10{fill:#FFEA94;}
	.st11{fill:#B9BEFC;}
	.st12{fill:#EAA97D;}
</style>
<g>
	<g>
		<path class="st0" d="M238,189.833H18c-5.523,0-10-4.477-10-10v-146.5c0-5.523,4.477-10,10-10h220c5.523,0,10,4.477,10,10v146.5
			C248,185.356,243.523,189.833,238,189.833z"/>
	</g>
	<g>
		<path class="st3" d="M16.5,146V36c0-2.209,1.791-4,4-4h215c2.209,0,4,1.791,4,4v110c0,2.209-1.791,4-4,4h-215
			C18.291,150,16.5,148.209,16.5,146z"/>
	</g>
	<g>
		<path class="st5" d="M180.67,245H75.33c-4.048,0-7.33-3.282-7.33-7.33v-0.007c0-4.048,3.282-7.33,7.33-7.33h105.34
			c4.048,0,7.33,3.282,7.33,7.33v0.007C188,241.718,184.718,245,180.67,245z"/>
	</g>
	<g>
		<path class="st0" d="M163.667,189.833c-8.104,0-62.303,0-71.333,0L81,230.333c10.522,0,83.48,0,94,0L163.667,189.833z"/>
	</g>
	<g>
		<path class="st5" d="M8,179.833c0,5.523,4.477,10,10,10h220c5.523,0,10-4.477,10-10v-21.5H8V179.833z"/>
	</g>
	<g>
		<circle class="st2" cx="128" cy="174.083" r="10.333"/>
	</g>
	<g>
		<path class="st1" d="M238,191.834H18c-6.617,0-12-5.383-12-12V33.333c0-6.617,5.383-12,12-12h220c6.617,0,12,5.383,12,12v146.501
			C250,186.451,244.617,191.834,238,191.834z M18,25.333c-4.411,0-8,3.589-8,8v146.501c0,4.411,3.589,8,8,8h220c4.411,0,8-3.589,8-8
			V33.333c0-4.411-3.589-8-8-8H18z"/>
	</g>
	<g>
		<path class="st1" d="M235.5,152h-215c-3.309,0-6-2.691-6-6V36c0-3.309,2.691-6,6-6h215c3.309,0,6,2.691,6,6v110
			C241.5,149.309,238.809,152,235.5,152z M20.5,34c-1.103,0-2,0.897-2,2v110c0,1.103,0.897,2,2,2h215c1.103,0,2-0.897,2-2V36
			c0-1.103-0.897-2-2-2H20.5z"/>
	</g>
	<g>
		<path class="st1" d="M180.67,247H75.33c-5.145,0-9.33-4.186-9.33-9.33c0-5.151,4.186-9.336,9.33-9.336h105.34
			c5.145,0,9.33,4.185,9.33,9.329C190,242.814,185.814,247,180.67,247z M75.33,232.334c-2.939,0-5.33,2.391-5.33,5.329
			c0,2.946,2.391,5.337,5.33,5.337h105.34c2.939,0,5.33-2.391,5.33-5.33c0-2.945-2.391-5.336-5.33-5.336H75.33z"/>
	</g>
	<g>
		<path class="st1" d="M175,232.334H81c-0.626,0-1.215-0.293-1.594-0.791c-0.378-0.499-0.501-1.146-0.332-1.748l11.333-40.5
			c0.241-0.863,1.028-1.461,1.926-1.461h71.334c0.897,0,1.685,0.598,1.926,1.461l11.333,40.5c0.169,0.603,0.046,1.249-0.332,1.748
			C176.215,232.041,175.626,232.334,175,232.334z M83.637,228.334h88.727l-10.214-36.5H93.851L83.637,228.334z"/>
	</g>
	<g>
		<path class="st1" d="M238,191.834H18c-6.617,0-12-5.383-12-12v-21.5c0-1.104,0.896-2,2-2h240c1.104,0,2,0.896,2,2v21.5
			C250,186.451,244.617,191.834,238,191.834z M10,160.334v19.5c0,4.411,3.589,8,8,8h220c4.411,0,8-3.589,8-8v-19.5H10z"/>
	</g>
	<g>
		<path class="st7" d="M89.74,35v85.568c0,4.418,3.582,8,8,8h121.042c4.418,0,8-3.582,8-8V35H89.74z"/>
	</g>
	<g>
		<path class="st6" d="M207.509,98.3c0-9.78,0-16.901,0-26.123c-0.01,0.004-0.016,0.011-0.025,0.014l-2.1,0.807
			c0,6.913,0,19.667,0,25.302c-0.756,0.387-1.275,1.173-1.275,2.081v5.596h4.675v-5.596C208.784,99.472,208.265,98.687,207.509,98.3
			z"/>
	</g>
	<g>
		<path class="st2" d="M155.201,50.556l-46.469,17.851c-1.733,0.666-1.733,3.118,0,3.784l46.469,17.851
			c1.872,0.719,3.943,0.719,5.815,0l46.469-17.851c1.733-0.666,1.733-3.118,0-3.784l-46.469-17.851
			C159.144,49.837,157.072,49.837,155.201,50.556z"/>
	</g>
	<g>
		<path class="st1" d="M158.108,92.583c-1.229,0-2.456-0.225-3.625-0.675l-46.468-17.85c-1.569-0.604-2.583-2.078-2.583-3.759
			c0-1.682,1.014-3.156,2.582-3.76l46.47-17.852l0,0c2.335-0.896,4.909-0.896,7.248,0l46.469,17.852
			c1.569,0.604,2.583,2.078,2.583,3.76c0,1.681-1.014,3.155-2.582,3.759l-46.47,17.851
			C160.564,92.358,159.336,92.583,158.108,92.583z M155.918,52.423l-46.469,17.852l46.469,17.9c1.411,0.542,2.967,0.543,4.38,0
			l46.47-17.851l-46.469-17.901C158.885,51.88,157.33,51.88,155.918,52.423L155.918,52.423z"/>
	</g>
	<g>
		<path class="st2" d="M188.179,72.872h-59.95c-0.548,0-0.993,0.445-0.993,0.993v14.802c0,3.267,13.865,5.916,30.967,5.916
			s30.967-2.649,30.967-5.916h0.001V73.865C189.172,73.316,188.728,72.872,188.179,72.872z"/>
	</g>
	<g>
		<path class="st1" d="M158.204,96.582c-5.505,0-32.967-0.382-32.967-7.916V73.864c0-1.649,1.343-2.992,2.992-2.992h59.95
			c1.65,0,2.992,1.343,2.992,2.992v14.802C191.172,96.2,163.709,96.582,158.204,96.582z M129.237,88.416
			c1.394,1.47,11.202,4.166,28.967,4.166s27.574-2.696,28.968-4.166V74.872h-57.935V88.416z M188.18,74.872h0.01H188.18z"/>
	</g>
	<g>
		<circle class="st0" cx="158.108" cy="102.142" r="17.5"/>
	</g>
	<g>
		<path class="st4" d="M151.721,95.43v13.426c0,1.503,1.596,2.469,2.928,1.772l11.881-6.224c1.379-0.723,1.44-2.675,0.109-3.482
			l-11.881-7.202C153.425,92.911,151.721,93.871,151.721,95.43z"/>
	</g>
	<g>
		<path class="st4" d="M89.74,19v16h137.042V19c0-4.418-3.582-8-8-8H97.74C93.321,11,89.74,14.582,89.74,19z"/>
	</g>
	<g>
		<path class="st5" d="M198.861,27.2h-7.2c-0.663,0-1.2-0.537-1.2-1.2v-6c0-0.663,0.537-1.2,1.2-1.2h7.2c0.663,0,1.2,0.537,1.2,1.2
			v6C200.061,26.663,199.523,27.2,198.861,27.2z"/>
	</g>
	<g>
		<path class="st5" d="M218.061,27.2h-7.2c-0.663,0-1.2-0.537-1.2-1.2v-6c0-0.663,0.537-1.2,1.2-1.2h7.2c0.663,0,1.2,0.537,1.2,1.2
			v6C219.261,26.663,218.723,27.2,218.061,27.2z"/>
	</g>
	<g>
		<path class="st5" d="M179.661,27.2h-7.2c-0.663,0-1.2-0.537-1.2-1.2v-6c0-0.663,0.537-1.2,1.2-1.2h7.2c0.663,0,1.2,0.537,1.2,1.2
			v6C180.861,26.663,180.323,27.2,179.661,27.2z"/>
	</g>
	<g>
		<path class="st1" d="M226.781,37H89.739c-1.104,0-2-0.896-2-2V19c0-5.514,4.486-10,10-10h121.042c5.514,0,10,4.486,10,10v16
			C228.781,36.104,227.886,37,226.781,37z M91.739,33h133.042V19c0-3.309-2.691-6-6-6H97.739c-3.309,0-6,2.691-6,6V33z"/>
	</g>
	<g>
		<path class="st1" d="M218.781,130.568H97.739c-5.514,0-10-4.486-10-10V35c0-1.104,0.896-2,2-2h137.042c1.104,0,2,0.896,2,2v85.568
			C228.781,126.082,224.295,130.568,218.781,130.568z M91.739,37v83.568c0,3.309,2.691,6,6,6h121.042c3.309,0,6-2.691,6-6V37H91.739
			z"/>
	</g>
	<g>
		<path class="st7" d="M63.888,110.746c-4.887,0-9.46-1.319-13.386-3.611v5.97l0.013-0.008l13.386,3.008l0,0l13.373-3.005v-5.966
			C73.348,109.427,68.775,110.746,63.888,110.746z"/>
	</g>
	<g>
		<path class="st0" d="M97.648,150H30.14v-19.427c0-7.989,6.477-14.466,14.466-14.466h38.576c7.989,0,14.466,6.477,14.466,14.466
			V150z"/>
	</g>
	<g>
		<path class="st4" d="M59.745,127.205L56.024,150c5.688,0,10.038,0,15.727,0l-3.721-22.795H59.745z"/>
	</g>
	<g>
		<path class="st1" d="M71.751,152H56.024c-0.587,0-1.144-0.258-1.523-0.705c-0.381-0.446-0.545-1.038-0.45-1.617l3.721-22.795
			c0.157-0.968,0.993-1.678,1.974-1.678h8.285c0.98,0,1.816,0.71,1.974,1.678l3.721,22.795c0.095,0.579-0.069,1.171-0.45,1.617
			C72.895,151.742,72.338,152,71.751,152z M58.377,148h11.021l-3.068-18.795h-4.885L58.377,148z"/>
	</g>
	<g>
		<path class="st4" d="M63.9,116.107l-5.244,6.686l1.089,4.412c2.998,0,5.288,0,8.285,0l1.095-4.437L63.9,116.107z"/>
	</g>
	<g>
		<path class="st1" d="M97.647,152H30.141c-1.104,0-2-0.896-2-2v-19.427c0-9.079,7.387-16.466,16.466-16.466h0.04l3.855-2.171
			v-4.802c0-0.717,0.383-1.378,1.004-1.734c0.621-0.355,1.386-0.355,2.005,0.008c3.739,2.184,8.019,3.338,12.377,3.338
			c4.357,0,8.638-1.154,12.377-3.338c0.619-0.361,1.384-0.362,2.005-0.007c0.621,0.356,1.004,1.019,1.004,1.734v4.786l3.908,2.186
			c9.079,0,16.466,7.387,16.466,16.466V150C99.647,151.104,98.752,152,97.647,152z M32.141,148h63.507v-17.427
			c0-6.874-5.592-12.466-12.466-12.466h-0.551c-0.344,0-0.682-0.089-0.981-0.257l-5.233-2.947c-0.113-0.055-0.222-0.119-0.324-0.195
			c-0.511-0.377-0.818-0.972-0.818-1.606v-2.715c-7.148,3.102-15.623,3.101-22.771-0.001v2.72c0,0.723-0.39,1.389-1.02,1.743
			l-5.332,3.001c-0.298,0.168-0.635,0.256-0.977,0.257l-0.563,0.001c-6.878,0-12.47,5.592-12.47,12.466V148z"/>
	</g>
	<g>
		<path class="st1" d="M68.03,129.205h-8.285c-0.92,0-1.722-0.628-1.941-1.521l-1.089-4.412c-0.147-0.598-0.012-1.229,0.368-1.714
			l5.244-6.686c0.379-0.483,0.959-0.766,1.573-0.766l0,0c0.614,0,1.194,0.282,1.573,0.766l5.225,6.661
			c0.38,0.484,0.516,1.116,0.368,1.714l-1.095,4.437C69.752,128.577,68.95,129.205,68.03,129.205z M61.312,125.205h5.152
			l0.486-1.969l-3.05-3.889l-3.068,3.913L61.312,125.205z"/>
	</g>
	<g>
		<path class="st0" d="M63.901,116.106l-13.386-3.008l-5.345,3.008l8.415,10.729c0.484,0.617,1.417,0.617,1.901,0L63.901,116.106z"
			/>
	</g>
	<g>
		<path class="st0" d="M63.9,116.107l13.386-3.008l5.345,3.008l-8.415,10.729c-0.484,0.617-1.417,0.617-1.901,0L63.9,116.107z"/>
	</g>
	<g>
		<path class="st1" d="M54.535,129.298L54.535,129.298c-0.993-0.001-1.913-0.448-2.524-1.229l-8.414-10.728
			c-0.36-0.459-0.502-1.053-0.389-1.625c0.114-0.572,0.473-1.066,0.98-1.353l5.345-3.009c0.432-0.243,0.939-0.318,1.42-0.208
			l13.387,3.009c0.67,0.15,1.215,0.634,1.445,1.28c0.23,0.646,0.113,1.365-0.311,1.905l-8.415,10.729
			C56.447,128.851,55.527,129.298,54.535,129.298z M48.182,116.706l6.354,8.101l5.839-7.443l-9.548-2.146L48.182,116.706z"/>
	</g>
	<g>
		<path class="st1" d="M73.266,129.298c-0.991,0-1.911-0.446-2.523-1.226l-8.416-10.731c-0.423-0.54-0.54-1.26-0.31-1.906
			c0.23-0.646,0.775-1.129,1.445-1.279l13.386-3.008c0.48-0.11,0.989-0.035,1.419,0.208l5.345,3.008
			c0.509,0.286,0.867,0.78,0.981,1.353c0.113,0.572-0.028,1.166-0.389,1.625l-8.415,10.729
			C75.178,128.851,74.259,129.298,73.266,129.298L73.266,129.298z M67.428,117.363l5.838,7.444l6.354-8.102l-2.645-1.487
			L67.428,117.363z"/>
	</g>
	<g>
		<path class="st7" d="M90.324,74.59v-2.475c0-14.469-11.836-26.198-26.436-26.198l0,0c-14.6,0-26.436,11.729-26.436,26.198v2.475
			c-4.59-0.093-8.232,3.564-8.232,7.984c0,4.72,4.121,8.454,8.931,7.945c2.728,11.591,13.213,20.226,25.738,20.226
			c12.526,0,23.01-8.636,25.738-20.226c4.803,0.508,8.931-3.219,8.931-7.945C98.556,78.152,94.912,74.497,90.324,74.59z"/>
	</g>
	<g>
		<path class="st4" d="M68.638,101.457L68.638,101.457c-2.433,2.452-7.133,2.394-9.508,0l0,0c-1.461-1.473-1.262-2.748-1.262-4.628
			H69.9C69.9,98.641,70.122,99.961,68.638,101.457z"/>
	</g>
	<g>
		<path class="st1" d="M77.614,90.841c-2.049,0-3.713-1.66-3.713-3.713v-3.96c0-2.05,1.662-3.713,3.713-3.713
			c2.049,0,3.713,1.66,3.713,3.713v3.96C81.326,89.179,79.664,90.841,77.614,90.841z"/>
	</g>
	<g>
		<path class="st1" d="M50.157,90.841L50.157,90.841c-2.05,0-3.713-1.662-3.713-3.713v-3.96c0-2.05,1.662-3.713,3.713-3.713h0
			c2.05,0,3.713,1.662,3.713,3.713v3.96C53.87,89.179,52.208,90.841,50.157,90.841z"/>
	</g>
	<g>
		<path class="st1" d="M63.888,112.746c-12.736,0-23.727-8.229-27.27-20.203c-2.25-0.149-4.403-1.044-6.092-2.563
			c-2.103-1.891-3.308-4.59-3.308-7.405c0-2.694,1.064-5.221,2.996-7.114c1.454-1.425,3.267-2.354,5.236-2.71v-0.635
			c0-15.549,12.757-28.198,28.437-28.198s28.437,12.649,28.437,28.198v0.635c1.97,0.355,3.782,1.285,5.236,2.711
			c1.932,1.893,2.996,4.419,2.996,7.113c0,2.815-1.205,5.515-3.307,7.405c-1.689,1.521-3.844,2.414-6.093,2.563
			C87.614,104.518,76.624,112.746,63.888,112.746z M38.151,88.52c0.917,0,1.73,0.631,1.945,1.542
			c2.589,11.001,12.372,18.685,23.791,18.685c11.418,0,21.202-7.684,23.791-18.685c0.231-0.981,1.152-1.627,2.158-1.531
			c1.754,0.191,3.438-0.354,4.737-1.524c1.278-1.149,1.982-2.724,1.982-4.432c0-1.61-0.638-3.122-1.796-4.257
			c-1.171-1.147-2.692-1.782-4.396-1.728c-0.503-0.019-1.057-0.196-1.439-0.571c-0.385-0.376-0.601-0.892-0.601-1.429v-2.475
			c0-13.343-10.962-24.198-24.437-24.198S39.451,58.772,39.451,72.115v2.475c0,0.537-0.216,1.053-0.601,1.429
			c-0.374,0.366-0.877,0.571-1.399,0.571c-0.06,0.002-0.114-0.002-0.17-0.002c-1.615,0-3.126,0.611-4.267,1.729
			c-1.158,1.135-1.796,2.646-1.796,4.257c0,1.683,0.723,3.298,1.982,4.432c1.299,1.169,2.975,1.714,4.738,1.524
			C38.01,88.523,38.081,88.52,38.151,88.52z"/>
	</g>
	<g>
		<path class="st2" d="M96.635,60.714c0-18.521-20.147-29.126-32.747-21.609C51.517,31.725,31.14,41.94,31.14,60.714
			c0,13.816-0.094,13.933,0.32,16.341c1.495-1.55,3.613-2.513,5.991-2.465c0-3.847-0.001-2.073,0.013-2.904h25.134
			c6.965,0,12.611-5.646,12.611-12.611v-3.083c0,8.47,6.711,15.369,15.106,15.678c0.011,0.667,0.009-0.56,0.009,2.919
			c2.378-0.048,4.496,0.915,5.991,2.465C96.729,74.649,96.635,74.554,96.635,60.714z"/>
	</g>
	<g>
		<path class="st1" d="M50.156,97.295c-6.874,0-12.466-5.592-12.466-12.465c0-6.874,5.592-12.466,12.466-12.466
			c6.873,0,12.465,5.592,12.465,12.466C62.621,91.703,57.029,97.295,50.156,97.295z M50.156,76.364
			c-4.668,0-8.466,3.798-8.466,8.466s3.798,8.465,8.466,8.465s8.465-3.797,8.465-8.465S54.824,76.364,50.156,76.364z"/>
	</g>
	<g>
		<path class="st1" d="M77.612,97.295c-6.874,0-12.466-5.592-12.466-12.465c0-6.874,5.592-12.466,12.466-12.466
			s12.466,5.592,12.466,12.466C90.078,91.703,84.486,97.295,77.612,97.295z M77.612,76.364c-4.668,0-8.466,3.798-8.466,8.466
			s3.798,8.465,8.466,8.465s8.466-3.797,8.466-8.465S82.28,76.364,77.612,76.364z"/>
	</g>
	<g>
		<path class="st1" d="M68.388,86.835h-9c-1.104,0-2-0.896-2-2s0.896-2,2-2h9c1.104,0,2,0.896,2,2S69.492,86.835,68.388,86.835z"/>
	</g>
	<g>
		<path class="st1" d="M63.895,104.774c-2.278,0-4.403-0.824-5.829-2.261c-1.742-1.758-1.722-3.457-1.702-5.101l0.005-0.584
			c0-0.828,0.672-1.5,1.5-1.5h12.031c0.828,0,1.5,0.672,1.5,1.5l0.006,0.603c0.024,1.63,0.05,3.315-1.703,5.082l0,0
			C68.277,103.95,66.16,104.774,63.895,104.774z M59.362,98.329c0.023,0.885,0.169,1.402,0.833,2.072
			c0.854,0.859,2.236,1.373,3.699,1.373c1.472,0,2.813-0.501,3.679-1.374l0,0c0.668-0.673,0.813-1.21,0.835-2.071H59.362z"/>
	</g>
	<g>
		<path class="st1" d="M31.46,79.056c-0.196,0-0.395-0.029-0.588-0.089c-0.721-0.221-1.256-0.829-1.383-1.572
			c-0.367-2.134-0.366-2.597-0.354-10.333l0.006-6.347c0-9.469,4.952-17.934,13.248-22.645c7.088-4.024,15.21-4.471,21.499-1.25
			c6.291-3.224,14.388-2.8,21.429,1.2c8.34,4.735,13.318,13.22,13.318,22.694l0.006,6.324c0.012,7.756,0.013,8.221-0.354,10.355
			c-0.127,0.742-0.662,1.351-1.382,1.572c-0.723,0.222-1.505,0.021-2.028-0.522c-1.188-1.23-2.811-1.905-4.511-1.854
			c-0.542-0.02-1.058-0.196-1.44-0.571c-0.384-0.376-0.601-0.892-0.601-1.429v-1.093c-5.317-0.768-9.828-3.86-12.504-8.211
			c-2.339,4.959-7.387,8.399-13.223,8.399H39.451c0,0.061,0,0.123,0,0.188v0.717c0,0.537-0.217,1.053-0.601,1.429
			s-0.913,0.557-1.44,0.571c-1.709-0.051-3.325,0.622-4.511,1.853C32.517,78.841,31.995,79.056,31.46,79.056z M92.324,72.751
			c0.799,0.144,1.569,0.382,2.302,0.71c0.022-1.265,0.02-3.175,0.015-6.416l-0.006-6.33c0-8.017-4.222-15.201-11.294-19.217
			c-6.181-3.51-13.242-3.768-18.429-0.675c-0.631,0.377-1.418,0.377-2.049,0c-5.18-3.091-12.269-2.813-18.499,0.726
			c-7.028,3.99-11.224,11.155-11.224,19.166l-0.006,6.353c-0.005,3.219-0.007,5.129,0.016,6.393c0.732-0.328,1.505-0.566,2.303-0.71
			c0.004-0.383,0.01-0.681,0.024-0.919L35.46,71.83l0.004-0.177c0.019-1.091,0.908-1.967,2-1.967h25.134
			c5.851,0,10.61-4.76,10.61-10.611v-3.082c0-1.104,0.896-2,2-2s2,0.896,2,2c0,7.398,5.789,13.407,13.18,13.68
			c1.063,0.039,1.908,0.901,1.927,1.964l0.005,0.196C92.322,71.902,92.324,71.914,92.324,72.751z"/>
	</g>
</g>
</svg>
