<?xml version="1.0" encoding="utf-8"?>
<!-- Generator: Adobe Illustrator 22.1.0, SVG Export Plug-In . SVG Version: 6.00 Build 0)  -->
<svg version="1.1" id="Layer_1" xmlns="http://www.w3.org/2000/svg" xmlns:xlink="http://www.w3.org/1999/xlink" x="0px" y="0px"
	 viewBox="0 0 256 256" style="enable-background:new 0 0 256 256;" xml:space="preserve">
<style type="text/css">
	.st0{fill:#E0EBFC;}
	.st1{fill:#3762CC;}
	.st2{fill:#4671C6;}
	.st3{fill:#6BDDDD;}
	.st4{fill:#F9A7A7;}
	.st5{fill:#A4C9FF;}
	.st6{fill:#FFEA92;}
	.st7{fill:#F9CFCF;}
	.st8{fill:#FFE164;}
	.st9{fill:#FFDC85;}
	.st10{fill:#FFEA94;}
	.st11{fill:#B9BEFC;}
	.st12{fill:#EAA97D;}
</style>
<g>
	<g>
		<path class="st0" d="M238,192.833H18c-5.523,0-10-4.477-10-10v-146.5c0-5.523,4.477-10,10-10h220c5.523,0,10,4.477,10,10v146.5
			C248,188.356,243.523,192.833,238,192.833z"/>
	</g>
	<g>
		<path class="st3" d="M16.5,149V39c0-2.209,1.791-4,4-4h215c2.209,0,4,1.791,4,4v110c0,2.209-1.791,4-4,4h-215
			C18.291,153,16.5,151.209,16.5,149z"/>
	</g>
	<g>
		<path class="st5" d="M180.67,248H75.33c-4.048,0-7.33-3.282-7.33-7.33v-0.007c0-4.048,3.282-7.33,7.33-7.33h105.34
			c4.048,0,7.33,3.282,7.33,7.33v0.007C188,244.718,184.718,248,180.67,248z"/>
	</g>
	<g>
		<path class="st0" d="M163.667,192.833c-8.104,0-62.303,0-71.333,0L81,233.333c10.522,0,83.48,0,94,0L163.667,192.833z"/>
	</g>
	<g>
		<path class="st5" d="M8,182.833c0,5.523,4.477,10,10,10h220c5.523,0,10-4.477,10-10v-21.5H8V182.833z"/>
	</g>
	<g>
		<circle class="st2" cx="128" cy="177.083" r="10.333"/>
	</g>
	<g>
		<path class="st1" d="M238,194.834H18c-6.617,0-12-5.383-12-12V36.333c0-6.617,5.383-12,12-12h220c6.617,0,12,5.383,12,12v146.501
			C250,189.451,244.617,194.834,238,194.834z M18,28.333c-4.411,0-8,3.589-8,8v146.501c0,4.411,3.589,8,8,8h220c4.411,0,8-3.589,8-8
			V36.333c0-4.411-3.589-8-8-8H18z"/>
	</g>
	<g>
		<path class="st1" d="M235.5,155h-215c-3.309,0-6-2.691-6-6V39c0-3.309,2.691-6,6-6h215c3.309,0,6,2.691,6,6v110
			C241.5,152.309,238.809,155,235.5,155z M20.5,37c-1.103,0-2,0.897-2,2v110c0,1.103,0.897,2,2,2h215c1.103,0,2-0.897,2-2V39
			c0-1.103-0.897-2-2-2H20.5z"/>
	</g>
	<g>
		<path class="st1" d="M180.67,250H75.33c-5.145,0-9.33-4.186-9.33-9.33c0-5.151,4.186-9.336,9.33-9.336h105.34
			c5.145,0,9.33,4.185,9.33,9.329C190,245.814,185.814,250,180.67,250z M75.33,235.334c-2.939,0-5.33,2.391-5.33,5.329
			c0,2.946,2.391,5.337,5.33,5.337h105.34c2.939,0,5.33-2.391,5.33-5.33c0-2.945-2.391-5.336-5.33-5.336H75.33z"/>
	</g>
	<g>
		<path class="st1" d="M175,235.334H81c-0.626,0-1.215-0.293-1.594-0.791c-0.378-0.499-0.501-1.146-0.332-1.748l11.333-40.5
			c0.241-0.863,1.028-1.461,1.926-1.461h71.334c0.897,0,1.685,0.598,1.926,1.461l11.333,40.5c0.169,0.603,0.046,1.249-0.332,1.748
			C176.215,235.041,175.626,235.334,175,235.334z M83.637,231.334h88.727l-10.214-36.5H93.851L83.637,231.334z"/>
	</g>
	<g>
		<path class="st1" d="M238,194.834H18c-6.617,0-12-5.383-12-12v-21.5c0-1.104,0.896-2,2-2h240c1.104,0,2,0.896,2,2v21.5
			C250,189.451,244.617,194.834,238,194.834z M10,163.334v19.5c0,4.411,3.589,8,8,8h220c4.411,0,8-3.589,8-8v-19.5H10z"/>
	</g>
	<g>
		<rect x="48" y="35" class="st0" width="160" height="118"/>
	</g>
	<g>
		<path class="st1" d="M208,155H48c-1.104,0-2-0.896-2-2V35c0-1.104,0.896-2,2-2h160c1.104,0,2,0.896,2,2v118
			C210,154.104,209.104,155,208,155z M50,151h156V37H50V151z"/>
	</g>
	<g>
		<path class="st4" d="M48,14v21h160V14c0-3.314-2.686-6-6-6H54C50.686,8,48,10.686,48,14z"/>
	</g>
	<g>
		<path class="st1" d="M208,37H48c-1.104,0-2-0.896-2-2V14c0-4.411,3.589-8,8-8h148c4.411,0,8,3.589,8,8v21
			C210,36.104,209.104,37,208,37z M50,33h156V14c0-2.206-1.794-4-4-4H54c-2.206,0-4,1.794-4,4V33z"/>
	</g>
	<g>
		<path class="st2" d="M187.88,91.198H68.121c-1.971,0-2.838-2.485-1.295-3.711l59.879-47.579c0.758-0.602,1.831-0.602,2.589,0
			l59.88,47.579C190.717,88.713,189.85,91.198,187.88,91.198z"/>
	</g>
	<g>
		<path class="st5" d="M81.972,91.198v45.603c0,4.16,3.372,7.532,7.532,7.532h76.992c4.16,0,7.532-3.372,7.532-7.532V91.198H81.972z
			"/>
	</g>
	<g>
		<path class="st3" d="M128,140.014c-20.365,0-36.934-16.568-36.934-36.934S107.635,66.147,128,66.147
			c20.365,0,36.934,16.568,36.934,36.934S148.365,140.014,128,140.014z"/>
	</g>
	<g>
		<circle class="st4" cx="128" cy="103.08" r="28.492"/>
	</g>
	<g>
		<path class="st2" d="M127.999,118.8h-21.776c-0.523,0-0.947-0.424-0.947-0.947V89.78c0-0.523,0.424-0.947,0.947-0.947h20.084
			c0.935,0,1.692,0.758,1.692,1.692V118.8z"/>
	</g>
	<g>
		<path class="st2" d="M127.999,118.8h21.776c0.523,0,0.947-0.424,0.947-0.947V89.78c0-0.523-0.424-0.947-0.947-0.947h-20.084
			c-0.935,0-1.692,0.758-1.692,1.692V118.8z"/>
	</g>
	<g>
		<path class="st11" d="M145.96,87.357v1.482h-17.962h-17.962v-1.482c-1.377,0.15-1.456,1.482-1.456,1.482v26.943h19.418h19.418
			V88.839C147.417,88.839,147.337,87.507,145.96,87.357z"/>
	</g>
	<g>
		<path class="st0" d="M127.999,115.782h-17.962V87.357h16.486c0.815,0,1.476,0.661,1.476,1.476V115.782z"/>
	</g>
	<g>
		<path class="st0" d="M127.999,115.782h17.962V87.357h-16.486c-0.815,0-1.476,0.661-1.476,1.476V115.782z"/>
	</g>
	<g>
		<path class="st11" d="M128.524,87.713c-0.319,0.271-0.526,0.67-0.526,1.121v26.948h0.526V87.713z"/>
	</g>
	<g>
		<path class="st11" d="M127.473,87.713v28.069h0.526V88.833C127.999,88.382,127.792,87.983,127.473,87.713z"/>
	</g>
	<g>
		<path class="st1" d="M128,142.014c-21.468,0-38.934-17.466-38.934-38.934S106.532,64.146,128,64.146s38.934,17.466,38.934,38.934
			S149.468,142.014,128,142.014z M128,68.146c-19.263,0-34.934,15.671-34.934,34.934s15.671,34.934,34.934,34.934
			s34.934-15.671,34.934-34.934S147.263,68.146,128,68.146z"/>
	</g>
	<g>
		<path class="st11" d="M124.835,95.601H113.2c-0.656,0-1.188-0.532-1.188-1.188l0,0c0-0.656,0.532-1.188,1.188-1.188h11.635
			c0.656,0,1.187,0.532,1.187,1.188l0,0C126.023,95.069,125.491,95.601,124.835,95.601z"/>
	</g>
	<g>
		<path class="st11" d="M143.037,95.601h-11.635c-0.656,0-1.188-0.532-1.188-1.188l0,0c0-0.656,0.532-1.188,1.188-1.188h11.635
			c0.656,0,1.188,0.532,1.188,1.188l0,0C144.224,95.069,143.692,95.601,143.037,95.601z"/>
	</g>
	<g>
		<path class="st11" d="M124.835,101.601H113.2c-0.656,0-1.188-0.532-1.188-1.188l0,0c0-0.656,0.532-1.188,1.188-1.188h11.635
			c0.656,0,1.187,0.532,1.187,1.188l0,0C126.023,101.069,125.491,101.601,124.835,101.601z"/>
	</g>
	<g>
		<path class="st11" d="M143.037,101.601h-11.635c-0.656,0-1.188-0.532-1.188-1.188l0,0c0-0.656,0.532-1.188,1.188-1.188h11.635
			c0.656,0,1.188,0.532,1.188,1.188l0,0C144.224,101.069,143.692,101.601,143.037,101.601z"/>
	</g>
	<g>
		<path class="st11" d="M124.835,107.601H113.2c-0.656,0-1.188-0.532-1.188-1.188l0,0c0-0.656,0.532-1.188,1.188-1.188h11.635
			c0.656,0,1.187,0.532,1.187,1.188l0,0C126.023,107.069,125.491,107.601,124.835,107.601z"/>
	</g>
	<g>
		<path class="st11" d="M143.037,107.601h-11.635c-0.656,0-1.188-0.532-1.188-1.188l0,0c0-0.656,0.532-1.188,1.188-1.188h11.635
			c0.656,0,1.188,0.532,1.188,1.188l0,0C144.224,107.069,143.692,107.601,143.037,107.601z"/>
	</g>
	<g>
		<path class="st7" d="M176.6,25.7h-7.2c-0.663,0-1.2-0.537-1.2-1.2v-6c0-0.663,0.537-1.2,1.2-1.2h7.2c0.663,0,1.2,0.537,1.2,1.2v6
			C177.8,25.163,177.263,25.7,176.6,25.7z"/>
	</g>
	<g>
		<path class="st7" d="M195.8,25.7h-7.2c-0.663,0-1.2-0.537-1.2-1.2v-6c0-0.663,0.537-1.2,1.2-1.2h7.2c0.663,0,1.2,0.537,1.2,1.2v6
			C197,25.163,196.463,25.7,195.8,25.7z"/>
	</g>
	<g>
		<path class="st7" d="M157.4,25.7h-7.2c-0.663,0-1.2-0.537-1.2-1.2v-6c0-0.663,0.537-1.2,1.2-1.2h7.2c0.663,0,1.2,0.537,1.2,1.2v6
			C158.6,25.163,158.063,25.7,157.4,25.7z"/>
	</g>
	<g>
		<path class="st11" d="M126.542,114.3h-16.505c-1.377,0.15-1.456,1.482-1.456,1.482h1.456h17.962
			C127.999,115.782,127.919,114.45,126.542,114.3z"/>
	</g>
	<g>
		<path class="st11" d="M145.96,114.3h-16.505c-1.377,0.15-1.456,1.482-1.456,1.482h17.962h1.456
			C147.417,115.782,147.337,114.45,145.96,114.3z"/>
	</g>
</g>
</svg>
