<?xml version="1.0" encoding="utf-8"?>
<!-- Generator: Adobe Illustrator 22.1.0, SVG Export Plug-In . SVG Version: 6.00 Build 0)  -->
<svg version="1.1" id="Layer_1" xmlns="http://www.w3.org/2000/svg" xmlns:xlink="http://www.w3.org/1999/xlink" x="0px" y="0px"
	 viewBox="0 0 256 256" style="enable-background:new 0 0 256 256;" xml:space="preserve">
<style type="text/css">
	.st0{fill:#E0EBFC;}
	.st1{fill:#3762CC;}
	.st2{fill:#4671C6;}
	.st3{fill:#6BDDDD;}
	.st4{fill:#F9A7A7;}
	.st5{fill:#A4C9FF;}
	.st6{fill:#FFEA92;}
	.st7{fill:#F9CFCF;}
	.st8{fill:#FFE164;}
	.st9{fill:#FFDC85;}
	.st10{fill:#FFEA94;}
	.st11{fill:#B9BEFC;}
	.st12{fill:#EAA97D;}
</style>
<g>
	<g>
		<path class="st5" d="M189.803,243.934H66.273v-35.549c0-14.619,11.851-26.471,26.471-26.471h70.589
			c14.619,0,26.471,11.851,26.471,26.471V243.934z"/>
	</g>
	<g>
		<path class="st7" d="M128.203,176.496c-8.369,0-16.246-2.069-23.155-5.707v0.345v7.678v3.102v0.002
			c0,12.685,10.283,22.967,22.967,22.967h0c12.684,0,22.967-10.283,22.967-22.967v-0.002v-3.102v-7.824
			C144.165,174.503,136.421,176.496,128.203,176.496z"/>
	</g>
	<g>
		<path class="st1" d="M189.803,245.934H66.273c-1.104,0-2-0.896-2-2v-35.549c0-15.699,12.771-28.471,28.471-28.471h10.305v-9.125
			c0-0.7,0.366-1.351,0.967-1.712c0.599-0.361,1.346-0.385,1.965-0.058c6.806,3.583,14.49,5.477,22.223,5.477
			c7.704,0,15.06-1.778,21.863-5.285c0.619-0.319,1.359-0.294,1.957,0.069c0.596,0.363,0.959,1.011,0.959,1.708v8.926h10.35
			c15.699,0,28.471,12.771,28.471,28.471v35.549C191.803,245.038,190.907,245.934,189.803,245.934z M68.273,241.934h119.529v-33.549
			c0-13.493-10.978-24.471-24.471-24.471h-12.35c-1.104,0-2-0.896-2-2v-7.761c-6.512,2.849-13.632,4.343-20.779,4.343
			c-7.286,0-14.536-1.553-21.154-4.513v7.931c0,1.104-0.896,2-2,2H92.744c-13.493,0-24.471,10.978-24.471,24.471V241.934z"/>
	</g>
	<g>
		<path class="st0" d="M124.083,243.934h20.212l33.37-57.799c0.992-1.717,0.403-3.913-1.314-4.905l-8.94-5.161
			c-1.717-0.992-3.913-0.403-4.905,1.314L124.083,243.934z"/>
	</g>
	<g>
		<path class="st1" d="M144.295,245.934h-20.212c-0.715,0-1.375-0.381-1.732-1c-0.356-0.619-0.356-1.381,0-2l38.423-66.552
			c0.747-1.293,1.952-2.218,3.396-2.604c1.444-0.387,2.95-0.188,4.242,0.56l8.939,5.16c1.293,0.747,2.219,1.952,2.605,3.396
			c0.386,1.441,0.188,2.948-0.559,4.242l-33.37,57.799C145.67,245.553,145.01,245.934,144.295,245.934z M127.547,241.934h15.594
			l32.792-56.799c0.213-0.368,0.27-0.797,0.159-1.208c-0.11-0.41-0.373-0.753-0.741-0.965l-8.939-5.161
			c-0.367-0.213-0.794-0.268-1.208-0.16c-0.41,0.11-0.753,0.373-0.965,0.741L127.547,241.934z"/>
	</g>
	<g>
		<path class="st2" d="M177.669,104.212v4.632c5.129-0.104,9.614,2.306,12.405,6.02c0.695-3.018,0.509-1.705,0.509-34.192h-18.985
			C175.465,87.659,177.669,95.68,177.669,104.212z"/>
	</g>
	<g>
		<path class="st1" d="M190.074,116.863c-0.621,0-1.216-0.289-1.599-0.798c-2.56-3.405-6.503-5.31-10.766-5.222
			c-0.538,0.004-1.057-0.195-1.44-0.571s-0.601-0.892-0.601-1.429v-4.632c0-7.887-2.014-15.692-5.822-22.572
			c-0.343-0.619-0.333-1.374,0.027-1.984c0.359-0.61,1.015-0.984,1.723-0.984h18.986c1.104,0,2,0.896,2,2
			c0,6.893,0.009,12.264,0.015,16.478c0.024,15.57,0.024,15.57-0.543,18.029l-0.031,0.135c-0.175,0.758-0.773,1.346-1.534,1.507
			C190.351,116.849,190.212,116.863,190.074,116.863z M179.669,106.919c3.289,0.313,6.351,1.543,8.896,3.552
			c0.051-2.167,0.045-5.942,0.033-13.316c-0.006-3.798-0.013-8.537-0.015-14.483h-13.72c3.152,6.712,4.806,14.094,4.806,21.541
			V106.919z"/>
	</g>
	<g>
		<path class="st7" d="M177.669,108.844v-4.632c0-27.073-22.146-49.02-49.466-49.02l0,0c-27.319,0-49.466,21.947-49.466,49.02v4.632
			c-8.589-0.174-15.404,6.668-15.404,14.94c0,8.832,7.71,15.818,16.71,14.867c5.105,21.688,24.723,37.846,48.159,37.846
			c23.438,0,43.055-16.16,48.159-37.846c8.988,0.95,16.71-6.022,16.71-14.867C193.073,115.508,186.253,108.67,177.669,108.844z"/>
	</g>
	<g>
		<path class="st1" d="M128.214,154.926C128.213,154.926,128.213,154.926,128.214,154.926c-3.562,0-6.875-1.282-9.093-3.519
			c-1.685-1.696-2.612-3.839-2.612-6.031c0-1.104,0.896-2,2-2s2,0.896,2,2c0,1.146,0.502,2.258,1.451,3.214
			c1.451,1.463,3.789,2.336,6.253,2.336c0,0,0,0,0.001,0c2.48,0,4.747-0.851,6.22-2.335c0.95-0.957,1.452-2.069,1.452-3.215
			c0-1.104,0.896-2,2-2s2,0.896,2,2c0,2.192-0.928,4.335-2.613,6.032C135.055,153.644,131.753,154.926,128.214,154.926z"/>
	</g>
	<g>
		<path class="st1" d="M153.884,135.035L153.884,135.035c-3.837,0-6.947-3.11-6.947-6.947v-7.41c0-3.837,3.11-6.947,6.947-6.947h0
			c3.837,0,6.947,3.11,6.947,6.947v7.41C160.831,131.925,157.721,135.035,153.884,135.035z"/>
	</g>
	<g>
		<path class="st1" d="M102.51,135.035L102.51,135.035c-3.837,0-6.947-3.11-6.947-6.947v-7.41c0-3.837,3.11-6.947,6.947-6.947h0
			c3.837,0,6.947,3.11,6.947,6.947v7.41C109.457,131.925,106.347,135.035,102.51,135.035z"/>
	</g>
	<g>
		<path class="st1" d="M128.203,178.496c-23.476,0-43.674-15.443-49.695-37.762c-0.023,0-0.048,0-0.072,0
			c-4.229,0-8.337-1.553-11.49-4.39c-3.566-3.209-5.611-7.787-5.611-12.562c0-4.569,1.806-8.855,5.083-12.067
			c2.816-2.76,6.424-4.424,10.32-4.796v-2.708c0-28.132,23.088-51.02,51.466-51.02s51.466,22.888,51.466,51.02v2.708
			c3.896,0.372,7.505,2.036,10.321,4.797c3.278,3.212,5.083,7.497,5.083,12.066c0,4.774-2.045,9.353-5.61,12.56
			c-3.172,2.854-7.344,4.43-11.564,4.392C171.878,163.053,151.68,178.496,128.203,178.496z M80.046,136.649
			c0.917,0,1.73,0.631,1.945,1.542c5.031,21.376,24.034,36.305,46.212,36.305s41.181-14.929,46.212-36.305
			c0.231-0.981,1.156-1.634,2.158-1.531c3.731,0.398,7.452-0.805,10.215-3.291c2.724-2.45,4.285-5.944,4.285-9.586
			c0-3.485-1.379-6.756-3.883-9.209c-2.53-2.479-5.905-3.811-9.481-3.73c-0.492,0.003-1.056-0.195-1.439-0.571
			c-0.385-0.376-0.601-0.892-0.601-1.429v-4.632c0-25.927-21.293-47.02-47.466-47.02s-47.466,21.093-47.466,47.02v4.632
			c0,0.537-0.216,1.053-0.601,1.429c-0.374,0.366-0.877,0.571-1.399,0.571c-0.014,0-0.027,0-0.04,0
			c-3.567-0.08-6.951,1.252-9.48,3.729c-2.504,2.453-3.883,5.725-3.883,9.21c0,3.642,1.563,7.137,4.287,9.588
			c2.762,2.485,6.478,3.688,10.213,3.289C79.904,136.653,79.976,136.649,80.046,136.649z"/>
	</g>
	<g>
		<path class="st1" d="M128.203,178.496c-23.476,0-43.674-15.443-49.695-37.762c-0.023,0-0.048,0-0.072,0
			c-4.229,0-8.337-1.553-11.49-4.39c-3.566-3.209-5.611-7.787-5.611-12.562c0-4.569,1.806-8.855,5.083-12.067
			c2.816-2.76,6.424-4.424,10.32-4.796v-2.708c0-28.132,23.088-51.02,51.466-51.02s51.466,22.888,51.466,51.02v2.708
			c3.896,0.372,7.505,2.036,10.321,4.797c3.278,3.212,5.083,7.497,5.083,12.066c0,4.774-2.045,9.353-5.61,12.56
			c-3.172,2.854-7.344,4.43-11.564,4.392C171.878,163.053,151.68,178.496,128.203,178.496z M80.046,136.649
			c0.917,0,1.73,0.631,1.945,1.542c5.031,21.376,24.034,36.305,46.212,36.305s41.181-14.929,46.212-36.305
			c0.231-0.981,1.156-1.634,2.158-1.531c3.731,0.398,7.452-0.805,10.215-3.291c2.724-2.45,4.285-5.944,4.285-9.586
			c0-3.485-1.379-6.756-3.883-9.209c-2.53-2.479-5.905-3.811-9.481-3.73c-0.492,0.003-1.056-0.195-1.439-0.571
			c-0.385-0.376-0.601-0.892-0.601-1.429v-4.632c0-25.927-21.293-47.02-47.466-47.02s-47.466,21.093-47.466,47.02v4.632
			c0,0.537-0.216,1.053-0.601,1.429c-0.374,0.366-0.877,0.571-1.399,0.571c-0.014,0-0.027,0-0.04,0
			c-3.567-0.08-6.951,1.252-9.48,3.729c-2.504,2.453-3.883,5.725-3.883,9.21c0,3.642,1.563,7.137,4.287,9.588
			c2.762,2.485,6.478,3.688,10.213,3.289C79.904,136.653,79.976,136.649,80.046,136.649z"/>
	</g>
	<g>
		<path class="st1" d="M128.203,178.496c-23.476,0-43.674-15.443-49.695-37.762c-0.023,0-0.048,0-0.072,0
			c-4.229,0-8.337-1.553-11.49-4.39c-3.566-3.209-5.611-7.787-5.611-12.562c0-4.569,1.806-8.855,5.083-12.067
			c2.816-2.76,6.424-4.424,10.32-4.796v-2.708c0-28.132,23.088-51.02,51.466-51.02s51.466,22.888,51.466,51.02v2.708
			c3.896,0.372,7.505,2.036,10.321,4.797c3.278,3.212,5.083,7.497,5.083,12.066c0,4.774-2.045,9.353-5.61,12.56
			c-3.172,2.854-7.344,4.43-11.564,4.392C171.878,163.053,151.68,178.496,128.203,178.496z M80.046,136.649
			c0.917,0,1.73,0.631,1.945,1.542c5.031,21.376,24.034,36.305,46.212,36.305s41.181-14.929,46.212-36.305
			c0.231-0.981,1.156-1.634,2.158-1.531c3.731,0.398,7.452-0.805,10.215-3.291c2.724-2.45,4.285-5.944,4.285-9.586
			c0-3.485-1.379-6.756-3.883-9.209c-2.53-2.479-5.905-3.811-9.481-3.73c-0.492,0.003-1.056-0.195-1.439-0.571
			c-0.385-0.376-0.601-0.892-0.601-1.429v-4.632c0-25.927-21.293-47.02-47.466-47.02s-47.466,21.093-47.466,47.02v4.632
			c0,0.537-0.216,1.053-0.601,1.429c-0.374,0.366-0.877,0.571-1.399,0.571c-0.014,0-0.027,0-0.04,0
			c-3.567-0.08-6.951,1.252-9.48,3.729c-2.504,2.453-3.883,5.725-3.883,9.21c0,3.642,1.563,7.137,4.287,9.588
			c2.762,2.485,6.478,3.688,10.213,3.289C79.904,136.653,79.976,136.649,80.046,136.649z"/>
	</g>
	<g>
		<path class="st2" d="M84.809,80.671H65.807c-0.001,0-0.002,0-0.003,0v5.228h0.003c0,5.033,0,19.486,0,24.618
			c0,1.502,0.188,2.958,0.513,4.362c2.789-3.722,7.279-6.14,12.418-6.036c0-7.105,0.003-4.031,0.025-5.415
			c7.949,2.888,7.128,2.229,68.002,2.229c13.644,0,25.511-7.606,31.593-18.81c0-2.303,0-3.885,0-6.176
			C166.366,80.671,114.676,80.671,84.809,80.671z"/>
	</g>
	<g>
		<path class="st1" d="M66.319,116.88c-0.137,0-0.275-0.014-0.413-0.043c-0.762-0.161-1.36-0.749-1.536-1.507
			c-0.374-1.621-0.563-3.24-0.563-4.813l-0.002-29.846c0-0.531,0.21-1.04,0.586-1.415c0.375-0.375,0.884-0.586,1.414-0.586h112.553
			c1.104,0,2,0.896,2,2v6.177c0,0.333-0.083,0.661-0.242,0.954c-6.649,12.247-19.428,19.855-33.351,19.855
			c-11.277,0-20.437,0.022-27.927,0.041c-28.548,0.069-33.099,0.081-38.101-1.473c0,0.691,0,1.557,0,2.618
			c0,0.537-0.217,1.053-0.601,1.429s-0.919,0.58-1.44,0.571c-4.249-0.084-8.218,1.821-10.776,5.235
			C67.538,116.589,66.941,116.88,66.319,116.88z M67.806,82.671L67.805,85.9l0.002,24.617c0,0.001,0,0.002,0,0.003
			c2.556-2.012,5.658-3.271,8.932-3.596c0.001-1.858,0.009-2.738,0.04-3.21l-0.022-0.002c0.002-0.044,0.004-0.134,0.007-0.315
			c0.011-0.646,0.332-1.248,0.865-1.615s1.21-0.453,1.817-0.233c6.086,2.211,6.455,2.231,39.383,2.149
			c7.492-0.019,16.655-0.041,27.937-0.041c12.287,0,23.58-6.626,29.593-17.325v-3.661H67.806z"/>
	</g>
	<g>
		<path class="st6" d="M227.527,107.622c0-20.532,0-35.238,0-54.988c-0.018,0.007-0.032,0.017-0.05,0.024l-4.231,1.625
			c0,13.177,0,41.315,0,53.338c-1.523,0.78-2.568,2.362-2.568,4.191v11.274h9.419v-11.274
			C230.096,109.983,229.051,108.401,227.527,107.622z"/>
	</g>
	<g>
		<path class="st2" d="M122.143,9.07l-93.62,35.964c-3.492,1.342-3.492,6.282,0,7.624l93.62,35.964
			c3.771,1.448,7.944,1.448,11.715,0l93.62-35.964c3.492-1.342,3.492-6.282,0-7.624L133.857,9.07
			C130.087,7.621,125.913,7.621,122.143,9.07z"/>
	</g>
	<g>
		<path class="st1" d="M128,91.71c-2.228,0-4.455-0.406-6.574-1.221L27.807,54.525c-2.371-0.911-3.902-3.14-3.902-5.679
			c0-2.54,1.531-4.769,3.901-5.68l93.62-35.965l0,0c4.238-1.629,8.91-1.629,13.148,0l93.619,35.965
			c2.371,0.911,3.902,3.14,3.902,5.68c0,2.539-1.531,4.768-3.901,5.679l-93.62,35.964C132.455,91.304,130.228,91.71,128,91.71z
			 M122.859,10.937L29.24,46.901c-1.239,0.477-1.336,1.609-1.336,1.945c0,0.335,0.097,1.468,1.337,1.944l93.618,35.964
			c3.314,1.273,6.965,1.273,10.281,0l93.619-35.964c1.239-0.477,1.336-1.609,1.336-1.944c0-0.336-0.097-1.469-1.337-1.945
			l-93.618-35.965C129.826,9.663,126.176,9.663,122.859,10.937L122.859,10.937z"/>
	</g>
	<g>
		<path class="st1" d="M128,91.71c-2.228,0-4.455-0.406-6.574-1.221L27.807,54.525c-2.371-0.911-3.902-3.14-3.902-5.679
			c0-2.54,1.531-4.769,3.901-5.68l93.62-35.965l0,0c4.238-1.629,8.91-1.629,13.148,0l93.619,35.965
			c2.371,0.911,3.902,3.14,3.902,5.68c0,2.539-1.531,4.768-3.901,5.679l-93.62,35.964C132.455,91.304,130.228,91.71,128,91.71z
			 M122.859,10.937L29.24,46.901c-1.239,0.477-1.336,1.609-1.336,1.945c0,0.335,0.097,1.468,1.337,1.944l93.618,35.964
			c3.314,1.273,6.965,1.273,10.281,0l93.619-35.964c1.239-0.477,1.336-1.609,1.336-1.944c0-0.336-0.097-1.469-1.337-1.945
			l-93.618-35.965C129.826,9.663,126.176,9.663,122.859,10.937L122.859,10.937z"/>
	</g>
	<g>
		<path class="st2" d="M186.682,54.029H69.707c-2.155,0-3.902,1.747-3.902,3.902v22.74h0c0,5.931,27.933,10.74,62.389,10.74
			c34.457,0,62.389-4.808,62.389-10.74h0.001v-22.74C190.584,55.776,188.837,54.029,186.682,54.029z"/>
	</g>
	<g>
		<path class="st1" d="M128.193,93.411c-16.774,0-32.563-1.128-44.455-3.175c-17.867-3.076-19.934-6.933-19.934-9.565V57.932
			c0-3.255,2.647-5.902,5.901-5.902h116.976c3.255,0,5.902,2.647,5.902,5.902v22.739c0,2.634-2.067,6.489-19.935,9.565
			C160.757,92.283,144.969,93.411,128.193,93.411z M69.706,56.029c-1.049,0-1.901,0.854-1.901,1.902v22.739
			c0.005,0.014,1.09,3.044,17.374,5.752c11.585,1.927,26.861,2.988,43.015,2.988s31.43-1.062,43.016-2.988
			c16.284-2.708,17.369-5.738,17.375-5.768V57.932c0-1.049-0.854-1.902-1.902-1.902H69.706z"/>
	</g>
	<g>
		<path class="st2" d="M139.768,243.934H87.331v-67.181h48.872c1.969,0,3.565,1.596,3.565,3.565V243.934z"/>
	</g>
	<g>
		<path class="st4" d="M87.331,243.934h-8.74v-63.616c0-1.969,1.596-3.565,3.565-3.565h5.174V243.934z"/>
	</g>
	<g>
		<path class="st0" d="M130.725,201.43H96.374c-1.019,0-1.845-0.826-1.845-1.845v-10.913c0-1.019,0.826-1.845,1.845-1.845h34.351
			c1.019,0,1.845,0.826,1.845,1.845v10.913C132.57,200.604,131.744,201.43,130.725,201.43z"/>
	</g>
	<g>
		<path class="st1" d="M139.768,245.934H87.331c-1.104,0-2-0.896-2-2v-67.182c0-1.104,0.896-2,2-2h48.872
			c3.068,0,5.564,2.497,5.564,5.565v63.616C141.768,245.038,140.872,245.934,139.768,245.934z M89.331,241.934h48.437v-61.616
			c0-0.863-0.702-1.565-1.564-1.565H89.331V241.934z"/>
	</g>
	<g>
		<path class="st1" d="M87.331,245.934h-8.74c-1.104,0-2-0.896-2-2v-63.616c0-3.068,2.497-5.565,5.565-5.565h5.175
			c1.104,0,2,0.896,2,2v67.182C89.331,245.038,88.436,245.934,87.331,245.934z M80.591,241.934h4.74v-63.182h-3.175
			c-0.863,0-1.565,0.702-1.565,1.565V241.934z"/>
	</g>
	<g>
		<path class="st7" d="M154.952,240.387v-23.783c0-1.305-0.707-2.508-1.847-3.143l-6.037-3.36c-1.337-0.744-2.842-1.135-4.372-1.135
			h-11.715c-4.591,0-9.106,1.172-13.117,3.404l-0.003,0.002c-0.781,0.435-1.668,0.644-2.561,0.605l-56.064-2.444
			c-8.129-0.355-15.483,4.796-17.928,12.557h0c-1.108,3.516-1.108,7.287,0,10.803h0c2.445,7.761,9.799,12.912,17.928,12.557
			l56.067-2.445c0.893-0.039,1.78,0.171,2.561,0.605h0c4.011,2.233,8.526,3.404,13.117,3.404h11.776c1.54,0,3.055-0.396,4.398-1.149
			l5.961-3.343C154.25,242.888,154.952,241.688,154.952,240.387z"/>
	</g>
	<g>
		<path class="st1" d="M142.756,250.017h-11.776c-4.92,0-9.792-1.265-14.09-3.657c-0.458-0.254-0.965-0.385-1.502-0.354
			l-56.067,2.444c-9.015,0.396-17.209-5.345-19.922-13.954c-1.237-3.926-1.237-8.077,0-12.005
			c2.712-8.61,10.939-14.349,19.922-13.954l56.064,2.444c0.518,0.026,1.043-0.1,1.501-0.355c4.302-2.394,9.174-3.658,14.094-3.658
			h11.715c1.865,0,3.714,0.479,5.345,1.387l6.038,3.361c1.773,0.986,2.875,2.86,2.875,4.89v23.782c0,2.022-1.095,3.893-2.858,4.882
			l-5.961,3.343C146.494,249.53,144.635,250.017,142.756,250.017z M115.513,242.002c1.16,0,2.304,0.296,3.322,0.862
			c3.704,2.063,7.904,3.152,12.145,3.152h11.776c1.195,0,2.378-0.309,3.42-0.894l5.961-3.343c0.503-0.282,0.815-0.816,0.815-1.394
			v-23.782c0-0.579-0.314-1.113-0.82-1.395l-6.037-3.361c-1.038-0.576-2.214-0.882-3.4-0.882h-11.715
			c-4.24,0-8.44,1.09-12.145,3.151c-1.11,0.618-2.362,0.915-3.624,0.858l-56.064-2.444c-7.225-0.302-13.764,4.274-15.934,11.159
			c-0.989,3.142-0.989,6.462,0,9.603c2.17,6.886,8.739,11.473,15.934,11.159l56.067-2.444
			C115.313,242.004,115.413,242.002,115.513,242.002z"/>
	</g>
</g>
</svg>
