<?xml version="1.0" encoding="utf-8"?>
<!-- Generator: Adobe Illustrator 22.1.0, SVG Export Plug-In . SVG Version: 6.00 Build 0)  -->
<svg version="1.1" id="Layer_1" xmlns="http://www.w3.org/2000/svg" xmlns:xlink="http://www.w3.org/1999/xlink" x="0px" y="0px"
	 viewBox="0 0 256 256" style="enable-background:new 0 0 256 256;" xml:space="preserve">
<style type="text/css">
	.st0{fill:#E0EBFC;}
	.st1{fill:#3762CC;}
	.st2{fill:#4671C6;}
	.st3{fill:#6BDDDD;}
	.st4{fill:#F9A7A7;}
	.st5{fill:#A4C9FF;}
	.st6{fill:#FFEA92;}
	.st7{fill:#F9CFCF;}
	.st8{fill:#FFE164;}
	.st9{fill:#FFDC85;}
	.st10{fill:#FFEA94;}
	.st11{fill:#B9BEFC;}
	.st12{fill:#EAA97D;}
</style>
<g>
	<g>
		<path class="st7" d="M127.693,177.966c-8.385,0-16.281-2.055-23.218-5.673v12.98h46.391v-12.956
			C143.94,175.92,136.06,177.966,127.693,177.966z"/>
	</g>
	<g>
		<path class="st1" d="M150.866,187.273h-46.392c-1.104,0-2-0.896-2-2v-12.98c0-0.699,0.365-1.348,0.963-1.71
			c0.6-0.363,1.344-0.386,1.962-0.063c6.832,3.563,14.542,5.446,22.294,5.446c7.736,0,15.43-1.875,22.25-5.423
			c0.621-0.322,1.363-0.298,1.961,0.065c0.597,0.362,0.962,1.011,0.962,1.709v12.956
			C152.866,186.377,151.971,187.273,150.866,187.273z M106.475,183.273h42.392v-7.777c-6.629,2.932-13.884,4.47-21.173,4.47
			c-7.306,0-14.576-1.545-21.219-4.49V183.273z"/>
	</g>
	<g>
		<polygon class="st2" points="127.671,244.786 65.313,228.391 65.313,247.909 190.073,247.909 190.073,228.379 		"/>
	</g>
	<g>
		<path class="st1" d="M190.073,249.91H65.313c-1.104,0-2-0.896-2-2v-19.519c0-0.62,0.288-1.205,0.778-1.584
			c0.492-0.378,1.129-0.509,1.73-0.35l61.849,16.261l61.894-16.273c0.602-0.158,1.238-0.028,1.73,0.35
			c0.49,0.379,0.778,0.964,0.778,1.584v19.53C192.073,249.014,191.178,249.91,190.073,249.91z M131.263,245.91h56.811v-14.937
			L131.263,245.91z M67.313,245.91h56.766l-56.766-14.925V245.91z"/>
	</g>
	<g>
		<path class="st0" d="M194.075,227.327v-15.154c-0.814-14.993-13.227-26.901-28.423-26.901H89.735
			c-15.723,0-28.468,12.746-28.468,28.468v13.586l66.404,17.459L194.075,227.327z"/>
	</g>
	<g>
		<path class="st3" d="M165.651,185.273H89.735c-15.723,0-28.468,12.746-28.468,28.468v8.138l66.404,17.459l66.404-17.459v-9.705
			C193.26,197.18,180.847,185.273,165.651,185.273z"/>
	</g>
	<g>
		<circle class="st12" cx="99.56" cy="222.12" r="13.032"/>
	</g>
	<g>
		<path class="st6" d="M99.56,229.919c-4.3,0-7.799-3.499-7.799-7.799s3.499-7.799,7.799-7.799c4.3,0,7.799,3.498,7.799,7.799
			S103.86,229.919,99.56,229.919z"/>
	</g>
	<g>
		<circle class="st12" cx="155.826" cy="222.12" r="13.032"/>
	</g>
	<g>
		<path class="st6" d="M155.827,229.919c-4.3,0-7.799-3.499-7.799-7.799s3.499-7.799,7.799-7.799s7.798,3.498,7.798,7.799
			S160.127,229.919,155.827,229.919z"/>
	</g>
	<g>
		<polygon class="st0" points="127.671,185.273 96.281,185.273 127.671,225.298 159.06,185.273 		"/>
	</g>
	<g>
		<path class="st4" d="M127.682,185.287l-8.209,10.466c0.241,1.126,0.015,0.015,1.447,7.184h6.751h6.751
			c1.458-7.3,1.211-6.084,1.452-7.206L127.682,185.287z"/>
	</g>
	<g>
		<path class="st4" d="M118.938,214.164l8.732,11.135l8.732-11.135l-1.981-11.226c-4.892,0-8.626,0-13.502,0L118.938,214.164z"/>
	</g>
	<g>
		<path class="st1" d="M134.422,204.937H120.92c-0.953,0-1.774-0.673-1.961-1.608l-0.652-3.268
			c-0.609-3.053-0.609-3.054-0.724-3.583l-0.066-0.305c-0.124-0.581,0.016-1.186,0.383-1.653l8.209-10.466
			c0.758-0.967,2.389-0.967,3.146,0l8.191,10.444c0.367,0.467,0.507,1.073,0.383,1.653l-0.071,0.329
			c-0.107,0.497-0.106,0.497-0.745,3.698l-0.63,3.152C136.196,204.264,135.376,204.937,134.422,204.937z M122.561,200.937h10.221
			l0.309-1.543c0.392-1.965,0.547-2.744,0.633-3.164l-6.041-7.702l-6.059,7.725c0.085,0.414,0.233,1.159,0.605,3.026
			L122.561,200.937z"/>
	</g>
	<g>
		<path class="st1" d="M127.671,227.298c-0.614,0-1.194-0.282-1.574-0.766l-8.732-11.135c-0.351-0.447-0.494-1.022-0.396-1.582
			l1.981-11.227c0.169-0.956,0.999-1.652,1.97-1.652h13.502c0.971,0,1.801,0.697,1.97,1.652l1.98,11.227
			c0.099,0.56-0.045,1.135-0.396,1.582l-8.731,11.134C128.865,227.016,128.285,227.298,127.671,227.298z M121.063,213.632
			l6.607,8.425l6.606-8.425l-1.533-8.695h-10.146L121.063,213.632z"/>
	</g>
	<g>
		<path class="st1" d="M127.671,227.298c-0.614,0-1.194-0.282-1.574-0.766l-31.39-40.025c-0.472-0.603-0.559-1.421-0.225-2.109
			c0.335-0.688,1.033-1.125,1.799-1.125h62.778c0.766,0,1.464,0.437,1.799,1.125c0.334,0.688,0.247,1.507-0.225,2.109
			l-31.389,40.025C128.865,227.016,128.285,227.298,127.671,227.298z M100.392,187.273l27.279,34.785l27.278-34.785H100.392z"/>
	</g>
	<g>
		<path class="st1" d="M127.671,246.786c-0.171,0-0.342-0.022-0.509-0.066l-66.404-17.459c-0.879-0.231-1.491-1.025-1.491-1.934
			v-13.586c0-16.8,13.668-30.468,30.469-30.468h75.916c16.182,0,29.544,12.647,30.42,28.792c0.002,0.036,0.003,0.072,0.003,0.108
			v15.154c0,0.909-0.612,1.703-1.491,1.934L128.18,246.72C128.013,246.764,127.842,246.786,127.671,246.786z M63.267,225.785
			l64.404,16.933l64.403-16.933v-13.557c-0.788-13.998-12.384-24.956-26.423-24.956H89.735c-14.595,0-26.469,11.874-26.469,26.468
			V225.785z M194.074,227.327h0.01H194.074z"/>
	</g>
	<g>
		<path class="st12" d="M112.09,231.926c-7.197,0-13.032,5.835-13.032,13.032c0,1.019,0.129,2.006,0.35,2.958h25.364
			c0.221-0.952,0.35-1.939,0.35-2.958C125.122,237.761,119.287,231.926,112.09,231.926z"/>
	</g>
	<g>
		<path class="st12" d="M143.296,231.926c-7.197,0-13.032,5.835-13.032,13.032c0,1.019,0.129,2.006,0.35,2.958h25.364
			c0.221-0.952,0.35-1.939,0.35-2.958C156.328,237.761,150.493,231.926,143.296,231.926z"/>
	</g>
	<g>
		<path class="st1" d="M99.56,237.152c-8.289,0-15.032-6.744-15.032-15.032s6.743-15.032,15.032-15.032s15.032,6.743,15.032,15.032
			S107.849,237.152,99.56,237.152z M99.56,211.088c-6.083,0-11.032,4.949-11.032,11.032s4.949,11.032,11.032,11.032
			s11.032-4.949,11.032-11.032S105.643,211.088,99.56,211.088z"/>
	</g>
	<g>
		<path class="st1" d="M155.826,237.152c-8.288,0-15.031-6.744-15.031-15.032s6.743-15.032,15.031-15.032
			c8.289,0,15.032,6.743,15.032,15.032S164.115,237.152,155.826,237.152z M155.826,211.088c-6.083,0-11.031,4.949-11.031,11.032
			s4.948,11.032,11.031,11.032s11.032-4.949,11.032-11.032S161.909,211.088,155.826,211.088z"/>
	</g>
	<g>
		<path class="st6" d="M112.09,236.987c-4.3,0-7.799,3.498-7.799,7.799c0,1.113,0.238,2.171,0.661,3.13h14.276
			c0.422-0.959,0.661-2.017,0.661-3.13C119.889,240.486,116.39,236.987,112.09,236.987z"/>
	</g>
	<g>
		<path class="st6" d="M143.297,236.987c-4.3,0-7.799,3.498-7.799,7.799c0,1.113,0.238,2.171,0.661,3.13h14.275
			c0.422-0.959,0.661-2.017,0.661-3.13C151.094,240.486,147.597,236.987,143.297,236.987z"/>
	</g>
	<g>
		<path class="st1" d="M124.772,249.916H99.408c-0.93,0-1.737-0.641-1.948-1.546c-0.267-1.147-0.402-2.295-0.402-3.411
			c0-8.289,6.743-15.032,15.032-15.032s15.032,6.744,15.032,15.032c0,1.114-0.135,2.261-0.401,3.409
			C126.511,249.274,125.703,249.916,124.772,249.916z M101.103,245.916h21.975c0.03-0.323,0.045-0.643,0.045-0.958
			c0-6.083-4.949-11.032-11.032-11.032s-11.032,4.949-11.032,11.032C101.058,245.273,101.072,245.593,101.103,245.916z"/>
	</g>
	<g>
		<path class="st1" d="M155.979,249.916h-25.364c-0.93,0-1.737-0.641-1.948-1.546c-0.267-1.145-0.401-2.292-0.401-3.411
			c0-8.289,6.743-15.032,15.031-15.032c8.289,0,15.032,6.744,15.032,15.032c0,1.114-0.135,2.261-0.401,3.409
			C157.717,249.274,156.909,249.916,155.979,249.916z M132.31,245.916h21.974c0.03-0.323,0.045-0.643,0.045-0.958
			c0-6.083-4.949-11.032-11.032-11.032s-11.031,4.949-11.031,11.032C132.265,245.274,132.279,245.594,132.31,245.916z"/>
	</g>
	<g>
		<polygon class="st0" points="96.281,185.273 111.986,205.299 127.693,185.273 104.497,180.059 		"/>
	</g>
	<g>
		<polygon class="st0" points="150.866,180.059 127.671,185.273 143.366,205.284 159.06,185.273 		"/>
	</g>
	<g>
		<path class="st1" d="M111.986,207.298L111.986,207.298c-0.614,0-1.194-0.282-1.574-0.766l-15.705-20.026
			c-0.349-0.445-0.492-1.016-0.396-1.573c0.096-0.557,0.422-1.047,0.899-1.35l8.216-5.213c0.448-0.285,0.99-0.379,1.51-0.262
			l23.196,5.213c0.67,0.15,1.215,0.633,1.445,1.28s0.113,1.366-0.311,1.906l-15.707,20.026
			C113.181,207.016,112.601,207.298,111.986,207.298z M99.219,185.777l12.768,16.28l12.18-15.528l-19.298-4.337L99.219,185.777z"/>
	</g>
	<g>
		<path class="st1" d="M143.366,207.284c-0.614,0-1.194-0.282-1.573-0.766l-15.695-20.012c-0.424-0.54-0.541-1.259-0.311-1.906
			s0.775-1.129,1.445-1.28l23.195-5.213c0.516-0.118,1.063-0.022,1.512,0.264l8.193,5.213c0.477,0.303,0.803,0.793,0.898,1.35
			c0.095,0.557-0.05,1.127-0.397,1.572l-15.693,20.012C144.561,207.002,143.98,207.284,143.366,207.284z M131.198,186.529
			l12.168,15.514l12.758-16.269l-5.63-3.582L131.198,186.529z"/>
	</g>
	<g>
		<circle class="st12" cx="88.982" cy="198.305" r="13.032"/>
	</g>
	<g>
		<path class="st6" d="M88.982,206.103c-4.3,0-7.798-3.499-7.798-7.799c0-4.3,3.498-7.799,7.798-7.799s7.799,3.499,7.799,7.799
			C96.78,202.605,93.282,206.103,88.982,206.103z"/>
	</g>
	<g>
		<circle class="st12" cx="166.404" cy="198.305" r="13.032"/>
	</g>
	<g>
		<path class="st6" d="M166.404,206.103c-4.3,0-7.799-3.499-7.799-7.799c0-4.3,3.499-7.799,7.799-7.799s7.799,3.499,7.799,7.799
			C174.203,202.605,170.704,206.103,166.404,206.103z"/>
	</g>
	<g>
		<path class="st1" d="M88.981,213.337c-8.288,0-15.031-6.744-15.031-15.032s6.743-15.032,15.031-15.032
			c8.289,0,15.032,6.743,15.032,15.032S97.271,213.337,88.981,213.337z M88.981,187.273c-6.083,0-11.031,4.949-11.031,11.032
			s4.948,11.032,11.031,11.032s11.032-4.949,11.032-11.032S95.064,187.273,88.981,187.273z"/>
	</g>
	<g>
		<path class="st1" d="M166.404,213.337c-8.289,0-15.032-6.744-15.032-15.032s6.743-15.032,15.032-15.032
			s15.032,6.743,15.032,15.032S174.693,213.337,166.404,213.337z M166.404,187.273c-6.083,0-11.032,4.949-11.032,11.032
			s4.949,11.032,11.032,11.032s11.032-4.949,11.032-11.032S172.487,187.273,166.404,187.273z"/>
	</g>
	<g>
		<path class="st3" d="M32.821,107.656c0-12.016,0-40.139,0-53.305l-4.228-1.625c-0.018-0.007-0.032-0.017-0.05-0.024
			c0,19.738,0,34.435,0,54.953c-1.523,0.779-2.567,2.36-2.567,4.188v11.266h9.412v-11.266
			C35.388,110.017,34.343,108.436,32.821,107.656z"/>
	</g>
	<g>
		<path class="st7" d="M177.663,109.624v-4.679c0-27.349-22.372-49.52-49.97-49.52l0,0c-27.598,0-49.97,22.171-49.97,49.52v4.679
			c-8.677-0.176-15.561,6.736-15.561,15.092c0,8.922,7.789,15.98,16.881,15.018c5.157,21.909,24.975,38.232,48.651,38.232
			c23.677,0,43.494-16.325,48.651-38.232c9.079,0.96,16.881-6.084,16.881-15.018C193.225,116.356,186.335,109.448,177.663,109.624z"
			/>
	</g>
	<g>
		<path class="st1" d="M127.703,156.156L127.703,156.156c-3.592,0-6.934-1.293-9.171-3.548c-1.698-1.712-2.633-3.872-2.633-6.08
			c0-1.104,0.896-2,2-2s2,0.896,2,2c0,1.163,0.51,2.291,1.473,3.263c1.469,1.481,3.836,2.365,6.33,2.365h0.001
			c2.512,0,4.807-0.862,6.299-2.366c0.963-0.971,1.472-2.099,1.472-3.262c0-1.104,0.896-2,2-2s2,0.896,2,2
			c0,2.209-0.935,4.368-2.632,6.079C134.604,154.863,131.273,156.156,127.703,156.156z"/>
	</g>
	<g>
		<path class="st1" d="M153.636,136.082L153.636,136.082c-3.876,0-7.018-3.142-7.018-7.018v-7.486c0-3.876,3.142-7.018,7.018-7.018
			h0c3.876,0,7.018,3.142,7.018,7.018v7.486C160.654,132.94,157.512,136.082,153.636,136.082z"/>
	</g>
	<g>
		<path class="st1" d="M101.738,136.082L101.738,136.082c-3.876,0-7.018-3.142-7.018-7.018v-7.486c0-3.876,3.142-7.018,7.018-7.018
			h0c3.876,0,7.018,3.142,7.018,7.018v7.486C108.755,132.94,105.613,136.082,101.738,136.082z"/>
	</g>
	<g>
		<path class="st1" d="M127.693,179.966c-23.713,0-44.113-15.601-50.187-38.147c-4.295,0-8.479-1.547-11.684-4.43
			c-3.599-3.238-5.662-7.857-5.662-12.673c0-4.61,1.821-8.935,5.129-12.176c2.847-2.79,6.494-4.47,10.433-4.841v-2.754
			c0-28.409,23.313-51.521,51.971-51.521c28.656,0,51.97,23.112,51.97,51.521v2.754c3.939,0.371,7.586,2.052,10.433,4.842
			c3.308,3.241,5.129,7.565,5.129,12.175c0,4.816-2.063,9.435-5.66,12.672c-3.183,2.864-7.329,4.432-11.598,4.432
			c-0.028,0-0.058,0-0.087,0C171.807,164.365,151.406,179.966,127.693,179.966z M79.045,137.734c0.918,0,1.73,0.631,1.945,1.542
			c5.084,21.603,24.289,36.69,46.703,36.69s41.619-15.088,46.703-36.69c0.23-0.981,1.168-1.645,2.157-1.531
			c3.77,0.398,7.539-0.814,10.335-3.331c2.756-2.479,4.336-6.015,4.336-9.699c0-3.526-1.396-6.836-3.929-9.318
			c-2.559-2.507-5.913-3.841-9.593-3.774c-0.493,0.025-1.056-0.195-1.439-0.571c-0.384-0.376-0.601-0.891-0.601-1.428v-4.679
			c0-26.203-21.52-47.521-47.97-47.521c-26.451,0-47.971,21.317-47.971,47.521v4.679c0,0.538-0.217,1.052-0.601,1.428
			c-0.385,0.376-0.938,0.599-1.439,0.571c-3.628-0.067-7.034,1.267-9.593,3.774c-2.533,2.482-3.929,5.792-3.929,9.319
			c0,3.684,1.581,7.22,4.337,9.7c2.796,2.515,6.565,3.725,10.335,3.33C78.903,137.737,78.975,137.734,79.045,137.734z"/>
	</g>
	<g>
		<path class="st5" d="M189.592,83.395c0-35.009-38.083-55.054-61.899-40.846C104.31,28.6,65.794,47.907,65.794,83.395
			c0,26.115-0.178,26.337,0.604,30.888c2.825-2.929,6.829-4.751,11.325-4.66c0-7.347-0.002-3.88,0.024-5.489h47.508
			c13.165,0,23.837-10.672,23.837-23.837v-5.824c0.002,16.009,12.687,29.048,28.554,29.633c0.021,1.263,0.018-1.048,0.018,5.517
			c4.494-0.091,8.499,1.73,11.324,4.66C189.77,109.735,189.592,109.554,189.592,83.395z"/>
	</g>
	<g>
		<path class="st1" d="M101.737,147.104c-12.01,0-21.781-9.771-21.781-21.782c0-12.011,9.771-21.782,21.781-21.782
			c12.011,0,21.782,9.771,21.782,21.782C123.52,137.332,113.748,147.104,101.737,147.104z M101.737,107.54
			c-9.805,0-17.781,7.977-17.781,17.782c0,9.805,7.977,17.782,17.781,17.782s17.782-7.977,17.782-17.782
			C119.52,115.517,111.542,107.54,101.737,107.54z"/>
	</g>
	<g>
		<path class="st1" d="M153.636,147.104c-12.01,0-21.781-9.771-21.781-21.782c0-12.011,9.771-21.782,21.781-21.782
			c12.011,0,21.782,9.771,21.782,21.782C175.418,137.332,165.646,147.104,153.636,147.104z M153.636,107.54
			c-9.805,0-17.781,7.977-17.781,17.782c0,9.805,7.977,17.782,17.781,17.782s17.782-7.977,17.782-17.782
			C171.418,115.517,163.44,107.54,153.636,107.54z"/>
	</g>
	<g>
		<path class="st1" d="M136.444,127.322h-17.548c-1.104,0-2-0.896-2-2s0.896-2,2-2h17.548c1.104,0,2,0.896,2,2
			S137.549,127.322,136.444,127.322z"/>
	</g>
	<g>
		<path class="st1" d="M188.988,116.284c-0.534,0-1.057-0.215-1.439-0.611c-2.594-2.688-6.093-4.137-9.846-4.049
			c-0.493,0.025-1.056-0.195-1.439-0.571c-0.385-0.376-0.601-0.891-0.601-1.428v-2.548c0-0.448,0-0.807,0-1.097
			c-11.498-1.103-21.092-8.245-25.675-18.201c-3.216,10.611-13.087,18.356-24.733,18.356H79.723c0,0.5,0,1.173,0,2.077v1.412
			c0,0.538-0.216,1.052-0.601,1.428s-0.938,0.599-1.439,0.571c-3.797-0.074-7.254,1.362-9.845,4.048
			c-0.523,0.543-1.309,0.745-2.027,0.523c-0.721-0.222-1.255-0.83-1.383-1.572c-0.669-3.883-0.667-4.75-0.645-19.248
			c0.005-3.241,0.011-7.171,0.011-11.979c0-17.248,9.024-32.67,24.141-41.254c13.185-7.488,28.297-8.179,39.759-1.896
			c11.467-6.292,26.529-5.636,39.625,1.8c15.199,8.631,24.273,24.089,24.273,41.35c0,4.822,0.006,8.761,0.011,12.008
			c0.022,14.474,0.024,15.34-0.644,19.219c-0.127,0.743-0.662,1.351-1.383,1.573C189.383,116.255,189.185,116.284,188.988,116.284z
			 M179.663,107.699c2.815,0.265,5.474,1.199,7.802,2.732c0.157-2.351,0.152-5.956,0.138-15.021
			c-0.005-3.248-0.011-7.189-0.011-12.014c0-15.803-8.317-29.96-22.248-37.872c-12.242-6.951-26.276-7.432-36.626-1.257
			c-0.631,0.376-1.418,0.376-2.049,0c-10.343-6.169-24.426-5.651-36.759,1.353c-13.849,7.864-22.116,21.986-22.116,37.776
			c0,4.811-0.006,8.743-0.011,11.985c-0.015,9.086-0.02,12.695,0.139,15.05c2.327-1.533,4.985-2.467,7.801-2.732l0.001-2.549
			c0-0.192,0-0.419,0.026-0.658l-0.012-0.001c0.003-0.051,0.005-0.16,0.009-0.389c0.019-1.092,0.908-1.967,2-1.967h47.508
			c12.041,0,21.837-9.796,21.837-21.837v-5.824c0-1.104,0.896-2,2-2s2,0.895,2,2c0.002,14.946,11.698,27.084,26.627,27.635
			c1.063,0.039,1.908,0.902,1.927,1.964c0.005,0.286,0.008,0.367,0.01,0.424c0.007,0.152,0.009,0.152,0.008,2.58V107.699z"/>
	</g>
	<g>
		<path class="st2" d="M133.853,9.17l93.554,35.939c3.49,1.341,3.49,6.278,0,7.618l-93.554,35.939
			c-3.768,1.447-7.939,1.447-11.707,0L28.593,52.727c-3.49-1.341-3.49-6.278,0-7.618L122.147,9.17
			C125.915,7.722,130.085,7.722,133.853,9.17z"/>
	</g>
	<g>
		<path class="st1" d="M128,91.754c-2.227,0-4.452-0.407-6.57-1.22L27.876,54.594c-2.37-0.91-3.901-3.138-3.901-5.676
			s1.531-4.766,3.901-5.676L121.43,7.302c4.236-1.627,8.904-1.627,13.141,0l0,0l93.554,35.939c2.37,0.91,3.901,3.138,3.901,5.676
			s-1.531,4.766-3.901,5.676L134.57,90.534C132.452,91.347,130.226,91.754,128,91.754z M128,10.083c-1.74,0-3.48,0.318-5.137,0.954
			L29.31,46.976c-1.238,0.476-1.335,1.606-1.335,1.942s0.097,1.466,1.335,1.942l93.554,35.939c3.313,1.272,6.961,1.272,10.273,0
			L226.69,50.86c1.238-0.476,1.335-1.606,1.335-1.942s-0.097-1.466-1.335-1.942l-93.554-35.939
			C131.48,10.4,129.74,10.083,128,10.083z"/>
	</g>
	<g>
		<path class="st2" d="M185.644,54.228H69.664c-2.138,0-3.871,1.733-3.871,3.871v22.566h0.001c0,5.886,27.695,10.657,61.86,10.657
			c34.164,0,61.86-4.771,61.86-10.657V58.099C189.514,55.961,187.781,54.228,185.644,54.228z"/>
	</g>
	<g>
		<path class="st1" d="M127.654,93.322c-16.634,0-32.288-1.119-44.081-3.15c-17.728-3.054-19.778-6.889-19.778-9.507l-0.001-22.564
			c0-3.238,2.633-5.872,5.869-5.872h115.981c3.236,0,5.87,2.634,5.87,5.872v22.564c0,2.618-2.051,6.453-19.779,9.507
			C159.943,92.204,144.288,93.322,127.654,93.322z M69.663,56.229c-1.03,0-1.869,0.84-1.869,1.872v22.564
			c0.005,0.01,1.117,3.019,17.257,5.7c11.48,1.907,26.611,2.958,42.604,2.958s31.122-1.05,42.604-2.957
			c16.14-2.681,17.252-5.689,17.259-5.719l-0.002-22.545c0-1.032-0.839-1.872-1.87-1.872H69.663z"/>
	</g>
</g>
</svg>
