<?xml version="1.0" encoding="utf-8"?>
<!-- Generator: Adobe Illustrator 22.1.0, SVG Export Plug-In . SVG Version: 6.00 Build 0)  -->
<svg version="1.1" id="Layer_1" xmlns="http://www.w3.org/2000/svg" xmlns:xlink="http://www.w3.org/1999/xlink" x="0px" y="0px"
	 viewBox="0 0 256 256" style="enable-background:new 0 0 256 256;" xml:space="preserve">
<style type="text/css">
	.st0{fill:#E0EBFC;}
	.st1{fill:#3762CC;}
	.st2{fill:#4671C6;}
	.st3{fill:#6BDDDD;}
	.st4{fill:#F9A7A7;}
	.st5{fill:#A4C9FF;}
	.st6{fill:#FFEA92;}
	.st7{fill:#F9CFCF;}
	.st8{fill:#FFE164;}
	.st9{fill:#FFDC85;}
	.st10{fill:#FFEA94;}
	.st11{fill:#B9BEFC;}
	.st12{fill:#EAA97D;}
</style>
<g>
	<g>
		<path class="st0" d="M221.746,219.94H20.747V94.814c0-4.17,3.38-7.55,7.55-7.55h185.899c4.17,0,7.55,3.38,7.55,7.55V219.94z"/>
	</g>
	<g>
		<path class="st0" d="M225.056,236.927H17.437c-5.212,0-9.437-4.225-9.437-9.437v-4.719c0-1.564,1.268-2.831,2.831-2.831h220.83
			c1.564,0,2.831,1.268,2.831,2.831v4.719C234.493,232.702,230.268,236.927,225.056,236.927z"/>
	</g>
	<g>
		<path class="st1" d="M221.746,221.94H20.747c-1.104,0-2-0.896-2-2V94.814c0-5.266,4.284-9.55,9.55-9.55h185.899
			c5.266,0,9.55,4.284,9.55,9.55V219.94C223.746,221.044,222.851,221.94,221.746,221.94z M22.747,217.94h196.999V94.814
			c0-3.06-2.489-5.55-5.55-5.55H28.297c-3.06,0-5.55,2.49-5.55,5.55V217.94z"/>
	</g>
	<g>
		<path class="st11" d="M29.241,209.447v-106.97c0-1.105,0.895-2,2-2h180.012c1.105,0,2,0.895,2,2v106.97c0,1.105-0.895,2-2,2
			H31.241C30.136,211.447,29.241,210.551,29.241,209.447z"/>
	</g>
	<g>
		<path class="st2" d="M56.5,194.073H45c-1.105,0-2-0.895-2-2v-63.771c0-1.105,0.895-2,2-2h11.5c1.105,0,2,0.895,2,2v63.771
			C58.5,193.177,57.605,194.073,56.5,194.073z"/>
	</g>
	<g>
		<path class="st2" d="M82.5,194.073H71c-1.105,0-2-0.895-2-2v-53.771c0-1.105,0.895-2,2-2h11.5c1.105,0,2,0.895,2,2v53.771
			C84.5,193.177,83.605,194.073,82.5,194.073z"/>
	</g>
	<g>
		<path class="st2" d="M110.5,194.073H99c-1.105,0-2-0.895-2-2v-43.271c0-1.105,0.895-2,2-2h11.5c1.105,0,2,0.895,2,2v43.271
			C112.5,193.177,111.605,194.073,110.5,194.073z"/>
	</g>
	<g>
		<path class="st1" d="M225.056,238.927H17.437C11.131,238.927,6,233.796,6,227.49v-4.718c0-2.664,2.167-4.832,4.831-4.832h220.83
			c2.664,0,4.832,2.167,4.832,4.832v4.718C236.493,233.796,231.362,238.927,225.056,238.927z M10.831,221.94
			c-0.458,0-0.831,0.373-0.831,0.832v4.718c0,4.101,3.336,7.438,7.437,7.438h207.619c4.101,0,7.438-3.336,7.438-7.438v-4.718
			c0-0.458-0.373-0.832-0.832-0.832H10.831z"/>
	</g>
	<g>
		<path class="st1" d="M139.747,230.434h-37c-1.104,0-2-0.896-2-2v-8.494c0-1.104,0.896-2,2-2h37c1.104,0,2,0.896,2,2v8.494
			C141.747,229.538,140.852,230.434,139.747,230.434z M104.747,226.434h33v-4.494h-33V226.434z"/>
	</g>
	<g>
		<path class="st1" d="M211.253,213.447H31.241c-2.206,0-4-1.794-4-4v-106.97c0-2.206,1.794-4,4-4h180.012c2.206,0,4,1.794,4,4
			v106.97C215.253,211.652,213.459,213.447,211.253,213.447z M31.241,102.477v106.973l180.012-0.002v-106.97H31.241z"/>
	</g>
	<g>
		<path class="st7" d="M230.814,184.073h-118c-3.314,0-6-2.686-6-6v-153c0-3.314,2.686-6,6-6h118c3.314,0,6,2.686,6,6v153
			C236.814,181.387,234.128,184.073,230.814,184.073z"/>
	</g>
	<g>
		<path class="st4" d="M220.5,50.036h-95.253c-2.209,0-4-1.791-4-4v0c0-2.209,1.791-4,4-4H220.5c2.209,0,4,1.791,4,4v0
			C224.5,48.245,222.709,50.036,220.5,50.036z"/>
	</g>
	<g>
		<path class="st4" d="M220.5,72.036h-95.253c-2.209,0-4-1.791-4-4v0c0-2.209,1.791-4,4-4H220.5c2.209,0,4,1.791,4,4v0
			C224.5,70.245,222.709,72.036,220.5,72.036z"/>
	</g>
	<g>
		<path class="st4" d="M220.5,94.036h-95.253c-2.209,0-4-1.791-4-4v0c0-2.209,1.791-4,4-4H220.5c2.209,0,4,1.791,4,4v0
			C224.5,92.245,222.709,94.036,220.5,94.036z"/>
	</g>
	<g>
		<path class="st4" d="M220.5,116.036h-95.253c-2.209,0-4-1.791-4-4v0c0-2.209,1.791-4,4-4H220.5c2.209,0,4,1.791,4,4v0
			C224.5,114.245,222.709,116.036,220.5,116.036z"/>
	</g>
	<g>
		<path class="st4" d="M220.5,138.036h-95.253c-2.209,0-4-1.791-4-4l0,0c0-2.209,1.791-4,4-4H220.5c2.209,0,4,1.791,4,4l0,0
			C224.5,136.245,222.709,138.036,220.5,138.036z"/>
	</g>
	<g>
		<path class="st4" d="M220.5,160.036h-95.253c-2.209,0-4-1.791-4-4l0,0c0-2.209,1.791-4,4-4H220.5c2.209,0,4,1.791,4,4l0,0
			C224.5,158.245,222.709,160.036,220.5,160.036z"/>
	</g>
	<g>
		<path class="st1" d="M230.814,186.073h-118c-4.411,0-8-3.589-8-8v-153c0-4.411,3.589-8,8-8h118c4.411,0,8,3.589,8,8v153
			C238.814,182.484,235.226,186.073,230.814,186.073z M112.814,21.073c-2.206,0-4,1.794-4,4v153c0,2.206,1.794,4,4,4h118
			c2.206,0,4-1.794,4-4v-153c0-2.206-1.794-4-4-4H112.814z"/>
	</g>
	<g>
		<path class="st3" d="M207.364,92.032C190.408,75.075,162.88,75.014,146,91.894c-16.88,16.881-16.819,44.409,0.137,61.365
			c16.956,16.956,44.484,17.017,61.364,0.137C224.382,136.515,224.32,108.987,207.364,92.032z M199.015,144.909
			c-5.911,5.911-13.797,9.155-22.206,9.134c-8.402-0.02-16.296-3.298-22.227-9.23c-12.277-12.276-12.32-32.209-0.096-44.433
			c5.91-5.911,13.796-9.155,22.205-9.134c8.402,0.02,16.296,3.299,22.228,9.23c5.933,5.933,9.211,13.829,9.23,22.234
			C208.168,131.117,204.924,139,199.015,144.909z"/>
	</g>
	<g>
		<path class="st1" d="M176.947,168.016c-0.035,0-0.068,0-0.104,0c-12.136-0.027-23.543-4.766-32.12-13.343
			c-17.736-17.736-17.797-46.533-0.137-64.193c8.518-8.518,19.868-13.206,31.967-13.206c0.036,0,0.069,0,0.105,0
			c12.136,0.027,23.543,4.766,32.12,13.344l0,0l0,0c8.577,8.577,13.316,19.984,13.343,32.12c0.027,12.139-4.663,23.53-13.206,32.073
			C200.397,163.328,189.047,168.016,176.947,168.016z M176.554,81.274c-11.032,0-21.377,4.271-29.14,12.034
			c-16.101,16.101-16.039,42.36,0.137,58.537c7.824,7.824,18.23,12.146,29.301,12.171c0.032,0,0.064,0,0.096,0
			c11.032,0,21.377-4.271,29.14-12.034c7.785-7.786,12.06-18.168,12.034-29.236c-0.024-11.07-4.347-21.476-12.171-29.3l0,0
			c-7.824-7.824-18.23-12.147-29.301-12.172C176.617,81.274,176.585,81.274,176.554,81.274z M176.889,156.043
			c-0.028,0-0.056,0-0.084,0c-8.935-0.022-17.329-3.508-23.637-9.815c-13.057-13.057-13.1-34.258-0.096-47.261
			c6.269-6.27,14.626-9.72,23.54-9.72c0.028,0,0.056,0,0.084,0c8.934,0.022,17.328,3.508,23.638,9.815
			c6.31,6.311,9.796,14.708,9.815,23.644c0.02,8.942-3.432,17.329-9.72,23.617l0,0C194.16,152.593,185.802,156.043,176.889,156.043z
			 M176.612,93.247c-7.846,0-15.198,3.034-20.712,8.548c-11.443,11.444-11.4,30.108,0.096,41.605
			c5.556,5.555,12.949,8.625,20.818,8.644c0.024,0,0.05,0,0.074,0c7.846,0,15.198-3.034,20.713-8.548l0,0
			c5.529-5.53,8.565-12.91,8.548-20.78c-0.018-7.872-3.087-15.267-8.644-20.824c-5.557-5.555-12.95-8.625-20.819-8.644
			C176.662,93.247,176.637,93.247,176.612,93.247z M199.016,144.909h0.01H199.016z"/>
	</g>
	<g>
		<path class="st2" d="M245.588,191.483L245.588,191.483c-3.216,3.216-8.429,3.216-11.645,0l-22.995-22.995
			c-0.953-0.953-0.953-2.499,0-3.452l8.193-8.193c0.953-0.953,2.499-0.953,3.452,0l22.995,22.995
			C248.804,183.054,248.804,188.267,245.588,191.483z"/>
	</g>
	<g>
		<path class="st1" d="M239.766,195.895c-2.733,0-5.304-1.064-7.236-2.997l-22.995-22.996c-1.731-1.731-1.731-4.549,0-6.28
			l8.193-8.192c0.838-0.839,1.953-1.301,3.14-1.301s2.302,0.462,3.141,1.301l22.994,22.995c1.934,1.933,2.998,4.502,2.998,7.236
			c0,2.733-1.064,5.303-2.998,7.236l0,0l0,0C245.069,194.83,242.5,195.895,239.766,195.895z M220.867,158.128
			c-0.083,0-0.204,0.022-0.311,0.129l-8.194,8.192c-0.172,0.172-0.172,0.452,0,0.624l22.995,22.995
			c1.178,1.177,2.743,1.826,4.408,1.826c1.666,0,3.23-0.648,4.408-1.826l0,0c1.178-1.178,1.826-2.743,1.826-4.408
			s-0.648-3.23-1.826-4.408l-22.995-22.996C221.071,158.15,220.95,158.128,220.867,158.128z"/>
	</g>
	<g>
		<path class="st0" d="M218.915,157.069l-7.798-7.798c-1.107,1.431-2.304,2.813-3.616,4.125c-1.312,1.312-2.695,2.509-4.125,3.616
			l7.798,7.798L218.915,157.069z"/>
	</g>
	<g>
		<path class="st1" d="M211.174,166.81c-0.512,0-1.023-0.195-1.414-0.586l-7.798-7.798c-0.406-0.406-0.618-0.967-0.582-1.541
			s0.317-1.104,0.771-1.455c1.428-1.105,2.752-2.266,3.936-3.449c1.185-1.185,2.345-2.509,3.448-3.935
			c0.352-0.455,0.882-0.736,1.455-0.772c0.574-0.035,1.135,0.176,1.541,0.582l7.798,7.798c0.781,0.781,0.781,2.047,0,2.828
			l-7.741,7.741C212.197,166.615,211.686,166.81,211.174,166.81z M206.358,157.166l4.815,4.815l4.913-4.913l-4.815-4.815
			c-0.769,0.902-1.557,1.757-2.356,2.557C208.116,155.609,207.261,156.397,206.358,157.166z"/>
	</g>
</g>
</svg>
