<?xml version="1.0" encoding="utf-8"?>
<!-- Generator: Adobe Illustrator 22.1.0, SVG Export Plug-In . SVG Version: 6.00 Build 0)  -->
<svg version="1.1" id="Layer_1" xmlns="http://www.w3.org/2000/svg" xmlns:xlink="http://www.w3.org/1999/xlink" x="0px" y="0px"
	 viewBox="0 0 256 256" style="enable-background:new 0 0 256 256;" xml:space="preserve">
<style type="text/css">
	.st0{fill:#E0EBFC;}
	.st1{fill:#3762CC;}
	.st2{fill:#4671C6;}
	.st3{fill:#6BDDDD;}
	.st4{fill:#F9A7A7;}
	.st5{fill:#A4C9FF;}
	.st6{fill:#FFEA92;}
	.st7{fill:#F9CFCF;}
	.st8{fill:#FFE164;}
	.st9{fill:#FFDC85;}
	.st10{fill:#FFEA94;}
	.st11{fill:#B9BEFC;}
	.st12{fill:#EAA97D;}
</style>
<g>
	<g>
		<path class="st5" d="M32.953,107.609v128.06c0,6.81,5.521,12.33,12.33,12.33h165.433c6.81,0,12.33-5.52,12.33-12.33v-128.06
			H32.953z"/>
	</g>
	<g>
		<path class="st1" d="M210.717,250H45.283c-7.901,0-14.33-6.429-14.33-14.33V107.609c0-1.104,0.896-2,2-2h190.094
			c1.104,0,2,0.896,2,2V235.67C225.047,243.571,218.618,250,210.717,250z M34.953,109.609V235.67c0,5.696,4.634,10.33,10.33,10.33
			h165.434c5.696,0,10.33-4.634,10.33-10.33V109.609H34.953z"/>
	</g>
	<g>
		<path class="st3" d="M122.708,216.442H45.581V202.73c0-2.366,1.918-4.285,4.285-4.285h68.557c2.366,0,4.285,1.918,4.285,4.285
			V216.442z"/>
	</g>
	<g>
		<path class="st0" d="M51.437,230.76h-4.142c-0.947,0-1.714-0.767-1.714-1.714v-12.604h7.57v12.604
			C53.15,229.993,52.383,230.76,51.437,230.76z"/>
	</g>
	<g>
		<path class="st0" d="M120.994,230.76h-4.142c-0.947,0-1.714-0.767-1.714-1.714v-12.604h7.57v12.604
			C122.708,229.993,121.94,230.76,120.994,230.76z"/>
	</g>
	<g>
		<path class="st0" d="M116.709,198.446h-65.13v-18.737c0-3.313,2.686-5.999,5.999-5.999h53.132c3.313,0,5.999,2.686,5.999,5.999
			V198.446z"/>
	</g>
	<g>
		<path class="st1" d="M122.708,218.441H45.58c-1.104,0-2-0.896-2-2V202.73c0-3.466,2.819-6.285,6.285-6.285h68.558
			c3.466,0,6.285,2.819,6.285,6.285v13.711C124.708,217.546,123.813,218.441,122.708,218.441z M47.58,214.441h73.128V202.73
			c0-1.26-1.025-2.285-2.285-2.285H49.865c-1.26,0-2.285,1.025-2.285,2.285V214.441z"/>
	</g>
	<g>
		<path class="st1" d="M51.437,232.761h-4.142c-2.049,0-3.715-1.666-3.715-3.715v-12.604c0-1.104,0.896-2,2-2h7.57
			c1.104,0,2,0.896,2,2v12.604C55.15,231.095,53.484,232.761,51.437,232.761z M47.58,228.761h3.57v-10.319h-3.57V228.761z"/>
	</g>
	<g>
		<path class="st1" d="M120.994,232.761h-4.143c-2.048,0-3.714-1.666-3.714-3.715v-12.604c0-1.104,0.896-2,2-2h7.57
			c1.104,0,2,0.896,2,2v12.604C124.708,231.095,123.042,232.761,120.994,232.761z M117.138,228.761h3.57v-10.319h-3.57V228.761z"/>
	</g>
	<g>
		<path class="st1" d="M116.709,200.445h-65.13c-1.104,0-2-0.896-2-2v-18.736c0-4.411,3.588-7.999,7.999-7.999h53.132
			c4.411,0,7.999,3.588,7.999,7.999v18.736C118.709,199.55,117.813,200.445,116.709,200.445z M53.579,196.445h61.13v-16.736
			c0-2.205-1.794-3.999-3.999-3.999H57.578c-2.205,0-3.999,1.794-3.999,3.999V196.445z"/>
	</g>
	<g>
		<path class="st2" d="M133.292,216.442h77.127V202.73c0-2.366-1.918-4.285-4.285-4.285h-68.557c-2.366,0-4.285,1.918-4.285,4.285
			V216.442z"/>
	</g>
	<g>
		<path class="st0" d="M204.564,230.76h4.142c0.947,0,1.714-0.767,1.714-1.714v-12.604h-7.57v12.604
			C202.85,229.993,203.617,230.76,204.564,230.76z"/>
	</g>
	<g>
		<path class="st0" d="M135.006,230.76h4.142c0.947,0,1.714-0.767,1.714-1.714v-12.604h-7.57v12.604
			C133.292,229.993,134.06,230.76,135.006,230.76z"/>
	</g>
	<g>
		<path class="st0" d="M139.291,198.446h65.13v-18.737c0-3.313-2.686-5.999-5.999-5.999H145.29c-3.313,0-5.999,2.686-5.999,5.999
			V198.446z"/>
	</g>
	<g>
		<path class="st1" d="M210.42,218.441h-77.128c-1.104,0-2-0.896-2-2V202.73c0-3.466,2.819-6.285,6.285-6.285h68.558
			c3.466,0,6.285,2.819,6.285,6.285v13.711C212.42,217.546,211.524,218.441,210.42,218.441z M135.292,214.441h73.128V202.73
			c0-1.26-1.025-2.285-2.285-2.285h-68.558c-1.26,0-2.285,1.025-2.285,2.285V214.441z"/>
	</g>
	<g>
		<path class="st1" d="M208.705,232.761h-4.142c-2.048,0-3.714-1.666-3.714-3.715v-12.604c0-1.104,0.896-2,2-2h7.57
			c1.104,0,2,0.896,2,2v12.604C212.42,231.095,210.754,232.761,208.705,232.761z M204.85,228.761h3.57v-10.319h-3.57V228.761z"/>
	</g>
	<g>
		<path class="st1" d="M139.148,232.761h-4.143c-2.048,0-3.714-1.666-3.714-3.715v-12.604c0-1.104,0.896-2,2-2h7.57
			c1.104,0,2,0.896,2,2v12.604C142.862,231.095,141.196,232.761,139.148,232.761z M135.292,228.761h3.57v-10.319h-3.57V228.761z"/>
	</g>
	<g>
		<path class="st1" d="M204.421,200.445h-65.13c-1.104,0-2-0.896-2-2v-18.736c0-4.411,3.588-7.999,7.999-7.999h53.132
			c4.411,0,7.999,3.588,7.999,7.999v18.736C206.421,199.55,205.525,200.445,204.421,200.445z M141.291,196.445h61.13v-16.736
			c0-2.205-1.794-3.999-3.999-3.999H145.29c-2.205,0-3.999,1.794-3.999,3.999V196.445z"/>
	</g>
	<g>
		<path class="st4" d="M243.089,107.609H12.911c-3.788,0-5.454-4.775-2.488-7.132L125.512,9.03c1.457-1.158,3.52-1.158,4.977,0
			l115.089,91.447C248.543,102.834,246.877,107.609,243.089,107.609z"/>
	</g>
	<g>
		<path class="st2" d="M99.884,198.446H69.529v-24.667c0-8.382,6.795-15.178,15.178-15.178h0c8.382,0,15.178,6.795,15.178,15.178
			V198.446z"/>
	</g>
	<g>
		<path class="st3" d="M156.116,198.446h30.355v-24.667c0-8.382-6.795-15.178-15.178-15.178h0c-8.382,0-15.178,6.795-15.178,15.178
			V198.446z"/>
	</g>
	<g>
		<path class="st1" d="M243.089,109.609H12.911c-2.589,0-4.813-1.579-5.665-4.023s-0.095-5.063,1.933-6.674L124.268,7.465
			c2.197-1.746,5.268-1.745,7.465-0.001l115.089,91.448c2.027,1.61,2.785,4.229,1.933,6.674S245.678,109.609,243.089,109.609z
			 M128,10.16c-0.438,0-0.878,0.146-1.244,0.437L11.667,102.043c-1.032,0.82-0.754,1.911-0.645,2.226
			c0.11,0.314,0.57,1.341,1.889,1.341h230.178c1.318,0,1.778-1.026,1.889-1.341c0.109-0.314,0.388-1.405-0.645-2.225L129.244,10.596
			C128.878,10.306,128.439,10.16,128,10.16z"/>
	</g>
	<g>
		<path class="st1" d="M186.472,200.445h-30.355c-1.104,0-2-0.896-2-2v-24.667c0-9.472,7.706-17.178,17.178-17.178
			s17.178,7.706,17.178,17.178v24.667C188.472,199.55,187.576,200.445,186.472,200.445z M158.116,196.445h26.355v-22.667
			c0-7.267-5.911-13.178-13.178-13.178s-13.178,5.911-13.178,13.178V196.445z"/>
	</g>
	<g>
		<path class="st1" d="M99.884,200.445H69.528c-1.104,0-2-0.896-2-2v-24.667c0-9.472,7.706-17.178,17.178-17.178
			s17.178,7.706,17.178,17.178v24.667C101.884,199.55,100.988,200.445,99.884,200.445z M71.528,196.445h26.355v-22.667
			c0-7.267-5.911-13.178-13.178-13.178s-13.178,5.911-13.178,13.178V196.445z"/>
	</g>
	<g>
		<circle class="st7" cx="84.706" cy="143.171" r="16.534"/>
	</g>
	<g>
		<path class="st1" d="M84.706,161.704c-10.22,0-18.533-8.313-18.533-18.533s8.313-18.534,18.533-18.534s18.534,8.314,18.534,18.534
			S94.926,161.704,84.706,161.704z M84.706,128.637c-8.014,0-14.533,6.52-14.533,14.534c0,8.014,6.52,14.533,14.533,14.533
			c8.015,0,14.534-6.52,14.534-14.533C99.24,135.156,92.721,128.637,84.706,128.637z"/>
	</g>
	<g>
		<path class="st7" d="M108.932,143.269l6.222-13.708c0.387-0.853,1.239-1.402,2.178-1.402h0c1.32,0,2.391,1.069,2.391,2.387v14.179
			c0,2.51-4.349,4.975-4.349,4.975l-24.097,26.499c-2.418,2.659-6.605,2.659-9.023-0.001l0,0c-2.243-2.467-2.079-6.276,0.366-8.543
			L108.932,143.269z"/>
	</g>
	<g>
		<path class="st1" d="M86.768,180.192c-0.001,0-0.001,0-0.002,0c-2.276,0-4.46-0.966-5.99-2.649
			c-2.966-3.263-2.748-8.357,0.487-11.355l26.016-24.112l6.056-13.342c0.709-1.563,2.278-2.575,3.999-2.575
			c2.421,0,4.391,1.968,4.391,4.387v14.18c0,3.212-3.764,5.757-5.074,6.546l-23.892,26.274
			C91.228,179.228,89.044,180.192,86.768,180.192z M117.333,130.158c-0.153,0-0.293,0.09-0.356,0.228l-6.223,13.71
			c-0.11,0.241-0.267,0.459-0.462,0.64l-26.311,24.386c-1.633,1.514-1.743,4.085-0.246,5.731c0.785,0.864,1.861,1.34,3.031,1.34
			c0,0,0,0,0.001,0c1.169,0,2.245-0.476,3.031-1.339l24.097-26.5c0.143-0.156,0.31-0.29,0.493-0.395
			c1.682-0.96,3.335-2.563,3.335-3.234v-14.18C117.724,130.332,117.549,130.158,117.333,130.158z M108.933,143.269h0.01H108.933z"/>
	</g>
	<g>
		<circle class="st7" cx="171.294" cy="143.171" r="16.534"/>
	</g>
	<g>
		<path class="st1" d="M171.294,161.704c-10.22,0-18.534-8.313-18.534-18.533s8.314-18.534,18.534-18.534
			s18.533,8.314,18.533,18.534S181.514,161.704,171.294,161.704z M171.294,128.637c-8.015,0-14.534,6.52-14.534,14.534
			c0,8.014,6.52,14.533,14.534,14.533c8.014,0,14.533-6.52,14.533-14.533C185.827,135.156,179.308,128.637,171.294,128.637z"/>
	</g>
	<g>
		<path class="st7" d="M147.068,143.269l-6.222-13.708c-0.387-0.853-1.239-1.402-2.178-1.402l0,0c-1.32,0-2.391,1.069-2.391,2.387
			v14.179c0,2.51,4.349,4.975,4.349,4.975l24.097,26.499c2.418,2.659,6.605,2.659,9.023-0.001l0,0
			c2.243-2.467,2.079-6.276-0.366-8.543L147.068,143.269z"/>
	</g>
	<g>
		<path class="st1" d="M169.232,180.192c-2.276,0-4.46-0.965-5.99-2.647l-23.892-26.274c-1.311-0.789-5.074-3.334-5.074-6.546
			v-14.18c0-2.419,1.97-4.387,4.391-4.387c1.721,0,3.29,1.012,3.999,2.577l6.056,13.34l26.016,24.112
			c3.235,2.998,3.453,8.093,0.486,11.356c-1.529,1.683-3.713,2.648-5.989,2.648C169.234,180.192,169.233,180.192,169.232,180.192z
			 M138.667,130.158c-0.216,0-0.391,0.174-0.391,0.387v14.18c0,0.679,1.651,2.281,3.335,3.234c0.184,0.104,0.351,0.238,0.493,0.395
			l24.097,26.5c0.785,0.863,1.862,1.339,3.031,1.339c0.001,0,0.001,0,0.001,0c1.17,0,2.246-0.476,3.03-1.339
			c1.498-1.647,1.388-4.219-0.245-5.732l-26.311-24.386c-0.195-0.181-0.352-0.398-0.462-0.64l-6.223-13.708
			C138.96,130.248,138.82,130.158,138.667,130.158z"/>
	</g>
</g>
</svg>
