<?xml version="1.0" encoding="utf-8"?>
<!-- Generator: Adobe Illustrator 22.1.0, SVG Export Plug-In . SVG Version: 6.00 Build 0)  -->
<svg version="1.1" id="Layer_1" xmlns="http://www.w3.org/2000/svg" xmlns:xlink="http://www.w3.org/1999/xlink" x="0px" y="0px"
	 viewBox="0 0 256 256" style="enable-background:new 0 0 256 256;" xml:space="preserve">
<style type="text/css">
	.st0{fill:#E0EBFC;}
	.st1{fill:#3762CC;}
	.st2{fill:#4671C6;}
	.st3{fill:#6BDDDD;}
	.st4{fill:#F9A7A7;}
	.st5{fill:#A4C9FF;}
	.st6{fill:#FFEA92;}
	.st7{fill:#F9CFCF;}
	.st8{fill:#FFE164;}
	.st9{fill:#FFDC85;}
	.st10{fill:#FFEA94;}
	.st11{fill:#B9BEFC;}
	.st12{fill:#EAA97D;}
</style>
<g>
	<g>
		<path class="st7" d="M180.66,234.948H18.358c-4.558,0-8.253-3.695-8.253-8.253V16.253C10.105,11.695,13.8,8,18.358,8H180.66
			c4.558,0,8.253,3.695,8.253,8.253v210.443C188.913,231.254,185.218,234.948,180.66,234.948z"/>
	</g>
	<g>
		<path class="st1" d="M180.661,236.948H18.358c-5.653,0-10.252-4.599-10.252-10.252V16.253C8.105,10.6,12.705,6,18.358,6h162.303
			c5.653,0,10.252,4.6,10.252,10.253v210.443C190.913,232.35,186.314,236.948,180.661,236.948z M18.358,10
			c-3.448,0-6.252,2.805-6.252,6.253v210.443c0,3.447,2.805,6.252,6.252,6.252h162.303c3.448,0,6.252-2.805,6.252-6.252V16.253
			c0-3.448-2.805-6.253-6.252-6.253H18.358z"/>
	</g>
	<g>
		<path class="st4" d="M165.041,182.172H33.977c-3.025,0-5.478-2.452-5.478-5.478l0,0c0-3.025,2.452-5.478,5.478-5.478h131.064
			c3.025,0,5.478,2.452,5.478,5.478l0,0C170.519,179.72,168.067,182.172,165.041,182.172z"/>
	</g>
	<g>
		<path class="st4" d="M42.684,209.792H31.336c-1.567,0-2.837-1.27-2.837-2.837v-11.347c0-1.567,1.27-2.837,2.837-2.837h11.347
			c1.567,0,2.837,1.27,2.837,2.837v11.347C45.521,208.521,44.251,209.792,42.684,209.792z"/>
	</g>
	<g>
		<path class="st4" d="M165.041,206.759H67.894c-3.025,0-5.478-2.452-5.478-5.478v0c0-3.025,2.452-5.478,5.478-5.478h97.147
			c3.025,0,5.478,2.452,5.478,5.478v0C170.519,204.306,168.067,206.759,165.041,206.759z"/>
	</g>
	<g>
		<path class="st4" d="M165.041,97.067H33.977c-3.025,0-5.478-2.452-5.478-5.478v0c0-3.025,2.452-5.478,5.478-5.478h131.064
			c3.025,0,5.478,2.452,5.478,5.478v0C170.519,94.614,168.067,97.067,165.041,97.067z"/>
	</g>
	<g>
		<path class="st4" d="M132.512,121.653H35.365c-3.025,0-5.478-2.452-5.478-5.478v0c0-3.025,2.452-5.478,5.478-5.478h97.147
			c3.025,0,5.478,2.452,5.478,5.478v0C137.989,119.2,135.537,121.653,132.512,121.653z"/>
	</g>
	<g>
		<path class="st4" d="M165.041,151.913H33.977c-3.025,0-5.478-2.452-5.478-5.478l0,0c0-3.025,2.452-5.478,5.478-5.478h131.064
			c3.025,0,5.478,2.452,5.478,5.478l0,0C170.519,149.46,168.067,151.913,165.041,151.913z"/>
	</g>
	<g>
		<path class="st2" d="M77.157,62.023c-5.162,7.986-22.587,8.974-28.516-0.372c-4.772-7.521,1.443-10.553,4.136-8.066
			c2.533,2.339,1.841,8.659,9.998,8.659c4.313,0,8.19-2.156,8.19-5.929c0-9.446-23.276-3.472-23.276-18.56
			c0-15.529,29.592-14.272,29.592-1.434c0,3.214-3.824,4.96-5.75,3.102c-2.502-2.406-2.07-7.156-9.197-7.156
			c-7.481,0-10.311,6.912-2.234,9.349c6.243,1.89,14.78,2.697,17.857,8.646C79.398,53.056,79.699,58.09,77.157,62.023z"/>
	</g>
	<g>
		<path class="st2" d="M109.933,57.914H93.497c-3.276,8.799-3.473,10.341-6.481,10.341c-1.029,0-1.939-0.377-2.729-1.131
			c-2.618-2.494-1.677-2.243,11.403-35.7c0.413-1.057,0.854-1.935,1.324-2.634c2.007-2.986,7.98-4.1,10.562,2.165
			c0.322,0.782,0.731,1.825,1.227,3.13c11.472,28.337,11.804,28.689,11.804,30.419c0,2.621-3.209,4.628-5.653,3.406
			c-0.46-0.23-0.846-0.542-1.159-0.938C112.784,65.698,111.219,61.293,109.933,57.914z M95.648,51.764h12.079l-6.095-16.685
			L95.648,51.764z"/>
	</g>
	<g>
		<path class="st2" d="M138.974,33.894c0,31.365,0.416,31.456-1.132,33.135c-0.754,0.818-1.728,1.227-2.922,1.227
			c-2.277,0-4.11-1.478-4.11-4.992v-29.37c-8.282,0-13.071,0.909-13.071-3.365c0-2.333,1.75-3.392,4.136-3.392
			c27.978,0,27.788-0.335,29.192,0.938c0.689,0.625,1.034,1.443,1.034,2.454C152.101,34.813,147.153,33.894,138.974,33.894z"/>
	</g>
	<g>
		<g>
			<path class="st0" d="M108.493,73.434H210.43c3.184,0,5.766,2.581,5.766,5.766v163.034c0,3.184-2.581,5.766-5.766,5.766H108.493
				c-3.184,0-5.766-2.581-5.766-5.766V79.2C102.727,76.016,105.309,73.434,108.493,73.434z"/>
		</g>
		<g>
			<path class="st1" d="M210.43,250H108.493c-4.282,0-7.766-3.483-7.766-7.766V79.2c0-4.282,3.484-7.766,7.766-7.766H210.43
				c4.282,0,7.766,3.483,7.766,7.766v163.034C218.195,246.517,214.711,250,210.43,250z M108.493,75.435
				c-2.076,0-3.766,1.689-3.766,3.766v163.034c0,2.076,1.689,3.766,3.766,3.766H210.43c2.076,0,3.766-1.689,3.766-3.766V79.2
				c0-2.076-1.689-3.766-3.766-3.766H108.493z"/>
		</g>
	</g>
	<g>
		<circle class="st5" cx="146.852" cy="216.548" r="5.263"/>
	</g>
	<g>
		<circle class="st5" cx="172.115" cy="216.548" r="5.263"/>
	</g>
	<g>
		<circle class="st5" cx="197.378" cy="216.548" r="5.263"/>
	</g>
	<g>
		<circle class="st5" cx="121.589" cy="216.548" r="5.263"/>
	</g>
	<g>
		<circle class="st5" cx="146.852" cy="191.285" r="5.263"/>
	</g>
	<g>
		<circle class="st5" cx="172.115" cy="191.285" r="5.263"/>
	</g>
	<g>
		<circle class="st2" cx="197.378" cy="191.285" r="5.263"/>
	</g>
	<g>
		<circle class="st5" cx="121.589" cy="191.285" r="5.263"/>
	</g>
	<g>
		<circle class="st5" cx="146.852" cy="166.022" r="5.263"/>
	</g>
	<g>
		<circle class="st5" cx="172.115" cy="166.022" r="5.263"/>
	</g>
	<g>
		<circle class="st5" cx="197.378" cy="166.022" r="5.263"/>
	</g>
	<g>
		<circle class="st2" cx="121.589" cy="166.022" r="5.263"/>
	</g>
	<g>
		<circle class="st5" cx="146.852" cy="140.758" r="5.263"/>
	</g>
	<g>
		<circle class="st2" cx="172.115" cy="140.758" r="5.263"/>
	</g>
	<g>
		<circle class="st5" cx="197.378" cy="140.758" r="5.263"/>
	</g>
	<g>
		<circle class="st5" cx="121.589" cy="140.758" r="5.263"/>
	</g>
	<g>
		<circle class="st2" cx="146.852" cy="115.495" r="5.263"/>
	</g>
	<g>
		<circle class="st5" cx="172.115" cy="115.495" r="5.263"/>
	</g>
	<g>
		<circle class="st5" cx="197.378" cy="115.495" r="5.263"/>
	</g>
	<g>
		<circle class="st5" cx="121.589" cy="115.495" r="5.263"/>
	</g>
	<g>
		<path class="st1" d="M184.747,233.329c-1.104,0-2-0.896-2-2V84.969c0-1.104,0.896-2,2-2s2,0.896,2,2v146.36
			C186.747,232.434,185.851,233.329,184.747,233.329z"/>
	</g>
	<g>
		<path class="st1" d="M159.483,233.329c-1.104,0-2-0.896-2-2V84.969c0-1.104,0.896-2,2-2s2,0.896,2,2v146.36
			C161.483,232.434,160.588,233.329,159.483,233.329z"/>
	</g>
	<g>
		<path class="st1" d="M134.22,233.329c-1.104,0-2-0.896-2-2V84.969c0-1.104,0.896-2,2-2s2,0.896,2,2v146.36
			C136.22,232.434,135.325,233.329,134.22,233.329z"/>
	</g>
	<g>
		<path class="st1" d="M206.196,103.307h-96.36c-1.104,0-2-0.896-2-2s0.896-2,2-2h96.36c1.104,0,2,0.896,2,2
			S207.301,103.307,206.196,103.307z"/>
	</g>
	<g>
		<path class="st7" d="M211.443,135.325l-61.415,61.415l-3.551,19.345c-0.122,0.663,0.578,1.362,1.241,1.241l19.345-3.551
			l61.415-61.415L211.443,135.325z"/>
	</g>
	<g>
		<path class="st3" d="M224.1,147.982l-58.937,58.937c1.531,1.531,0.094,5.46,1.927,6.829l61.387-61.387L224.1,147.982z"/>
	</g>
	<g>
		<path class="st3" d="M215.821,139.703l-58.937,58.937c0.806,0.806,0.63,1.44,1.074,5.457c0.333,3.002,5.544,1.161,7.204,2.822
			l58.937-58.937L215.821,139.703z"/>
	</g>
	<g>
		<path class="st3" d="M211.443,135.325l-61.387,61.387c1.369,1.834,5.298,0.397,6.829,1.927l58.937-58.937L211.443,135.325z"/>
	</g>
	<g>
		
			<rect x="211.161" y="136.005" transform="matrix(-0.7071 -0.7071 0.7071 -0.7071 281.6213 397.8433)" class="st0" width="24.091" height="9.182"/>
	</g>
	<g>
		<path class="st4" d="M234.629,119.415l9.759,9.759c2.009,2.009,2.009,5.267,0,7.276l-9.417,9.417l-17.035-17.035l9.417-9.417
			C229.362,117.406,232.62,117.406,234.629,119.415z"/>
	</g>
	<g>
		<path class="st1" d="M228.478,154.359c-0.512,0-1.023-0.195-1.414-0.586l-17.035-17.034c-0.781-0.781-0.781-2.047,0-2.828
			l6.493-6.493c0.75-0.75,2.078-0.75,2.828,0l17.035,17.035c0.375,0.375,0.586,0.884,0.586,1.414s-0.211,1.039-0.586,1.414
			l-6.493,6.492C229.501,154.164,228.989,154.359,228.478,154.359z M214.271,135.325l14.206,14.206l3.664-3.664l-14.206-14.207
			L214.271,135.325z"/>
	</g>
	<g>
		<path class="st1" d="M234.97,147.867c-0.53,0-1.039-0.211-1.414-0.586l-17.035-17.035c-0.375-0.375-0.586-0.884-0.586-1.414
			s0.211-1.039,0.586-1.414l9.417-9.417c1.349-1.35,3.144-2.093,5.052-2.093c1.909,0,3.703,0.743,5.053,2.093l9.758,9.759
			c1.35,1.349,2.093,3.144,2.093,5.052s-0.743,3.703-2.093,5.052l-9.417,9.418C236.009,147.656,235.5,147.867,234.97,147.867z
			 M220.764,128.832l14.206,14.207l8.003-8.004c0.594-0.594,0.921-1.384,0.921-2.224s-0.327-1.63-0.921-2.224l-9.759-9.759h0
			c-1.188-1.188-3.259-1.188-4.447,0L220.764,128.832z"/>
	</g>
	<g>
		<path class="st2" d="M148.534,204.879l-2.057,11.206c-0.122,0.663,0.578,1.362,1.241,1.241l11.206-2.057L148.534,204.879z"/>
	</g>
	<g>
		<path class="st1" d="M147.566,219.34c-0.794,0-1.581-0.329-2.178-0.927c-0.726-0.727-1.054-1.731-0.879-2.688l3.551-19.346
			c0.073-0.398,0.266-0.766,0.553-1.053l61.416-61.415c0.78-0.781,2.047-0.781,2.828,0l17.035,17.034
			c0.375,0.375,0.586,0.884,0.586,1.414s-0.211,1.039-0.586,1.414l-61.415,61.416c-0.287,0.287-0.654,0.479-1.053,0.553
			l-19.345,3.551C147.909,219.324,147.737,219.34,147.566,219.34z M151.882,197.714l-3.194,17.4l17.401-3.193l59.56-59.562
			l-14.206-14.206L151.882,197.714z"/>
	</g>
</g>
</svg>
