<?xml version="1.0" encoding="utf-8"?>
<!-- Generator: Adobe Illustrator 22.1.0, SVG Export Plug-In . SVG Version: 6.00 Build 0)  -->
<svg version="1.1" id="Layer_1" xmlns="http://www.w3.org/2000/svg" xmlns:xlink="http://www.w3.org/1999/xlink" x="0px" y="0px"
	 viewBox="0 0 256 256" style="enable-background:new 0 0 256 256;" xml:space="preserve">
<style type="text/css">
	.st0{fill:#E0EBFC;}
	.st1{fill:#3762CC;}
	.st2{fill:#4671C6;}
	.st3{fill:#6BDDDD;}
	.st4{fill:#F9A7A7;}
	.st5{fill:#A4C9FF;}
	.st6{fill:#FFEA92;}
	.st7{fill:#F9CFCF;}
	.st8{fill:#FFE164;}
	.st9{fill:#FFDC85;}
	.st10{fill:#FFEA94;}
	.st11{fill:#B9BEFC;}
	.st12{fill:#EAA97D;}
</style>
<g>
	<g>
		<path class="st3" d="M207.214,158.792h-121.6c-2.099,0-3.8-1.701-3.8-3.8v-60.8c0-2.099,1.701-3.8,3.8-3.8h121.6
			c2.099,0,3.8,1.701,3.8,3.8v60.8C211.014,157.091,209.313,158.792,207.214,158.792z"/>
	</g>
	<g>
		<circle class="st6" cx="146.414" cy="124.592" r="24.551"/>
	</g>
	<g>
		<path class="st2" d="M147.687,108.762c8.279,0.852,9.684,8.949,5.434,8.949c-3.353,0-1.276-3.815-5.434-5.168v7.904
			c3.087,0.847,8.701,2.086,8.701,8.397c0,4.383-3.108,8.099-8.701,8.569c0,3.899,0.122,5.565-0.218,6.365
			c-0.301,0.703-1.547,0.658-1.919,0.095c-0.429-0.652-0.275-1.81-0.275-6.422c-9.195-1.022-10.988-10.392-6.346-10.392
			c3.741,0,1.276,5.023,6.346,6.46v-8.835c-1.697-0.468-3.116-0.991-4.256-1.567c-5.86-2.961-5.659-13.491,4.256-14.354
			c0-2.021-0.256-3.61,1.197-3.61C147.956,105.152,147.687,106.708,147.687,108.762z M145.274,119.743v-7.277
			c-2.448,0.73-3.381,1.714-3.381,3.61C141.893,117.568,142.335,118.665,145.274,119.743z M147.687,125.386v8.322
			c2.732-0.54,4.009-2.333,4.009-4.237C151.696,127.837,151.075,126.462,147.687,125.386z"/>
	</g>
	<g>
		<path class="st1" d="M207.214,160.793h-121.6c-3.198,0-5.8-2.603-5.8-5.801v-60.8c0-3.198,2.602-5.8,5.8-5.8h121.6
			c3.198,0,5.8,2.602,5.8,5.8v60.8C213.014,158.19,210.413,160.793,207.214,160.793z M85.614,92.393c-0.993,0-1.8,0.808-1.8,1.8
			v60.8c0,0.993,0.808,1.801,1.8,1.801h121.6c0.992,0,1.8-0.808,1.8-1.801v-60.8c0-0.992-0.808-1.8-1.8-1.8H85.614z"/>
	</g>
	<g>
		<path class="st1" d="M146.414,151.144c-14.64,0-26.551-11.91-26.551-26.551s11.911-26.551,26.551-26.551
			s26.551,11.91,26.551,26.551S161.054,151.144,146.414,151.144z M146.414,102.042c-12.435,0-22.551,10.116-22.551,22.551
			s10.116,22.551,22.551,22.551s22.551-10.116,22.551-22.551S158.849,102.042,146.414,102.042z"/>
	</g>
	<g>
		<path class="st12" d="M216.334,158.792h-44.84c-1.259,0-2.28-1.021-2.28-2.28v-8.449c0-1.259,1.021-2.28,2.28-2.28h44.84
			c1.259,0,2.28,1.021,2.28,2.28v8.449C218.614,157.772,217.593,158.792,216.334,158.792z"/>
	</g>
	<g>
		<path class="st12" d="M216.334,145.784h-44.84c-1.259,0-2.28-1.021-2.28-2.28v-8.449c0-1.259,1.021-2.28,2.28-2.28h44.84
			c1.259,0,2.28,1.021,2.28,2.28v8.449C218.614,144.763,217.593,145.784,216.334,145.784z"/>
	</g>
	<g>
		<path class="st12" d="M216.334,132.775h-44.84c-1.259,0-2.28-1.021-2.28-2.28v-8.449c0-1.259,1.021-2.28,2.28-2.28h44.84
			c1.259,0,2.28,1.021,2.28,2.28v8.449C218.614,131.755,217.593,132.775,216.334,132.775z"/>
	</g>
	<g>
		<path class="st1" d="M216.334,160.793h-44.84c-2.36,0-4.28-1.92-4.28-4.28v-8.449c0-2.359,1.92-4.279,4.28-4.279h44.84
			c2.36,0,4.28,1.92,4.28,4.279v8.449C220.614,158.873,218.694,160.793,216.334,160.793z M171.494,147.784
			c-0.154,0-0.28,0.125-0.28,0.279v8.449c0,0.154,0.125,0.28,0.28,0.28h44.84c0.155,0,0.28-0.126,0.28-0.28v-8.449
			c0-0.154-0.125-0.279-0.28-0.279H171.494z"/>
	</g>
	<g>
		<path class="st1" d="M216.334,147.784h-44.84c-2.36,0-4.28-1.92-4.28-4.28v-8.448c0-2.36,1.92-4.28,4.28-4.28h44.84
			c2.36,0,4.28,1.92,4.28,4.28v8.448C220.614,145.864,218.694,147.784,216.334,147.784z M171.494,134.775
			c-0.154,0-0.28,0.126-0.28,0.28v8.448c0,0.154,0.125,0.28,0.28,0.28h44.84c0.155,0,0.28-0.126,0.28-0.28v-8.448
			c0-0.154-0.125-0.28-0.28-0.28H171.494z"/>
	</g>
	<g>
		<path class="st1" d="M216.334,134.775h-44.84c-2.36,0-4.28-1.92-4.28-4.28v-8.448c0-2.36,1.92-4.28,4.28-4.28h44.84
			c2.36,0,4.28,1.92,4.28,4.28v8.448C220.614,132.855,218.694,134.775,216.334,134.775z M171.494,121.767
			c-0.154,0-0.28,0.126-0.28,0.28v8.448c0,0.154,0.125,0.28,0.28,0.28h44.84c0.155,0,0.28-0.126,0.28-0.28v-8.448
			c0-0.154-0.125-0.28-0.28-0.28H171.494z"/>
	</g>
	<g>
		<path class="st7" d="M247.022,195.63c-2.992-8.814-11.772-14.306-21.007-13.139l-29.51,3.728
			c-2.669-10.868-12.473-18.933-24.164-18.933h-38.776c-1.525,0-2.893-0.88-3.585-2.239c-4.597-9.021-13.966-15.202-24.785-15.202
			H76.027c-15.358,0-27.809,12.45-27.809,27.809c0,21.765,0,29.629,0,45.205l69.419,9.005c7.681,0.996,15.484,0.45,22.952-1.605
			l103.125-28.39C246.406,201.129,247.92,198.274,247.022,195.63z"/>
	</g>
	<g>
		<path class="st2" d="M29.469,246.428h-18.75c-1.105,0-2-0.895-2-2v-96c0-1.105,0.895-2,2-2h18.75c1.105,0,2,0.895,2,2v96
			C31.469,245.532,30.573,246.428,29.469,246.428z"/>
	</g>
	<g>
		<path class="st1" d="M192.593,198.809h-59.589c-1.104,0-2-0.896-2-2s0.896-2,2-2h59.589c1.453,0,2.635-1.182,2.635-2.635
			c0-12.62-10.267-22.887-22.887-22.887h-38.775c-2.264,0-4.321-1.276-5.368-3.331c-4.434-8.703-13.249-14.109-23.003-14.109H76.027
			c-14.231,0-25.809,11.578-25.809,25.809v19.153c0,1.104-0.896,2-2,2s-2-0.896-2-2v-19.153c0-16.437,13.372-29.809,29.809-29.809
			h29.167c11.267,0,21.446,6.243,26.567,16.293c0.36,0.708,1.051,1.147,1.803,1.147h38.775c14.825,0,26.887,12.062,26.887,26.887
			C199.228,195.832,196.251,198.809,192.593,198.809z"/>
	</g>
	<g>
		<path class="st0" d="M40.219,149.944h-8.75v92.967h8.75c4.418,0,8-3.582,8-8v-76.967
			C48.219,153.526,44.637,149.944,40.219,149.944z"/>
	</g>
	<g>
		<path class="st1" d="M29.469,248.428h-18.75c-2.206,0-4-1.794-4-4v-96c0-2.206,1.794-4,4-4h18.75c2.206,0,4,1.794,4,4v96
			C33.469,246.634,31.674,248.428,29.469,248.428z M10.719,148.428v96h18.752l-0.002-96H10.719z"/>
	</g>
	<g>
		<path class="st1" d="M40.219,244.911h-8.75c-1.104,0-2-0.896-2-2v-92.967c0-1.104,0.896-2,2-2h8.75c5.514,0,10,4.486,10,10v76.967
			C50.219,240.425,45.733,244.911,40.219,244.911z M33.469,240.911h6.75c3.309,0,6-2.691,6-6v-76.967c0-3.309-2.691-6-6-6h-6.75
			V240.911z"/>
	</g>
	<g>
		<path class="st1" d="M125.168,234.354c-2.59,0-5.188-0.168-7.787-0.505l-69.419-9.006c-0.997-0.129-1.743-0.979-1.743-1.983
			v-45.204c0-16.438,13.372-29.81,29.809-29.81h29.168c11.266,0,21.446,6.243,26.567,16.294c0.36,0.708,1.051,1.147,1.803,1.147
			h38.775c11.813,0,22.105,7.616,25.623,18.731l27.801-3.512c10.13-1.271,19.868,4.809,23.151,14.48l0,0
			c0.604,1.779,0.446,3.752-0.435,5.413c-0.88,1.66-2.424,2.899-4.236,3.398l-103.125,28.39
			C135.881,233.63,130.541,234.354,125.168,234.354z M50.219,221.103l67.677,8.779c7.456,0.968,14.914,0.444,22.164-1.551
			l103.125-28.39c0.766-0.21,1.392-0.713,1.764-1.415c0.372-0.701,0.436-1.502,0.181-2.254l0,0
			c-2.674-7.878-10.604-12.844-18.862-11.797l-29.51,3.728c-1.01,0.133-1.95-0.521-2.193-1.508
			c-2.517-10.25-11.655-17.408-22.222-17.408h-38.775c-2.263,0-4.32-1.276-5.367-3.331c-4.435-8.704-13.249-14.11-23.003-14.11
			H76.027c-14.231,0-25.809,11.578-25.809,25.81V221.103z"/>
	</g>
	<g>
		<path class="st6" d="M225.922,88.045c0-15.973,0-27.551,0-42.693c-0.014,0.006-0.026,0.014-0.04,0.019l-3.39,1.302
			c0,11.034,0,32.136,0,41.371c-1.221,0.625-2.058,1.893-2.058,3.359v9.034h7.547v-9.034
			C227.98,89.937,227.143,88.669,225.922,88.045z"/>
	</g>
	<g>
		<path class="st2" d="M141.474,10.443l-75.02,28.819c-2.798,1.075-2.798,5.034,0,6.109l75.02,28.819
			c3.021,1.161,6.366,1.161,9.387,0l75.02-28.819c2.798-1.075,2.798-5.034,0-6.109l-75.02-28.819
			C147.84,9.282,144.496,9.282,141.474,10.443z"/>
	</g>
	<g>
		<path class="st1" d="M146.168,77.063c-1.833,0-3.667-0.336-5.411-1.006l-75.02-28.819c-2.054-0.789-3.381-2.722-3.381-4.922
			s1.327-4.133,3.381-4.922l75.02-28.818c3.489-1.339,7.333-1.339,10.822,0l75.02,28.818c2.054,0.789,3.381,2.722,3.381,4.922
			s-1.327,4.133-3.381,4.922l-75.02,28.819C149.834,76.728,148.001,77.063,146.168,77.063z M146.168,11.571
			c-1.347,0-2.694,0.246-3.976,0.739l0,0l-75.02,28.818c-0.736,0.283-0.816,0.925-0.816,1.188s0.08,0.904,0.816,1.188l75.02,28.819
			c2.564,0.986,5.388,0.986,7.953,0l75.02-28.819c0.736-0.283,0.816-0.925,0.816-1.188s-0.08-0.904-0.816-1.188l-75.02-28.818
			C148.862,11.817,147.515,11.571,146.168,11.571z M141.475,10.443h0.01H141.475z"/>
	</g>
	<g>
		<path class="st2" d="M194.716,46.47H97.932c-0.885,0-1.603,0.718-1.603,1.603v23.896c0,5.275,22.383,9.551,49.994,9.551
			c27.611,0,49.994-4.276,49.994-9.551h0.001V48.073C196.318,47.188,195.601,46.47,194.716,46.47z"/>
	</g>
	<g>
		<path class="st1" d="M146.323,83.52c-19.312,0-51.994-2.433-51.994-11.551V48.073c0-1.987,1.616-3.604,3.603-3.604h96.784
			c1.986,0,3.603,1.616,3.603,3.604v23.896C198.317,81.087,165.634,83.52,146.323,83.52z M98.329,48.47v23.499
			c0.625,2.621,17.663,7.551,47.994,7.551c30.331,0,47.369-4.93,47.996-7.572l-0.001-23.478H98.329z M194.716,48.47h0.01H194.716z"
			/>
	</g>
</g>
</svg>
