<?xml version="1.0" encoding="utf-8"?>
<!-- Generator: Adobe Illustrator 22.1.0, SVG Export Plug-In . SVG Version: 6.00 Build 0)  -->
<svg version="1.1" id="Layer_1" xmlns="http://www.w3.org/2000/svg" xmlns:xlink="http://www.w3.org/1999/xlink" x="0px" y="0px"
	 viewBox="0 0 256 256" style="enable-background:new 0 0 256 256;" xml:space="preserve">
<style type="text/css">
	.st0{fill:#E0EBFC;}
	.st1{fill:#3762CC;}
	.st2{fill:#4671C6;}
	.st3{fill:#6BDDDD;}
	.st4{fill:#F9A7A7;}
	.st5{fill:#A4C9FF;}
	.st6{fill:#FFEA92;}
	.st7{fill:#F9CFCF;}
	.st8{fill:#FFE164;}
	.st9{fill:#FFDC85;}
	.st10{fill:#FFEA94;}
	.st11{fill:#B9BEFC;}
	.st12{fill:#EAA97D;}
</style>
<g>
	<g>
		<path class="st2" d="M128,241.08H18.698c-2.625,0-4.752-2.128-4.752-4.752V95.424c0-2.625,2.128-4.752,4.752-4.752h100.808
			c4.691,0,8.494,3.803,8.494,8.494V241.08z"/>
	</g>
	<g>
		<path class="st2" d="M128,241.08h109.302c2.625,0,4.752-2.128,4.752-4.752V95.424c0-2.625-2.128-4.752-4.752-4.752H136.494
			c-4.691,0-8.494,3.803-8.494,8.494V241.08z"/>
	</g>
	<g>
		<path class="st1" d="M128,243.081H18.698c-3.723,0-6.752-3.029-6.752-6.752V95.424c0-3.723,3.029-6.752,6.752-6.752h100.808
			c5.786,0,10.494,4.708,10.494,10.494v141.915C130,242.185,129.104,243.081,128,243.081z M18.698,92.671
			c-1.518,0-2.752,1.235-2.752,2.752v140.904c0,1.518,1.235,2.752,2.752,2.752H126V99.166c0-3.581-2.913-6.494-6.494-6.494H18.698z"
			/>
	</g>
	<g>
		<path class="st1" d="M237.302,243.081H128c-1.104,0-2-0.896-2-2V99.166c0-5.787,4.708-10.494,10.494-10.494h100.808
			c3.723,0,6.752,3.029,6.752,6.752v140.904C244.054,240.051,241.025,243.081,237.302,243.081z M130,239.081h107.302
			c1.518,0,2.752-1.235,2.752-2.752V95.424c0-1.518-1.235-2.752-2.752-2.752H136.494c-3.581,0-6.494,2.913-6.494,6.494V239.081z"/>
	</g>
	<g>
		<path class="st11" d="M223.045,82.83v7.841H128H32.955V82.83c-7.287,0.792-7.706,7.841-7.706,7.841v142.568H128h102.751V90.672
			C230.751,90.672,230.332,83.622,223.045,82.83z"/>
	</g>
	<g>
		<path class="st1" d="M230.751,235.239H25.249c-1.104,0-2-0.896-2-2V90.671c0-0.04,0.001-0.079,0.003-0.119
			c0.18-3.021,2.394-8.939,9.487-9.71c0.568-0.06,1.129,0.121,1.552,0.5c0.423,0.379,0.665,0.921,0.665,1.489v5.841h186.09v-5.841
			c0-0.568,0.242-1.109,0.665-1.489c0.422-0.379,0.988-0.559,1.552-0.5c7.093,0.771,9.307,6.689,9.487,9.71
			c0.002,0.04,0.003,0.079,0.003,0.119v142.568C232.751,234.344,231.856,235.239,230.751,235.239z M27.249,231.239h201.503V90.746
			c-0.052-0.599-0.485-3.948-3.707-5.358v5.284c0,1.104-0.896,2-2,2H32.955c-1.104,0-2-0.896-2-2v-5.283
			c-3.272,1.436-3.667,4.874-3.707,5.353V231.239z"/>
	</g>
	<g>
		<path class="st0" d="M128,233.239H32.955V82.83h87.235c4.313,0,7.81,3.497,7.81,7.81V233.239z"/>
	</g>
	<g>
		<path class="st0" d="M128,233.239h95.045V82.83H135.81c-4.313,0-7.81,3.497-7.81,7.81V233.239z"/>
	</g>
	<g>
		<path class="st11" d="M210.531,110.735h-67.482c-1.837,0-3.327-1.489-3.327-3.327v0c0-1.837,1.489-3.327,3.327-3.327h67.482
			c1.837,0,3.327,1.489,3.327,3.327v0C213.857,109.245,212.368,110.735,210.531,110.735z"/>
	</g>
	<g>
		<path class="st11" d="M210.531,129.744h-67.482c-1.837,0-3.327-1.489-3.327-3.327v0c0-1.837,1.489-3.327,3.327-3.327h67.482
			c1.837,0,3.327,1.489,3.327,3.327v0C213.857,128.254,212.368,129.744,210.531,129.744z"/>
	</g>
	<g>
		<path class="st11" d="M210.531,186.771h-67.482c-1.837,0-3.327-1.489-3.327-3.327l0,0c0-1.837,1.489-3.327,3.327-3.327h67.482
			c1.837,0,3.327,1.489,3.327,3.327l0,0C213.857,185.281,212.368,186.771,210.531,186.771z"/>
	</g>
	<g>
		<path class="st11" d="M210.531,205.78h-67.482c-1.837,0-3.327-1.489-3.327-3.327l0,0c0-1.837,1.489-3.327,3.327-3.327h67.482
			c1.837,0,3.327,1.489,3.327,3.327l0,0C213.857,204.29,212.368,205.78,210.531,205.78z"/>
	</g>
	<g>
		<path class="st11" d="M114.218,110.735H82.616c-1.837,0-3.327-1.489-3.327-3.327v0c0-1.837,1.489-3.327,3.327-3.327h31.602
			c1.837,0,3.327,1.489,3.327,3.327v0C117.545,109.245,116.056,110.735,114.218,110.735z"/>
	</g>
	<g>
		<path class="st11" d="M114.218,129.744H82.616c-1.837,0-3.327-1.489-3.327-3.327v0c0-1.837,1.489-3.327,3.327-3.327h31.602
			c1.837,0,3.327,1.489,3.327,3.327v0C117.545,128.254,116.056,129.744,114.218,129.744z"/>
	</g>
	<g>
		<path class="st11" d="M114.218,148.753H46.736c-1.837,0-3.327-1.489-3.327-3.327v0c0-1.837,1.489-3.327,3.327-3.327h67.482
			c1.837,0,3.327,1.489,3.327,3.327v0C117.545,147.263,116.056,148.753,114.218,148.753z"/>
	</g>
	<g>
		<path class="st11" d="M114.218,167.762H46.736c-1.837,0-3.327-1.489-3.327-3.327v0c0-1.837,1.489-3.327,3.327-3.327h67.482
			c1.837,0,3.327,1.489,3.327,3.327v0C117.545,166.272,116.056,167.762,114.218,167.762z"/>
	</g>
	<g>
		<path class="st11" d="M115.644,205.78H45.311c-1.05,0-1.901-0.851-1.901-1.901v-21.86c0-1.05,0.851-1.901,1.901-1.901h70.333
			c1.05,0,1.901,0.851,1.901,1.901v21.86C117.545,204.929,116.694,205.78,115.644,205.78z"/>
	</g>
	<g>
		<path class="st1" d="M128,235.239H32.955c-1.104,0-2-0.896-2-2V82.831c0-1.104,0.896-2,2-2h87.235c5.409,0,9.81,4.4,9.81,9.81
			v142.599C130,234.344,129.104,235.239,128,235.239z M34.955,231.239H126V90.64c0-3.204-2.606-5.81-5.81-5.81H34.955V231.239z"/>
	</g>
	<g>
		<path class="st1" d="M223.045,235.239H128c-1.104,0-2-0.896-2-2V90.64c0-5.409,4.401-9.81,9.81-9.81h87.235c1.104,0,2,0.896,2,2
			v150.409C225.045,234.344,224.149,235.239,223.045,235.239z M130,231.239h91.045V84.831H135.81c-3.204,0-5.81,2.606-5.81,5.81
			V231.239z"/>
	</g>
	<g>
		<path class="st11" d="M120.294,225.398H32.955c-7.287,0.792-7.706,7.841-7.706,7.841h7.706H128
			C128,233.239,127.58,226.19,120.294,225.398z"/>
	</g>
	<g>
		<path class="st11" d="M223.045,225.398h-87.339c-7.287,0.792-7.706,7.841-7.706,7.841h95.045h7.706
			C230.751,233.239,230.332,226.19,223.045,225.398z"/>
	</g>
	<g>
		<path class="st1" d="M128,235.239H25.249c-0.551,0-1.078-0.228-1.456-0.628s-0.574-0.94-0.541-1.49
			c0.18-3.022,2.394-8.94,9.487-9.711c0.072-0.008,0.144-0.012,0.216-0.012h87.338c0.072,0,0.145,0.004,0.216,0.012
			c7.093,0.771,9.307,6.689,9.487,9.711c0.033,0.55-0.163,1.089-0.541,1.49S128.551,235.239,128,235.239z M27.78,231.239h97.689
			c-0.655-1.562-2.102-3.458-5.29-3.841H33.069C29.88,227.781,28.434,229.684,27.78,231.239z"/>
	</g>
	<g>
		<path class="st1" d="M230.751,235.239H128c-0.551,0-1.078-0.228-1.456-0.628s-0.574-0.94-0.541-1.49
			c0.18-3.022,2.394-8.94,9.487-9.711c0.072-0.008,0.144-0.012,0.216-0.012h87.338c0.072,0,0.145,0.004,0.216,0.012
			c7.093,0.771,9.307,6.689,9.487,9.711c0.033,0.55-0.163,1.089-0.541,1.49S231.303,235.239,230.751,235.239z M130.531,231.239
			h97.689c-0.655-1.562-2.102-3.458-5.29-3.841H135.82C132.632,227.781,131.186,229.684,130.531,231.239z"/>
	</g>
	<g>
		<path class="st11" d="M72.874,129.744H45.311c-1.05,0-1.901-0.851-1.901-1.901v-21.86c0-1.05,0.851-1.901,1.901-1.901h27.563
			c1.05,0,1.901,0.851,1.901,1.901v21.86C74.775,128.893,73.924,129.744,72.874,129.744z"/>
	</g>
	<g>
		<path class="st11" d="M211.956,167.762h-70.333c-1.05,0-1.901-0.851-1.901-1.901V144c0-1.05,0.851-1.901,1.901-1.901h70.333
			c1.05,0,1.901,0.851,1.901,1.901v21.86C213.857,166.911,213.006,167.762,211.956,167.762z"/>
	</g>
	<g>
		<path class="st6" d="M225.213,104.399c0-17.14,0-30.358,0-45.57l-4.415,1.696c0,14.661,0,34.257,0,43.874
			c-1.571,0.804-2.649,2.436-2.649,4.323v11.627h9.714v-11.627C227.862,106.834,226.784,105.203,225.213,104.399z"/>
	</g>
	<g>
		<path class="st2" d="M121.83,15.987L29.876,51.311c-3.43,1.318-3.43,6.17,0,7.488l91.953,35.324c3.704,1.423,7.803,1.423,11.506,0
			l91.953-35.324c3.43-1.318,3.43-6.17,0-7.488l-91.953-35.324C129.632,14.564,125.533,14.564,121.83,15.987z"/>
	</g>
	<g>
		<path class="st1" d="M127.583,97.192c-2.192,0-4.384-0.4-6.47-1.202L29.159,60.666c-2.342-0.9-3.855-3.102-3.855-5.611
			c0-2.509,1.513-4.711,3.855-5.611l91.954-35.324c4.173-1.602,8.768-1.603,12.941,0l91.954,35.324
			c2.342,0.9,3.855,3.102,3.855,5.611c0,2.509-1.513,4.711-3.855,5.611l-91.954,35.325
			C131.967,96.792,129.775,97.192,127.583,97.192z M127.583,16.918c-1.706,0-3.412,0.312-5.036,0.936L30.593,53.178
			c-1.197,0.459-1.29,1.553-1.29,1.876c0,0.324,0.093,1.417,1.29,1.877l91.954,35.325c3.248,1.248,6.826,1.248,10.072,0
			l91.954-35.325c1.197-0.459,1.29-1.553,1.29-1.877c0-0.324-0.093-1.417-1.29-1.876l-91.954-35.324
			C130.995,17.23,129.289,16.918,127.583,16.918z M121.83,15.987h0.01H121.83z"/>
	</g>
	<g>
		<path class="st2" d="M184.123,61.22H71.424c-1.031,0-1.866,0.836-1.866,1.866v27.826c0,6.142,26.064,11.121,58.215,11.121
			s58.215-4.979,58.215-11.121h0.001V63.086C185.989,62.056,185.154,61.22,184.123,61.22z"/>
	</g>
	<g>
		<path class="st1" d="M127.773,104.033c-20.827,0-60.215-2.742-60.215-13.121V63.086c0-2.132,1.734-3.866,3.866-3.866h112.699
			c2.132,0,3.866,1.734,3.866,3.866v27.826C187.987,101.291,148.6,104.033,127.773,104.033z M71.558,63.22v27.692
			c0,0.029,0.663,3.079,15.426,5.899c10.875,2.078,25.361,3.222,40.789,3.222s29.914-1.144,40.789-3.222
			c14.763-2.82,15.426-5.87,15.426-5.899l0.001-27.692H71.558z M184.123,63.22h0.01H184.123z"/>
	</g>
	<g>
		<circle class="st3" cx="128" cy="125.442" r="48.255"/>
	</g>
	<g>
		<circle class="st0" cx="128" cy="125.442" r="35.329"/>
	</g>
	<g>
		<path class="st1" d="M128,175.697c-27.71,0-50.254-22.544-50.254-50.255S100.29,75.188,128,75.188s50.254,22.544,50.254,50.254
			S155.71,175.697,128,175.697z M128,79.188c-25.505,0-46.254,20.75-46.254,46.254s20.75,46.255,46.254,46.255
			s46.254-20.75,46.254-46.255S153.505,79.188,128,79.188z"/>
	</g>
	<g>
		<path class="st1" d="M128,162.771c-20.583,0-37.329-16.746-37.329-37.33S107.417,88.113,128,88.113s37.329,16.746,37.329,37.329
			S148.583,162.771,128,162.771z M128,92.113c-18.378,0-33.329,14.951-33.329,33.329s14.951,33.33,33.329,33.33
			s33.329-14.952,33.329-33.33S146.378,92.113,128,92.113z"/>
	</g>
	<g>
		<path class="st5" d="M128,152.799c-15.084,0-27.356-12.272-27.356-27.357S112.916,98.086,128,98.086
			c15.085,0,27.357,12.272,27.357,27.357S143.084,152.799,128,152.799z"/>
	</g>
	<g>
		<path class="st7" d="M128,98.086L128,98.086c-15.084,0-27.356,12.272-27.356,27.357s12.272,27.357,27.356,27.357h0v-26.237h27.328
			c0.015-0.372,0.028-0.744,0.028-1.119C155.357,110.358,143.085,98.086,128,98.086z"/>
	</g>
	<g>
		<path class="st2" d="M128.075,129.293c-1.48,0-2.681-1.2-2.681-2.681v-25.964c0-1.481,1.2-2.681,2.681-2.681
			c1.48,0,2.681,1.2,2.681,2.681v25.964C130.756,128.093,129.555,129.293,128.075,129.293z"/>
	</g>
	<g>
		<path class="st2" d="M154.039,123.931h-25.964c-1.48,0-2.681,1.2-2.681,2.681c0,1.481,1.2,2.681,2.681,2.681h25.964
			c1.48,0,2.681-1.2,2.681-2.681C156.719,125.131,155.519,123.931,154.039,123.931z"/>
	</g>
</g>
</svg>
