<?xml version="1.0" encoding="utf-8"?>
<!-- Generator: Adobe Illustrator 22.1.0, SVG Export Plug-In . SVG Version: 6.00 Build 0)  -->
<svg version="1.1" id="Layer_1" xmlns="http://www.w3.org/2000/svg" xmlns:xlink="http://www.w3.org/1999/xlink" x="0px" y="0px"
	 viewBox="0 0 256 256" style="enable-background:new 0 0 256 256;" xml:space="preserve">
<style type="text/css">
	.st0{fill:#E0EBFC;}
	.st1{fill:#3762CC;}
	.st2{fill:#4671C6;}
	.st3{fill:#6BDDDD;}
	.st4{fill:#F9A7A7;}
	.st5{fill:#A4C9FF;}
	.st6{fill:#FFEA92;}
	.st7{fill:#F9CFCF;}
	.st8{fill:#FFE164;}
	.st9{fill:#FFDC85;}
	.st10{fill:#FFEA94;}
	.st11{fill:#B9BEFC;}
	.st12{fill:#EAA97D;}
</style>
<g>
	<g>
		<path class="st7" d="M79.932,155.259c0,1.421,0,5.544,0,6.99l0.02-0.013l20.851,4.686l20.851-4.686c0-2.549,0-4.425,0-6.992
			C108.622,162.053,92.978,162.064,79.932,155.259z"/>
	</g>
	<g>
		<path class="st1" d="M100.803,168.923c-0.147,0-0.294-0.017-0.438-0.049l-20.697-4.651c-0.231-0.031-0.458-0.104-0.669-0.216
			c-0.65-0.349-1.066-1.02-1.066-1.757v-6.991c0-0.699,0.365-1.348,0.963-1.71c0.598-0.364,1.342-0.387,1.961-0.063
			c12.484,6.512,27.39,6.507,39.871-0.013c0.621-0.324,1.365-0.3,1.962,0.062c0.599,0.363,0.964,1.012,0.964,1.711v6.991
			c0,0.936-0.648,1.746-1.562,1.951l-20.851,4.687C101.098,168.906,100.95,168.923,100.803,168.923z M81.932,160.632l18.871,4.241
			l18.851-4.237v-2.216c-12.013,5.258-25.705,5.262-37.722,0.012V160.632z"/>
	</g>
	<g>
		<path class="st2" d="M145.642,94.796v4.201c4.652-0.094,8.72,2.092,11.251,5.46c0.63-2.737,0.461-1.547,0.461-31.011h-17.219
			C143.644,79.784,145.642,87.058,145.642,94.796z"/>
	</g>
	<g>
		<path class="st1" d="M156.893,106.457c-0.621,0-1.216-0.289-1.599-0.799c-2.285-3.04-5.809-4.757-9.611-4.661
			c-0.562-0.017-1.057-0.196-1.44-0.571c-0.384-0.377-0.6-0.892-0.6-1.429v-4.2c0-7.122-1.818-14.17-5.256-20.382
			c-0.343-0.619-0.333-1.374,0.026-1.984c0.36-0.61,1.015-0.984,1.723-0.984h17.219c1.104,0,2,0.896,2,2
			c0,6.247,0.008,11.115,0.014,14.936c0.022,14.15,0.022,14.15-0.498,16.402l-0.028,0.122c-0.175,0.758-0.773,1.346-1.534,1.507
			C157.17,106.442,157.031,106.457,156.893,106.457z M147.643,97.084c2.831,0.299,5.471,1.34,7.703,3.017
			c0.038-2.012,0.032-5.413,0.022-11.713c-0.005-3.403-0.012-7.64-0.013-12.941H143.39c2.79,6.041,4.252,12.666,4.252,19.351V97.084
			z"/>
	</g>
	<g>
		<path class="st2" d="M156.914,225.189H44.712V192.9c0-13.279,10.765-24.043,24.043-24.043h64.116
			c13.279,0,24.043,10.765,24.043,24.043V225.189z"/>
	</g>
	<g>
		<path class="st1" d="M156.915,227.189H44.712c-1.104,0-2-0.896-2-2V192.9c0-14.36,11.683-26.044,26.043-26.044h64.116
			c14.36,0,26.043,11.684,26.043,26.044v32.289C158.915,226.294,158.019,227.189,156.915,227.189z M46.712,223.189h108.202V192.9
			c0-12.155-9.889-22.044-22.043-22.044H68.755c-12.154,0-22.043,9.889-22.043,22.044V223.189z"/>
	</g>
	<g>
		<path class="st4" d="M160.513,192.528c0-14.565-11.787-25.603-25.563-25.603H66.676c-14.14,0-25.603,11.463-25.603,25.603l0,0
			l59.72,27.92L160.513,192.528z"/>
	</g>
	<g>
		<path class="st1" d="M100.793,222.448c-0.29,0-0.579-0.063-0.847-0.188l-59.72-27.92c-0.703-0.329-1.153-1.035-1.153-1.812
			c0-15.221,12.383-27.604,27.603-27.604h68.274c15.198,0,27.563,12.383,27.563,27.604c0,0.776-0.45,1.482-1.153,1.812l-59.72,27.92
			C101.372,222.386,101.083,222.448,100.793,222.448z M43.106,191.271l57.687,26.969l57.687-26.969
			c-0.654-12.434-10.958-22.347-23.529-22.347H66.676C54.083,168.925,43.762,178.838,43.106,191.271z M160.513,192.528h0.01H160.513
			z"/>
	</g>
	<g>
		<polygon class="st0" points="100.793,166.925 72.563,166.925 100.793,202.922 129.023,166.925 		"/>
	</g>
	<g>
		<path class="st4" d="M100.803,166.938l-7.383,9.413c0.217,1.013,0.014,0.014,1.301,6.461c4.394,0,7.749,0,12.143,0
			c1.311-6.565,1.089-5.471,1.305-6.481L100.803,166.938z"/>
	</g>
	<g>
		<path class="st4" d="M92.94,192.908l7.853,10.014l7.853-10.014l-1.782-10.096c-4.399,0-7.758,0-12.143,0L92.94,192.908z"/>
	</g>
	<g>
		<path class="st1" d="M106.865,184.812H94.722c-0.954,0-1.774-0.673-1.961-1.608l-0.668-3.349
			c-0.471-2.359-0.471-2.359-0.571-2.824l-0.056-0.26c-0.125-0.581,0.016-1.187,0.382-1.654l7.383-9.412
			c0.379-0.483,0.959-0.766,1.574-0.766l0,0c0.614,0,1.194,0.282,1.574,0.766l7.367,9.393c0.366,0.467,0.506,1.073,0.382,1.653
			l-0.063,0.294c-0.096,0.443-0.096,0.443-0.652,3.231l-0.584,2.928C108.639,184.139,107.818,184.812,106.865,184.812z
			 M96.362,180.812h8.863l0.263-1.319c0.313-1.567,0.454-2.271,0.533-2.661l-5.217-6.652l-5.233,6.672
			c0.072,0.354,0.192,0.955,0.444,2.222L96.362,180.812z"/>
	</g>
	<g>
		<path class="st1" d="M100.793,204.922L100.793,204.922c-0.614,0-1.195-0.282-1.574-0.766l-7.853-10.014
			c-0.351-0.447-0.495-1.022-0.396-1.582l1.782-10.097c0.169-0.956,0.999-1.652,1.97-1.652h12.143c0.971,0,1.801,0.696,1.97,1.652
			l1.782,10.097c0.099,0.56-0.045,1.135-0.396,1.582l-7.854,10.014C101.988,204.64,101.407,204.922,100.793,204.922z
			 M95.064,192.377l5.729,7.304l5.729-7.304l-1.335-7.565h-8.788L95.064,192.377z"/>
	</g>
	<g>
		<polygon class="st0" points="72.563,166.931 72.568,166.931 86.687,184.935 100.813,166.925 79.952,162.237 		"/>
	</g>
	<g>
		<polygon class="st0" points="121.654,162.237 100.793,166.925 114.909,184.923 129.019,166.931 129.023,166.931 		"/>
	</g>
	<g>
		<path class="st7" d="M145.642,98.997v-4.201c0-24.554-20.086-44.458-44.863-44.458l0,0c-24.777,0-44.863,19.905-44.863,44.458
			v4.201c-7.79-0.158-13.97,6.048-13.97,13.549c0,8.01,6.993,14.346,15.155,13.483c4.63,19.67,22.422,34.324,43.678,34.324
			c21.257,0,39.048-14.656,43.678-34.324c8.151,0.862,15.155-5.462,15.155-13.483C159.613,105.042,153.428,98.839,145.642,98.997z"
			/>
	</g>
	<g>
		<path class="st1" d="M100.789,139.337C100.789,139.337,100.789,139.337,100.789,139.337c-3.279,0-6.333-1.184-8.379-3.247
			c-1.563-1.575-2.423-3.564-2.423-5.601c0-1.104,0.896-2,2-2s2,0.896,2,2c0,0.988,0.437,1.951,1.263,2.784
			c1.282,1.292,3.352,2.063,5.539,2.063c0,0,0,0,0,0c2.2,0,4.208-0.752,5.509-2.063c0.826-0.833,1.263-1.796,1.263-2.784
			c0-1.104,0.896-2,2-2s2,0.896,2,2c0,2.036-0.86,4.025-2.423,5.601C107.091,138.153,104.048,139.337,100.789,139.337z"/>
	</g>
	<g>
		<path class="st1" d="M124.071,122.751L124.071,122.751c-3.48,0-6.3-2.821-6.3-6.3v-6.72c0-3.48,2.821-6.3,6.3-6.3h0
			c3.48,0,6.3,2.821,6.3,6.3v6.72C130.371,119.93,127.55,122.751,124.071,122.751z"/>
	</g>
	<g>
		<path class="st1" d="M77.477,122.751L77.477,122.751c-3.48,0-6.3-2.821-6.3-6.3v-6.72c0-3.48,2.821-6.3,6.3-6.3h0
			c3.48,0,6.3,2.821,6.3,6.3v6.72C83.778,119.93,80.957,122.751,77.477,122.751z"/>
	</g>
	<g>
		<path class="st1" d="M100.78,162.354c-21.329,0-39.686-14-45.213-34.248c-3.855-0.02-7.594-1.443-10.469-4.029
			c-3.273-2.945-5.15-7.148-5.15-11.53c0-4.195,1.657-8.13,4.667-11.078c2.544-2.493,5.792-4.013,9.304-4.385v-2.287
			c0-25.617,21.022-46.459,46.863-46.459s46.863,20.842,46.863,46.459v2.287c3.511,0.372,6.759,1.892,9.304,4.385
			c3.009,2.949,4.667,6.883,4.667,11.078c0,4.382-1.877,8.584-5.149,11.528c-2.875,2.588-6.616,4.012-10.47,4.031
			C140.465,148.354,122.108,162.354,100.78,162.354z M57.104,124.029c0.918,0,1.731,0.631,1.945,1.542
			c4.543,19.302,21.704,32.783,41.731,32.783s37.188-13.481,41.731-32.783c0.231-0.98,1.154-1.623,2.157-1.531
			c3.329,0.357,6.653-0.719,9.12-2.938c2.431-2.188,3.825-5.306,3.825-8.556c0-3.111-1.231-6.03-3.466-8.221
			c-2.257-2.212-5.26-3.401-8.463-3.329c-0.53,0.004-1.056-0.195-1.44-0.571c-0.384-0.376-0.6-0.892-0.6-1.429v-4.2
			c0-23.412-19.228-42.459-42.863-42.459S57.917,71.385,57.917,94.797v4.2c0,0.537-0.216,1.053-0.6,1.429
			c-0.384,0.376-0.9,0.572-1.44,0.571c-3.205-0.076-6.207,1.117-8.463,3.328c-2.235,2.19-3.466,5.11-3.466,8.222
			c0,3.25,1.395,6.368,3.826,8.557c2.502,2.251,5.747,3.293,9.119,2.937C56.963,124.033,57.034,124.029,57.104,124.029z"/>
	</g>
	<g>
		<path class="st1" d="M100.793,204.922c-0.614,0-1.195-0.282-1.574-0.766L70.99,168.159c-0.472-0.603-0.56-1.421-0.225-2.109
			s1.033-1.125,1.798-1.125h56.459c0.765,0,1.463,0.437,1.798,1.125s0.248,1.507-0.225,2.109l-28.23,35.997
			C101.988,204.64,101.407,204.922,100.793,204.922z M76.673,168.925l24.12,30.756l24.12-30.756H76.673z"/>
	</g>
	<g>
		<polygon class="st0" points="121.654,162.237 100.793,166.925 114.909,184.923 129.019,166.931 129.023,166.931 		"/>
	</g>
	<g>
		<path class="st1" d="M114.909,186.923c-0.614,0-1.195-0.282-1.574-0.766L99.22,168.159c-0.423-0.54-0.541-1.26-0.31-1.905
			c0.23-0.646,0.776-1.13,1.445-1.28l20.861-4.688c0.52-0.12,1.064-0.021,1.513,0.265l7.369,4.694
			c0.75,0.478,1.094,1.393,0.845,2.246c-0.084,0.291-0.231,0.55-0.422,0.767l-14.038,17.9
			C116.104,186.641,115.523,186.923,114.909,186.923z M104.321,168.182l10.588,13.5l11.176-14.251l-4.804-3.061L104.321,168.182z"/>
	</g>
	<g>
		<polygon class="st0" points="72.563,166.931 72.568,166.931 86.687,184.935 100.813,166.925 79.952,162.237 		"/>
	</g>
	<g>
		<path class="st1" d="M86.688,186.936L86.688,186.936c-0.614,0-1.195-0.282-1.574-0.766l-14.077-17.95
			c-0.177-0.209-0.312-0.456-0.392-0.73c-0.249-0.854,0.095-1.77,0.846-2.247l7.389-4.694c0.448-0.285,0.991-0.383,1.511-0.263
			l20.861,4.688c0.669,0.15,1.215,0.634,1.445,1.28c0.23,0.646,0.113,1.365-0.31,1.905L88.261,186.17
			C87.882,186.653,87.302,186.936,86.688,186.936z M75.503,167.433l11.185,14.262l10.598-13.513l-16.961-3.812L75.503,167.433z"/>
	</g>
	<g>
		<path class="st1" d="M100.78,162.354c-21.329,0-39.686-14-45.213-34.248c-3.855-0.02-7.594-1.443-10.469-4.029
			c-3.273-2.945-5.15-7.148-5.15-11.53c0-4.195,1.657-8.13,4.667-11.078c2.544-2.493,5.792-4.013,9.304-4.385v-2.287
			c0-25.617,21.022-46.459,46.863-46.459s46.863,20.842,46.863,46.459v2.287c3.511,0.372,6.759,1.892,9.304,4.385
			c3.009,2.949,4.667,6.883,4.667,11.078c0,4.382-1.877,8.584-5.149,11.528c-2.875,2.588-6.616,4.012-10.47,4.031
			C140.465,148.354,122.108,162.354,100.78,162.354z M57.104,124.029c0.918,0,1.731,0.631,1.945,1.542
			c4.543,19.302,21.704,32.783,41.731,32.783s37.188-13.481,41.731-32.783c0.231-0.98,1.154-1.623,2.157-1.531
			c3.329,0.357,6.653-0.719,9.12-2.938c2.431-2.188,3.825-5.306,3.825-8.556c0-3.111-1.231-6.03-3.466-8.221
			c-2.257-2.212-5.26-3.401-8.463-3.329c-0.53,0.004-1.056-0.195-1.44-0.571c-0.384-0.376-0.6-0.892-0.6-1.429v-4.2
			c0-23.412-19.228-42.459-42.863-42.459S57.917,71.385,57.917,94.797v4.2c0,0.537-0.216,1.053-0.6,1.429
			c-0.384,0.376-0.9,0.572-1.44,0.571c-3.205-0.076-6.207,1.117-8.463,3.328c-2.235,2.19-3.466,5.11-3.466,8.222
			c0,3.25,1.395,6.368,3.826,8.557c2.502,2.251,5.747,3.293,9.119,2.937C56.963,124.033,57.034,124.029,57.104,124.029z"/>
	</g>
	<g>
		<path class="st1" d="M100.78,162.354c-21.329,0-39.686-14-45.213-34.248c-3.855-0.02-7.594-1.443-10.469-4.029
			c-3.273-2.945-5.15-7.148-5.15-11.53c0-4.195,1.657-8.13,4.667-11.078c2.544-2.493,5.792-4.013,9.304-4.385v-2.287
			c0-25.617,21.022-46.459,46.863-46.459s46.863,20.842,46.863,46.459v2.287c3.511,0.372,6.759,1.892,9.304,4.385
			c3.009,2.949,4.667,6.883,4.667,11.078c0,4.382-1.877,8.584-5.149,11.528c-2.875,2.588-6.616,4.012-10.47,4.031
			C140.465,148.354,122.108,162.354,100.78,162.354z M57.104,124.029c0.918,0,1.731,0.631,1.945,1.542
			c4.543,19.302,21.704,32.783,41.731,32.783s37.188-13.481,41.731-32.783c0.231-0.98,1.154-1.623,2.157-1.531
			c3.329,0.357,6.653-0.719,9.12-2.938c2.431-2.188,3.825-5.306,3.825-8.556c0-3.111-1.231-6.03-3.466-8.221
			c-2.257-2.212-5.26-3.401-8.463-3.329c-0.53,0.004-1.056-0.195-1.44-0.571c-0.384-0.376-0.6-0.892-0.6-1.429v-4.2
			c0-23.412-19.228-42.459-42.863-42.459S57.917,71.385,57.917,94.797v4.2c0,0.537-0.216,1.053-0.6,1.429
			c-0.384,0.376-0.9,0.572-1.44,0.571c-3.205-0.076-6.207,1.117-8.463,3.328c-2.235,2.19-3.466,5.11-3.466,8.222
			c0,3.25,1.395,6.368,3.826,8.557c2.502,2.251,5.747,3.293,9.119,2.937C56.963,124.033,57.034,124.029,57.104,124.029z"/>
	</g>
	<g>
		<path class="st2" d="M61.424,73.446H44.19c-0.001,0-0.002,0-0.003,0v4.742h0.003c0,4.565,0,17.673,0,22.327
			c0,1.363,0.171,2.683,0.465,3.957c2.529-3.376,6.602-5.569,11.262-5.474c0-6.444,0.003-3.656,0.023-4.912
			c7.209,2.619,6.465,2.021,61.674,2.021c12.374,0,23.137-6.899,28.653-17.059c0-2.089,0-3.523,0-5.601
			C135.391,73.446,88.511,73.446,61.424,73.446z"/>
	</g>
	<g>
		<path class="st1" d="M44.655,106.472c-0.137,0-0.275-0.014-0.413-0.043c-0.762-0.161-1.361-0.749-1.536-1.507
			c-0.342-1.484-0.516-2.966-0.516-4.406V78.287c-0.001-0.033-0.002-0.066-0.002-0.1v-4.741c0-1.104,0.896-2,2-2h102.08
			c1.104,0,2,0.896,2,2v5.602c0,0.333-0.083,0.661-0.242,0.954c-6.063,11.168-17.715,18.105-30.411,18.105
			c-10.225,0-18.53,0.021-25.321,0.037c-25.472,0.063-29.905,0.074-34.375-1.271c0,0.562,0,1.258,0,2.123
			c0,0.537-0.216,1.053-0.6,1.429c-0.384,0.376-0.9,0.572-1.44,0.571c-3.851-0.086-7.337,1.626-9.621,4.674
			C45.873,106.181,45.277,106.472,44.655,106.472z M46.188,78.088c0.001,0.033,0.002,0.066,0.002,0.1v21.952
			c2.242-1.678,4.913-2.741,7.728-3.051c0.002-1.552,0.009-2.322,0.038-2.754l-0.021-0.001l0.006-0.28
			c0.01-0.646,0.333-1.248,0.865-1.615c0.533-0.365,1.21-0.451,1.818-0.232c5.489,1.994,5.822,2.014,35.66,1.938
			c6.794-0.017,15.103-0.037,25.331-0.037c11.061,0,21.227-5.955,26.653-15.576v-3.085h-98.08V78.088z"/>
	</g>
	<g>
		<path class="st6" d="M190.861,86.738c0-14.564,0-25.903,0-38.72c-0.016,0.007-0.029,0.016-0.046,0.022l-3.837,1.474
			c0,12.719,0,29.064,0,37.224c-1.382,0.707-2.329,2.142-2.329,3.801v10.225h8.542V90.539
			C193.191,88.88,192.243,87.445,190.861,86.738z"/>
	</g>
	<g>
		<path class="st2" d="M95.283,8.508L10.375,41.125c-3.167,1.217-3.167,5.698,0,6.914l84.908,32.618
			c3.42,1.314,7.205,1.314,10.625,0l84.908-32.618c3.167-1.217,3.167-5.698,0-6.914L105.908,8.508
			C102.488,7.194,98.703,7.194,95.283,8.508z"/>
	</g>
	<g>
		<path class="st1" d="M100.595,83.645c-2.042,0-4.085-0.374-6.029-1.12L9.658,49.907C7.436,49.054,6,46.963,6,44.583
			c0-2.381,1.436-4.472,3.658-5.325L94.566,6.641l0,0c3.888-1.493,8.171-1.491,12.059,0l84.908,32.617
			c2.222,0.854,3.658,2.944,3.658,5.325c0,2.38-1.436,4.471-3.658,5.324l-84.908,32.617
			C104.681,83.271,102.638,83.645,100.595,83.645z M96,10.375L11.093,42.992C10.079,43.382,10,44.308,10,44.583
			c0,0.274,0.079,1.2,1.093,1.59L96,78.79c2.964,1.14,6.228,1.139,9.19,0l84.908-32.617c1.014-0.39,1.093-1.315,1.093-1.59
			c0-0.275-0.079-1.201-1.093-1.591L105.19,10.375C102.228,9.236,98.963,9.236,96,10.375L96,10.375z"/>
	</g>
	<g>
		<path class="st1" d="M100.595,83.645c-2.042,0-4.085-0.374-6.029-1.12L9.658,49.907C7.436,49.054,6,46.963,6,44.583
			c0-2.381,1.436-4.472,3.658-5.325L94.566,6.641l0,0c3.888-1.493,8.171-1.491,12.059,0l84.908,32.617
			c2.222,0.854,3.658,2.944,3.658,5.325c0,2.38-1.436,4.471-3.658,5.324l-84.908,32.617
			C104.681,83.271,102.638,83.645,100.595,83.645z M96,10.375L11.093,42.992C10.079,43.382,10,44.308,10,44.583
			c0,0.274,0.079,1.2,1.093,1.59L96,78.79c2.964,1.14,6.228,1.139,9.19,0l84.908-32.617c1.014-0.39,1.093-1.315,1.093-1.59
			c0-0.275-0.079-1.201-1.093-1.591L105.19,10.375C102.228,9.236,98.963,9.236,96,10.375L96,10.375z"/>
	</g>
	<g>
		<path class="st2" d="M153.817,49.284H47.726c-1.955,0-3.539,1.584-3.539,3.539v20.624h0c0,5.379,25.333,9.74,56.584,9.74
			c31.25,0,56.584-4.361,56.584-9.74h0.001V52.823C157.356,50.868,155.771,49.284,153.817,49.284z"/>
	</g>
	<g>
		<path class="st1" d="M100.771,85.187c-2.392,0-58.583-0.134-58.583-11.74V52.822c0-3.055,2.485-5.539,5.539-5.539h106.09
			c3.055,0,5.54,2.484,5.54,5.539v20.624C159.353,85.053,103.163,85.187,100.771,85.187z M47.727,51.283
			c-0.849,0-1.539,0.69-1.539,1.539v20.624c0.967,2.735,20.044,7.74,54.583,7.74s53.616-5.005,54.592-7.806l-0.007-20.559
			c0-0.849-0.69-1.539-1.54-1.539H47.727z"/>
	</g>
	<g>
		<circle class="st3" cx="198" cy="198.478" r="50"/>
	</g>
	<g>
		<path class="st6" d="M198,235.566c-20.45,0-37.089-16.638-37.089-37.088S177.55,161.389,198,161.389s37.087,16.637,37.087,37.088
			S218.45,235.566,198,235.566z"/>
	</g>
	<g>
		<path class="st1" d="M198,250.478c-28.673,0-52-23.327-52-52s23.327-52,52-52s52,23.327,52,52S226.673,250.478,198,250.478z
			 M198,150.478c-26.467,0-48,21.532-48,48s21.533,48,48,48s48-21.532,48-48S224.467,150.478,198,150.478z"/>
	</g>
	<g>
		<path class="st2" d="M188.305,183.857c-0.42-0.107-0.932-0.162-1.521-0.162h-4.486c-0.666,0-1.211,0.187-1.62,0.555
			c-0.423,0.381-0.638,0.869-0.638,1.45c0,0.897,0.441,1.345,0.813,1.563c0.46,0.27,1.09,0.401,1.924,0.401h2.563v2.367
			c-0.702,0.359-1.403,0.644-2.087,0.848c-0.752,0.225-1.57,0.338-2.433,0.338c-1.743,0-3.059-0.548-4.019-1.675
			c-0.968-1.135-1.459-2.804-1.459-4.961c0-1,0.129-1.922,0.384-2.741c0.249-0.801,0.61-1.483,1.075-2.028
			c0.457-0.538,1.018-0.954,1.663-1.237c0.652-0.286,1.409-0.431,2.249-0.431c0.811,0,1.477,0.119,1.979,0.353
			c0.505,0.235,0.908,0.523,1.197,0.859c0.318,0.368,0.721,0.931,1.215,1.701c0.223,0.301,0.504,0.539,0.834,0.708
			c0.332,0.168,0.684,0.254,1.045,0.254c0.646,0,1.207-0.223,1.67-0.664c0.47-0.448,0.708-0.997,0.708-1.634
			c0-0.542-0.182-1.155-0.539-1.821c-0.347-0.646-0.866-1.264-1.542-1.836c-0.674-0.57-1.556-1.046-2.622-1.416
			c-1.061-0.367-2.289-0.553-3.652-0.553c-1.649,0-3.15,0.246-4.461,0.73c-1.321,0.488-2.461,1.206-3.388,2.132
			c-0.928,0.928-1.639,2.069-2.114,3.394c-0.47,1.307-0.708,2.766-0.708,4.336c0,1.598,0.245,3.067,0.729,4.368
			c0.488,1.313,1.201,2.447,2.117,3.373c0.918,0.926,2.04,1.642,3.336,2.126c1.284,0.48,2.723,0.724,4.275,0.724
			c1.325,0,2.569-0.154,3.698-0.457c1.124-0.302,2.308-0.787,3.517-1.441c0.442-0.24,0.813-0.497,1.104-0.763
			c0.324-0.297,0.552-0.64,0.676-1.018c0.116-0.351,0.172-0.792,0.172-1.348v-3.741c0-0.787-0.145-1.377-0.442-1.804
			C189.212,184.271,188.804,183.985,188.305,183.857z"/>
	</g>
	<g>
		<path class="st2" d="M208.123,178.083c-0.33-0.814-0.82-1.513-1.458-2.078c-0.636-0.563-1.398-0.971-2.264-1.211
			c-0.86-0.246-2.037-0.365-3.599-0.365h-5.072c-0.997,0-1.752,0.233-2.245,0.693c-0.503,0.469-0.758,1.219-0.758,2.229v15.044
			c0,0.905,0.227,1.616,0.674,2.112c0.461,0.512,1.069,0.771,1.81,0.771c0.711,0,1.31-0.261,1.78-0.775
			c0.458-0.501,0.69-1.219,0.69-2.135v-5.025h3.121c2.532,0,4.481-0.557,5.793-1.654c1.337-1.12,2.016-2.77,2.016-4.903
			C208.611,179.793,208.447,178.884,208.123,178.083z M197.682,178.397h2.162c2.017,0,2.824,0.39,3.137,0.707
			c0.42,0.45,0.624,1.026,0.624,1.762c0,0.606-0.133,1.092-0.396,1.447c-0.266,0.359-0.65,0.614-1.178,0.778
			c-0.573,0.179-1.31,0.27-2.188,0.27h-2.162V178.397z"/>
	</g>
	<g>
		<path class="st2" d="M225.59,190.691l-5.096-12.585c-0.242-0.635-0.44-1.143-0.598-1.523c-0.167-0.406-0.376-0.793-0.623-1.152
			c-0.269-0.389-0.624-0.711-1.058-0.956c-0.442-0.251-0.989-0.378-1.624-0.378c-0.626,0-1.168,0.127-1.61,0.378
			c-0.436,0.247-0.793,0.575-1.063,0.976c-0.244,0.366-0.476,0.825-0.688,1.368l-5.503,13.98c-0.21,0.522-0.361,0.93-0.453,1.222
			c-0.103,0.331-0.155,0.658-0.155,0.975c0,0.602,0.245,1.141,0.727,1.6c0.476,0.454,1.035,0.685,1.663,0.685
			c0.748,0,1.308-0.239,1.665-0.712c0.289-0.384,0.616-1.072,1.001-2.103l0.811-2.177h7.243l0.813,2.14
			c0.126,0.305,0.276,0.658,0.451,1.056c0.191,0.437,0.371,0.76,0.552,0.989c0.195,0.247,0.44,0.445,0.728,0.589
			c0.291,0.146,0.635,0.219,1.022,0.219c0.667,0,1.245-0.24,1.718-0.712c0.473-0.474,0.713-1.011,0.713-1.599
			C226.226,192.463,226.017,191.716,225.59,190.691z M214.388,186.317l2.182-6.085l2.224,6.085H214.388z"/>
	</g>
	<g>
		<path class="st2" d="M193.852,215.124c-0.482-0.218-1.087-0.324-1.85-0.324h-0.073v-9.805c0-2.451-1.581-2.816-2.523-2.816
			c-0.547,0-1.023,0.187-1.413,0.555c-0.319,0.3-0.712,0.763-1.197,1.417l-7.081,9.473l-0.468,0.619
			c-0.14,0.186-0.274,0.379-0.404,0.578c-0.146,0.223-0.257,0.442-0.331,0.65c-0.081,0.227-0.123,0.457-0.123,0.682
			c0,0.801,0.269,1.45,0.797,1.928c0.514,0.466,1.265,0.703,2.232,0.703h6.184v1.976c0,0.79,0.198,1.41,0.588,1.845
			c0.403,0.451,0.934,0.679,1.576,0.679c0.651,0,1.184-0.223,1.582-0.664c0.387-0.425,0.582-1.051,0.582-1.86v-1.976h0.313
			c0.787,0,1.377-0.145,1.803-0.442c0.329-0.229,0.721-0.68,0.721-1.536C194.765,215.755,194.268,215.311,193.852,215.124z
			 M183.368,214.799l4.232-5.719v5.719H183.368z"/>
	</g>
	<g>
		<path class="st2" d="M209.324,210.086v-3.299c0-0.828-0.672-1.5-1.5-1.5h-1.436c-0.828,0-1.5,0.672-1.5,1.5v3.299
			c0,0.166-0.134,0.3-0.3,0.3h-3.299c-0.828,0-1.5,0.672-1.5,1.5v1.488c0,0.828,0.672,1.5,1.5,1.5h3.299c0.166,0,0.3,0.134,0.3,0.3
			v3.273c0,0.828,0.672,1.5,1.5,1.5h1.436c0.828,0,1.5-0.672,1.5-1.5v-3.273c0-0.166,0.134-0.3,0.3-0.3h3.325
			c0.828,0,1.5-0.672,1.5-1.5v-1.488c0-0.828-0.672-1.5-1.5-1.5h-3.325C209.458,210.386,209.324,210.251,209.324,210.086z"/>
	</g>
	<g>
		<path class="st3" d="M105.535,212.617H10.635c-1.455,0-2.635-1.18-2.635-2.635v-16.687c0-1.455,1.18-2.635,2.635-2.635h94.901
			c1.455,0,2.635,1.18,2.635,2.635v16.687C108.17,211.437,106.991,212.617,105.535,212.617z"/>
	</g>
	<g>
		<path class="st1" d="M105.536,214.616H10.635c-2.556,0-4.635-2.079-4.635-4.635v-16.687c0-2.556,2.079-4.635,4.635-4.635h94.901
			c2.556,0,4.635,2.079,4.635,4.635v16.687C110.17,212.537,108.091,214.616,105.536,214.616z M10.635,192.66
			c-0.35,0-0.635,0.285-0.635,0.635v16.687c0,0.35,0.285,0.635,0.635,0.635h94.901c0.35,0,0.635-0.285,0.635-0.635v-16.687
			c0-0.35-0.285-0.635-0.635-0.635H10.635z"/>
	</g>
	<g>
		<path class="st7" d="M72.699,184.712c-0.622-1.108-1.793-1.794-3.064-1.794H46.404c-1.275,0-2.45,0.691-3.07,1.805l-3.282,5.897
			c-0.727,1.306-1.108,2.776-1.108,4.271c0,11.616-0.737,16.958,3.325,24.257l0.002,0.003c0.812,1.458,0.598,2.345,0.437,6.044
			h30.618c-0.162-3.71-0.374-4.591,0.437-6.047c4.063-7.3,3.325-12.62,3.325-24.316c0-1.505-0.387-2.984-1.123-4.296L72.699,184.712
			z"/>
	</g>
	<g>
		<path class="st1" d="M73.326,227.194H42.708c-0.545,0-1.067-0.223-1.445-0.617c-0.377-0.394-0.577-0.925-0.553-1.47
			c0.026-0.594,0.053-1.116,0.077-1.58c0.124-2.377,0.117-2.721-0.263-3.404c-3.744-6.728-3.693-11.971-3.608-20.656
			c0.014-1.415,0.029-2.933,0.029-4.576c0-1.831,0.471-3.645,1.361-5.243l3.282-5.897c0.971-1.747,2.817-2.832,4.817-2.832h23.231
			c1.992,0,3.834,1.079,4.809,2.815h0l3.266,5.823c0.902,1.607,1.378,3.431,1.378,5.274c0,1.657,0.015,3.186,0.029,4.609
			c0.084,8.703,0.136,13.956-3.606,20.68c-0.38,0.684-0.387,1.027-0.263,3.411c0.024,0.463,0.051,0.984,0.077,1.576
			c0.024,0.545-0.176,1.076-0.553,1.47C74.393,226.972,73.871,227.194,73.326,227.194z M44.81,223.194h26.415
			c-0.109-2.2-0.101-3.419,0.791-5.02c3.227-5.799,3.185-10.108,3.102-18.695c-0.014-1.437-0.029-2.978-0.029-4.648
			c0-1.159-0.3-2.307-0.867-3.317l-3.266-5.823h0c-0.267-0.477-0.772-0.772-1.319-0.772H46.404c-0.549,0-1.055,0.298-1.321,0.776
			l-3.283,5.898c-0.56,1.006-0.856,2.146-0.856,3.298c0,1.657-0.015,3.188-0.029,4.615c-0.083,8.568-0.125,12.87,3.102,18.669
			C44.911,219.779,44.919,220.996,44.81,223.194z"/>
	</g>
</g>
</svg>
