<?xml version="1.0" encoding="utf-8"?>
<!-- Generator: Adobe Illustrator 22.1.0, SVG Export Plug-In . SVG Version: 6.00 Build 0)  -->
<svg version="1.1" id="Layer_1" xmlns="http://www.w3.org/2000/svg" xmlns:xlink="http://www.w3.org/1999/xlink" x="0px" y="0px"
	 viewBox="0 0 256 256" style="enable-background:new 0 0 256 256;" xml:space="preserve">
<style type="text/css">
	.st0{fill:#E0EBFC;}
	.st1{fill:#3762CC;}
	.st2{fill:#4671C6;}
	.st3{fill:#6BDDDD;}
	.st4{fill:#F9A7A7;}
	.st5{fill:#A4C9FF;}
	.st6{fill:#FFEA92;}
	.st7{fill:#F9CFCF;}
	.st8{fill:#FFE164;}
	.st9{fill:#FFDC85;}
	.st10{fill:#FFEA94;}
	.st11{fill:#B9BEFC;}
	.st12{fill:#EAA97D;}
</style>
<g>
	<g>
		<rect x="186.519" y="140.991" class="st0" width="49.898" height="35.482"/>
	</g>
	<g>
		<rect x="19.583" y="140.991" class="st0" width="51.898" height="35.482"/>
	</g>
	<g>
		<path class="st6" d="M151.5,40.953H128V24h23.5c1.105,0,2,0.895,2,2v12.953C153.5,40.057,152.605,40.953,151.5,40.953z"/>
	</g>
	<g>
		<path class="st1" d="M151.5,42.953H128c-1.104,0-2-0.896-2-2V24c0-1.104,0.896-2,2-2h23.5c2.206,0,4,1.794,4,4v12.953
			C155.5,41.158,153.706,42.953,151.5,42.953z M130,38.953h21.5V26H130V38.953z"/>
	</g>
	<g>
		<rect x="71.481" y="132.946" class="st5" width="115.038" height="87.054"/>
	</g>
	<g>
		<path class="st7" d="M71.481,125.716H10c-1.105,0-2,0.895-2,2v11.275c0,1.105,0.895,2,2,2h61.481V125.716z"/>
	</g>
	<g>
		<path class="st1" d="M71.481,142.991H10c-2.206,0-4-1.794-4-4v-11.274c0-2.206,1.794-4,4-4h61.481c1.104,0,2,0.896,2,2v15.274
			C73.481,142.095,72.585,142.991,71.481,142.991z M10,127.716v11.274h59.481v-11.274H10z"/>
	</g>
	<g>
		<rect x="19.583" y="184.495" class="st0" width="51.898" height="38.505"/>
	</g>
	<g>
		<path class="st1" d="M71.481,225H19.583c-1.104,0-2-0.896-2-2v-38.504c0-1.104,0.896-2,2-2h51.898c1.104,0,2,0.896,2,2V223
			C73.481,224.104,72.585,225,71.481,225z M21.583,221h47.898v-34.504H21.583V221z"/>
	</g>
	<g>
		<rect x="186.519" y="184.495" class="st0" width="49.898" height="38.505"/>
	</g>
	<g>
		<path class="st1" d="M236.417,225h-49.898c-1.104,0-2-0.896-2-2v-38.504c0-1.104,0.896-2,2-2h49.898c1.104,0,2,0.896,2,2V223
			C238.417,224.104,237.521,225,236.417,225z M188.519,221h45.898v-34.504h-45.898V221z"/>
	</g>
	<g>
		<path class="st7" d="M71.481,184.495H17.75c-1.105,0-2-0.895-2-2v-4c0-1.105,0.895-2,2-2h53.731V184.495z"/>
	</g>
	<g>
		<path class="st7" d="M246,125.716h-59.481v15.275H246c1.105,0,2-0.895,2-2v-11.275C248,126.612,247.105,125.716,246,125.716z"/>
	</g>
	<g>
		<path class="st2" d="M229.49,94.244c-1.103-2.574-3.634-4.244-6.434-4.244H128H32.944c-2.801,0-5.332,1.669-6.434,4.244
			l-13.483,31.473H128h114.973L229.49,94.244z"/>
	</g>
	<g>
		<path class="st1" d="M246,142.991h-59.481c-1.104,0-2-0.896-2-2v-15.274c0-1.104,0.896-2,2-2H246c2.206,0,4,1.794,4,4v11.274
			C250,141.196,248.206,142.991,246,142.991z M188.519,138.991H246v-11.274h-57.481V138.991z"/>
	</g>
	<g>
		<path class="st1" d="M242.973,127.716H13.027c-0.672,0-1.299-0.338-1.669-0.899s-0.434-1.271-0.169-1.889l13.482-31.473
			C26.092,90.142,29.339,88,32.944,88h190.111c3.605,0,6.853,2.142,8.273,5.456l0,0l13.482,31.473
			c0.265,0.618,0.201,1.328-0.169,1.889S243.645,127.716,242.973,127.716z M16.06,123.716h223.88l-12.288-28.685
			C226.863,93.19,225.059,92,223.056,92H32.944c-2.003,0-3.807,1.19-4.596,3.031L16.06,123.716z"/>
	</g>
	<g>
		<path class="st1" d="M128,60c-1.104,0-2-0.896-2-2V24c0-1.104,0.896-2,2-2s2,0.896,2,2v34C130,59.104,129.104,60,128,60z"/>
	</g>
	<g>
		<path class="st5" d="M16,223h44.5v11H14v-9C14,223.895,14.895,223,16,223z"/>
	</g>
	<g>
		<path class="st4" d="M206,118H50c-1.105,0-2,0.895-2,2v10.946c0,1.105,0.895,2,2,2h156c1.105,0,2-0.895,2-2V120
			C208,118.895,207.105,118,206,118z"/>
	</g>
	<g>
		<path class="st0" d="M52.212,118h151.577l-70.431-63.503c-3.044-2.745-7.67-2.745-10.714,0L52.212,118z"/>
	</g>
	<g>
		<path class="st5" d="M37.833,168.577h-8c-1.105,0-2-0.895-2-2V153c0-1.105,0.895-2,2-2h8c1.105,0,2,0.895,2,2v13.577
			C39.833,167.681,38.938,168.577,37.833,168.577z"/>
	</g>
	<g>
		<path class="st5" d="M57.833,168.577h-8c-1.105,0-2-0.895-2-2V153c0-1.105,0.895-2,2-2h8c1.105,0,2,0.895,2,2v13.577
			C59.833,167.681,58.938,168.577,57.833,168.577z"/>
	</g>
	<g>
		<path class="st5" d="M37.833,210.743h-8c-1.105,0-2-0.895-2-2v-13.577c0-1.105,0.895-2,2-2h8c1.105,0,2,0.895,2,2v13.577
			C39.833,209.848,38.938,210.743,37.833,210.743z"/>
	</g>
	<g>
		<path class="st5" d="M57.833,210.743h-8c-1.105,0-2-0.895-2-2v-13.577c0-1.105,0.895-2,2-2h8c1.105,0,2,0.895,2,2v13.577
			C59.833,209.848,58.938,210.743,57.833,210.743z"/>
	</g>
	<g>
		<path class="st5" d="M205.667,168.577h-8c-1.105,0-2-0.895-2-2V153c0-1.105,0.895-2,2-2h8c1.105,0,2,0.895,2,2v13.577
			C207.667,167.681,206.771,168.577,205.667,168.577z"/>
	</g>
	<g>
		<path class="st5" d="M225.667,168.577h-8c-1.105,0-2-0.895-2-2V153c0-1.105,0.895-2,2-2h8c1.105,0,2,0.895,2,2v13.577
			C227.667,167.681,226.771,168.577,225.667,168.577z"/>
	</g>
	<g>
		<path class="st5" d="M205.667,210.743h-8c-1.105,0-2-0.895-2-2v-13.577c0-1.105,0.895-2,2-2h8c1.105,0,2,0.895,2,2v13.577
			C207.667,209.848,206.771,210.743,205.667,210.743z"/>
	</g>
	<g>
		<path class="st5" d="M225.667,210.743h-8c-1.105,0-2-0.895-2-2v-13.577c0-1.105,0.895-2,2-2h8c1.105,0,2,0.895,2,2v13.577
			C227.667,209.848,226.771,210.743,225.667,210.743z"/>
	</g>
	<g>
		<rect x="71.481" y="132.946" class="st7" width="14" height="87.054"/>
	</g>
	<g>
		<rect x="172.519" y="132.946" class="st7" width="14" height="87.054"/>
	</g>
	<g>
		<rect x="95.186" y="132.946" class="st7" width="14" height="87.054"/>
	</g>
	<g>
		<rect x="148.814" y="132.946" class="st7" width="14" height="87.054"/>
	</g>
	<g>
		<path class="st1" d="M85.481,222h-14c-1.104,0-2-0.896-2-2v-87.054c0-1.104,0.896-2,2-2h14c1.104,0,2,0.896,2,2V220
			C87.481,221.104,86.585,222,85.481,222z M73.481,218h10v-83.054h-10V218z"/>
	</g>
	<g>
		<path class="st1" d="M186.519,222h-14c-1.104,0-2-0.896-2-2v-87.054c0-1.104,0.896-2,2-2h14c1.104,0,2,0.896,2,2V220
			C188.519,221.104,187.624,222,186.519,222z M174.519,218h10v-83.054h-10V218z"/>
	</g>
	<g>
		<path class="st1" d="M109.186,222h-14c-1.104,0-2-0.896-2-2v-87.054c0-1.104,0.896-2,2-2h14c1.104,0,2,0.896,2,2V220
			C111.186,221.104,110.291,222,109.186,222z M97.186,218h10v-83.054h-10V218z"/>
	</g>
	<g>
		<path class="st1" d="M162.814,222h-14c-1.104,0-2-0.896-2-2v-87.054c0-1.104,0.896-2,2-2h14c1.104,0,2,0.896,2,2V220
			C164.814,221.104,163.918,222,162.814,222z M150.814,218h10v-83.054h-10V218z"/>
	</g>
	<g>
		<path class="st1" d="M206,134.946H50c-2.206,0-4-1.794-4-4V120c0-2.206,1.794-4,4-4h156c2.206,0,4,1.794,4,4v10.946
			C210,133.152,208.206,134.946,206,134.946z M50,120v10.946h156V120H50z"/>
	</g>
	<g>
		<path class="st1" d="M203.789,120H52.211c-0.828,0-1.57-0.51-1.867-1.283c-0.297-0.772-0.087-1.648,0.527-2.203l70.432-63.503
			c3.817-3.442,9.574-3.442,13.393,0l70.432,63.503c0.615,0.554,0.825,1.43,0.527,2.203C205.358,119.49,204.616,120,203.789,120z
			 M57.417,116h141.167l-66.566-60.018c-2.29-2.065-5.745-2.065-8.035,0L57.417,116z"/>
	</g>
	<g>
		<path class="st2" d="M139.891,220h-23.783v-27.613c0-6.567,5.324-11.891,11.891-11.891h0c6.567,0,11.891,5.324,11.891,11.891V220z
			"/>
	</g>
	<g>
		<path class="st1" d="M139.892,222h-23.783c-1.104,0-2-0.896-2-2v-27.613c0-7.66,6.232-13.891,13.892-13.891
			s13.892,6.231,13.892,13.891V220C141.892,221.104,140.996,222,139.892,222z M118.108,218h19.783v-25.613
			c0-5.454-4.438-9.891-9.892-9.891s-9.892,4.437-9.892,9.891V218z"/>
	</g>
	<g>
		<path class="st7" d="M186.519,176.495h52.731c1.105,0,2,0.895,2,2v4c0,1.105-0.895,2-2,2h-52.731V176.495z"/>
	</g>
	<g>
		<path class="st1" d="M71.481,186.496H17.75c-2.206,0-4-1.794-4-4v-4c0-2.206,1.794-4,4-4h53.731c1.104,0,2,0.896,2,2v8
			C73.481,185.6,72.585,186.496,71.481,186.496z M17.75,178.496v4h51.731v-4H17.75z"/>
	</g>
	<g>
		<path class="st1" d="M239.25,186.496h-52.731c-1.104,0-2-0.896-2-2v-8c0-1.104,0.896-2,2-2h52.731c2.206,0,4,1.794,4,4v4
			C243.25,184.701,241.456,186.496,239.25,186.496z M188.519,182.496h50.731v-4h-50.731V182.496z"/>
	</g>
	<g>
		<circle class="st6" cx="128" cy="88.493" r="22.5"/>
	</g>
	<g>
		<circle class="st2" cx="128" cy="88.493" r="16.842"/>
	</g>
	<g>
		<path class="st3" d="M136.706,77.793C136.215,77.267,135.57,77,134.791,77c-0.782,0-1.421,0.269-1.898,0.8
			c-0.464,0.517-0.7,1.283-0.7,2.278v10.584c0,1.712-0.32,2.992-0.951,3.803c-0.605,0.777-1.688,1.17-3.221,1.17
			c-1.127,0-2.003-0.198-2.604-0.589c-0.596-0.387-1-0.919-1.235-1.625c-0.25-0.75-0.377-1.707-0.377-2.847V80.078
			c0-0.986-0.238-1.75-0.707-2.271c-0.482-0.535-1.132-0.806-1.934-0.806c-0.773,0-1.409,0.271-1.89,0.806
			c-0.469,0.521-0.707,1.286-0.707,2.271v10.264c0,1.649,0.183,3.091,0.544,4.288c0.369,1.228,0.962,2.253,1.76,3.046
			c0.798,0.793,1.837,1.385,3.089,1.759c1.221,0.365,2.691,0.55,4.367,0.55c1.419,0,2.681-0.174,3.75-0.517
			c1.088-0.349,2.057-0.911,2.881-1.674c0.959-0.897,1.621-1.956,1.968-3.147c0.336-1.152,0.506-2.601,0.506-4.306V80.078
			C137.433,79.08,137.188,78.311,136.706,77.793z"/>
	</g>
	<g>
		<path class="st1" d="M128,112.993c-13.509,0-24.5-10.991-24.5-24.5s10.991-24.5,24.5-24.5s24.5,10.991,24.5,24.5
			S141.509,112.993,128,112.993z M128,67.993c-11.304,0-20.5,9.196-20.5,20.5s9.196,20.5,20.5,20.5s20.5-9.196,20.5-20.5
			S139.304,67.993,128,67.993z"/>
	</g>
	<g>
		<path class="st4" d="M62.5,220h131c1.105,0,2,0.895,2,2v12h-135v-12C60.5,220.895,61.395,220,62.5,220z"/>
	</g>
	<g>
		<path class="st1" d="M195.5,236h-135c-1.104,0-2-0.896-2-2v-12c0-2.206,1.794-4,4-4h131c2.206,0,4,1.794,4,4v12
			C197.5,235.104,196.604,236,195.5,236z M62.5,232h131v-10H62.498L62.5,232z"/>
	</g>
	<g>
		<path class="st1" d="M37.833,170.577h-8c-2.206,0-4-1.794-4-4V153c0-2.206,1.794-4,4-4h8c2.206,0,4,1.794,4,4v13.577
			C41.833,168.782,40.039,170.577,37.833,170.577z M29.833,153v13.577h8.002L37.833,153H29.833z"/>
	</g>
	<g>
		<path class="st1" d="M57.833,170.577h-8c-2.206,0-4-1.794-4-4V153c0-2.206,1.794-4,4-4h8c2.206,0,4,1.794,4,4v13.577
			C61.833,168.782,60.039,170.577,57.833,170.577z M49.833,153v13.577h8.002L57.833,153H49.833z"/>
	</g>
	<g>
		<path class="st1" d="M37.833,212.743h-8c-2.206,0-4-1.794-4-4v-13.577c0-2.206,1.794-4,4-4h8c2.206,0,4,1.794,4,4v13.577
			C41.833,210.949,40.039,212.743,37.833,212.743z M29.833,195.167v13.577h8.002l-0.002-13.577H29.833z"/>
	</g>
	<g>
		<path class="st1" d="M57.833,212.743h-8c-2.206,0-4-1.794-4-4v-13.577c0-2.206,1.794-4,4-4h8c2.206,0,4,1.794,4,4v13.577
			C61.833,210.949,60.039,212.743,57.833,212.743z M49.833,195.167v13.577h8.002l-0.002-13.577H49.833z"/>
	</g>
	<g>
		<path class="st1" d="M205.667,170.577h-8c-2.206,0-4-1.794-4-4V153c0-2.206,1.794-4,4-4h8c2.206,0,4,1.794,4,4v13.577
			C209.667,168.782,207.872,170.577,205.667,170.577z M197.667,153v13.577h8.002L205.667,153H197.667z"/>
	</g>
	<g>
		<path class="st1" d="M225.667,170.577h-8c-2.206,0-4-1.794-4-4V153c0-2.206,1.794-4,4-4h8c2.206,0,4,1.794,4,4v13.577
			C229.667,168.782,227.872,170.577,225.667,170.577z M217.667,153v13.577h8.002L225.667,153H217.667z"/>
	</g>
	<g>
		<path class="st1" d="M205.667,212.743h-8c-2.206,0-4-1.794-4-4v-13.577c0-2.206,1.794-4,4-4h8c2.206,0,4,1.794,4,4v13.577
			C209.667,210.949,207.872,212.743,205.667,212.743z M197.667,195.167v13.577h8.002l-0.002-13.577H197.667z"/>
	</g>
	<g>
		<path class="st1" d="M225.667,212.743h-8c-2.206,0-4-1.794-4-4v-13.577c0-2.206,1.794-4,4-4h8c2.206,0,4,1.794,4,4v13.577
			C229.667,210.949,227.872,212.743,225.667,212.743z M217.667,195.167v13.577h8.002l-0.002-13.577H217.667z"/>
	</g>
	<g>
		<path class="st5" d="M195.5,223H239c1.657,0,3,1.343,3,3v8h-46.5V223z"/>
	</g>
	<g>
		<path class="st4" d="M198.5,248h-141c-1.105,0-2-0.895-2-2v-10c0-1.105,0.895-2,2-2h141c1.105,0,2,0.895,2,2v10
			C200.5,247.105,199.605,248,198.5,248z"/>
	</g>
	<g>
		<path class="st5" d="M245,234h-46.5c1.105,0,2,0.895,2,2v10c0,1.105-0.895,2-2,2H245c1.657,0,3-1.343,3-3v-8
			C248,235.343,246.657,234,245,234z"/>
	</g>
	<g>
		<path class="st5" d="M55.5,246v-10c0-1.105,0.895-2,2-2H10c-1.105,0-2,0.895-2,2v10c0,1.105,0.895,2,2,2h47.5
			C56.395,248,55.5,247.105,55.5,246z"/>
	</g>
	<g>
		<path class="st1" d="M60.5,236H14c-1.104,0-2-0.896-2-2v-9c0-2.206,1.794-4,4-4h44.5c1.104,0,2,0.896,2,2v11
			C62.5,235.104,61.604,236,60.5,236z M16,232h42.5v-7H15.998L16,232z"/>
	</g>
	<g>
		<path class="st1" d="M242,236h-46.5c-1.104,0-2-0.896-2-2v-11c0-1.104,0.896-2,2-2H239c2.757,0,5,2.243,5,5v8
			C244,235.104,243.104,236,242,236z M197.5,232H240v-6c0-0.551-0.449-1-1-1h-41.5V232z"/>
	</g>
	<g>
		<path class="st1" d="M198.5,250h-141c-2.206,0-4-1.794-4-4v-10c0-2.206,1.794-4,4-4h141c2.206,0,4,1.794,4,4v10
			C202.5,248.206,200.706,250,198.5,250z M57.5,236v10h141.002l-0.002-10H57.5z"/>
	</g>
	<g>
		<path class="st1" d="M245,250h-46.5c-1.104,0-2-0.896-2-2s0.896-2,2-2v-10c-1.104,0-2-0.896-2-2s0.896-2,2-2H245
			c2.757,0,5,2.243,5,5v8C250,247.757,247.757,250,245,250z M202.5,246H245c0.551,0,1-0.449,1-1v-8c0-0.551-0.449-1-1-1h-42.5V246z"
			/>
	</g>
	<g>
		<path class="st1" d="M57.5,250H10c-2.206,0-4-1.794-4-4v-10c0-2.206,1.794-4,4-4h47.5c1.104,0,2,0.896,2,2s-0.896,2-2,2v10
			c1.075,0,1.951,0.847,1.998,1.91c0.001,0.03,0.002,0.061,0.002,0.091C59.5,249.106,58.604,250,57.5,250z M10,236v10h43.5v-10H10z"
			/>
	</g>
	<g>
		<path class="st1" d="M236.417,178.473h-49.898c-1.104,0-2-0.896-2-2v-35.482c0-1.104,0.896-2,2-2h49.898c1.104,0,2,0.896,2,2
			v35.482C238.417,177.578,237.521,178.473,236.417,178.473z M188.519,174.473h45.898v-31.482h-45.898V174.473z"/>
	</g>
	<g>
		<path class="st1" d="M71.481,178.473H19.583c-1.104,0-2-0.896-2-2v-35.482c0-1.104,0.896-2,2-2h51.898c1.104,0,2,0.896,2,2v35.482
			C73.481,177.578,72.585,178.473,71.481,178.473z M21.583,174.473h47.898v-31.482H21.583V174.473z"/>
	</g>
</g>
</svg>
