<?xml version="1.0" encoding="utf-8"?>
<!-- Generator: Adobe Illustrator 22.1.0, SVG Export Plug-In . SVG Version: 6.00 Build 0)  -->
<svg version="1.1" id="Layer_1" xmlns="http://www.w3.org/2000/svg" xmlns:xlink="http://www.w3.org/1999/xlink" x="0px" y="0px"
	 viewBox="0 0 256 256" style="enable-background:new 0 0 256 256;" xml:space="preserve">
<style type="text/css">
	.st0{fill:#E0EBFC;}
	.st1{fill:#3762CC;}
	.st2{fill:#4671C6;}
	.st3{fill:#6BDDDD;}
	.st4{fill:#F9A7A7;}
	.st5{fill:#A4C9FF;}
	.st6{fill:#FFEA92;}
	.st7{fill:#F9CFCF;}
	.st8{fill:#FFE164;}
	.st9{fill:#FFDC85;}
	.st10{fill:#FFEA94;}
	.st11{fill:#B9BEFC;}
	.st12{fill:#EAA97D;}
</style>
<g>
	<g>
		<path class="st2" d="M173.624,192.178c0-11.705,0-21.225,0-34.003c0-10.757-8.72-19.478-19.478-19.478h-51.94
			c-10.757,0-19.477,8.72-19.477,19.478c0,12.726,0,22.287,0,34.003H173.624z"/>
	</g>
	<g>
		<path class="st1" d="M173.624,194.178H82.729c-1.104,0-2-0.896-2-2v-34.003c0-11.843,9.635-21.478,21.478-21.478h51.94
			c11.843,0,21.478,9.635,21.478,21.478v34.003C175.624,193.283,174.729,194.178,173.624,194.178z M84.729,190.178h86.895v-32.003
			c0-9.637-7.841-17.478-17.478-17.478h-51.94c-9.637,0-17.478,7.841-17.478,17.478V190.178z"/>
	</g>
	<g>
		<path class="st4" d="M176.54,157.873c0-11.799-9.549-20.741-20.708-20.741h-55.309c-11.455,0-20.741,9.286-20.741,20.741l0,0
			l48.379,22.618L176.54,157.873z"/>
	</g>
	<g>
		<path class="st3" d="M155.833,137.132h-4.803l-22.869,29.161l-22.869-29.161h-4.771c-1.987,0-3.903,0.296-5.722,0.818
			l33.362,42.541h0l33.367-42.547C159.706,137.423,157.797,137.132,155.833,137.132z"/>
	</g>
	<g>
		<path class="st1" d="M128.16,182.491c-0.29,0-0.579-0.063-0.847-0.188l-48.379-22.618c-0.703-0.329-1.153-1.036-1.153-1.812
			c0-12.539,10.202-22.741,22.741-22.741h55.309c12.521,0,22.709,10.202,22.709,22.741c0,0.776-0.449,1.483-1.153,1.812
			l-48.38,22.618C128.739,182.429,128.45,182.491,128.16,182.491z M81.822,156.62l46.338,21.664l46.339-21.664
			c-0.646-9.751-8.772-17.487-18.668-17.487h-55.309C90.609,139.132,82.469,146.868,81.822,156.62z M176.54,157.873h0.01H176.54z"/>
	</g>
	<g>
		<polygon class="st0" points="128.16,137.132 105.291,137.132 128.16,166.293 151.029,137.132 		"/>
	</g>
	<g>
		<path class="st4" d="M128.168,137.143l-5.981,7.625c0.176,0.82,0.011,0.011,1.054,5.234c3.56,0,6.277,0,9.837,0
			c1.062-5.318,0.882-4.432,1.058-5.25L128.168,137.143z"/>
	</g>
	<g>
		<path class="st4" d="M121.798,158.181l6.362,8.112l6.362-8.112l-1.443-8.179c-3.564,0-6.285,0-9.837,0L121.798,158.181z"/>
	</g>
	<g>
		<path class="st1" d="M133.079,152.002h-9.837c-0.954,0-1.774-0.673-1.961-1.608l-0.5-2.509c-0.419-2.097-0.418-2.097-0.501-2.479
			l-0.047-0.219c-0.125-0.581,0.016-1.186,0.382-1.653l5.981-7.625c0.759-0.967,2.39-0.967,3.147,0l5.968,7.609
			c0.367,0.467,0.507,1.074,0.382,1.654l-0.051,0.238c-0.078,0.357-0.078,0.357-0.522,2.585l-0.479,2.398
			C134.854,151.329,134.033,152.002,133.079,152.002z M124.882,148.002h6.557l0.158-0.79c0.209-1.05,0.322-1.618,0.392-1.96
			l-3.82-4.869l-3.833,4.886c0.066,0.328,0.172,0.86,0.366,1.832L124.882,148.002z"/>
	</g>
	<g>
		<path class="st1" d="M128.16,168.293L128.16,168.293c-0.614,0-1.195-0.282-1.574-0.766l-6.362-8.112
			c-0.351-0.447-0.495-1.022-0.396-1.582l1.443-8.179c0.169-0.956,0.999-1.652,1.97-1.652h9.837c0.971,0,1.801,0.697,1.97,1.652
			l1.443,8.179c0.099,0.56-0.045,1.135-0.396,1.582l-6.363,8.112C129.354,168.011,128.774,168.293,128.16,168.293z M123.923,157.649
			l4.237,5.403l4.237-5.403l-0.996-5.647h-6.482L123.923,157.649z"/>
	</g>
	<g>
		<polygon class="st0" points="105.291,137.137 105.295,137.137 116.733,151.722 128.177,137.132 111.277,133.334 		"/>
	</g>
	<g>
		<polygon class="st0" points="145.06,133.334 128.16,137.132 139.595,151.712 151.026,137.137 151.029,137.137 		"/>
	</g>
	<g>
		<path class="st7" d="M111.261,127.681c0,1.151,0,4.491,0,5.663l0.016-0.01l16.891,3.796l16.891-3.796c0-2.065,0-3.585,0-5.664
			C134.502,133.186,121.829,133.194,111.261,127.681z"/>
	</g>
	<g>
		<path class="st1" d="M128.168,139.13c-0.147,0-0.294-0.016-0.438-0.049l-16.757-3.766c-0.23-0.034-0.457-0.108-0.667-0.223
			c-0.64-0.351-1.045-1.018-1.045-1.748v-5.663c0-0.699,0.365-1.348,0.963-1.71c0.598-0.362,1.342-0.386,1.961-0.063
			c10.003,5.218,21.946,5.213,31.948-0.01c0.618-0.324,1.364-0.301,1.962,0.062c0.599,0.362,0.964,1.011,0.964,1.71v5.664
			c0,0.936-0.648,1.746-1.562,1.951l-16.891,3.796C128.462,139.114,128.315,139.13,128.168,139.13z M113.261,131.73l14.908,3.351
			l14.891-3.347v-0.915c-9.522,3.998-20.275,4-29.799,0.009V131.73z"/>
	</g>
	<g>
		<path class="st1" d="M128.16,168.293c-0.614,0-1.195-0.282-1.574-0.766l-22.869-29.161c-0.472-0.603-0.56-1.421-0.225-2.109
			c0.335-0.688,1.033-1.125,1.798-1.125h45.738c0.766,0,1.464,0.437,1.799,1.125c0.334,0.688,0.247,1.507-0.225,2.109
			l-22.869,29.161C129.354,168.011,128.774,168.293,128.16,168.293z M109.401,139.132l18.759,23.92l18.759-23.92H109.401z"/>
	</g>
	<g>
		<polygon class="st0" points="145.06,133.334 128.16,137.132 139.595,151.712 151.026,137.137 151.029,137.137 		"/>
	</g>
	<g>
		<path class="st1" d="M139.596,153.712c-0.614,0-1.194-0.282-1.573-0.766l-11.436-14.58c-0.423-0.54-0.541-1.259-0.31-1.906
			c0.23-0.646,0.776-1.129,1.445-1.28l16.899-3.798c0.517-0.117,1.064-0.022,1.513,0.264l5.97,3.803
			c0.75,0.478,1.095,1.393,0.846,2.247c-0.084,0.288-0.229,0.546-0.418,0.761l-11.361,14.489
			C140.79,153.43,140.21,153.712,139.596,153.712z M131.687,138.389l7.908,10.082l8.496-10.834l-3.405-2.169L131.687,138.389z"/>
	</g>
	<g>
		<polygon class="st0" points="105.291,137.137 105.295,137.137 116.733,151.722 128.177,137.132 111.277,133.334 		"/>
	</g>
	<g>
		<path class="st1" d="M116.733,153.722L116.733,153.722c-0.614,0-1.195-0.282-1.574-0.766l-11.397-14.534
			c-0.175-0.208-0.31-0.454-0.39-0.728c-0.248-0.854,0.096-1.77,0.847-2.247l5.986-3.803c0.448-0.286,0.992-0.381,1.511-0.263
			l16.9,3.798c0.67,0.15,1.215,0.633,1.445,1.28s0.113,1.366-0.311,1.906l-11.443,14.59
			C117.927,153.44,117.347,153.722,116.733,153.722z M108.23,137.639l8.503,10.842l7.916-10.092l-13-2.922L108.23,137.639z"/>
	</g>
	<g>
		<circle class="st6" cx="128" cy="175.033" r="17.145"/>
	</g>
	<g>
		<path class="st12" d="M129.765,163.427c-0.353-0.452-0.822-0.679-1.407-0.679c-0.519,0-0.872,0.099-1.059,0.298
			c-0.188,0.199-0.59,0.729-1.208,1.589c-0.618,0.861-1.327,1.639-2.127,2.334c-0.299,0.259-0.636,0.514-1.01,0.764
			c-0.754,0.503-0.993,1.504-0.529,2.283h0c0.513,0.861,1.652,1.091,2.46,0.499c0.291-0.213,0.593-0.44,0.909-0.682v15.062
			c0,0.883,0.204,1.55,0.612,2.003c0.408,0.452,0.949,0.679,1.622,0.679c1.512,0,2.268-1.109,2.268-3.327v-18.952
			C130.295,164.504,130.118,163.88,129.765,163.427z"/>
	</g>
	<g>
		<path class="st2" d="M164.493,78.701v3.403c3.768-0.076,7.064,1.694,9.114,4.423c0.511-2.218,0.374-1.253,0.374-25.122h-13.949
			C162.874,66.539,164.493,72.432,164.493,78.701z"/>
	</g>
	<g>
		<path class="st1" d="M173.606,88.527c-0.621,0-1.217-0.29-1.599-0.799c-1.776-2.364-4.52-3.687-7.475-3.625
			c-0.537,0.008-1.057-0.195-1.44-0.571c-0.384-0.376-0.601-0.891-0.601-1.429v-3.403c0-5.705-1.456-11.351-4.211-16.327
			c-0.343-0.62-0.333-1.375,0.027-1.984c0.359-0.61,1.015-0.984,1.723-0.984h13.949c1.104,0,2,0.896,2,2
			c0,5.056,0.006,8.997,0.011,12.09c0.019,11.515,0.019,11.515-0.413,13.382l-0.022,0.099c-0.175,0.758-0.773,1.346-1.534,1.508
			C173.883,88.513,173.744,88.527,173.606,88.527z M166.492,80.222c1.972,0.27,3.85,0.982,5.491,2.07
			c0.02-1.681,0.015-4.34,0.008-8.791c-0.004-2.674-0.009-5.982-0.011-10.096h-8.725c2.124,4.797,3.236,10.024,3.236,15.296V80.222z
			"/>
	</g>
	<g>
		<path class="st7" d="M164.493,82.104v-3.403c0-19.891-16.271-36.016-36.343-36.016l0,0c-20.072,0-36.343,16.125-36.343,36.016
			v3.403c-6.311-0.128-11.317,4.899-11.317,10.976c0,6.489,5.665,11.622,12.277,10.923c3.751,15.935,18.164,27.806,35.383,27.806
			c17.22,0,31.633-11.873,35.383-27.806c6.603,0.698,12.277-4.425,12.277-10.923C175.81,87,170.799,81.976,164.493,82.104z"/>
	</g>
	<g>
		<path class="st1" d="M128.157,115.163C128.157,115.163,128.157,115.163,128.157,115.163c-2.756,0-5.329-1-7.057-2.742
			c-1.337-1.349-2.073-3.055-2.073-4.806c0-1.104,0.896-2,2-2s2,0.896,2,2c0,0.698,0.316,1.386,0.914,1.989
			c0.968,0.976,2.544,1.559,4.217,1.559l0,0c1.682,0,3.21-0.568,4.194-1.559c0.597-0.602,0.912-1.29,0.912-1.988
			c0-1.104,0.896-2,2-2s2,0.896,2,2c0,1.75-0.735,3.457-2.071,4.805C133.461,114.164,130.897,115.163,128.157,115.163z"/>
	</g>
	<g>
		<path class="st1" d="M147.017,101.347L147.017,101.347c-2.819,0-5.104-2.285-5.104-5.104v-5.444c0-2.819,2.285-5.104,5.104-5.104
			l0,0c2.819,0,5.104,2.285,5.104,5.104v5.444C152.121,99.062,149.836,101.347,147.017,101.347z"/>
	</g>
	<g>
		<path class="st1" d="M109.272,101.347L109.272,101.347c-2.819,0-5.104-2.285-5.104-5.104v-5.444c0-2.819,2.285-5.104,5.104-5.104
			h0c2.819,0,5.104,2.285,5.104,5.104v5.444C114.376,99.062,112.091,101.347,109.272,101.347z"/>
	</g>
	<g>
		<path class="st1" d="M128.149,133.809c-17.355,0-32.305-11.328-36.917-27.749c-3.113-0.083-6.118-1.264-8.445-3.357
			c-2.731-2.458-4.298-5.966-4.298-9.624c0-3.501,1.383-6.785,3.894-9.246c2.041-2,4.624-3.249,7.423-3.618v-1.516
			c0-20.962,17.201-38.016,38.343-38.016s38.343,17.054,38.343,38.016v1.516c2.8,0.369,5.382,1.618,7.424,3.619
			c2.511,2.46,3.894,5.744,3.894,9.245c0,3.658-1.566,7.165-4.297,9.622c-2.327,2.094-5.333,3.275-8.446,3.358
			C160.454,122.481,145.504,133.809,128.149,133.809z M92.768,102.003c0.918,0,1.731,0.63,1.945,1.542
			c3.64,15.464,17.389,26.264,33.437,26.264c16.047,0,29.797-10.8,33.436-26.264c0.231-0.981,1.166-1.643,2.157-1.531
			c2.629,0.278,5.147-0.534,7.095-2.285c1.889-1.7,2.973-4.124,2.973-6.649c0-2.417-0.957-4.686-2.693-6.388
			c-1.755-1.72-4.132-2.635-6.583-2.589c-0.537,0.009-1.057-0.195-1.44-0.571c-0.384-0.376-0.601-0.891-0.601-1.429v-3.403
			c0-18.756-15.406-34.016-34.343-34.016c-18.937,0-34.343,15.259-34.343,34.016v3.403c0,0.538-0.216,1.052-0.6,1.429
			c-0.384,0.375-0.91,0.58-1.44,0.571c-2.473-0.06-4.828,0.869-6.583,2.588c-1.737,1.703-2.694,3.971-2.694,6.389
			c0,2.525,1.084,4.949,2.974,6.65c1.945,1.751,4.464,2.561,7.093,2.284C92.627,102.006,92.698,102.003,92.768,102.003z"/>
	</g>
	<g>
		<path class="st1" d="M128.149,133.809c-17.355,0-32.305-11.328-36.917-27.749c-3.113-0.083-6.118-1.264-8.445-3.357
			c-2.731-2.458-4.298-5.966-4.298-9.624c0-3.501,1.383-6.785,3.894-9.246c2.041-2,4.624-3.249,7.423-3.618v-1.516
			c0-20.962,17.201-38.016,38.343-38.016s38.343,17.054,38.343,38.016v1.516c2.8,0.369,5.382,1.618,7.424,3.619
			c2.511,2.46,3.894,5.744,3.894,9.245c0,3.658-1.566,7.165-4.297,9.622c-2.327,2.094-5.333,3.275-8.446,3.358
			C160.454,122.481,145.504,133.809,128.149,133.809z M92.768,102.003c0.918,0,1.731,0.63,1.945,1.542
			c3.64,15.464,17.389,26.264,33.437,26.264c16.047,0,29.797-10.8,33.436-26.264c0.231-0.981,1.166-1.643,2.157-1.531
			c2.629,0.278,5.147-0.534,7.095-2.285c1.889-1.7,2.973-4.124,2.973-6.649c0-2.417-0.957-4.686-2.693-6.388
			c-1.755-1.72-4.132-2.635-6.583-2.589c-0.537,0.009-1.057-0.195-1.44-0.571c-0.384-0.376-0.601-0.891-0.601-1.429v-3.403
			c0-18.756-15.406-34.016-34.343-34.016c-18.937,0-34.343,15.259-34.343,34.016v3.403c0,0.538-0.216,1.052-0.6,1.429
			c-0.384,0.375-0.91,0.58-1.44,0.571c-2.473-0.06-4.828,0.869-6.583,2.588c-1.737,1.703-2.694,3.971-2.694,6.389
			c0,2.525,1.084,4.949,2.974,6.65c1.945,1.751,4.464,2.561,7.093,2.284C92.627,102.006,92.698,102.003,92.768,102.003z"/>
	</g>
	<g>
		<path class="st1" d="M128.149,133.809c-17.355,0-32.305-11.328-36.917-27.749c-3.113-0.083-6.118-1.264-8.445-3.357
			c-2.731-2.458-4.298-5.966-4.298-9.624c0-3.501,1.383-6.785,3.894-9.246c2.041-2,4.624-3.249,7.423-3.618v-1.516
			c0-20.962,17.201-38.016,38.343-38.016s38.343,17.054,38.343,38.016v1.516c2.8,0.369,5.382,1.618,7.424,3.619
			c2.511,2.46,3.894,5.744,3.894,9.245c0,3.658-1.566,7.165-4.297,9.622c-2.327,2.094-5.333,3.275-8.446,3.358
			C160.454,122.481,145.504,133.809,128.149,133.809z M92.768,102.003c0.918,0,1.731,0.63,1.945,1.542
			c3.64,15.464,17.389,26.264,33.437,26.264c16.047,0,29.797-10.8,33.436-26.264c0.231-0.981,1.166-1.643,2.157-1.531
			c2.629,0.278,5.147-0.534,7.095-2.285c1.889-1.7,2.973-4.124,2.973-6.649c0-2.417-0.957-4.686-2.693-6.388
			c-1.755-1.72-4.132-2.635-6.583-2.589c-0.537,0.009-1.057-0.195-1.44-0.571c-0.384-0.376-0.601-0.891-0.601-1.429v-3.403
			c0-18.756-15.406-34.016-34.343-34.016c-18.937,0-34.343,15.259-34.343,34.016v3.403c0,0.538-0.216,1.052-0.6,1.429
			c-0.384,0.375-0.91,0.58-1.44,0.571c-2.473-0.06-4.828,0.869-6.583,2.588c-1.737,1.703-2.694,3.971-2.694,6.389
			c0,2.525,1.084,4.949,2.974,6.65c1.945,1.751,4.464,2.561,7.093,2.284C92.627,102.006,92.698,102.003,92.768,102.003z"/>
	</g>
	<g>
		<path class="st2" d="M96.267,61.405H82.306c-0.001,0-0.001,0-0.002,0v3.841h0.002c0,3.698,0,14.317,0,18.087
			c0,1.104,0.138,2.174,0.377,3.205c2.049-2.735,5.348-4.512,9.124-4.435c0-5.22,0.002-2.962,0.019-3.979
			c5.84,2.122,5.237,1.638,49.962,1.638c10.024,0,18.744-5.589,23.212-13.82c0-1.692,0-2.854,0-4.538
			C156.188,61.405,118.211,61.405,96.267,61.405z"/>
	</g>
	<g>
		<path class="st1" d="M82.683,88.539c-0.137,0-0.275-0.014-0.413-0.043c-0.761-0.161-1.36-0.749-1.536-1.507
			c-0.284-1.23-0.428-2.46-0.428-3.655l-0.002-21.928c0-0.531,0.21-1.04,0.585-1.415c0.375-0.375,0.884-0.586,1.415-0.586h82.695
			c1.104,0,2,0.896,2,2v4.538c0,0.333-0.083,0.661-0.242,0.954c-4.979,9.169-14.546,14.866-24.97,14.866
			c-8.279,0-15.005,0.017-20.506,0.03c-19.787,0.048-23.948,0.059-27.475-0.904c0,0.351,0,0.753,0,1.215
			c0,0.538-0.216,1.052-0.6,1.429c-0.384,0.375-0.91,0.579-1.44,0.571c-2.959-0.059-5.707,1.264-7.482,3.634
			C83.901,88.248,83.305,88.539,82.683,88.539z M84.305,63.405l-0.001,1.842l0.002,17.051c1.644-1.091,3.526-1.806,5.501-2.076
			c0.002-1.007,0.01-1.568,0.031-1.912l-0.018-0.001l0.005-0.216c0.01-0.646,0.333-1.249,0.865-1.615
			c0.533-0.367,1.21-0.453,1.817-0.233c4.384,1.592,4.655,1.606,28.764,1.548c5.503-0.014,12.232-0.03,20.516-0.03
			c8.789,0,16.871-4.714,21.212-12.338v-2.02H84.305z"/>
	</g>
	<g>
		<path class="st6" d="M201.124,72.173c0-11.798,0-20.984,0-31.367c-0.013,0.005-0.024,0.013-0.037,0.018l-3.109,1.194
			c0,10.303,0,23.545,0,30.155c-1.119,0.573-1.887,1.736-1.887,3.079v8.283h6.92v-8.283
			C203.012,73.908,202.244,72.745,201.124,72.173z"/>
	</g>
	<g>
		<path class="st2" d="M123.696,8.798L54.913,35.222c-2.566,0.986-2.566,4.616,0,5.601l68.784,26.424
			c2.77,1.064,5.837,1.064,8.607,0l68.784-26.424c2.566-0.986,2.566-4.616,0-5.601L132.304,8.798
			C129.533,7.734,126.467,7.734,123.696,8.798z"/>
	</g>
	<g>
		<path class="st1" d="M128,70.046c-1.701,0-3.402-0.311-5.021-0.933L54.195,42.69c-1.948-0.749-3.207-2.581-3.207-4.668
			s1.259-3.919,3.207-4.667l68.784-26.424c3.238-1.243,6.804-1.243,10.042,0l68.782,26.423c1.949,0.749,3.208,2.581,3.208,4.668
			s-1.259,3.919-3.208,4.668l-68.783,26.423C131.402,69.735,129.701,70.046,128,70.046z M128,9.999c-1.215,0-2.43,0.222-3.586,0.667
			l0,0L55.63,37.089c-0.579,0.222-0.642,0.727-0.642,0.934s0.063,0.711,0.642,0.934l68.784,26.423c2.313,0.889,4.86,0.889,7.172,0
			l68.784-26.423c0.579-0.222,0.642-0.727,0.642-0.934s-0.063-0.711-0.642-0.934l-68.783-26.423
			C130.43,10.221,129.215,9.999,128,9.999z M123.696,8.798h0.01H123.696z"/>
	</g>
	<g>
		<path class="st1" d="M128,70.046c-1.701,0-3.402-0.311-5.021-0.933L54.195,42.69c-1.948-0.749-3.207-2.581-3.207-4.668
			s1.259-3.919,3.207-4.667l68.784-26.424c3.238-1.243,6.804-1.243,10.042,0l68.782,26.423c1.949,0.749,3.208,2.581,3.208,4.668
			s-1.259,3.919-3.208,4.668l-68.783,26.423C131.402,69.735,129.701,70.046,128,70.046z M128,9.999c-1.215,0-2.43,0.222-3.586,0.667
			l0,0L55.63,37.089c-0.579,0.222-0.642,0.727-0.642,0.934s0.063,0.711,0.642,0.934l68.784,26.423c2.313,0.889,4.86,0.889,7.172,0
			l68.784-26.423c0.579-0.222,0.642-0.727,0.642-0.934s-0.063-0.711-0.642-0.934l-68.783-26.423
			C130.43,10.221,129.215,9.999,128,9.999z M123.696,8.798h0.01H123.696z"/>
	</g>
	<g>
		<path class="st2" d="M171.114,41.831H85.171c-1.583,0-2.867,1.284-2.867,2.867v16.707h0c0,4.358,20.523,7.89,45.838,7.89
			c25.316,0,45.838-3.533,45.838-7.89h0.001V44.698C173.982,43.114,172.698,41.831,171.114,41.831z"/>
	</g>
	<g>
		<path class="st1" d="M128.142,71.295c-4.896,0-47.838-0.277-47.838-9.891V44.698c0-2.684,2.184-4.867,4.867-4.867h85.943
			c2.684,0,4.867,2.184,4.867,4.867v16.707C175.979,71.018,133.038,71.295,128.142,71.295z M84.304,61.262
			c1.406,2.081,15.856,6.034,43.838,6.034c27.983,0,42.432-3.953,43.838-6.034l0.001-16.564c0-0.478-0.389-0.867-0.867-0.867H85.171
			c-0.478,0-0.867,0.389-0.867,0.867V61.262z"/>
	</g>
	<g>
		<path class="st0" d="M87.919,125.338c-0.002,0-0.005,0-0.007,0c-11.96,0.01-21.687,9.742-21.687,21.704
			c0,14.075,0,24.833,0,40.161h7.235c0-15.328,0-26.082,0-40.161c0-7.978,6.491-14.47,14.47-14.47c4.351,0,35.827,0,40.284,0v-7.235
			C96.653,125.338,102,125.338,87.919,125.338z"/>
	</g>
	<g>
		<path class="st5" d="M84.162,192.178H55.524v0c0-6.506,5.274-11.78,11.78-11.78h5.078
			C78.888,180.398,84.162,185.672,84.162,192.178L84.162,192.178z"/>
	</g>
	<g>
		<path class="st1" d="M84.162,194.178H55.524c-1.104,0-2-0.896-2-2c0-7.598,6.182-13.78,13.78-13.78h5.078
			c7.598,0,13.78,6.182,13.78,13.78C86.162,193.283,85.266,194.178,84.162,194.178z M57.729,190.178h24.227
			c-0.926-4.437-4.867-7.78-9.574-7.78h-5.078C62.596,182.398,58.655,185.742,57.729,190.178z"/>
	</g>
	<g>
		<path class="st5" d="M133.046,134.984h-10.092c-3.33,0-6.029-2.699-6.029-6.029v0c0-3.33,2.699-6.029,6.029-6.029h10.092
			c3.33,0,6.029,2.699,6.029,6.029v0C139.075,132.285,136.376,134.984,133.046,134.984z"/>
	</g>
	<g>
		<path class="st1" d="M133.046,136.984h-10.092c-4.427,0-8.029-3.602-8.029-8.029s3.602-8.029,8.029-8.029h10.092
			c4.428,0,8.029,3.602,8.029,8.029S137.474,136.984,133.046,136.984z M122.954,124.926c-2.222,0-4.029,1.807-4.029,4.029
			s1.807,4.029,4.029,4.029h10.092c2.222,0,4.029-1.808,4.029-4.029s-1.808-4.029-4.029-4.029H122.954z"/>
	</g>
	<g>
		<path class="st12" d="M207.339,209.882H48.661c-2.203,0-3.989-1.786-3.989-3.989v-9.726c0-2.203,1.786-3.989,3.989-3.989h158.678
			c2.203,0,3.989,1.786,3.989,3.989v9.726C211.328,208.096,209.542,209.882,207.339,209.882z"/>
	</g>
	<g>
		<path class="st12" d="M53.537,209.882L56.639,248c13.573,0,127.746,0,142.7,0l3.103-38.118
			C183.781,209.882,72.233,209.882,53.537,209.882z"/>
	</g>
	<g>
		<path class="st1" d="M207.339,211.882H48.661c-3.302,0-5.989-2.687-5.989-5.989v-9.726c0-3.302,2.687-5.989,5.989-5.989h158.678
			c3.303,0,5.989,2.687,5.989,5.989v9.726C213.328,209.195,210.642,211.882,207.339,211.882z M48.661,194.178
			c-1.097,0-1.989,0.892-1.989,1.989v9.726c0,1.097,0.893,1.989,1.989,1.989h158.678c1.097,0,1.989-0.893,1.989-1.989v-9.726
			c0-1.097-0.893-1.989-1.989-1.989H48.661z"/>
	</g>
	<g>
		<path class="st1" d="M199.339,250h-142.7c-1.042,0-1.909-0.799-1.993-1.838l-3.103-38.118c-0.045-0.557,0.145-1.107,0.523-1.518
			c0.378-0.411,0.912-0.645,1.47-0.645h148.905c0.559,0,1.092,0.233,1.471,0.645c0.378,0.411,0.568,0.961,0.522,1.518l-3.103,38.118
			C201.248,249.201,200.381,250,199.339,250z M58.483,246h139.012l2.777-34.118H55.706L58.483,246z"/>
	</g>
</g>
</svg>
