<?xml version="1.0" encoding="utf-8"?>
<!-- Generator: Adobe Illustrator 22.1.0, SVG Export Plug-In . SVG Version: 6.00 Build 0)  -->
<svg version="1.1" id="Layer_1" xmlns="http://www.w3.org/2000/svg" xmlns:xlink="http://www.w3.org/1999/xlink" x="0px" y="0px"
	 viewBox="0 0 256 256" style="enable-background:new 0 0 256 256;" xml:space="preserve">
<style type="text/css">
	.st0{fill:#E0EBFC;}
	.st1{fill:#3762CC;}
	.st2{fill:#4671C6;}
	.st3{fill:#6BDDDD;}
	.st4{fill:#F9A7A7;}
	.st5{fill:#A4C9FF;}
	.st6{fill:#FFEA92;}
	.st7{fill:#F9CFCF;}
	.st8{fill:#FFE164;}
	.st9{fill:#FFDC85;}
	.st10{fill:#FFEA94;}
	.st11{fill:#B9BEFC;}
	.st12{fill:#EAA97D;}
</style>
<g>
	<g>
		<path class="st7" d="M84.484,148.867c-8.03,0-15.544-2.168-21.996-5.933v9.81l0.022-0.012l21.996,4.943l0,0l21.973-4.938v-9.802
			C100.028,146.699,92.514,148.867,84.484,148.867z"/>
	</g>
	<g>
		<path class="st1" d="M84.506,159.674c-0.147,0-0.294-0.017-0.438-0.049l-21.85-4.91c-0.25-0.035-0.494-0.116-0.718-0.246
			c-0.619-0.357-1.011-1.011-1.011-1.726v-9.81c0-0.716,0.383-1.378,1.004-1.734c0.622-0.356,1.386-0.354,2.004,0.007
			c6.343,3.703,13.601,5.66,20.987,5.66c7.387,0,14.644-1.957,20.987-5.66c0.619-0.36,1.383-0.363,2.004-0.007
			c0.621,0.356,1.004,1.019,1.004,1.734v9.802c0,0.936-0.648,1.746-1.562,1.951l-21.973,4.938
			C84.8,159.657,84.653,159.674,84.506,159.674z M64.488,151.125l20.018,4.499l19.973-4.489v-4.867
			c-6.199,3.017-13.046,4.599-19.996,4.599s-13.796-1.582-19.995-4.599V151.125z"/>
	</g>
	<g>
		<path class="st0" d="M139.958,213.367H29.031v-31.922c0-13.128,10.642-23.77,23.77-23.77h63.387
			c13.128,0,23.77,10.642,23.77,23.77V213.367z"/>
	</g>
	<g>
		<path class="st1" d="M139.958,215.367H29.031c-1.104,0-2-0.896-2-2v-31.922c0-14.209,11.561-25.77,25.77-25.77h63.387
			c14.209,0,25.77,11.561,25.77,25.77v31.922C141.958,214.472,141.062,215.367,139.958,215.367z M31.031,211.367h106.927v-29.922
			c0-12.004-9.766-21.77-21.77-21.77H52.801c-12.004,0-21.77,9.766-21.77,21.77V211.367z"/>
	</g>
	<g>
		<path class="st0" d="M84.506,157.674l-21.996-4.943l-8.783,4.943l13.827,17.629c0.795,1.013,2.329,1.013,3.124,0L84.506,157.674z"
			/>
	</g>
	<g>
		<path class="st0" d="M84.504,157.675l21.996-4.943l8.783,4.943l-13.827,17.629c-0.795,1.013-2.329,1.013-3.124,0L84.504,157.675z"
			/>
	</g>
	<g>
		<path class="st1" d="M69.117,178.063c-1.232,0-2.375-0.556-3.135-1.524l-13.828-17.631c-0.36-0.459-0.501-1.053-0.388-1.625
			s0.472-1.066,0.98-1.353l8.783-4.943c0.431-0.243,0.936-0.318,1.419-0.208l21.996,4.943c0.669,0.15,1.215,0.634,1.445,1.28
			c0.23,0.646,0.113,1.365-0.31,1.905l-13.827,17.63C71.491,177.508,70.349,178.063,69.117,178.063z M56.74,158.273l12.389,15.796
			l11.853-15.138l-18.16-4.081L56.74,158.273z"/>
	</g>
	<g>
		<path class="st4" d="M77.677,175.911l-6.114,37.456c9.346,0,16.494,0,25.842,0l-6.114-37.456H77.677z"/>
	</g>
	<g>
		<path class="st1" d="M97.405,215.367H71.563c-0.587,0-1.144-0.258-1.524-0.705c-0.38-0.446-0.544-1.038-0.45-1.617l6.114-37.456
			c0.158-0.968,0.994-1.678,1.974-1.678h13.614c0.98,0,1.816,0.71,1.974,1.678l6.114,37.456c0.095,0.579-0.07,1.171-0.45,1.617
			C98.549,215.109,97.992,215.367,97.405,215.367z M73.916,211.367h21.136l-5.461-33.456H79.377L73.916,211.367z"/>
	</g>
	<g>
		<path class="st1" d="M69.117,178.063c-1.232,0-2.375-0.556-3.135-1.524l-13.828-17.631c-0.36-0.459-0.501-1.053-0.388-1.625
			s0.472-1.066,0.98-1.353l8.783-4.943c0.431-0.243,0.936-0.318,1.419-0.208l21.996,4.943c0.669,0.15,1.215,0.634,1.445,1.28
			c0.23,0.646,0.113,1.365-0.31,1.905l-13.827,17.63C71.491,177.508,70.349,178.063,69.117,178.063z M56.74,158.273l12.389,15.796
			l11.853-15.138l-18.16-4.081L56.74,158.273z"/>
	</g>
	<g>
		<path class="st4" d="M84.505,157.675l-8.617,10.986l1.789,7.25c4.927,0,8.69,0,13.614,0l1.799-7.291L84.505,157.675z"/>
	</g>
	<g>
		<path class="st1" d="M99.893,178.063c-1.232,0-2.375-0.556-3.136-1.525L82.93,158.909c-0.423-0.54-0.541-1.26-0.31-1.905
			c0.23-0.646,0.776-1.13,1.445-1.28l21.996-4.943c0.483-0.11,0.988-0.035,1.419,0.208l8.783,4.943
			c0.508,0.286,0.867,0.78,0.98,1.353s-0.028,1.166-0.388,1.625l-13.827,17.629C102.269,177.508,101.125,178.063,99.893,178.063z
			 M88.032,158.932l11.873,15.138l12.367-15.794l-6.083-3.424L88.032,158.932z"/>
	</g>
	<g>
		<path class="st1" d="M91.291,177.911H77.677c-0.92,0-1.721-0.628-1.942-1.521l-1.789-7.249c-0.147-0.598-0.012-1.229,0.368-1.714
			l8.616-10.986c0.758-0.967,2.389-0.967,3.147,0l8.585,10.945c0.38,0.484,0.516,1.116,0.368,1.714l-1.799,7.29
			C93.012,177.283,92.21,177.911,91.291,177.911z M79.243,173.911h10.481l1.19-4.822l-6.41-8.172l-6.441,8.212L79.243,173.911z"/>
	</g>
	<g>
		<path class="st7" d="M127.923,89.456v-4.067c0-23.775-19.449-43.048-43.44-43.048l0,0c-23.991,0-43.44,19.273-43.44,43.048v4.067
			c-7.543-0.153-13.527,5.856-13.527,13.12c0,7.756,6.771,13.891,14.675,13.056c4.483,19.046,21.711,33.236,42.292,33.236
			c20.583,0,37.81-14.191,42.292-33.236c7.893,0.835,14.675-5.289,14.675-13.056C141.451,95.308,135.462,89.303,127.923,89.456z"/>
	</g>
	<g>
		<path class="st4" d="M92.315,131.305L92.315,131.305c-3.998,4.03-11.72,3.934-15.623,0l0,0c-2.401-2.421-2.073-4.515-2.073-7.604
			h19.77C94.388,126.678,94.753,128.848,92.315,131.305z"/>
	</g>
	<g>
		<path class="st1" d="M107.064,116.977c-3.366,0-6.101-2.728-6.101-6.101v-6.507c0-3.369,2.731-6.101,6.101-6.101
			c3.366,0,6.101,2.728,6.101,6.101v6.507C113.164,114.246,110.433,116.977,107.064,116.977z"/>
	</g>
	<g>
		<path class="st1" d="M61.948,116.977L61.948,116.977c-3.369,0-6.101-2.731-6.101-6.101v-6.507c0-3.369,2.731-6.101,6.101-6.101h0
			c3.369,0,6.101,2.731,6.101,6.101v6.507C68.048,114.246,65.317,116.977,61.948,116.977z"/>
	</g>
	<g>
		<path class="st1" d="M84.483,150.866c-20.665,0-38.453-13.552-43.827-33.161c-3.731-0.03-7.348-1.413-10.131-3.918
			c-3.183-2.863-5.008-6.95-5.008-11.212c0-4.079,1.611-7.904,4.538-10.771c2.46-2.411,5.597-3.886,8.99-4.257v-2.158
			c0-24.84,20.384-45.049,45.439-45.049c25.056,0,45.44,20.209,45.44,45.049v2.158c3.393,0.372,6.529,1.846,8.99,4.258
			c2.926,2.866,4.538,6.691,4.538,10.771c0,4.262-1.825,8.348-5.007,11.211c-2.784,2.505-6.401,3.889-10.132,3.919
			C122.937,137.314,105.149,150.866,84.483,150.866z M42.193,113.631c0.918,0,1.731,0.631,1.945,1.542
			c4.392,18.66,20.983,31.693,40.345,31.693c19.363,0,35.954-13.033,40.346-31.693c0.231-0.979,1.152-1.626,2.157-1.531
			c3.204,0.341,6.406-0.691,8.782-2.829c2.34-2.105,3.683-5.108,3.683-8.237c0-2.995-1.185-5.806-3.337-7.914
			c-2.173-2.13-5.051-3.264-8.15-3.205c-0.538,0.002-1.056-0.195-1.44-0.571c-0.384-0.376-0.6-0.892-0.6-1.429v-4.067
			c0-22.635-18.59-41.049-41.44-41.049c-22.85,0-41.439,18.414-41.439,41.049v4.067c0,0.537-0.216,1.053-0.6,1.429
			c-0.384,0.376-0.899,0.57-1.44,0.571c-3.078-0.063-5.977,1.076-8.15,3.204c-2.152,2.109-3.337,4.92-3.337,7.915
			c0,3.129,1.343,6.132,3.684,8.239c2.409,2.168,5.53,3.177,8.78,2.827C42.052,113.635,42.123,113.631,42.193,113.631z"/>
	</g>
	<g>
		<path class="st2" d="M138.293,66.655c0-30.434-33.106-47.859-53.81-35.508c-20.327-12.126-53.81,4.658-53.81,35.508
			c0,22.702-0.155,22.895,0.525,26.851c2.456-2.547,5.936-4.13,9.844-4.051c0-6.321-0.001-3.406,0.021-4.772h41.299
			c11.444,0,20.722-9.277,20.722-20.722v-5.065c0,13.918,11.028,25.254,24.822,25.762c0.018,1.097,0.016-0.92,0.016,4.796
			c3.907-0.079,7.388,1.504,9.844,4.051C138.448,89.553,138.293,89.396,138.293,66.655z"/>
	</g>
	<g>
		<path class="st1" d="M84.521,135.792c-3.49,0-6.731-1.251-8.895-3.431c-2.578-2.6-2.548-5.071-2.516-7.688
			c0.004-0.313,0.008-0.637,0.008-0.973c0-0.828,0.671-1.5,1.5-1.5h19.77c0.829,0,1.5,0.672,1.5,1.5c0,0.345,0.005,0.679,0.01,1.003
			c0.039,2.594,0.076,5.044-2.518,7.658l0,0C91.218,134.541,87.989,135.791,84.521,135.792z M76.105,125.2
			c-0.019,2.168,0.074,3.458,1.652,5.048c1.604,1.616,4.069,2.544,6.765,2.544c2.673-0.001,5.126-0.928,6.729-2.544l0,0
			c1.593-1.605,1.679-2.954,1.654-5.048H76.105z"/>
	</g>
	<g>
		<path class="st1" d="M137.768,95.507c-0.535,0-1.057-0.215-1.439-0.611c-2.202-2.283-5.168-3.521-8.364-3.439
			c-0.575,0.009-1.057-0.195-1.44-0.571s-0.6-0.892-0.6-1.429v-2.01c0-0.366,0-0.67,0-0.923
			c-9.755-1.018-17.919-6.991-22.012-15.348c-3.022,9.004-11.54,15.508-21.548,15.508h-39.32c0,0.429,0,0.979,0,1.685v1.088
			c0,0.537-0.216,1.053-0.6,1.429s-0.899,0.57-1.44,0.571c-3.198-0.097-6.164,1.156-8.365,3.439
			c-0.523,0.543-1.307,0.744-2.028,0.522c-0.72-0.222-1.255-0.829-1.383-1.572c-0.584-3.398-0.583-4.155-0.564-16.796
			c0.004-2.813,0.01-6.224,0.01-10.395c0-15.089,7.895-28.58,21.118-36.09c11.492-6.525,24.664-7.148,34.691-1.719
			c10.032-5.438,23.161-4.847,34.576,1.636c13.296,7.55,21.233,21.072,21.233,36.173c0,4.179,0.005,7.595,0.01,10.411
			c0.019,12.627,0.021,13.383-0.564,16.779c-0.128,0.743-0.663,1.351-1.383,1.572C138.162,95.478,137.964,95.507,137.768,95.507z
			 M129.923,87.546c2.252,0.247,4.385,0.98,6.285,2.152c0.11-2.055,0.105-5.276,0.094-12.625c-0.004-2.819-0.01-6.236-0.01-10.418
			c0-13.643-7.181-25.864-19.208-32.694c-10.559-5.997-22.658-6.415-31.577-1.096c-0.631,0.377-1.418,0.377-2.049,0
			c-8.908-5.314-21.052-4.862-31.692,1.179c-11.956,6.789-19.093,18.98-19.093,32.611c0,4.173-0.005,7.586-0.01,10.401
			c-0.011,7.359-0.016,10.585,0.094,12.641c1.9-1.172,4.033-1.904,6.286-2.151c0.001-1.281,0.008-2.06,0.048-2.567l-0.034-0.002
			c0.002-0.045,0.004-0.137,0.007-0.326c0.018-1.091,0.908-1.967,2-1.967h41.299c10.323,0,18.722-8.398,18.722-18.722v-5.064
			c0-1.104,0.896-2,2-2s2,0.896,2,2c0,12.853,10.057,23.29,22.896,23.763c1.062,0.039,1.908,0.902,1.926,1.965l0.009,0.359
			c0.005,0.134,0.007,0.134,0.007,2.462V87.546z"/>
	</g>
	<g>
		<path class="st7" d="M123.015,172.951c2.286,9.71,8.538,17.905,16.969,22.826v5.637h36.778v-5.637
			c8.431-4.921,14.683-13.116,16.969-22.826c6.599,0.698,12.269-4.421,12.269-10.915c0-6.076-5.007-11.096-11.309-10.968v-3.401
			c0-19.877-16.26-35.99-36.317-35.99s-36.317,16.113-36.317,35.99v3.401c-6.306-0.128-11.309,4.896-11.309,10.968
			C110.746,168.52,116.407,173.649,123.015,172.951z"/>
	</g>
	<g>
		<path class="st3" d="M204.752,247.974h-92.739v-26.688c0-10.975,8.897-19.873,19.873-19.873h52.994
			c10.975,0,19.873,8.897,19.873,19.873V247.974z"/>
	</g>
	<g>
		<path class="st1" d="M204.751,249.974h-92.739c-1.104,0-2-0.896-2-2v-26.688c0-12.061,9.812-21.873,21.873-21.873h52.994
			c12.061,0,21.873,9.813,21.873,21.873v26.688C206.751,249.078,205.856,249.974,204.751,249.974z M114.013,245.974h88.739v-24.688
			c0-9.855-8.018-17.873-17.873-17.873h-52.994c-9.855,0-17.873,8.018-17.873,17.873V245.974z"/>
	</g>
	<g>
		<path class="st1" d="M176.762,203.413h-36.778c-1.104,0-2-0.896-2-2v-4.508c-8.029-5.021-13.95-12.885-16.501-21.896
			c-3.112-0.083-6.115-1.264-8.441-3.356c-2.73-2.456-4.296-5.962-4.296-9.617c0-3.499,1.382-6.779,3.892-9.239
			c2.04-1.998,4.621-3.246,7.418-3.615v-1.515c0-20.948,17.189-37.99,38.317-37.99s38.317,17.042,38.317,37.99v1.515
			c2.797,0.369,5.378,1.617,7.418,3.616c2.51,2.459,3.892,5.74,3.892,9.238c0,3.655-1.565,7.161-4.294,9.617
			c-2.326,2.093-5.331,3.272-8.442,3.356c-2.551,9.012-8.472,16.875-16.501,21.896v4.508
			C178.762,202.518,177.867,203.413,176.762,203.413z M141.984,199.413h32.778v-3.636c0-0.711,0.377-1.369,0.992-1.728
			c8.072-4.712,13.915-12.569,16.031-21.557c0.231-0.98,1.16-1.627,2.157-1.531c2.631,0.284,5.144-0.532,7.088-2.283
			c1.888-1.698,2.97-4.12,2.97-6.644c0-2.415-0.956-4.681-2.691-6.382c-1.754-1.718-4.105-2.664-6.578-2.586
			c-0.534-0.013-1.056-0.195-1.44-0.571c-0.384-0.376-0.6-0.892-0.6-1.429v-3.401c0-18.742-15.395-33.99-34.317-33.99
			s-34.317,15.248-34.317,33.99v3.401c0,0.537-0.216,1.053-0.6,1.429c-0.384,0.375-0.901,0.555-1.44,0.571
			c-2.497-0.083-4.824,0.866-6.578,2.586c-1.736,1.7-2.691,3.967-2.691,6.382c0,2.523,1.083,4.945,2.972,6.645
			c1.944,1.749,4.464,2.561,7.087,2.282c1.006-0.098,1.926,0.551,2.157,1.531c2.116,8.987,7.958,16.845,16.03,21.557
			c0.614,0.358,0.992,1.017,0.992,1.728V199.413z"/>
	</g>
	<g>
		<path class="st2" d="M165.743,96.139c-2.431,0-3.916-0.229-5.577,1.142c-1.039,0.858-2.6,0.858-3.639,0
			c-0.864-0.713-1.972-1.142-3.18-1.142c-26.53,0-41.37,19.3-41.37,38.973v7.873c0,25.574,20.725,46.369,46.37,46.369
			c25.574,0,46.37-20.725,46.37-46.369v-7.873C204.717,113.588,187.268,96.139,165.743,96.139z"/>
	</g>
	<g>
		<path class="st1" d="M158.347,191.355c-26.671,0-48.37-21.699-48.37-48.37v-7.873c0-19.862,15.2-40.973,43.37-40.973
			c1.621,0,3.203,0.567,4.453,1.599c0.303,0.248,0.793,0.249,1.094,0c2.009-1.657,3.931-1.632,5.968-1.606
			c0.28,0.004,0.573,0.008,0.881,0.008c22.593,0,40.974,18.38,40.974,40.973v7.873C206.717,169.656,185.018,191.355,158.347,191.355
			z M153.347,98.14c-25.847,0-39.37,18.6-39.37,36.973v7.873c0,24.466,19.904,44.37,44.37,44.37s44.37-19.904,44.37-44.37v-7.873
			c0-20.387-16.586-36.973-36.974-36.973c-0.327,0-0.637-0.004-0.933-0.008c-1.895-0.019-2.533,0.001-3.371,0.692
			c-1.792,1.479-4.393,1.479-6.185-0.001C154.712,98.376,154.052,98.14,153.347,98.14z"/>
	</g>
	<g>
		<path class="st5" d="M157.735,19.761c-12.689,12.689-15.086,31.771-7.194,46.877l-4.543,18.092
			c-0.521,2.073,1.359,3.953,3.432,3.432l18.092-4.543c15.106,7.891,34.188,5.494,46.877-7.195
			c15.647-15.647,15.647-41.016,0-56.663C198.751,4.114,173.382,4.114,157.735,19.761z"/>
	</g>
	<g>
		<path class="st1" d="M148.724,90.25c-1.261,0-2.475-0.495-3.397-1.417c-1.211-1.212-1.686-2.928-1.269-4.59l4.36-17.363
			c-8.115-16.233-4.984-35.646,7.903-48.532l0,0l0,0c16.401-16.402,43.09-16.402,59.492,0c7.945,7.945,12.321,18.509,12.321,29.745
			s-4.376,21.801-12.321,29.746c-12.887,12.888-32.3,16.017-48.532,7.903l-17.363,4.359C149.52,90.201,149.119,90.25,148.724,90.25z
			 M186.066,10.044c-9.748,0-19.496,3.711-26.917,11.132l0,0c-11.826,11.826-14.573,29.724-6.835,44.537
			c0.227,0.435,0.286,0.938,0.167,1.413l-4.543,18.092c-0.1,0.396,0.093,0.663,0.217,0.787c0.125,0.124,0.392,0.315,0.788,0.218
			l18.091-4.543c0.477-0.121,0.979-0.06,1.414,0.167c14.811,7.739,32.71,4.99,44.537-6.836c7.189-7.19,11.149-16.75,11.149-26.918
			s-3.96-19.728-11.149-26.917C205.563,13.755,195.815,10.044,186.066,10.044z M157.735,19.762h0.01H157.735z"/>
	</g>
	<g>
		<path class="st6" d="M215.925,59.885c0-5.456,0-9.954,0-14.602l-1.835,0.705c0,5.199,0,10.798,0,13.897
			c-0.653,0.334-1.101,1.013-1.101,1.796v4.832h4.037v-4.832C217.026,60.897,216.579,60.219,215.925,59.885z"/>
	</g>
	<g>
		<path class="st2" d="M184.233,31.79l-28.589,10.983c-1.066,0.41-1.066,1.918,0,2.328l28.589,10.983
			c1.151,0.442,2.426,0.442,3.577,0L216.4,45.101c1.066-0.41,1.066-1.918,0-2.328L187.81,31.79
			C186.659,31.348,185.385,31.348,184.233,31.79z"/>
	</g>
	<g>
		<path class="st1" d="M186.022,58.416c-0.849,0-1.698-0.155-2.506-0.466l-28.589-10.982c-1.264-0.485-2.082-1.675-2.083-3.029
			c0-1.355,0.816-2.546,2.082-3.032l28.589-10.983c1.616-0.621,3.396-0.621,5.012,0l28.589,10.982
			c1.266,0.487,2.083,1.678,2.083,3.033c0,1.354-0.818,2.544-2.083,3.029L188.528,57.95
			C187.72,58.261,186.871,58.416,186.022,58.416z M158.191,43.937l26.759,10.279c0.69,0.266,1.451,0.266,2.143,0l26.759-10.279
			l-26.759-10.279c-0.69-0.266-1.451-0.266-2.143,0l0,0L158.191,43.937z M184.233,31.79h0.01H184.233z"/>
	</g>
	<g>
		<path class="st2" d="M204.523,45.519h-36.883c-0.337,0-0.611,0.273-0.611,0.611v9.107c0,2.01,8.53,3.64,19.052,3.64
			c10.522,0,19.052-1.63,19.052-3.64h0V46.13C205.133,45.793,204.86,45.519,204.523,45.519z"/>
	</g>
	<g>
		<path class="st1" d="M186.081,60.876c-6.33,0-21.052-0.55-21.052-5.64V46.13c0-1.439,1.171-2.61,2.611-2.61h36.883
			c1.439,0,2.611,1.171,2.611,2.61v9.106C207.132,60.326,192.411,60.876,186.081,60.876z M169.029,54.686
			c1.455,0.851,7.302,2.19,17.052,2.19c9.75,0,15.597-1.34,17.052-2.19l0-7.166h-34.104V54.686z M204.522,47.52h0.01H204.522z"/>
	</g>
</g>
</svg>
