<?xml version="1.0" encoding="utf-8"?>
<!-- Generator: Adobe Illustrator 22.1.0, SVG Export Plug-In . SVG Version: 6.00 Build 0)  -->
<svg version="1.1" id="Layer_1" xmlns="http://www.w3.org/2000/svg" xmlns:xlink="http://www.w3.org/1999/xlink" x="0px" y="0px"
	 viewBox="0 0 256 256" style="enable-background:new 0 0 256 256;" xml:space="preserve">
<style type="text/css">
	.st0{fill:#E0EBFC;}
	.st1{fill:#3762CC;}
	.st2{fill:#4671C6;}
	.st3{fill:#6BDDDD;}
	.st4{fill:#F9A7A7;}
	.st5{fill:#A4C9FF;}
	.st6{fill:#FFEA92;}
	.st7{fill:#F9CFCF;}
	.st8{fill:#FFE164;}
	.st9{fill:#FFDC85;}
	.st10{fill:#FFEA94;}
	.st11{fill:#B9BEFC;}
	.st12{fill:#EAA97D;}
</style>
<g>
	<g>
		<path class="st5" d="M240,170.086H16c-4.418,0-8-3.582-8-8V17.467c0-4.418,3.582-8,8-8h224c4.418,0,8,3.582,8,8v144.619
			C248,166.504,244.418,170.086,240,170.086z"/>
	</g>
	<g>
		<path class="st0" d="M17.824,157.759V21.794c0-1.682,1.364-3.045,3.045-3.045h214.26c1.682,0,3.046,1.364,3.046,3.045v135.964
			c0,1.682-1.364,3.045-3.046,3.045H20.87C19.188,160.804,17.824,159.441,17.824,157.759z"/>
	</g>
	<g>
		<path class="st1" d="M240,172.086H16c-5.514,0-10-4.486-10-10V17.467c0-5.514,4.486-10,10-10h224c5.514,0,10,4.486,10,10v144.619
			C250,167.6,245.514,172.086,240,172.086z M16,11.467c-3.309,0-6,2.691-6,6v144.619c0,3.309,2.691,6,6,6h224c3.309,0,6-2.691,6-6
			V17.467c0-3.309-2.691-6-6-6H16z"/>
	</g>
	<g>
		<path class="st1" d="M235.13,162.804H20.87c-2.782,0-5.045-2.263-5.045-5.045V21.794c0-2.782,2.263-5.045,5.045-5.045h214.26
			c2.782,0,5.046,2.263,5.046,5.045v135.964C240.176,160.541,237.912,162.804,235.13,162.804z M20.87,20.749
			c-0.577,0-1.045,0.469-1.045,1.045v135.964c0,0.577,0.469,1.045,1.045,1.045h214.26c0.577,0,1.046-0.469,1.046-1.045V21.794
			c0-0.577-0.469-1.045-1.046-1.045H20.87z"/>
	</g>
	<g>
		<path class="st5" d="M215,59.453H92.48c-3.314,0-6-2.686-6-6v0c0-3.314,2.686-6,6-6H215c3.314,0,6,2.686,6,6v0
			C221,56.766,218.314,59.453,215,59.453z"/>
	</g>
	<g>
		<path class="st5" d="M215,91.453H92.48c-3.314,0-6-2.686-6-6v0c0-3.314,2.686-6,6-6H215c3.314,0,6,2.686,6,6v0
			C221,88.766,218.314,91.453,215,91.453z"/>
	</g>
	<g>
		<path class="st5" d="M215,123.453H92.48c-3.314,0-6-2.686-6-6v0c0-3.314,2.686-6,6-6H215c3.314,0,6,2.686,6,6v0
			C221,120.766,218.314,123.453,215,123.453z"/>
	</g>
	<g>
		<g>
			<path class="st7" d="M71.855,180.163c-8.263,0-15.995-2.23-22.633-6.105v10.094l0.023-0.013l22.633,5.087l0,0l22.61-5.082
				v-10.087C87.85,177.932,80.118,180.163,71.855,180.163z"/>
		</g>
		<g>
			<path class="st1" d="M71.878,191.226c-0.147,0-0.294-0.016-0.438-0.049l-22.488-5.054c-0.256-0.036-0.505-0.121-0.733-0.255
				c-0.61-0.359-0.996-1.008-0.996-1.716v-10.094c0-0.716,0.383-1.378,1.004-1.734c0.622-0.357,1.386-0.354,2.004,0.007
				c6.537,3.815,14.014,5.833,21.625,5.833s15.088-2.017,21.625-5.833c0.619-0.362,1.383-0.364,2.004-0.007
				c0.621,0.356,1.004,1.018,1.004,1.734v10.087c0,0.936-0.648,1.746-1.562,1.951l-22.61,5.082
				C72.172,191.209,72.025,191.226,71.878,191.226z M51.222,182.533l20.656,4.642l20.61-4.632v-5.148
				c-6.393,3.127-13.46,4.768-20.633,4.768s-14.24-1.64-20.633-4.768V182.533z"/>
		</g>
		<g>
			<path class="st0" d="M128.937,246.533H14.795v-32.847c0-13.508,10.951-24.459,24.459-24.459h65.224
				c13.508,0,24.459,10.951,24.459,24.459V246.533z"/>
		</g>
		<g>
			<path class="st1" d="M128.937,248.533H14.795c-1.104,0-2-0.896-2-2v-32.847c0-14.589,11.87-26.459,26.459-26.459h65.224
				c14.589,0,26.458,11.87,26.458,26.459v32.847C130.937,247.637,130.042,248.533,128.937,248.533z M16.795,244.533h110.142v-30.847
				c0-12.384-10.075-22.459-22.459-22.459H39.254c-12.384,0-22.459,10.075-22.459,22.459V244.533z"/>
		</g>
		<g>
			<path class="st0" d="M71.878,189.225l-22.633-5.087l-9.037,5.087l14.228,18.14c0.818,1.043,2.397,1.043,3.214,0L71.878,189.225z"
				/>
		</g>
		<g>
			<path class="st0" d="M71.876,189.226l22.633-5.087l9.037,5.087l-14.228,18.14c-0.818,1.043-2.397,1.043-3.214,0L71.876,189.226z"
				/>
		</g>
		<g>
			<path class="st1" d="M56.043,210.147c-1.25,0-2.41-0.564-3.181-1.547l-14.228-18.141c-0.36-0.459-0.501-1.053-0.388-1.625
				s0.472-1.066,0.98-1.352l9.037-5.086c0.431-0.243,0.937-0.318,1.419-0.208l22.633,5.086c0.669,0.15,1.215,0.633,1.445,1.28
				c0.23,0.646,0.113,1.366-0.31,1.906L59.224,208.6C58.452,209.583,57.292,210.147,56.043,210.147z M43.22,189.825l12.79,16.307
				l12.333-15.651l-18.787-4.222L43.22,189.825z"/>
		</g>
		<g>
			<path class="st3" d="M64.851,207.991l-6.291,38.542c9.617,0,16.972,0,26.591,0l-6.291-38.542H64.851z"/>
		</g>
		<g>
			<path class="st1" d="M85.15,248.533H58.56c-0.587,0-1.144-0.258-1.524-0.705c-0.38-0.447-0.544-1.039-0.45-1.618l6.292-38.542
				c0.158-0.967,0.994-1.678,1.974-1.678h14.008c0.98,0,1.816,0.71,1.974,1.678l6.292,38.542c0.094,0.579-0.07,1.17-0.45,1.618
				C86.294,248.275,85.737,248.533,85.15,248.533z M60.913,244.533h21.885l-5.638-34.542H66.551L60.913,244.533z"/>
		</g>
		<g>
			<path class="st1" d="M56.043,210.147c-1.25,0-2.41-0.564-3.181-1.547l-14.228-18.141c-0.36-0.459-0.501-1.053-0.388-1.625
				s0.472-1.066,0.98-1.352l9.037-5.086c0.431-0.243,0.937-0.318,1.419-0.208l22.633,5.086c0.669,0.15,1.215,0.633,1.445,1.28
				c0.23,0.646,0.113,1.366-0.31,1.906L59.224,208.6C58.452,209.583,57.292,210.147,56.043,210.147z M43.22,189.825l12.79,16.307
				l12.333-15.651l-18.787-4.222L43.22,189.825z"/>
		</g>
		<g>
			<path class="st3" d="M71.877,189.227l-8.866,11.305l1.841,7.46c5.069,0,8.942,0,14.008,0l1.851-7.502L71.877,189.227z"/>
		</g>
		<g>
			<path class="st1" d="M87.711,210.148c-1.25,0-2.409-0.564-3.181-1.548l-14.228-18.14c-0.423-0.54-0.541-1.259-0.31-1.906
				c0.23-0.646,0.776-1.129,1.445-1.28l22.633-5.087c0.483-0.108,0.988-0.034,1.419,0.208l9.037,5.087
				c0.508,0.286,0.867,0.78,0.98,1.352s-0.028,1.166-0.388,1.625l-14.228,18.14C90.121,209.584,88.961,210.148,87.711,210.148z
				 M75.404,190.483l12.274,15.649l12.852-16.309l-6.332-3.564L75.404,190.483z"/>
		</g>
		<g>
			<path class="st1" d="M78.859,209.991H64.851c-0.92,0-1.721-0.627-1.942-1.521l-1.841-7.46c-0.147-0.597-0.012-1.229,0.368-1.713
				l8.867-11.305c0.379-0.483,0.959-0.766,1.574-0.766l0,0c0.614,0,1.194,0.282,1.574,0.766l8.833,11.263
				c0.38,0.484,0.516,1.116,0.368,1.713l-1.851,7.502C80.581,209.364,79.779,209.991,78.859,209.991z M66.417,205.991h10.875
				l1.242-5.035l-6.658-8.489l-6.691,8.531L66.417,205.991z"/>
		</g>
		<g>
			<path class="st7" d="M116.554,119.03v-4.185c0-24.464-20.012-44.296-44.699-44.296l0,0c-24.686,0-44.699,19.832-44.699,44.296
				v4.185c-7.762-0.157-13.919,6.026-13.919,13.5c0,7.981,6.967,14.294,15.1,13.434c4.613,19.598,22.34,34.199,43.518,34.199
				c21.18,0,38.906-14.603,43.518-34.199c8.122,0.859,15.1-5.442,15.1-13.434C130.473,125.052,124.311,118.872,116.554,119.03z"/>
		</g>
		<g>
			<path class="st4" d="M79.887,162.425L79.887,162.425c-4.113,4.146-12.06,4.048-16.076,0l0,0
				c-2.471-2.491-2.133-4.646-2.133-7.825h20.343C82.021,157.664,82.396,159.896,79.887,162.425z"/>
		</g>
		<g>
			<path class="st1" d="M95.063,144.476c-3.464,0-6.277-2.807-6.277-6.277v-6.696c0-3.467,2.81-6.277,6.277-6.277
				c3.464,0,6.277,2.807,6.277,6.277v6.696C101.341,141.665,98.53,144.476,95.063,144.476z"/>
		</g>
		<g>
			<path class="st1" d="M48.64,144.476L48.64,144.476c-3.467,0-6.277-2.81-6.277-6.277v-6.696c0-3.467,2.81-6.277,6.277-6.277h0
				c3.467,0,6.277,2.81,6.277,6.277v6.696C54.917,141.665,52.107,144.476,48.64,144.476z"/>
		</g>
		<g>
			<path class="st1" d="M71.855,182.163c-21.253,0-39.544-13.947-45.054-34.123c-3.841-0.02-7.566-1.439-10.431-4.017
				c-3.263-2.936-5.134-7.125-5.134-11.493c0-4.181,1.652-8.103,4.651-11.042c2.535-2.484,5.77-3.998,9.268-4.37v-2.273
				c0-25.528,20.949-46.296,46.699-46.296s46.699,20.768,46.699,46.296v2.273c3.498,0.372,6.733,1.887,9.269,4.371
				c3,2.939,4.651,6.86,4.651,11.042c0,4.368-1.871,8.557-5.133,11.492c-2.865,2.578-6.591,3.998-10.432,4.018
				C111.399,168.215,93.108,182.163,71.855,182.163z M28.338,143.963c0.918,0,1.731,0.63,1.945,1.542
				c4.526,19.228,21.621,32.657,41.571,32.657c19.951,0,37.046-13.429,41.571-32.657c0.231-0.98,1.154-1.637,2.157-1.531
				c3.316,0.352,6.626-0.716,9.082-2.926c2.42-2.178,3.808-5.283,3.808-8.519c0-3.097-1.226-6.004-3.451-8.185
				c-2.248-2.203-5.253-3.367-8.429-3.316c-0.531,0.011-1.056-0.195-1.44-0.571c-0.384-0.376-0.6-0.891-0.6-1.428v-4.186
				c0-23.322-19.155-42.296-42.699-42.296s-42.699,18.974-42.699,42.296v4.186c0,0.538-0.216,1.052-0.6,1.428
				s-0.904,0.58-1.44,0.571c-3.197-0.057-6.181,1.113-8.428,3.315c-2.226,2.181-3.451,5.088-3.451,8.186
				c0,3.236,1.389,6.341,3.81,8.52c2.492,2.242,5.717,3.281,9.08,2.925C28.198,143.967,28.269,143.963,28.338,143.963z"/>
		</g>
		<g>
			<path class="st2" d="M127.224,95.568c0-31.316-34.065-49.246-55.369-36.537c-20.916-12.478-55.369,4.793-55.369,36.537
				c0,23.36-0.16,23.559,0.541,27.63c2.527-2.62,6.108-4.25,10.13-4.168c0-6.505-0.001-3.505,0.022-4.91h42.496
				c11.776,0,21.322-9.546,21.322-21.322v-5.212c0,14.321,11.348,25.986,25.541,26.509c0.019,1.128,0.016-0.947,0.016,4.935
				c4.02-0.082,7.602,1.548,10.13,4.168C127.383,119.13,127.224,118.968,127.224,95.568z"/>
		</g>
		<g>
			<path class="st1" d="M71.867,166.998c-3.579,0-6.903-1.282-9.121-3.517c-2.64-2.662-2.609-5.196-2.576-7.879
				c0.004-0.323,0.008-0.657,0.008-1.002c0-0.829,0.671-1.5,1.5-1.5h20.342c0.829,0,1.5,0.671,1.5,1.5
				c0,0.355,0.005,0.698,0.01,1.032c0.04,2.66,0.077,5.172-2.579,7.849l0,0C78.735,165.716,75.424,166.998,71.867,166.998z
				 M63.165,156.1c-0.021,2.268,0.065,3.609,1.711,5.269c1.658,1.671,4.207,2.629,6.991,2.629c2.763,0,5.297-0.958,6.955-2.629l0,0
				c1.663-1.676,1.742-3.078,1.715-5.269H63.165z M79.887,162.425h0.01H79.887z"/>
		</g>
		<g>
			<path class="st1" d="M126.684,125.198c-0.535,0-1.057-0.215-1.439-0.611c-2.277-2.361-5.328-3.615-8.65-3.558
				c-0.531,0.011-1.056-0.195-1.44-0.571c-0.384-0.376-0.6-0.891-0.6-1.429v-2.068c0-0.401,0-0.73,0-1.001
				c-10.089-1.035-18.528-7.231-22.717-15.894c-3.062,9.312-11.839,16.053-22.163,16.053H29.156c0,0.457,0,1.053,0,1.832v1.079
				c0,0.538-0.216,1.052-0.6,1.429c-0.384,0.375-0.904,0.579-1.44,0.571c-3.298-0.069-6.373,1.196-8.65,3.557
				c-0.523,0.543-1.307,0.746-2.028,0.523c-0.72-0.222-1.255-0.83-1.383-1.573c-0.601-3.491-0.599-4.269-0.579-17.258
				c0.004-2.898,0.01-6.412,0.01-10.71c0-15.505,8.113-29.369,21.702-37.085c11.819-6.711,25.364-7.348,35.667-1.752
				c10.31-5.603,23.812-4.999,35.55,1.667c13.663,7.759,21.819,21.654,21.819,37.171c0,4.299,0.006,7.813,0.011,10.711
				c0.02,12.989,0.021,13.767-0.58,17.257c-0.128,0.743-0.663,1.351-1.383,1.573C127.078,125.169,126.88,125.198,126.684,125.198z
				 M118.554,117.117c2.361,0.251,4.595,1.022,6.578,2.263c0.119-2.112,0.114-5.413,0.102-13.094c-0.004-2.9-0.01-6.416-0.01-10.717
				c0-14.059-7.4-26.654-19.794-33.692c-10.884-6.181-23.357-6.612-32.55-1.126c-0.631,0.376-1.417,0.376-2.049,0
				c-9.184-5.479-21.702-5.016-32.667,1.212c-12.321,6.996-19.677,19.56-19.677,33.607c0,4.301-0.005,7.817-0.01,10.717
				c-0.012,7.681-0.017,10.982,0.102,13.094c1.983-1.241,4.218-2.012,6.578-2.263c0.001-1.349,0.008-2.164,0.051-2.692l-0.037-0.003
				c0.002-0.046,0.004-0.14,0.008-0.335c0.018-1.091,0.908-1.967,2-1.967h42.496c10.654,0,19.322-8.668,19.322-19.322v-5.212
				c0-1.104,0.896-2,2-2s2,0.896,2,2c0,13.256,10.373,24.023,23.615,24.511c1.063,0.039,1.909,0.903,1.926,1.966l0.009,0.372
				c0.005,0.138,0.007,0.138,0.007,2.528V117.117z"/>
		</g>
		<g>
			<path class="st7" d="M141.316,202.98h-10.843H119.63l-3.213,43.553c10.172,0,17.939,0,28.111,0L141.316,202.98z"/>
		</g>
		<g>
			<path class="st1" d="M144.529,248.533h-28.112c-0.556,0-1.087-0.231-1.465-0.639c-0.378-0.408-0.57-0.954-0.529-1.508
				l3.213-43.553c0.077-1.045,0.947-1.853,1.995-1.853h21.686c1.048,0,1.918,0.808,1.994,1.853l3.213,43.553
				c0.041,0.554-0.15,1.101-0.529,1.508C145.616,248.301,145.085,248.533,144.529,248.533z M118.57,244.533h23.806l-2.917-39.553
				h-17.971L118.57,244.533z"/>
		</g>
		<g>
			<path class="st4" d="M129.522,203.697L129.522,203.697c-1.774,0-3.213-1.438-3.213-3.213v-76.067
				c0-1.774,1.438-3.213,3.213-3.213h0c1.774,0,3.213,1.438,3.213,3.213v76.067C132.735,202.259,131.296,203.697,129.522,203.697z"
				/>
		</g>
		<g>
			<path class="st1" d="M129.521,205.697c-2.874,0-5.212-2.338-5.212-5.213v-76.067c0-2.875,2.338-5.213,5.212-5.213
				s5.213,2.338,5.213,5.213v76.067C134.734,203.359,132.396,205.697,129.521,205.697z M129.521,123.205
				c-0.668,0-1.212,0.544-1.212,1.213v76.067c0,0.669,0.544,1.213,1.212,1.213c0.669,0,1.213-0.544,1.213-1.213v-76.067
				C130.734,123.749,130.19,123.205,129.521,123.205z"/>
		</g>
		<g>
			<path class="st7" d="M143.941,213.215L143.941,213.215c2.074-3.727,3.183-7.916,3.224-12.182
				c0.07-7.24,0.052-11.401-2.938-16.774l0-0.001l0,0c-0.856-1.828-2.692-2.996-4.71-2.996h-9.043h-9.043
				c-2.018,0-3.854,1.168-4.71,2.996l0,0l0,0.001c-2.991,5.374-3.008,9.535-2.938,16.774c0.041,4.265,1.15,8.455,3.224,12.182l0,0
				c0.941,1.692,2.725,2.74,4.661,2.74h17.613C141.216,215.955,143,214.906,143.941,213.215z"/>
		</g>
		<g>
			<path class="st1" d="M139.28,217.955h-17.613c-2.66,0-5.116-1.444-6.409-3.768c-2.23-4.007-3.432-8.549-3.476-13.135
				c-0.068-7.099-0.114-11.797,3.159-17.708c1.193-2.482,3.732-4.082,6.49-4.082h18.086c2.757,0,5.296,1.599,6.489,4.08
				c3.271,5.91,3.228,10.609,3.159,17.709c-0.044,4.586-1.246,9.128-3.476,13.135c0,0,0,0-0.001,0
				C144.396,216.511,141.939,217.955,139.28,217.955z M121.43,183.263c-1.237,0-2.375,0.724-2.898,1.843
				c-0.02,0.042-0.041,0.084-0.064,0.125c-2.677,4.811-2.758,8.315-2.686,15.783c0.038,3.92,1.065,7.803,2.971,11.228
				c0.588,1.057,1.705,1.713,2.914,1.713h17.613c1.209,0,2.325-0.656,2.914-1.713h-0.001c1.906-3.425,2.934-7.308,2.972-11.228
				c0.071-7.469-0.01-10.974-2.686-15.782c-0.023-0.041-0.045-0.083-0.064-0.125c-0.524-1.121-1.662-1.844-2.898-1.844H121.43z
				 M143.941,213.215h0.01H143.941z"/>
		</g>
	</g>
	<g>
		<circle class="st3" cx="198" cy="196.533" r="50"/>
	</g>
	<g>
		<path class="st6" d="M198.001,233.621c-20.45,0-37.089-16.638-37.089-37.088s16.638-37.088,37.089-37.088
			s37.087,16.637,37.087,37.088S218.451,233.621,198.001,233.621z"/>
	</g>
	<g>
		<path class="st1" d="M198,248.533c-28.673,0-52-23.327-52-52s23.327-52,52-52s52,23.327,52,52S226.673,248.533,198,248.533z
			 M198,148.533c-26.468,0-48,21.533-48,48s21.532,48,48,48s48-21.533,48-48S224.468,148.533,198,148.533z"/>
	</g>
	<g>
		<path class="st2" d="M182.503,189.55h5.745v38.268c0,1.105,0.895,2,2,2h15.502c1.105,0,2-0.895,2-2V189.55h5.745
			c1.615,0,2.564-1.815,1.642-3.141l-15.497-22.303c-0.796-1.145-2.489-1.145-3.285,0l-15.497,22.303
			C179.94,187.735,180.889,189.55,182.503,189.55z"/>
	</g>
</g>
</svg>
