<?xml version="1.0" encoding="utf-8"?>
<!-- Generator: Adobe Illustrator 22.1.0, SVG Export Plug-In . SVG Version: 6.00 Build 0)  -->
<svg version="1.1" id="Layer_1" xmlns="http://www.w3.org/2000/svg" xmlns:xlink="http://www.w3.org/1999/xlink" x="0px" y="0px"
	 viewBox="0 0 256 256" style="enable-background:new 0 0 256 256;" xml:space="preserve">
<style type="text/css">
	.st0{fill:#E0EBFC;}
	.st1{fill:#3762CC;}
	.st2{fill:#4671C6;}
	.st3{fill:#6BDDDD;}
	.st4{fill:#F9A7A7;}
	.st5{fill:#A4C9FF;}
	.st6{fill:#FFEA92;}
	.st7{fill:#F9CFCF;}
	.st8{fill:#FFE164;}
	.st9{fill:#FFDC85;}
	.st10{fill:#FFEA94;}
	.st11{fill:#B9BEFC;}
	.st12{fill:#EAA97D;}
</style>
<g>
	<g>
		<path class="st11" d="M128.096,208.566c-1.657,0-3-1.343-3-3V50.513c0-1.657,1.343-3,3-3s3,1.343,3,3v155.054
			C131.096,207.224,129.753,208.566,128.096,208.566z"/>
	</g>
	<g>
		<path class="st11" d="M205.622,131.039H50.568c-1.657,0-3-1.343-3-3s1.343-3,3-3h155.054c1.657,0,3,1.343,3,3
			S207.279,131.039,205.622,131.039z"/>
	</g>
	<g>
		<path class="st11" d="M128,216.626c-48.868,0-88.626-39.758-88.626-88.626S79.132,39.374,128,39.374S216.626,79.132,216.626,128
			S176.868,216.626,128,216.626z M128,45.374c-45.561,0-82.626,37.065-82.626,82.626S82.439,210.626,128,210.626
			s82.626-37.065,82.626-82.626S173.561,45.374,128,45.374z"/>
	</g>
	<g>
		<path class="st11" d="M188.209,56.475l-11.314,11.314c-1.152,1.152-0.545,3.124,1.056,3.428l13.967,2.653
			c1.406,0.267,2.639-0.966,2.372-2.372l-2.653-13.967C191.334,55.93,189.362,55.323,188.209,56.475z"/>
	</g>
	<g>
		<path class="st11" d="M55.822,67.655l11.314,11.314c1.152,1.152,3.124,0.545,3.428-1.056l2.653-13.967
			c0.267-1.406-0.966-2.639-2.372-2.372l-13.967,2.653C55.277,64.531,54.67,66.503,55.822,67.655z"/>
	</g>
	<g>
		<path class="st11" d="M63.849,196.14l11.314-11.314c1.152-1.152,0.545-3.124-1.056-3.428l-13.967-2.653
			c-1.406-0.267-2.639,0.966-2.372,2.372l2.653,13.967C60.724,196.685,62.696,197.292,63.849,196.14z"/>
	</g>
	<g>
		<path class="st11" d="M196.715,190.618l-11.314-11.314c-1.152-1.152-3.124-0.545-3.428,1.056l-2.653,13.967
			c-0.267,1.406,0.966,2.639,2.372,2.372l13.967-2.653C197.26,193.743,197.868,191.771,196.715,190.618z"/>
	</g>
	<g>
		<circle class="st5" cx="128" cy="209.774" r="38.226"/>
	</g>
	<g>
		<path class="st4" d="M142.3,236.014v-4.627c0-7.993-6.48-14.473-14.473-14.473s-14.473,6.48-14.473,14.473v4.627H142.3z"/>
	</g>
	<g>
		<path class="st2" d="M142.3,236.014v-4.627c0-7.993-6.48-14.473-14.473-14.473s-14.473,6.48-14.473,14.473v4.627H142.3z"/>
	</g>
	<g>
		<path class="st1" d="M142.3,238.014h-28.946c-1.104,0-2-0.896-2-2v-4.627c0-9.084,7.39-16.474,16.473-16.474
			s16.473,7.39,16.473,16.474v4.627C144.3,237.118,143.405,238.014,142.3,238.014z M115.354,234.014H140.3v-2.627
			c0-6.878-5.595-12.474-12.473-12.474s-12.473,5.596-12.473,12.474V234.014z"/>
	</g>
	<g>
		<path class="st1" d="M142.3,238.014h-28.946c-1.104,0-2-0.896-2-2v-4.627c0-9.084,7.39-16.474,16.473-16.474
			s16.473,7.39,16.473,16.474v4.627C144.3,237.118,143.405,238.014,142.3,238.014z M115.354,234.014H140.3v-2.627
			c0-6.878-5.595-12.474-12.473-12.474s-12.473,5.596-12.473,12.474V234.014z"/>
	</g>
	<g>
		<path class="st6" d="M127.827,214.99c-7.543,0-13.909,5.122-15.812,12.069l15.746,3.076l15.872-3.101
			C141.721,220.1,135.361,214.99,127.827,214.99z"/>
	</g>
	<g>
		<path class="st1" d="M127.761,232.135c-0.128,0-0.257-0.013-0.383-0.037l-15.746-3.076c-0.546-0.106-1.023-0.436-1.316-0.908
			c-0.293-0.474-0.376-1.047-0.229-1.583c2.185-7.973,9.48-13.54,17.741-13.54c8.248,0,15.54,5.557,17.734,13.513
			c0.148,0.536,0.065,1.11-0.228,1.584c-0.293,0.474-0.77,0.804-1.317,0.91l-15.872,3.101
			C128.018,232.122,127.889,232.135,127.761,232.135z M114.675,225.54l13.086,2.557l13.208-2.58
			c-2.289-5.111-7.421-8.526-13.141-8.526C122.096,216.99,116.958,220.415,114.675,225.54z"/>
	</g>
	<g>
		<circle class="st7" cx="127.827" cy="206.014" r="12.797"/>
	</g>
	<g>
		<path class="st1" d="M127.827,220.812c-8.159,0-14.797-6.639-14.797-14.798s6.638-14.797,14.797-14.797
			s14.797,6.638,14.797,14.797S135.986,220.812,127.827,220.812z M127.827,195.217c-5.954,0-10.797,4.844-10.797,10.797
			c0,5.954,4.844,10.798,10.797,10.798s10.797-4.844,10.797-10.798C138.625,200.061,133.781,195.217,127.827,195.217z"/>
	</g>
	<g>
		<path class="st6" d="M149.14,204.412c0-4.284,0-7.699,0-11.408l-1.242,0.477c0,3.897,0,8.523,0,10.931
			c-0.442,0.226-0.745,0.685-0.745,1.216v3.271h2.733v-3.271C149.885,205.097,149.582,204.638,149.14,204.412z"/>
	</g>
	<g>
		<path class="st2" d="M126.491,183.49l-20.287,7.794c-0.757,0.291-0.757,1.361,0,1.652l20.287,7.794
			c0.817,0.314,1.722,0.314,2.539,0l20.287-7.794c0.757-0.291,0.757-1.361,0-1.652l-20.287-7.794
			C128.213,183.176,127.308,183.176,126.491,183.49z"/>
	</g>
	<g>
		<path class="st1" d="M127.761,202.965c-0.673,0-1.345-0.122-1.986-0.368l-20.289-7.794c-1.124-0.431-1.85-1.488-1.85-2.692
			c0-1.205,0.727-2.263,1.851-2.693l20.287-7.794c0,0,0.001,0,0.001,0c1.281-0.492,2.691-0.492,3.971,0l20.289,7.794
			c1.124,0.431,1.85,1.488,1.85,2.693c0,1.204-0.727,2.262-1.852,2.692l-20.286,7.794
			C129.106,202.842,128.434,202.965,127.761,202.965z M109.631,192.11l17.577,6.752c0.356,0.137,0.748,0.137,1.105,0l17.576-6.753
			l-17.577-6.752c-0.356-0.137-0.749-0.137-1.105,0L109.631,192.11z"/>
	</g>
	<g>
		<path class="st2" d="M140.235,193.47H115.37c-0.227,0-0.412,0.184-0.412,0.412v6.139c0,1.355,5.75,2.454,12.844,2.454
			c7.093,0,12.844-1.099,12.844-2.454h0v-6.139C140.647,193.654,140.462,193.47,140.235,193.47z"/>
	</g>
	<g>
		<path class="st1" d="M127.803,204.475c-9.85,0-14.844-1.499-14.844-4.454v-6.139c0-1.33,1.082-2.412,2.412-2.412h24.864
			c1.33,0,2.412,1.082,2.412,2.412v6.139C142.646,202.976,137.652,204.475,127.803,204.475z M116.958,199.232
			c1.305,0.519,5.087,1.242,10.844,1.242s9.539-0.724,10.844-1.242v-3.763h-21.688V199.232z M140.235,195.47h0.01H140.235z"/>
	</g>
	<g>
		<path class="st1" d="M128,250c-10.745,0-20.846-4.185-28.444-11.782l0,0l0,0c-7.598-7.598-11.782-17.699-11.782-28.443
			c0-10.745,4.185-20.847,11.782-28.444s17.699-11.782,28.444-11.782s20.846,4.185,28.444,11.782s11.782,17.699,11.782,28.444
			c0,10.744-4.185,20.846-11.782,28.443S138.745,250,128,250z M128,173.548c-9.676,0-18.773,3.768-25.616,10.61
			c-6.842,6.842-10.61,15.939-10.61,25.616c0,9.676,3.768,18.773,10.61,25.615l0,0C109.227,242.232,118.324,246,128,246
			s18.773-3.768,25.616-10.61c6.842-6.842,10.61-15.939,10.61-25.615c0-9.677-3.768-18.774-10.61-25.616
			C146.773,177.315,137.676,173.548,128,173.548z"/>
	</g>
	<g>
		<circle class="st3" cx="46.226" cy="128" r="38.226"/>
	</g>
	<g>
		<path class="st4" d="M67.366,122.638c0-4.284,0-7.699,0-11.408l-1.242,0.477c0,3.897,0,8.523,0,10.931
			c-0.442,0.226-0.745,0.685-0.745,1.216v3.271h2.733v-3.271C68.111,123.323,67.808,122.864,67.366,122.638z"/>
	</g>
	<g>
		<path class="st4" d="M60.527,154.24v-4.627c0-7.993-6.48-14.473-14.473-14.473s-14.473,6.48-14.473,14.473v4.627H60.527z"/>
	</g>
	<g>
		<path class="st2" d="M60.527,154.24v-4.627c0-7.993-6.48-14.473-14.473-14.473s-14.473,6.48-14.473,14.473v4.627H60.527z"/>
	</g>
	<g>
		<path class="st1" d="M60.527,156.24H31.58c-1.104,0-2-0.896-2-2v-4.627c0-9.084,7.39-16.474,16.473-16.474
			s16.474,7.39,16.474,16.474v4.627C62.527,155.345,61.631,156.24,60.527,156.24z M33.58,152.24h24.947v-2.627
			c0-6.878-5.596-12.474-12.474-12.474s-12.473,5.596-12.473,12.474V152.24z"/>
	</g>
	<g>
		<path class="st1" d="M60.527,156.24H31.58c-1.104,0-2-0.896-2-2v-4.627c0-9.084,7.39-16.474,16.473-16.474
			s16.474,7.39,16.474,16.474v4.627C62.527,155.345,61.631,156.24,60.527,156.24z M33.58,152.24h24.947v-2.627
			c0-6.878-5.596-12.474-12.474-12.474s-12.473,5.596-12.473,12.474V152.24z"/>
	</g>
	<g>
		<path class="st4" d="M46.053,133.216c-7.543,0-13.909,5.122-15.812,12.069l15.746,3.076l15.872-3.101
			C59.947,138.326,53.587,133.216,46.053,133.216z"/>
	</g>
	<g>
		<path class="st1" d="M45.987,150.361c-0.128,0-0.257-0.013-0.383-0.037l-15.746-3.076c-0.546-0.106-1.023-0.436-1.316-0.908
			c-0.293-0.474-0.376-1.047-0.229-1.583c2.185-7.973,9.48-13.541,17.741-13.541c8.248,0,15.54,5.557,17.734,13.514
			c0.148,0.536,0.065,1.11-0.228,1.584c-0.293,0.474-0.77,0.804-1.317,0.91l-15.872,3.101
			C46.244,150.349,46.115,150.361,45.987,150.361z M32.901,143.767l13.086,2.557l13.208-2.58c-2.289-5.111-7.422-8.527-13.142-8.527
			C40.322,135.216,35.184,138.642,32.901,143.767z"/>
	</g>
	<g>
		<circle class="st7" cx="46.053" cy="124.24" r="12.797"/>
	</g>
	<g>
		<path class="st1" d="M46.053,139.038c-8.159,0-14.797-6.639-14.797-14.798s6.638-14.798,14.797-14.798s14.797,6.639,14.797,14.798
			S54.212,139.038,46.053,139.038z M46.053,113.442c-5.954,0-10.797,4.844-10.797,10.798s4.844,10.798,10.797,10.798
			s10.797-4.844,10.797-10.798S52.007,113.442,46.053,113.442z"/>
	</g>
	<g>
		<path class="st2" d="M44.717,101.716L24.43,109.51c-0.757,0.291-0.757,1.361,0,1.652l20.287,7.794
			c0.817,0.314,1.722,0.314,2.539,0l20.287-7.794c0.757-0.291,0.757-1.361,0-1.652l-20.287-7.794
			C46.439,101.402,45.535,101.402,44.717,101.716z"/>
	</g>
	<g>
		<path class="st1" d="M45.987,121.191c-0.673,0-1.347-0.123-1.988-0.37l-20.286-7.792c-1.124-0.433-1.85-1.489-1.85-2.693
			s0.726-2.261,1.85-2.693L44,99.85c1.281-0.493,2.693-0.494,3.974,0.001l20.287,7.792c1.124,0.433,1.85,1.489,1.85,2.693
			s-0.726,2.261-1.85,2.693l-20.288,7.793C47.333,121.068,46.66,121.191,45.987,121.191z M27.857,110.336l17.578,6.752
			c0.356,0.137,0.748,0.138,1.103,0.001l17.579-6.753l-17.578-6.752c-0.355-0.137-0.747-0.138-1.103-0.001
			c0,0.001-0.001,0.001-0.001,0.001L27.857,110.336z M44.717,101.717h0.01H44.717z"/>
	</g>
	<g>
		<path class="st2" d="M58.461,111.696H33.597c-0.227,0-0.412,0.184-0.412,0.412v6.139c0,1.355,5.75,2.454,12.844,2.454
			c7.093,0,12.844-1.099,12.844-2.454h0v-6.139C58.873,111.88,58.688,111.696,58.461,111.696z"/>
	</g>
	<g>
		<path class="st1" d="M46.029,122.7c-9.85,0-14.844-1.498-14.844-4.453v-6.14c0-1.329,1.082-2.411,2.412-2.411h24.864
			c1.33,0,2.412,1.082,2.412,2.411v6.14C60.872,121.202,55.877,122.7,46.029,122.7z M35.185,117.459
			c1.305,0.519,5.086,1.241,10.844,1.241s9.539-0.723,10.844-1.241l0-3.763H35.185V117.459z M58.461,113.696h0.01H58.461z"/>
	</g>
	<g>
		<path class="st1" d="M46.227,168.207c-10.301,0-20.603-3.921-28.444-11.763c-15.684-15.685-15.684-41.204,0-56.889
			c15.683-15.684,41.204-15.684,56.888,0c15.684,15.685,15.684,41.204,0,56.889l0,0C66.829,164.286,56.527,168.207,46.227,168.207z
			 M46.227,91.791c-9.278,0-18.553,3.53-25.616,10.593c-14.124,14.125-14.124,37.107,0,51.232c14.125,14.125,37.107,14.123,51.232,0
			c14.124-14.125,14.124-37.107,0-51.232C64.781,95.322,55.502,91.791,46.227,91.791z M73.256,155.03h0.01H73.256z"/>
	</g>
	<g>
		<circle class="st6" cx="128" cy="46.226" r="38.226"/>
	</g>
	<g>
		<path class="st3" d="M149.14,39.17c0-4.285,0-7.699,0-11.408l-1.242,0.477c0,3.897,0,8.523,0,10.931
			c-0.442,0.226-0.745,0.685-0.745,1.216v3.271h2.733v-3.271C149.885,39.855,149.582,39.396,149.14,39.17z"/>
	</g>
	<g>
		<path class="st4" d="M142.3,70.773v-4.627c0-7.993-6.48-14.473-14.473-14.473s-14.473,6.48-14.473,14.473v4.627H142.3z"/>
	</g>
	<g>
		<path class="st2" d="M142.3,70.773v-4.627c0-7.993-6.48-14.473-14.473-14.473s-14.473,6.48-14.473,14.473v4.627H142.3z"/>
	</g>
	<g>
		<path class="st1" d="M142.3,72.772h-28.946c-1.104,0-2-0.896-2-2v-4.627c0-9.084,7.39-16.474,16.473-16.474
			s16.473,7.39,16.473,16.474v4.627C144.3,71.877,143.405,72.772,142.3,72.772z M115.354,68.772H140.3v-2.627
			c0-6.878-5.595-12.474-12.473-12.474s-12.473,5.596-12.473,12.474V68.772z"/>
	</g>
	<g>
		<path class="st1" d="M142.3,72.772h-28.946c-1.104,0-2-0.896-2-2v-4.627c0-9.084,7.39-16.474,16.473-16.474
			s16.473,7.39,16.473,16.474v4.627C144.3,71.877,143.405,72.772,142.3,72.772z M115.354,68.772H140.3v-2.627
			c0-6.878-5.595-12.474-12.473-12.474s-12.473,5.596-12.473,12.474V68.772z"/>
	</g>
	<g>
		<path class="st3" d="M127.827,49.749c-7.543,0-13.909,5.122-15.812,12.069l15.746,3.076l15.872-3.101
			C141.721,54.858,135.361,49.749,127.827,49.749z"/>
	</g>
	<g>
		<path class="st1" d="M127.761,66.894c-0.128,0-0.257-0.013-0.383-0.037l-15.746-3.076c-0.546-0.106-1.023-0.436-1.316-0.908
			c-0.293-0.474-0.376-1.047-0.229-1.583c2.185-7.973,9.48-13.54,17.741-13.54c8.248,0,15.54,5.557,17.734,13.513
			c0.148,0.536,0.065,1.11-0.228,1.584c-0.293,0.474-0.77,0.804-1.317,0.91l-15.872,3.101
			C128.018,66.881,127.889,66.894,127.761,66.894z M114.675,60.299l13.086,2.557l13.208-2.58c-2.289-5.111-7.421-8.526-13.141-8.526
			C122.096,51.749,116.958,55.174,114.675,60.299z"/>
	</g>
	<g>
		<circle class="st7" cx="127.827" cy="40.773" r="12.797"/>
	</g>
	<g>
		<path class="st1" d="M127.827,55.57c-8.159,0-14.797-6.639-14.797-14.798s6.638-14.797,14.797-14.797s14.797,6.638,14.797,14.797
			S135.986,55.57,127.827,55.57z M127.827,29.976c-5.954,0-10.797,4.844-10.797,10.797c0,5.954,4.844,10.798,10.797,10.798
			s10.797-4.844,10.797-10.798C138.625,34.819,133.781,29.976,127.827,29.976z"/>
	</g>
	<g>
		<path class="st2" d="M126.491,18.249l-20.287,7.794c-0.757,0.291-0.757,1.361,0,1.652l20.287,7.794
			c0.817,0.314,1.722,0.314,2.539,0l20.287-7.794c0.757-0.291,0.757-1.361,0-1.652l-20.287-7.794
			C128.213,17.935,127.308,17.935,126.491,18.249z"/>
	</g>
	<g>
		<path class="st1" d="M127.761,37.724c-0.673,0-1.347-0.123-1.988-0.37l-20.287-7.792c-1.124-0.433-1.85-1.49-1.85-2.693
			s0.726-2.261,1.849-2.692l20.288-7.793c1.282-0.494,2.694-0.494,3.975,0l20.287,7.792c1.124,0.433,1.85,1.489,1.85,2.693
			s-0.726,2.261-1.85,2.693l-20.288,7.793C129.107,37.601,128.434,37.724,127.761,37.724z M109.63,26.868l17.578,6.752
			c0.356,0.137,0.748,0.138,1.103,0.001l17.579-6.753l-17.578-6.752c-0.355-0.136-0.747-0.138-1.103-0.001
			c0,0.001-0.001,0.001-0.001,0.001L109.63,26.868z M126.491,18.249h0.01H126.491z"/>
	</g>
	<g>
		<path class="st2" d="M140.235,28.228H115.37c-0.227,0-0.412,0.184-0.412,0.412v6.139c0,1.355,5.75,2.454,12.844,2.454
			c7.093,0,12.844-1.099,12.844-2.454h0V28.64C140.647,28.413,140.462,28.228,140.235,28.228z"/>
	</g>
	<g>
		<path class="st1" d="M127.803,39.232c-9.85,0-14.844-1.498-14.844-4.453v-6.14c0-1.329,1.082-2.411,2.412-2.411h24.864
			c1.33,0,2.412,1.082,2.412,2.411v6.14C142.646,37.734,137.652,39.232,127.803,39.232z M116.958,33.991
			c1.305,0.519,5.087,1.241,10.844,1.241s9.539-0.723,10.844-1.241v-3.763h-21.688V33.991z M140.235,30.229h0.01H140.235z"/>
	</g>
	<g>
		<path class="st1" d="M128,86.452c-10.745,0-20.846-4.185-28.444-11.782S87.774,56.971,87.774,46.226
			c0-10.744,4.185-20.846,11.782-28.443S117.255,6,128,6s20.846,4.185,28.444,11.782l0,0l0,0
			c7.598,7.598,11.782,17.699,11.782,28.443c0,10.745-4.185,20.847-11.782,28.444S138.745,86.452,128,86.452z M128,10
			c-9.676,0-18.773,3.768-25.616,10.61c-6.842,6.842-10.61,15.939-10.61,25.615c0,9.677,3.768,18.774,10.61,25.616
			c6.842,6.843,15.939,10.61,25.616,10.61s18.773-3.768,25.616-10.61c6.842-6.842,10.61-15.939,10.61-25.616
			c0-9.676-3.768-18.773-10.61-25.615l0,0C146.773,13.768,137.676,10,128,10z"/>
	</g>
	<g>
		<circle class="st4" cx="209.774" cy="128" r="38.226"/>
	</g>
	<g>
		<path class="st4" d="M224.074,152.546v-4.627c0-7.993-6.48-14.473-14.473-14.473c-7.993,0-14.473,6.48-14.473,14.473v4.627
			H224.074z"/>
	</g>
	<g>
		<path class="st2" d="M224.074,152.546v-4.627c0-7.993-6.48-14.473-14.473-14.473c-7.993,0-14.473,6.48-14.473,14.473v4.627
			H224.074z"/>
	</g>
	<g>
		<path class="st1" d="M224.074,154.546h-28.947c-1.104,0-2-0.896-2-2v-4.627c0-9.084,7.39-16.474,16.474-16.474
			s16.473,7.39,16.473,16.474v4.627C226.074,153.65,225.179,154.546,224.074,154.546z M197.127,150.546h24.947v-2.627
			c0-6.878-5.595-12.474-12.473-12.474s-12.474,5.596-12.474,12.474V150.546z"/>
	</g>
	<g>
		<path class="st1" d="M224.074,154.546h-28.947c-1.104,0-2-0.896-2-2v-4.627c0-9.084,7.39-16.474,16.474-16.474
			s16.473,7.39,16.473,16.474v4.627C226.074,153.65,225.179,154.546,224.074,154.546z M197.127,150.546h24.947v-2.627
			c0-6.878-5.595-12.474-12.473-12.474s-12.474,5.596-12.474,12.474V150.546z"/>
	</g>
	<g>
		<path class="st5" d="M209.601,131.522c-7.543,0-13.909,5.122-15.812,12.069l15.746,3.076l15.872-3.101
			C223.494,136.632,217.135,131.522,209.601,131.522z"/>
	</g>
	<g>
		<path class="st1" d="M209.535,148.667c-0.128,0-0.257-0.013-0.383-0.037l-15.746-3.076c-0.546-0.106-1.023-0.436-1.316-0.908
			c-0.293-0.474-0.376-1.047-0.229-1.583c2.185-7.973,9.48-13.54,17.741-13.54c8.248,0,15.54,5.557,17.734,13.513
			c0.148,0.536,0.065,1.11-0.228,1.584c-0.293,0.474-0.77,0.804-1.317,0.91l-15.872,3.101
			C209.792,148.654,209.663,148.667,209.535,148.667z M196.449,142.072l13.086,2.557l13.208-2.58
			c-2.289-5.111-7.421-8.526-13.141-8.526C203.87,133.522,198.732,136.947,196.449,142.072z"/>
	</g>
	<g>
		<circle class="st7" cx="209.601" cy="122.546" r="12.797"/>
	</g>
	<g>
		<path class="st1" d="M209.601,137.344c-8.159,0-14.797-6.638-14.797-14.797s6.638-14.798,14.797-14.798
			s14.797,6.639,14.797,14.798S217.76,137.344,209.601,137.344z M209.601,111.749c-5.954,0-10.797,4.844-10.797,10.798
			c0,5.953,4.844,10.797,10.797,10.797s10.797-4.844,10.797-10.797C220.398,116.593,215.555,111.749,209.601,111.749z"/>
	</g>
	<g>
		<path class="st5" d="M230.914,120.944c0-4.285,0-7.699,0-11.408l-1.242,0.477c0,3.897,0,8.523,0,10.931
			c-0.442,0.226-0.745,0.685-0.745,1.216v3.271h2.732v-3.271C231.659,121.629,231.355,121.17,230.914,120.944z"/>
	</g>
	<g>
		<path class="st2" d="M208.265,100.022l-20.287,7.794c-0.757,0.291-0.757,1.361,0,1.652l20.287,7.794
			c0.817,0.314,1.722,0.314,2.539,0l20.287-7.794c0.757-0.291,0.757-1.361,0-1.652l-20.287-7.794
			C209.987,99.709,209.082,99.709,208.265,100.022z"/>
	</g>
	<g>
		<path class="st1" d="M209.534,119.497c-0.673,0-1.345-0.122-1.985-0.368l-20.289-7.794c-1.124-0.431-1.85-1.488-1.85-2.693
			c0-1.204,0.727-2.262,1.852-2.692l20.286-7.794c0,0,0,0,0.001,0c1.28-0.491,2.69-0.493,3.971,0l20.289,7.794
			c1.124,0.431,1.85,1.488,1.85,2.692c0,1.205-0.727,2.263-1.852,2.693l-20.286,7.794
			C210.88,119.375,210.207,119.497,209.534,119.497z M191.405,108.643l17.577,6.752c0.356,0.138,0.748,0.136,1.105,0l17.576-6.753
			l-17.577-6.752c-0.355-0.137-0.748-0.137-1.104,0L191.405,108.643z"/>
	</g>
	<g>
		<path class="st2" d="M222.009,110.002h-24.865c-0.227,0-0.412,0.184-0.412,0.412v6.139c0,1.355,5.75,2.454,12.844,2.454
			c7.093,0,12.844-1.099,12.844-2.454h0v-6.139C222.42,110.187,222.236,110.002,222.009,110.002z"/>
	</g>
	<g>
		<path class="st1" d="M209.576,121.007c-9.85,0-14.844-1.499-14.844-4.454v-6.139c0-1.33,1.082-2.412,2.412-2.412h24.865
			c1.33,0,2.412,1.082,2.412,2.412v6.139C224.42,119.508,219.426,121.007,209.576,121.007z M198.732,115.765
			c1.305,0.519,5.086,1.242,10.844,1.242s9.539-0.724,10.844-1.242v-3.763h-21.688V115.765z M222.009,112.002h0.01H222.009z"/>
	</g>
	<g>
		<path class="st1" d="M209.773,168.207c-10.301,0-20.602-3.921-28.444-11.763c-15.684-15.685-15.684-41.204,0-56.889l0,0
			c15.684-15.684,41.205-15.684,56.888,0c15.684,15.685,15.684,41.204,0,56.889C230.376,164.286,220.075,168.207,209.773,168.207z
			 M184.158,102.384c-14.124,14.125-14.124,37.107,0,51.232c14.125,14.125,37.107,14.123,51.232,0
			c14.124-14.125,14.124-37.107,0-51.232C221.264,88.259,198.282,88.261,184.158,102.384L184.158,102.384z"/>
	</g>
	<g>
		<circle class="st0" cx="128" cy="128" r="22.018"/>
	</g>
	<g>
		<path class="st1" d="M128,152.019c-13.244,0-24.018-10.774-24.018-24.019s10.774-24.019,24.018-24.019
			s24.018,10.774,24.018,24.019S141.244,152.019,128,152.019z M128,107.981c-11.038,0-20.018,8.98-20.018,20.019
			s8.98,20.019,20.018,20.019s20.018-8.98,20.018-20.019S139.038,107.981,128,107.981z"/>
	</g>
</g>
</svg>
