<?xml version="1.0" encoding="utf-8"?>
<!-- Generator: Adobe Illustrator 22.1.0, SVG Export Plug-In . SVG Version: 6.00 Build 0)  -->
<svg version="1.1" id="Layer_1" xmlns="http://www.w3.org/2000/svg" xmlns:xlink="http://www.w3.org/1999/xlink" x="0px" y="0px"
	 viewBox="0 0 256 256" style="enable-background:new 0 0 256 256;" xml:space="preserve">
<style type="text/css">
	.st0{fill:#E0EBFC;}
	.st1{fill:#3762CC;}
	.st2{fill:#4671C6;}
	.st3{fill:#6BDDDD;}
	.st4{fill:#F9A7A7;}
	.st5{fill:#A4C9FF;}
	.st6{fill:#FFEA92;}
	.st7{fill:#F9CFCF;}
	.st8{fill:#FFE164;}
	.st9{fill:#FFDC85;}
	.st10{fill:#FFEA94;}
	.st11{fill:#B9BEFC;}
	.st12{fill:#EAA97D;}
</style>
<g>
	<g>
		<rect x="24.391" y="109.669" class="st0" width="207.218" height="124.331"/>
	</g>
	<g>
		<path class="st5" d="M220.508,234h-53.776V128.269h49.829c2.18,0,3.947,1.767,3.947,3.947V234z"/>
	</g>
	<g>
		<path class="st5" d="M166.732,128.269H39.439c-2.18,0-3.947,1.767-3.947,3.947v68.234c0,2.18,1.767,3.947,3.947,3.947h127.293
			V128.269z"/>
	</g>
	<g>
		<path class="st3" d="M245,248H11c-1.657,0-3-1.343-3-3v-8c0-1.657,1.343-3,3-3h234c1.657,0,3,1.343,3,3v8
			C248,246.657,246.657,248,245,248z"/>
	</g>
	<g>
		<path class="st1" d="M245,250H11c-2.757,0-5-2.243-5-5v-8c0-2.757,2.243-5,5-5h234c2.757,0,5,2.243,5,5v8
			C250,247.757,247.757,250,245,250z M11,236c-0.552,0-1,0.448-1,1v8c0,0.552,0.448,1,1,1h234c0.552,0,1-0.448,1-1v-8
			c0-0.552-0.448-1-1-1H11z"/>
	</g>
	<g>
		<path class="st7" d="M238.66,83.5H17.34c-2.495,0-4.518,2.023-4.518,4.518v17.133c0,2.495,2.023,4.518,4.518,4.518H238.66
			c2.495,0,4.518-2.023,4.518-4.518V88.018C243.179,85.523,241.156,83.5,238.66,83.5z"/>
	</g>
	<g>
		<path class="st1" d="M231.609,236H24.391c-1.104,0-2-0.896-2-2V109.669c0-1.104,0.896-2,2-2h207.219c1.104,0,2,0.896,2,2V234
			C233.609,235.104,232.714,236,231.609,236z M26.391,232h203.219V111.669H26.391V232z"/>
	</g>
	<g>
		<path class="st1" d="M238.66,111.669H17.34c-3.595,0-6.519-2.924-6.519-6.518V88.019c0-3.595,2.924-6.519,6.519-6.519h221.32
			c3.595,0,6.519,2.924,6.519,6.519v17.133C245.179,108.745,242.255,111.669,238.66,111.669z M17.34,85.5
			c-1.389,0-2.519,1.13-2.519,2.519v17.133c0,1.389,1.13,2.518,2.519,2.518h221.32c1.389,0,2.519-1.129,2.519-2.518V88.019
			c0-1.389-1.13-2.519-2.519-2.519H17.34z"/>
	</g>
	<g>
		<path class="st4" d="M128.001,120.952c-26.938,0-48.854-21.916-48.854-48.854s21.916-48.854,48.854-48.854
			c26.938,0,48.855,21.916,48.855,48.854S154.939,120.952,128.001,120.952z"/>
	</g>
	<g>
		<circle class="st2" cx="128.001" cy="72.098" r="39.572"/>
	</g>
	<g>
		<path class="st0" d="M126.796,39.699c-1.1,0.105-1.908,1.092-1.908,2.197v10.795c0,0.829-0.672,1.502-1.502,1.502
			c-0.829,0-1.502-0.672-1.502-1.502V41.896c0-1.105-0.808-2.092-1.908-2.197c-1.262-0.12-2.324,0.869-2.324,2.106v10.886
			c0,0.829-0.672,1.502-1.502,1.502h-0.054c-0.829,0-1.502-0.672-1.502-1.502V41.805c0-1.169-0.947-2.116-2.116-2.116
			s-2.116,0.948-2.116,2.116v12.388v4.952c0,3.373,2.464,6.163,5.688,6.687v34.983c0,2.038,1.652,3.691,3.691,3.691
			s3.691-1.652,3.691-3.691V65.833c3.224-0.525,5.688-3.315,5.688-6.687v-4.952V41.805C129.12,40.568,128.058,39.579,126.796,39.699
			z"/>
	</g>
	<g>
		<path class="st0" d="M136.129,40.094c-0.841-0.383-1.797,0.234-1.797,1.158v19.175l0,0v40.388c0,2.038,1.652,3.691,3.691,3.691
			s3.691-1.652,3.691-3.691v-19.65c1.899,0,3.436,0.297,3.567-1.146c0.234-2.583,0.36-5.289,0.36-8.081
			C145.641,55.872,141.521,42.55,136.129,40.094z"/>
	</g>
	<g>
		<path class="st1" d="M128.001,122.951c-28.041,0-50.854-22.813-50.854-50.854s22.813-50.854,50.854-50.854
			s50.854,22.813,50.854,50.854S156.042,122.951,128.001,122.951z M128.001,25.244c-25.835,0-46.854,21.019-46.854,46.854
			s21.019,46.854,46.854,46.854c25.836,0,46.854-21.019,46.854-46.854S153.837,25.244,128.001,25.244z"/>
	</g>
	<g>
		<path class="st1" d="M220.508,236h-53.775c-1.104,0-2-0.896-2-2V128.27c0-1.104,0.896-2,2-2h49.829
			c3.278,0,5.946,2.668,5.946,5.947V234C222.508,235.104,221.612,236,220.508,236z M168.732,232h49.775v-99.783
			c0-1.073-0.873-1.947-1.946-1.947h-47.829V232z"/>
	</g>
	<g>
		<path class="st1" d="M166.732,206.397H39.438c-3.278,0-5.946-2.668-5.946-5.947v-68.233c0-3.279,2.668-5.947,5.946-5.947h127.294
			c1.104,0,2,0.896,2,2v76.128C168.732,205.502,167.837,206.397,166.732,206.397z M39.438,130.27c-1.073,0-1.946,0.874-1.946,1.947
			v68.233c0,1.073,0.873,1.947,1.946,1.947h125.294V130.27H39.438z"/>
	</g>
	<g>
		<path class="st2" d="M178.375,204.397L178.375,204.397c-2.002,0-3.625-1.623-3.625-3.625v-21.897c0-2.002,1.623-3.625,3.625-3.625
			l0,0c2.002,0,3.625,1.623,3.625,3.625v21.897C182,202.774,180.377,204.397,178.375,204.397z"/>
	</g>
	<g>
		<path class="st0" d="M76.862,186.091L76.862,186.091c2.391,1.381,5.449,0.561,6.83-1.83l19.5-33.775
			c1.381-2.391,0.561-5.449-1.83-6.83h0c-2.391-1.381-5.449-0.561-6.83,1.83l-19.5,33.775
			C73.651,181.653,74.471,184.711,76.862,186.091z"/>
	</g>
	<g>
		<path class="st0" d="M100.862,189.011L100.862,189.011c2.391,1.381,5.449,0.561,6.83-1.83l19.5-33.775
			c1.381-2.391,0.561-5.449-1.83-6.83h0c-2.391-1.381-5.449-0.561-6.83,1.83l-19.5,33.775
			C97.651,184.572,98.471,187.63,100.862,189.011z"/>
	</g>
</g>
</svg>
