<?xml version="1.0" encoding="utf-8"?>
<!-- Generator: Adobe Illustrator 22.1.0, SVG Export Plug-In . SVG Version: 6.00 Build 0)  -->
<svg version="1.1" id="Layer_1" xmlns="http://www.w3.org/2000/svg" xmlns:xlink="http://www.w3.org/1999/xlink" x="0px" y="0px"
	 viewBox="0 0 256 256" style="enable-background:new 0 0 256 256;" xml:space="preserve">
<style type="text/css">
	.st0{fill:#E0EBFC;}
	.st1{fill:#3762CC;}
	.st2{fill:#4671C6;}
	.st3{fill:#6BDDDD;}
	.st4{fill:#F9A7A7;}
	.st5{fill:#A4C9FF;}
	.st6{fill:#FFEA92;}
	.st7{fill:#F9CFCF;}
	.st8{fill:#FFE164;}
	.st9{fill:#FFDC85;}
	.st10{fill:#FFEA94;}
	.st11{fill:#B9BEFC;}
	.st12{fill:#EAA97D;}
</style>
<g>
	<g>
		<rect x="181.347" y="13.582" class="st6" width="11.883" height="15.352"/>
	</g>
	<g>
		<path class="st12" d="M198.812,34.516h-5.582V8h5.582c7.322,0,13.258,5.936,13.258,13.258v0
			C212.07,28.58,206.134,34.516,198.812,34.516z"/>
	</g>
	<g>
		<path class="st12" d="M21.322,8h5.582v26.516h-5.582C14,34.516,8.064,28.58,8.064,21.258v0C8.064,13.936,14,8,21.322,8z"/>
	</g>
	<g>
		<path class="st2" d="M38.787,13.582v110.393c0,4.186,2.004,8.119,5.39,10.58l58.201,42.3c4.585,3.332,10.794,3.332,15.379,0
			l58.201-42.3c3.386-2.461,5.39-6.394,5.39-10.58V13.582C160.694,13.582,59.477,13.582,38.787,13.582z"/>
	</g>
	<g>
		<path class="st3" d="M53.787,121.978V30.583c0-1.105,0.895-2,2-2h108.56c1.105,0,2,0.895,2,2v91.395
			c0,0.64-0.306,1.242-0.824,1.618l-54.28,39.451c-0.701,0.51-1.651,0.51-2.352,0l-54.28-39.451
			C54.094,123.219,53.787,122.618,53.787,121.978z"/>
	</g>
	<g>
		<rect x="26.905" y="13.582" class="st6" width="11.883" height="15.352"/>
	</g>
	<g>
		<path class="st1" d="M193.229,30.934h-11.883c-1.104,0-2-0.896-2-2V13.582c0-1.104,0.896-2,2-2h11.883c1.104,0,2,0.896,2,2v15.352
			C195.229,30.038,194.334,30.934,193.229,30.934z M183.347,26.934h7.883V15.582h-7.883V26.934z"/>
	</g>
	<g>
		<path class="st1" d="M198.812,36.517h-5.582c-1.104,0-2-0.896-2-2V8c0-1.104,0.896-2,2-2h5.582
			c8.414,0,15.259,6.845,15.259,15.258C214.07,29.672,207.226,36.517,198.812,36.517z M195.229,32.517h3.582
			c6.208,0,11.259-5.051,11.259-11.259S205.02,10,198.812,10h-3.582V32.517z"/>
	</g>
	<g>
		<path class="st1" d="M26.905,36.517h-5.583c-8.414,0-15.258-6.845-15.258-15.259C6.064,12.845,12.909,6,21.322,6h5.583
			c1.104,0,2,0.896,2,2v26.517C28.905,35.621,28.009,36.517,26.905,36.517z M21.322,10c-6.208,0-11.258,5.05-11.258,11.258
			s5.05,11.259,11.258,11.259h3.583V10H21.322z"/>
	</g>
	<g>
		<path class="st1" d="M38.787,30.934H26.905c-1.104,0-2-0.896-2-2V13.582c0-1.104,0.896-2,2-2h11.882c1.104,0,2,0.896,2,2v15.352
			C40.787,30.038,39.892,30.934,38.787,30.934z M28.905,26.934h7.882V15.582h-7.882V26.934z"/>
	</g>
	<g>
		<path class="st1" d="M110.067,181.363c-3.107,0-6.213-0.963-8.865-2.89l-58.201-42.3c-3.891-2.828-6.214-7.389-6.214-12.198
			V13.582c0-1.104,0.896-2,2-2h142.56c1.104,0,2,0.896,2,2v110.394c0,4.811-2.323,9.371-6.214,12.198l-58.201,42.3
			C116.281,180.4,113.173,181.363,110.067,181.363z M40.787,15.582v108.394c0,3.534,1.707,6.885,4.565,8.962l58.201,42.3
			c3.896,2.833,9.131,2.831,13.027,0l58.201-42.3c2.858-2.077,4.565-5.428,4.565-8.962V15.582H40.787z"/>
	</g>
	<g>
		<path class="st4" d="M143.501,143.565c-24.498,24.498-33.929,58.346-28.316,90.055c1.152,6.51,6.299,11.657,12.81,12.81
			c31.709,5.613,65.557-3.818,90.055-28.316s33.929-58.346,28.316-90.055c-1.152-6.51-6.299-11.657-12.81-12.81
			C201.847,109.637,167.999,119.068,143.501,143.565z"/>
	</g>
	<g>
		<path class="st7" d="M180.607,155.305c-4.23,4.23-7.02,9.189-8.254,14.031c-0.738,2.896-3.106,5.263-6.001,6.001
			c-4.842,1.234-9.801,4.024-14.031,8.254c-9.764,9.764-11.925,23.433-4.828,30.53s20.766,4.936,30.53-4.828
			c4.23-4.23,7.02-9.189,8.254-14.031c0.738-2.896,3.106-5.263,6.001-6.001c4.842-1.234,9.801-4.024,14.031-8.254
			c9.764-9.764,11.925-23.433,4.828-30.53S190.371,145.542,180.607,155.305z"/>
	</g>
	<g>
		<path class="st0" d="M199.643,158.121l-44.506,44.506c-0.514,0.514-0.798,1.198-0.798,1.925s0.283,1.411,0.797,1.925
			c0.514,0.514,1.198,0.798,1.926,0.798s1.411-0.283,1.925-0.798l44.506-44.506c0.514-0.514,0.798-1.198,0.798-1.925
			s-0.283-1.411-0.797-1.925c-0.514-0.514-1.198-0.798-1.926-0.798S200.157,157.607,199.643,158.121z"/>
	</g>
	<g>
		<path class="st1" d="M157.062,209.276c-1.262,0-2.447-0.491-3.34-1.384c-0.893-0.894-1.383-2.079-1.383-3.34
			s0.491-2.446,1.384-3.339l44.506-44.507c0-0.001,0.001-0.001,0.001-0.002c0.894-0.891,2.079-1.382,3.339-1.382
			s2.445,0.491,3.339,1.382c0.894,0.896,1.384,2.081,1.384,3.342c0,1.263-0.492,2.449-1.385,3.341l-44.505,44.505
			C159.509,208.785,158.323,209.276,157.062,209.276z M201.057,159.535l-44.506,44.507c-0.139,0.139-0.212,0.315-0.212,0.511
			c0,0.196,0.073,0.374,0.213,0.513c0.273,0.275,0.744,0.276,1.021-0.001l44.506-44.507c0.139-0.139,0.212-0.315,0.212-0.511
			c0-0.196-0.073-0.374-0.213-0.513c-0.273-0.273-0.743-0.276-1.022,0.003L201.057,159.535z"/>
	</g>
	<g>
		<path class="st0" d="M143.501,218.114c-10.906-10.906-18.822-23.666-23.756-37.265c-2.8,7.72-4.649,15.707-5.527,23.782
			c4.663,8.851,10.71,17.163,18.156,24.609c7.446,7.446,15.758,13.493,24.609,18.156c8.075-0.878,16.062-2.726,23.782-5.527
			C167.167,236.936,154.407,229.02,143.501,218.114z"/>
	</g>
	<g>
		<path class="st0" d="M218.05,143.565c10.906,10.906,18.822,23.666,23.756,37.265c2.8-7.72,4.649-15.707,5.527-23.782
			c-4.663-8.851-10.71-17.163-18.156-24.609c-7.446-7.446-15.758-13.493-24.609-18.156c-8.075,0.878-16.062,2.726-23.782,5.527
			C194.384,124.743,207.143,132.659,218.05,143.565z"/>
	</g>
	<g>
		<path class="st5" d="M186.043,185.916c0,0.796-0.304,1.592-0.911,2.2c-1.215,1.216-3.186,1.216-4.401,0l-6.676-6.675
			c-1.216-1.214-1.215-3.185,0-4.401c1.215-1.216,3.186-1.216,4.401,0l6.676,6.675C185.739,184.322,186.043,185.119,186.043,185.916
			z"/>
	</g>
	<g>
		<path class="st5" d="M197.17,174.789c0,0.796-0.304,1.593-0.912,2.2c-1.215,1.216-3.186,1.216-4.401,0l-6.676-6.676
			c-1.215-1.214-1.215-3.187,0-4.401c1.215-1.216,3.186-1.216,4.401,0l6.676,6.676C196.866,173.196,197.17,173.993,197.17,174.789z"
			/>
	</g>
	<g>
		<path class="st5" d="M174.917,197.043c0,0.796-0.304,1.593-0.912,2.2c-1.215,1.216-3.186,1.216-4.401,0l-6.676-6.676
			c-1.215-1.214-1.215-3.187,0-4.401c1.215-1.216,3.186-1.216,4.401,0l6.676,6.676C174.613,195.449,174.917,196.246,174.917,197.043
			z"/>
	</g>
	<g>
		<path class="st5" d="M163.79,208.17c0,0.796-0.304,1.593-0.912,2.2c-1.215,1.216-3.186,1.216-4.401,0l-6.676-6.676
			c-1.215-1.214-1.215-3.187,0-4.401c1.215-1.216,3.186-1.216,4.401,0l6.676,6.676C163.486,206.576,163.79,207.373,163.79,208.17z"
			/>
	</g>
	<g>
		<path class="st5" d="M208.296,163.662c0,0.796-0.304,1.592-0.911,2.2c-1.215,1.216-3.186,1.216-4.401,0l-6.676-6.675
			c-1.216-1.214-1.215-3.185,0-4.401c1.215-1.216,3.186-1.216,4.401,0l6.676,6.675C207.992,162.069,208.296,162.866,208.296,163.662
			z"/>
	</g>
	<g>
		<path class="st1" d="M145.813,249.995c-6.041,0-12.115-0.524-18.167-1.596c-7.333-1.299-13.133-7.098-14.431-14.431
			c-5.927-33.487,4.866-67.812,28.871-91.817l0,0c24.006-24.006,58.333-34.799,91.817-28.872
			c7.333,1.298,13.132,7.098,14.431,14.432c5.928,33.486-4.865,67.811-28.871,91.816
			C199.797,239.194,173.198,249.995,145.813,249.995z M144.915,144.979c-23.083,23.083-33.46,56.09-27.761,88.292
			c1.007,5.686,5.503,10.183,11.189,11.188c32.195,5.701,65.208-4.679,88.292-27.761c23.083-23.083,33.461-56.089,27.76-88.291
			c-1.006-5.687-5.503-10.184-11.188-11.189C201.007,111.515,167.999,121.896,144.915,144.979L144.915,144.979z"/>
	</g>
	<g>
		<path class="st1" d="M156.983,249.396c-0.324,0-0.644-0.078-0.932-0.23c-9.228-4.86-17.67-11.089-25.092-18.511
			c-7.421-7.421-13.649-15.863-18.511-25.091c-0.186-0.353-0.262-0.753-0.219-1.148c0.898-8.259,2.794-16.416,5.635-24.247
			c0.287-0.792,1.039-1.318,1.88-1.318l0,0c0.842,0,1.593,0.526,1.88,1.318c5.002,13.788,12.838,26.079,23.29,36.531l0,0
			c10.451,10.452,22.742,18.288,36.532,23.29c0.791,0.287,1.318,1.038,1.318,1.88s-0.526,1.593-1.318,1.88
			c-7.834,2.843-15.992,4.738-24.248,5.635C157.127,249.392,157.056,249.396,156.983,249.396z M116.275,204.239
			c4.632,8.662,10.521,16.595,17.513,23.587c6.993,6.993,14.926,12.883,23.587,17.513c5.928-0.681,11.798-1.896,17.524-3.627
			c-12.254-5.196-23.271-12.643-32.813-22.185l0,0l0,0c-9.541-9.541-16.987-20.559-22.184-32.812
			C118.173,192.44,116.957,198.311,116.275,204.239z"/>
	</g>
	<g>
		<path class="st1" d="M241.806,182.83c-0.842,0-1.593-0.526-1.88-1.318c-5.003-13.79-12.839-26.081-23.29-36.532
			s-22.742-18.287-36.532-23.29c-0.792-0.287-1.318-1.038-1.318-1.88s0.526-1.593,1.318-1.88c7.83-2.841,15.988-4.736,24.248-5.635
			c0.39-0.045,0.795,0.033,1.148,0.219c9.228,4.862,17.669,11.09,25.09,18.511c7.422,7.421,13.649,15.863,18.512,25.091
			c0.186,0.353,0.262,0.753,0.219,1.148c-0.897,8.256-2.793,16.414-5.635,24.248C243.398,182.303,242.647,182.83,241.806,182.83z
			 M186.651,119.967c12.254,5.197,23.271,12.644,32.813,22.185s16.986,20.559,22.184,32.812c1.73-5.726,2.947-11.597,3.628-17.523
			c-4.632-8.662-10.521-16.595-17.514-23.587c-6.992-6.991-14.924-12.881-23.586-17.513
			C198.247,117.021,192.375,118.237,186.651,119.967z"/>
	</g>
	<g>
		<path class="st1" d="M182.932,191.028c-1.365,0-2.649-0.532-3.615-1.498l-6.676-6.676c-0.966-0.964-1.498-2.247-1.497-3.614
			c0-1.364,0.531-2.648,1.496-3.614c0.966-0.966,2.249-1.498,3.615-1.498c1.365,0,2.649,0.532,3.615,1.498l6.676,6.676
			c0.965,0.963,1.497,2.247,1.497,3.614c0,1.364-0.531,2.647-1.496,3.613C185.581,190.496,184.298,191.028,182.932,191.028z
			 M176.255,178.128c-0.297,0-0.575,0.116-0.785,0.326c-0.211,0.21-0.326,0.49-0.326,0.787s0.115,0.575,0.324,0.784l6.677,6.677
			c0.42,0.42,1.152,0.42,1.572,0c0.21-0.21,0.326-0.489,0.326-0.786c0-0.298-0.115-0.576-0.324-0.785l-6.677-6.677
			C176.832,178.244,176.552,178.128,176.255,178.128z"/>
	</g>
	<g>
		<path class="st1" d="M194.058,179.899c-1.309,0-2.617-0.498-3.614-1.495l-6.676-6.677c-0.966-0.965-1.498-2.249-1.497-3.616
			c0-1.365,0.532-2.649,1.498-3.613c0.964-0.965,2.247-1.497,3.613-1.497c1.365,0,2.649,0.532,3.615,1.498l6.676,6.676
			c0.966,0.965,1.497,2.249,1.497,3.614c0,1.367-0.532,2.651-1.499,3.616C196.675,179.401,195.366,179.899,194.058,179.899z
			 M187.382,167.001c-0.297,0-0.575,0.116-0.785,0.326c-0.211,0.21-0.326,0.488-0.326,0.785c0,0.298,0.115,0.577,0.325,0.786
			l6.676,6.678c0.434,0.434,1.139,0.434,1.572,0c0.211-0.211,0.326-0.489,0.326-0.787c0-0.297-0.115-0.576-0.325-0.786l-6.676-6.676
			C187.959,167.117,187.679,167.001,187.382,167.001z"/>
	</g>
	<g>
		<path class="st1" d="M171.804,202.152c-1.309,0-2.618-0.498-3.614-1.495l-6.676-6.677c-0.966-0.965-1.497-2.248-1.497-3.615
			c0-1.366,0.533-2.649,1.499-3.614c0.964-0.965,2.247-1.497,3.613-1.497s2.649,0.532,3.615,1.498l6.675,6.677
			c0.966,0.964,1.498,2.248,1.498,3.614c0,1.365-0.532,2.648-1.498,3.614C174.423,201.654,173.113,202.152,171.804,202.152z
			 M165.129,189.254c-0.297,0-0.575,0.116-0.785,0.326c-0.212,0.211-0.327,0.489-0.327,0.786s0.115,0.576,0.325,0.785l6.676,6.678
			c0.434,0.434,1.14,0.432,1.573,0c0.21-0.211,0.326-0.489,0.326-0.786s-0.115-0.575-0.325-0.785l-6.677-6.678
			C165.704,189.37,165.426,189.254,165.129,189.254z"/>
	</g>
	<g>
		<path class="st1" d="M160.678,213.282c-1.366,0-2.649-0.532-3.615-1.498l-6.675-6.677c-0.966-0.965-1.498-2.249-1.497-3.616
			c0-1.365,0.532-2.649,1.498-3.613c0.964-0.965,2.247-1.497,3.613-1.497c1.365,0,2.649,0.532,3.615,1.498l6.676,6.677
			c0.965,0.963,1.497,2.247,1.497,3.614c0,1.366-0.532,2.65-1.499,3.615C163.327,212.75,162.044,213.282,160.678,213.282z
			 M154.002,200.381c-0.297,0-0.575,0.116-0.785,0.326c-0.211,0.21-0.326,0.488-0.326,0.785c0,0.298,0.115,0.577,0.325,0.786
			l6.676,6.678c0.422,0.42,1.151,0.42,1.571,0c0.212-0.211,0.327-0.489,0.327-0.786c0-0.298-0.115-0.576-0.324-0.785l-6.677-6.678
			C154.579,200.497,154.299,200.381,154.002,200.381z"/>
	</g>
	<g>
		<path class="st1" d="M205.185,168.774c-1.366,0-2.649-0.532-3.615-1.498l-6.675-6.675c-0.966-0.964-1.498-2.247-1.498-3.613
			s0.531-2.65,1.497-3.615c1.993-1.994,5.238-1.994,7.229,0l6.676,6.675c0.966,0.966,1.498,2.249,1.498,3.614
			s-0.532,2.648-1.498,3.614C207.834,168.242,206.551,168.774,205.185,168.774z M198.509,155.875c-0.298,0-0.577,0.116-0.787,0.326
			s-0.325,0.489-0.325,0.786s0.115,0.575,0.325,0.785l6.677,6.676c0.422,0.42,1.151,0.42,1.571,0
			c0.211-0.211,0.327-0.489,0.327-0.786s-0.116-0.575-0.326-0.786l-6.676-6.675C199.085,155.991,198.806,155.875,198.509,155.875z"
			/>
	</g>
	<g>
		<path class="st6" d="M148.326,103.836c0,2.732-0.674,5.689-2.02,8.87c-1.346,3.182-3.465,6.304-6.351,9.367
			c-2.89,3.064-6.578,5.553-11.065,7.465c-4.489,1.912-9.719,2.869-15.69,2.869c-4.529,0-8.646-0.43-12.354-1.288
			s-7.074-2.196-10.099-4.01c-3.025-1.815-5.807-4.205-8.343-7.172c-2.264-2.693-4.196-5.708-5.796-9.045
			c-1.601-3.337-2.802-6.898-3.601-10.685c-0.8-3.785-1.199-7.806-1.199-12.06c0-6.908,1.005-13.094,3.014-18.559
			c2.011-5.464,4.888-10.138,8.636-14.022c3.747-3.883,8.138-6.84,13.173-8.87c5.034-2.029,10.401-3.044,16.1-3.044
			c6.946,0,13.132,1.386,18.558,4.157c5.426,2.772,9.581,6.197,12.471,10.275c2.888,4.079,4.331,7.933,4.331,11.563
			c0,1.991-0.701,3.747-2.107,5.269c-1.405,1.522-3.104,2.283-5.093,2.283c-2.225,0-3.894-0.527-5.005-1.581
			c-1.112-1.054-2.352-2.869-3.718-5.445c-2.264-4.254-4.928-7.435-7.992-9.543c-3.064-2.108-6.84-3.161-11.328-3.161
			c-7.142,0-12.832,2.713-17.066,8.138c-4.234,5.426-6.351,13.134-6.351,23.126c0,6.674,0.936,12.227,2.811,16.656
			c1.873,4.43,4.526,7.738,7.962,9.923c3.433,2.186,7.455,3.279,12.059,3.279c4.996,0,9.221-1.239,12.676-3.718
			c3.454-2.478,6.059-6.118,7.816-10.919c0.741-2.263,1.657-4.107,2.752-5.533c1.091-1.424,2.849-2.137,5.269-2.137
			c2.067,0,3.843,0.723,5.327,2.166C147.584,99.895,148.326,101.69,148.326,103.836z"/>
	</g>
</g>
</svg>
