<?xml version="1.0" encoding="utf-8"?>
<!-- Generator: Adobe Illustrator 22.1.0, SVG Export Plug-In . SVG Version: 6.00 Build 0)  -->
<svg version="1.1" id="Layer_1" xmlns="http://www.w3.org/2000/svg" xmlns:xlink="http://www.w3.org/1999/xlink" x="0px" y="0px"
	 viewBox="0 0 256 256" style="enable-background:new 0 0 256 256;" xml:space="preserve">
<style type="text/css">
	.st0{fill:#E0EBFC;}
	.st1{fill:#3762CC;}
	.st2{fill:#4671C6;}
	.st3{fill:#6BDDDD;}
	.st4{fill:#F9A7A7;}
	.st5{fill:#A4C9FF;}
	.st6{fill:#FFEA92;}
	.st7{fill:#F9CFCF;}
	.st8{fill:#FFE164;}
	.st9{fill:#FFDC85;}
	.st10{fill:#FFEA94;}
	.st11{fill:#B9BEFC;}
	.st12{fill:#EAA97D;}
</style>
<g>
	<g>
		<path class="st0" d="M194,195.333H62c-4.971,0-9-4.029-9-9V17c0-4.971,4.029-9,9-9h132c4.971,0,9,4.029,9,9v169.333
			C203,191.304,198.971,195.333,194,195.333z"/>
	</g>
	<g>
		<path class="st5" d="M184,39.875h-81.5c-2.761,0-5-2.239-5-5v0c0-2.761,2.239-5,5-5H184c2.761,0,5,2.239,5,5v0
			C189,37.636,186.761,39.875,184,39.875z"/>
	</g>
	<g>
		<path class="st5" d="M82,43.875H70c-1.657,0-3-1.343-3-3v-12c0-1.657,1.343-3,3-3h12c1.657,0,3,1.343,3,3v12
			C85,42.532,83.657,43.875,82,43.875z"/>
	</g>
	<g>
		<path class="st5" d="M184,73.875h-81.5c-2.761,0-5-2.239-5-5v0c0-2.761,2.239-5,5-5H184c2.761,0,5,2.239,5,5v0
			C189,71.636,186.761,73.875,184,73.875z"/>
	</g>
	<g>
		<path class="st5" d="M82,77.875H70c-1.657,0-3-1.343-3-3v-12c0-1.657,1.343-3,3-3h12c1.657,0,3,1.343,3,3v12
			C85,76.532,83.657,77.875,82,77.875z"/>
	</g>
	<g>
		<path class="st5" d="M184,107.875h-81.5c-2.761,0-5-2.239-5-5v0c0-2.761,2.239-5,5-5H184c2.761,0,5,2.239,5,5v0
			C189,105.636,186.761,107.875,184,107.875z"/>
	</g>
	<g>
		<path class="st7" d="M75.821,39.875c-0.004,0-0.007,0-0.01,0c-1.016-0.003-1.974-0.499-2.561-1.328l-4.321-6.086
			c-0.672-0.947-0.45-2.259,0.497-2.931c0.947-0.673,2.259-0.449,2.931,0.497l3.469,4.887l9.075-12.616
			c0.678-0.943,1.992-1.157,2.934-0.479c0.942,0.678,1.157,1.991,0.479,2.934l-9.934,13.81
			C77.789,39.385,76.833,39.875,75.821,39.875z"/>
	</g>
	<g>
		<path class="st7" d="M75.821,74.997c-0.004,0-0.007,0-0.01,0c-1.016-0.003-1.974-0.499-2.561-1.328l-4.321-6.086
			c-0.672-0.947-0.45-2.259,0.497-2.931c0.947-0.673,2.259-0.449,2.931,0.497l3.469,4.887l9.075-12.616
			c0.678-0.943,1.992-1.157,2.934-0.479c0.942,0.678,1.157,1.991,0.479,2.934l-9.934,13.81
			C77.789,74.506,76.833,74.997,75.821,74.997z"/>
	</g>
	<g>
		<path class="st1" d="M194,197.333H62c-6.065,0-11-4.935-11-11V17c0-6.065,4.935-11,11-11h132c6.065,0,11,4.935,11,11v169.333
			C205,192.399,200.065,197.333,194,197.333z M62,10c-3.859,0-7,3.14-7,7v169.333c0,3.86,3.141,7,7,7h132c3.859,0,7-3.14,7-7V17
			c0-3.86-3.141-7-7-7H62z"/>
	</g>
	<g>
		<path class="st4" d="M101.753,108.299l-10.95-19.018c-1.274-2.212-3.632-3.576-6.185-3.576H39.774
			c-3.942,0-7.137,3.196-7.137,7.137v19.033v111.026c0,3.942,3.196,7.137,7.137,7.137h176.451c3.942,0,7.137-3.195,7.137-7.137
			V119.012c0-3.942-3.195-7.137-7.137-7.137H107.939C105.386,111.875,103.027,110.511,101.753,108.299z"/>
	</g>
	<g>
		<path class="st1" d="M216.226,232.038H39.774c-5.038,0-9.138-4.099-9.138-9.137V92.842c0-5.038,4.1-9.137,9.138-9.137h44.844
			c3.258,0,6.292,1.754,7.919,4.578l10.949,19.018v0c0.914,1.588,2.62,2.575,4.452,2.575h108.287c5.038,0,9.138,4.099,9.138,9.137
			v103.889C225.363,227.939,221.264,232.038,216.226,232.038z M39.774,87.705c-2.833,0-5.138,2.305-5.138,5.137v130.059
			c0,2.833,2.305,5.137,5.138,5.137h176.451c2.833,0,5.138-2.305,5.138-5.137V119.012c0-2.833-2.305-5.137-5.138-5.137H107.938
			c-3.258,0-6.292-1.754-7.919-4.578c0,0,0,0,0,0L89.07,90.279c-0.914-1.588-2.62-2.574-4.452-2.574H39.774z"/>
	</g>
	<g>
		<path class="st6" d="M201.385,200.285c0-12.231,0-22.648,0-33.02l-4.879,1.874c0,12.029,0,24.05,0,31.145
			c-1.736,0.889-2.927,2.692-2.927,4.777v12.848h10.734v-12.848C204.313,202.976,203.121,201.173,201.385,200.285z"/>
	</g>
	<g>
		<path class="st2" d="M123.622,134.312l-69.977,26.882c-2.61,1.003-2.61,4.696,0,5.698l69.977,26.882
			c2.818,1.083,5.938,1.083,8.756,0l69.977-26.882c2.61-1.003,2.61-4.696,0-5.698l-69.977-26.882
			C129.56,133.229,126.44,133.229,123.622,134.312z"/>
	</g>
	<g>
		<path class="st1" d="M128,196.587c-1.727,0-3.452-0.315-5.095-0.946l-69.977-26.882c-1.969-0.757-3.241-2.608-3.241-4.717
			s1.272-3.96,3.241-4.716l69.977-26.882l-0.001,0c3.287-1.263,6.904-1.263,10.191,0l69.976,26.881
			c1.969,0.756,3.241,2.607,3.241,4.716s-1.272,3.96-3.24,4.717l-69.978,26.882C131.452,196.272,129.727,196.587,128,196.587z
			 M128,135.499c-1.24,0-2.48,0.227-3.66,0.68l-0.001,0l-69.977,26.882c-0.608,0.234-0.675,0.764-0.675,0.981
			c0,0.218,0.066,0.749,0.676,0.982l69.976,26.882c2.361,0.907,4.961,0.907,7.322,0l69.977-26.882
			c0.608-0.234,0.675-0.765,0.675-0.982c0-0.217-0.066-0.748-0.675-0.981l-69.977-26.882C130.48,135.726,129.24,135.499,128,135.499
			z M123.622,134.312h0.01H123.622z"/>
	</g>
	<g>
		<path class="st2" d="M172.749,199.959H83.542c-1.121,0-2.03-0.909-2.03-2.03v-27.981c0-1.121,0.909-2.03,2.03-2.03h89.207
			c1.121,0,2.03,0.909,2.03,2.03v27.981C174.779,199.05,173.87,199.959,172.749,199.959z"/>
	</g>
	<g>
		<path class="st1" d="M172.749,201.958H83.542c-2.223,0-4.031-1.808-4.031-4.03v-27.98c0-2.223,1.809-4.031,4.031-4.031h89.207
			c2.223,0,4.03,1.808,4.03,4.031v27.98C176.779,200.15,174.972,201.958,172.749,201.958z M83.542,169.917l-0.031,28.011
			l89.238,0.03c0.017,0,0.03-0.014,0.03-0.03v-27.98L83.542,169.917z"/>
	</g>
	<g>
		<circle class="st3" cx="128" cy="213" r="35"/>
	</g>
	<g>
		<path class="st6" d="M128,238.962c-14.315,0-25.962-11.646-25.962-25.962c0-14.315,11.647-25.962,25.962-25.962
			s25.961,11.646,25.961,25.962C153.961,227.315,142.315,238.962,128,238.962z"/>
	</g>
	<g>
		<path class="st1" d="M128,250c-20.402,0-37-16.598-37-37s16.598-37,37-37s37,16.598,37,37S148.402,250,128,250z M128,180
			c-18.196,0-33,14.804-33,33s14.804,33,33,33s33-14.804,33-33S146.196,180,128,180z"/>
	</g>
	<g>
		<path class="st4" d="M121.766,233.153c-0.007,0-0.013,0-0.02,0c-2.032-0.006-3.947-0.999-5.122-2.656l-8.641-12.171
			c-1.343-1.893-0.899-4.517,0.994-5.861c1.895-1.345,4.518-0.897,5.861,0.994l6.939,9.773L139.927,198
			c1.356-1.885,3.983-2.313,5.867-0.958c1.884,1.356,2.313,3.983,0.958,5.867l-19.867,27.62
			C125.703,232.173,123.79,233.153,121.766,233.153z"/>
	</g>
</g>
</svg>
