<?xml version="1.0" encoding="utf-8"?>
<!-- Generator: Adobe Illustrator 22.1.0, SVG Export Plug-In . SVG Version: 6.00 Build 0)  -->
<svg version="1.1" id="Layer_1" xmlns="http://www.w3.org/2000/svg" xmlns:xlink="http://www.w3.org/1999/xlink" x="0px" y="0px"
	 viewBox="0 0 256 256" style="enable-background:new 0 0 256 256;" xml:space="preserve">
<style type="text/css">
	.st0{fill:#E0EBFC;}
	.st1{fill:#3762CC;}
	.st2{fill:#4671C6;}
	.st3{fill:#6BDDDD;}
	.st4{fill:#F9A7A7;}
	.st5{fill:#A4C9FF;}
	.st6{fill:#FFEA92;}
	.st7{fill:#F9CFCF;}
	.st8{fill:#FFE164;}
	.st9{fill:#FFDC85;}
	.st10{fill:#FFEA94;}
	.st11{fill:#B9BEFC;}
	.st12{fill:#EAA97D;}
</style>
<g>
	<g>
		<g>
			<path class="st6" d="M161.573,82.231c0-13.3,0-23.557,0-35.361l-3.426,1.316c0,11.377,0,26.583,0,34.045
				c-1.219,0.624-2.056,1.891-2.056,3.354v9.022h7.538v-9.022C163.628,84.121,162.792,82.855,161.573,82.231z"/>
		</g>
		<g>
			<path class="st2" d="M81.35,13.625L9.996,41.036c-2.662,1.022-2.662,4.788,0,5.811L81.35,74.258c2.874,1.104,6.055,1.104,8.929,0
				l71.354-27.411c2.662-1.022,2.662-4.788,0-5.811L90.278,13.625C87.405,12.522,84.224,12.522,81.35,13.625z"/>
		</g>
		<g>
			<path class="st1" d="M85.813,77.087c-1.755,0-3.511-0.321-5.181-0.962L9.279,48.714C7.287,47.948,6,46.075,6,43.941
				s1.287-4.007,3.278-4.772l71.354-27.411c3.339-1.283,7.021-1.283,10.362,0l71.354,27.411c1.992,0.765,3.28,2.639,3.28,4.772
				s-1.288,4.007-3.28,4.772L90.995,76.125C89.325,76.767,87.569,77.087,85.813,77.087z M82.066,15.493L10.713,42.903
				C10.069,43.15,10,43.711,10,43.941s0.069,0.791,0.714,1.039l71.353,27.411c2.418,0.929,5.079,0.927,7.495,0l71.354-27.411
				c0.644-0.247,0.714-0.808,0.714-1.038s-0.07-0.791-0.714-1.038L89.562,15.493C87.145,14.564,84.485,14.564,82.066,15.493
				L82.066,15.493z"/>
		</g>
		<g>
			<path class="st2" d="M129.688,48.725H42.236c-0.8,0-1.448,0.648-1.448,1.448v21.592c0,4.766,20.225,8.63,45.173,8.63
				s45.173-3.864,45.173-8.63h0.001V50.174C131.136,49.374,130.488,48.725,129.688,48.725z"/>
		</g>
		<g>
			<path class="st1" d="M85.962,82.396c-1.926,0-47.174-0.121-47.174-10.63V50.173c0-1.901,1.547-3.448,3.448-3.448h87.451
				c1.901,0,3.448,1.547,3.448,3.448v21.592C133.134,82.275,87.888,82.396,85.962,82.396z M42.788,50.726v21.04
				c0.881,2.33,16.073,6.63,43.174,6.63s42.293-4.3,43.184-6.707l-0.01-20.963H42.788z M129.688,50.726h0.01H129.688z"/>
		</g>
	</g>
	<g>
		<g>
			<g>
				<path class="st4" d="M219.843,126.503h-73.952v116.7h73.952c1.733,0,3.137-1.404,3.137-3.137V129.64
					C222.98,127.907,221.576,126.503,219.843,126.503z"/>
			</g>
			<g>
				<path class="st7" d="M210.45,173.756h-52.029c-1.854,0-3.357-1.503-3.357-3.357v-24.056c0-1.854,1.503-3.357,3.357-3.357h52.029
					c1.854,0,3.357,1.503,3.357,3.357v24.056C213.807,172.253,212.304,173.756,210.45,173.756z"/>
			</g>
			<g>
				<path class="st2" d="M145.891,243.202h-15.288c-2.472,0-4.476-2.004-4.476-4.476V130.978c0-2.472,2.004-4.476,4.476-4.476
					h15.288V243.202z"/>
			</g>
			<g>
				<path class="st1" d="M145.892,245.203h-15.288c-3.57,0-6.476-2.905-6.476-6.476V130.978c0-3.571,2.905-6.476,6.476-6.476h15.288
					c1.104,0,2,0.896,2,2v116.7C147.892,244.307,146.996,245.203,145.892,245.203z M130.604,128.502
					c-1.365,0-2.476,1.11-2.476,2.476v107.749c0,1.365,1.11,2.476,2.476,2.476h13.288v-112.7H130.604z"/>
			</g>
			<g>
				<path class="st1" d="M219.843,245.203h-73.951c-1.104,0-2-0.896-2-2v-116.7c0-1.104,0.896-2,2-2h73.951
					c2.833,0,5.138,2.305,5.138,5.137v110.426C224.98,242.898,222.676,245.203,219.843,245.203z M147.892,241.203h71.951
					c0.627,0,1.138-0.51,1.138-1.137V129.64c0-0.627-0.511-1.137-1.138-1.137h-71.951V241.203z"/>
			</g>
		</g>
		<g>
			<g>
				<path class="st7" d="M248,212.609v-63.596l-8.177-11.854c-0.28-0.406-1.005-0.406-1.285,0l-8.177,11.854l0,63.596H248z"/>
			</g>
			<g>
				<path class="st3" d="M234.894,212.609V151.58c-1.585,0-2.875-2.778-4.533-2.538v63.567H234.894z"/>
			</g>
			<g>
				<path class="st3" d="M243.467,212.609V151.58c-0.834,0-1.072-0.42-3.381-2.269c-1.727-1.382-3.472,2.269-5.191,2.269v61.029
					H243.467z"/>
			</g>
			<g>
				<path class="st3" d="M248,212.609v-63.567c-1.658-0.241-2.949,2.538-4.533,2.538v61.029H248z"/>
			</g>
			<g>
				<rect x="230.36" y="212.609" class="st0" width="17.64" height="6.723"/>
			</g>
			<g>
				<path class="st4" d="M244.233,232.851h-10.105c-2.081,0-3.767-1.687-3.767-3.767v-9.752H248v9.752
					C248,231.164,246.313,232.851,244.233,232.851z"/>
			</g>
			<g>
				<path class="st1" d="M248,221.332h-17.64c-1.104,0-2-0.896-2-2v-6.723c0-1.104,0.896-2,2-2H248c1.104,0,2,0.896,2,2v6.723
					C250,220.437,249.104,221.332,248,221.332z M232.36,217.332H246v-2.723h-13.64V217.332z"/>
			</g>
			<g>
				<path class="st1" d="M244.233,234.851h-10.105c-3.181,0-5.768-2.587-5.768-5.767v-9.752c0-1.104,0.896-2,2-2H248
					c1.104,0,2,0.896,2,2v9.752C250,232.264,247.413,234.851,244.233,234.851z M232.36,221.332v7.752
					c0,0.975,0.793,1.767,1.768,1.767h10.105c0.974,0,1.767-0.792,1.767-1.767v-7.752H232.36z"/>
			</g>
			<g>
				<path class="st2" d="M244.56,144.026l-4.737-6.867c-0.28-0.406-1.005-0.406-1.285,0l-4.737,6.867H244.56z"/>
			</g>
			<g>
				<path class="st1" d="M248,214.609h-17.64c-1.104,0-2-0.896-2-2v-63.596c0-0.406,0.123-0.802,0.354-1.136l8.178-11.854
					c0.505-0.732,1.36-1.169,2.289-1.169c0.001,0,0.001,0,0.002,0c0.929,0.001,1.784,0.439,2.288,1.172l8.176,11.851
					c0.23,0.334,0.354,0.73,0.354,1.136v63.596C250,213.713,249.104,214.609,248,214.609z M232.36,210.609H246v-60.973l-6.82-9.886
					l-6.819,9.886V210.609z M238.176,138.294c0.001,0.001,0.002,0.002,0.003,0.003L238.176,138.294z"/>
			</g>
		</g>
	</g>
	<g>
		<path class="st5" d="M106.892,147.446H77.508c-1.103,0-2-0.897-2-2v-33.895h4.173c1.835,0,2.931-2.042,1.917-3.571l-8.173-12.322
			c-0.91-1.372-2.924-1.372-3.833,0l-8.173,12.322c-1.014,1.529,0.082,3.571,1.917,3.571h4.173v33.895c0,5.514,4.486,10,10,10
			h29.384c2.209,0,4-1.791,4-4S109.101,147.446,106.892,147.446z"/>
	</g>
	<g>
		<path class="st5" d="M174.616,59.521H204c1.103,0,2,0.897,2,2v33.895h-4.173c-1.835,0-2.931,2.042-1.917,3.571l8.173,12.322
			c0.91,1.372,2.924,1.372,3.833,0l8.173-12.322c1.014-1.529-0.082-3.571-1.917-3.571H214V61.521c0-5.514-4.486-10-10-10h-29.384
			c-2.209,0-4,1.791-4,4S172.407,59.521,174.616,59.521z"/>
	</g>
</g>
</svg>
