<?xml version="1.0" encoding="utf-8"?>
<!-- Generator: Adobe Illustrator 22.1.0, SVG Export Plug-In . SVG Version: 6.00 Build 0)  -->
<svg version="1.1" id="Layer_1" xmlns="http://www.w3.org/2000/svg" xmlns:xlink="http://www.w3.org/1999/xlink" x="0px" y="0px"
	 viewBox="0 0 256 256" style="enable-background:new 0 0 256 256;" xml:space="preserve">
<style type="text/css">
	.st0{fill:#E0EBFC;}
	.st1{fill:#3762CC;}
	.st2{fill:#4671C6;}
	.st3{fill:#6BDDDD;}
	.st4{fill:#F9A7A7;}
	.st5{fill:#A4C9FF;}
	.st6{fill:#FFEA92;}
	.st7{fill:#F9CFCF;}
	.st8{fill:#FFE164;}
	.st9{fill:#FFDC85;}
	.st10{fill:#FFEA94;}
	.st11{fill:#B9BEFC;}
	.st12{fill:#EAA97D;}
</style>
<g>
	<g>
		<circle class="st5" cx="146.006" cy="172" r="26"/>
	</g>
	<g>
		<path class="st2" d="M161.484,178.395c0,1.105-0.272,2.302-0.817,3.588c-0.544,1.287-1.401,2.55-2.57,3.789
			c-1.168,1.24-2.661,2.246-4.476,3.02c-1.816,0.773-3.932,1.16-6.347,1.16c-1.832,0-3.498-0.174-4.997-0.521
			c-1.5-0.347-2.862-0.888-4.085-1.622c-1.224-0.734-2.349-1.701-3.375-2.901c-0.916-1.089-1.698-2.309-2.345-3.659
			c-0.648-1.35-1.133-2.791-1.457-4.322c-0.324-1.531-0.486-3.158-0.486-4.879c0-2.795,0.407-5.297,1.22-7.508
			c0.813-2.21,1.978-4.101,3.494-5.672s3.292-2.767,5.329-3.588c2.037-0.821,4.208-1.232,6.513-1.232
			c2.81,0,5.313,0.561,7.508,1.682c2.194,1.121,3.876,2.507,5.044,4.156c1.168,1.65,1.752,3.209,1.752,4.677
			c0,0.805-0.284,1.516-0.853,2.132s-1.255,0.924-2.061,0.924c-0.9,0-1.575-0.213-2.025-0.639c-0.45-0.426-0.951-1.16-1.504-2.203
			c-0.916-1.721-1.993-3.008-3.232-3.86c-1.24-0.853-2.768-1.279-4.583-1.279c-2.89,0-5.191,1.098-6.904,3.292
			c-1.713,2.195-2.57,5.313-2.57,9.355c0,2.7,0.379,4.946,1.137,6.738c0.758,1.792,1.832,3.13,3.221,4.014
			c1.389,0.884,3.016,1.326,4.879,1.326c2.021,0,3.73-0.501,5.127-1.504c1.397-1.002,2.451-2.475,3.162-4.417
			c0.3-0.916,0.671-1.662,1.113-2.238c0.442-0.576,1.152-0.865,2.131-0.865c0.837,0,1.555,0.292,2.155,0.876
			C161.184,176.8,161.484,177.526,161.484,178.395z"/>
	</g>
	<g>
		<path class="st1" d="M146.007,200c-15.439,0-28-12.561-28-28s12.561-28,28-28s28,12.561,28,28S161.446,200,146.007,200z
			 M146.007,148c-13.234,0-24,10.766-24,24s10.766,24,24,24c13.233,0,24-10.766,24-24S159.24,148,146.007,148z"/>
	</g>
	<g>
		<path class="st2" d="M223.85,215.411v26.838c0,3.176-2.575,5.751-5.751,5.751H37.901c-3.176,0-5.751-2.575-5.751-5.751v-26.838
			c0-3.176,2.575-5.751,5.751-5.751h180.197C221.275,209.66,223.85,212.235,223.85,215.411z"/>
	</g>
	<g>
		<path class="st5" d="M168.904,228.83L168.904,228.83c0,4.764-3.862,8.626-8.626,8.626H62.979c-4.764,0-8.626-3.862-8.626-8.626v0
			c0-4.764,3.862-8.626,8.626-8.626h97.299C165.042,220.204,168.904,224.066,168.904,228.83z"/>
	</g>
	<g>
		
			<rect x="177.172" y="221.193" transform="matrix(6.123234e-17 -1 1 6.123234e-17 -32.4881 425.172)" class="st3" width="38.34" height="15.274"/>
	</g>
	<g>
		<path class="st1" d="M218.099,250H37.901c-4.274,0-7.751-3.477-7.751-7.751v-26.838c0-4.274,3.477-7.751,7.751-7.751h180.197
			c4.273,0,7.751,3.477,7.751,7.751v26.838C225.85,246.523,222.372,250,218.099,250z M37.901,211.66
			c-2.068,0-3.751,1.683-3.751,3.751v26.838c0,2.068,1.683,3.751,3.751,3.751h180.197c2.068,0,3.751-1.683,3.751-3.751v-26.838
			c0-2.068-1.683-3.751-3.751-3.751H37.901z"/>
	</g>
	<g>
		<path class="st3" d="M223.85,177.071v26.838c0,3.176-2.575,5.751-5.751,5.751H37.901c-3.176,0-5.751-2.575-5.751-5.751v-26.838
			c0-3.176,2.575-5.751,5.751-5.751h180.197C221.275,171.32,223.85,173.895,223.85,177.071z"/>
	</g>
	<g>
		<path class="st0" d="M168.904,190.49L168.904,190.49c0,4.764-3.862,8.626-8.626,8.626H62.979c-4.764,0-8.626-3.862-8.626-8.626v0
			c0-4.764,3.862-8.626,8.626-8.626h97.299C165.042,181.864,168.904,185.726,168.904,190.49z"/>
	</g>
	<g>
		
			<rect x="177.172" y="182.853" transform="matrix(6.123234e-17 -1 1 6.123234e-17 5.8517 386.8322)" class="st4" width="38.34" height="15.274"/>
	</g>
	<g>
		<path class="st1" d="M218.099,211.66H37.901c-4.274,0-7.751-3.477-7.751-7.751v-26.838c0-4.274,3.477-7.751,7.751-7.751h180.197
			c4.273,0,7.751,3.477,7.751,7.751v26.838C225.85,208.183,222.372,211.66,218.099,211.66z M37.901,173.32
			c-2.068,0-3.751,1.683-3.751,3.751v26.838c0,2.068,1.683,3.751,3.751,3.751h180.197c2.068,0,3.751-1.683,3.751-3.751v-26.838
			c0-2.068-1.683-3.751-3.751-3.751H37.901z"/>
	</g>
	<g>
		<circle class="st5" cx="146.006" cy="42" r="26"/>
	</g>
	<g>
		<path class="st2" d="M161.484,48.395c0,1.105-0.272,2.302-0.817,3.588c-0.544,1.287-1.401,2.55-2.57,3.789
			c-1.168,1.24-2.661,2.246-4.476,3.02c-1.816,0.773-3.932,1.16-6.347,1.16c-1.832,0-3.498-0.174-4.997-0.521
			c-1.5-0.347-2.862-0.888-4.085-1.622c-1.224-0.734-2.349-1.701-3.375-2.901c-0.916-1.089-1.698-2.309-2.345-3.659
			c-0.648-1.35-1.133-2.791-1.457-4.322c-0.324-1.531-0.486-3.158-0.486-4.879c0-2.795,0.407-5.297,1.22-7.508
			c0.813-2.21,1.978-4.101,3.494-5.672s3.292-2.767,5.329-3.588c2.037-0.821,4.208-1.232,6.513-1.232
			c2.81,0,5.313,0.561,7.508,1.682c2.194,1.121,3.876,2.507,5.044,4.156c1.168,1.65,1.752,3.209,1.752,4.677
			c0,0.805-0.284,1.516-0.853,2.132s-1.255,0.924-2.061,0.924c-0.9,0-1.575-0.213-2.025-0.639c-0.45-0.426-0.951-1.16-1.504-2.203
			c-0.916-1.721-1.993-3.008-3.232-3.86c-1.24-0.853-2.768-1.279-4.583-1.279c-2.89,0-5.191,1.098-6.904,3.292
			c-1.713,2.195-2.57,5.313-2.57,9.355c0,2.7,0.379,4.946,1.137,6.738c0.758,1.792,1.832,3.13,3.221,4.014
			c1.389,0.884,3.016,1.326,4.879,1.326c2.021,0,3.73-0.501,5.127-1.504c1.397-1.002,2.451-2.475,3.162-4.417
			c0.3-0.916,0.671-1.662,1.113-2.238c0.442-0.576,1.152-0.865,2.131-0.865c0.837,0,1.555,0.292,2.155,0.876
			C161.184,46.8,161.484,47.526,161.484,48.395z"/>
	</g>
	<g>
		<circle class="st5" cx="88.731" cy="106.66" r="26"/>
	</g>
	<g>
		<path class="st2" d="M104.208,113.055c0,1.105-0.272,2.302-0.817,3.588c-0.544,1.287-1.401,2.55-2.57,3.789
			c-1.168,1.24-2.661,2.246-4.476,3.02c-1.816,0.773-3.932,1.16-6.347,1.16c-1.832,0-3.498-0.174-4.997-0.521
			c-1.5-0.347-2.862-0.888-4.085-1.622c-1.224-0.734-2.349-1.701-3.375-2.901c-0.916-1.089-1.698-2.309-2.345-3.659
			c-0.648-1.35-1.133-2.791-1.457-4.322c-0.324-1.531-0.486-3.158-0.486-4.879c0-2.795,0.407-5.297,1.22-7.508
			c0.813-2.21,1.978-4.101,3.494-5.672s3.292-2.767,5.329-3.588c2.037-0.821,4.208-1.232,6.513-1.232
			c2.81,0,5.313,0.561,7.508,1.682c2.194,1.121,3.876,2.507,5.044,4.156c1.168,1.65,1.752,3.209,1.752,4.677
			c0,0.805-0.284,1.516-0.853,2.132s-1.255,0.924-2.061,0.924c-0.9,0-1.575-0.213-2.025-0.639c-0.45-0.426-0.951-1.16-1.504-2.203
			c-0.916-1.721-1.993-3.008-3.232-3.86c-1.24-0.853-2.768-1.279-4.583-1.279c-2.89,0-5.191,1.098-6.904,3.292
			c-1.713,2.195-2.57,5.313-2.57,9.355c0,2.7,0.379,4.946,1.137,6.738c0.758,1.792,1.832,3.13,3.221,4.014
			c1.389,0.884,3.016,1.326,4.879,1.326c2.021,0,3.73-0.501,5.127-1.504c1.397-1.002,2.451-2.475,3.162-4.417
			c0.3-0.916,0.671-1.662,1.113-2.238c0.442-0.576,1.152-0.865,2.131-0.865c0.837,0,1.555,0.292,2.155,0.876
			C103.908,111.46,104.208,112.187,104.208,113.055z"/>
	</g>
	<g>
		<path class="st0" d="M189.769,108.833L189.769,108.833c-1.933,0-3.5-1.567-3.5-3.5v-63c0-1.933,1.567-3.5,3.5-3.5l0,0
			c1.933,0,3.5,1.567,3.5,3.5v63C193.269,107.266,191.702,108.833,189.769,108.833z"/>
	</g>
	<g>
		<path class="st0" d="M88.731,68L88.731,68c-1.933,0-3.5-1.567-3.5-3.5v-53c0-1.933,1.567-3.5,3.5-3.5h0c1.933,0,3.5,1.567,3.5,3.5
			v53C92.231,66.433,90.664,68,88.731,68z"/>
	</g>
	<g>
		<path class="st0" d="M146.006,131.66L146.006,131.66c-1.933,0-3.5-1.567-3.5-3.5v-43c0-1.933,1.567-3.5,3.5-3.5h0
			c1.933,0,3.5,1.567,3.5,3.5v43C149.506,130.093,147.939,131.66,146.006,131.66z"/>
	</g>
	<g>
		<path class="st1" d="M146.007,70c-15.439,0-28-12.561-28-28s12.561-28,28-28s28,12.561,28,28S161.446,70,146.007,70z M146.007,18
			c-13.234,0-24,10.766-24,24s10.766,24,24,24c13.233,0,24-10.766,24-24S159.24,18,146.007,18z"/>
	</g>
	<g>
		<path class="st1" d="M88.731,134.66c-15.439,0-28-12.561-28-28s12.561-28,28-28s28,12.561,28,28S104.17,134.66,88.731,134.66z
			 M88.731,82.66c-13.234,0-24,10.766-24,24s10.766,24,24,24s24-10.766,24-24S101.965,82.66,88.731,82.66z"/>
	</g>
</g>
</svg>
