<?xml version="1.0" encoding="utf-8"?>
<!-- Generator: Adobe Illustrator 22.1.0, SVG Export Plug-In . SVG Version: 6.00 Build 0)  -->
<svg version="1.1" id="Layer_1" xmlns="http://www.w3.org/2000/svg" xmlns:xlink="http://www.w3.org/1999/xlink" x="0px" y="0px"
	 viewBox="0 0 256 256" style="enable-background:new 0 0 256 256;" xml:space="preserve">
<style type="text/css">
	.st0{fill:#E0EBFC;}
	.st1{fill:#3762CC;}
	.st2{fill:#4671C6;}
	.st3{fill:#6BDDDD;}
	.st4{fill:#F9A7A7;}
	.st5{fill:#A4C9FF;}
	.st6{fill:#FFEA92;}
	.st7{fill:#F9CFCF;}
	.st8{fill:#FFE164;}
	.st9{fill:#FFDC85;}
	.st10{fill:#FFEA94;}
	.st11{fill:#B9BEFC;}
	.st12{fill:#EAA97D;}
</style>
<g>
	<g>
		<g>
			<path class="st5" d="M190.389,177.74H26.615c-7.455,0-13.498-6.043-13.498-13.498V47.262c0-7.455,6.043-13.498,13.498-13.498
				h163.773c7.455,0,13.498,6.043,13.498,13.498v116.981C203.886,171.697,197.843,177.74,190.389,177.74z"/>
		</g>
		<g>
			<path class="st4" d="M29.315,72.972V58.317c0-3.976,3.223-7.199,7.199-7.199H51.94v21.854H29.315z"/>
		</g>
		<g>
			
				<rect x="52.325" y="50.732" transform="matrix(-1.836970e-16 1 -1 -1.836970e-16 125.297 -1.2072)" class="st4" width="21.854" height="22.625"/>
		</g>
		<g>
			
				<rect x="74.95" y="50.732" transform="matrix(-1.836970e-16 1 -1 -1.836970e-16 147.9219 -23.8321)" class="st4" width="21.854" height="22.625"/>
		</g>
		<g>
			
				<rect x="97.575" y="50.732" transform="matrix(-1.836970e-16 1 -1 -1.836970e-16 170.5468 -46.457)" class="st4" width="21.854" height="22.625"/>
		</g>
		<g>
			
				<rect x="120.2" y="50.732" transform="matrix(-1.836970e-16 1 -1 -1.836970e-16 193.1717 -69.0819)" class="st4" width="21.854" height="22.625"/>
		</g>
		<g>
			
				<rect x="142.825" y="50.732" transform="matrix(-1.836970e-16 1 -1 -1.836970e-16 215.7966 -91.7068)" class="st4" width="21.854" height="22.625"/>
		</g>
		<g>
			<path class="st4" d="M165.064,72.972V51.118h15.426c3.976,0,7.199,3.223,7.199,7.199v14.655H165.064z"/>
		</g>
		<g>
			
				<rect x="29.7" y="72.586" transform="matrix(-1.836970e-16 1 -1 -1.836970e-16 124.5257 43.2713)" class="st0" width="21.854" height="22.625"/>
		</g>
		<g>
			
				<rect x="52.325" y="72.586" transform="matrix(-1.836970e-16 1 -1 -1.836970e-16 147.1506 20.6464)" class="st0" width="21.854" height="22.625"/>
		</g>
		<g>
			
				<rect x="74.95" y="72.586" transform="matrix(-1.836970e-16 1 -1 -1.836970e-16 169.7755 -1.9785)" class="st0" width="21.854" height="22.625"/>
		</g>
		<g>
			
				<rect x="97.575" y="72.586" transform="matrix(-1.836970e-16 1 -1 -1.836970e-16 192.4004 -24.6034)" class="st0" width="21.854" height="22.625"/>
		</g>
		<g>
			
				<rect x="120.2" y="72.586" transform="matrix(-1.836970e-16 1 -1 -1.836970e-16 215.0253 -47.2283)" class="st0" width="21.854" height="22.625"/>
		</g>
		<g>
			
				<rect x="142.825" y="72.586" transform="matrix(-1.836970e-16 1 -1 -1.836970e-16 237.6502 -69.8532)" class="st0" width="21.854" height="22.625"/>
		</g>
		<g>
			
				<rect x="165.45" y="72.586" transform="matrix(-1.836970e-16 1 -1 -1.836970e-16 260.2751 -92.4781)" class="st0" width="21.854" height="22.625"/>
		</g>
		<g>
			
				<rect x="29.7" y="94.44" transform="matrix(-1.836970e-16 1 -1 -1.836970e-16 146.3793 65.1249)" class="st0" width="21.854" height="22.625"/>
		</g>
		<g>
			
				<rect x="52.325" y="94.44" transform="matrix(-1.836970e-16 1 -1 -1.836970e-16 169.0042 42.5)" class="st0" width="21.854" height="22.625"/>
		</g>
		<g>
			
				<rect x="74.95" y="94.44" transform="matrix(-1.836970e-16 1 -1 -1.836970e-16 191.6291 19.8751)" class="st0" width="21.854" height="22.625"/>
		</g>
		<g>
			
				<rect x="97.575" y="94.44" transform="matrix(-1.836970e-16 1 -1 -1.836970e-16 214.254 -2.7498)" class="st0" width="21.854" height="22.625"/>
		</g>
		<g>
			
				<rect x="120.2" y="94.44" transform="matrix(-1.836970e-16 1 -1 -1.836970e-16 236.8789 -25.3747)" class="st0" width="21.854" height="22.625"/>
		</g>
		<g>
			
				<rect x="142.825" y="94.44" transform="matrix(-1.836970e-16 1 -1 -1.836970e-16 259.5038 -47.9996)" class="st0" width="21.854" height="22.625"/>
		</g>
		<g>
			
				<rect x="165.45" y="94.44" transform="matrix(-1.836970e-16 1 -1 -1.836970e-16 282.1287 -70.6245)" class="st0" width="21.854" height="22.625"/>
		</g>
		<g>
			
				<rect x="29.7" y="116.293" transform="matrix(-1.836970e-16 1 -1 -1.836970e-16 168.2329 86.9785)" class="st0" width="21.854" height="22.625"/>
		</g>
		<g>
			
				<rect x="52.325" y="116.293" transform="matrix(-1.836970e-16 1 -1 -1.836970e-16 190.8578 64.3536)" class="st0" width="21.854" height="22.625"/>
		</g>
		<g>
			
				<rect x="74.95" y="116.293" transform="matrix(-1.836970e-16 1 -1 -1.836970e-16 213.4827 41.7287)" class="st0" width="21.854" height="22.625"/>
		</g>
		<g>
			
				<rect x="97.575" y="116.293" transform="matrix(-1.836970e-16 1 -1 -1.836970e-16 236.1076 19.1038)" class="st0" width="21.854" height="22.625"/>
		</g>
		<g>
			
				<rect x="120.2" y="116.293" transform="matrix(-1.836970e-16 1 -1 -1.836970e-16 258.7325 -3.5211)" class="st0" width="21.854" height="22.625"/>
		</g>
		<g>
			
				<rect x="142.825" y="116.293" transform="matrix(-1.836970e-16 1 -1 -1.836970e-16 281.3574 -26.146)" class="st0" width="21.854" height="22.625"/>
		</g>
		<g>
			
				<rect x="165.45" y="116.293" transform="matrix(-1.836970e-16 1 -1 -1.836970e-16 303.9823 -48.7709)" class="st0" width="21.854" height="22.625"/>
		</g>
		<g>
			<path class="st0" d="M29.315,153.187v-14.655H51.94v21.854H36.514C32.538,160.386,29.315,157.163,29.315,153.187z"/>
		</g>
		<g>
			
				<rect x="52.325" y="138.147" transform="matrix(-1.836970e-16 1 -1 -1.836970e-16 212.7114 86.2072)" class="st0" width="21.854" height="22.625"/>
		</g>
		<g>
			
				<rect x="74.95" y="138.147" transform="matrix(-1.836970e-16 1 -1 -1.836970e-16 235.3363 63.5823)" class="st0" width="21.854" height="22.625"/>
		</g>
		<g>
			
				<rect x="97.575" y="138.147" transform="matrix(-1.836970e-16 1 -1 -1.836970e-16 257.9612 40.9574)" class="st0" width="21.854" height="22.625"/>
		</g>
		<g>
			
				<rect x="120.2" y="138.147" transform="matrix(-1.836970e-16 1 -1 -1.836970e-16 280.5861 18.3325)" class="st0" width="21.854" height="22.625"/>
		</g>
		<g>
			
				<rect x="142.825" y="138.147" transform="matrix(-1.836970e-16 1 -1 -1.836970e-16 303.211 -4.2924)" class="st0" width="21.854" height="22.625"/>
		</g>
		<g>
			<path class="st0" d="M165.064,160.386v-21.854h22.625v14.655c0,3.976-3.223,7.199-7.199,7.199H165.064z"/>
		</g>
		<g>
			<path class="st1" d="M51.939,74.972H29.314c-1.104,0-2-0.896-2-2V58.317c0-5.072,4.127-9.199,9.199-9.199h15.426
				c1.104,0,2,0.896,2,2v21.854C53.939,74.076,53.044,74.972,51.939,74.972z M31.314,70.972h18.625V53.118H36.514
				c-2.867,0-5.199,2.332-5.199,5.199V70.972z"/>
		</g>
		<g>
			<path class="st1" d="M74.564,74.972H51.939c-1.104,0-2-0.896-2-2V51.118c0-1.104,0.896-2,2-2h22.625c1.104,0,2,0.896,2,2v21.854
				C76.564,74.076,75.669,74.972,74.564,74.972z M53.939,70.972h18.625V53.118H53.939V70.972z"/>
		</g>
		<g>
			<path class="st1" d="M97.189,74.972H74.564c-1.104,0-2-0.896-2-2V51.118c0-1.104,0.896-2,2-2h22.625c1.104,0,2,0.896,2,2v21.854
				C99.189,74.076,98.294,74.972,97.189,74.972z M76.564,70.972h18.625V53.118H76.564V70.972z"/>
		</g>
		<g>
			<path class="st1" d="M119.814,74.972H97.189c-1.104,0-2-0.896-2-2V51.118c0-1.104,0.896-2,2-2h22.625c1.104,0,2,0.896,2,2v21.854
				C121.814,74.076,120.919,74.972,119.814,74.972z M99.189,70.972h18.625V53.118H99.189V70.972z"/>
		</g>
		<g>
			<path class="st1" d="M142.439,74.972h-22.625c-1.104,0-2-0.896-2-2V51.118c0-1.104,0.896-2,2-2h22.625c1.104,0,2,0.896,2,2
				v21.854C144.439,74.076,143.544,74.972,142.439,74.972z M121.814,70.972h18.625V53.118h-18.625V70.972z"/>
		</g>
		<g>
			<path class="st1" d="M165.064,74.972h-22.625c-1.104,0-2-0.896-2-2V51.118c0-1.104,0.896-2,2-2h22.625c1.104,0,2,0.896,2,2
				v21.854C167.064,74.076,166.169,74.972,165.064,74.972z M144.439,70.972h18.625V53.118h-18.625V70.972z"/>
		</g>
		<g>
			<path class="st1" d="M187.689,74.972h-22.625c-1.104,0-2-0.896-2-2V51.118c0-1.104,0.896-2,2-2h15.426
				c5.072,0,9.199,4.126,9.199,9.199v14.655C189.689,74.076,188.794,74.972,187.689,74.972z M167.064,70.972h18.625V58.317
				c0-2.867-2.332-5.199-5.199-5.199h-13.426V70.972z"/>
		</g>
		<g>
			<path class="st1" d="M51.939,96.825H29.314c-1.104,0-2-0.896-2-2V72.972c0-1.104,0.896-2,2-2h22.625c1.104,0,2,0.896,2,2v21.854
				C53.939,95.93,53.044,96.825,51.939,96.825z M31.314,92.825h18.625V74.972H31.314V92.825z"/>
		</g>
		<g>
			<path class="st1" d="M74.564,96.825H51.939c-1.104,0-2-0.896-2-2V72.972c0-1.104,0.896-2,2-2h22.625c1.104,0,2,0.896,2,2v21.854
				C76.564,95.93,75.669,96.825,74.564,96.825z M53.939,92.825h18.625V74.972H53.939V92.825z"/>
		</g>
		<g>
			<path class="st1" d="M97.189,96.825H74.564c-1.104,0-2-0.896-2-2V72.972c0-1.104,0.896-2,2-2h22.625c1.104,0,2,0.896,2,2v21.854
				C99.189,95.93,98.294,96.825,97.189,96.825z M76.564,92.825h18.625V74.972H76.564V92.825z"/>
		</g>
		<g>
			<path class="st1" d="M119.814,96.825H97.189c-1.104,0-2-0.896-2-2V72.972c0-1.104,0.896-2,2-2h22.625c1.104,0,2,0.896,2,2v21.854
				C121.814,95.93,120.919,96.825,119.814,96.825z M99.189,92.825h18.625V74.972H99.189V92.825z"/>
		</g>
		<g>
			<path class="st1" d="M142.439,96.825h-22.625c-1.104,0-2-0.896-2-2V72.972c0-1.104,0.896-2,2-2h22.625c1.104,0,2,0.896,2,2
				v21.854C144.439,95.93,143.544,96.825,142.439,96.825z M121.814,92.825h18.625V74.972h-18.625V92.825z"/>
		</g>
		<g>
			<path class="st1" d="M165.064,96.825h-22.625c-1.104,0-2-0.896-2-2V72.972c0-1.104,0.896-2,2-2h22.625c1.104,0,2,0.896,2,2
				v21.854C167.064,95.93,166.169,96.825,165.064,96.825z M144.439,92.825h18.625V74.972h-18.625V92.825z"/>
		</g>
		<g>
			<path class="st1" d="M187.689,96.825h-22.625c-1.104,0-2-0.896-2-2V72.972c0-1.104,0.896-2,2-2h22.625c1.104,0,2,0.896,2,2
				v21.854C189.689,95.93,188.794,96.825,187.689,96.825z M167.064,92.825h18.625V74.972h-18.625V92.825z"/>
		</g>
		<g>
			<path class="st1" d="M51.939,118.679H29.314c-1.104,0-2-0.896-2-2V94.825c0-1.104,0.896-2,2-2h22.625c1.104,0,2,0.896,2,2v21.854
				C53.939,117.783,53.044,118.679,51.939,118.679z M31.314,114.679h18.625V96.825H31.314V114.679z"/>
		</g>
		<g>
			<path class="st1" d="M74.564,118.679H51.939c-1.104,0-2-0.896-2-2V94.825c0-1.104,0.896-2,2-2h22.625c1.104,0,2,0.896,2,2v21.854
				C76.564,117.783,75.669,118.679,74.564,118.679z M53.939,114.679h18.625V96.825H53.939V114.679z"/>
		</g>
		<g>
			<path class="st1" d="M97.189,118.679H74.564c-1.104,0-2-0.896-2-2V94.825c0-1.104,0.896-2,2-2h22.625c1.104,0,2,0.896,2,2v21.854
				C99.189,117.783,98.294,118.679,97.189,118.679z M76.564,114.679h18.625V96.825H76.564V114.679z"/>
		</g>
		<g>
			<path class="st1" d="M119.814,118.679H97.189c-1.104,0-2-0.896-2-2V94.825c0-1.104,0.896-2,2-2h22.625c1.104,0,2,0.896,2,2
				v21.854C121.814,117.783,120.919,118.679,119.814,118.679z M99.189,114.679h18.625V96.825H99.189V114.679z"/>
		</g>
		<g>
			<path class="st1" d="M142.439,118.679h-22.625c-1.104,0-2-0.896-2-2V94.825c0-1.104,0.896-2,2-2h22.625c1.104,0,2,0.896,2,2
				v21.854C144.439,117.783,143.544,118.679,142.439,118.679z M121.814,114.679h18.625V96.825h-18.625V114.679z"/>
		</g>
		<g>
			<path class="st1" d="M165.064,118.679h-22.625c-1.104,0-2-0.896-2-2V94.825c0-1.104,0.896-2,2-2h22.625c1.104,0,2,0.896,2,2
				v21.854C167.064,117.783,166.169,118.679,165.064,118.679z M144.439,114.679h18.625V96.825h-18.625V114.679z"/>
		</g>
		<g>
			<path class="st1" d="M187.689,118.679h-22.625c-1.104,0-2-0.896-2-2V94.825c0-1.104,0.896-2,2-2h22.625c1.104,0,2,0.896,2,2
				v21.854C189.689,117.783,188.794,118.679,187.689,118.679z M167.064,114.679h18.625V96.825h-18.625V114.679z"/>
		</g>
		<g>
			<path class="st1" d="M51.939,140.533H29.314c-1.104,0-2-0.896-2-2v-21.854c0-1.104,0.896-2,2-2h22.625c1.104,0,2,0.896,2,2
				v21.854C53.939,139.637,53.044,140.533,51.939,140.533z M31.314,136.533h18.625v-17.854H31.314V136.533z"/>
		</g>
		<g>
			<path class="st1" d="M74.564,140.533H51.939c-1.104,0-2-0.896-2-2v-21.854c0-1.104,0.896-2,2-2h22.625c1.104,0,2,0.896,2,2
				v21.854C76.564,139.637,75.669,140.533,74.564,140.533z M53.939,136.533h18.625v-17.854H53.939V136.533z"/>
		</g>
		<g>
			<path class="st1" d="M97.189,140.533H74.564c-1.104,0-2-0.896-2-2v-21.854c0-1.104,0.896-2,2-2h22.625c1.104,0,2,0.896,2,2
				v21.854C99.189,139.637,98.294,140.533,97.189,140.533z M76.564,136.533h18.625v-17.854H76.564V136.533z"/>
		</g>
		<g>
			<path class="st1" d="M119.814,140.533H97.189c-1.104,0-2-0.896-2-2v-21.854c0-1.104,0.896-2,2-2h22.625c1.104,0,2,0.896,2,2
				v21.854C121.814,139.637,120.919,140.533,119.814,140.533z M99.189,136.533h18.625v-17.854H99.189V136.533z"/>
		</g>
		<g>
			<path class="st1" d="M142.439,140.533h-22.625c-1.104,0-2-0.896-2-2v-21.854c0-1.104,0.896-2,2-2h22.625c1.104,0,2,0.896,2,2
				v21.854C144.439,139.637,143.544,140.533,142.439,140.533z M121.814,136.533h18.625v-17.854h-18.625V136.533z"/>
		</g>
		<g>
			<path class="st1" d="M165.064,140.533h-22.625c-1.104,0-2-0.896-2-2v-21.854c0-1.104,0.896-2,2-2h22.625c1.104,0,2,0.896,2,2
				v21.854C167.064,139.637,166.169,140.533,165.064,140.533z M144.439,136.533h18.625v-17.854h-18.625V136.533z"/>
		</g>
		<g>
			<path class="st1" d="M187.689,140.533h-22.625c-1.104,0-2-0.896-2-2v-21.854c0-1.104,0.896-2,2-2h22.625c1.104,0,2,0.896,2,2
				v21.854C189.689,139.637,188.794,140.533,187.689,140.533z M167.064,136.533h18.625v-17.854h-18.625V136.533z"/>
		</g>
		<g>
			<path class="st1" d="M51.939,162.386H36.514c-5.072,0-9.199-4.126-9.199-9.199v-14.655c0-1.104,0.896-2,2-2h22.625
				c1.104,0,2,0.896,2,2v21.854C53.939,161.491,53.044,162.386,51.939,162.386z M31.314,140.533v12.655
				c0,2.867,2.332,5.199,5.199,5.199h13.426v-17.854H31.314z"/>
		</g>
		<g>
			<path class="st1" d="M74.564,162.386H51.939c-1.104,0-2-0.896-2-2v-21.854c0-1.104,0.896-2,2-2h22.625c1.104,0,2,0.896,2,2
				v21.854C76.564,161.491,75.669,162.386,74.564,162.386z M53.939,158.386h18.625v-17.854H53.939V158.386z"/>
		</g>
		<g>
			<path class="st1" d="M97.189,162.386H74.564c-1.104,0-2-0.896-2-2v-21.854c0-1.104,0.896-2,2-2h22.625c1.104,0,2,0.896,2,2
				v21.854C99.189,161.491,98.294,162.386,97.189,162.386z M76.564,158.386h18.625v-17.854H76.564V158.386z"/>
		</g>
		<g>
			<path class="st1" d="M119.814,162.386H97.189c-1.104,0-2-0.896-2-2v-21.854c0-1.104,0.896-2,2-2h22.625c1.104,0,2,0.896,2,2
				v21.854C121.814,161.491,120.919,162.386,119.814,162.386z M99.189,158.386h18.625v-17.854H99.189V158.386z"/>
		</g>
		<g>
			<path class="st1" d="M142.439,162.386h-22.625c-1.104,0-2-0.896-2-2v-21.854c0-1.104,0.896-2,2-2h22.625c1.104,0,2,0.896,2,2
				v21.854C144.439,161.491,143.544,162.386,142.439,162.386z M121.814,158.386h18.625v-17.854h-18.625V158.386z"/>
		</g>
		<g>
			<path class="st1" d="M165.064,162.386h-22.625c-1.104,0-2-0.896-2-2v-21.854c0-1.104,0.896-2,2-2h22.625c1.104,0,2,0.896,2,2
				v21.854C167.064,161.491,166.169,162.386,165.064,162.386z M144.439,158.386h18.625v-17.854h-18.625V158.386z"/>
		</g>
		<g>
			<path class="st1" d="M180.49,162.386h-15.426c-1.104,0-2-0.896-2-2v-21.854c0-1.104,0.896-2,2-2h22.625c1.104,0,2,0.896,2,2
				v14.655C189.689,158.26,185.563,162.386,180.49,162.386z M167.064,158.386h13.426c2.867,0,5.199-2.332,5.199-5.199v-12.655
				h-18.625V158.386z"/>
		</g>
		<g>
			<path class="st1" d="M190.389,179.74H26.615c-8.546,0-15.498-6.952-15.498-15.498V47.262c0-8.545,6.952-15.498,15.498-15.498
				h163.773c8.546,0,15.498,6.953,15.498,15.498v116.981C205.887,172.788,198.935,179.74,190.389,179.74z M26.615,35.764
				c-6.34,0-11.498,5.158-11.498,11.498v116.981c0,6.34,5.158,11.498,11.498,11.498h163.773c6.34,0,11.498-5.158,11.498-11.498
				V47.262c0-6.34-5.158-11.498-11.498-11.498H26.615z"/>
		</g>
	</g>
	<g>
		<g>
			<path class="st6" d="M240.931,168.291c0-12.626,0-22.362,0-33.568l-3.252,1.249c0,10.8,0,25.234,0,32.318
				c-1.157,0.593-1.951,1.795-1.951,3.184v8.565h7.155v-8.565C242.883,170.085,242.089,168.883,240.931,168.291z"/>
		</g>
		<g>
			<path class="st2" d="M164.777,103.165l-67.735,26.021c-2.527,0.971-2.527,4.545,0,5.516l67.735,26.021
				c2.728,1.048,5.748,1.048,8.476,0l67.735-26.021c2.527-0.971,2.527-4.545,0-5.516l-67.735-26.021
				C170.525,102.117,167.505,102.117,164.777,103.165z"/>
		</g>
		<g>
			<path class="st1" d="M169.015,163.51c-1.679,0-3.357-0.307-4.954-0.92l-67.735-26.021c-1.931-0.741-3.178-2.557-3.178-4.625
				s1.247-3.883,3.177-4.625l67.736-26.021c3.193-1.228,6.713-1.228,9.91,0l67.733,26.02c1.932,0.742,3.179,2.558,3.179,4.625
				s-1.248,3.883-3.179,4.625l-67.734,26.021C172.372,163.203,170.693,163.51,169.015,163.51z M169.015,104.377
				c-1.192,0-2.385,0.218-3.52,0.654c0,0,0,0-0.001,0l-67.735,26.021c-0.552,0.212-0.611,0.694-0.611,0.891
				c0,0.197,0.06,0.678,0.611,0.89l67.735,26.021c2.271,0.872,4.771,0.871,7.042,0l67.734-26.021
				c0.553-0.212,0.612-0.693,0.612-0.89c0-0.197-0.06-0.679-0.612-0.891l-67.734-26.021
				C171.4,104.596,170.207,104.377,169.015,104.377z M164.777,103.165h0.01H164.777z"/>
		</g>
		<g>
			<path class="st2" d="M210.664,136.485h-83.016c-0.759,0-1.375,0.615-1.375,1.375v20.497c0,4.524,19.199,8.192,42.882,8.192
				s42.882-3.668,42.882-8.192h0.001v-20.497C212.038,137.1,211.423,136.485,210.664,136.485z"/>
		</g>
		<g>
			<path class="st1" d="M169.155,168.548c-1.833,0-44.883-0.116-44.883-10.192v-20.497c0-1.861,1.514-3.375,3.375-3.375h83.017
				c1.86,0,3.374,1.514,3.374,3.375v20.497C214.036,168.433,170.988,168.548,169.155,168.548z M128.272,158.284
				c1.103,2.269,15.571,6.265,40.883,6.265c25.311,0,39.779-3.996,40.882-6.265l0.001-19.799h-81.766V158.284z M210.664,138.485
				h0.01H210.664z"/>
		</g>
	</g>
	<g>
		<g>
			<path class="st10" d="M203.348,176.038h-6.925c-0.512-1.635-1.174-3.23-1.973-4.749l4.901-4.901
				c0.66-0.66,1.024-1.538,1.024-2.472c0-0.934-0.364-1.811-1.024-2.472l-7.092-7.092c-0.66-0.66-1.538-1.024-2.472-1.024
				c-0.933,0-1.811,0.364-2.471,1.024l-4.901,4.901c-1.518-0.799-3.114-1.462-4.749-1.973v-6.925c0-1.927-1.568-3.495-3.495-3.495
				h-10.03c-1.927,0-3.495,1.568-3.495,3.495v6.925c-1.634,0.511-3.23,1.174-4.749,1.973l-4.901-4.901
				c-0.66-0.66-1.538-1.024-2.471-1.024c-0.934,0-1.812,0.364-2.472,1.024l-7.092,7.092c-0.66,0.66-1.024,1.538-1.024,2.472
				c0,0.934,0.364,1.812,1.024,2.472l4.901,4.901c-0.799,1.518-1.462,3.114-1.973,4.749h-6.925c-1.927,0-3.495,1.568-3.495,3.495
				v10.03c0,1.927,1.568,3.495,3.495,3.495h6.925c0.512,1.635,1.174,3.23,1.973,4.749l-4.901,4.901
				c-0.66,0.66-1.024,1.538-1.024,2.472c0,0.934,0.364,1.812,1.024,2.472l7.092,7.092c0.66,0.66,1.538,1.024,2.472,1.024
				c0.933,0,1.811-0.364,2.471-1.024l4.901-4.901c1.518,0.799,3.114,1.462,4.749,1.973v6.925c0,1.927,1.568,3.495,3.495,3.495h10.03
				c1.927,0,3.495-1.568,3.495-3.495v-6.925c1.634-0.511,3.23-1.174,4.749-1.973l4.901,4.901c0.66,0.66,1.538,1.024,2.471,1.024
				c0.934,0,1.812-0.364,2.472-1.024l7.092-7.092c0.66-0.66,1.024-1.538,1.024-2.472c0-0.934-0.364-1.811-1.024-2.471l-4.901-4.901
				c0.799-1.518,1.462-3.114,1.973-4.749h6.925c1.927,0,3.495-1.568,3.495-3.495v-10.03
				C206.843,177.606,205.276,176.038,203.348,176.038z M185.939,184.548c0,9.255-7.529,16.783-16.783,16.783
				c-9.255,0-16.783-7.529-16.783-16.783c0-9.254,7.529-16.783,16.783-16.783C178.41,167.765,185.939,175.294,185.939,184.548z"/>
		</g>
		<g>
			<path class="st4" d="M169.155,163.158c-11.794,0-21.39,9.596-21.39,21.39c0,11.795,9.596,21.392,21.39,21.392
				c11.795,0,21.392-9.596,21.392-21.392C190.547,172.753,180.95,163.158,169.155,163.158z M181.573,184.548
				c0,6.847-5.57,12.417-12.418,12.417c-6.847,0-12.417-5.57-12.417-12.417c0-6.846,5.57-12.416,12.417-12.416
				C176.003,172.132,181.573,177.702,181.573,184.548z"/>
		</g>
		<g>
			<g>
				<path class="st1" d="M174.171,224.236h-10.03c-3.03,0-5.495-2.465-5.495-5.495v-5.493c-0.796-0.292-1.58-0.619-2.35-0.977
					l-3.887,3.886c-1.038,1.038-2.418,1.61-3.885,1.61c-1.468,0-2.848-0.572-3.886-1.61l-7.093-7.092
					c-1.038-1.039-1.609-2.418-1.609-3.885c0-1.467,0.571-2.846,1.608-3.885l3.888-3.887c-0.358-0.77-0.685-1.554-0.977-2.35h-5.493
					c-3.03,0-5.495-2.465-5.495-5.495v-10.03c0-3.03,2.465-5.495,5.495-5.495h5.493c0.292-0.795,0.618-1.581,0.977-2.35
					l-3.887-3.887c-1.038-1.039-1.609-2.418-1.609-3.885c0-1.467,0.571-2.846,1.608-3.885l7.094-7.093
					c1.037-1.038,2.418-1.609,3.886-1.609s2.848,0.571,3.885,1.609l3.887,3.886c0.769-0.357,1.554-0.684,2.35-0.976v-5.493
					c0-3.03,2.465-5.495,5.495-5.495h10.03c3.03,0,5.495,2.465,5.495,5.495v5.493c0.796,0.292,1.581,0.619,2.35,0.976l3.886-3.886
					c1.037-1.038,2.418-1.609,3.886-1.609s2.849,0.571,3.886,1.609l7.092,7.092c1.038,1.038,1.61,2.418,1.61,3.886
					s-0.572,2.848-1.61,3.886l-3.886,3.886c0.357,0.768,0.684,1.553,0.976,2.35h5.493c3.03,0,5.496,2.465,5.496,5.495v10.03
					c0,3.03-2.466,5.495-5.496,5.495h-5.493c-0.293,0.797-0.618,1.582-0.976,2.35l3.886,3.886c1.038,1.038,1.61,2.418,1.61,3.886
					s-0.572,2.848-1.61,3.886l-7.092,7.092c-1.038,1.038-2.418,1.61-3.886,1.61s-2.848-0.572-3.886-1.61l-3.886-3.886
					c-0.77,0.358-1.555,0.684-2.35,0.976v5.494C179.666,221.771,177.201,224.236,174.171,224.236z M155.897,207.843
					c0.316,0,0.636,0.075,0.93,0.23c1.412,0.742,2.897,1.359,4.415,1.834c0.835,0.261,1.403,1.034,1.403,1.909v6.925
					c0,0.824,0.671,1.495,1.495,1.495h10.03c0.824,0,1.495-0.671,1.495-1.495v-6.925c0-0.875,0.568-1.647,1.402-1.909
					c1.518-0.475,3.004-1.092,4.416-1.835c0.776-0.407,1.727-0.263,2.345,0.356l4.9,4.901c0.574,0.573,1.541,0.573,2.115,0
					l7.092-7.092c0.287-0.287,0.438-0.653,0.438-1.058s-0.151-0.771-0.438-1.058l-4.901-4.901c-0.62-0.62-0.764-1.571-0.355-2.346
					c0.74-1.406,1.357-2.891,1.835-4.415c0.261-0.834,1.034-1.402,1.908-1.402h6.925c0.825,0,1.496-0.671,1.496-1.495v-10.03
					c0-0.824-0.671-1.495-1.496-1.495h-6.925c-0.874,0-1.647-0.568-1.909-1.403c-0.476-1.522-1.093-3.008-1.834-4.414
					c-0.408-0.775-0.265-1.727,0.355-2.346l4.901-4.901c0.287-0.287,0.438-0.653,0.438-1.058s-0.151-0.771-0.438-1.058l-7.092-7.092
					c-0.572-0.572-1.543-0.572-2.115,0l-4.9,4.901c-0.618,0.62-1.569,0.764-2.346,0.356c-1.408-0.742-2.894-1.359-4.415-1.835
					c-0.834-0.261-1.402-1.034-1.402-1.909v-6.925c0-0.824-0.671-1.495-1.495-1.495h-10.03c-0.824,0-1.495,0.671-1.495,1.495v6.925
					c0,0.875-0.568,1.647-1.402,1.909c-1.521,0.476-3.007,1.093-4.415,1.835c-0.776,0.408-1.727,0.264-2.346-0.356l-4.901-4.901
					c-0.572-0.572-1.542-0.572-2.114,0l-7.093,7.092c-0.286,0.287-0.438,0.652-0.438,1.058c0,0.405,0.151,0.771,0.438,1.058
					l4.9,4.901c0.619,0.619,0.764,1.57,0.356,2.345c-0.743,1.411-1.36,2.897-1.835,4.415c-0.262,0.834-1.035,1.403-1.909,1.403
					h-6.925c-0.824,0-1.495,0.671-1.495,1.495v10.03c0,0.824,0.671,1.495,1.495,1.495h6.925c0.874,0,1.647,0.568,1.909,1.403
					c0.475,1.518,1.092,3.004,1.835,4.415c0.407,0.775,0.263,1.726-0.356,2.345l-4.901,4.901c-0.286,0.287-0.438,0.652-0.438,1.058
					c0,0.405,0.151,0.771,0.438,1.058l7.092,7.092c0.573,0.573,1.54,0.574,2.114,0l4.901-4.901
					C154.867,208.044,155.379,207.843,155.897,207.843z"/>
			</g>
		</g>
	</g>
</g>
</svg>
