<?xml version="1.0" encoding="utf-8"?>
<!-- Generator: Adobe Illustrator 22.1.0, SVG Export Plug-In . SVG Version: 6.00 Build 0)  -->
<svg version="1.1" id="Layer_1" xmlns="http://www.w3.org/2000/svg" xmlns:xlink="http://www.w3.org/1999/xlink" x="0px" y="0px"
	 viewBox="0 0 256 256" style="enable-background:new 0 0 256 256;" xml:space="preserve">
<style type="text/css">
	.st0{fill:#E0EBFC;}
	.st1{fill:#3762CC;}
	.st2{fill:#4671C6;}
	.st3{fill:#6BDDDD;}
	.st4{fill:#F9A7A7;}
	.st5{fill:#A4C9FF;}
	.st6{fill:#FFEA92;}
	.st7{fill:#F9CFCF;}
	.st8{fill:#FFE164;}
	.st9{fill:#FFDC85;}
	.st10{fill:#FFEA94;}
	.st11{fill:#B9BEFC;}
	.st12{fill:#EAA97D;}
</style>
<g>
	<g>
		<path class="st5" d="M8,71.442v115.344c0,10.238,8.299,18.537,18.537,18.537h152.927c10.238,0,18.537-8.299,18.537-18.537V71.442
			H8z"/>
	</g>
	<g>
		<path class="st2" d="M179.463,29.225H26.537C16.299,29.225,8,37.524,8,47.762v23.681h190V47.762
			C198,37.524,189.701,29.225,179.463,29.225z"/>
	</g>
	<g>
		<path class="st7" d="M132.309,111.29h-17.838c-2.355,0-4.263-1.909-4.263-4.263V89.188c0-2.355,1.909-4.263,4.263-4.263h17.838
			c2.355,0,4.263,1.909,4.263,4.263v17.838C136.573,109.381,134.664,111.29,132.309,111.29z"/>
	</g>
	<g>
		<path class="st0" d="M132.309,152.071h-17.838c-2.355,0-4.263-1.909-4.263-4.263v-17.838c0-2.355,1.909-4.263,4.263-4.263h17.838
			c2.355,0,4.263,1.909,4.263,4.263v17.838C136.573,150.162,134.664,152.071,132.309,152.071z"/>
	</g>
	<g>
		<path class="st0" d="M132.309,191.84h-17.838c-2.355,0-4.263-1.909-4.263-4.263v-17.838c0-2.355,1.909-4.263,4.263-4.263h17.838
			c2.355,0,4.263,1.909,4.263,4.263v17.838C136.573,189.931,134.664,191.84,132.309,191.84z"/>
	</g>
	<g>
		<path class="st7" d="M173.09,111.29h-17.838c-2.355,0-4.263-1.909-4.263-4.263V89.188c0-2.355,1.909-4.263,4.263-4.263h17.838
			c2.355,0,4.263,1.909,4.263,4.263v17.838C177.353,109.381,175.444,111.29,173.09,111.29z"/>
	</g>
	<g>
		<path class="st0" d="M173.09,152.071h-17.838c-2.355,0-4.263-1.909-4.263-4.263v-17.838c0-2.355,1.909-4.263,4.263-4.263h17.838
			c2.355,0,4.263,1.909,4.263,4.263v17.838C177.353,150.162,175.444,152.071,173.09,152.071z"/>
	</g>
	<g>
		<path class="st7" d="M91.529,152.071H73.691c-2.355,0-4.263-1.909-4.263-4.263v-17.838c0-2.355,1.909-4.263,4.263-4.263h17.838
			c2.355,0,4.263,1.909,4.263,4.263v17.838C95.792,150.162,93.883,152.071,91.529,152.071z"/>
	</g>
	<g>
		<path class="st0" d="M91.529,191.84H73.691c-2.355,0-4.263-1.909-4.263-4.263v-17.838c0-2.355,1.909-4.263,4.263-4.263h17.838
			c2.355,0,4.263,1.909,4.263,4.263v17.838C95.792,189.931,93.883,191.84,91.529,191.84z"/>
	</g>
	<g>
		<path class="st7" d="M50.748,152.071H32.91c-2.355,0-4.263-1.909-4.263-4.263v-17.838c0-2.355,1.909-4.263,4.263-4.263h17.838
			c2.355,0,4.263,1.909,4.263,4.263v17.838C55.012,150.162,53.103,152.071,50.748,152.071z"/>
	</g>
	<g>
		<path class="st0" d="M50.748,191.84H32.91c-2.355,0-4.263-1.909-4.263-4.263v-17.838c0-2.355,1.909-4.263,4.263-4.263h17.838
			c2.355,0,4.263,1.909,4.263,4.263v17.838C55.012,189.931,53.103,191.84,50.748,191.84z"/>
	</g>
	<g>
		<path class="st1" d="M179.464,207.322H26.537C15.213,207.322,6,198.109,6,186.786V71.442c0-1.104,0.896-2,2-2h190
			c1.104,0,2,0.896,2,2v115.344C200,198.109,190.787,207.322,179.464,207.322z M10,73.442v113.344
			c0,9.118,7.418,16.536,16.537,16.536h152.927c9.118,0,16.536-7.418,16.536-16.536V73.442H10z"/>
	</g>
	<g>
		<path class="st1" d="M198,73.442H8c-1.104,0-2-0.896-2-2V47.762c0-11.324,9.213-20.537,20.537-20.537h152.927
			c11.323,0,20.536,9.213,20.536,20.537v23.681C200,72.547,199.104,73.442,198,73.442z M10,69.442h186V47.762
			c0-9.118-7.418-16.537-16.536-16.537H26.537C17.418,31.225,10,38.644,10,47.762V69.442z"/>
	</g>
	<g>
		<path class="st3" d="M101.903,56.249L101.903,56.249c-5.119,0-9.268-4.15-9.268-9.268V19.176c0-5.119,4.15-9.268,9.268-9.268h0
			c5.119,0,9.268,4.15,9.268,9.268v27.805C111.171,52.1,107.021,56.249,101.903,56.249z"/>
	</g>
	<g>
		<path class="st3" d="M45.854,56.249L45.854,56.249c-5.119,0-9.268-4.15-9.268-9.268V19.176c0-5.119,4.15-9.268,9.268-9.268h0
			c5.119,0,9.268,4.15,9.268,9.268v27.805C55.122,52.1,50.973,56.249,45.854,56.249z"/>
	</g>
	<g>
		<path class="st3" d="M157.951,56.249L157.951,56.249c-5.119,0-9.268-4.15-9.268-9.268V19.176c0-5.119,4.15-9.268,9.268-9.268h0
			c5.119,0,9.268,4.15,9.268,9.268v27.805C167.22,52.1,163.07,56.249,157.951,56.249z"/>
	</g>
	<g>
		<path class="st1" d="M101.903,58.249c-6.213,0-11.269-5.055-11.269-11.268V19.177c0-6.214,5.055-11.269,11.269-11.269
			s11.268,5.055,11.268,11.269v27.805C113.171,53.194,108.116,58.249,101.903,58.249z M101.903,11.908
			c-4.008,0-7.269,3.261-7.269,7.269v27.805c0,4.008,3.261,7.268,7.269,7.268s7.268-3.26,7.268-7.268V19.177
			C109.171,15.169,105.911,11.908,101.903,11.908z"/>
	</g>
	<g>
		<path class="st1" d="M45.854,58.249c-6.213,0-11.269-5.055-11.269-11.268V19.177c0-6.214,5.055-11.269,11.269-11.269
			s11.268,5.055,11.268,11.269v27.805C57.122,53.194,52.067,58.249,45.854,58.249z M45.854,11.908c-4.008,0-7.269,3.261-7.269,7.269
			v27.805c0,4.008,3.261,7.268,7.269,7.268s7.268-3.26,7.268-7.268V19.177C53.122,15.169,49.862,11.908,45.854,11.908z"/>
	</g>
	<g>
		<path class="st1" d="M157.951,58.249c-6.214,0-11.269-5.055-11.269-11.268V19.177c0-6.214,5.055-11.269,11.269-11.269
			s11.269,5.055,11.269,11.269v27.805C169.22,53.194,164.165,58.249,157.951,58.249z M157.951,11.908
			c-4.008,0-7.269,3.261-7.269,7.269v27.805c0,4.008,3.261,7.268,7.269,7.268s7.269-3.26,7.269-7.268V19.177
			C165.22,15.169,161.959,11.908,157.951,11.908z"/>
	</g>
	<g>
		<circle class="st4" cx="198" cy="200.5" r="47.5"/>
	</g>
	<g>
		<path class="st0" d="M198,235.734c-19.428,0-35.234-15.806-35.234-35.234s15.807-35.234,35.234-35.234
			s35.233,15.806,35.233,35.234S217.428,235.734,198,235.734z"/>
	</g>
	<g>
		<path class="st1" d="M198,250c-27.294,0-49.5-22.206-49.5-49.5S170.706,151,198,151s49.5,22.206,49.5,49.5S225.294,250,198,250z
			 M198,155c-25.089,0-45.5,20.411-45.5,45.5S172.911,246,198,246s45.5-20.411,45.5-45.5S223.089,155,198,155z"/>
	</g>
	<g>
		<path class="st4" d="M211,146.401h-26c-1.105,0-2-0.895-2-2v-6c0-1.105,0.895-2,2-2h26c1.105,0,2,0.895,2,2v6
			C213,145.505,212.104,146.401,211,146.401z"/>
	</g>
	<g>
		<path class="st2" d="M198,202.66c-1.534,0-2.778-1.244-2.778-2.778V172.98c0-1.534,1.244-2.778,2.778-2.778
			s2.778,1.244,2.778,2.778v26.903C200.778,201.417,199.534,202.66,198,202.66z"/>
	</g>
	<g>
		<path class="st7" d="M190.5,146.4v7.194c2.444-0.388,4.948-0.595,7.5-0.595c2.553,0,5.056,0.207,7.5,0.595V146.4H190.5z"/>
	</g>
	<g>
		<path class="st1" d="M198,237.733c-20.531,0-37.234-16.703-37.234-37.233s16.703-37.233,37.234-37.233
			c20.53,0,37.233,16.703,37.233,37.233S218.53,237.733,198,237.733z M198,167.267c-18.325,0-33.234,14.908-33.234,33.233
			s14.909,33.233,33.234,33.233s33.233-14.908,33.233-33.233S216.325,167.267,198,167.267z"/>
	</g>
	<g>
		<path class="st1" d="M211,148.4h-26c-2.206,0-4-1.794-4-4v-6c0-2.206,1.794-4,4-4h26c2.206,0,4,1.794,4,4v6
			C215,146.606,213.206,148.4,211,148.4z M185,138.4v6h26.003l-0.003-6H185z"/>
	</g>
	<g>
		<path class="st1" d="M205.5,155.595c-0.104,0-0.209-0.008-0.313-0.024c-4.768-0.758-9.605-0.758-14.373,0
			c-0.577,0.09-1.166-0.075-1.612-0.455c-0.445-0.38-0.701-0.936-0.701-1.521V146.4c0-1.104,0.896-2,2-2h15c1.104,0,2,0.896,2,2
			v7.194c0,0.585-0.256,1.141-0.701,1.521C206.434,155.427,205.973,155.595,205.5,155.595z M198,151c1.824,0,3.666,0.104,5.5,0.308
			V148.4h-11v2.907C194.334,151.104,196.176,151,198,151z"/>
	</g>
	<g>
		<path class="st4" d="M82.61,163.039c-6.45,0-12.515-2.512-17.076-7.074c-4.561-4.561-7.074-10.626-7.074-17.077
			c0-6.45,2.512-12.515,7.074-17.076c5.416-5.416,12.774-7.766,19.97-6.9c1.152,0.138,1.972,1.184,1.834,2.336
			s-1.176,1.976-2.336,1.833c-5.908-0.708-11.995,1.198-16.498,5.7c-3.768,3.768-5.843,8.778-5.843,14.106
			c0,5.329,2.075,10.339,5.843,14.107c3.769,3.768,8.778,5.844,14.107,5.844s10.338-2.075,14.107-5.844
			c3.768-3.768,5.843-8.778,5.843-14.106c0-5.329-2.075-10.339-5.843-14.107c-0.82-0.82-0.82-2.149,0-2.97
			c0.819-0.82,2.15-0.82,2.97,0c4.561,4.561,7.074,10.626,7.074,17.077c0,6.45-2.512,12.515-7.074,17.076
			C95.125,160.526,89.06,163.039,82.61,163.039z"/>
	</g>
</g>
</svg>
