<?xml version="1.0" encoding="utf-8"?>
<!-- Generator: Adobe Illustrator 22.1.0, SVG Export Plug-In . SVG Version: 6.00 Build 0)  -->
<svg version="1.1" id="Layer_1" xmlns="http://www.w3.org/2000/svg" xmlns:xlink="http://www.w3.org/1999/xlink" x="0px" y="0px"
	 viewBox="0 0 256 256" style="enable-background:new 0 0 256 256;" xml:space="preserve">
<style type="text/css">
	.st0{fill:#E0EBFC;}
	.st1{fill:#3762CC;}
	.st2{fill:#4671C6;}
	.st3{fill:#6BDDDD;}
	.st4{fill:#F9A7A7;}
	.st5{fill:#A4C9FF;}
	.st6{fill:#FFEA92;}
	.st7{fill:#F9CFCF;}
	.st8{fill:#FFE164;}
	.st9{fill:#FFDC85;}
	.st10{fill:#FFEA94;}
	.st11{fill:#B9BEFC;}
	.st12{fill:#EAA97D;}
</style>
<g>
	<g>
		<path class="st3" d="M137.25,121.304V15.5c0-4.142,3.358-7.5,7.5-7.5l0,0c4.142,0,7.5,3.358,7.5,7.5v105.804H137.25z"/>
	</g>
	<g>
		<path class="st3" d="M92.25,30.5h105c2.761,0,5,2.239,5,5v0c0,2.761-2.239,5-5,5h-105c-2.761,0-5-2.239-5-5v0
			C87.25,32.739,89.489,30.5,92.25,30.5z"/>
	</g>
	<g>
		<path class="st1" d="M152.25,123.304h-15c-1.104,0-2-0.896-2-2V15.5c0-5.238,4.262-9.5,9.5-9.5s9.5,4.262,9.5,9.5v105.804
			C154.25,122.409,153.354,123.304,152.25,123.304z M139.25,119.304h11V15.5c0-3.033-2.467-5.5-5.5-5.5s-5.5,2.467-5.5,5.5V119.304z
			"/>
	</g>
	<g>
		<path class="st1" d="M197.25,42.5h-105c-3.86,0-7-3.14-7-7s3.14-7,7-7h105c3.859,0,7,3.14,7,7S201.109,42.5,197.25,42.5z
			 M92.25,32.5c-1.654,0-3,1.346-3,3s1.346,3,3,3h105c1.654,0,3-1.346,3-3s-1.346-3-3-3H92.25z"/>
	</g>
	<g>
		<path class="st7" d="M226.015,184.064c-78.743,9.948-39.495,7.899-177.797,7.899v32.47l69.419,9.005
			c7.681,0.996,15.484,0.451,22.952-1.605l103.125-28.39c2.692-0.741,4.205-3.596,3.308-6.24l0,0
			C244.03,188.389,235.25,182.897,226.015,184.064z"/>
	</g>
	<g>
		<path class="st2" d="M29.469,248h-18.75c-1.105,0-2-0.895-2-2v-96c0-1.105,0.895-2,2-2h18.75c1.105,0,2,0.895,2,2v96
			C31.469,247.105,30.573,248,29.469,248z"/>
	</g>
	<g>
		<path class="st1" d="M125.17,235.926c-2.592,0-5.19-0.168-7.789-0.505l-69.419-9.004c-0.997-0.129-1.743-0.978-1.743-1.983v-32.47
			c0-1.104,0.896-2,2-2c24.345,0,43.084,0.063,58.142,0.114c57.365,0.195,57.362,0.193,91.341-4.336
			c7.335-0.978,16.463-2.195,28.063-3.661l0,0c10.143-1.278,19.869,4.811,23.151,14.48c0.604,1.78,0.446,3.752-0.435,5.413
			c-0.88,1.661-2.425,2.899-4.236,3.398l-103.124,28.39C135.882,235.202,130.542,235.926,125.17,235.926z M50.219,222.675
			l67.677,8.778c7.455,0.968,14.913,0.446,22.163-1.55l103.124-28.39c0.767-0.211,1.393-0.713,1.765-1.415s0.437-1.502,0.182-2.253
			c-2.676-7.88-10.616-12.841-18.862-11.798l0,0c-11.586,1.463-20.707,2.68-28.036,3.657c-34.249,4.566-34.252,4.567-91.883,4.372
			c-14.64-0.049-32.762-0.11-56.129-0.114V222.675z"/>
	</g>
	<g>
		<path class="st7" d="M172.341,168.859h-38.776c-1.525,0-2.893-0.88-3.585-2.239c-4.597-9.021-13.966-15.202-24.785-15.202H76.027
			c-15.358,0-27.809,12.45-27.809,27.809v19.153c6.626,0,138.999,0,144.374,0c2.56,0,4.635-2.075,4.635-4.635l0,0
			C197.227,180.001,186.085,168.859,172.341,168.859z"/>
	</g>
	<g>
		<path class="st1" d="M192.593,200.381h-59.589c-1.104,0-2-0.896-2-2s0.896-2,2-2h59.589c1.453,0,2.635-1.182,2.635-2.635
			c0-12.62-10.267-22.887-22.887-22.887h-38.775c-2.264,0-4.32-1.276-5.367-3.331c-4.435-8.703-13.249-14.11-23.003-14.11H76.027
			c-14.231,0-25.809,11.578-25.809,25.809v19.153c0,1.104-0.896,2-2,2s-2-0.896-2-2v-19.153c0-16.437,13.372-29.809,29.809-29.809
			h29.167c11.267,0,21.446,6.243,26.568,16.293c0.36,0.708,1.051,1.147,1.803,1.147h38.775c14.825,0,26.887,12.062,26.887,26.887
			C199.228,197.404,196.251,200.381,192.593,200.381z"/>
	</g>
	<g>
		<path class="st0" d="M40.219,151.517h-8.75v92.967h8.75c4.418,0,8-3.582,8-8v-76.967
			C48.219,155.098,44.637,151.517,40.219,151.517z"/>
	</g>
	<g>
		<path class="st1" d="M29.469,250h-18.75c-2.206,0-4-1.794-4-4v-96c0-2.206,1.794-4,4-4h18.75c2.206,0,4,1.794,4,4v96
			C33.469,248.206,31.674,250,29.469,250z M10.719,150v96h18.752l-0.002-96H10.719z"/>
	</g>
	<g>
		<path class="st1" d="M40.219,246.483h-8.75c-1.104,0-2-0.896-2-2v-92.967c0-1.104,0.896-2,2-2h8.75c5.514,0,10,4.486,10,10v76.967
			C50.219,241.998,45.733,246.483,40.219,246.483z M33.469,242.483h6.75c3.309,0,6-2.691,6-6v-76.967c0-3.309-2.691-6-6-6h-6.75
			V242.483z"/>
	</g>
	<g>
		<path class="st5" d="M180.114,137.946h-70.728c-4.596,0-8.321-3.725-8.321-8.321v0c0-4.596,3.725-8.321,8.321-8.321h70.728
			c4.596,0,8.321,3.725,8.321,8.321v0C188.435,134.221,184.71,137.946,180.114,137.946z"/>
	</g>
	<g>
		<path class="st4" d="M99.25,98.5L99.25,98.5c-11.598,0-21-9.402-21-21v-4.171h42V77.5C120.25,89.098,110.848,98.5,99.25,98.5z"/>
	</g>
	<g>
		<path class="st1" d="M99.25,42.5c-1.104,0-2-0.896-2-2v-10c0-1.104,0.896-2,2-2s2,0.896,2,2v10
			C101.25,41.604,100.354,42.5,99.25,42.5z"/>
	</g>
	<g>
		<path class="st1" d="M120.25,75.329h-42c-0.731,0-1.403-0.398-1.754-1.04s-0.324-1.422,0.07-2.038l21-32.829
			c0.367-0.575,1.002-0.922,1.685-0.922s1.317,0.348,1.685,0.922l21,32.829c0.394,0.616,0.421,1.397,0.07,2.038
			S120.981,75.329,120.25,75.329z M81.903,71.329h34.693L99.25,44.211L81.903,71.329z"/>
	</g>
	<g>
		<path class="st4" d="M190.25,98.5L190.25,98.5c-11.598,0-21-9.402-21-21v-4.171h42V77.5C211.25,89.098,201.848,98.5,190.25,98.5z"
			/>
	</g>
	<g>
		<path class="st1" d="M190.25,42.5c-1.104,0-2-0.896-2-2v-10c0-1.104,0.896-2,2-2s2,0.896,2,2v10
			C192.25,41.604,191.354,42.5,190.25,42.5z"/>
	</g>
	<g>
		<path class="st1" d="M211.25,75.329h-42c-0.73,0-1.403-0.398-1.754-1.04c-0.352-0.641-0.324-1.422,0.069-2.038l21-32.829
			c0.367-0.575,1.003-0.922,1.685-0.922s1.317,0.348,1.685,0.922l21,32.829c0.394,0.616,0.421,1.397,0.069,2.038
			C212.653,74.93,211.98,75.329,211.25,75.329z M172.903,71.329h34.693L190.25,44.211L172.903,71.329z"/>
	</g>
	<g>
		<circle class="st0" cx="144.75" cy="35.5" r="11.917"/>
	</g>
	<g>
		<path class="st1" d="M144.75,49.417c-7.674,0-13.917-6.243-13.917-13.917s6.243-13.917,13.917-13.917s13.917,6.243,13.917,13.917
			S152.424,49.417,144.75,49.417z M144.75,25.583c-5.468,0-9.917,4.449-9.917,9.917s4.449,9.917,9.917,9.917
			s9.917-4.449,9.917-9.917S150.218,25.583,144.75,25.583z"/>
	</g>
	<g>
		<path class="st1" d="M180.114,139.946h-70.729c-5.691,0-10.321-4.63-10.321-10.321c0-5.691,4.63-10.321,10.321-10.321h70.729
			c5.69,0,10.32,4.63,10.32,10.321C190.435,135.316,185.805,139.946,180.114,139.946z M109.386,123.304
			c-3.485,0-6.321,2.836-6.321,6.321s2.835,6.321,6.321,6.321h70.729c3.485,0,6.32-2.835,6.32-6.321s-2.835-6.321-6.32-6.321
			H109.386z"/>
	</g>
	<g>
		<path class="st1" d="M99.25,100.5c-12.682,0-23-10.318-23-23v-4.171c0-1.104,0.896-2,2-2h42c1.104,0,2,0.896,2,2V77.5
			C122.25,90.182,111.932,100.5,99.25,100.5z M80.25,75.329V77.5c0,10.477,8.523,19,19,19s19-8.523,19-19v-2.171H80.25z"/>
	</g>
	<g>
		<path class="st1" d="M190.25,100.5c-12.683,0-23-10.318-23-23v-4.171c0-1.104,0.896-2,2-2h42c1.104,0,2,0.896,2,2V77.5
			C213.25,90.182,202.933,100.5,190.25,100.5z M171.25,75.329V77.5c0,10.477,8.523,19,19,19s19-8.523,19-19v-2.171H171.25z"/>
	</g>
</g>
</svg>
