<?xml version="1.0" encoding="utf-8"?>
<!-- Generator: Adobe Illustrator 22.1.0, SVG Export Plug-In . SVG Version: 6.00 Build 0)  -->
<svg version="1.1" id="Layer_1" xmlns="http://www.w3.org/2000/svg" xmlns:xlink="http://www.w3.org/1999/xlink" x="0px" y="0px"
	 viewBox="0 0 256 256" style="enable-background:new 0 0 256 256;" xml:space="preserve">
<style type="text/css">
	.st0{fill:#E0EBFC;}
	.st1{fill:#3762CC;}
	.st2{fill:#4671C6;}
	.st3{fill:#6BDDDD;}
	.st4{fill:#F9A7A7;}
	.st5{fill:#A4C9FF;}
	.st6{fill:#FFEA92;}
	.st7{fill:#F9CFCF;}
	.st8{fill:#FFE164;}
	.st9{fill:#FFDC85;}
	.st10{fill:#FFEA94;}
	.st11{fill:#B9BEFC;}
	.st12{fill:#EAA97D;}
</style>
<g>
	<g>
		<path class="st0" d="M162.509,205.774H21.077c-3.972,0-7.191-3.22-7.191-7.191V15.201c0-3.972,3.22-7.191,7.191-7.191h141.431
			c3.972,0,7.191,3.22,7.191,7.191v183.381C169.7,202.554,166.48,205.774,162.509,205.774z"/>
	</g>
	<g>
		<path class="st1" d="M162.509,207.774H21.077c-5.068,0-9.191-4.123-9.191-9.191V15.201c0-5.068,4.123-9.191,9.191-9.191h141.432
			c5.068,0,9.191,4.123,9.191,9.191v183.382C171.7,203.651,167.577,207.774,162.509,207.774z M21.077,10.01
			c-2.862,0-5.191,2.329-5.191,5.191v183.382c0,2.862,2.329,5.191,5.191,5.191h141.432c2.862,0,5.191-2.329,5.191-5.191V15.201
			c0-2.862-2.329-5.191-5.191-5.191H21.077z"/>
	</g>
	<g>
		<path class="st5" d="M148.898,36.68H34.688c-2.636,0-4.773-2.137-4.773-4.773v0c0-2.636,2.137-4.773,4.773-4.773h114.21
			c2.636,0,4.773,2.137,4.773,4.773v0C153.671,34.543,151.534,36.68,148.898,36.68z"/>
	</g>
	<g>
		<path class="st5" d="M47.219,60.747h-9.888c-1.365,0-2.472-1.107-2.472-2.472v-9.888c0-1.365,1.107-2.472,2.472-2.472h9.888
			c1.365,0,2.472,1.107,2.472,2.472v9.888C49.691,59.64,48.584,60.747,47.219,60.747z"/>
	</g>
	<g>
		<path class="st5" d="M148.898,79.529H34.688c-2.636,0-4.773-2.137-4.773-4.773v0c0-2.636,2.137-4.773,4.773-4.773h114.21
			c2.636,0,4.773,2.137,4.773,4.773v0C153.671,77.392,151.534,79.529,148.898,79.529z"/>
	</g>
	<g>
		<path class="st5" d="M148.898,100.953H34.688c-2.636,0-4.773-2.137-4.773-4.773v0c0-2.636,2.137-4.773,4.773-4.773h114.21
			c2.636,0,4.773,2.137,4.773,4.773v0C153.671,98.816,151.534,100.953,148.898,100.953z"/>
	</g>
	<g>
		<path class="st5" d="M148.898,143.802H34.688c-2.636,0-4.773-2.137-4.773-4.773v0c0-2.636,2.137-4.773,4.773-4.773h114.21
			c2.636,0,4.773,2.137,4.773,4.773v0C153.671,141.665,151.534,143.802,148.898,143.802z"/>
	</g>
	<g>
		<path class="st5" d="M148.898,165.226H34.688c-2.636,0-4.773-2.137-4.773-4.773v0c0-2.636,2.137-4.773,4.773-4.773h114.21
			c2.636,0,4.773,2.137,4.773,4.773v0C153.671,163.089,151.534,165.226,148.898,165.226z"/>
	</g>
	<g>
		<path class="st5" d="M96.66,60.747h-9.888c-1.365,0-2.472-1.107-2.472-2.472v-9.888c0-1.365,1.107-2.472,2.472-2.472h9.888
			c1.365,0,2.472,1.107,2.472,2.472v9.888C99.132,59.64,98.025,60.747,96.66,60.747z"/>
	</g>
	<g>
		<path class="st5" d="M146.101,60.747h-9.888c-1.365,0-2.472-1.107-2.472-2.472v-9.888c0-1.365,1.107-2.472,2.472-2.472h9.888
			c1.365,0,2.472,1.107,2.472,2.472v9.888C148.573,59.64,147.466,60.747,146.101,60.747z"/>
	</g>
	<g>
		<path class="st5" d="M47.219,125.02h-9.888c-1.365,0-2.472-1.107-2.472-2.472v-9.888c0-1.365,1.107-2.472,2.472-2.472h9.888
			c1.365,0,2.472,1.107,2.472,2.472v9.888C49.691,123.914,48.584,125.02,47.219,125.02z"/>
	</g>
	<g>
		<path class="st5" d="M96.66,125.02h-9.888c-1.365,0-2.472-1.107-2.472-2.472v-9.888c0-1.365,1.107-2.472,2.472-2.472h9.888
			c1.365,0,2.472,1.107,2.472,2.472v9.888C99.132,123.914,98.025,125.02,96.66,125.02z"/>
	</g>
	<g>
		<path class="st5" d="M146.101,125.02h-9.888c-1.365,0-2.472-1.107-2.472-2.472v-9.888c0-1.365,1.107-2.472,2.472-2.472h9.888
			c1.365,0,2.472,1.107,2.472,2.472v9.888C148.573,123.914,147.466,125.02,146.101,125.02z"/>
	</g>
	<g>
		<path class="st5" d="M47.219,189.294h-9.888c-1.365,0-2.472-1.107-2.472-2.472v-9.888c0-1.365,1.107-2.472,2.472-2.472h9.888
			c1.365,0,2.472,1.107,2.472,2.472v9.888C49.691,188.187,48.584,189.294,47.219,189.294z"/>
	</g>
	<g>
		<path class="st5" d="M96.66,189.294h-9.888c-1.365,0-2.472-1.107-2.472-2.472v-9.888c0-1.365,1.107-2.472,2.472-2.472h9.888
			c1.365,0,2.472,1.107,2.472,2.472v9.888C99.132,188.187,98.025,189.294,96.66,189.294z"/>
	</g>
	<g>
		<path class="st7" d="M90.905,58.739c-0.004,0-0.007,0-0.01,0c-1.091-0.003-2.119-0.536-2.749-1.425l-4.638-6.533
			c-0.721-1.016-0.483-2.425,0.534-3.146c1.017-0.722,2.425-0.482,3.146,0.534l3.724,5.246l9.741-13.543
			c0.728-1.012,2.138-1.241,3.149-0.514c1.011,0.728,1.242,2.138,0.514,3.149L93.652,57.331
			C93.018,58.213,91.991,58.739,90.905,58.739z"/>
	</g>
	<g>
		<path class="st7" d="M90.905,123.013c-0.004,0-0.007,0-0.01,0c-1.091-0.003-2.119-0.536-2.749-1.425l-4.638-6.533
			c-0.721-1.016-0.483-2.425,0.534-3.146c1.017-0.722,2.425-0.482,3.146,0.534l3.724,5.246l9.741-13.543
			c0.728-1.012,2.138-1.241,3.149-0.514c1.011,0.728,1.242,2.138,0.514,3.149l-10.663,14.825
			C93.018,122.486,91.991,123.013,90.905,123.013z"/>
	</g>
	<g>
		<path class="st7" d="M163.44,29.977l-49.19,49.19l-2.844,15.494c-0.097,0.531,0.463,1.091,0.994,0.994l15.494-2.844l49.19-49.19
			L163.44,29.977z"/>
	</g>
	<g>
		<path class="st3" d="M163.44,29.977l-49.168,49.168c1.096,1.469,4.243,0.318,5.469,1.543c0.645,0.646,0.504,1.154,0.86,4.371
			c0.266,2.404,4.44,0.93,5.77,2.26c1.226,1.226,0.075,4.373,1.544,5.469l49.168-49.167
			C168.875,35.411,172.562,39.099,163.44,29.977z"/>
	</g>
	<g>
		
			<rect x="163.214" y="30.522" transform="matrix(-0.7071 -0.7071 0.7071 -0.7071 270.9118 180.6127)" class="st0" width="19.295" height="7.354"/>
	</g>
	<g>
		<path class="st4" d="M182.011,17.234l7.816,7.816c1.609,1.609,1.609,4.218,0,5.828l-7.543,7.543L168.64,24.777l7.543-7.543
			C177.792,15.625,180.401,15.625,182.011,17.234z"/>
	</g>
	<g>
		<path class="st1" d="M177.084,45.621L177.084,45.621c-0.53,0-1.039-0.211-1.414-0.586l-13.644-13.645
			c-0.781-0.781-0.781-2.047,0-2.828l5.2-5.2c0.375-0.375,0.884-0.586,1.414-0.586l0,0c0.53,0,1.039,0.211,1.414,0.586
			l13.644,13.645c0.781,0.781,0.781,2.047,0,2.828l-5.2,5.2C178.123,45.41,177.614,45.621,177.084,45.621z M166.269,29.977
			l10.815,10.816l2.372-2.372l-10.815-10.816L166.269,29.977z"/>
	</g>
	<g>
		<path class="st1" d="M182.284,40.421L182.284,40.421c-0.53,0-1.039-0.211-1.414-0.586L167.227,26.19
			c-0.781-0.781-0.781-2.047,0-2.828l7.542-7.543c2.387-2.385,6.27-2.386,8.656-0.001c0,0.001,0,0.001,0,0.001l7.816,7.816
			c2.387,2.387,2.387,6.27,0,8.656l-7.543,7.543C183.323,40.21,182.814,40.421,182.284,40.421z M171.469,24.776l10.815,10.816
			l6.129-6.129c0.827-0.827,0.827-2.173,0-3l-7.816-7.815c-0.826-0.828-2.174-0.828-3,0L171.469,24.776z"/>
	</g>
	<g>
		<path class="st2" d="M113.053,85.686l-1.647,8.975c-0.097,0.531,0.463,1.091,0.994,0.994l8.975-1.648L113.053,85.686z"/>
	</g>
	<g>
		<path class="st1" d="M112.279,97.666c-0.741,0-1.473-0.305-2.026-0.858c-0.674-0.673-0.979-1.609-0.815-2.505l2.846-15.497
			c0.073-0.398,0.266-0.766,0.553-1.053l49.19-49.19c0.375-0.375,0.884-0.586,1.414-0.586l0,0c0.53,0,1.039,0.211,1.414,0.586
			l13.644,13.645c0.781,0.781,0.781,2.047,0,2.828l-49.19,49.189c-0.287,0.287-0.654,0.479-1.053,0.553l-15.494,2.845
			C112.601,97.651,112.439,97.666,112.279,97.666z M116.104,80.141l-2.432,13.247l13.247-2.432l47.336-47.335L163.44,32.805
			L116.104,80.141z"/>
	</g>
	<g>
		<path class="st5" d="M99.132,147.24v86.801c0,7.704,6.245,13.949,13.949,13.949h115.083c7.704,0,13.949-6.245,13.949-13.949
			V147.24H99.132z"/>
	</g>
	<g>
		<path class="st2" d="M228.165,115.47H113.082c-7.704,0-13.949,6.245-13.949,13.949v17.82h142.982v-17.82
			C242.114,121.715,235.869,115.47,228.165,115.47z"/>
	</g>
	<g>
		<path class="st7" d="M192.68,177.227h-13.424c-1.772,0-3.208-1.436-3.208-3.208v-13.424c0-1.772,1.436-3.208,3.208-3.208h13.424
			c1.772,0,3.208,1.436,3.208,3.208v13.424C195.888,175.79,194.452,177.227,192.68,177.227z"/>
	</g>
	<g>
		<path class="st0" d="M192.68,207.916h-13.424c-1.772,0-3.208-1.436-3.208-3.208v-13.424c0-1.772,1.436-3.208,3.208-3.208h13.424
			c1.772,0,3.208,1.436,3.208,3.208v13.424C195.888,206.479,194.452,207.916,192.68,207.916z"/>
	</g>
	<g>
		<path class="st0" d="M192.68,237.844h-13.424c-1.772,0-3.208-1.436-3.208-3.208v-13.424c0-1.772,1.436-3.208,3.208-3.208h13.424
			c1.772,0,3.208,1.436,3.208,3.208v13.424C195.888,236.407,194.452,237.844,192.68,237.844z"/>
	</g>
	<g>
		<path class="st7" d="M223.368,177.227h-13.424c-1.772,0-3.208-1.436-3.208-3.208v-13.424c0-1.772,1.436-3.208,3.208-3.208h13.424
			c1.772,0,3.208,1.436,3.208,3.208v13.424C226.577,175.79,225.14,177.227,223.368,177.227z"/>
	</g>
	<g>
		<path class="st0" d="M223.368,207.916h-13.424c-1.772,0-3.208-1.436-3.208-3.208v-13.424c0-1.772,1.436-3.208,3.208-3.208h13.424
			c1.772,0,3.208,1.436,3.208,3.208v13.424C226.577,206.479,225.14,207.916,223.368,207.916z"/>
	</g>
	<g>
		<path class="st7" d="M161.991,207.916h-13.424c-1.772,0-3.208-1.436-3.208-3.208v-13.424c0-1.772,1.436-3.208,3.208-3.208h13.424
			c1.772,0,3.208,1.436,3.208,3.208v13.424C165.199,206.479,163.763,207.916,161.991,207.916z"/>
	</g>
	<g>
		<path class="st0" d="M161.991,237.844h-13.424c-1.772,0-3.208-1.436-3.208-3.208v-13.424c0-1.772,1.436-3.208,3.208-3.208h13.424
			c1.772,0,3.208,1.436,3.208,3.208v13.424C165.199,236.407,163.763,237.844,161.991,237.844z"/>
	</g>
	<g>
		<path class="st7" d="M131.302,207.916h-13.424c-1.772,0-3.208-1.436-3.208-3.208v-13.424c0-1.772,1.436-3.208,3.208-3.208h13.424
			c1.772,0,3.208,1.436,3.208,3.208v13.424C134.51,206.479,133.074,207.916,131.302,207.916z"/>
	</g>
	<g>
		<path class="st0" d="M131.302,237.844h-13.424c-1.772,0-3.208-1.436-3.208-3.208v-13.424c0-1.772,1.436-3.208,3.208-3.208h13.424
			c1.772,0,3.208,1.436,3.208,3.208v13.424C134.51,236.407,133.074,237.844,131.302,237.844z"/>
	</g>
	<g>
		<path class="st1" d="M228.165,249.99H113.081c-8.795,0-15.949-7.155-15.949-15.95v-86.8c0-1.104,0.896-2,2-2h142.982
			c1.104,0,2,0.896,2,2v86.8C244.114,242.835,236.96,249.99,228.165,249.99z M101.132,149.24v84.8c0,6.589,5.36,11.95,11.949,11.95
			h115.084c6.589,0,11.949-5.361,11.949-11.95v-84.8H101.132z"/>
	</g>
	<g>
		<path class="st1" d="M242.114,149.24H99.132c-1.104,0-2-0.896-2-2v-17.821c0-8.794,7.154-15.949,15.949-15.949h115.084
			c8.795,0,15.949,7.155,15.949,15.949v17.821C244.114,148.345,243.219,149.24,242.114,149.24z M101.132,145.24h138.982v-15.821
			c0-6.589-5.36-11.949-11.949-11.949H113.081c-6.589,0-11.949,5.36-11.949,11.949V145.24z"/>
	</g>
	<g>
		<path class="st3" d="M169.797,135.807L169.797,135.807c-3.852,0-6.975-3.123-6.975-6.975v-20.924c0-3.852,3.123-6.975,6.975-6.975
			h0c3.852,0,6.975,3.123,6.975,6.975v20.924C176.772,132.684,173.649,135.807,169.797,135.807z"/>
	</g>
	<g>
		<path class="st3" d="M127.619,135.807L127.619,135.807c-3.852,0-6.975-3.123-6.975-6.975v-20.924c0-3.852,3.123-6.975,6.975-6.975
			h0c3.852,0,6.975,3.123,6.975,6.975v20.924C134.593,132.684,131.471,135.807,127.619,135.807z"/>
	</g>
	<g>
		<path class="st3" d="M211.976,135.807L211.976,135.807c-3.852,0-6.975-3.123-6.975-6.975v-20.924c0-3.852,3.123-6.975,6.975-6.975
			h0c3.852,0,6.975,3.123,6.975,6.975v20.924C218.951,132.684,215.828,135.807,211.976,135.807z"/>
	</g>
	<g>
		<path class="st1" d="M169.797,137.807c-4.948,0-8.975-4.026-8.975-8.975v-20.924c0-4.949,4.026-8.976,8.975-8.976
			c4.949,0,8.976,4.026,8.976,8.976v20.924C178.772,133.78,174.746,137.807,169.797,137.807z M169.797,102.933
			c-2.743,0-4.975,2.232-4.975,4.976v20.924c0,2.743,2.231,4.975,4.975,4.975s4.976-2.231,4.976-4.975v-20.924
			C174.772,105.165,172.54,102.933,169.797,102.933z"/>
	</g>
	<g>
		<path class="st1" d="M127.618,137.807c-4.948,0-8.975-4.026-8.975-8.975v-20.924c0-4.949,4.026-8.976,8.975-8.976
			s8.975,4.026,8.975,8.976v20.924C136.593,133.78,132.566,137.807,127.618,137.807z M127.618,102.933
			c-2.743,0-4.975,2.232-4.975,4.976v20.924c0,2.743,2.231,4.975,4.975,4.975s4.975-2.231,4.975-4.975v-20.924
			C132.593,105.165,130.361,102.933,127.618,102.933z"/>
	</g>
	<g>
		<path class="st1" d="M211.977,137.807c-4.949,0-8.976-4.026-8.976-8.975v-20.924c0-4.949,4.026-8.976,8.976-8.976
			c4.948,0,8.975,4.026,8.975,8.976v20.924C220.951,133.78,216.925,137.807,211.977,137.807z M211.977,102.933
			c-2.743,0-4.976,2.232-4.976,4.976v20.924c0,2.743,2.232,4.975,4.976,4.975s4.975-2.231,4.975-4.975v-20.924
			C216.951,105.165,214.72,102.933,211.977,102.933z"/>
	</g>
</g>
</svg>
