<?xml version="1.0" encoding="utf-8"?>
<!-- Generator: Adobe Illustrator 22.1.0, SVG Export Plug-In . SVG Version: 6.00 Build 0)  -->
<svg version="1.1" id="Layer_1" xmlns="http://www.w3.org/2000/svg" xmlns:xlink="http://www.w3.org/1999/xlink" x="0px" y="0px"
	 viewBox="0 0 256 256" style="enable-background:new 0 0 256 256;" xml:space="preserve">
<style type="text/css">
	.st0{fill:#E0EBFC;}
	.st1{fill:#3762CC;}
	.st2{fill:#4671C6;}
	.st3{fill:#6BDDDD;}
	.st4{fill:#F9A7A7;}
	.st5{fill:#A4C9FF;}
	.st6{fill:#FFEA92;}
	.st7{fill:#F9CFCF;}
	.st8{fill:#FFE164;}
	.st9{fill:#FFDC85;}
	.st10{fill:#FFEA94;}
	.st11{fill:#B9BEFC;}
	.st12{fill:#EAA97D;}
</style>
<g>
	<g>
		<path class="st0" d="M196.818,248H25.182c-4.82,0-8.727-3.907-8.727-8.727V16.727c0-4.82,3.907-8.727,8.727-8.727h171.636
			c4.82,0,8.727,3.907,8.727,8.727v222.545C205.546,244.093,201.638,248,196.818,248z"/>
	</g>
	<g>
		<path class="st1" d="M196.818,250H25.182c-5.915,0-10.728-4.812-10.728-10.727V16.727C14.455,10.812,19.267,6,25.182,6h171.636
			c5.915,0,10.728,4.812,10.728,10.727v222.546C207.546,245.188,202.733,250,196.818,250z M25.182,10
			c-3.709,0-6.728,3.018-6.728,6.727v222.546c0,3.709,3.018,6.727,6.728,6.727h171.636c3.71,0,6.728-3.018,6.728-6.727V16.727
			c0-3.709-3.018-6.727-6.728-6.727H25.182z"/>
	</g>
	<g>
		<path class="st5" d="M180.301,42.793H41.699c-3.199,0-5.793-2.593-5.793-5.793v0c0-3.199,2.593-5.793,5.793-5.793h138.602
			c3.199,0,5.793,2.593,5.793,5.793v0C186.094,40.199,183.5,42.793,180.301,42.793z"/>
	</g>
	<g>
		<path class="st5" d="M56.907,72h-12c-1.657,0-3-1.343-3-3V57c0-1.657,1.343-3,3-3h12c1.657,0,3,1.343,3,3v12
			C59.907,70.657,58.564,72,56.907,72z"/>
	</g>
	<g>
		<path class="st5" d="M180.301,94.793H41.699c-3.199,0-5.793-2.593-5.793-5.793v0c0-3.199,2.593-5.793,5.793-5.793h138.602
			c3.199,0,5.793,2.593,5.793,5.793v0C186.094,92.199,183.5,94.793,180.301,94.793z"/>
	</g>
	<g>
		<path class="st5" d="M180.301,120.793H41.699c-3.199,0-5.793-2.593-5.793-5.793v0c0-3.199,2.593-5.793,5.793-5.793h138.602
			c3.199,0,5.793,2.593,5.793,5.793v0C186.094,118.199,183.5,120.793,180.301,120.793z"/>
	</g>
	<g>
		<path class="st5" d="M180.301,172.793H41.699c-3.199,0-5.793-2.593-5.793-5.793l0,0c0-3.199,2.593-5.793,5.793-5.793h138.602
			c3.199,0,5.793,2.593,5.793,5.793l0,0C186.094,170.199,183.5,172.793,180.301,172.793z"/>
	</g>
	<g>
		<path class="st5" d="M180.301,198.793H41.699c-3.199,0-5.793-2.593-5.793-5.793l0,0c0-3.199,2.593-5.793,5.793-5.793h138.602
			c3.199,0,5.793,2.593,5.793,5.793l0,0C186.094,196.199,183.5,198.793,180.301,198.793z"/>
	</g>
	<g>
		<path class="st5" d="M116.907,72h-12c-1.657,0-3-1.343-3-3V57c0-1.657,1.343-3,3-3h12c1.657,0,3,1.343,3,3v12
			C119.907,70.657,118.564,72,116.907,72z"/>
	</g>
	<g>
		<path class="st5" d="M176.907,72h-12c-1.657,0-3-1.343-3-3V57c0-1.657,1.343-3,3-3h12c1.657,0,3,1.343,3,3v12
			C179.907,70.657,178.564,72,176.907,72z"/>
	</g>
	<g>
		<path class="st5" d="M56.907,150h-12c-1.657,0-3-1.343-3-3v-12c0-1.657,1.343-3,3-3h12c1.657,0,3,1.343,3,3v12
			C59.907,148.657,58.564,150,56.907,150z"/>
	</g>
	<g>
		<path class="st5" d="M116.907,150h-12c-1.657,0-3-1.343-3-3v-12c0-1.657,1.343-3,3-3h12c1.657,0,3,1.343,3,3v12
			C119.907,148.657,118.564,150,116.907,150z"/>
	</g>
	<g>
		<path class="st5" d="M176.907,150h-12c-1.657,0-3-1.343-3-3v-12c0-1.657,1.343-3,3-3h12c1.657,0,3,1.343,3,3v12
			C179.907,148.657,178.564,150,176.907,150z"/>
	</g>
	<g>
		<path class="st5" d="M56.907,228h-12c-1.657,0-3-1.343-3-3v-12c0-1.657,1.343-3,3-3h12c1.657,0,3,1.343,3,3v12
			C59.907,226.657,58.564,228,56.907,228z"/>
	</g>
	<g>
		<path class="st5" d="M116.907,228h-12c-1.657,0-3-1.343-3-3v-12c0-1.657,1.343-3,3-3h12c1.657,0,3,1.343,3,3v12
			C119.907,226.657,118.564,228,116.907,228z"/>
	</g>
	<g>
		<circle class="st4" cx="189.545" cy="184.17" r="50"/>
	</g>
	<g>
		<circle class="st0" cx="189.545" cy="184.17" r="36.607"/>
	</g>
	<g>
		<path class="st1" d="M189.545,236.17c-28.673,0-52-23.327-52-52s23.327-52,52-52s52,23.327,52,52S218.218,236.17,189.545,236.17z
			 M189.545,136.17c-26.468,0-48,21.533-48,48s21.532,48,48,48s48-21.533,48-48S216.013,136.17,189.545,136.17z"/>
	</g>
	<g>
		<path class="st1" d="M189.545,222.777c-21.288,0-38.606-17.319-38.606-38.607s17.318-38.607,38.606-38.607
			s38.607,17.319,38.607,38.607S210.833,222.777,189.545,222.777z M189.545,149.563c-19.082,0-34.606,15.525-34.606,34.607
			s15.524,34.607,34.606,34.607c19.083,0,34.607-15.524,34.607-34.607S208.628,149.563,189.545,149.563z"/>
	</g>
	<g>
		<path class="st11" d="M189.545,185.498v-27.134c15.224,0,27.678,12.065,28.316,27.134H189.545z"/>
	</g>
	<g>
		<path class="st2" d="M189.623,188.16c-1.534,0-2.778-1.244-2.778-2.778V158.48c0-1.534,1.244-2.778,2.778-2.778
			c1.534,0,2.778,1.244,2.778,2.778v26.903C192.401,186.917,191.157,188.16,189.623,188.16z"/>
	</g>
	<g>
		<path class="st2" d="M216.526,182.605h-26.903c-1.534,0-2.778,1.244-2.778,2.778c0,1.534,1.244,2.778,2.778,2.778h26.903
			c1.534,0,2.778-1.244,2.778-2.778C219.304,183.849,218.06,182.605,216.526,182.605z"/>
	</g>
	<g>
		<path class="st7" d="M109.923,69.563c-0.005,0-0.009,0-0.013,0c-1.324-0.004-2.571-0.651-3.336-1.73l-5.629-7.928
			c-0.875-1.233-0.586-2.942,0.648-3.818c1.234-0.876,2.943-0.584,3.818,0.648l4.52,6.366l11.822-16.435
			c0.883-1.228,2.594-1.507,3.822-0.624c1.227,0.883,1.507,2.594,0.624,3.822l-12.941,17.991
			C112.487,68.925,111.241,69.563,109.923,69.563z"/>
	</g>
	<g>
		<path class="st7" d="M109.923,147.563c-0.005,0-0.009,0-0.013,0c-1.324-0.004-2.571-0.651-3.336-1.73l-5.629-7.928
			c-0.875-1.233-0.586-2.942,0.648-3.818c1.234-0.876,2.943-0.584,3.818,0.648l4.52,6.366l11.822-16.435
			c0.883-1.228,2.594-1.507,3.822-0.624c1.227,0.883,1.507,2.594,0.624,3.822l-12.941,17.991
			C112.487,146.925,111.241,147.563,109.923,147.563z"/>
	</g>
	<g>
		<path class="st7" d="M194.747,38.413l-70.735,70.735l-4.09,22.28c-0.14,0.763,0.666,1.569,1.429,1.429l22.28-4.09l70.735-70.735
			L194.747,38.413z"/>
	</g>
	<g>
		<path class="st3" d="M209.325,52.99l-67.88,67.88c1.763,1.763,0.108,6.288,2.22,7.865l70.703-70.703L209.325,52.99z"/>
	</g>
	<g>
		<path class="st3" d="M199.79,43.455l-67.88,67.88c0.928,0.928,0.725,1.659,1.237,6.285c0.383,3.458,6.385,1.338,8.298,3.25
			l67.88-67.88L199.79,43.455z"/>
	</g>
	<g>
		<path class="st3" d="M194.747,38.413l-70.703,70.703c1.576,2.112,6.102,0.457,7.865,2.22l67.88-67.88L194.747,38.413z"/>
	</g>
	<g>
		
			<rect x="194.423" y="39.196" transform="matrix(-0.7071 -0.7071 0.7071 -0.7071 324.1295 223.2256)" class="st0" width="27.746" height="10.575"/>
	</g>
	<g>
		<path class="st4" d="M221.452,20.088l11.24,11.24c2.314,2.314,2.314,6.066,0,8.38l-10.846,10.847l-19.62-19.62l10.847-10.847
			C215.386,17.774,219.138,17.774,221.452,20.088z"/>
	</g>
	<g>
		<path class="st1" d="M214.367,60.032c-0.53,0-1.039-0.211-1.414-0.586l-19.62-19.62c-0.375-0.375-0.586-0.884-0.586-1.414
			s0.211-1.039,0.586-1.414l7.479-7.478c0.781-0.781,2.047-0.781,2.828,0l19.619,19.62c0.781,0.781,0.781,2.047,0,2.828
			l-7.478,7.478C215.406,59.821,214.897,60.032,214.367,60.032z M197.575,38.413l16.792,16.791l4.649-4.649l-16.791-16.791
			L197.575,38.413z"/>
	</g>
	<g>
		<path class="st1" d="M221.845,52.554c-0.53,0-1.039-0.211-1.414-0.586l-19.619-19.62c-0.781-0.781-0.781-2.047,0-2.828
			l10.847-10.847c1.496-1.497,3.486-2.321,5.604-2.321s4.107,0.824,5.604,2.321c0,0,0,0,0,0l11.239,11.24
			c1.497,1.497,2.321,3.487,2.321,5.604s-0.824,4.107-2.321,5.604l-10.847,10.846C222.884,52.343,222.375,52.554,221.845,52.554z
			 M205.054,30.935l16.791,16.791l9.433-9.432c0.741-0.742,1.149-1.728,1.149-2.776s-0.408-2.034-1.149-2.775l-11.239-11.24
			c-1.482-1.482-4.069-1.482-5.552,0L205.054,30.935z"/>
	</g>
	<g>
		<path class="st2" d="M122.292,118.521l-2.369,12.907c-0.14,0.763,0.666,1.569,1.429,1.429l12.907-2.369L122.292,118.521z"/>
	</g>
	<g>
		<path class="st1" d="M121.176,134.873c-0.833,0-1.661-0.347-2.292-0.977c-0.766-0.766-1.114-1.824-0.929-2.829l4.089-22.28
			c0.073-0.399,0.266-0.767,0.553-1.053l70.735-70.735c0.781-0.781,2.047-0.781,2.828,0l19.62,19.62
			c0.375,0.375,0.586,0.884,0.586,1.414s-0.211,1.039-0.586,1.414l-70.735,70.735c-0.287,0.287-0.654,0.48-1.053,0.553l-22.28,4.09
			C121.535,134.857,121.355,134.873,121.176,134.873z M125.867,110.121l-3.774,20.566l20.566-3.775l68.881-68.88l-16.792-16.791
			L125.867,110.121z"/>
	</g>
</g>
</svg>
