<?xml version="1.0" encoding="utf-8"?>
<!-- Generator: Adobe Illustrator 22.1.0, SVG Export Plug-In . SVG Version: 6.00 Build 0)  -->
<svg version="1.1" id="Layer_1" xmlns="http://www.w3.org/2000/svg" xmlns:xlink="http://www.w3.org/1999/xlink" x="0px" y="0px"
	 viewBox="0 0 256 256" style="enable-background:new 0 0 256 256;" xml:space="preserve">
<style type="text/css">
	.st0{fill:#E0EBFC;}
	.st1{fill:#3762CC;}
	.st2{fill:#4671C6;}
	.st3{fill:#6BDDDD;}
	.st4{fill:#F9A7A7;}
	.st5{fill:#A4C9FF;}
	.st6{fill:#FFEA92;}
	.st7{fill:#F9CFCF;}
	.st8{fill:#FFE164;}
	.st9{fill:#FFDC85;}
	.st10{fill:#FFEA94;}
	.st11{fill:#B9BEFC;}
	.st12{fill:#EAA97D;}
</style>
<g>
	<g>
		<path class="st7" d="M126.483,24.137C98.113,1.164,54.218,8.346,28.44,40.178c-25.778,31.833-23.676,76.262,4.694,99.236
			c28.37,22.974,72.265,15.792,98.043-16.041C156.954,91.54,154.853,47.111,126.483,24.137z M76.944,142.583
			c-11.948,0.652-22.106-7.452-22.687-18.101c-0.581-10.648,8.634-19.81,20.582-20.461c11.948-0.652,22.106,7.452,22.687,18.101
			C98.107,132.77,88.892,141.931,76.944,142.583z"/>
	</g>
	<g>
		<path class="st1" d="M71.865,154.874c-14.822,0-28.717-4.777-39.99-13.905c-14.17-11.476-22.478-28.436-23.392-47.756
			c-0.91-19.233,5.626-38.516,18.402-54.293C53.316,6.28,98.56-1.047,127.742,22.583l0,0c29.181,23.631,31.419,69.41,4.99,102.049
			c-12.777,15.777-30.278,26.179-49.281,29.288C79.547,154.559,75.675,154.874,71.865,154.874z M87.678,12.716
			c-20.835,0-42.505,9.977-57.684,28.722C17.836,56.451,11.616,74.771,12.479,93.024c0.859,18.165,8.642,34.088,21.914,44.835
			c13.271,10.747,30.464,15.05,48.412,12.113c18.033-2.951,34.66-12.844,46.818-27.858c25.042-30.925,23.069-74.18-4.398-96.422l0,0
			C114.406,16.932,101.217,12.716,87.678,12.716z M75.607,144.619c-12.398,0.001-22.73-8.731-23.347-20.027
			c-0.64-11.733,9.44-21.856,22.47-22.568c13.02-0.707,24.153,8.256,24.793,19.988c0.64,11.733-9.44,21.856-22.471,22.568l0,0
			C76.568,144.606,76.085,144.619,75.607,144.619z M76.944,142.583h0.01H76.944z M76.177,105.984c-0.408,0-0.816,0.011-1.229,0.033
			c-10.828,0.591-19.214,8.825-18.694,18.355s9.758,16.811,20.581,16.213c10.828-0.591,19.214-8.825,18.694-18.355
			C95.029,113.063,86.466,105.984,76.177,105.984z"/>
	</g>
	<g>
		<circle class="st2" cx="111.185" cy="41.221" r="12.903"/>
	</g>
	<g>
		<circle class="st3" cx="74.646" cy="38.672" r="12.903"/>
	</g>
	<g>
		<circle class="st6" cx="44.865" cy="57.001" r="12.903"/>
	</g>
	<g>
		<circle class="st4" cx="34.134" cy="90.756" r="12.903"/>
	</g>
	<g>
		<path class="st5" d="M245.393,103.5c-0.127-2.315-2.042-4.12-4.361-4.12h-50.101h-50.101c-2.319,0-4.234,1.805-4.361,4.12
			c-0.86,15.712-0.907,71.91,40.377,90.493c8.939,4.024,19.23,4.024,28.169,0C246.3,175.41,246.253,119.211,245.393,103.5z"/>
	</g>
	<g>
		<path class="st2" d="M176.645,172.777c0-8.212,6.657-14.869,14.869-14.869h0c8.212,0,14.869,6.657,14.869,14.869H176.645z"/>
	</g>
	<g>
		<path class="st2" d="M163.602,141.943c-8.11,0-15.551-5.42-17.747-13.617c-0.5-1.866,0.608-3.786,2.476-4.286
			c1.864-0.498,3.786,0.607,4.286,2.476c1.623,6.055,7.867,9.655,13.924,8.038c6.055-1.623,9.661-7.869,8.039-13.925
			c-0.5-1.867,0.608-3.786,2.476-4.286c1.862-0.496,3.786,0.608,4.286,2.476C184.448,130.415,175.704,141.943,163.602,141.943z"/>
	</g>
	<g>
		<path class="st2" d="M201.683,118.815c0.5-1.868,2.422-2.976,4.286-2.476c1.867,0.5,2.976,2.42,2.476,4.286
			c-2.619,9.779,7.954,17.82,16.666,12.789c2.63-1.519,4.511-3.971,5.297-6.903c0.5-1.868,2.424-2.976,4.286-2.476
			c1.867,0.5,2.976,2.419,2.476,4.286c-1.27,4.74-4.309,8.701-8.559,11.154C214.458,147.651,197.469,134.541,201.683,118.815z"/>
	</g>
	<g>
		<path class="st1" d="M190.932,199.015c-5.084,0-10.169-1.065-14.905-3.197c-42.209-19-42.477-75.548-41.554-92.427
			c0.185-3.37,2.978-6.011,6.358-6.011h100.201c3.381,0,6.174,2.641,6.358,6.011l0,0c0.923,16.879,0.655,73.427-41.554,92.427
			C201.101,197.949,196.016,199.015,190.932,199.015z M140.831,101.38c-1.257,0-2.296,0.979-2.364,2.229
			c-0.888,16.236-0.686,70.605,39.202,88.56c8.428,3.795,18.098,3.795,26.525,0c39.888-17.954,40.09-72.323,39.202-88.56
			c-0.068-1.25-1.107-2.229-2.364-2.229H140.831z"/>
	</g>
	<g>
		<path class="st4" d="M171.168,151.799c-0.127-2.315-2.042-4.12-4.361-4.12h-50.101H66.606c-2.319,0-4.234,1.805-4.361,4.12
			c-0.86,15.712-0.907,71.91,40.377,90.493c8.939,4.024,19.23,4.024,28.169,0C172.075,223.71,172.028,167.511,171.168,151.799z"/>
	</g>
	<g>
		<path class="st6" d="M132.158,206.208c0,8.212-6.657,14.869-14.869,14.869h0c-8.212,0-14.869-6.657-14.869-14.869H132.158z"/>
	</g>
	<g>
		<path class="st6" d="M106.14,190.038c-0.004,0-0.008,0-0.013,0c-1.933-0.007-3.495-1.579-3.488-3.513
			c0.022-6.268-5.06-11.386-11.329-11.408c-0.013,0-0.027,0-0.04,0c-6.251,0-11.347,5.073-11.369,11.329
			c-0.007,1.929-1.573,3.487-3.5,3.487c-0.004,0-0.008,0-0.013,0c-1.933-0.007-3.495-1.579-3.488-3.513
			c0.036-10.105,8.27-18.304,18.369-18.304c0.021,0,0.042,0,0.064,0c10.128,0.036,18.34,8.306,18.304,18.434
			C109.632,188.48,108.066,190.038,106.14,190.038z"/>
	</g>
	<g>
		<path class="st6" d="M128.408,189.984c-1.933,0-3.5-1.567-3.5-3.5c0-10.129,8.24-18.369,18.369-18.369
			c10.128,0,18.368,8.24,18.368,18.368c0,1.933-1.567,3.5-3.5,3.5s-3.5-1.567-3.5-3.5c0-6.269-5.1-11.368-11.368-11.368
			s-11.369,5.101-11.369,11.369C131.908,188.416,130.341,189.984,128.408,189.984z"/>
	</g>
	<g>
		<path class="st1" d="M116.707,247.314c-5.084,0-10.169-1.065-14.905-3.197c-42.21-19.001-42.477-75.548-41.553-92.427
			c0.184-3.371,2.977-6.012,6.357-6.012h100.202c3.38,0,6.173,2.641,6.357,6.012l0,0c0.923,16.879,0.655,73.428-41.553,92.427
			C126.875,246.249,121.791,247.314,116.707,247.314z M66.605,149.679c-1.257,0-2.295,0.979-2.363,2.23
			c-0.889,16.235-0.688,70.604,39.201,88.56c8.43,3.795,18.098,3.795,26.527,0c39.887-17.953,40.089-72.323,39.201-88.56
			c-0.068-1.251-1.106-2.23-2.363-2.23H66.605z"/>
	</g>
	<g>
		<path class="st0" d="M120.357,99.97L120.357,99.97c5.518-1.392,8.422-4.199,11.361-9.089l-0.006,0.002
			c3.737-7.018,2.182-16.359-5.317-21.156c-6.305-4.035-14.271-3.367-19.786,1.098c-1.089,0.882-2.529,1.243-3.911,1.01
			c-3.489-0.588-6.919-1.868-10.088-3.896l-0.028-0.018c-1.194-0.765-2.764-0.043-2.998,1.356
			c-1.604,9.594,2.048,19.622,10.038,25.862c1.881,1.469,3.661,2.224,6.006,3.331C110.615,100.824,116.207,101.177,120.357,99.97z"
			/>
	</g>
	<g>
		<path class="st1" d="M115.282,102.656c-3.511,0-7.186-0.81-10.508-2.378l-0.792-0.372c-2.012-0.941-3.75-1.755-5.59-3.191
			c-8.415-6.572-12.545-17.212-10.78-27.769c0.222-1.33,1.088-2.45,2.316-2.995c1.216-0.54,2.61-0.433,3.732,0.284
			c2.891,1.851,6.034,3.064,9.37,3.626c0.825,0.142,1.69-0.082,2.321-0.593c6.347-5.137,15.238-5.632,22.122-1.228
			c7.898,5.054,10.493,15.201,6.07,23.656c-0.033,0.072-0.07,0.145-0.112,0.214c-2.896,4.82-6.142,8.365-12.555,9.991
			C119.121,102.408,117.227,102.656,115.282,102.656z M91.533,69.623c-1.499,9.092,2.064,18.271,9.321,23.939
			c1.483,1.158,2.884,1.813,4.824,2.721l0.805,0.378c4.252,2.009,9.355,2.541,13.316,1.389c0.023-0.006,0.046-0.013,0.069-0.019
			c4.508-1.137,7.154-3.254,10.07-8.07c0.003-0.007,0.006-0.013,0.009-0.019c2.998-5.63,2.395-14.038-4.628-18.532
			c-5.43-3.474-12.443-3.086-17.45,0.969c-1.533,1.239-3.539,1.763-5.502,1.427C98.497,73.154,94.852,71.747,91.533,69.623z"/>
	</g>
	<g>
		<path class="st3" d="M145.717,91.459c0.968-0.165,1.675-1.003,1.675-1.985c0-0.292,0-12.844,0-12.607
			c0-0.982-0.708-1.82-1.675-1.985l-14.599-2.486c-0.919-0.156-1.757,0.551-1.757,1.483c0,0.431,0,18.933,0,18.583
			c0,0.932,0.838,1.639,1.757,1.483L145.717,91.459z"/>
	</g>
	<g>
		<path class="st2" d="M238.054,75.7l-90.669,1.089c0.001,0.026,0.007,0.051,0.007,0.077c0,4.562,0,8.045,0,12.607
			c0,0.016-0.004,0.03-0.004,0.046l90.666,1.088c4.152,0.05,7.544-3.302,7.544-7.454C245.598,79.003,242.206,75.651,238.054,75.7z"
			/>
	</g>
	<g>
		<path class="st1" d="M130.863,95.967c-0.82,0-1.62-0.288-2.258-0.827c-0.786-0.663-1.238-1.631-1.244-2.657
			c0-0.006,0-0.011,0-0.016V73.879c0-1.035,0.453-2.011,1.244-2.678c0.791-0.668,1.827-0.95,2.849-0.777l14.599,2.486
			c1.932,0.329,3.335,1.987,3.34,3.945c0,0.002,0,0.005,0,0.008v12.61c0,1.963-1.404,3.627-3.34,3.957l0,0l-14.599,2.486
			C131.257,95.95,131.06,95.967,130.863,95.967z M131.361,74.466v17.409l14.02-2.388c0.008-0.001,0.012-0.008,0.012-0.014V76.866
			L131.361,74.466z M145.717,91.459h0.01H145.717z"/>
	</g>
	<g>
		<path class="st1" d="M238.147,92.609c-0.039,0-0.078-0.001-0.117-0.001l-90.666-1.088c-1.095-0.014-1.976-0.905-1.976-2
			c0-0.037,0.001-0.079,0.004-0.121V76.95c-0.003-0.032-0.005-0.063-0.006-0.087c-0.02-0.539,0.179-1.063,0.551-1.453
			c0.371-0.391,0.885-0.614,1.424-0.621L238.03,73.7l0,0c0.039,0,0.078-0.001,0.117-0.001c2.503,0,4.857,0.967,6.642,2.729
			c1.812,1.79,2.81,4.179,2.81,6.726s-0.998,4.936-2.81,6.726C243.005,91.643,240.65,92.609,238.147,92.609z M149.393,87.544
			l88.687,1.064c1.454,0.018,2.853-0.541,3.898-1.574c1.046-1.032,1.621-2.41,1.621-3.88c0-1.469-0.576-2.847-1.621-3.88
			c-1.046-1.032-2.439-1.604-3.898-1.574l-88.687,1.064V87.544z M147.386,76.789h0.01H147.386z"/>
	</g>
	<g>
		<path class="st5" d="M96.058,79.695c-2.412-1.076-0.789-4.727,1.63-3.652c1.92,0.857,3.948,1.469,6.025,1.818
			c0.823,0.14,1.691-0.082,2.322-0.593c2.747-2.225,6.063-3.632,9.588-4.069c2.62-0.329,3.121,3.643,0.493,3.969
			C106.813,78.324,109.022,85.484,96.058,79.695z"/>
	</g>
</g>
</svg>
