<?xml version="1.0" encoding="utf-8"?>
<!-- Generator: Adobe Illustrator 22.1.0, SVG Export Plug-In . SVG Version: 6.00 Build 0)  -->
<svg version="1.1" id="Layer_1" xmlns="http://www.w3.org/2000/svg" xmlns:xlink="http://www.w3.org/1999/xlink" x="0px" y="0px"
	 viewBox="0 0 256 256" style="enable-background:new 0 0 256 256;" xml:space="preserve">
<style type="text/css">
	.st0{fill:#E0EBFC;}
	.st1{fill:#3762CC;}
	.st2{fill:#4671C6;}
	.st3{fill:#6BDDDD;}
	.st4{fill:#F9A7A7;}
	.st5{fill:#A4C9FF;}
	.st6{fill:#FFEA92;}
	.st7{fill:#F9CFCF;}
	.st8{fill:#FFE164;}
	.st9{fill:#FFDC85;}
	.st10{fill:#FFEA94;}
	.st11{fill:#B9BEFC;}
	.st12{fill:#EAA97D;}
</style>
<g>
	<g>
		<rect x="142.936" y="85.234" class="st0" width="37.716" height="26.836"/>
	</g>
	<g>
		<rect x="16.755" y="85.234" class="st0" width="39.228" height="26.836"/>
	</g>
	<g>
		<rect x="55.983" y="79.153" class="st5" width="86.953" height="65.801"/>
	</g>
	<g>
		<path class="st7" d="M55.983,73.689H9.512C8.677,73.689,8,74.365,8,75.2v8.522c0,0.835,0.677,1.512,1.512,1.512h46.471V73.689z"/>
	</g>
	<g>
		<path class="st1" d="M55.983,87.234H9.512C7.575,87.234,6,85.659,6,83.722V75.2c0-1.937,1.575-3.512,3.512-3.512h46.471
			c1.104,0,2,0.896,2,2v11.545C57.983,86.338,57.087,87.234,55.983,87.234z M10,83.234h43.983v-7.545H10V83.234z"/>
	</g>
	<g>
		<rect x="16.755" y="118.117" class="st0" width="39.228" height="29.104"/>
	</g>
	<g>
		<path class="st1" d="M55.983,149.222H16.755c-1.104,0-2-0.896-2-2v-29.104c0-1.104,0.896-2,2-2h39.228c1.104,0,2,0.896,2,2v29.104
			C57.983,148.326,57.087,149.222,55.983,149.222z M18.755,145.222h35.228v-25.104H18.755V145.222z"/>
	</g>
	<g>
		<rect x="142.936" y="118.117" class="st0" width="37.716" height="29.104"/>
	</g>
	<g>
		<path class="st1" d="M180.652,149.222h-37.716c-1.104,0-2-0.896-2-2v-29.104c0-1.104,0.896-2,2-2h37.716c1.104,0,2,0.896,2,2
			v29.104C182.652,148.326,181.756,149.222,180.652,149.222z M144.936,145.222h33.716v-25.104h-33.716V145.222z"/>
	</g>
	<g>
		<path class="st7" d="M55.983,118.117H15.37c-0.835,0-1.512-0.677-1.512-1.512v-3.023c0-0.835,0.677-1.512,1.512-1.512h40.613
			V118.117z"/>
	</g>
	<g>
		<path class="st7" d="M187.895,73.689h-44.959v11.545h44.959c0.835,0,1.512-0.677,1.512-1.512V75.2
			C189.407,74.365,188.73,73.689,187.895,73.689z"/>
	</g>
	<g>
		<path class="st2" d="M175.416,49.9c-0.834-1.946-2.747-3.208-4.864-3.208H98.703H26.854c-2.117,0-4.03,1.262-4.864,3.208
			L11.8,73.689h86.903h86.903L175.416,49.9z"/>
	</g>
	<g>
		<path class="st1" d="M187.895,87.234h-44.959c-1.104,0-2-0.896-2-2V73.688c0-1.104,0.896-2,2-2h44.959
			c1.937,0,3.512,1.575,3.512,3.512v8.522C191.407,85.659,189.832,87.234,187.895,87.234z M144.936,83.234h42.471v-7.545h-42.471
			V83.234z M187.895,75.688h0.01H187.895z"/>
	</g>
	<g>
		<path class="st1" d="M185.606,75.688H11.8c-0.672,0-1.299-0.338-1.669-0.899s-0.434-1.271-0.169-1.889l10.191-23.789
			c1.151-2.685,3.782-4.42,6.702-4.42h143.698c2.921,0,5.552,1.735,6.702,4.42l10.191,23.789c0.265,0.618,0.201,1.328-0.169,1.889
			S186.279,75.688,185.606,75.688z M14.833,71.688h167.741l-8.997-21.001l0,0c-0.519-1.212-1.707-1.995-3.025-1.995H26.854
			c-1.318,0-2.506,0.783-3.025,1.996L14.833,71.688z"/>
	</g>
	<g>
		<path class="st5" d="M14.047,147.222h33.636v8.314H12.535v-6.803C12.535,147.898,13.212,147.222,14.047,147.222z"/>
	</g>
	<g>
		<path class="st4" d="M157.66,67.856H39.746c-0.835,0-1.512,0.677-1.512,1.512v8.274c0,0.835,0.677,1.512,1.512,1.512H157.66
			c0.835,0,1.512-0.677,1.512-1.512v-8.274C159.172,68.533,158.495,67.856,157.66,67.856z"/>
	</g>
	<g>
		<path class="st0" d="M41.418,67.856h114.571l-53.236-48c-2.301-2.075-5.798-2.075-8.098,0L41.418,67.856z"/>
	</g>
	<g>
		<path class="st5" d="M30.55,106.085h-6.047c-0.835,0-1.512-0.677-1.512-1.512V94.311c0-0.835,0.677-1.512,1.512-1.512h6.047
			c0.835,0,1.512,0.677,1.512,1.512v10.262C32.062,105.408,31.385,106.085,30.55,106.085z"/>
	</g>
	<g>
		<path class="st5" d="M45.667,106.085H39.62c-0.835,0-1.512-0.677-1.512-1.512V94.311c0-0.835,0.677-1.512,1.512-1.512h6.047
			c0.835,0,1.512,0.677,1.512,1.512v10.262C47.179,105.408,46.502,106.085,45.667,106.085z"/>
	</g>
	<g>
		<path class="st5" d="M30.55,137.957h-6.047c-0.835,0-1.512-0.677-1.512-1.512v-10.262c0-0.835,0.677-1.512,1.512-1.512h6.047
			c0.835,0,1.512,0.677,1.512,1.512v10.262C32.062,137.28,31.385,137.957,30.55,137.957z"/>
	</g>
	<g>
		<path class="st5" d="M45.667,137.957H39.62c-0.835,0-1.512-0.677-1.512-1.512v-10.262c0-0.835,0.677-1.512,1.512-1.512h6.047
			c0.835,0,1.512,0.677,1.512,1.512v10.262C47.179,137.28,46.502,137.957,45.667,137.957z"/>
	</g>
	<g>
		<path class="st5" d="M157.409,106.085h-6.047c-0.835,0-1.512-0.677-1.512-1.512V94.311c0-0.835,0.677-1.512,1.512-1.512h6.047
			c0.835,0,1.512,0.677,1.512,1.512v10.262C158.92,105.408,158.243,106.085,157.409,106.085z"/>
	</g>
	<g>
		<path class="st5" d="M172.526,106.085h-6.047c-0.835,0-1.512-0.677-1.512-1.512V94.311c0-0.835,0.677-1.512,1.512-1.512h6.047
			c0.835,0,1.512,0.677,1.512,1.512v10.262C174.037,105.408,173.361,106.085,172.526,106.085z"/>
	</g>
	<g>
		<path class="st5" d="M157.409,137.957h-6.047c-0.835,0-1.512-0.677-1.512-1.512v-10.262c0-0.835,0.677-1.512,1.512-1.512h6.047
			c0.835,0,1.512,0.677,1.512,1.512v10.262C158.92,137.28,158.243,137.957,157.409,137.957z"/>
	</g>
	<g>
		<path class="st5" d="M172.526,137.957h-6.047c-0.835,0-1.512-0.677-1.512-1.512v-10.262c0-0.835,0.677-1.512,1.512-1.512h6.047
			c0.835,0,1.512,0.677,1.512,1.512v10.262C174.037,137.28,173.361,137.957,172.526,137.957z"/>
	</g>
	<g>
		<circle class="st6" cx="98.703" cy="47.065" r="17.661"/>
	</g>
	<g>
		<circle class="st2" cx="98.703" cy="47.065" r="13.22"/>
	</g>
	<g>
		<path class="st3" d="M105.537,38.666c-0.386-0.413-0.891-0.623-1.503-0.623c-0.614,0-1.115,0.211-1.49,0.628
			c-0.364,0.405-0.549,1.007-0.549,1.788v8.308c0,1.344-0.251,2.348-0.747,2.985c-0.475,0.61-1.325,0.919-2.528,0.919
			c-0.885,0-1.573-0.155-2.044-0.462c-0.468-0.304-0.785-0.721-0.969-1.275c-0.196-0.588-0.296-1.34-0.296-2.235V40.46
			c0-0.774-0.187-1.374-0.555-1.783c-0.378-0.42-0.889-0.633-1.518-0.633c-0.607,0-1.106,0.213-1.484,0.633
			c-0.368,0.409-0.555,1.009-0.555,1.783v8.056c0,1.294,0.143,2.426,0.427,3.366c0.29,0.964,0.755,1.768,1.382,2.391
			c0.626,0.622,1.442,1.087,2.425,1.381c0.959,0.287,2.112,0.432,3.428,0.432c1.114,0,2.104-0.136,2.944-0.406
			c0.854-0.274,1.614-0.715,2.261-1.314c0.753-0.704,1.272-1.535,1.545-2.47c0.264-0.905,0.397-2.042,0.397-3.38V40.46
			C106.107,39.676,105.916,39.073,105.537,38.666z"/>
	</g>
	<g>
		<rect x="55.983" y="79.153" class="st7" width="16.017" height="65.801"/>
	</g>
	<g>
		<path class="st1" d="M72,146.954H55.983c-1.104,0-2-0.896-2-2V79.153c0-1.104,0.896-2,2-2H72c1.104,0,2,0.896,2,2v65.801
			C74,146.059,73.104,146.954,72,146.954z M57.983,142.954H70V81.153H57.983V142.954z"/>
	</g>
	<g>
		<path class="st1" d="M157.661,81.153H39.746c-1.937,0-3.512-1.575-3.512-3.512v-8.274c0-1.937,1.575-3.512,3.512-3.512h117.915
			c1.937,0,3.512,1.575,3.512,3.512v8.274C161.172,79.578,159.597,81.153,157.661,81.153z M40.234,77.153h116.938v-7.297H40.234
			V77.153z M157.661,69.856h0.01H157.661z"/>
	</g>
	<g>
		<path class="st1" d="M155.989,69.856H41.418c-0.828,0-1.57-0.51-1.867-1.283c-0.297-0.772-0.087-1.648,0.527-2.203l53.236-48
			c3.072-2.769,7.705-2.769,10.777,0l53.236,48c0.615,0.554,0.825,1.43,0.527,2.203C157.559,69.346,156.816,69.856,155.989,69.856z
			 M46.623,65.856h104.161l-49.371-44.514c-1.546-1.394-3.875-1.392-5.419,0L46.623,65.856z"/>
	</g>
	<g>
		<path class="st2" d="M113.54,144.954H83.867v-34.451c0-8.194,6.642-14.836,14.836-14.836h0c8.194,0,14.836,6.642,14.836,14.836
			V144.954z"/>
	</g>
	<g>
		<path class="st7" d="M142.936,112.071h39.857c0.835,0,1.512,0.677,1.512,1.512v3.023c0,0.835-0.677,1.512-1.512,1.512h-39.857
			V112.071z"/>
	</g>
	<g>
		<path class="st1" d="M55.983,120.118H15.37c-1.937,0-3.512-1.575-3.512-3.512v-3.023c0-1.937,1.575-3.512,3.512-3.512h40.613
			c1.104,0,2,0.896,2,2v6.047C57.983,119.222,57.087,120.118,55.983,120.118z M15.858,116.118h38.125v-2.047H15.858V116.118z"/>
	</g>
	<g>
		<path class="st1" d="M182.793,120.118h-39.857c-1.104,0-2-0.896-2-2v-6.047c0-1.104,0.896-2,2-2h39.857
			c1.937,0,3.512,1.575,3.512,3.512v3.023C186.305,118.542,184.729,120.118,182.793,120.118z M144.936,116.118h37.369v-2.047
			h-37.369V116.118z"/>
	</g>
	<g>
		<path class="st1" d="M98.703,66.726c-10.841,0-19.661-8.82-19.661-19.661c0-10.841,8.82-19.661,19.661-19.661
			c10.841,0,19.661,8.82,19.661,19.661C118.364,57.906,109.544,66.726,98.703,66.726z M98.703,31.404
			c-8.635,0-15.661,7.025-15.661,15.661c0,8.636,7.025,15.661,15.661,15.661c8.636,0,15.661-7.025,15.661-15.661
			C114.364,38.429,107.339,31.404,98.703,31.404z"/>
	</g>
	<g>
		<path class="st4" d="M49.194,144.954h99.018c0.835,0,1.512,0.677,1.512,1.512v9.07H47.683v-9.07
			C47.683,145.631,48.36,144.954,49.194,144.954z"/>
	</g>
	<g>
		<path class="st1" d="M149.724,157.536H47.683c-1.104,0-2-0.896-2-2v-9.07c0-1.937,1.575-3.512,3.512-3.512h99.018
			c1.937,0,3.512,1.575,3.512,3.512v9.07C151.724,156.641,150.829,157.536,149.724,157.536z M49.683,153.536h98.042v-6.582H49.683
			V153.536z M148.212,146.954h0.01H148.212z"/>
	</g>
	<g>
		<path class="st5" d="M149.724,147.222h32.88c1.252,0,2.268,1.015,2.268,2.268v6.047h-35.148V147.222z"/>
	</g>
	<g>
		<path class="st4" d="M151.992,166.118H45.415c-0.835,0-1.512-0.677-1.512-1.512v-7.559c0-0.835,0.677-1.512,1.512-1.512h106.576
			c0.835,0,1.512,0.677,1.512,1.512v7.559C153.503,165.441,152.826,166.118,151.992,166.118z"/>
	</g>
	<g>
		<path class="st1" d="M47.683,157.536H12.535c-1.104,0-2-0.896-2-2v-6.803c0-1.937,1.575-3.512,3.512-3.512h33.636
			c1.104,0,2,0.896,2,2v8.314C49.683,156.641,48.787,157.536,47.683,157.536z M14.535,153.536h31.147v-4.314H14.535V153.536z"/>
	</g>
	<g>
		<path class="st1" d="M184.872,157.536h-35.147c-1.104,0-2-0.896-2-2v-8.314c0-1.104,0.896-2,2-2h32.88
			c2.353,0,4.268,1.915,4.268,4.268v6.047C186.872,156.641,185.976,157.536,184.872,157.536z M151.724,153.536h31.147v-4.047
			c0-0.147-0.12-0.268-0.268-0.268h-30.88V153.536z"/>
	</g>
	<g>
		<path class="st1" d="M151.992,168.118H45.415c-1.937,0-3.512-1.575-3.512-3.512v-7.559c0-1.937,1.575-3.512,3.512-3.512h106.577
			c1.937,0,3.512,1.575,3.512,3.512v7.559C155.503,166.543,153.928,168.118,151.992,168.118z M45.903,164.118h105.6v-6.582h-105.6
			V164.118z"/>
	</g>
	<g>
		<path class="st1" d="M180.652,114.071h-37.716c-1.104,0-2-0.896-2-2V85.234c0-1.104,0.896-2,2-2h37.716c1.104,0,2,0.896,2,2
			v26.837C182.652,113.175,181.756,114.071,180.652,114.071z M144.936,110.071h33.716V87.234h-33.716V110.071z"/>
	</g>
	<g>
		<path class="st1" d="M55.983,114.071H16.755c-1.104,0-2-0.896-2-2V85.234c0-1.104,0.896-2,2-2h39.228c1.104,0,2,0.896,2,2v26.837
			C57.983,113.175,57.087,114.071,55.983,114.071z M18.755,110.071h35.228V87.234H18.755V110.071z"/>
	</g>
	<g>
		<rect x="126.918" y="79.153" class="st7" width="16.017" height="65.801"/>
	</g>
	<g>
		<path class="st1" d="M142.936,146.954h-16.017c-1.104,0-2-0.896-2-2V79.153c0-1.104,0.896-2,2-2h16.017c1.104,0,2,0.896,2,2
			v65.801C144.936,146.059,144.04,146.954,142.936,146.954z M128.918,142.954h12.017V81.153h-12.017V142.954z"/>
	</g>
	<g>
		<rect x="225.836" y="118.112" class="st6" width="8.572" height="11.075"/>
	</g>
	<g>
		<path class="st12" d="M238.436,133.214h-4.027v-19.129h4.027c5.282,0,9.564,4.282,9.564,9.564v0
			C248,128.932,243.718,133.214,238.436,133.214z"/>
	</g>
	<g>
		<path class="st12" d="M110.395,114.085h4.027v19.129h-4.027c-5.282,0-9.564-4.282-9.564-9.564v0
			C100.831,118.367,105.113,114.085,110.395,114.085z"/>
	</g>
	<g>
		<path class="st2" d="M122.994,118.112v79.637c0,3.02,1.445,5.857,3.888,7.632l41.986,30.515c3.307,2.404,7.787,2.404,11.094,0
			l41.986-30.515c2.443-1.775,3.888-4.613,3.888-7.632v-79.637C210.937,118.112,137.92,118.112,122.994,118.112z"/>
	</g>
	<g>
		<path class="st3" d="M145.167,218.67l23.702,17.226c3.307,2.404,7.787,2.404,11.094,0l23.702-17.226V118.112
			c-7.105,0-51.367,0-58.497,0V218.67z"/>
	</g>
	<g>
		<path class="st6" d="M166.916,154.886v13.14h17.135c5.632,0,5.46,5.069,3.539,6.763c-1.587,1.401-2.431,1.051-20.674,1.051
			c0,18.163,0.429,19.69-1.454,21.708c-2.537,2.718-8.953,2.418-8.953-4.783c0-42.141-0.919-43.579,2.75-45.256
			c1.893-0.865,1.497-0.648,28.156-0.648c5.77,0,5.688,5.103,3.697,6.921C189.501,155.254,188.886,154.886,166.916,154.886z"/>
	</g>
	<g>
		<rect x="114.422" y="118.112" class="st6" width="8.572" height="11.075"/>
	</g>
	<g>
		<path class="st1" d="M234.409,131.187h-8.572c-1.104,0-2-0.896-2-2v-11.075c0-1.104,0.896-2,2-2h8.572c1.104,0,2,0.896,2,2v11.075
			C236.409,130.291,235.513,131.187,234.409,131.187z M227.836,127.187h4.572v-7.075h-4.572V127.187z"/>
	</g>
	<g>
		<path class="st1" d="M238.436,135.214h-4.027c-1.104,0-2-0.896-2-2v-19.129c0-1.104,0.896-2,2-2h4.027
			c6.376,0,11.564,5.188,11.564,11.564S244.812,135.214,238.436,135.214z M236.409,131.214h2.027c4.171,0,7.564-3.394,7.564-7.564
			s-3.394-7.564-7.564-7.564h-2.027V131.214z"/>
	</g>
	<g>
		<path class="st1" d="M114.422,135.214h-4.027c-6.376,0-11.564-5.188-11.564-11.564s5.188-11.564,11.564-11.564h4.027
			c1.104,0,2,0.896,2,2v19.129C116.422,134.318,115.527,135.214,114.422,135.214z M110.396,116.085
			c-4.171,0-7.564,3.394-7.564,7.564s3.394,7.564,7.564,7.564h2.027v-15.129H110.396z"/>
	</g>
	<g>
		<path class="st1" d="M122.995,131.187h-8.572c-1.104,0-2-0.896-2-2v-11.075c0-1.104,0.896-2,2-2h8.572c1.104,0,2,0.896,2,2v11.075
			C124.995,130.291,124.099,131.187,122.995,131.187z M116.422,127.187h4.572v-7.075h-4.572V127.187z"/>
	</g>
	<g>
		<path class="st1" d="M174.416,239.707c-2.356,0-4.712-0.73-6.723-2.192l-41.986-30.515c-2.951-2.145-4.712-5.603-4.712-9.25
			v-79.638c0-1.104,0.896-2,2-2h102.842c1.104,0,2,0.896,2,2v79.638c0,3.647-1.762,7.105-4.712,9.25l-41.986,30.515
			C179.128,238.976,176.771,239.707,174.416,239.707z M124.995,120.112v77.638c0,2.372,1.146,4.62,3.063,6.014l41.986,30.515
			c2.614,1.9,6.128,1.9,8.742,0l41.986-30.515c1.918-1.395,3.064-3.643,3.064-6.014v-77.638H124.995z"/>
	</g>
</g>
</svg>
