<?xml version="1.0" encoding="utf-8"?>
<!-- Generator: Adobe Illustrator 22.1.0, SVG Export Plug-In . SVG Version: 6.00 Build 0)  -->
<svg version="1.1" id="Layer_1" xmlns="http://www.w3.org/2000/svg" xmlns:xlink="http://www.w3.org/1999/xlink" x="0px" y="0px"
	 viewBox="0 0 256 256" style="enable-background:new 0 0 256 256;" xml:space="preserve">
<style type="text/css">
	.st0{fill:#E0EBFC;}
	.st1{fill:#3762CC;}
	.st2{fill:#4671C6;}
	.st3{fill:#6BDDDD;}
	.st4{fill:#F9A7A7;}
	.st5{fill:#A4C9FF;}
	.st6{fill:#FFEA92;}
	.st7{fill:#F9CFCF;}
	.st8{fill:#FFE164;}
	.st9{fill:#FFDC85;}
	.st10{fill:#FFEA94;}
	.st11{fill:#B9BEFC;}
	.st12{fill:#EAA97D;}
</style>
<g>
	<g>
		<path class="st5" d="M137.599,128.162h12.979c3.199,0,5.793,2.593,5.793,5.793l0,0c0,3.199-2.593,5.793-5.793,5.793h-12.979
			c-3.199,0-5.793-2.593-5.793-5.793l0,0C131.807,130.755,134.4,128.162,137.599,128.162z"/>
	</g>
	<g>
		<path class="st5" d="M137.599,108.162h12.979c3.199,0,5.793,2.593,5.793,5.793v0c0,3.199-2.593,5.793-5.793,5.793h-12.979
			c-3.199,0-5.793-2.593-5.793-5.793v0C131.807,110.755,134.4,108.162,137.599,108.162z"/>
	</g>
	<g>
		<path class="st5" d="M137.599,88.162h12.979c3.199,0,5.793,2.593,5.793,5.793v0c0,3.199-2.593,5.793-5.793,5.793h-12.979
			c-3.199,0-5.793-2.593-5.793-5.793v0C131.807,90.755,134.4,88.162,137.599,88.162z"/>
	</g>
	<g>
		<path class="st0" d="M162.508,248h-130c-2.761,0-5-2.239-5-5V13c0-2.761,2.239-5,5-5h130c2.761,0,5,2.239,5,5v230
			C167.508,245.761,165.27,248,162.508,248z"/>
	</g>
	<g>
		<path class="st3" d="M55.686,19.955v3.105c2.051,0.211,3.809,0.633,5.276,1.265c1.466,0.633,2.745,1.591,3.837,2.875
			c0.862,0.978,1.528,1.984,1.998,3.019c0.469,1.035,0.704,1.983,0.704,2.846c0,0.959-0.349,1.787-1.049,2.487
			c-0.7,0.7-1.548,1.049-2.545,1.049c-1.878,0-3.095-1.016-3.651-3.047c-0.632-2.396-2.155-3.986-4.571-4.772v11.959
			c2.376,0.652,4.27,1.246,5.678,1.782c1.408,0.537,2.668,1.313,3.78,2.329c1.188,1.055,2.103,2.315,2.746,3.781
			c0.641,1.466,0.962,3.072,0.962,4.815c0,2.185-0.512,4.231-1.537,6.138c-1.025,1.907-2.535,3.464-4.528,4.672
			c-1.993,1.207-4.36,1.926-7.101,2.156v7.158c0,1.13-0.11,1.955-0.33,2.472c-0.221,0.517-0.704,0.776-1.452,0.776
			c-0.69,0-1.174-0.211-1.452-0.632c-0.277-0.422-0.417-1.074-0.417-1.955v-7.762c-2.243-0.249-4.202-0.776-5.879-1.581
			c-1.677-0.805-3.076-1.806-4.197-3.004c-1.122-1.198-1.951-2.444-2.488-3.737s-0.804-2.563-0.804-3.809
			c0-0.92,0.359-1.749,1.078-2.487c0.719-0.738,1.614-1.107,2.687-1.107c0.862,0,1.59,0.201,2.185,0.604
			c0.593,0.403,1.006,0.968,1.235,1.696c0.518,1.572,0.968,2.774,1.352,3.608c0.383,0.834,0.962,1.595,1.738,2.285
			c0.776,0.69,1.807,1.217,3.091,1.581V47.152c-2.568-0.709-4.715-1.499-6.44-2.372c-1.725-0.871-3.124-2.113-4.197-3.723
			c-1.074-1.61-1.61-3.68-1.61-6.209c0-3.297,1.049-5.999,3.148-8.107c2.099-2.108,5.132-3.335,9.099-3.68v-3.047
			c0-1.61,0.604-2.415,1.811-2.415C55.073,17.598,55.686,18.384,55.686,19.955z M52.035,39.677V28.666
			c-1.609,0.48-2.865,1.112-3.766,1.897c-0.902,0.786-1.351,1.974-1.351,3.565c0,1.514,0.421,2.659,1.265,3.435
			C49.026,38.34,50.31,39.044,52.035,39.677z M55.686,48.215v12.592c1.936-0.383,3.431-1.16,4.485-2.329
			c1.053-1.169,1.581-2.53,1.581-4.082c0-1.668-0.513-2.956-1.539-3.867C59.188,49.619,57.679,48.848,55.686,48.215z"/>
	</g>
	<g>
		<path class="st5" d="M150.192,63.193h-67c-3.314,0-6-2.686-6-6V37.225c0-3.314,2.686-6,6-6h67c3.314,0,6,2.686,6,6v19.968
			C156.192,60.507,153.506,63.193,150.192,63.193z"/>
	</g>
	<g>
		<path class="st5" d="M44.438,128.162h65.453c3.199,0,5.793,2.593,5.793,5.793l0,0c0,3.199-2.593,5.793-5.793,5.793H44.438
			c-3.199,0-5.793-2.593-5.793-5.793l0,0C38.645,130.755,41.239,128.162,44.438,128.162z"/>
	</g>
	<g>
		<path class="st5" d="M44.438,108.162h65.453c3.199,0,5.793,2.593,5.793,5.793v0c0,3.199-2.593,5.793-5.793,5.793H44.438
			c-3.199,0-5.793-2.593-5.793-5.793v0C38.645,110.755,41.239,108.162,44.438,108.162z"/>
	</g>
	<g>
		<path class="st5" d="M44.438,88.162h65.453c3.199,0,5.793,2.593,5.793,5.793v0c0,3.199-2.593,5.793-5.793,5.793H44.438
			c-3.199,0-5.793-2.593-5.793-5.793v0C38.645,90.755,41.239,88.162,44.438,88.162z"/>
	</g>
	<g>
		<path class="st5" d="M44.438,190.162h13.497v11.585H44.438c-3.199,0-5.793-2.593-5.793-5.793l0,0
			C38.646,192.756,41.239,190.162,44.438,190.162z"/>
	</g>
	<g>
		<path class="st5" d="M44.438,170.162h13.497v11.585H44.438c-3.199,0-5.793-2.593-5.793-5.793l0,0
			C38.646,172.756,41.239,170.162,44.438,170.162z"/>
	</g>
	<g>
		<path class="st5" d="M44.438,210.162h13.497v11.585H44.438c-3.199,0-5.793-2.593-5.793-5.793l0,0
			C38.646,212.756,41.239,210.162,44.438,210.162z"/>
	</g>
	<g>
		<path class="st1" d="M162.508,250h-130c-3.86,0-7-3.14-7-7V13c0-3.86,3.14-7,7-7h130c3.86,0,7,3.14,7,7v230
			C169.508,246.86,166.368,250,162.508,250z M32.508,10c-1.654,0-3,1.346-3,3v230c0,1.654,1.346,3,3,3h130c1.654,0,3-1.346,3-3V13
			c0-1.654-1.346-3-3-3H32.508z"/>
	</g>
	<g>
		<path class="st3" d="M223.068,235.117h-160c-2.761,0-5-2.239-5-5v-80c0-2.761,2.239-5,5-5h160c2.761,0,5,2.239,5,5v80
			C228.068,232.878,225.829,235.117,223.068,235.117z"/>
	</g>
	<g>
		<circle class="st6" cx="143.068" cy="190.117" r="32.304"/>
	</g>
	<g>
		<path class="st2" d="M144.743,166.587v2.7c1.783,0.184,3.313,0.55,4.588,1.1c1.274,0.55,2.387,1.384,3.337,2.5
			c0.75,0.85,1.329,1.725,1.737,2.625s0.612,1.725,0.612,2.475c0,0.833-0.304,1.554-0.912,2.163s-1.346,0.913-2.213,0.913
			c-1.633,0-2.691-0.883-3.175-2.65c-0.55-2.083-1.874-3.466-3.975-4.15v10.399c2.066,0.567,3.713,1.083,4.938,1.55
			c1.225,0.467,2.32,1.142,3.287,2.025c1.033,0.917,1.829,2.013,2.388,3.288c0.558,1.275,0.837,2.671,0.837,4.187
			c0,1.9-0.445,3.679-1.337,5.337c-0.892,1.659-2.204,3.012-3.938,4.063c-1.733,1.05-3.791,1.675-6.175,1.875v6.225
			c0,0.983-0.096,1.7-0.287,2.15c-0.192,0.45-0.612,0.675-1.263,0.675c-0.6,0-1.021-0.184-1.263-0.55
			c-0.241-0.367-0.362-0.934-0.362-1.7v-6.75c-1.95-0.217-3.654-0.675-5.112-1.375c-1.458-0.7-2.675-1.571-3.649-2.612
			c-0.976-1.042-1.696-2.125-2.163-3.25s-0.699-2.229-0.699-3.312c0-0.8,0.313-1.521,0.938-2.163s1.403-0.962,2.337-0.962
			c0.75,0,1.383,0.175,1.9,0.525c0.516,0.35,0.875,0.842,1.074,1.475c0.45,1.367,0.842,2.412,1.176,3.137
			c0.333,0.725,0.837,1.387,1.512,1.987s1.571,1.059,2.688,1.375v-11.625c-2.233-0.616-4.1-1.304-5.6-2.063
			c-1.5-0.758-2.717-1.837-3.649-3.237c-0.934-1.4-1.4-3.2-1.4-5.399c0-2.867,0.912-5.216,2.737-7.05
			c1.825-1.833,4.463-2.9,7.912-3.2v-2.649c0-1.4,0.525-2.1,1.575-2.1C144.209,164.537,144.743,165.22,144.743,166.587z
			 M141.568,183.736v-9.575c-1.399,0.417-2.491,0.967-3.274,1.65c-0.784,0.684-1.175,1.717-1.175,3.1c0,1.316,0.366,2.312,1.1,2.987
			C138.952,182.573,140.068,183.186,141.568,183.736z M144.743,191.16v10.95c1.684-0.333,2.983-1.008,3.9-2.025
			c0.916-1.017,1.375-2.2,1.375-3.55c0-1.45-0.446-2.571-1.338-3.362S146.476,191.711,144.743,191.16z"/>
	</g>
	<g>
		<path class="st1" d="M223.068,237.117h-160c-3.86,0-7-3.14-7-7v-80c0-3.86,3.14-7,7-7h160c3.86,0,7,3.14,7,7v80
			C230.068,233.977,226.928,237.117,223.068,237.117z M63.068,147.117c-1.654,0-3,1.346-3,3v80c0,1.654,1.346,3,3,3h160
			c1.654,0,3-1.346,3-3v-80c0-1.654-1.346-3-3-3H63.068z"/>
	</g>
	<g>
		<path class="st1" d="M143.068,224.42c-18.915,0-34.304-15.388-34.304-34.303s15.389-34.304,34.304-34.304
			s34.304,15.389,34.304,34.304S161.983,224.42,143.068,224.42z M143.068,159.813c-16.709,0-30.304,13.594-30.304,30.304
			s13.594,30.303,30.304,30.303s30.304-13.594,30.304-30.303S159.777,159.813,143.068,159.813z"/>
	</g>
	<g>
		<path class="st12" d="M235.068,235.117h-59c-1.657,0-3-1.343-3-3V221c0-1.657,1.343-3,3-3h59c1.657,0,3,1.343,3,3v11.117
			C238.068,233.773,236.725,235.117,235.068,235.117z"/>
	</g>
	<g>
		<path class="st12" d="M235.068,218h-59c-1.657,0-3-1.343-3-3v-11.117c0-1.657,1.343-3,3-3h59c1.657,0,3,1.343,3,3V215
			C238.068,216.657,236.725,218,235.068,218z"/>
	</g>
	<g>
		<path class="st12" d="M235.068,200.883h-59c-1.657,0-3-1.343-3-3v-11.117c0-1.657,1.343-3,3-3h59c1.657,0,3,1.343,3,3v11.117
			C238.068,199.54,236.725,200.883,235.068,200.883z"/>
	</g>
	<g>
		<path class="st1" d="M235.068,237.117h-59c-2.757,0-5-2.243-5-5V221c0-2.757,2.243-5,5-5h59c2.757,0,5,2.243,5,5v11.117
			C240.068,234.874,237.825,237.117,235.068,237.117z M176.068,220c-0.551,0-1,0.449-1,1v11.117c0,0.551,0.449,1,1,1h59
			c0.551,0,1-0.449,1-1V221c0-0.551-0.449-1-1-1H176.068z"/>
	</g>
	<g>
		<path class="st1" d="M235.068,220h-59c-2.757,0-5-2.243-5-5v-11.117c0-2.757,2.243-5,5-5h59c2.757,0,5,2.243,5,5V215
			C240.068,217.757,237.825,220,235.068,220z M176.068,202.883c-0.551,0-1,0.449-1,1V215c0,0.551,0.449,1,1,1h59
			c0.551,0,1-0.449,1-1v-11.117c0-0.551-0.449-1-1-1H176.068z"/>
	</g>
	<g>
		<path class="st1" d="M235.068,202.883h-59c-2.757,0-5-2.243-5-5v-11.116c0-2.757,2.243-5,5-5h59c2.757,0,5,2.243,5,5v11.116
			C240.068,200.64,237.825,202.883,235.068,202.883z M176.068,185.767c-0.551,0-1,0.449-1,1v11.116c0,0.551,0.449,1,1,1h59
			c0.551,0,1-0.449,1-1v-11.116c0-0.551-0.449-1-1-1H176.068z"/>
	</g>
</g>
</svg>
