<?xml version="1.0" encoding="utf-8"?>
<!-- Generator: Adobe Illustrator 22.1.0, SVG Export Plug-In . SVG Version: 6.00 Build 0)  -->
<svg version="1.1" id="Layer_1" xmlns="http://www.w3.org/2000/svg" xmlns:xlink="http://www.w3.org/1999/xlink" x="0px" y="0px"
	 viewBox="0 0 256 256" style="enable-background:new 0 0 256 256;" xml:space="preserve">
<style type="text/css">
	.st0{fill:#E0EBFC;}
	.st1{fill:#3762CC;}
	.st2{fill:#4671C6;}
	.st3{fill:#6BDDDD;}
	.st4{fill:#F9A7A7;}
	.st5{fill:#A4C9FF;}
	.st6{fill:#FFEA92;}
	.st7{fill:#F9CFCF;}
	.st8{fill:#FFE164;}
	.st9{fill:#FFDC85;}
	.st10{fill:#FFEA94;}
	.st11{fill:#B9BEFC;}
	.st12{fill:#EAA97D;}
</style>
<g>
	<g>
		<rect x="195.637" y="13.379" class="st6" width="11.328" height="14.636"/>
	</g>
	<g>
		<path class="st12" d="M212.288,33.337h-5.322V8.057h5.322c6.981,0,12.64,5.659,12.64,12.64v0
			C224.928,27.678,219.269,33.337,212.288,33.337z"/>
	</g>
	<g>
		<path class="st12" d="M43.074,8.057h5.322v25.28h-5.322c-6.981,0-12.64-5.659-12.64-12.64v0
			C30.434,13.716,36.093,8.057,43.074,8.057z"/>
	</g>
	<g>
		<path class="st2" d="M59.724,13.379v105.246c0,3.991,1.91,7.74,5.138,10.086l55.487,40.328c4.371,3.177,10.291,3.177,14.662,0
			l55.487-40.328c3.228-2.346,5.138-6.096,5.138-10.086V13.379C175.947,13.379,79.45,13.379,59.724,13.379z"/>
	</g>
	<g>
		<path class="st0" d="M89.027,146.274l31.323,22.765c4.371,3.177,10.291,3.177,14.662,0l31.323-22.765V13.379
			c-9.39,0-67.885,0-77.308,0V146.274z"/>
	</g>
	<g>
		<rect x="48.396" y="13.379" class="st6" width="11.328" height="14.636"/>
	</g>
	<g>
		<path class="st1" d="M206.966,30.015h-11.329c-1.104,0-2-0.896-2-2V13.379c0-1.104,0.896-2,2-2h11.329c1.104,0,2,0.896,2,2v14.636
			C208.966,29.119,208.07,30.015,206.966,30.015z M197.637,26.015h7.329V15.379h-7.329V26.015z"/>
	</g>
	<g>
		<path class="st1" d="M212.288,35.337h-5.322c-1.104,0-2-0.896-2-2V8.057c0-1.104,0.896-2,2-2h5.322
			c8.073,0,14.64,6.567,14.64,14.641C226.928,28.77,220.36,35.337,212.288,35.337z M208.966,31.337h3.322
			c5.867,0,10.64-4.772,10.64-10.64s-4.773-10.641-10.64-10.641h-3.322V31.337z"/>
	</g>
	<g>
		<path class="st1" d="M48.396,35.337h-5.322c-8.072,0-14.64-6.567-14.64-14.64s6.567-14.64,14.64-14.64h5.322c1.104,0,2,0.896,2,2
			v25.279C50.396,34.441,49.5,35.337,48.396,35.337z M43.074,10.058c-5.867,0-10.64,4.772-10.64,10.64s4.773,10.64,10.64,10.64
			h3.322V10.058H43.074z"/>
	</g>
	<g>
		<path class="st1" d="M59.725,30.015H48.396c-1.104,0-2-0.896-2-2V13.379c0-1.104,0.896-2,2-2h11.329c1.104,0,2,0.896,2,2v14.636
			C61.725,29.119,60.829,30.015,59.725,30.015z M50.396,26.015h7.329V15.379h-7.329V26.015z"/>
	</g>
	<g>
		<path class="st1" d="M127.681,173.431c-2.981,0-5.963-0.925-8.507-2.773L63.687,130.33c-3.733-2.715-5.962-7.09-5.962-11.705
			V13.379c0-1.104,0.896-2,2-2h135.913c1.104,0,2,0.896,2,2v105.246c0,4.615-2.229,8.99-5.962,11.705l-55.487,40.327
			C133.644,172.506,130.662,173.431,127.681,173.431z M61.725,15.379v103.246c0,3.339,1.613,6.505,4.314,8.469l55.487,40.327
			c3.682,2.676,8.628,2.677,12.31,0l55.487-40.327c2.701-1.964,4.314-5.13,4.314-8.469V15.379H61.725z"/>
	</g>
	<g>
		<path class="st3" d="M155.87,52.827c-0.971-0.075,0.337-0.238-20.848,4.367c-1.89,0.41-3.088,2.274-2.677,4.163
			c0.411,1.89,2.276,3.093,4.163,2.677l8.192-1.78l-13.035,13.035c-3.681-2.679-8.206-4.265-13.096-4.265
			c-12.302,0-22.31,10.008-22.31,22.31s10.008,22.31,22.31,22.31s22.31-10.008,22.31-22.31c0-4.891-1.586-9.415-4.264-13.096
			l13.035-13.035l-1.781,8.191c-0.411,1.889,0.787,3.753,2.677,4.163c0.25,0.055,0.5,0.081,0.746,0.081
			c1.611,0,3.061-1.119,3.417-2.758c0.044-0.205,4.279-19.673,4.319-19.879C159.441,54.973,158.004,52.991,155.87,52.827z
			 M118.569,108.643c-8.442,0-15.31-6.868-15.31-15.31s6.868-15.31,15.31-15.31s15.31,6.868,15.31,15.31
			S127.011,108.643,118.569,108.643z"/>
	</g>
	<g>
		<path class="st4" d="M151.407,247.942v-7.586c0-13.104-10.623-23.727-23.727-23.727s-23.727,10.623-23.727,23.727v7.586H151.407z"
			/>
	</g>
	<g>
		<path class="st1" d="M151.407,249.942h-47.453c-1.104,0-2-0.896-2-2v-7.586c0-14.186,11.541-25.727,25.727-25.727
			s25.727,11.541,25.727,25.727v7.586C153.407,249.047,152.512,249.942,151.407,249.942z M105.954,245.942h43.453v-5.586
			c0-11.98-9.747-21.727-21.727-21.727s-21.727,9.746-21.727,21.727V245.942z"/>
	</g>
	<g>
		<path class="st5" d="M136.166,218.199c7.356-3.26,12.494-10.613,12.494-19.177c0-11.587-9.393-20.979-20.979-20.979
			c-11.587,0-20.979,9.393-20.979,20.979c0,8.564,5.138,15.917,12.494,19.177c-8.912,3.415-15.241,12.045-15.241,22.158v7.586
			h47.453v-7.586C151.407,230.244,145.078,221.614,136.166,218.199z"/>
	</g>
	<g>
		<path class="st1" d="M151.407,249.943h-47.453c-1.104,0-2-0.896-2-2v-7.586c0-9.226,5.046-17.746,12.888-22.289
			c-6.264-4.224-10.141-11.335-10.141-19.047c0-12.67,10.308-22.979,22.979-22.979s22.979,10.309,22.979,22.979
			c0,7.712-3.877,14.823-10.141,19.047c7.842,4.543,12.888,13.063,12.888,22.289v7.586
			C153.407,249.048,152.512,249.943,151.407,249.943z M105.954,245.943h43.453v-5.586c0-8.938-5.609-17.093-13.957-20.291
			c-0.756-0.289-1.263-1.007-1.284-1.815c-0.021-0.81,0.449-1.552,1.189-1.88c6.867-3.044,11.304-9.854,11.304-17.35
			c0-10.465-8.514-18.979-18.979-18.979c-10.465,0-18.979,8.514-18.979,18.979c0,7.496,4.437,14.306,11.304,17.35
			c0.74,0.328,1.209,1.07,1.189,1.88c-0.021,0.809-0.528,1.526-1.284,1.815c-8.348,3.199-13.957,11.353-13.957,20.291V245.943z"/>
	</g>
	<g>
		<path class="st4" d="M65.134,247.942v-7.586c0-13.104-10.623-23.727-23.727-23.727s-23.727,10.623-23.727,23.727v7.586H65.134z"/>
	</g>
	<g>
		<path class="st1" d="M65.134,249.942H17.681c-1.104,0-2-0.896-2-2v-7.586c0-14.186,11.541-25.727,25.727-25.727
			c14.186,0,25.727,11.541,25.727,25.727v7.586C67.134,249.047,66.239,249.942,65.134,249.942z M19.681,245.942h43.454v-5.586
			c0-11.98-9.747-21.727-21.727-21.727c-11.98,0-21.727,9.746-21.727,21.727V245.942z"/>
	</g>
	<g>
		<path class="st5" d="M49.893,218.199c7.356-3.26,12.494-10.613,12.494-19.177c0-11.587-9.393-20.979-20.979-20.979
			c-11.587,0-20.979,9.393-20.979,20.979c0,8.564,5.138,15.917,12.494,19.177c-8.912,3.415-15.241,12.045-15.241,22.158v7.586
			h47.453v-7.586C65.134,230.244,58.804,221.614,49.893,218.199z"/>
	</g>
	<g>
		<path class="st1" d="M65.134,249.943H17.681c-1.104,0-2-0.896-2-2v-7.586c0-9.226,5.046-17.746,12.889-22.289
			c-6.264-4.224-10.141-11.335-10.141-19.047c0-12.67,10.309-22.979,22.979-22.979s22.979,10.309,22.979,22.979
			c0,7.712-3.877,14.823-10.141,19.047c7.843,4.543,12.889,13.063,12.889,22.289v7.586
			C67.134,249.048,66.239,249.943,65.134,249.943z M19.681,245.943h43.454v-5.586c0-8.938-5.609-17.093-13.957-20.291
			c-0.756-0.289-1.263-1.007-1.284-1.815c-0.021-0.81,0.449-1.552,1.189-1.88c6.867-3.044,11.304-9.854,11.304-17.35
			c0-10.465-8.514-18.979-18.979-18.979c-10.465,0-18.979,8.514-18.979,18.979c0,7.496,4.438,14.306,11.304,17.35
			c0.741,0.328,1.21,1.07,1.189,1.88c-0.021,0.809-0.528,1.526-1.284,1.815c-8.348,3.198-13.957,11.353-13.957,20.291V245.943z"/>
	</g>
	<g>
		<path class="st4" d="M238.319,247.942v-7.586c0-13.104-10.623-23.727-23.727-23.727s-23.727,10.623-23.727,23.727v7.586H238.319z"
			/>
	</g>
	<g>
		<path class="st1" d="M238.319,249.942h-47.454c-1.104,0-2-0.896-2-2v-7.586c0-14.186,11.541-25.727,25.727-25.727
			c14.186,0,25.727,11.541,25.727,25.727v7.586C240.319,249.047,239.424,249.942,238.319,249.942z M192.866,245.942h43.454v-5.586
			c0-11.98-9.747-21.727-21.727-21.727c-11.98,0-21.727,9.746-21.727,21.727V245.942z"/>
	</g>
	<g>
		<path class="st5" d="M223.078,218.199c7.356-3.26,12.494-10.613,12.494-19.177c0-11.587-9.393-20.979-20.979-20.979
			c-11.587,0-20.979,9.393-20.979,20.979c0,8.564,5.138,15.917,12.494,19.177c-8.912,3.415-15.241,12.045-15.241,22.158v7.586
			h47.453v-7.586C238.319,230.244,231.989,221.614,223.078,218.199z"/>
	</g>
	<g>
		<path class="st1" d="M238.319,249.943h-47.454c-1.104,0-2-0.896-2-2v-7.586c0-9.226,5.046-17.746,12.889-22.289
			c-6.264-4.224-10.141-11.335-10.141-19.047c0-12.67,10.309-22.979,22.979-22.979s22.979,10.309,22.979,22.979
			c0,7.712-3.877,14.823-10.141,19.047c7.843,4.543,12.889,13.063,12.889,22.289v7.586
			C240.319,249.048,239.424,249.943,238.319,249.943z M192.866,245.943h43.454v-5.586c0-8.938-5.609-17.093-13.957-20.291
			c-0.756-0.289-1.263-1.007-1.284-1.815c-0.021-0.81,0.449-1.552,1.189-1.88c6.867-3.044,11.304-9.854,11.304-17.35
			c0-10.465-8.514-18.979-18.979-18.979c-10.465,0-18.979,8.514-18.979,18.979c0,7.496,4.437,14.306,11.304,17.35
			c0.741,0.328,1.21,1.07,1.189,1.88c-0.021,0.809-0.528,1.526-1.284,1.815c-8.348,3.198-13.957,11.353-13.957,20.291V245.943z"/>
	</g>
	<g>
		<path class="st3" d="M135.114,220.363l-29.41-4.374l0.02,0.079c-0.477-0.05-0.961-0.079-1.451-0.079H67.906
			c-7.532,0-13.638,6.106-13.638,13.638v18.315h63.644v-9.522l11.887,0.734L135.114,220.363z"/>
	</g>
	<g>
		<path class="st7" d="M86.09,214.433c-4.277,0-8.305-1.049-11.844-2.894v4.45v0.001c0,6.535,5.298,11.833,11.833,11.833
			c6.535,0,11.833-5.298,11.833-11.833v-0.001v-4.438C94.378,213.39,90.358,214.433,86.09,214.433z"/>
	</g>
	<g>
		<path class="st1" d="M117.912,249.942H54.268c-1.104,0-2-0.896-2-2v-18.315c0-8.623,7.015-15.638,15.638-15.638h4.34v-2.45
			c0-0.699,0.365-1.348,0.963-1.71c0.598-0.364,1.341-0.387,1.962-0.063c3.395,1.771,7.068,2.668,10.919,2.668
			c3.843,0,7.51-0.894,10.898-2.656c0.619-0.322,1.363-0.297,1.96,0.064c0.598,0.363,0.962,1.011,0.962,1.71v2.438h5.793
			c0.099,0,0.197,0.007,0.294,0.021l29.41,4.373c0.569,0.085,1.074,0.41,1.386,0.893c0.312,0.483,0.401,1.077,0.245,1.63
			l-5.316,18.792c-0.256,0.905-1.105,1.521-2.048,1.452l-9.763-0.604v7.396C119.912,249.047,119.016,249.942,117.912,249.942z
			 M56.268,245.942h59.644v-7.522c0-0.552,0.228-1.079,0.63-1.457c0.402-0.378,0.942-0.575,1.494-0.539l10.277,0.635l4.258-15.053
			l-27.015-4.017h-7.645c-1.104,0-2-0.896-2-2v-1.355c-6.254,2.368-13.414,2.366-19.666-0.01v1.365c0,1.104-0.896,2-2,2h-6.34
			c-6.417,0-11.638,5.221-11.638,11.638V245.942z"/>
	</g>
	<g>
		<path class="st3" d="M204.609,247.942h-63.644v-18.315c0-7.532,6.106-13.638,13.638-13.638h36.368
			c7.532,0,13.638,6.106,13.638,13.638V247.942z"/>
	</g>
	<g>
		<path class="st7" d="M172.788,214.433c-4.277,0-8.305-1.049-11.844-2.894v4.45v0.001c0,6.535,5.298,11.833,11.833,11.833
			s11.833-5.298,11.833-11.833v-0.001v-4.438C181.076,213.39,177.056,214.433,172.788,214.433z"/>
	</g>
	<g>
		<path class="st2" d="M197.316,170.311c0.622,2.186,0.963,4.489,0.963,6.872v2.387c2.286-0.046,4.325,0.877,5.765,2.365
			c2.178-3.885,3.359-8.405,3.359-13.595c0-5.025-2.711-9.413-6.749-11.791c0.138,0.936,0.212,1.892,0.212,2.866
			C200.866,163.489,199.547,167.254,197.316,170.311z"/>
	</g>
	<g>
		<path class="st1" d="M204.044,183.935c-0.538,0-1.057-0.217-1.437-0.608c-1.129-1.166-2.639-1.773-4.288-1.756
			c-0.54,0.012-1.057-0.195-1.44-0.571c-0.384-0.376-0.601-0.892-0.601-1.429v-2.388c0-2.13-0.298-4.258-0.886-6.325
			c-0.168-0.592-0.055-1.229,0.309-1.726c2.07-2.837,3.165-6.197,3.165-9.717c0-0.852-0.064-1.718-0.19-2.575
			c-0.112-0.762,0.223-1.521,0.862-1.95c0.64-0.43,1.469-0.453,2.132-0.064c4.771,2.81,7.734,7.988,7.734,13.515
			c0,5.393-1.216,10.296-3.614,14.573c-0.309,0.551-0.86,0.924-1.487,1.005C204.216,183.929,204.13,183.935,204.044,183.935z
			 M200.279,177.736c1.082,0.202,2.112,0.582,3.058,1.129c1.373-3.164,2.067-6.693,2.067-10.525c0-2.695-0.947-5.279-2.598-7.33
			c-0.266,3.469-1.397,6.773-3.318,9.682c0.526,2.13,0.792,4.309,0.792,6.491V177.736z"/>
	</g>
	<g>
		<path class="st1" d="M204.609,249.942h-63.644c-1.104,0-2-0.896-2-2v-18.315c0-8.623,7.015-15.638,15.638-15.638h4.34v-2.45
			c0-0.699,0.365-1.348,0.963-1.71c0.598-0.364,1.342-0.387,1.961-0.063c3.394,1.771,7.068,2.668,10.919,2.668
			c3.843,0,7.51-0.894,10.898-2.656c0.62-0.322,1.363-0.297,1.96,0.064c0.598,0.363,0.962,1.011,0.962,1.71v2.438h4.362
			c8.623,0,15.638,7.015,15.638,15.638v18.315C206.609,249.047,205.714,249.942,204.609,249.942z M142.966,245.942h59.644v-16.315
			c0-6.417-5.221-11.638-11.638-11.638h-6.362c-1.104,0-2-0.896-2-2v-1.355c-6.255,2.367-13.416,2.364-19.666-0.009v1.364
			c0,1.104-0.896,2-2,2h-6.34c-6.417,0-11.638,5.221-11.638,11.638V245.942z"/>
	</g>
	<g>
		<path class="st7" d="M135.114,220.362l-5.316,18.792l11.167,0.69v-10.217c0-2.995,0.977-5.756,2.614-8.006L135.114,220.362z"/>
	</g>
	<g>
		<path class="st1" d="M140.966,241.844c-0.041,0-0.082-0.001-0.123-0.004l-11.167-0.689c-0.604-0.037-1.159-0.346-1.508-0.839
			c-0.35-0.494-0.458-1.119-0.293-1.701l5.316-18.792c0.273-0.968,1.224-1.581,2.218-1.435l8.465,1.259
			c0.692,0.104,1.28,0.56,1.55,1.205c0.271,0.645,0.185,1.385-0.227,1.95c-1.459,2.006-2.231,4.368-2.231,6.829v10.217
			c0,0.552-0.228,1.079-0.63,1.457C141.964,241.65,141.474,241.844,140.966,241.844z M132.398,237.311l6.567,0.406v-8.09
			c0-2.253,0.479-4.443,1.403-6.461l-3.809-0.566L132.398,237.311z"/>
	</g>
	<g>
		<path class="st7" d="M111.581,179.57v-2.387c0-13.952-11.413-25.262-25.491-25.262l0,0c-14.079,0-25.491,11.31-25.491,25.262
			v2.387c-4.426-0.09-7.938,3.436-7.938,7.699c0,4.551,3.973,8.152,8.611,7.661c2.631,11.177,12.74,19.503,24.818,19.503
			c12.079,0,22.188-8.328,24.818-19.503c4.632,0.49,8.611-3.104,8.611-7.661C119.519,183.004,116.005,179.48,111.581,179.57z"/>
	</g>
	<g>
		<path class="st1" d="M86.096,203.158c-1.827,0-3.527-0.657-4.665-1.805c-0.862-0.869-1.337-1.965-1.337-3.086c0-0.553,0.448-1,1-1
			s1,0.447,1,1c0,0.598,0.262,1.178,0.757,1.678c0.753,0.76,1.967,1.213,3.245,1.213c1.286,0,2.461-0.442,3.226-1.213
			c0.496-0.5,0.757-1.08,0.757-1.678c0-0.553,0.448-1,1-1s1,0.447,1,1c0,1.121-0.475,2.217-1.337,3.086
			C89.605,202.5,87.912,203.158,86.096,203.158z"/>
	</g>
	<g>
		<path class="st1" d="M99.324,192.938L99.324,192.938c-1.977,0-3.58-1.603-3.58-3.58v-3.819c0-1.977,1.603-3.58,3.58-3.58h0
			c1.977,0,3.58,1.603,3.58,3.58v3.819C102.904,191.335,101.301,192.938,99.324,192.938z"/>
	</g>
	<g>
		<path class="st1" d="M72.849,192.938L72.849,192.938c-1.977,0-3.58-1.603-3.58-3.58v-3.819c0-1.977,1.603-3.58,3.58-3.58h0
			c1.977,0,3.58,1.603,3.58,3.58v3.819C76.429,191.335,74.826,192.938,72.849,192.938z"/>
	</g>
	<g>
		<path class="st1" d="M86.09,216.434c-12.296,0-22.909-7.935-26.35-19.485c-2.167-0.154-4.239-1.021-5.868-2.486
			c-2.042-1.837-3.212-4.459-3.212-7.193c0-2.617,1.034-5.071,2.91-6.911c1.398-1.37,3.137-2.269,5.028-2.62v-0.555
			c0-15.032,12.333-27.262,27.491-27.262s27.491,12.229,27.491,27.262v0.555c1.891,0.352,3.629,1.25,5.028,2.621
			c1.876,1.839,2.91,4.293,2.91,6.91c0,2.734-1.171,5.356-3.212,7.193c-1.628,1.465-3.701,2.332-5.868,2.486
			C108.999,208.5,98.385,216.434,86.09,216.434z M61.273,192.93c0.918,0,1.731,0.631,1.945,1.542
			c2.489,10.575,11.895,17.962,22.872,17.962c10.977,0,20.382-7.387,22.872-17.962c0.231-0.98,1.153-1.628,2.157-1.531
			c1.673,0.182,3.275-0.339,4.513-1.452c1.217-1.095,1.888-2.594,1.888-4.22c0-1.533-0.607-2.973-1.71-4.054
			c-1.116-1.094-2.606-1.677-4.188-1.645c-0.544,0.012-1.056-0.195-1.44-0.571c-0.384-0.376-0.6-0.892-0.6-1.429v-2.388
			c0-12.826-10.538-23.262-23.491-23.262s-23.491,10.436-23.491,23.262v2.388c0,0.537-0.216,1.053-0.6,1.429
			c-0.384,0.376-0.906,0.579-1.44,0.571c-1.584-0.033-3.073,0.552-4.188,1.645c-1.103,1.08-1.71,2.521-1.71,4.054
			c0,1.603,0.688,3.141,1.888,4.22c1.237,1.113,2.842,1.639,4.513,1.452C61.132,192.934,61.203,192.93,61.273,192.93z"/>
	</g>
	<g>
		<path class="st2" d="M60.598,179.57v-2.387c0-0.137,0.008-0.271,0.01-0.408c-3.099-1.127-5.828-3.024-7.949-5.468v3.534
			c0,2.732,0.606,5.321,1.686,7.646C55.792,180.679,58.04,179.518,60.598,179.57z"/>
	</g>
	<g>
		<path class="st2" d="M110.619,170.311c0.622,2.186,0.963,4.489,0.963,6.872v2.387c2.286-0.046,4.325,0.877,5.765,2.365
			c2.178-3.885,3.359-8.405,3.359-13.595c0-5.025-2.711-9.413-6.749-11.791C114.71,161.656,113.413,166.482,110.619,170.311z"/>
	</g>
	<g>
		<path class="st2" d="M94.696,139.942c-15.901,0-12.48,0-28.214,0c-9.444,0-17.22,7.076-18.355,16.213
			c-0.231,0.544-0.158,1.637-0.158,2.301l0,0c0,11.36,8.954,19.472,19.18,19.472h0.292c15.901,0,12.48,0,28.214,0
			c9.444,0,17.22-7.076,18.355-16.212c0.241-0.567,0.158-1.964,0.158-2.593C114.168,148.927,106.092,139.942,94.696,139.942z"/>
	</g>
	<g>
		<path class="st1" d="M54.347,184.487c-0.08,0-0.16-0.005-0.24-0.015c-0.688-0.082-1.283-0.515-1.575-1.144
			c-1.242-2.675-1.872-5.531-1.872-8.488v-3.533c0-0.835,0.519-1.582,1.3-1.874c0.782-0.293,1.663-0.067,2.21,0.563
			c1.915,2.207,4.377,3.901,7.122,4.898c0.803,0.292,1.332,1.062,1.316,1.916l-0.01,0.371v2.388c0,0.537-0.216,1.053-0.601,1.429
			c-0.384,0.376-0.905,0.579-1.44,0.571c-1.824-0.039-3.519,0.752-4.649,2.166C55.526,184.214,54.95,184.487,54.347,184.487z
			 M54.692,175.868c0.068,1.086,0.243,2.152,0.525,3.192c0.867-0.546,1.816-0.951,2.816-1.2
			C56.861,177.3,55.742,176.632,54.692,175.868z"/>
	</g>
	<g>
		<path class="st1" d="M117.347,183.935c-0.538,0-1.057-0.217-1.437-0.608c-1.129-1.166-2.644-1.773-4.288-1.756
			c-0.544,0.012-1.057-0.195-1.44-0.571c-0.384-0.376-0.601-0.892-0.601-1.429v-2.388c0-2.132-0.298-4.26-0.886-6.324
			c-0.169-0.593-0.055-1.229,0.308-1.728c2.568-3.518,3.625-7.883,2.975-12.29c-0.112-0.762,0.223-1.521,0.862-1.951
			c0.639-0.43,1.469-0.453,2.132-0.064c4.771,2.81,7.734,7.988,7.734,13.515c0,5.393-1.216,10.296-3.614,14.573
			c-0.309,0.551-0.86,0.924-1.487,1.005C117.519,183.929,117.432,183.935,117.347,183.935z M113.581,177.736
			c1.082,0.202,2.112,0.582,3.058,1.129c1.373-3.164,2.067-6.693,2.067-10.525c0-2.697-0.948-5.283-2.603-7.335
			c-0.268,3.459-1.395,6.777-3.314,9.686c0.526,2.129,0.792,4.309,0.792,6.492V177.736z"/>
	</g>
	<g>
		<path class="st1" d="M95.655,179.928H67.149c-11.877,0-21.18-9.432-21.18-21.473l-0.005-0.362
			c-0.013-0.734-0.029-1.625,0.206-2.397c1.366-10.137,10.061-17.753,20.312-17.753h28.214c12.041,0,21.472,9.304,21.472,21.18
			l0.005,0.368c0.021,1.059,0.017,1.948-0.207,2.686C114.601,172.312,105.907,179.928,95.655,179.928z M66.482,141.942
			c-8.309,0-15.347,6.216-16.37,14.459c-0.023,0.186-0.072,0.365-0.145,0.537c-0.021,0.126-0.009,0.771-0.004,1.082l0.005,0.435
			c0,9.798,7.546,17.473,17.18,17.473h28.506c8.309,0,15.346-6.216,16.37-14.458c0.02-0.157,0.058-0.312,0.114-0.46
			c0.058-0.294,0.042-1.094,0.036-1.441l-0.006-0.446c0-9.634-7.675-17.18-17.472-17.18H66.482z M112.169,160.934
			c-0.005,0.012-0.01,0.024-0.015,0.037C112.159,160.958,112.165,160.946,112.169,160.934z"/>
	</g>
	<g>
		<path class="st7" d="M198.279,179.57v-2.387c0-13.952-11.413-25.262-25.491-25.262l0,0c-14.079,0-25.491,11.31-25.491,25.262
			v2.387c-4.426-0.09-7.938,3.436-7.938,7.699c0,4.551,3.973,8.152,8.611,7.661c2.631,11.177,12.74,19.503,24.818,19.503
			c12.079,0,22.188-8.328,24.818-19.503c4.632,0.49,8.611-3.104,8.611-7.661C206.217,183.004,202.703,179.48,198.279,179.57z"/>
	</g>
	<g>
		<path class="st1" d="M172.793,203.158c-1.827,0-3.527-0.657-4.665-1.805c-0.862-0.869-1.337-1.965-1.337-3.086
			c0-0.553,0.448-1,1-1s1,0.447,1,1c0,0.599,0.262,1.179,0.757,1.678c0.753,0.76,1.967,1.213,3.245,1.213c0,0,0,0,0,0
			c1.286,0,2.462-0.442,3.226-1.213c0.495-0.499,0.757-1.079,0.757-1.678c0-0.553,0.448-1,1-1s1,0.447,1,1
			c0,1.121-0.475,2.217-1.337,3.086C176.303,202.5,174.61,203.158,172.793,203.158C172.794,203.158,172.793,203.158,172.793,203.158
			z"/>
	</g>
	<g>
		<path class="st1" d="M186.022,192.938L186.022,192.938c-1.977,0-3.58-1.603-3.58-3.58v-3.819c0-1.977,1.603-3.58,3.58-3.58h0
			c1.977,0,3.58,1.603,3.58,3.58v3.819C189.602,191.335,187.999,192.938,186.022,192.938z"/>
	</g>
	<g>
		<path class="st1" d="M159.547,192.938L159.547,192.938c-1.977,0-3.58-1.603-3.58-3.58v-3.819c0-1.977,1.603-3.58,3.58-3.58h0
			c1.977,0,3.58,1.603,3.58,3.58v3.819C163.127,191.335,161.524,192.938,159.547,192.938z"/>
	</g>
	<g>
		<path class="st1" d="M172.788,216.434c-12.296,0-22.909-7.935-26.35-19.485c-2.167-0.154-4.239-1.021-5.868-2.486
			c-2.042-1.837-3.212-4.459-3.212-7.193c0-2.617,1.034-5.071,2.91-6.911c1.398-1.37,3.137-2.269,5.028-2.62v-0.555
			c0-15.032,12.333-27.262,27.492-27.262c15.159,0,27.491,12.229,27.491,27.262v0.555c1.891,0.352,3.629,1.25,5.028,2.621
			c1.876,1.839,2.91,4.293,2.91,6.91c0,2.734-1.171,5.356-3.212,7.193c-1.628,1.465-3.702,2.332-5.868,2.486
			C195.696,208.5,185.083,216.434,172.788,216.434z M147.971,192.93c0.918,0,1.731,0.631,1.945,1.542
			c2.489,10.575,11.895,17.962,22.872,17.962s20.382-7.387,22.871-17.962c0.231-0.98,1.154-1.628,2.157-1.531
			c1.675,0.186,3.276-0.339,4.514-1.452c1.217-1.096,1.888-2.594,1.888-4.22c0-1.533-0.607-2.973-1.71-4.054
			c-1.116-1.094-2.613-1.677-4.188-1.645c-0.539,0.012-1.056-0.195-1.44-0.571c-0.384-0.376-0.6-0.892-0.6-1.429v-2.388
			c0-12.826-10.538-23.262-23.491-23.262c-12.954,0-23.492,10.436-23.492,23.262v2.388c0,0.537-0.216,1.053-0.6,1.429
			c-0.384,0.376-0.9,0.579-1.44,0.571c-1.6-0.041-3.072,0.552-4.188,1.645c-1.103,1.08-1.71,2.521-1.71,4.054
			c0,1.603,0.688,3.141,1.888,4.22c1.237,1.113,2.842,1.639,4.513,1.452C147.83,192.934,147.901,192.93,147.971,192.93z"/>
	</g>
	<g>
		<path class="st2" d="M147.296,179.57v-2.387c0-0.137,0.008-0.271,0.01-0.408c-3.099-1.127-5.828-3.024-7.949-5.468v3.534
			c0,2.732,0.606,5.321,1.686,7.646C142.489,180.679,144.737,179.518,147.296,179.57z"/>
	</g>
	<g>
		<path class="st1" d="M141.044,184.487c-0.08,0-0.16-0.005-0.24-0.015c-0.688-0.083-1.283-0.516-1.575-1.144
			c-1.242-2.676-1.872-5.531-1.872-8.488v-3.533c0-0.835,0.519-1.582,1.3-1.874c0.782-0.293,1.663-0.067,2.21,0.563
			c1.915,2.207,4.378,3.901,7.122,4.898c0.803,0.292,1.332,1.062,1.316,1.916l-0.01,0.371v2.388c0,0.537-0.216,1.053-0.601,1.429
			c-0.384,0.376-0.9,0.579-1.44,0.571c-1.837-0.044-3.519,0.752-4.649,2.166C142.224,184.214,141.647,184.487,141.044,184.487z
			 M141.39,175.868c0.068,1.086,0.243,2.151,0.524,3.192c0.868-0.547,1.816-0.951,2.817-1.2
			C143.558,177.3,142.439,176.632,141.39,175.868z"/>
	</g>
	<g>
		<path class="st2" d="M150.356,147.015c-3.644,4.519-8.539,7.475-13.983,7.99c-0.973,0.092-1.706,0.927-1.706,1.904v1.839
			c0,10.593,8.587,19.18,19.18,19.18h28.506c10.224,0,18.513-8.289,18.513-18.513v0c0-10.754-8.718-19.472-19.472-19.472h-16.167
			C159.458,139.943,153.977,142.524,150.356,147.015z"/>
	</g>
	<g>
		<path class="st1" d="M182.353,179.928h-28.506c-11.679,0-21.18-9.501-21.18-21.18v-1.84c0-2.031,1.513-3.706,3.518-3.896
			c4.723-0.446,9.203-3.022,12.614-7.253c0-0.001,0-0.001,0-0.001c4.006-4.968,9.994-7.816,16.428-7.816h16.167
			c11.839,0,21.472,9.633,21.472,21.473C202.866,170.726,193.664,179.928,182.353,179.928z M136.667,156.984v1.764
			c0,9.473,7.707,17.18,17.18,17.18h28.506c9.105,0,16.513-7.407,16.513-16.513c0-9.635-7.838-17.473-17.472-17.473h-16.167
			c-5.218,0-10.071,2.307-13.314,6.328l0-0.001C147.844,153.317,142.433,156.408,136.667,156.984z"/>
	</g>
</g>
</svg>
