<?xml version="1.0" encoding="utf-8"?>
<!-- Generator: Adobe Illustrator 22.1.0, SVG Export Plug-In . SVG Version: 6.00 Build 0)  -->
<svg version="1.1" id="Layer_1" xmlns="http://www.w3.org/2000/svg" xmlns:xlink="http://www.w3.org/1999/xlink" x="0px" y="0px"
	 viewBox="0 0 256 256" style="enable-background:new 0 0 256 256;" xml:space="preserve">
<style type="text/css">
	.st0{fill:#E0EBFC;}
	.st1{fill:#3762CC;}
	.st2{fill:#4671C6;}
	.st3{fill:#6BDDDD;}
	.st4{fill:#F9A7A7;}
	.st5{fill:#A4C9FF;}
	.st6{fill:#FFEA92;}
	.st7{fill:#F9CFCF;}
	.st8{fill:#FFE164;}
	.st9{fill:#FFDC85;}
	.st10{fill:#FFEA94;}
	.st11{fill:#B9BEFC;}
	.st12{fill:#EAA97D;}
</style>
<g>
	<g>
		<path class="st3" d="M129.325,238.085H32.323V210.17c0-11.48,9.306-20.786,20.786-20.786h55.43
			c11.48,0,20.786,9.306,20.786,20.786V238.085z"/>
	</g>
	<g>
		<path class="st7" d="M80.824,187.012c-6.519,0-12.659-1.598-18.053-4.411v6.782v0.002c0,9.961,8.075,18.035,18.035,18.035
			s18.035-8.075,18.035-18.035v-0.002v-6.764C93.457,185.421,87.33,187.012,80.824,187.012z"/>
	</g>
	<g>
		<path class="st1" d="M129.325,240.085H32.323c-1.104,0-2-0.896-2-2V210.17c0-12.564,10.222-22.786,22.786-22.786h7.663v-4.783
			c0-0.699,0.365-1.348,0.963-1.71c0.598-0.363,1.342-0.387,1.961-0.063c5.248,2.737,11.17,4.185,17.127,4.185
			c6.029,0,11.78-1.402,17.095-4.167c0.62-0.321,1.363-0.297,1.96,0.064c0.598,0.363,0.962,1.011,0.962,1.71v4.765h7.697
			c12.564,0,22.786,10.222,22.786,22.786v27.915C131.325,239.189,130.43,240.085,129.325,240.085z M34.323,236.085h93.002V210.17
			c0-10.358-8.427-18.786-18.786-18.786h-9.697c-1.104,0-2-0.896-2-2v-3.616c-5.04,2.13-10.517,3.244-16.018,3.244
			c-5.514,0-11.003-1.12-16.052-3.259v3.631c0,1.104-0.896,2-2,2h-9.663c-10.359,0-18.786,8.428-18.786,18.786V236.085z"/>
	</g>
	<g>
		<path class="st4" d="M80.807,238.085H11.575c-1.946,0-3.523-1.577-3.523-3.523v0c0-1.946,1.577-3.523,3.523-3.523h69.232V238.085z
			"/>
	</g>
	<g>
		<path class="st4" d="M80.807,238.085h69.232c1.946,0,3.523-1.577,3.523-3.523v0c0-1.946-1.577-3.523-3.523-3.523H80.807V238.085z"
			/>
	</g>
	<g>
		<path class="st1" d="M80.807,240.085H11.575c-3.045,0-5.523-2.478-5.523-5.523s2.478-5.523,5.523-5.523h69.232
			c1.104,0,2,0.896,2,2v7.047C82.807,239.189,81.911,240.085,80.807,240.085z M11.575,233.038c-0.84,0-1.523,0.684-1.523,1.523
			s0.684,1.523,1.523,1.523h67.232v-3.047H11.575z"/>
	</g>
	<g>
		<path class="st1" d="M150.039,240.085H80.807c-1.104,0-2-0.896-2-2v-7.047c0-1.104,0.896-2,2-2h69.232
			c3.045,0,5.523,2.478,5.523,5.523S153.084,240.085,150.039,240.085z M82.807,236.085h67.232c0.84,0,1.523-0.684,1.523-1.523
			s-0.684-1.523-1.523-1.523H82.807V236.085z"/>
	</g>
	<g>
		<path class="st0" d="M80.807,231.038v-8.102l-26.119-3.014c-12.517-1.444-25.172-1.196-37.623,0.738h0
			c-2.094,0.325-3.638,2.128-3.638,4.247v6.131H80.807z"/>
	</g>
	<g>
		<path class="st0" d="M80.807,231.038v-8.102l26.119-3.014c12.517-1.444,25.172-1.196,37.623,0.738h0
			c2.094,0.325,3.638,2.128,3.638,4.247v6.131H80.807z"/>
	</g>
	<g>
		<path class="st1" d="M80.807,233.038h-67.38c-1.104,0-2-0.896-2-2v-6.131c0-3.126,2.242-5.743,5.331-6.224
			c12.625-1.962,25.464-2.214,38.159-0.749l26.119,3.015c1.009,0.116,1.771,0.971,1.771,1.986v8.103
			C82.807,232.143,81.911,233.038,80.807,233.038z M15.427,229.038h63.38v-4.32l-24.348-2.809
			c-12.339-1.425-24.815-1.179-37.086,0.728c-1.127,0.175-1.945,1.13-1.945,2.271V229.038z"/>
	</g>
	<g>
		<path class="st1" d="M148.187,233.038h-67.38c-1.104,0-2-0.896-2-2v-8.103c0-1.016,0.762-1.87,1.771-1.986l26.12-3.015
			c12.696-1.464,25.534-1.213,38.159,0.749c3.089,0.48,5.331,3.098,5.331,6.224v6.131
			C150.187,232.143,149.292,233.038,148.187,233.038z M82.807,229.038h63.38v-4.131c0-1.141-0.818-2.096-1.945-2.271
			c-12.27-1.907-24.748-2.152-37.086-0.728l-24.349,2.809V229.038z"/>
	</g>
	<g>
		
			<ellipse transform="matrix(0.8507 -0.5257 0.5257 0.8507 -31.0041 99.8999)" class="st4" cx="160.329" cy="104.519" rx="64.176" ry="64.176"/>
	</g>
	<g>
		<path class="st5" d="M185.061,21.287C139.052,8.095,90.887,34.793,77.694,80.802c-0.761,2.655,0.773,5.423,3.428,6.185
			c2.655,0.761,5.423-0.773,6.184-3.428c11.673-40.709,54.289-64.332,94.998-52.659c40.71,11.674,64.333,54.29,52.66,94.998
			c-11.571,40.354-53.548,63.898-93.934,52.935l1.766-6.159c0.244-0.852-0.57-1.627-1.409-1.341l-18.785,6.411
			c-0.723,0.247-0.979,1.139-0.496,1.731l12.533,15.392c0.56,0.687,1.661,0.461,1.906-0.391l1.726-6.017
			c45.687,12.485,93.215-14.149,106.307-59.804C257.77,82.646,231.071,34.481,185.061,21.287z"/>
	</g>
	<g>
		<path class="st2" d="M155.329,104.328v-0.526c0-2.9,2.351-5.251,5.251-5.251l38.692,0c2.9,0,5.251,2.351,5.251,5.251v0.526
			c0,2.9-2.351,5.251-5.251,5.251H160.58C157.68,109.578,155.329,107.227,155.329,104.328z"/>
	</g>
	<g>
		<path class="st2" d="M160.329,109.578L160.329,109.578c-2.761,0-5-2.239-5-5v-50.65c0-2.761,2.239-5,5-5h0c2.761,0,5,2.239,5,5
			v50.65C165.329,107.34,163.091,109.578,160.329,109.578z"/>
	</g>
	<g>
		<path class="st1" d="M135.485,197.272c-0.92,0-1.801-0.41-2.397-1.143l-12.533-15.392c-0.64-0.786-0.854-1.836-0.576-2.81
			c0.279-0.973,1.018-1.75,1.977-2.077l18.785-6.41c1.094-0.375,2.295-0.111,3.134,0.686c0.84,0.798,1.163,1.985,0.844,3.099
			l-1.2,4.184c38.639,9.368,78.503-13.632,89.522-52.063c5.498-19.175,3.185-39.37-6.513-56.866s-25.6-30.159-44.775-35.657
			c-19.175-5.501-39.37-3.186-56.867,6.512c-17.496,9.698-30.16,25.6-35.658,44.775c-1.064,3.71-4.948,5.861-8.658,4.8
			c-3.71-1.064-5.863-4.949-4.799-8.659c13.497-47.069,62.77-74.383,109.841-60.887l0,0c47.07,13.498,74.384,62.772,60.887,109.842
			c-13.146,45.846-60.792,73.171-106.845,61.683l-1.187,4.14c-0.318,1.112-1.221,1.948-2.355,2.181
			C135.903,197.252,135.693,197.272,135.485,197.272z M124.476,179.218l10.623,13.046l1.249-4.355
			c0.302-1.052,1.389-1.667,2.45-1.378c44.54,12.169,91.129-14.04,103.857-58.427c12.889-44.949-13.195-92.005-58.145-104.894l0,0
			C139.56,10.318,92.505,36.404,79.616,81.354c-0.456,1.59,0.467,3.255,2.057,3.711c1.588,0.457,3.254-0.467,3.71-2.058
			c5.793-20.202,19.133-36.954,37.563-47.17c18.431-10.216,39.707-12.651,59.909-6.859c20.203,5.793,36.955,19.134,47.171,37.563
			c10.216,18.431,12.652,39.706,6.859,59.909c-9.859,34.383-41.643,57.045-75.933,57.047c-6.769,0-13.632-0.883-20.447-2.733
			c-0.517-0.14-0.956-0.481-1.218-0.947c-0.263-0.467-0.328-1.02-0.18-1.534l1.29-4.497L124.476,179.218z"/>
	</g>
	<g>
		<path class="st7" d="M119.677,133.875v-3.638c0-21.264-17.395-38.503-38.853-38.503l0,0c-21.458,0-38.853,17.238-38.853,38.503
			v3.638c-6.746-0.137-12.099,5.238-12.099,11.734c0,6.937,6.056,12.424,13.125,11.677c4.01,17.035,19.418,29.726,37.827,29.726
			c18.409,0,33.817-12.693,37.827-29.726c7.059,0.747,13.125-4.73,13.125-11.677C131.776,139.109,126.419,133.738,119.677,133.875z"
			/>
	</g>
	<g>
		<path class="st1" d="M80.833,174.765c-2.91,0-5.625-1.054-7.447-2.89c-1.403-1.416-2.176-3.206-2.176-5.041c0-1.104,0.896-2,2-2
			s2,0.896,2,2c0,0.784,0.352,1.553,1.017,2.224c1.06,1.068,2.783,1.707,4.606,1.707c1.834,0,3.504-0.622,4.581-1.707
			c0.665-0.67,1.016-1.439,1.016-2.224c0-1.104,0.896-2,2-2s2,0.896,2,2c0,1.836-0.773,3.626-2.176,5.04
			C86.431,173.711,83.726,174.765,80.833,174.765z"/>
	</g>
	<g>
		<path class="st1" d="M100.995,158.712L100.995,158.712c-3.013,0-5.456-2.443-5.456-5.456v-5.82c0-3.013,2.443-5.456,5.456-5.456h0
			c3.013,0,5.456,2.443,5.456,5.456v5.82C106.452,156.269,104.009,158.712,100.995,158.712z"/>
	</g>
	<g>
		<path class="st1" d="M60.644,158.712L60.644,158.712c-3.013,0-5.456-2.443-5.456-5.456v-5.82c0-3.013,2.443-5.456,5.456-5.456h0
			c3.013,0,5.456,2.443,5.456,5.456v5.82C66.1,156.269,63.657,158.712,60.644,158.712z"/>
	</g>
	<g>
		<path class="st1" d="M80.824,189.012c-18.524,0-34.478-12.115-39.361-29.662c-3.332-0.064-6.554-1.317-9.042-3.557
			c-2.891-2.602-4.549-6.313-4.549-10.184c0-3.705,1.464-7.181,4.122-9.785c2.189-2.146,4.968-3.475,7.978-3.845v-1.743
			c0-22.333,18.326-40.502,40.853-40.502s40.853,18.169,40.853,40.502v1.743c3.009,0.37,5.788,1.699,7.977,3.846
			c2.658,2.604,4.122,6.079,4.122,9.784c0,3.871-1.658,7.582-4.548,10.184c-2.489,2.239-5.71,3.492-9.042,3.557
			C115.302,176.896,99.349,189.012,80.824,189.012z M43,155.286c0.918,0,1.731,0.631,1.945,1.542
			c3.906,16.594,18.66,28.184,35.879,28.184s31.974-11.59,35.88-28.184c0.231-0.98,1.156-1.627,2.157-1.531
			c2.811,0.297,5.612-0.604,7.692-2.478c2.048-1.844,3.223-4.472,3.223-7.21c0-2.621-1.037-5.082-2.921-6.928
			c-1.903-1.865-4.454-2.887-7.137-2.807c-0.532,0.009-1.056-0.195-1.44-0.571c-0.384-0.376-0.6-0.892-0.6-1.429v-3.639
			c0-20.127-16.532-36.502-36.853-36.502s-36.853,16.375-36.853,36.502v3.639c0,0.537-0.216,1.053-0.6,1.429
			c-0.384,0.376-0.906,0.577-1.44,0.571c-2.699-0.081-5.234,0.941-7.138,2.807c-1.883,1.846-2.921,4.306-2.921,6.928
			c0,2.738,1.175,5.366,3.225,7.211c2.11,1.899,4.843,2.781,7.691,2.477C42.859,155.29,42.93,155.286,43,155.286z"/>
	</g>
	<g>
		<path class="st2" d="M46.636,84.256c-5.554,6.888-13.014,11.393-21.312,12.177c-1.483,0.14-2.6,1.413-2.6,2.903v2.804
			c0,16.145,13.088,29.233,29.233,29.233h43.447c15.584,0,28.217-12.633,28.217-28.217v0c0-16.391-13.287-29.678-29.678-29.678
			H69.301C60.509,73.477,52.155,77.412,46.636,84.256z"/>
	</g>
	<g>
		<path class="st2" d="M41.972,133.875v-3.638c0-0.208,0.013-0.414,0.016-0.621c-4.724-1.717-8.883-4.609-12.115-8.334v5.386
			c0,4.164,0.924,8.11,2.569,11.654C34.646,135.565,38.072,133.796,41.972,133.875z"/>
	</g>
	<g>
		<path class="st2" d="M118.21,119.763c0.949,3.331,1.467,6.842,1.467,10.474v3.638c3.485-0.071,6.591,1.337,8.787,3.605
			c3.32-5.921,5.119-12.81,5.119-20.721c0-7.658-4.133-14.347-10.287-17.971c0.21,1.426,0.323,2.883,0.323,4.368
			C123.62,109.366,121.61,115.104,118.21,119.763z"/>
	</g>
	<g>
		<path class="st1" d="M95.403,133.372H51.956c-17.222,0-31.233-14.012-31.233-31.233v-2.803c0-2.552,1.896-4.656,4.412-4.895
			C32.617,93.734,39.7,89.671,45.079,83l0,0c5.906-7.323,14.734-11.523,24.222-11.523h24.64c17.468,0,31.679,14.211,31.679,31.679
			C125.62,119.816,112.065,133.372,95.403,133.372z M48.192,85.512c-6.062,7.517-14.117,12.103-22.681,12.912
			c-0.442,0.042-0.789,0.442-0.789,0.912v2.803c0,15.017,12.217,27.233,27.233,27.233h43.447c14.456,0,26.217-11.761,26.217-26.217
			c0-15.262-12.417-27.679-27.679-27.679h-24.64C61.029,75.477,53.335,79.134,48.192,85.512L48.192,85.512z"/>
	</g>
	<g>
		<path class="st1" d="M32.442,140.321c-0.079,0-0.159-0.005-0.239-0.015c-0.688-0.082-1.283-0.516-1.575-1.144
			c-1.829-3.938-2.755-8.143-2.755-12.495v-5.387c0-0.835,0.519-1.582,1.3-1.874c0.783-0.293,1.663-0.067,2.21,0.563
			c3.036,3.499,6.939,6.185,11.287,7.765c0.802,0.292,1.331,1.06,1.316,1.913l-0.008,0.296c-0.003,0.098-0.007,0.194-0.007,0.292
			v3.639c0,0.537-0.216,1.053-0.6,1.429c-0.384,0.376-0.906,0.577-1.44,0.571c-3.122-0.065-6,1.284-7.927,3.695
			C33.622,140.048,33.045,140.321,32.442,140.321z M31.873,126.045v0.623c0,2.792,0.44,5.513,1.313,8.121
			c1.958-1.53,4.291-2.5,6.787-2.81v-1.004C37.038,129.753,34.303,128.086,31.873,126.045z"/>
	</g>
	<g>
		<path class="st1" d="M128.464,139.479c-0.538,0-1.058-0.217-1.437-0.608c-1.927-1.989-4.544-3.07-7.31-2.996
			c-0.532,0.009-1.057-0.195-1.441-0.571c-0.384-0.376-0.6-0.892-0.6-1.429v-3.639c0-3.345-0.468-6.684-1.391-9.926
			c-0.169-0.593-0.055-1.229,0.308-1.727c3.288-4.506,5.026-9.841,5.026-15.429c0-1.35-0.102-2.721-0.301-4.075
			c-0.112-0.762,0.223-1.521,0.861-1.951c0.639-0.429,1.468-0.455,2.132-0.064c6.953,4.094,11.272,11.64,11.272,19.694
			c0,8.037-1.809,15.338-5.375,21.699c-0.309,0.551-0.86,0.924-1.487,1.005C128.636,139.474,128.55,139.479,128.464,139.479z
			 M121.677,131.979c2.233,0.275,4.333,1.078,6.164,2.354c2.485-5.236,3.743-11.136,3.743-17.574c0-5.238-2.215-10.216-5.964-13.743
			c0,0.047,0,0.093,0,0.14c0,6.115-1.806,11.969-5.233,16.991c0.857,3.306,1.291,6.694,1.291,10.09V131.979z"/>
	</g>
</g>
</svg>
