<?xml version="1.0" encoding="utf-8"?>
<!-- Generator: Adobe Illustrator 22.1.0, SVG Export Plug-In . SVG Version: 6.00 Build 0)  -->
<svg version="1.1" id="Layer_1" xmlns="http://www.w3.org/2000/svg" xmlns:xlink="http://www.w3.org/1999/xlink" x="0px" y="0px"
	 viewBox="0 0 256 256" style="enable-background:new 0 0 256 256;" xml:space="preserve">
<style type="text/css">
	.st0{fill:#E0EBFC;}
	.st1{fill:#3762CC;}
	.st2{fill:#4671C6;}
	.st3{fill:#6BDDDD;}
	.st4{fill:#F9A7A7;}
	.st5{fill:#A4C9FF;}
	.st6{fill:#FFEA92;}
	.st7{fill:#F9CFCF;}
	.st8{fill:#FFE164;}
	.st9{fill:#FFDC85;}
	.st10{fill:#FFEA94;}
	.st11{fill:#B9BEFC;}
	.st12{fill:#EAA97D;}
</style>
<g>
	<g>
		<path class="st4" d="M78.518,109.974H24.982c-2.19,0-3.966-1.775-3.966-3.966V65.36c0-16.974,13.76-30.734,30.734-30.734
			c16.961,0,30.734,13.747,30.734,30.734v40.648C82.484,108.198,80.708,109.974,78.518,109.974z"/>
	</g>
	<g>
		<path class="st2" d="M71.227,101.408H32.273c-1.831,0-3.315-1.484-3.315-3.315V81.931c0-1.831,1.484-3.315,3.315-3.315h38.954
			c1.831,0,3.315,1.484,3.315,3.315v16.162C74.542,99.924,73.058,101.408,71.227,101.408z"/>
	</g>
	<g>
		<path class="st0" d="M71.02,85.937H32.48c-0.572,0-1.036-0.464-1.036-1.036v0c0-0.572,0.464-1.036,1.036-1.036h38.54
			c0.572,0,1.036,0.464,1.036,1.036v0C72.056,85.473,71.592,85.937,71.02,85.937z"/>
	</g>
	<g>
		<path class="st0" d="M26.511,64.779c0.809,0,1.478-0.61,1.576-1.413C29.521,51.581,39.584,42.42,51.75,42.42
			s22.229,9.161,23.663,20.946c0.098,0.803,0.767,1.413,1.576,1.413l0,0c0.955,0,1.693-0.837,1.578-1.785
			C76.948,49.634,65.54,39.248,51.75,39.248S26.552,49.634,24.933,62.994C24.818,63.942,25.556,64.779,26.511,64.779L26.511,64.779z
			"/>
	</g>
	<g>
		<path class="st1" d="M78.518,111.974H24.982c-3.29,0-5.966-2.676-5.966-5.966V65.36c0-18.049,14.685-32.733,32.734-32.733
			S84.484,47.312,84.484,65.36v40.647C84.484,109.298,81.808,111.974,78.518,111.974z M51.75,36.627
			c-15.844,0-28.734,12.89-28.734,28.733v40.647c0,1.084,0.882,1.966,1.966,1.966h53.536c1.084,0,1.966-0.882,1.966-1.966V65.36
			C80.484,49.517,67.594,36.627,51.75,36.627z"/>
	</g>
	<g>
		<path class="st1" d="M71.227,103.408H32.273c-2.931,0-5.315-2.385-5.315-5.315V81.931c0-2.931,2.384-5.314,5.315-5.314h38.954
			c2.931,0,5.315,2.384,5.315,5.314v16.162C76.542,101.023,74.158,103.408,71.227,103.408z M32.273,80.616
			c-0.725,0-1.315,0.59-1.315,1.314v16.162c0,0.726,0.59,1.315,1.315,1.315h38.954c0.725,0,1.315-0.59,1.315-1.315V81.931
			c0-0.725-0.59-1.314-1.315-1.314H32.273z"/>
	</g>
	<g>
		<path class="st2" d="M34.325,40.043l-5.318-11.7c-0.257-0.566-0.906-0.838-1.49-0.626l-8.28,3.014
			c-0.584,0.213-0.906,0.838-0.739,1.437l5.538,19.891C26.367,47.212,29.933,43.072,34.325,40.043z"/>
	</g>
	<g>
		<path class="st1" d="M24.037,54.06c-0.059,0-0.118-0.003-0.177-0.008c-0.83-0.073-1.527-0.653-1.75-1.456l-5.538-19.892
			c-0.444-1.593,0.426-3.284,1.98-3.852l8.281-3.014c1.554-0.569,3.31,0.17,3.995,1.678l5.318,11.699
			c0.401,0.882,0.112,1.924-0.686,2.474c-4.129,2.847-7.456,6.732-9.621,11.236C25.503,53.623,24.8,54.06,24.037,54.06z
			 M20.626,32.354l4.062,14.588c1.959-2.873,4.372-5.428,7.142-7.556l-4.333-9.533L20.626,32.354z"/>
	</g>
	<g>
		<path class="st2" d="M84.263,30.731l-8.28-3.014c-0.584-0.213-1.233,0.06-1.49,0.626l-5.318,11.7
			c4.392,3.029,7.958,7.169,10.289,12.017l5.538-19.891C85.168,31.57,84.846,30.944,84.263,30.731z"/>
	</g>
	<g>
		<path class="st1" d="M79.463,54.06c-0.763,0-1.467-0.437-1.802-1.134c-2.165-4.504-5.492-8.39-9.621-11.236
			c-0.797-0.55-1.086-1.592-0.686-2.474l5.318-11.699c0.685-1.508,2.438-2.247,3.996-1.678l8.279,3.014c0,0,0.001,0,0.001,0
			c1.554,0.567,2.424,2.259,1.98,3.853l-5.538,19.891c-0.224,0.803-0.921,1.383-1.75,1.456C79.581,54.057,79.522,54.06,79.463,54.06
			z M71.67,39.387c2.771,2.128,5.183,4.683,7.142,7.556l4.062-14.588l-6.87-2.501L71.67,39.387z"/>
	</g>
	<g>
		<path class="st5" d="M95.5,248H14c-3.314,0-6-2.686-6-6V127.474h87.5V248z"/>
	</g>
	<g>
		<path class="st3" d="M242,248h-81.5V127.474H248V242C248,245.314,245.314,248,242,248z"/>
	</g>
	<g>
		<rect x="95.5" y="8" class="st7" width="65" height="240"/>
	</g>
	<g>
		<path class="st3" d="M95.5,112.712v12.023c0,1.513-1.226,2.739-2.739,2.739H10.739c-1.513,0-2.739-1.226-2.739-2.739v-12.023
			c0-1.513,1.226-2.739,2.739-2.739h82.023C94.274,109.974,95.5,111.2,95.5,112.712z"/>
	</g>
	<g>
		<path class="st6" d="M69.113,118.724L69.113,118.724c0,2.066-1.675,3.741-3.741,3.741H23.182c-2.066,0-3.741-1.675-3.741-3.741v0
			c0-2.066,1.675-3.741,3.741-3.741h42.191C67.438,114.983,69.113,116.658,69.113,118.724z"/>
	</g>
	<g>
		
			<rect x="74.194" y="115.238" transform="matrix(6.123234e-17 -1 1 6.123234e-17 -35.7794 201.668)" class="st2" width="17.5" height="6.972"/>
	</g>
	<g>
		<path class="st1" d="M92.761,129.474H10.739c-2.613,0-4.739-2.126-4.739-4.738v-12.022c0-2.613,2.126-4.739,4.739-4.739h82.022
			c2.613,0,4.739,2.126,4.739,4.739v12.022C97.5,127.348,95.374,129.474,92.761,129.474z M10.739,111.974
			c-0.407,0-0.739,0.332-0.739,0.739v12.022c0,0.407,0.332,0.738,0.739,0.738h82.022c0.407,0,0.739-0.331,0.739-0.738v-12.022
			c0-0.407-0.332-0.739-0.739-0.739H10.739z"/>
	</g>
	<g>
		<path class="st4" d="M248,88.936v12.023c0,1.513-1.226,2.739-2.739,2.739h-82.023c-1.513,0-2.739-1.226-2.739-2.739V88.936
			c0-1.513,1.226-2.739,2.739-2.739h82.023C246.774,86.197,248,87.423,248,88.936z"/>
	</g>
	<g>
		<path class="st7" d="M221.613,94.947L221.613,94.947c0,2.066-1.675,3.741-3.741,3.741h-42.191c-2.066,0-3.741-1.675-3.741-3.741v0
			c0-2.066,1.675-3.741,3.741-3.741h42.191C219.938,91.207,221.613,92.881,221.613,94.947z"/>
	</g>
	<g>
		
			<rect x="226.694" y="91.461" transform="matrix(6.123234e-17 -1 1 6.123234e-17 140.497 330.3916)" class="st2" width="17.5" height="6.972"/>
	</g>
	<g>
		<path class="st1" d="M245.261,105.697h-82.022c-2.613,0-4.739-2.126-4.739-4.738V88.936c0-2.612,2.126-4.738,4.739-4.738h82.022
			c2.613,0,4.739,2.126,4.739,4.738v12.023C250,103.571,247.874,105.697,245.261,105.697z M163.239,88.197
			c-0.407,0-0.739,0.331-0.739,0.738v12.023c0,0.407,0.332,0.738,0.739,0.738h82.022c0.407,0,0.739-0.331,0.739-0.738V88.936
			c0-0.407-0.332-0.738-0.739-0.738H163.239z"/>
	</g>
	<g>
		<path class="st6" d="M240.044,89.515c0-7.382,0-13.45,0-19.742l-2.452,0.942c0,7.012,0,14.612,0,18.8
			c-0.872,0.447-1.471,1.353-1.471,2.4v6.455h5.393v-6.455C241.515,90.867,240.916,89.961,240.044,89.515z"/>
	</g>
	<g>
		<path class="st2" d="M200.972,53.216l-35.159,13.507c-1.311,0.504-1.311,2.359,0,2.863l35.159,13.507
			c1.416,0.544,2.983,0.544,4.4,0l35.159-13.507c1.312-0.504,1.311-2.359,0-2.863l-35.159-13.507
			C203.956,52.672,202.388,52.672,200.972,53.216z"/>
	</g>
	<g>
		<path class="st1" d="M203.172,85.502c-0.988,0-1.977-0.181-2.917-0.542l-35.159-13.507c-1.377-0.529-2.266-1.824-2.266-3.299
			s0.889-2.77,2.266-3.299l35.159-13.506l0.717,1.867l-0.717-1.867c1.881-0.723,3.953-0.723,5.834,0l35.159,13.506
			c1.377,0.529,2.266,1.824,2.266,3.299s-0.889,2.77-2.266,3.299L206.089,84.96C205.148,85.321,204.16,85.502,203.172,85.502z
			 M167.664,68.154l34.026,13.071c0.956,0.367,2.009,0.367,2.965,0l34.026-13.071l-34.026-13.07c-0.956-0.367-2.009-0.367-2.965,0
			L167.664,68.154z"/>
	</g>
	<g>
		<path class="st2" d="M225.656,86.2h-44.821c-0.563,0-1.02-0.457-1.02-1.02V71.121c0-0.563,0.457-1.02,1.02-1.02h44.821
			c0.563,0,1.02,0.457,1.02,1.02V85.18C226.676,85.743,226.219,86.2,225.656,86.2z"/>
	</g>
	<g>
		<path class="st1" d="M225.656,88.2h-44.821c-1.666,0-3.021-1.355-3.021-3.021V71.121c0-1.665,1.355-3.02,3.021-3.02h44.821
			c1.665,0,3.02,1.354,3.02,3.02V85.18C228.676,86.845,227.321,88.2,225.656,88.2z M181.814,84.2h42.862V72.102h-42.862V84.2z"/>
	</g>
	<g>
		<path class="st2" d="M248.001,105.698v19.776c0,1.105-0.895,2-2,2h-83.5c-1.105,0-2-0.895-2-2v-19.776c0-1.105,0.895-2,2-2h83.5
			C247.105,103.698,248.001,104.593,248.001,105.698z"/>
	</g>
	<g>
		<path class="st0" d="M225.535,115.586L225.535,115.586c0,2.392-1.939,4.331-4.331,4.331h-48.852c-2.392,0-4.331-1.939-4.331-4.331
			v0c0-2.392,1.939-4.331,4.331-4.331h48.852C223.595,111.254,225.535,113.193,225.535,115.586z"/>
	</g>
	<g>
		
			<rect x="223.556" y="112.1" transform="matrix(6.123234e-17 -1 1 6.123234e-17 119.8588 351.0298)" class="st4" width="23.776" height="6.972"/>
	</g>
	<g>
		<path class="st1" d="M246,129.474h-83.5c-2.206,0-4-1.794-4-4v-19.776c0-2.206,1.794-4,4-4H246c2.206,0,4,1.794,4,4v19.776
			C250,127.68,248.206,129.474,246,129.474z M246,105.694l-83.5,0.003v19.776H246V105.694z"/>
	</g>
	<g>
		<path class="st1" d="M95.5,250H14c-4.411,0-8-3.589-8-8V127.474c0-1.104,0.896-2,2-2h87.5c1.104,0,2,0.896,2,2V248
			C97.5,249.104,96.604,250,95.5,250z M10,129.474V242c0,2.206,1.794,4,4,4h79.5V129.474H10z"/>
	</g>
	<g>
		<path class="st1" d="M242,250h-81.5c-1.104,0-2-0.896-2-2V127.474c0-1.104,0.896-2,2-2H248c1.104,0,2,0.896,2,2V242
			C250,246.411,246.411,250,242,250z M162.5,246H242c2.206,0,4-1.794,4-4V129.474h-83.5V246z"/>
	</g>
	<g>
		<circle class="st4" cx="128" cy="187.737" r="50"/>
	</g>
	<g>
		<circle class="st0" cx="128" cy="187.737" r="36.607"/>
	</g>
	<g>
		<path class="st1" d="M128,239.737c-28.673,0-52-23.327-52-52s23.327-52,52-52s52,23.327,52,52S156.673,239.737,128,239.737z
			 M128,139.737c-26.467,0-48,21.532-48,48s21.533,48,48,48s48-21.532,48-48S154.467,139.737,128,139.737z"/>
	</g>
	<g>
		<path class="st1" d="M128,226.344c-21.288,0-38.607-17.318-38.607-38.606S106.712,149.13,128,149.13s38.607,17.319,38.607,38.607
			S149.288,226.344,128,226.344z M128,153.13c-19.083,0-34.607,15.524-34.607,34.607c0,19.082,15.525,34.606,34.607,34.606
			s34.607-15.524,34.607-34.606C162.607,168.654,147.083,153.13,128,153.13z"/>
	</g>
	<g>
		<path class="st2" d="M128.078,191.727c-1.534,0-2.778-1.244-2.778-2.778v-26.903c0-1.534,1.244-2.778,2.778-2.778
			c1.534,0,2.778,1.244,2.778,2.778v26.903C130.855,190.483,129.612,191.727,128.078,191.727z"/>
	</g>
	<g>
		<path class="st3" d="M154.981,186.171h-26.903c-1.534,0-2.778,1.244-2.778,2.778c0,1.534,1.244,2.778,2.778,2.778h26.903
			c1.534,0,2.778-1.244,2.778-2.778C157.758,187.415,156.515,186.171,154.981,186.171z"/>
	</g>
</g>
</svg>
