<?xml version="1.0" encoding="utf-8"?>
<!-- Generator: Adobe Illustrator 22.1.0, SVG Export Plug-In . SVG Version: 6.00 Build 0)  -->
<svg version="1.1" id="Layer_1" xmlns="http://www.w3.org/2000/svg" xmlns:xlink="http://www.w3.org/1999/xlink" x="0px" y="0px"
	 viewBox="0 0 256 256" style="enable-background:new 0 0 256 256;" xml:space="preserve">
<style type="text/css">
	.st0{fill:#E0EBFC;}
	.st1{fill:#3762CC;}
	.st2{fill:#4671C6;}
	.st3{fill:#6BDDDD;}
	.st4{fill:#F9A7A7;}
	.st5{fill:#A4C9FF;}
	.st6{fill:#FFEA92;}
	.st7{fill:#F9CFCF;}
	.st8{fill:#FFE164;}
	.st9{fill:#FFDC85;}
	.st10{fill:#FFEA94;}
	.st11{fill:#B9BEFC;}
	.st12{fill:#EAA97D;}
</style>
<g>
	<g>
		<path class="st0" d="M213.818,248H42.182c-4.82,0-8.727-3.907-8.727-8.727V16.727c0-4.82,3.907-8.727,8.727-8.727h171.636
			c4.82,0,8.727,3.907,8.727,8.727v222.545C222.545,244.093,218.638,248,213.818,248z"/>
	</g>
	<g>
		<path class="st1" d="M213.818,250H42.182c-5.915,0-10.728-4.813-10.728-10.728V16.728C31.454,10.813,36.267,6,42.182,6h171.637
			c5.915,0,10.728,4.813,10.728,10.728v222.545C224.546,245.188,219.733,250,213.818,250z M42.182,10
			c-3.71,0-6.728,3.018-6.728,6.728v222.545c0,3.71,3.018,6.728,6.728,6.728h171.637c3.71,0,6.728-3.018,6.728-6.728V16.728
			c0-3.71-3.018-6.728-6.728-6.728H42.182z"/>
	</g>
	<g>
		<path class="st5" d="M182.524,78.093h14.184c1.958,0,3.546,1.588,3.546,3.546v14.184c0,1.958-1.588,3.546-3.546,3.546h-14.184
			c-1.958,0-3.546-1.588-3.546-3.546V81.639C178.978,79.681,180.565,78.093,182.524,78.093z"/>
	</g>
	<g>
		<path class="st5" d="M61.585,83.254h97.147c3.025,0,5.478,2.452,5.478,5.478v0c0,3.025-2.452,5.478-5.478,5.478H61.585
			c-3.025,0-5.478-2.452-5.478-5.478v0C56.107,85.706,58.56,83.254,61.585,83.254z"/>
	</g>
	<g>
		<path class="st5" d="M182.524,106.093h14.184c1.958,0,3.546,1.588,3.546,3.546v14.184c0,1.958-1.588,3.546-3.546,3.546h-14.184
			c-1.958,0-3.546-1.588-3.546-3.546v-14.184C178.978,107.681,180.565,106.093,182.524,106.093z"/>
	</g>
	<g>
		<path class="st5" d="M61.585,111.254h97.147c3.025,0,5.478,2.452,5.478,5.478v0c0,3.025-2.452,5.478-5.478,5.478H61.585
			c-3.025,0-5.478-2.452-5.478-5.478v0C56.107,113.706,58.56,111.254,61.585,111.254z"/>
	</g>
	<g>
		<path class="st5" d="M182.524,134.093h14.184c1.958,0,3.546,1.588,3.546,3.546v14.184c0,1.958-1.588,3.546-3.546,3.546h-14.184
			c-1.958,0-3.546-1.588-3.546-3.546v-14.184C178.978,135.681,180.565,134.093,182.524,134.093z"/>
	</g>
	<g>
		<path class="st5" d="M61.585,139.254h97.147c3.025,0,5.478,2.452,5.478,5.478v0c0,3.025-2.452,5.478-5.478,5.478H61.585
			c-3.025,0-5.478-2.452-5.478-5.478v0C56.107,141.706,58.56,139.254,61.585,139.254z"/>
	</g>
	<g>
		<path class="st5" d="M182.524,162.093h14.184c1.958,0,3.546,1.588,3.546,3.546v14.184c0,1.958-1.588,3.546-3.546,3.546h-14.184
			c-1.958,0-3.546-1.588-3.546-3.546v-14.184C178.978,163.681,180.565,162.093,182.524,162.093z"/>
	</g>
	<g>
		<path class="st5" d="M61.585,167.254h97.147c3.025,0,5.478,2.452,5.478,5.478v0c0,3.025-2.452,5.478-5.478,5.478H61.585
			c-3.025,0-5.478-2.452-5.478-5.478v0C56.107,169.706,58.56,167.254,61.585,167.254z"/>
	</g>
	<g>
		<path class="st4" d="M192.298,92.253h-5.455c-1.079,2.897-1.151,3.433-2.151,3.433c-0.697,0-1.3-0.595-1.3-1.227
			c0-0.439,0.223-0.959,0.394-1.382c3.775-9.583,3.837-10.489,4.837-11.053c0.515-0.292,1.379-0.287,1.885,0
			c1,0.566,1.034,1.382,4.92,10.979c0.37,0.89,0.681,1.634,0.023,2.293c-0.26,0.26-0.572,0.389-0.939,0.389
			C193.386,95.686,193.19,94.597,192.298,92.253z M187.556,90.212h4.01l-2.023-5.538L187.556,90.212z"/>
	</g>
	<g>
		<path class="st7" d="M195.255,147.203c0,5.238-10.196,6.922-11.776-0.567c-1.857-8.745,7.812-11.18,11.061-6.586
			c0.561,0.792,1.01,1.915,0.348,2.631c-0.466,0.505-1.242,0.428-1.579,0.11c-0.824-0.78-0.569-1.475-1.831-2.343
			c-1.49-1.025-5.433-0.891-5.433,4.394c0,5.862,5.527,5.781,6.774,2.38C193.471,145.224,195.255,146.039,195.255,147.203z"/>
	</g>
	<g>
		<path class="st2" d="M185.689,123.441c-1.142,0-1.648-0.471-1.648-1.666c0-13.616-1.491-11.753,5.996-11.753
			c1.929,0,3.643,0.377,4.329,2.257c0.41,1.12,0.358,3.049-1.822,4.059c3.17,1.009,2.998,3.851,2.069,5.304
			C193.251,123.776,190.867,123.441,185.689,123.441z M186.761,112.064v3.469c2.595,0,5.135,0.385,5.135-1.785
			C191.895,111.788,189.87,112.064,186.761,112.064z M186.761,117.482v3.917c2.9,0,5.674,0.404,5.674-1.986
			C192.435,117.054,189.589,117.482,186.761,117.482z"/>
	</g>
	<g>
		<path class="st4" d="M192.298,176.237h-5.455c-1.079,2.897-1.151,3.433-2.151,3.433c-0.697,0-1.3-0.595-1.3-1.227
			c0-0.439,0.223-0.959,0.394-1.382c3.775-9.583,3.837-10.489,4.837-11.053c0.515-0.292,1.379-0.287,1.885,0
			c0.796,0.451,1.081,1.447,1.414,2.32c3.355,8.286,3.917,9.407,3.917,10.096c0,0.597-0.555,1.245-1.327,1.245
			C193.461,179.67,193.293,178.852,192.298,176.237z M187.556,174.196h4.01l-2.023-5.538L187.556,174.196z"/>
	</g>
	<g>
		<path class="st2" d="M71.72,213.446c-4.248,0-5.487,6.053,0.816,6.053h4.712v4.593c-7.974,4.17-17.719,3.034-17.719-9.489
			c0-12.977,11.87-12.942,15.166-9.124c1.927,2.23,2.334,4.411,5.002,4.411c2.026,0,3.695-1.567,3.695-3.559
			c0-11.706-31.684-15.708-31.684,8.453c0,20.805,23.464,20.483,31.374,13.24c1.112-1.018,1.329-2.179,1.329-3.768
			C84.413,212.256,85.381,213.446,71.72,213.446z"/>
	</g>
	<g>
		<path class="st2" d="M115.354,203.673c-2.143-5.292-6.995-6-12.134-6c-9.412,0-13.395-1.032-13.395,4.624
			c0,27.658-0.37,27.383,1.058,28.968c1.915,2.125,6.673,1.705,6.673-3.406v-8.905c5.627,0,11.41,0.52,15.299-2.734
			c2.194-1.836,3.307-4.554,3.307-8.077C116.162,206.503,115.89,204.999,115.354,203.673z M97.556,203.726
			c3.999,0,8.083-0.252,9.627,1.314c1.558,1.669,1.406,4.574,0.416,5.911c-1.712,2.316-5.907,1.927-10.043,1.927V203.726z"/>
	</g>
	<g>
		<path class="st2" d="M145.087,225.134c-9.936-24.541-9.689-24.013-9.689-24.013c-1.045-2.54-2.564-4.015-5.3-4.015
			c-4.089,0-4.918,3.188-6.267,6.64c-9.903,25.14-10.746,25.392-8.378,27.648c0.742,0.708,1.612,1.067,2.588,1.067
			c2.804,0,3.066-1.499,5.674-8.498h12.813c2.373,6.235,2.907,8.498,5.829,8.498c2.205,0,3.786-1.852,3.786-3.582
			C146.143,228.064,145.797,226.837,145.087,225.134z M125.845,217.91l4.21-11.741l4.29,11.741H125.845z"/>
	</g>
	<g>
		<path class="st5" d="M198.29,226.925h-33c-3.314,0-6-2.686-6-6v-11c0-3.314,2.686-6,6-6h33c3.314,0,6,2.686,6,6v11
			C204.29,224.239,201.604,226.925,198.29,226.925z"/>
	</g>
	<g>
		<path class="st6" d="M174.751,70.408c0-9.54,0-16.455,0-25.499c-0.008,0.003-0.016,0.008-0.024,0.011l-2.025,0.778
			c0,6.59,0,19.194,0,24.71c-0.729,0.373-1.229,1.131-1.229,2.006v5.396h4.508v-5.396C175.981,71.538,175.481,70.781,174.751,70.408
			z"/>
	</g>
	<g>
		<path class="st2" d="M124.313,24.059L79.506,41.271c-1.671,0.642-1.671,3.007,0,3.649l44.807,17.213
			c1.805,0.693,3.802,0.693,5.607,0l44.807-17.213c1.671-0.642,1.671-3.007,0-3.649L129.92,24.059
			C128.116,23.365,126.118,23.365,124.313,24.059z"/>
	</g>
	<g>
		<path class="st1" d="M127.117,64.654c-1.193,0-2.386-0.219-3.521-0.654L78.79,46.787c-1.541-0.592-2.537-2.04-2.537-3.691
			s0.996-3.1,2.537-3.691l44.807-17.213c2.27-0.871,4.771-0.871,7.04,0l44.808,17.213c1.541,0.592,2.536,2.041,2.536,3.691
			s-0.995,3.1-2.536,3.691L130.637,64C129.502,64.436,128.31,64.654,127.117,64.654z M127.116,25.538
			c-0.706,0-1.413,0.129-2.086,0.388l0,0L80.224,43.139l44.807,17.127c1.345,0.518,2.826,0.518,4.173,0l44.808-17.213
			l-44.808-17.127C128.53,25.667,127.823,25.538,127.116,25.538z M124.313,24.059h0.01H124.313z"/>
	</g>
	<g>
		<path class="st2" d="M156.113,45.577H98.307c-0.529,0-0.957,0.429-0.957,0.957v14.273c0,3.15,13.369,5.704,29.86,5.704
			c16.491,0,29.86-2.554,29.86-5.704h0.001V46.534C157.07,46.005,156.642,45.577,156.113,45.577z"/>
	</g>
	<g>
		<path class="st1" d="M127.209,68.511c-5.32,0-31.859-0.371-31.859-7.704V46.534c0-1.631,1.326-2.958,2.957-2.958h57.807
			c1.631,0,2.957,1.327,2.957,2.958v14.272C159.068,68.14,132.529,68.511,127.209,68.511z M99.35,60.534
			c1.413,1.41,10.878,3.977,27.859,3.977s26.447-2.566,27.86-3.977l0.001-12.958H99.35V60.534z M156.113,47.576h0.01H156.113z"/>
	</g>
</g>
</svg>
