<?xml version="1.0" encoding="utf-8"?>
<!-- Generator: Adobe Illustrator 22.1.0, SVG Export Plug-In . SVG Version: 6.00 Build 0)  -->
<svg version="1.1" id="Layer_1" xmlns="http://www.w3.org/2000/svg" xmlns:xlink="http://www.w3.org/1999/xlink" x="0px" y="0px"
	 viewBox="0 0 256 256" style="enable-background:new 0 0 256 256;" xml:space="preserve">
<style type="text/css">
	.st0{fill:#E0EBFC;}
	.st1{fill:#3762CC;}
	.st2{fill:#4671C6;}
	.st3{fill:#6BDDDD;}
	.st4{fill:#F9A7A7;}
	.st5{fill:#A4C9FF;}
	.st6{fill:#FFEA92;}
	.st7{fill:#F9CFCF;}
	.st8{fill:#FFE164;}
	.st9{fill:#FFDC85;}
	.st10{fill:#FFEA94;}
	.st11{fill:#B9BEFC;}
	.st12{fill:#EAA97D;}
</style>
<g>
	<g>
		<path class="st0" d="M35.758,196.193V175.2c0-1.74,1.41-3.15,3.15-3.15H218.65v27.293H38.908
			C37.168,199.343,35.758,197.933,35.758,196.193z"/>
	</g>
	<g>
		<path class="st5" d="M201.704,182.697h-141c-1.105,0-2-0.895-2-2l0,0c0-1.105,0.895-2,2-2h141c1.105,0,2,0.895,2,2l0,0
			C203.704,181.801,202.809,182.697,201.704,182.697z"/>
	</g>
	<g>
		<path class="st5" d="M201.704,192.697h-141c-1.105,0-2-0.895-2-2l0,0c0-1.105,0.895-2,2-2h141c1.105,0,2,0.895,2,2l0,0
			C203.704,191.801,202.809,192.697,201.704,192.697z"/>
	</g>
	<g>
		<path class="st5" d="M38.908,172.05c-1.74,0-3.15,1.41-3.15,3.15v20.993c0,1.739,1.41,3.15,3.15,3.15H52.5V172.05H38.908z"/>
	</g>
	<g>
		<path class="st4" d="M228.642,214.043V241.7c0,3.479-2.821,6.3-6.3,6.3H33.658c-3.479,0-6.3-2.821-6.3-6.3v-27.657
			c0-3.479,2.821-6.3,6.3-6.3h188.684C225.821,207.743,228.642,210.564,228.642,214.043z"/>
	</g>
	<g>
		<path class="st7" d="M170.949,227.872L170.949,227.872c0,5.002-4.055,9.058-9.058,9.058H59.728c-5.002,0-9.058-4.055-9.058-9.058
			v0c0-5.002,4.055-9.058,9.058-9.058h102.163C166.894,218.814,170.949,222.869,170.949,227.872z"/>
	</g>
	<g>
		
			<rect x="179.631" y="219.852" transform="matrix(6.123234e-17 -1 1 6.123234e-17 -28.1125 427.6306)" class="st2" width="40.257" height="16.038"/>
	</g>
	<g>
		<path class="st1" d="M222.342,250H33.658c-4.577,0-8.3-3.724-8.3-8.3v-27.657c0-4.576,3.724-8.3,8.3-8.3h188.684
			c4.576,0,8.3,3.724,8.3,8.3V241.7C230.642,246.276,226.918,250,222.342,250z M33.658,209.743c-2.371,0-4.3,1.929-4.3,4.3V241.7
			c0,2.371,1.929,4.3,4.3,4.3h188.684c2.371,0,4.3-1.929,4.3-4.3v-27.657c0-2.371-1.929-4.3-4.3-4.3H33.658z"/>
	</g>
	<g>
		<path class="st3" d="M228.642,167.85L228.642,167.85c0-2.32-1.88-4.201-4.2-4.201H33.658c-3.479,0-6.3,2.821-6.3,6.3v31.493
			c0,3.479,2.821,6.3,6.3,6.3h190.784c2.32,0,4.2-1.88,4.2-4.2v0c0-2.32-1.88-4.2-4.2-4.2H38.908c-1.74,0-3.15-1.41-3.15-3.15V175.2
			c0-1.74,1.41-3.15,3.15-3.15h185.534C226.762,172.05,228.642,170.17,228.642,167.85z"/>
	</g>
	<g>
		<circle class="st12" cx="127.75" cy="43" r="27.5"/>
	</g>
	<g>
		<circle class="st6" cx="127.75" cy="43" r="21.07"/>
	</g>
	<g>
		<path class="st0" d="M165.751,43L165.751,43c-1.933,0-3.5-1.567-3.5-3.5v-28c0-1.933,1.567-3.5,3.5-3.5l0,0
			c1.933,0,3.5,1.567,3.5,3.5v28C169.251,41.433,167.684,43,165.751,43z"/>
	</g>
	<g>
		<path class="st0" d="M90.5,60.5L90.5,60.5c-1.933,0-3.5-1.567-3.5-3.5V29c0-1.933,1.567-3.5,3.5-3.5l0,0
			c1.933,0,3.5,1.567,3.5,3.5v28C94,58.933,92.433,60.5,90.5,60.5z"/>
	</g>
	<g>
		<path class="st12" d="M128.987,27.355c8.113,0.835,9.49,8.77,5.325,8.77c-3.286,0-1.25-3.738-5.325-5.064v7.745
			c3.025,0.83,8.527,2.045,8.527,8.23c0,4.295-3.046,7.937-8.527,8.398c0,3.821,0.119,5.454-0.214,6.237
			c-0.295,0.689-1.516,0.645-1.881,0.093c-0.42-0.639-0.27-1.773-0.27-6.293c-9.011-1.002-10.768-10.185-6.219-10.185
			c3.666,0,1.251,4.922,6.219,6.33v-8.658c-1.663-0.459-3.053-0.971-4.171-1.536c-5.743-2.901-5.546-13.221,4.171-14.067
			c0-1.981-0.251-3.537,1.173-3.537C129.251,23.818,128.987,25.343,128.987,27.355z M126.623,38.117v-7.131
			c-2.399,0.715-3.314,1.68-3.314,3.538C123.309,35.986,123.742,37.061,126.623,38.117z M128.987,43.647v8.155
			c2.677-0.53,3.929-2.287,3.929-4.152C132.917,46.049,132.308,44.701,128.987,43.647z"/>
	</g>
	<g>
		<path class="st1" d="M218.65,201.343H38.908c-2.84,0-5.15-2.31-5.15-5.149V175.2c0-2.84,2.31-5.149,5.15-5.149H218.65
			c1.104,0,2,0.896,2,2v27.292C220.65,200.447,219.755,201.343,218.65,201.343z M38.908,174.051c-0.634,0-1.15,0.516-1.15,1.149
			v20.993c0,0.634,0.516,1.149,1.15,1.149H216.65v-23.292H38.908z"/>
	</g>
	<g>
		<path class="st1" d="M224.442,209.743H33.658c-4.577,0-8.3-3.724-8.3-8.3V169.95c0-4.577,3.724-8.301,8.3-8.301h190.784
			c3.418,0,6.199,2.781,6.199,6.2v0.001c0,3.419-2.781,6.2-6.199,6.2H38.908c-0.634,0-1.15,0.516-1.15,1.149v20.993
			c0,0.634,0.516,1.149,1.15,1.149h185.535c3.418,0,6.199,2.781,6.199,6.2S227.86,209.743,224.442,209.743z M33.658,165.649
			c-2.371,0-4.3,1.93-4.3,4.301v31.493c0,2.371,1.929,4.3,4.3,4.3h190.784c1.213,0,2.199-0.987,2.199-2.2s-0.986-2.2-2.199-2.2
			H38.908c-2.84,0-5.15-2.31-5.15-5.149V175.2c0-2.84,2.31-5.149,5.15-5.149h185.535c1.213,0,2.199-0.987,2.199-2.2
			c0-1.214-0.986-2.201-2.199-2.201H33.658z"/>
	</g>
	<g>
		<path class="st6" d="M220.172,171.953c0-18.453,0-33.622,0-49.351l-6.129,2.354c0,17.528,0,36.528,0,46.996
			c-2.181,1.116-3.677,3.381-3.677,6v16.137h13.482v-16.137C223.85,175.334,222.354,173.069,220.172,171.953z"/>
	</g>
	<g>
		<path class="st2" d="M122.501,81.214l-87.892,33.764c-3.279,1.259-3.279,5.898,0,7.157l87.892,33.764
			c3.54,1.36,7.458,1.36,10.998,0l87.892-33.764c3.279-1.259,3.279-5.898,0-7.157l-87.892-33.764
			C129.959,79.854,126.041,79.854,122.501,81.214z"/>
	</g>
	<g>
		<path class="st1" d="M128,158.921c-2.106,0-4.212-0.385-6.216-1.155l-87.892-33.764c-2.273-0.874-3.741-3.011-3.741-5.446
			c0-2.435,1.468-4.571,3.741-5.445l87.892-33.764c4.009-1.54,8.423-1.54,12.433,0l87.891,33.764
			c2.273,0.874,3.742,3.011,3.742,5.445c0,2.436-1.469,4.572-3.741,5.446l-87.893,33.764
			C132.212,158.535,130.105,158.921,128,158.921z M128,82.192c-1.62,0-3.24,0.296-4.782,0.889l0,0l-87.892,33.764
			c-1.091,0.419-1.176,1.416-1.176,1.711c0,0.296,0.084,1.293,1.176,1.712l87.892,33.764c3.084,1.186,6.481,1.186,9.563,0
			l87.893-33.764c1.091-0.419,1.176-1.416,1.176-1.712c0-0.295-0.085-1.292-1.177-1.711l-87.891-33.764
			C131.24,82.488,129.62,82.192,128,82.192z M122.501,81.214h0.01H122.501z"/>
	</g>
	<g>
		<path class="st2" d="M184.205,163.667H72.16c-1.408,0-2.55-1.142-2.55-2.55v-35.144c0-1.408,1.142-2.55,2.55-2.55h112.045
			c1.408,0,2.55,1.142,2.55,2.55v35.144C186.755,162.525,185.613,163.667,184.205,163.667z"/>
	</g>
	<g>
		<path class="st1" d="M184.205,165.667H72.16c-2.509,0-4.55-2.041-4.55-4.551v-35.144c0-2.51,2.041-4.551,4.55-4.551h112.045
			c2.509,0,4.55,2.041,4.55,4.551v35.144C188.755,163.626,186.714,165.667,184.205,165.667z M72.16,125.422
			c-0.303,0-0.55,0.247-0.55,0.551v35.144c0,0.304,0.247,0.551,0.55,0.551h112.045c0.303,0,0.55-0.247,0.55-0.551v-35.144
			c0-0.304-0.247-0.551-0.55-0.551H72.16z"/>
	</g>
	<g>
		<path class="st1" d="M127.75,72.5c-16.266,0-29.5-13.233-29.5-29.5s13.234-29.5,29.5-29.5c16.267,0,29.5,13.233,29.5,29.5
			S144.017,72.5,127.75,72.5z M127.75,17.5c-14.061,0-25.5,11.439-25.5,25.5s11.439,25.5,25.5,25.5s25.5-11.439,25.5-25.5
			S141.811,17.5,127.75,17.5z"/>
	</g>
</g>
</svg>
