<?xml version="1.0" encoding="utf-8"?>
<!-- Generator: Adobe Illustrator 22.1.0, SVG Export Plug-In . SVG Version: 6.00 Build 0)  -->
<svg version="1.1" id="Layer_1" xmlns="http://www.w3.org/2000/svg" xmlns:xlink="http://www.w3.org/1999/xlink" x="0px" y="0px"
	 viewBox="0 0 256 256" style="enable-background:new 0 0 256 256;" xml:space="preserve">
<style type="text/css">
	.st0{fill:#E0EBFC;}
	.st1{fill:#3762CC;}
	.st2{fill:#4671C6;}
	.st3{fill:#6BDDDD;}
	.st4{fill:#F9A7A7;}
	.st5{fill:#A4C9FF;}
	.st6{fill:#FFEA92;}
	.st7{fill:#F9CFCF;}
	.st8{fill:#FFE164;}
	.st9{fill:#FFDC85;}
	.st10{fill:#FFEA94;}
	.st11{fill:#B9BEFC;}
	.st12{fill:#EAA97D;}
</style>
<g>
	<g>
		<path class="st4" d="M198,16v24c0,4.418-3.582,8-8,8H66c-4.418,0-8-3.582-8-8V16c0-4.418,3.582-8,8-8h124
			C194.418,8,198,11.582,198,16z"/>
	</g>
	<g>
		<path class="st1" d="M190,50H66c-5.514,0-10-4.486-10-10V16c0-5.514,4.486-10,10-10h124c5.514,0,10,4.486,10,10v24
			C200,45.514,195.514,50,190,50z M66,10c-3.309,0-6,2.691-6,6v24c0,3.309,2.691,6,6,6h124c3.309,0,6-2.691,6-6V16
			c0-3.309-2.691-6-6-6H66z"/>
	</g>
	<g>
		<path class="st2" d="M128,248H36.732c-2.192,0-3.968-1.777-3.968-3.968V126.376c0-2.192,1.777-3.968,3.968-3.968h84.175
			c3.917,0,7.092,3.175,7.092,7.092V248z"/>
	</g>
	<g>
		<path class="st2" d="M128,248h91.268c2.192,0,3.968-1.777,3.968-3.968V126.376c0-2.192-1.777-3.968-3.968-3.968h-84.175
			c-3.917,0-7.092,3.175-7.092,7.092V248z"/>
	</g>
	<g>
		<path class="st1" d="M128,250H36.732c-3.291,0-5.968-2.677-5.968-5.968V126.375c0-3.291,2.677-5.968,5.968-5.968h84.176
			c5.014,0,9.092,4.079,9.092,9.093V248C130,249.104,129.104,250,128,250z M36.732,124.407c-1.085,0-1.968,0.883-1.968,1.968
			v117.656c0,1.085,0.883,1.968,1.968,1.968H126V129.5c0-2.808-2.284-5.093-5.092-5.093H36.732z"/>
	</g>
	<g>
		<path class="st1" d="M219.268,250H128c-1.104,0-2-0.896-2-2V129.5c0-5.014,4.079-9.093,9.092-9.093h84.176
			c3.291,0,5.968,2.677,5.968,5.968v117.656C225.236,247.323,222.559,250,219.268,250z M130,246h89.268
			c1.085,0,1.968-0.883,1.968-1.968V126.375c0-1.085-0.883-1.968-1.968-1.968h-84.176c-2.808,0-5.092,2.285-5.092,5.093V246z"/>
	</g>
	<g>
		<path class="st11" d="M207.363,115.86v6.547H128H48.637v-6.547c-6.085,0.661-6.435,6.547-6.435,6.547v119.045H128h85.798V122.407
			C213.798,122.407,213.448,116.521,207.363,115.86z"/>
	</g>
	<g>
		<path class="st1" d="M213.798,243.453H42.202c-1.104,0-2-0.896-2-2V122.407c0-0.04,0.001-0.079,0.003-0.119
			c0.156-2.619,2.074-7.749,8.215-8.417c0.568-0.062,1.129,0.121,1.552,0.5c0.423,0.379,0.665,0.921,0.665,1.489v4.547h154.727
			v-4.547c0-0.568,0.242-1.109,0.665-1.489c0.422-0.379,0.984-0.562,1.552-0.5c6.142,0.668,8.059,5.797,8.215,8.417
			c0.002,0.04,0.003,0.08,0.003,0.119v119.045C215.798,242.557,214.903,243.453,213.798,243.453z M44.202,239.453h167.597V122.485
			c-0.042-0.452-0.355-2.749-2.435-3.949v3.871c0,1.104-0.896,2-2,2H48.637c-1.104,0-2-0.896-2-2v-3.873
			c-2.117,1.217-2.402,3.564-2.435,3.944V239.453z"/>
	</g>
	<g>
		<path class="st0" d="M128,241.453H48.637V115.86h72.842c3.602,0,6.521,2.92,6.521,6.521V241.453z"/>
	</g>
	<g>
		<path class="st0" d="M128,241.453h79.363V115.86h-72.842c-3.602,0-6.521,2.92-6.521,6.521V241.453z"/>
	</g>
	<g>
		<path class="st11" d="M196.914,139.16h-56.348c-1.534,0-2.778-1.244-2.778-2.778l0,0c0-1.534,1.244-2.778,2.778-2.778h56.348
			c1.534,0,2.778,1.244,2.778,2.778l0,0C199.692,137.917,198.448,139.16,196.914,139.16z"/>
	</g>
	<g>
		<path class="st11" d="M196.914,155.033h-56.348c-1.534,0-2.778-1.244-2.778-2.778l0,0c0-1.534,1.244-2.778,2.778-2.778h56.348
			c1.534,0,2.778,1.244,2.778,2.778l0,0C199.692,153.789,198.448,155.033,196.914,155.033z"/>
	</g>
	<g>
		<path class="st11" d="M196.914,202.651h-56.348c-1.534,0-2.778-1.244-2.778-2.778v0c0-1.534,1.244-2.778,2.778-2.778h56.348
			c1.534,0,2.778,1.244,2.778,2.778v0C199.692,201.407,198.448,202.651,196.914,202.651z"/>
	</g>
	<g>
		<path class="st11" d="M196.914,218.524h-56.348c-1.534,0-2.778-1.244-2.778-2.778l0,0c0-1.534,1.244-2.778,2.778-2.778h56.348
			c1.534,0,2.778,1.244,2.778,2.778l0,0C199.692,217.28,198.448,218.524,196.914,218.524z"/>
	</g>
	<g>
		<path class="st11" d="M116.492,139.16H90.104c-1.534,0-2.778-1.244-2.778-2.778l0,0c0-1.534,1.244-2.778,2.778-2.778h26.388
			c1.534,0,2.778,1.244,2.778,2.778l0,0C119.27,137.917,118.026,139.16,116.492,139.16z"/>
	</g>
	<g>
		<path class="st11" d="M116.492,155.033H90.104c-1.534,0-2.778-1.244-2.778-2.778l0,0c0-1.534,1.244-2.778,2.778-2.778h26.388
			c1.534,0,2.778,1.244,2.778,2.778l0,0C119.27,153.789,118.026,155.033,116.492,155.033z"/>
	</g>
	<g>
		<path class="st11" d="M116.492,170.906H60.144c-1.534,0-2.778-1.244-2.778-2.778l0,0c0-1.534,1.244-2.778,2.778-2.778h56.348
			c1.534,0,2.778,1.244,2.778,2.778l0,0C119.27,169.662,118.026,170.906,116.492,170.906z"/>
	</g>
	<g>
		<path class="st11" d="M116.492,186.778H60.144c-1.534,0-2.778-1.244-2.778-2.778v0c0-1.534,1.244-2.778,2.778-2.778h56.348
			c1.534,0,2.778,1.244,2.778,2.778v0C119.27,185.535,118.026,186.778,116.492,186.778z"/>
	</g>
	<g>
		<path class="st11" d="M117.683,218.524H58.954c-0.877,0-1.587-0.711-1.587-1.587v-18.254c0-0.877,0.711-1.587,1.587-1.587h58.729
			c0.877,0,1.587,0.711,1.587,1.587v18.254C119.27,217.813,118.559,218.524,117.683,218.524z"/>
	</g>
	<g>
		<path class="st1" d="M128,243.453H48.637c-1.104,0-2-0.896-2-2V115.86c0-1.104,0.896-2,2-2h72.842
			c4.699,0,8.521,3.823,8.521,8.521v119.071C130,242.557,129.104,243.453,128,243.453z M50.637,239.453H126V122.381
			c0-2.493-2.028-4.521-4.521-4.521H50.637V239.453z"/>
	</g>
	<g>
		<path class="st1" d="M207.363,243.453H128c-1.104,0-2-0.896-2-2V122.381c0-4.699,3.823-8.521,8.521-8.521h72.842
			c1.104,0,2,0.896,2,2v125.593C209.363,242.557,208.468,243.453,207.363,243.453z M130,239.453h75.363V117.86h-70.842
			c-2.493,0-4.521,2.028-4.521,4.521V239.453z"/>
	</g>
	<g>
		<path class="st11" d="M121.565,234.905H48.637c-6.085,0.661-6.435,6.548-6.435,6.548h6.435H128
			C128,241.452,127.65,235.566,121.565,234.905z"/>
	</g>
	<g>
		<path class="st11" d="M207.363,234.905h-72.929c-6.085,0.661-6.435,6.548-6.435,6.548h79.363h6.435
			C213.798,241.452,213.448,235.566,207.363,234.905z"/>
	</g>
	<g>
		<path class="st1" d="M128,243.453H42.202c-0.551,0-1.078-0.228-1.456-0.628c-0.378-0.401-0.574-0.94-0.541-1.491
			c0.156-2.619,2.074-7.749,8.215-8.417c0.072-0.008,0.144-0.012,0.216-0.012h72.928c0.072,0,0.145,0.004,0.216,0.012
			c6.142,0.668,8.06,5.798,8.215,8.417c0.033,0.55-0.163,1.089-0.541,1.49S128.551,243.453,128,243.453z M44.837,239.453h80.522
			c-0.595-1.107-1.734-2.28-3.91-2.548H48.752C46.569,237.174,45.43,238.349,44.837,239.453z"/>
	</g>
	<g>
		<path class="st1" d="M213.798,243.453H128c-0.551,0-1.078-0.228-1.456-0.628s-0.574-0.94-0.541-1.49
			c0.156-2.62,2.073-7.75,8.215-8.417c0.072-0.008,0.144-0.012,0.216-0.012h72.928c0.072,0,0.145,0.004,0.216,0.012
			c6.142,0.668,8.059,5.798,8.215,8.417c0.033,0.55-0.163,1.089-0.541,1.491C214.876,243.225,214.35,243.453,213.798,243.453z
			 M130.641,239.453h80.517c-0.595-1.107-1.734-2.28-3.91-2.548H134.55C132.375,237.173,131.237,238.344,130.641,239.453z"/>
	</g>
	<g>
		<path class="st11" d="M81.969,155.033H58.954c-0.877,0-1.587-0.711-1.587-1.587v-18.254c0-0.877,0.711-1.587,1.587-1.587h23.015
			c0.877,0,1.587,0.711,1.587,1.587v18.254C83.556,154.322,82.846,155.033,81.969,155.033z"/>
	</g>
	<g>
		<path class="st11" d="M198.104,186.778h-58.729c-0.877,0-1.587-0.711-1.587-1.587v-18.254c0-0.877,0.711-1.587,1.587-1.587h58.729
			c0.877,0,1.587,0.711,1.587,1.587v18.254C199.692,186.068,198.981,186.778,198.104,186.778z"/>
	</g>
	<g>
		<path class="st7" d="M192.01,205.799v-67.868l-8.727-12.651c-0.299-0.433-1.072-0.433-1.371,0l-8.727,12.651l0,67.868H192.01z"/>
	</g>
	<g>
		<path class="st3" d="M178.023,205.799V140.67c-1.692,0-3.069-2.965-4.838-2.708v67.837H178.023z"/>
	</g>
	<g>
		<path class="st3" d="M187.172,205.799V140.67c-0.89,0-1.144-0.448-3.608-2.421c-1.843-1.475-3.705,2.421-5.54,2.421v65.129
			H187.172z"/>
	</g>
	<g>
		<path class="st3" d="M192.01,205.799v-67.837c-1.769-0.257-3.147,2.708-4.838,2.708v65.129H192.01z"/>
	</g>
	<g>
		<rect x="173.185" y="205.799" class="st0" width="18.824" height="7.175"/>
	</g>
	<g>
		<path class="st4" d="M187.989,227.401h-10.784c-2.22,0-4.02-1.8-4.02-4.02v-10.407h18.824v10.407
			C192.01,225.601,190.21,227.401,187.989,227.401z"/>
	</g>
	<g>
		<path class="st1" d="M192.009,214.974h-18.824c-1.104,0-2-0.896-2-2v-7.175c0-1.104,0.896-2,2-2h18.824c1.104,0,2,0.896,2,2v7.175
			C194.009,214.079,193.114,214.974,192.009,214.974z M175.185,210.974h14.824v-3.175h-14.824V210.974z"/>
	</g>
	<g>
		<path class="st1" d="M187.989,229.401h-10.784c-3.319,0-6.02-2.701-6.02-6.02v-10.407c0-1.104,0.896-2,2-2h18.824
			c1.104,0,2,0.896,2,2v10.407C194.009,226.7,191.309,229.401,187.989,229.401z M175.185,214.974v8.407
			c0,1.114,0.906,2.02,2.02,2.02h10.784c1.114,0,2.02-0.906,2.02-2.02v-8.407H175.185z"/>
	</g>
	<g>
		<path class="st2" d="M188.338,132.609l-5.055-7.328c-0.299-0.433-1.072-0.433-1.371,0l-5.055,7.328H188.338z"/>
	</g>
	<g>
		<path class="st1" d="M192.009,207.799h-18.824c-1.104,0-2-0.896-2-2v-67.868c0-0.406,0.124-0.802,0.354-1.136l8.727-12.651
			c0.514-0.745,1.386-1.189,2.332-1.189s1.818,0.444,2.332,1.189l8.727,12.651c0.23,0.334,0.354,0.73,0.354,1.136v67.868
			C194.009,206.903,193.114,207.799,192.009,207.799z M175.185,203.799h14.824v-65.245l-7.412-10.746l-7.412,10.746V203.799z"/>
	</g>
	<g>
		<path class="st5" d="M158.867,62.997H97.133V44.431c0-9.075,7.356-16.431,16.431-16.431h28.872
			c9.075,0,16.431,7.356,16.431,16.431V62.997z"/>
	</g>
	<g>
		<path class="st6" d="M128,116.981L128,116.981c2.43,0,4.4,1.97,4.4,4.4v13.2c0,2.43-1.97,4.4-4.4,4.4h0c-2.43,0-4.4-1.97-4.4-4.4
			v-13.2C123.6,118.951,125.57,116.981,128,116.981z"/>
	</g>
	<g>
		<path class="st6" d="M160.222,106.203L160.222,106.203c1.718-1.718,4.504-1.718,6.223,0l9.334,9.334
			c1.718,1.718,1.718,4.504,0,6.223l0,0c-1.718,1.718-4.504,1.718-6.223,0l-9.334-9.334
			C158.504,110.707,158.504,107.921,160.222,106.203z"/>
	</g>
	<g>
		<path class="st6" d="M95.778,106.203L95.778,106.203c-1.718-1.718-4.504-1.718-6.223,0l-9.334,9.334
			c-1.718,1.718-1.718,4.504,0,6.223l0,0c1.718,1.718,4.504,1.718,6.223,0l9.334-9.334
			C97.496,110.707,97.496,107.921,95.778,106.203z"/>
	</g>
	<g>
		<path class="st6" d="M108.837,94.333c3.317,7.274,10.647,12.333,19.163,12.333s15.847-5.059,19.163-12.333H108.837z"/>
	</g>
	<g>
		<path class="st0" d="M158.867,62.997H97.133L79.217,90.084c-1.204,1.821,0.101,4.249,2.284,4.249h92.997
			c2.183,0,3.488-2.429,2.284-4.249L158.867,62.997z"/>
	</g>
	<g>
		<path class="st1" d="M158.867,64.997H97.133c-1.104,0-2-0.896-2-2V44.431c0-10.163,8.268-18.431,18.431-18.431h28.872
			c10.163,0,18.431,8.268,18.431,18.431v18.565C160.867,64.101,159.972,64.997,158.867,64.997z M99.133,60.997h57.734V44.431
			c0-7.958-6.474-14.431-14.431-14.431h-28.872c-7.958,0-14.431,6.474-14.431,14.431V60.997z"/>
	</g>
	<g>
		<path class="st1" d="M174.499,96.333H81.501c-1.747,0-3.346-0.956-4.174-2.495c-0.827-1.539-0.742-3.4,0.222-4.857l17.916-27.088
			c0.37-0.56,0.997-0.896,1.668-0.896h61.734c0.671,0,1.298,0.337,1.668,0.896l17.916,27.087c0.964,1.458,1.049,3.319,0.222,4.858
			C177.845,95.377,176.246,96.333,174.499,96.333z M98.208,64.997L80.885,91.188c-0.212,0.32-0.112,0.612-0.034,0.757
			c0.078,0.145,0.266,0.389,0.65,0.389h92.997c0.384,0,0.572-0.244,0.65-0.389c0.078-0.146,0.178-0.437-0.035-0.758l-17.322-26.19
			H98.208z"/>
	</g>
	<g>
		<path class="st0" d="M113.564,28h28.872c0.115,0,0.227,0.015,0.342,0.017C141.592,20.917,135.437,15.5,128,15.5
			s-13.592,5.417-14.778,12.517C113.337,28.015,113.449,28,113.564,28z"/>
	</g>
	<g>
		<path class="st1" d="M142.778,30.018c-0.017,0-0.034,0-0.051,0c-0.082-0.002-0.163-0.007-0.244-0.013L113.576,30
			c-0.141,0.01-0.222,0.015-0.303,0.017c-0.597,0.006-1.169-0.237-1.561-0.688c-0.392-0.451-0.561-1.053-0.463-1.642
			C112.622,19.467,119.667,13.5,128,13.5s15.378,5.967,16.75,14.188c0.098,0.589-0.071,1.191-0.463,1.642
			C143.907,29.767,143.356,30.018,142.778,30.018z M115.812,26h24.375c-1.842-5.042-6.642-8.5-12.187-8.5S117.654,20.958,115.812,26
			z"/>
	</g>
	<g>
		<path class="st1" d="M128,108.667c-9.006,0-17.243-5.3-20.983-13.504c-0.282-0.619-0.23-1.339,0.138-1.911
			c0.368-0.573,1.002-0.918,1.682-0.918h38.327c0.68,0,1.314,0.346,1.682,0.918c0.368,0.572,0.42,1.292,0.138,1.911
			C145.243,103.366,137.006,108.667,128,108.667z M112.251,96.333c3.513,5.146,9.399,8.333,15.749,8.333s12.236-3.188,15.749-8.333
			H112.251z"/>
	</g>
</g>
</svg>
