<?xml version="1.0" encoding="utf-8"?>
<!-- Generator: Adobe Illustrator 22.0.0, SVG Export Plug-In . SVG Version: 6.00 Build 0)  -->
<svg version="1.1" id="Layer_1" xmlns="http://www.w3.org/2000/svg" xmlns:xlink="http://www.w3.org/1999/xlink" x="0px" y="0px"
	 viewBox="0 0 256 256" style="enable-background:new 0 0 256 256;" xml:space="preserve">
<style type="text/css">
	.st0{fill:#E0EBFC;}
	.st1{fill:#3762CC;}
	.st2{fill:#4671C6;}
	.st3{fill:#6BDDDD;}
	.st4{fill:#F9A7A7;}
	.st5{fill:#A4C9FF;}
	.st6{fill:#FFEA92;}
	.st7{fill:#F9CFCF;}
	.st8{fill:#FFE164;}
	.st9{fill:#FFDC85;}
	.st10{fill:#FFEA94;}
	.st11{fill:#B9BEFC;}
	.st12{fill:#EAA97D;}
</style>
<g>
	<g>
		<path class="st7" d="M241.266,192.808L238.182,95.2h-33.3l-2.052,75.053c-0.03,1.083-0.916,1.945-1.999,1.945l-61.05,0v52.801
			l89.295-16.982C236.328,206.638,241.499,200.187,241.266,192.808z"/>
	</g>
	<g>
		<path class="st1" d="M139.781,226.999c-0.462,0-0.914-0.16-1.275-0.459c-0.459-0.38-0.725-0.945-0.725-1.541v-52.801
			c0-1.104,0.896-2,2-2h61.05l2.052-75.053c0.029-1.083,0.916-1.945,1.999-1.945h33.3c1.08,0,1.965,0.857,1.999,1.937l3.084,97.608
			l0,0c0.266,8.415-5.545,15.664-13.816,17.237l-89.294,16.982C140.03,226.988,139.905,226.999,139.781,226.999z M141.781,174.198
			v48.385l86.921-16.531c6.325-1.203,10.768-6.747,10.565-13.182L236.244,97.2h-29.416l-2,73.108
			c-0.06,2.182-1.816,3.891-3.998,3.891H141.781z"/>
	</g>
	<g>
		<path class="st6" d="M201.479,90.522L201.479,90.522c-17.577,0-31.826-14.249-31.826-31.826V11.378c0-1.657,1.343-3,3-3h57.652
			c1.657,0,3,1.343,3,3v47.318C233.305,76.273,219.056,90.522,201.479,90.522z"/>
	</g>
	<g>
		<path class="st6" d="M215.612,129.122h-28.266c-3.24,0-5.867-2.627-5.867-5.867v0c0-3.24,2.627-5.867,5.867-5.867h28.266
			c3.24,0,5.867,2.627,5.867,5.867v0C221.479,126.495,218.852,129.122,215.612,129.122z"/>
	</g>
	<g>
		<path class="st6" d="M201.479,90.522L201.479,90.522c-2.581,0-5.087-0.315-7.49-0.895v27.76h14.979v-27.76
			C206.566,90.207,204.06,90.522,201.479,90.522z"/>
	</g>
	<g>
		<path class="st3" d="M195.373,172.198H70.265c-14.394,0-26.063,11.669-26.063,26.063v35.001v14.359h121.627v-14.359v-13.217
			l29.544-5.619V172.198z"/>
	</g>
	<g>
		<path class="st1" d="M201.479,92.522c-18.652,0-33.826-15.174-33.826-33.826V11.378c0-2.757,2.243-5,5-5h57.652
			c2.757,0,5,2.243,5,5v47.318C235.305,77.348,220.13,92.522,201.479,92.522z M172.653,10.378c-0.551,0-1,0.449-1,1v47.318
			c0,16.446,13.38,29.826,29.826,29.826h0c16.446,0,29.826-13.38,29.826-29.826V11.378c0-0.551-0.449-1-1-1H172.653z"/>
	</g>
	<g>
		<path class="st1" d="M215.612,131.122h-28.266c-4.338,0-7.867-3.529-7.867-7.867s3.529-7.867,7.867-7.867h28.266
			c4.338,0,7.867,3.529,7.867,7.867S219.95,131.122,215.612,131.122z M187.346,119.387c-2.132,0-3.867,1.735-3.867,3.867
			s1.735,3.867,3.867,3.867h28.266c2.132,0,3.867-1.735,3.867-3.867s-1.735-3.867-3.867-3.867H187.346z"/>
	</g>
	<g>
		<path class="st1" d="M208.968,119.387h-14.979c-1.104,0-2-0.896-2-2v-27.76c0-0.613,0.281-1.192,0.763-1.571
			c0.482-0.38,1.111-0.516,1.707-0.373c2.307,0.557,4.668,0.839,7.02,0.839h0c2.352,0,4.713-0.282,7.02-0.839
			c0.595-0.144,1.224-0.007,1.707,0.373c0.481,0.379,0.763,0.958,0.763,1.571v27.76
			C210.968,118.492,210.073,119.387,208.968,119.387z M195.989,115.387h10.979V92.072c-3.637,0.599-7.341,0.599-10.979,0V115.387z"
			/>
	</g>
	<g>
		<path class="st7" d="M192.484,114.601L192.484,114.601c5.589,3.11,11.872,4.773,18.267,4.835
			c10.856,0.104,17.097,0.078,25.155-4.406l0.001,0l0,0c2.741-1.283,4.492-4.037,4.492-7.063V94.405l0-13.561
			c0-3.027-1.751-5.78-4.492-7.063h0l-0.001,0c-8.058-4.485-14.298-4.511-25.155-4.406c-6.396,0.061-12.679,1.724-18.267,4.835l0,0
			c-2.537,1.412-4.11,4.087-4.11,6.99v26.413C188.375,110.514,189.947,113.19,192.484,114.601z"/>
	</g>
	<g>
		<path class="st1" d="M214.882,121.463c-1.325,0-2.703-0.014-4.15-0.027c-6.711-0.064-13.358-1.824-19.221-5.087
			c-3.168-1.763-5.137-5.111-5.137-8.738V81.198c0-3.626,1.968-6.975,5.137-8.738c5.864-3.263,12.511-5.022,19.221-5.087
			c10.497-0.1,17.442-0.168,26.088,4.626c3.392,1.619,5.579,5.083,5.579,8.844v27.122c0,3.762-2.187,7.225-5.578,8.844
			C229.366,120.943,223.175,121.463,214.882,121.463z M214.438,71.352c-1.156,0-2.375,0.009-3.667,0.021
			c-6.044,0.058-12.032,1.643-17.314,4.582c-1.901,1.058-3.082,3.067-3.082,5.243v26.413c0,2.176,1.181,4.185,3.082,5.243l0,0
			c5.281,2.939,11.269,4.524,17.314,4.582c11.09,0.107,16.744-0.025,24.163-4.154c0.041-0.023,0.083-0.044,0.125-0.064
			c2.03-0.95,3.341-3.012,3.341-5.252V80.844c0-2.241-1.311-4.302-3.34-5.252c-0.042-0.02-0.083-0.041-0.125-0.064
			C228.38,71.88,223.199,71.352,214.438,71.352z"/>
	</g>
	<g>
		<circle class="st12" cx="201.479" cy="46.3" r="19.189"/>
	</g>
	<g>
		<path class="st6" d="M203.471,34.022c-0.369-0.473-0.86-0.71-1.472-0.71c-0.543,0-0.912,0.104-1.108,0.312
			c-0.196,0.208-0.618,0.762-1.264,1.663c-0.647,0.901-1.388,1.715-2.225,2.442c-0.312,0.271-0.665,0.538-1.057,0.799
			c-0.789,0.527-1.039,1.574-0.554,2.388l0,0c0.536,0.9,1.728,1.142,2.574,0.522c0.304-0.223,0.621-0.46,0.951-0.714v15.759
			c0,0.924,0.213,1.622,0.641,2.096c0.427,0.473,0.993,0.71,1.697,0.71c1.582,0,2.373-1.16,2.373-3.481V35.979
			C204.026,35.147,203.841,34.495,203.471,34.022z"/>
	</g>
	<g>
		<path class="st7" d="M105.016,167.116c-8.174,0-15.872-2.004-22.635-5.531v10.613v0.003c0,12.489,10.124,22.613,22.613,22.613h0
			c12.489,0,22.613-10.124,22.613-22.613v-0.003v-10.59C120.855,165.121,113.173,167.116,105.016,167.116z"/>
	</g>
	<g>
		<path class="st1" d="M165.829,249.622H44.203c-1.104,0-2-0.896-2-2v-49.361c0-15.474,12.589-28.062,28.063-28.062h10.115v-8.613
			c0-0.699,0.365-1.348,0.963-1.71c0.599-0.362,1.343-0.386,1.962-0.063c6.653,3.47,14.16,5.304,21.71,5.304
			c7.642,0,14.932-1.777,21.668-5.282c0.619-0.323,1.364-0.298,1.96,0.065c0.598,0.362,0.962,1.011,0.962,1.709v8.59h65.767
			c1.104,0,2,0.896,2,2v42.228c0,0.96-0.683,1.785-1.626,1.965l-27.918,5.309v25.921
			C167.829,248.726,166.934,249.622,165.829,249.622z M46.203,245.622h117.626v-25.577c0-0.96,0.683-1.785,1.626-1.965l27.918-5.309
			v-38.573h-65.767c-1.104,0-2-0.896-2-2v-7.414c-6.45,2.841-13.504,4.331-20.591,4.331c-7.103,0-14.173-1.497-20.635-4.351v7.434
			c0,1.104-0.896,2-2,2H70.266c-13.269,0-24.063,10.794-24.063,24.062V245.622z"/>
	</g>
	<g>
		<path class="st5" d="M107.035,247.622H44.184v-80.523h58.577c2.36,0,4.273,1.913,4.273,4.273V247.622z"/>
	</g>
	<g>
		<path class="st2" d="M44.184,247.622H33.709v-76.25c0-2.36,1.913-4.273,4.273-4.273h6.202V247.622z"/>
	</g>
	<g>
		<path class="st0" d="M96.196,196.678H55.023c-1.221,0-2.211-0.99-2.211-2.211v-13.081c0-1.221,0.99-2.211,2.211-2.211h41.173
			c1.221,0,2.211,0.99,2.211,2.211v13.081C98.407,195.688,97.417,196.678,96.196,196.678z"/>
	</g>
	<g>
		<path class="st1" d="M107.035,249.622H44.184c-1.104,0-2-0.896-2-2v-80.522c0-1.104,0.896-2,2-2h58.577
			c3.459,0,6.273,2.814,6.273,6.273v76.25C109.035,248.726,108.139,249.622,107.035,249.622z M46.184,245.622h58.851v-74.25
			c0-1.253-1.02-2.273-2.273-2.273H46.184V245.622z"/>
	</g>
	<g>
		<path class="st1" d="M44.184,249.622H33.709c-1.104,0-2-0.896-2-2v-76.25c0-3.459,2.814-6.273,6.273-6.273h6.202
			c1.104,0,2,0.896,2,2v80.522C46.184,248.726,45.289,249.622,44.184,249.622z M35.709,245.622h6.475v-76.522h-4.202
			c-1.253,0-2.273,1.02-2.273,2.273V245.622z"/>
	</g>
	<g>
		<path class="st7" d="M147.372,238.782v-27.556c0-1.512-0.819-2.906-2.141-3.641l-6.995-3.893
			c-1.549-0.862-3.293-1.315-5.066-1.315h-13.574c-5.319,0-10.551,1.358-15.199,3.944l-0.004,0.002
			c-0.905,0.504-1.932,0.747-2.967,0.701l-64.959-2.832c-9.419-0.411-17.94,5.557-20.772,14.549h0
			c-1.283,4.074-1.283,8.444,0,12.517h0c2.833,8.992,11.353,14.96,20.772,14.55l64.963-2.832c1.035-0.045,2.062,0.198,2.967,0.701
			l0,0c4.648,2.587,9.879,3.944,15.199,3.944h13.645c1.785,0,3.54-0.459,5.096-1.332l6.907-3.874
			C146.558,241.679,147.372,240.289,147.372,238.782z"/>
	</g>
	<g>
		<path class="st1" d="M133.241,249.622h-13.645c-5.646,0-11.238-1.451-16.171-4.197c-0.582-0.324-1.237-0.481-1.908-0.451
			l-64.963,2.833c-10.292,0.459-19.667-6.108-22.767-15.946c-1.414-4.488-1.414-9.231,0-13.719
			c3.1-9.839,12.479-16.399,22.768-15.946l64.958,2.832c0.663,0.031,1.326-0.126,1.908-0.451c4.937-2.748,10.528-4.199,16.175-4.199
			h13.574c2.109,0,4.197,0.542,6.039,1.567l6.996,3.894c1.954,1.087,3.168,3.152,3.168,5.389v27.556
			c0,2.228-1.208,4.289-3.151,5.379l-6.906,3.874C137.464,249.073,135.364,249.622,133.241,249.622z M101.674,240.97
			c1.292,0,2.564,0.329,3.696,0.959c4.339,2.415,9.259,3.692,14.226,3.692h13.645c1.439,0,2.863-0.372,4.118-1.076l6.906-3.874
			c0.683-0.383,1.107-1.107,1.107-1.89v-27.556c0-0.786-0.427-1.511-1.113-1.894l-6.996-3.894c-1.249-0.695-2.664-1.062-4.093-1.062
			h-13.574c-4.967,0-9.887,1.277-14.226,3.692c-1.232,0.685-2.622,1.013-4.031,0.954l-64.959-2.832
			c-8.501-0.35-16.222,5.038-18.778,13.152c-1.167,3.701-1.167,7.614,0,11.315c2.557,8.114,10.264,13.504,18.778,13.152
			l64.963-2.833C101.453,240.973,101.563,240.97,101.674,240.97z"/>
	</g>
	<g>
		<path class="st2" d="M56.3,100.49v-4.562c0-0.261,0.016-0.519,0.02-0.779c-5.923-2.153-11.139-5.78-15.19-10.45v6.754
			c0,5.221,1.159,10.169,3.222,14.612C47.114,102.609,51.41,100.391,56.3,100.49z"/>
	</g>
	<g>
		<path class="st2" d="M151.892,82.795c1.19,4.177,1.84,8.579,1.84,13.133v4.562c4.369-0.089,8.264,1.677,11.018,4.52
			c4.163-7.424,6.419-16.062,6.419-25.981c0-9.602-5.182-17.99-12.898-22.533c0.264,1.788,0.404,3.615,0.404,5.476
			C158.675,69.759,156.155,76.954,151.892,82.795z"/>
	</g>
	<g>
		<path class="st1" d="M44.352,108.065c-0.08,0-0.16-0.005-0.24-0.014c-0.688-0.083-1.283-0.516-1.575-1.144
			c-2.261-4.87-3.408-10.069-3.408-15.454v-6.753c0-0.835,0.519-1.582,1.3-1.874c0.783-0.293,1.663-0.068,2.21,0.563
			c3.864,4.453,8.83,7.87,14.362,9.88c0.801,0.292,1.33,1.058,1.317,1.91l-0.011,0.373c-0.004,0.125-0.009,0.25-0.009,0.376v4.562
			c0,0.538-0.216,1.052-0.6,1.429c-0.384,0.376-0.928,0.591-1.44,0.571c-4.058-0.083-7.829,1.676-10.346,4.824
			C45.532,107.791,44.955,108.065,44.352,108.065z M43.13,89.563v1.89c0,3.804,0.642,7.504,1.912,11.036
			c2.604-2.22,5.813-3.584,9.259-3.92v-2.054C50.21,94.853,46.425,92.493,43.13,89.563z"/>
	</g>
	<g>
		<path class="st1" d="M164.75,107.01c-0.538,0-1.058-0.217-1.437-0.608c-2.515-2.596-5.923-3.991-9.541-3.912
			c-0.54,0.022-1.056-0.194-1.44-0.571c-0.384-0.376-0.6-0.891-0.6-1.429v-4.562c0-4.242-0.593-8.476-1.763-12.585
			c-0.169-0.592-0.055-1.229,0.308-1.727c4.187-5.736,6.399-12.529,6.399-19.644c0-1.715-0.129-3.459-0.383-5.184
			c-0.112-0.762,0.223-1.521,0.861-1.951c0.639-0.43,1.468-0.455,2.132-0.064c8.563,5.042,13.883,14.336,13.883,24.256
			c0,9.99-2.246,19.06-6.674,26.959c-0.309,0.551-0.86,0.924-1.487,1.005C164.921,107.004,164.835,107.01,164.75,107.01z
			 M155.731,98.568c3.084,0.298,5.973,1.418,8.43,3.263c3.324-6.77,5.007-14.427,5.007-22.802c0-7.108-3.185-13.842-8.516-18.389
			c0.015,0.445,0.023,0.89,0.023,1.332c0,7.643-2.28,14.955-6.604,21.208c1.102,4.172,1.66,8.456,1.66,12.748V98.568z"/>
	</g>
	<g>
		<path class="st7" d="M153.731,100.49v-4.561c0-26.663-21.811-48.277-48.716-48.277l0,0c-26.905,0-48.716,21.614-48.716,48.277
			v4.561c-8.459-0.172-15.17,6.567-15.17,14.713c0,8.698,7.594,15.578,16.457,14.641c5.028,21.359,24.348,37.272,47.429,37.272
			c23.083,0,42.402-15.915,47.429-37.272c8.852,0.936,16.457-5.931,16.457-14.641C168.902,107.053,162.185,100.318,153.731,100.49z"
			/>
	</g>
	<g>
		<path class="st1" d="M105.026,145.904L105.026,145.904c-3.514,0-6.786-1.266-8.977-3.474c-1.665-1.678-2.581-3.795-2.581-5.962
			c0-1.104,0.896-2,2-2s2,0.896,2,2c0,1.12,0.491,2.208,1.421,3.145c1.423,1.435,3.717,2.291,6.137,2.291
			c2.435,0,4.66-0.835,6.104-2.292c0.93-0.937,1.421-2.024,1.421-3.145c0-1.104,0.896-2,2-2s2,0.896,2,2
			c0,2.167-0.917,4.284-2.581,5.961C111.78,144.638,108.52,145.904,105.026,145.904z"/>
	</g>
	<g>
		<path class="st1" d="M130.307,126.284L130.307,126.284c-3.778,0-6.842-3.063-6.842-6.841v-7.298c0-3.778,3.063-6.841,6.841-6.841
			h0c3.778,0,6.841,3.063,6.841,6.841v7.298C137.149,123.221,134.086,126.284,130.307,126.284z"/>
	</g>
	<g>
		<path class="st1" d="M79.712,126.284L79.712,126.284c-3.778,0-6.842-3.063-6.842-6.841v-7.298c0-3.778,3.063-6.841,6.841-6.841h0
			c3.778,0,6.841,3.063,6.841,6.841v7.298C86.554,123.221,83.491,126.284,79.712,126.284z"/>
	</g>
	<g>
		<path class="st1" d="M105.016,169.116c-23.127,0-43.025-15.207-48.965-37.188c-0.016,0-0.031,0-0.047,0
			c-4.174,0-8.227-1.532-11.338-4.332c-3.518-3.166-5.536-7.683-5.536-12.393c0-4.509,1.781-8.737,5.016-11.907
			c2.772-2.716,6.321-4.357,10.155-4.729v-2.639c0-27.723,22.751-50.277,50.715-50.277c27.965,0,50.716,22.554,50.716,50.277v2.639
			c3.834,0.372,7.382,2.012,10.155,4.729c3.234,3.169,5.016,7.397,5.016,11.906c0,4.71-2.017,9.227-5.535,12.392
			c-3.112,2.8-7.166,4.333-11.34,4.333c-0.015,0-0.031,0-0.046,0C148.041,153.909,128.143,169.116,105.016,169.116z M57.588,127.844
			c0.918,0,1.731,0.631,1.945,1.542c4.952,21.037,23.654,35.73,45.482,35.73c21.827,0,40.53-14.693,45.482-35.73
			c0.23-0.979,1.149-1.639,2.157-1.53c3.663,0.386,7.321-0.792,10.037-3.234c2.675-2.408,4.21-5.84,4.21-9.418
			c0-3.425-1.355-6.638-3.815-9.049c-2.484-2.435-5.787-3.738-9.315-3.665c-0.521,0.022-1.056-0.194-1.44-0.571
			c-0.384-0.376-0.6-0.891-0.6-1.429v-4.562c0-25.517-20.957-46.277-46.716-46.277c-25.759,0-46.715,20.76-46.715,46.277v4.562
			c0,0.538-0.216,1.052-0.6,1.429c-0.384,0.376-0.909,0.591-1.44,0.571c-3.53-0.081-6.831,1.229-9.314,3.664
			c-2.46,2.411-3.815,5.625-3.815,9.05c0,3.578,1.535,7.011,4.211,9.419c2.714,2.441,6.376,3.618,10.035,3.233
			C57.448,127.847,57.519,127.844,57.588,127.844z"/>
	</g>
	<g>
		<path class="st2" d="M62.148,38.275C55.184,46.911,45.83,52.56,35.426,53.543c-1.859,0.176-3.261,1.772-3.261,3.639v3.515
			c0,20.243,16.41,36.654,36.654,36.654h54.477c19.54,0,35.38-15.84,35.38-35.38v0c0-20.552-16.66-37.212-37.212-37.212l-30.896,0
			C79.543,24.76,69.068,29.693,62.148,38.275z"/>
	</g>
	<g>
		<path class="st1" d="M123.296,99.352H68.819c-21.314,0-38.654-17.34-38.654-38.654v-3.516c0-2.937,2.181-5.357,5.072-5.63
			c9.518-0.899,18.521-6.06,25.353-14.533h0c7.308-9.062,18.234-14.26,29.976-14.26h30.896c21.622,0,39.212,17.591,39.212,39.212
			C160.675,82.583,143.907,99.352,123.296,99.352z M63.705,39.53c-7.515,9.319-17.491,15.003-28.091,16.004
			c-0.812,0.077-1.449,0.801-1.449,1.648v3.516c0,19.108,15.545,34.654,34.654,34.654h54.477c18.405,0,33.379-14.974,33.379-33.38
			c0-19.416-15.796-35.212-35.212-35.212H90.567C80.041,26.76,70.25,31.414,63.705,39.53L63.705,39.53z"/>
	</g>
</g>
</svg>
