<?xml version="1.0" encoding="utf-8"?>
<!-- Generator: Adobe Illustrator 22.1.0, SVG Export Plug-In . SVG Version: 6.00 Build 0)  -->
<svg version="1.1" id="Layer_1" xmlns="http://www.w3.org/2000/svg" xmlns:xlink="http://www.w3.org/1999/xlink" x="0px" y="0px"
	 viewBox="0 0 256 256" style="enable-background:new 0 0 256 256;" xml:space="preserve">
<style type="text/css">
	.st0{fill:#E0EBFC;}
	.st1{fill:#3762CC;}
	.st2{fill:#4671C6;}
	.st3{fill:#6BDDDD;}
	.st4{fill:#F9A7A7;}
	.st5{fill:#A4C9FF;}
	.st6{fill:#FFEA92;}
	.st7{fill:#F9CFCF;}
	.st8{fill:#FFE164;}
	.st9{fill:#FFDC85;}
	.st10{fill:#FFEA94;}
	.st11{fill:#B9BEFC;}
	.st12{fill:#EAA97D;}
</style>
<g>
	<g>
		<circle class="st5" cx="159.273" cy="96.71" r="88.727"/>
	</g>
	<g>
		<path class="st0" d="M159.273,185.452c-12.696,0-24.463-9.505-33.133-26.764c-8.34-16.604-12.933-38.612-12.933-61.971
			s4.594-45.367,12.933-61.97c8.67-17.259,20.437-26.764,33.133-26.764s24.463,9.505,33.133,26.764
			c8.34,16.603,12.933,38.611,12.933,61.97s-4.594,45.367-12.933,61.971C183.737,175.947,171.97,185.452,159.273,185.452z
			 M159.273,13.981c-10.312,0-20.175,8.331-27.774,23.459c-7.929,15.784-12.295,36.835-12.295,59.278s4.366,43.495,12.295,59.279
			c7.599,15.128,17.463,23.459,27.774,23.459s20.175-8.331,27.774-23.459c7.929-15.784,12.295-36.836,12.295-59.279
			s-4.366-43.494-12.295-59.278C179.449,22.312,169.585,13.981,159.273,13.981z"/>
	</g>
	<g>
		<path class="st0" d="M70.602,93.71c-0.033,0.997-0.056,1.996-0.056,3c0,1.005,0.023,2.004,0.056,3h177.342
			c0.033-0.996,0.056-1.995,0.056-3c0-1.004-0.023-2.003-0.056-3H70.602z"/>
	</g>
	<g>
		<path class="st0" d="M91.42,39.547c-1.294,1.534-2.536,3.112-3.725,4.732l0.153,0.103c17.446,11.806,43.48,18.577,71.426,18.577
			c27.944,0,53.979-6.771,71.426-18.577l0.153-0.103c-1.189-1.621-2.431-3.198-3.725-4.732h0
			c-16.479,11.065-41.188,17.412-67.853,17.412C132.607,56.96,107.898,50.613,91.42,39.547z"/>
	</g>
	<g>
		<path class="st0" d="M87.848,149.038l-0.154,0.102c1.189,1.621,2.432,3.199,3.726,4.734
			c16.478-11.066,41.187-17.413,67.854-17.413c26.665,0,51.374,6.347,67.853,17.412c1.274-1.51,2.498-3.063,3.67-4.657
			c-19.673-13.587-47.851-18.755-71.523-18.755C131.328,130.461,105.294,137.232,87.848,149.038z"/>
	</g>
	<g>
		<path class="st1" d="M159.273,187.438c-50.027,0-90.728-40.7-90.728-90.728c0-50.026,40.7-90.727,90.728-90.727
			C209.3,5.983,250,46.684,250,96.71C250,146.737,209.3,187.438,159.273,187.438z M159.273,9.983
			c-47.821,0-86.728,38.905-86.728,86.727s38.906,86.728,86.728,86.728S246,144.531,246,96.71S207.095,9.983,159.273,9.983z"/>
	</g>
	<g>
		<path class="st5" d="M128.023,244.735H28.735v-28.573c0-11.75,9.526-21.276,21.276-21.276h56.736
			c11.75,0,21.276,9.526,21.276,21.276V244.735z"/>
	</g>
	<g>
		<path class="st7" d="M78.379,190.737c-6.673,0-12.957-1.636-18.478-4.515v8.664v0.002c0,10.195,8.265,18.46,18.46,18.46h0
			c10.195,0,18.46-8.265,18.46-18.46v-0.002v-8.645C91.309,189.109,85.038,190.737,78.379,190.737z"/>
	</g>
	<g>
		<path class="st1" d="M128.023,246.734H28.735c-1.104,0-2-0.896-2-2v-28.572c0-12.835,10.441-23.276,23.276-23.276h7.89v-6.664
			c0-0.699,0.365-1.348,0.963-1.71c0.6-0.363,1.344-0.387,1.962-0.063c5.456,2.846,11.362,4.289,17.553,4.289
			c6.178,0,12.072-1.437,17.52-4.271c0.62-0.321,1.363-0.297,1.961,0.064c0.597,0.363,0.962,1.011,0.962,1.71v6.645h7.926
			c12.835,0,23.276,10.441,23.276,23.276v28.572C130.023,245.839,129.128,246.734,128.023,246.734z M30.735,242.734h95.288v-26.572
			c0-10.629-8.647-19.276-19.276-19.276h-9.926c-1.104,0-2-0.896-2-2v-5.493c-5.172,2.195-10.795,3.345-16.442,3.345
			c-5.66,0-11.296-1.155-16.478-3.36v5.509c0,1.104-0.896,2-2,2h-9.89c-10.629,0-19.276,8.647-19.276,19.276V242.734z"/>
	</g>
	<g>
		<path class="st0" d="M75.2,244.735h16.246l26.822-46.456c0.797-1.38,0.324-3.145-1.056-3.942l-7.186-4.149
			c-1.38-0.797-3.145-0.324-3.942,1.056L75.2,244.735z"/>
	</g>
	<g>
		<path class="st1" d="M91.446,246.734H75.2c-0.715,0-1.375-0.381-1.732-1c-0.356-0.619-0.356-1.381,0-2l30.883-53.49
			c0.652-1.13,1.706-1.939,2.968-2.276c1.261-0.34,2.576-0.165,3.707,0.487l7.186,4.148c1.13,0.652,1.939,1.706,2.276,2.968
			c0.338,1.261,0.165,2.577-0.487,3.707l-26.821,46.456C92.821,246.354,92.161,246.734,91.446,246.734z M78.664,242.734h11.628
			l26.243-45.456c0.16-0.276,0.124-0.54,0.089-0.672c-0.035-0.133-0.137-0.379-0.413-0.538l-7.186-4.148
			c-0.275-0.16-0.539-0.126-0.672-0.089c-0.133,0.035-0.379,0.137-0.538,0.413L78.664,242.734z"/>
	</g>
	<g>
		<path class="st2" d="M87.807,244.735H45.661v-53.998h39.281c1.583,0,2.866,1.283,2.866,2.866V244.735z"/>
	</g>
	<g>
		<path class="st4" d="M45.661,244.735h-7.024v-51.132c0-1.583,1.283-2.866,2.866-2.866h4.159V244.735z"/>
	</g>
	<g>
		<path class="st0" d="M80.539,210.572h-27.61c-0.819,0-1.483-0.664-1.483-1.483v-8.772c0-0.819,0.664-1.483,1.483-1.483h27.61
			c0.819,0,1.483,0.664,1.483,1.483v8.772C82.022,209.908,81.358,210.572,80.539,210.572z"/>
	</g>
	<g>
		<path class="st1" d="M87.808,246.734H45.66c-1.104,0-2-0.896-2-2v-53.997c0-1.104,0.896-2,2-2h39.282
			c2.683,0,4.865,2.183,4.865,4.865v51.132C89.808,245.839,88.912,246.734,87.808,246.734z M47.66,242.734h38.147v-49.132
			c0-0.478-0.388-0.865-0.865-0.865H47.66V242.734z"/>
	</g>
	<g>
		<path class="st1" d="M45.66,246.734h-7.024c-1.104,0-2-0.896-2-2v-51.132c0-2.683,2.183-4.865,4.866-4.865h4.158
			c1.104,0,2,0.896,2,2v53.997C47.66,245.839,46.765,246.734,45.66,246.734z M40.636,242.734h3.024v-49.997h-2.158
			c-0.478,0-0.866,0.388-0.866,0.865V242.734z"/>
	</g>
	<g>
		<path class="st7" d="M100.012,241.884v-19.116c0-1.049-0.568-2.016-1.485-2.526l-4.853-2.701
			c-1.075-0.598-2.284-0.912-3.514-0.912h-9.416c-3.69,0-7.319,0.942-10.543,2.736l-0.003,0.001
			c-0.628,0.349-1.34,0.518-2.058,0.487l-45.062-1.965c-6.534-0.285-12.445,3.855-14.41,10.093h0c-0.89,2.826-0.89,5.857,0,8.683h0
			c1.965,6.238,7.876,10.378,14.41,10.093l45.064-1.965c0.718-0.031,1.431,0.137,2.058,0.487h0
			c3.224,1.794,6.853,2.736,10.543,2.736h9.465c1.238,0,2.455-0.318,3.535-0.924l4.791-2.687
			C99.447,243.894,100.012,242.93,100.012,241.884z"/>
	</g>
	<g>
		<path class="st1" d="M90.209,250.017h-9.466c-4.021,0-8.003-1.033-11.516-2.989c-0.305-0.169-0.651-0.245-0.999-0.235
			l-45.064,1.965c-7.426,0.315-14.171-4.401-16.403-11.49c-1.02-3.233-1.02-6.651,0-9.886c2.233-7.088,8.989-11.816,16.403-11.489
			l45.063,1.965c0.341,0.014,0.68-0.063,0.981-0.227c0.007-0.004,0.014-0.008,0.02-0.012c3.515-1.955,7.497-2.988,11.516-2.988
			h9.417c1.565,0,3.117,0.402,4.486,1.164l4.853,2.702c1.55,0.861,2.513,2.498,2.513,4.272v19.116c0,1.768-0.958,3.402-2.499,4.266
			l-4.79,2.687C93.346,249.608,91.785,250.017,90.209,250.017z M68.312,242.79c1.001,0,1.985,0.255,2.861,0.743
			c2.919,1.624,6.229,2.483,9.57,2.483h9.466c0.893,0,1.777-0.231,2.558-0.668l4.79-2.688c0.281-0.157,0.455-0.455,0.455-0.776
			v-19.116c0-0.322-0.175-0.62-0.457-0.777l-4.854-2.702c-0.775-0.431-1.654-0.659-2.541-0.659h-9.417
			c-3.331,0-6.632,0.854-9.547,2.471c-0.01,0.006-0.019,0.011-0.028,0.017c-0.952,0.527-2.029,0.778-3.115,0.735l-45.063-1.965
			c-5.614-0.257-10.726,3.33-12.415,8.695c-0.771,2.447-0.771,5.035,0,7.481c1.69,5.364,6.761,8.954,12.415,8.696l45.064-1.965
			C68.141,242.792,68.226,242.79,68.312,242.79z"/>
	</g>
	<g>
		<circle class="st3" cx="162.849" cy="185.437" r="36.45"/>
	</g>
	<g>
		<path class="st6" d="M162.849,212.474c-14.908,0-27.038-12.129-27.038-27.037c0-14.908,12.129-27.037,27.038-27.037
			s27.037,12.129,27.037,27.037C189.886,200.345,177.758,212.474,162.849,212.474z"/>
	</g>
	<g>
		<path class="st1" d="M162.85,223.887c-21.201,0-38.45-17.248-38.45-38.449s17.249-38.45,38.45-38.45s38.449,17.249,38.449,38.45
			S184.051,223.887,162.85,223.887z M162.85,150.987c-18.996,0-34.45,15.454-34.45,34.45c0,18.995,15.454,34.449,34.45,34.449
			c18.995,0,34.449-15.454,34.449-34.449C197.299,166.441,181.845,150.987,162.85,150.987z"/>
	</g>
	<g>
		<path class="st4" d="M156.357,206.425c-0.007,0-0.014,0-0.02,0c-2.116-0.006-4.111-1.04-5.334-2.766l-8.999-12.676
			c-1.399-1.972-0.936-4.704,1.036-6.104c1.973-1.401,4.705-0.934,6.104,1.035l7.226,10.178l18.901-26.278
			c1.412-1.963,4.148-2.409,6.11-0.998c1.962,1.412,2.409,4.148,0.997,6.11l-20.69,28.765
			C160.457,205.404,158.465,206.425,156.357,206.425z"/>
	</g>
	<g>
		<path class="st7" d="M118.148,136.348v-3.724c0-21.766-17.805-39.41-39.768-39.41l0,0c-21.963,0-39.768,17.644-39.768,39.41v3.724
			c-6.905-0.14-12.384,5.361-12.384,12.011c0,7.101,6.199,12.717,13.434,11.952c4.104,17.436,19.876,30.427,38.718,30.427
			c18.843,0,34.614-12.992,38.718-30.427c7.226,0.764,13.434-4.842,13.434-11.952C130.532,141.706,125.049,136.208,118.148,136.348z
			"/>
	</g>
	<g>
		<path class="st1" d="M78.354,173.798C78.353,173.798,78.353,173.798,78.354,173.798c-2.939,0-5.692-1.077-7.555-2.955
			c-1.428-1.438-2.214-3.258-2.214-5.125c0-1.104,0.896-2,2-2s2,0.896,2,2c0,0.815,0.364,1.613,1.053,2.308
			c1.117,1.127,2.836,1.772,4.715,1.772h0.001c1.878,0,3.656-0.662,4.757-1.771c0.688-0.694,1.053-1.492,1.053-2.309
			c0-1.104,0.896-2,2-2s2,0.896,2,2c0,1.867-0.786,3.688-2.214,5.126C84.087,172.721,81.318,173.798,78.354,173.798z"/>
	</g>
	<g>
		<path class="st1" d="M99.026,157.404L99.026,157.404c-3.084,0-5.585-2.5-5.585-5.585v-5.957c0-3.084,2.5-5.585,5.585-5.585h0
			c3.084,0,5.585,2.5,5.585,5.585v5.957C104.611,154.904,102.11,157.404,99.026,157.404z"/>
	</g>
	<g>
		<path class="st1" d="M57.723,157.404L57.723,157.404c-3.084,0-5.585-2.5-5.585-5.585v-5.957c0-3.084,2.5-5.585,5.585-5.585h0
			c3.084,0,5.585,2.5,5.585,5.585v5.957C63.308,154.904,60.808,157.404,57.723,157.404z"/>
	</g>
	<g>
		<path class="st1" d="M78.38,192.737c-18.951,0-35.271-12.402-40.254-30.36c-3.41-0.058-6.71-1.336-9.257-3.628
			c-2.95-2.654-4.642-6.441-4.642-10.391c0-3.779,1.493-7.324,4.204-9.981c2.243-2.198,5.094-3.557,8.18-3.928v-1.825
			c0-22.834,18.737-41.41,41.769-41.41c23.03,0,41.768,18.576,41.768,41.41v1.825c3.086,0.371,5.936,1.729,8.18,3.929
			c2.711,2.656,4.204,6.201,4.204,9.98c0,3.949-1.691,7.736-4.641,10.39c-2.547,2.292-5.848,3.57-9.258,3.629
			C113.649,180.335,97.33,192.737,78.38,192.737z M39.663,158.311c0.917,0,1.73,0.631,1.945,1.542
			c4.003,17.007,19.124,28.885,36.771,28.885c17.646,0,32.768-11.878,36.771-28.885c0.231-0.981,1.161-1.633,2.158-1.531
			c2.881,0.311,5.768-0.622,7.907-2.547c2.106-1.896,3.315-4.599,3.315-7.416c0-2.695-1.066-5.226-3.004-7.124
			c-1.957-1.919-4.523-2.973-7.34-2.887c-0.485,0.005-1.056-0.195-1.439-0.571c-0.385-0.376-0.601-0.892-0.601-1.429v-3.724
			c0-20.628-16.942-37.41-37.768-37.41s-37.769,16.782-37.769,37.41v3.724c0,0.537-0.217,1.053-0.601,1.429
			s-0.925,0.581-1.439,0.571c-2.78-0.086-5.383,0.969-7.34,2.886c-1.938,1.898-3.004,4.429-3.004,7.125
			c0,2.817,1.209,5.521,3.317,7.417c2.169,1.952,4.979,2.855,7.905,2.546C39.521,158.314,39.593,158.311,39.663,158.311z"/>
	</g>
	<g>
		<path class="st2" d="M38.611,136.348v-3.724c0-0.213,0.013-0.423,0.016-0.636c-4.835-1.757-9.093-4.718-12.4-8.53v5.513
			c0,4.262,0.946,8.301,2.63,11.928C31.113,138.078,34.619,136.267,38.611,136.348z"/>
	</g>
	<g>
		<path class="st2" d="M116.646,121.903c0.971,3.41,1.502,7.003,1.502,10.721v3.724c3.567-0.072,6.747,1.369,8.994,3.69
			c3.398-6.061,5.24-13.112,5.24-21.209c0-7.839-4.23-14.685-10.529-18.394c0.215,1.459,0.33,2.951,0.33,4.47
			C122.183,111.261,120.126,117.134,116.646,121.903z"/>
	</g>
	<g>
		<path class="st1" d="M28.857,142.899c-0.079,0-0.159-0.005-0.239-0.015c-0.688-0.082-1.283-0.515-1.574-1.143
			c-1.869-4.023-2.816-8.32-2.816-12.771v-5.513c0-0.835,0.519-1.582,1.301-1.874c0.779-0.291,1.662-0.067,2.21,0.563
			c3.111,3.587,7.112,6.34,11.572,7.961c0.8,0.291,1.328,1.057,1.316,1.907l-0.016,0.608v3.724c0,0.537-0.217,1.053-0.601,1.429
			s-0.925,0.581-1.44,0.571c-3.167-0.075-6.169,1.32-8.15,3.801C30.038,142.626,29.461,142.899,28.857,142.899z M28.228,128.233
			v0.737c0,2.887,0.459,5.698,1.367,8.392c2.019-1.594,4.433-2.6,7.017-2.913v-1.1C33.57,132.086,30.738,130.354,28.228,128.233z"/>
	</g>
	<g>
		<path class="st1" d="M127.143,142.037c-0.538,0-1.058-0.217-1.437-0.608c-1.932-1.993-4.517-3.084-7.302-3.084
			c-0.071,0-0.144,0.001-0.217,0.003c-0.485,0.005-1.056-0.195-1.439-0.571s-0.601-0.892-0.601-1.429v-3.724
			c0-3.431-0.479-6.854-1.426-10.173c-0.168-0.592-0.055-1.229,0.309-1.727c3.371-4.619,5.153-10.09,5.153-15.82
			c0-1.381-0.104-2.787-0.309-4.18c-0.112-0.762,0.223-1.521,0.862-1.95c0.637-0.431,1.468-0.455,2.131-0.064
			c7.102,4.182,11.514,11.891,11.514,20.118c0,8.219-1.849,15.683-5.495,22.187c-0.309,0.552-0.859,0.924-1.486,1.006
			C127.314,142.031,127.229,142.037,127.143,142.037z M120.147,134.448c2.313,0.278,4.485,1.111,6.375,2.438
			c2.563-5.378,3.859-11.44,3.859-18.059c0-5.411-2.305-10.553-6.199-14.177c0.001,0.085,0.001,0.169,0.001,0.253
			c0,6.258-1.851,12.247-5.36,17.383c0.879,3.384,1.324,6.855,1.324,10.337V134.448z"/>
	</g>
	<g>
		<path class="st2" d="M43.385,85.56C37.7,92.61,30.064,97.221,21.571,98.024c-1.518,0.143-2.662,1.446-2.662,2.971l0,2.87
			c0,16.525,13.396,29.922,29.922,29.922h44.471c15.951,0,28.882-12.931,28.882-28.882v0c0-16.777-13.601-30.378-30.378-30.378
			H66.585C57.585,74.527,49.034,78.554,43.385,85.56z"/>
	</g>
	<g>
		<path class="st1" d="M93.302,135.786H48.831c-17.602,0-31.922-14.32-31.922-31.922v-2.869c0-2.588,1.923-4.722,4.474-4.963
			c7.67-0.724,14.931-4.889,20.445-11.729l0,0c6.036-7.484,15.06-11.776,24.757-11.776h25.221c17.854,0,32.378,14.524,32.378,32.377
			C124.184,121.933,110.33,135.786,93.302,135.786z M44.941,86.815c-6.197,7.686-14.43,12.373-23.183,13.199
			c-0.476,0.045-0.85,0.476-0.85,0.98v2.869c0,15.396,12.525,27.922,27.922,27.922h44.471c14.822,0,26.882-12.06,26.882-26.882
			c0-15.647-12.73-28.377-28.378-28.377H66.585C58.104,76.527,50.215,80.277,44.941,86.815L44.941,86.815z"/>
	</g>
</g>
</svg>
