<?xml version="1.0" encoding="utf-8"?>
<!-- Generator: Adobe Illustrator 22.1.0, SVG Export Plug-In . SVG Version: 6.00 Build 0)  -->
<svg version="1.1" id="Layer_1" xmlns="http://www.w3.org/2000/svg" xmlns:xlink="http://www.w3.org/1999/xlink" x="0px" y="0px"
	 viewBox="0 0 256 256" style="enable-background:new 0 0 256 256;" xml:space="preserve">
<style type="text/css">
	.st0{fill:#E0EBFC;}
	.st1{fill:#3762CC;}
	.st2{fill:#4671C6;}
	.st3{fill:#6BDDDD;}
	.st4{fill:#F9A7A7;}
	.st5{fill:#A4C9FF;}
	.st6{fill:#FFEA92;}
	.st7{fill:#F9CFCF;}
	.st8{fill:#FFE164;}
	.st9{fill:#FFDC85;}
	.st10{fill:#FFEA94;}
	.st11{fill:#B9BEFC;}
	.st12{fill:#EAA97D;}
</style>
<g>
	<g>
		<path class="st5" d="M240,168.664H16c-4.418,0-8-3.582-8-8V16.046c0-4.418,3.582-8,8-8h224c4.418,0,8,3.582,8,8v144.619
			C248,165.083,244.418,168.664,240,168.664z"/>
	</g>
	<g>
		<path class="st0" d="M16.5,155.855v-135c0-2.209,1.791-4,4-4h215c2.209,0,4,1.791,4,4v135c0,2.209-1.791,4-4,4h-215
			C18.291,159.855,16.5,158.064,16.5,155.855z"/>
	</g>
	<g>
		<path class="st1" d="M240,170.665H16c-5.514,0-10-4.486-10-10V16.046c0-5.514,4.486-10,10-10h224c5.514,0,10,4.486,10,10v144.619
			C250,166.179,245.514,170.665,240,170.665z M16,10.046c-3.309,0-6,2.691-6,6v144.619c0,3.309,2.691,6,6,6h224c3.309,0,6-2.691,6-6
			V16.046c0-3.309-2.691-6-6-6H16z"/>
	</g>
	<g>
		<path class="st1" d="M235.5,161.855h-215c-3.309,0-6-2.691-6-6v-135c0-3.309,2.691-6,6-6h215c3.309,0,6,2.691,6,6v135
			C241.5,159.164,238.809,161.855,235.5,161.855z M20.5,18.855c-1.103,0-2,0.897-2,2v135c0,1.103,0.897,2,2,2h215
			c1.103,0,2-0.897,2-2v-135c0-1.103-0.897-2-2-2H20.5z"/>
	</g>
	<g>
		<path class="st5" d="M123.059,48.621H40.941c-3.13,0-5.667-2.537-5.667-5.667v0c0-3.13,2.537-5.667,5.667-5.667h82.118
			c3.13,0,5.667,2.537,5.667,5.667v0C128.726,46.084,126.189,48.621,123.059,48.621z"/>
	</g>
	<g>
		<path class="st5" d="M123.059,76.621H40.941c-3.13,0-5.667-2.537-5.667-5.667v0c0-3.13,2.537-5.667,5.667-5.667h82.118
			c3.13,0,5.667,2.537,5.667,5.667v0C128.726,74.084,126.189,76.621,123.059,76.621z"/>
	</g>
	<g>
		<path class="st5" d="M215.059,108.621h-82.118c-3.13,0-5.667-2.537-5.667-5.667v0c0-3.13,2.537-5.667,5.667-5.667h82.118
			c3.13,0,5.667,2.537,5.667,5.667v0C220.726,106.084,218.189,108.621,215.059,108.621z"/>
	</g>
	<g>
		<path class="st5" d="M215.059,136.621h-82.118c-3.13,0-5.667-2.537-5.667-5.667l0,0c0-3.13,2.537-5.667,5.667-5.667h82.118
			c3.13,0,5.667,2.537,5.667,5.667l0,0C220.726,134.084,218.189,136.621,215.059,136.621z"/>
	</g>
	<g>
		<path class="st7" d="M128,154.537c-6.403,0-12.396-1.729-17.54-4.732v7.823l0.018-0.01l17.54,3.942l0,0l17.523-3.938v-7.817
			C140.396,152.809,134.404,154.537,128,154.537z"/>
	</g>
	<g>
		<path class="st1" d="M128.018,163.561c-0.147,0-0.294-0.016-0.438-0.049l-17.408-3.913c-0.247-0.036-0.488-0.119-0.709-0.248
			c-0.615-0.358-1.002-1.011-1.002-1.723v-7.823c0-0.716,0.383-1.378,1.004-1.734c0.622-0.357,1.386-0.354,2.004,0.007
			c4.999,2.917,10.716,4.459,16.533,4.459c5.817,0,11.534-1.542,16.532-4.459c0.619-0.361,1.383-0.363,2.004-0.007
			s1.004,1.018,1.004,1.734v7.817c0,0.936-0.648,1.746-1.562,1.951l-17.523,3.938C128.312,163.545,128.165,163.561,128.018,163.561z
			 M112.459,156.014l15.558,3.497l15.523-3.489v-2.917c-4.844,2.252-10.155,3.432-15.541,3.432s-10.696-1.179-15.541-3.432V156.014z
			"/>
	</g>
	<g>
		<path class="st0" d="M172.238,205.974H83.779v-25.456c0-10.469,8.487-18.955,18.955-18.955h50.548
			c10.469,0,18.955,8.487,18.955,18.955V205.974z"/>
	</g>
	<g>
		<path class="st1" d="M172.238,207.974H83.779c-1.104,0-2-0.896-2-2v-25.456c0-11.555,9.4-20.956,20.956-20.956h50.547
			c11.555,0,20.956,9.4,20.956,20.956v25.456C174.238,207.078,173.342,207.974,172.238,207.974z M85.779,203.974h84.458v-23.456
			c0-9.349-7.606-16.956-16.956-16.956h-50.547c-9.349,0-16.956,7.606-16.956,16.956V203.974z"/>
	</g>
	<g>
		<path class="st0" d="M128.018,161.561l-17.54-3.942l-7.004,3.942l11.026,14.059c0.634,0.808,1.857,0.808,2.491,0L128.018,161.561z
			"/>
	</g>
	<g>
		<path class="st0" d="M128.016,161.561l17.54-3.942l7.004,3.942l-11.026,14.059c-0.634,0.808-1.857,0.808-2.491,0L128.016,161.561z
			"/>
	</g>
	<g>
		<path class="st1" d="M115.746,178.226c-1.108,0-2.136-0.5-2.819-1.372L101.9,162.795c-0.36-0.459-0.501-1.053-0.388-1.625
			s0.472-1.066,0.98-1.352l7.004-3.942c0.431-0.243,0.937-0.317,1.419-0.208l17.54,3.942c0.669,0.15,1.215,0.633,1.445,1.28
			c0.23,0.646,0.113,1.366-0.31,1.906l-11.026,14.059C117.881,177.726,116.854,178.226,115.746,178.226z M106.486,162.161
			l9.26,11.806l8.744-11.149l-13.701-3.08L106.486,162.161z"/>
	</g>
	<g>
		<path class="st4" d="M122.572,176.104l-4.876,29.869c7.453,0,13.153,0,20.608,0l-4.876-29.869H122.572z"/>
	</g>
	<g>
		<path class="st1" d="M138.304,207.974h-20.607c-0.587,0-1.144-0.258-1.524-0.705c-0.38-0.447-0.544-1.039-0.45-1.618l4.875-29.87
			c0.158-0.967,0.994-1.678,1.974-1.678h10.856c0.98,0,1.816,0.71,1.974,1.678l4.875,29.87c0.094,0.579-0.07,1.17-0.45,1.618
			C139.448,207.716,138.891,207.974,138.304,207.974z M120.049,203.974h15.901l-4.223-25.87h-7.456L120.049,203.974z"/>
	</g>
	<g>
		<path class="st1" d="M115.746,178.226c-1.108,0-2.136-0.5-2.819-1.372L101.9,162.795c-0.36-0.459-0.501-1.053-0.388-1.625
			s0.472-1.066,0.98-1.352l7.004-3.942c0.431-0.243,0.937-0.317,1.419-0.208l17.54,3.942c0.669,0.15,1.215,0.633,1.445,1.28
			c0.23,0.646,0.113,1.366-0.31,1.906l-11.026,14.059C117.881,177.726,116.854,178.226,115.746,178.226z M106.486,162.161
			l9.26,11.806l8.744-11.149l-13.701-3.08L106.486,162.161z"/>
	</g>
	<g>
		<path class="st4" d="M128.017,161.562l-6.871,8.761l1.426,5.781c3.929,0,6.93,0,10.856,0l1.434-5.814L128.017,161.562z"/>
	</g>
	<g>
		<path class="st1" d="M140.288,178.226c-1.107,0-2.135-0.5-2.819-1.372l-11.027-14.059c-0.423-0.54-0.541-1.259-0.31-1.906
			c0.23-0.646,0.776-1.129,1.445-1.28l17.541-3.942c0.483-0.109,0.988-0.034,1.419,0.208l7.003,3.942
			c0.509,0.286,0.867,0.78,0.98,1.352s-0.028,1.166-0.388,1.625l-11.026,14.059C142.424,177.726,141.396,178.226,140.288,178.226z
			 M131.544,162.818l8.744,11.149l9.26-11.806l-4.303-2.422L131.544,162.818z"/>
	</g>
	<g>
		<path class="st1" d="M133.428,178.104h-10.856c-0.92,0-1.721-0.628-1.942-1.521l-1.426-5.782
			c-0.147-0.597-0.012-1.229,0.368-1.713l6.871-8.761c0.758-0.967,2.389-0.967,3.147,0l6.846,8.729
			c0.38,0.484,0.516,1.116,0.368,1.713l-1.435,5.814C135.149,177.477,134.348,178.104,133.428,178.104z M124.138,174.104h7.724
			l0.826-3.347l-4.671-5.955l-4.696,5.987L124.138,174.104z"/>
	</g>
	<g>
		<path class="st7" d="M162.641,107.16v-3.244c0-18.959-15.509-34.329-34.641-34.329l0,0c-19.132,0-34.641,15.37-34.641,34.329
			v3.244c-6.015-0.122-10.787,4.67-10.787,10.462c0,6.185,5.4,11.077,11.702,10.411c3.575,15.188,17.313,26.504,33.726,26.504
			c16.414,0,30.151-11.317,33.726-26.504c6.294,0.666,11.702-4.217,11.702-10.411C173.428,111.827,168.652,107.038,162.641,107.16z"
			/>
	</g>
	<g>
		<path class="st4" d="M134.225,142.365L134.225,142.365c-3.188,3.213-9.346,3.137-12.459,0l0,0c-1.915-1.931-1.653-3.6-1.653-6.064
			h15.765C135.878,138.675,136.169,140.405,134.225,142.365z"/>
	</g>
	<g>
		<path class="st1" d="M145.986,128.455c-2.684,0-4.865-2.176-4.865-4.865v-5.189c0-2.687,2.178-4.865,4.865-4.865
			c2.684,0,4.865,2.176,4.865,4.865v5.189C150.851,126.277,148.673,128.455,145.986,128.455z"/>
	</g>
	<g>
		<path class="st1" d="M110.008,128.455L110.008,128.455c-2.687,0-4.865-2.178-4.865-4.865v-5.189c0-2.687,2.178-4.865,4.865-4.865
			h0c2.687,0,4.865,2.178,4.865,4.865v5.189C114.873,126.277,112.695,128.455,110.008,128.455z"/>
	</g>
	<g>
		<path class="st1" d="M128,156.538c-16.56,0-30.829-10.795-35.26-26.451c-2.965-0.095-5.823-1.227-8.041-3.222
			c-2.624-2.361-4.128-5.729-4.128-9.242c0-3.363,1.328-6.516,3.74-8.879c1.94-1.901,4.391-3.096,7.047-3.464v-1.363
			c0-20.032,16.437-36.329,36.641-36.329s36.641,16.297,36.641,36.329v1.363c2.657,0.368,5.107,1.563,7.047,3.464
			c2.412,2.363,3.74,5.516,3.74,8.878c0,3.513-1.504,6.881-4.127,9.241c-2.217,1.995-5.077,3.127-8.042,3.223
			C158.83,145.742,144.56,156.538,128,156.538z M94.275,126.034c0.918,0,1.731,0.63,1.945,1.542
			c3.459,14.698,16.528,24.962,31.779,24.962c15.252,0,28.32-10.265,31.779-24.962c0.23-0.98,1.149-1.638,2.157-1.531
			c2.477,0.259,4.854-0.503,6.689-2.155c1.781-1.603,2.802-3.887,2.802-6.268c0-2.278-0.902-4.417-2.539-6.021
			c-1.655-1.622-3.854-2.471-6.208-2.441c-0.567,0.01-1.057-0.195-1.44-0.571s-0.6-0.891-0.6-1.428v-3.244
			c0-17.826-14.643-32.329-32.641-32.329S95.359,86.09,95.359,103.917v3.244c0,0.538-0.216,1.052-0.6,1.429
			c-0.385,0.375-0.912,0.582-1.44,0.571c-2.336-0.033-4.552,0.819-6.207,2.44c-1.638,1.604-2.54,3.744-2.54,6.022
			c0,2.38,1.022,4.666,2.804,6.269c1.834,1.651,4.215,2.415,6.688,2.154C94.135,126.037,94.206,126.034,94.275,126.034z"/>
	</g>
	<g>
		<path class="st2" d="M170.91,88.978c0-24.27-26.4-38.165-42.91-28.316c-16.21-9.67-42.91,3.714-42.91,28.316
			c0,18.104-0.124,18.258,0.419,21.413c1.958-2.031,4.734-3.293,7.85-3.23c0-5.041-0.001-2.716,0.017-3.805h32.934
			c9.126,0,16.524-7.398,16.524-16.524v-4.039c0,11.099,8.794,20.139,19.794,20.544c0.015,0.874,0.012-0.734,0.012,3.825
			c3.115-0.063,5.891,1.199,7.85,3.231C171.034,107.238,170.91,107.112,170.91,88.978z"/>
	</g>
	<g>
		<path class="st1" d="M110.007,136.291c-8.665,0-15.713-7.049-15.713-15.713s7.049-15.714,15.713-15.714
			s15.713,7.049,15.713,15.714S118.671,136.291,110.007,136.291z M110.007,108.864c-6.459,0-11.713,5.255-11.713,11.714
			s5.254,11.713,11.713,11.713s11.713-5.254,11.713-11.713S116.466,108.864,110.007,108.864z"/>
	</g>
	<g>
		<path class="st1" d="M145.984,136.291c-8.665,0-15.713-7.049-15.713-15.713s7.049-15.714,15.713-15.714
			s15.713,7.049,15.713,15.714S154.649,136.291,145.984,136.291z M145.984,108.864c-6.459,0-11.713,5.255-11.713,11.714
			s5.254,11.713,11.713,11.713s11.713-5.254,11.713-11.713S152.443,108.864,145.984,108.864z"/>
	</g>
	<g>
		<path class="st1" d="M133.5,122.584h-11c-1.104,0-2-0.896-2-2s0.896-2,2-2h11c1.104,0,2,0.896,2,2S134.604,122.584,133.5,122.584z
			"/>
	</g>
	<g>
		<path class="st1" d="M128.009,146.247C128.008,146.247,128.009,146.247,128.009,146.247c-2.863,0-5.527-1.03-7.308-2.826
			c-2.146-2.163-2.121-4.195-2.095-6.348l0.006-0.772c0-0.829,0.671-1.5,1.5-1.5h15.765c0.829,0,1.5,0.671,1.5,1.5
			c0,0.273,0.004,0.538,0.008,0.795c0.031,2.04,0.063,4.149-2.096,6.325l0,0C133.509,145.217,130.854,146.247,128.009,146.247z
			 M121.601,137.801c-0.001,1.509,0.128,2.397,1.23,3.507c1.222,1.232,3.109,1.938,5.177,1.938h0c2.052,0,3.929-0.707,5.151-1.938
			l0,0c1.111-1.12,1.238-2.045,1.233-3.507H121.601z M134.225,142.365h0.01H134.225z"/>
	</g>
	<g>
		<path class="st1" d="M170.491,112.391c-0.535,0-1.057-0.215-1.439-0.612c-1.677-1.738-3.919-2.659-6.37-2.619
			c-0.508,0.012-1.056-0.195-1.44-0.571c-0.384-0.376-0.6-0.891-0.6-1.429v-1.415c0-0.209,0-0.396,0-0.562
			c-7.436-0.895-13.694-5.345-17.083-11.593c-2.707,6.88-9.418,11.764-17.248,11.764H95.359c0,0.298,0,0.651,0,1.071v0.735
			c0,0.538-0.216,1.052-0.6,1.429c-0.385,0.376-0.931,0.581-1.44,0.571c-2.461-0.031-4.694,0.88-6.37,2.619
			c-0.523,0.543-1.309,0.746-2.028,0.523c-0.721-0.222-1.255-0.83-1.383-1.572c-0.472-2.743-0.471-3.348-0.456-13.443
			c0.003-2.248,0.008-4.974,0.008-8.309c0-12.181,6.372-23.071,17.046-29.132c9.212-5.231,19.77-5.764,27.864-1.477
			c8.098-4.294,18.621-3.786,27.773,1.411c10.73,6.094,17.137,17.009,17.137,29.198c0,3.334,0.004,6.059,0.008,8.306
			c0.015,10.099,0.016,10.703-0.456,13.446c-0.128,0.743-0.663,1.351-1.383,1.573C170.886,112.362,170.687,112.391,170.491,112.391z
			 M164.641,105.28c1.496,0.207,2.923,0.676,4.231,1.387c0.058-1.659,0.054-4.258,0.046-9.377c-0.003-2.249-0.008-4.976-0.008-8.312
			c0-10.731-5.649-20.346-15.113-25.72c-8.293-4.71-17.786-5.047-24.772-0.878c-0.632,0.376-1.418,0.376-2.05,0
			c-6.979-4.164-16.506-3.802-24.864,0.944C92.705,68.665,87.09,78.255,87.09,88.978c0,3.338-0.004,6.066-0.008,8.315
			c-0.008,5.118-0.012,7.715,0.045,9.374c1.309-0.711,2.736-1.181,4.232-1.388c0.002-0.789,0.011-1.326,0.04-1.709l-0.029-0.002
			l0.006-0.247c0.018-1.091,0.908-1.967,2-1.967h32.934c8.009,0,14.524-6.516,14.524-14.524v-4.039c0-1.104,0.896-2,2-2s2,0.896,2,2
			c0,10.03,7.848,18.176,17.868,18.545c1.062,0.039,1.908,0.902,1.926,1.965l0.007,0.275
			C164.639,103.679,164.641,103.688,164.641,105.28z"/>
	</g>
	<g>
		<path class="st6" d="M118.815,154.02c0-1.131,0.39-2.162,1.023-3H99.054c-0.002,0-0.004,0-0.006,0
			c-9.919,0.008-17.985,8.08-17.985,18v27.229c0.805-0.073,5.202-0.073,6,0V169.02c0-6.617,5.383-12,12-12h20.775
			C119.205,156.182,118.815,155.151,118.815,154.02z"/>
	</g>
	<g>
		<path class="st2" d="M132.185,159.02h-8.37c-2.761,0-5-2.239-5-5v0c0-2.761,2.239-5,5-5h8.37c2.761,0,5,2.239,5,5v0
			C137.185,156.781,134.946,159.02,132.185,159.02z"/>
	</g>
	<g>
		<path class="st2" d="M95.937,205.973h-23.75v0c0-5.395,4.374-9.769,9.769-9.769h4.211
			C91.564,196.204,95.937,200.578,95.937,205.973L95.937,205.973z"/>
	</g>
	<g>
		<path class="st1" d="M132.185,161.02h-8.37c-3.86,0-7-3.14-7-7s3.14-7,7-7h8.37c3.86,0,7,3.14,7,7S136.045,161.02,132.185,161.02z
			 M123.815,151.02c-1.654,0-3,1.346-3,3s1.346,3,3,3h8.37c1.654,0,3-1.346,3-3s-1.346-3-3-3H123.815z"/>
	</g>
	<g>
		<path class="st1" d="M95.937,207.974h-23.75c-1.104,0-2-0.896-2-2c0-6.49,5.28-11.77,11.769-11.77h4.212
			c6.489,0,11.769,5.28,11.769,11.77C97.937,207.078,97.042,207.974,95.937,207.974z M74.448,203.974h19.229
			c-0.885-3.318-3.916-5.77-7.508-5.77h-4.212C78.364,198.204,75.333,200.655,74.448,203.974z"/>
	</g>
	<g>
		<path class="st12" d="M187.667,219.288H68.333c-1.657,0-3-1.343-3-3v-7.314c0-1.657,1.343-3,3-3h119.333c1.657,0,3,1.343,3,3
			v7.314C190.667,217.944,189.324,219.288,187.667,219.288z"/>
	</g>
	<g>
		<path class="st12" d="M72,219.287l2.333,28.667c10.208,0,96.071,0,107.317,0l2.333-28.667
			C169.95,219.287,86.06,219.287,72,219.287z"/>
	</g>
	<g>
		<path class="st1" d="M187.667,221.288H68.333c-2.757,0-5-2.243-5-5v-7.314c0-2.757,2.243-5,5-5h119.333c2.757,0,5,2.243,5,5v7.314
			C192.667,219.044,190.423,221.288,187.667,221.288z M68.333,207.974c-0.551,0-1,0.449-1,1v7.314c0,0.551,0.449,1,1,1h119.333
			c0.551,0,1-0.449,1-1v-7.314c0-0.551-0.449-1-1-1H68.333z"/>
	</g>
	<g>
		<path class="st1" d="M181.65,249.954H74.333c-1.042,0-1.909-0.799-1.993-1.838l-2.333-28.667
			c-0.045-0.557,0.144-1.107,0.522-1.518c0.379-0.411,0.912-0.645,1.471-0.645h111.983c0.559,0,1.092,0.233,1.471,0.645
			c0.378,0.411,0.568,0.961,0.522,1.518l-2.333,28.667C183.559,249.155,182.692,249.954,181.65,249.954z M76.177,245.954h103.629
			l2.007-24.667H74.169L76.177,245.954z"/>
	</g>
</g>
</svg>
