<?xml version="1.0" encoding="utf-8"?>
<!-- Generator: Adobe Illustrator 22.1.0, SVG Export Plug-In . SVG Version: 6.00 Build 0)  -->
<svg version="1.1" id="Layer_1" xmlns="http://www.w3.org/2000/svg" xmlns:xlink="http://www.w3.org/1999/xlink" x="0px" y="0px"
	 viewBox="0 0 256 256" style="enable-background:new 0 0 256 256;" xml:space="preserve">
<style type="text/css">
	.st0{fill:#E0EBFC;}
	.st1{fill:#3762CC;}
	.st2{fill:#4671C6;}
	.st3{fill:#6BDDDD;}
	.st4{fill:#F9A7A7;}
	.st5{fill:#A4C9FF;}
	.st6{fill:#FFEA92;}
	.st7{fill:#F9CFCF;}
	.st8{fill:#FFE164;}
	.st9{fill:#FFDC85;}
	.st10{fill:#FFEA94;}
	.st11{fill:#B9BEFC;}
	.st12{fill:#EAA97D;}
</style>
<g>
	<g>
		<path class="st7" d="M130.09,51.92c-1.164-1.13-3.017-1.13-4.181,0C98.764,78.273,83.877,92.718,75.5,100.854V234h105V100.854
			C172.123,92.718,157.236,78.274,130.09,51.92z"/>
	</g>
	<g>
		<rect x="180.5" y="154.333" class="st4" width="55" height="79.667"/>
	</g>
	<g>
		<rect x="20.5" y="154.333" class="st4" width="55" height="79.667"/>
	</g>
	<g>
		<path class="st3" d="M245,248H11c-1.657,0-3-1.343-3-3v-8c0-1.657,1.343-3,3-3h234c1.657,0,3,1.343,3,3v8
			C248,246.657,246.657,248,245,248z"/>
	</g>
	<g>
		<path class="st1" d="M245,250H11c-2.757,0-5-2.243-5-5v-8c0-2.757,2.243-5,5-5h234c2.757,0,5,2.243,5,5v8
			C250,247.757,247.757,250,245,250z M11,236c-0.551,0-1,0.448-1,1v8c0,0.552,0.449,1,1,1h234c0.551,0,1-0.448,1-1v-8
			c0-0.552-0.449-1-1-1H11z"/>
	</g>
	<g>
		<path class="st2" d="M236.5,137.667h-56v16.667h56c2.209,0,4-1.791,4-4v-8.667C240.5,139.458,238.709,137.667,236.5,137.667z"/>
	</g>
	<g>
		<path class="st2" d="M75.5,137.667h-56c-2.209,0-4,1.791-4,4v8.667c0,2.209,1.791,4,4,4h56V137.667z"/>
	</g>
	<g>
		<path class="st4" d="M150.612,234h-45.225v-30.054c0-12.488,10.124-22.612,22.612-22.612h0c12.488,0,22.612,10.124,22.612,22.612
			V234z"/>
	</g>
	<g>
		<path class="st3" d="M128.001,160.913c-20.365,0-36.934-16.568-36.934-36.934s16.568-36.934,36.934-36.934
			c20.365,0,36.934,16.568,36.934,36.934S148.367,160.913,128.001,160.913z"/>
	</g>
	<g>
		<circle class="st4" cx="128.001" cy="123.979" r="28.492"/>
	</g>
	<g>
		<path class="st2" d="M128,139.744h-21.776c-0.523,0-0.947-0.424-0.947-0.947v-28.073c0-0.523,0.424-0.947,0.947-0.947h20.084
			c0.935,0,1.692,0.758,1.692,1.692V139.744z"/>
	</g>
	<g>
		<path class="st2" d="M128,139.744h21.776c0.523,0,0.947-0.424,0.947-0.947v-28.073c0-0.523-0.424-0.947-0.947-0.947h-20.084
			c-0.935,0-1.692,0.758-1.692,1.692V139.744z"/>
	</g>
	<g>
		<path class="st11" d="M145.962,108.256v1.482H128h-17.962v-1.482c-1.377,0.15-1.456,1.482-1.456,1.482v26.943
			c14.031,0,24.783,0,38.836,0v-26.943C147.418,109.738,147.339,108.406,145.962,108.256z"/>
	</g>
	<g>
		<path class="st0" d="M128,136.681h-17.962v-28.424h16.486c0.815,0,1.476,0.661,1.476,1.476V136.681z"/>
	</g>
	<g>
		<path class="st0" d="M128,136.681h17.962v-28.424h-16.486c-0.815,0-1.476,0.661-1.476,1.476V136.681z"/>
	</g>
	<g>
		<path class="st11" d="M145.962,135.199h-16.505c-1.377,0.15-1.456,1.482-1.456,1.482h17.962h1.456
			C147.418,136.681,147.339,135.349,145.962,135.199z"/>
	</g>
	<g>
		<path class="st11" d="M128.526,108.612c-0.319,0.271-0.526,0.67-0.526,1.121v26.948h0.526V108.612z"/>
	</g>
	<g>
		<path class="st11" d="M127.475,108.612v28.069H128v-26.948C128,109.281,127.793,108.882,127.475,108.612z"/>
	</g>
	<g>
		<path class="st1" d="M128.001,162.913c-21.468,0-38.934-17.466-38.934-38.934s17.465-38.934,38.934-38.934
			c21.469,0,38.935,17.466,38.935,38.934S149.47,162.913,128.001,162.913z M128.001,89.046c-19.263,0-34.934,15.671-34.934,34.934
			s15.671,34.934,34.934,34.934c19.263,0,34.935-15.671,34.935-34.934S147.264,89.046,128.001,89.046z"/>
	</g>
	<g>
		<path class="st11" d="M126.544,135.199h-16.505c-1.377,0.15-1.456,1.482-1.456,1.482c28.382,0,13.688,0,19.418,0
			C128,136.681,127.921,135.349,126.544,135.199z"/>
	</g>
	<g>
		<path class="st1" d="M235.5,236h-55c-1.104,0-2-0.896-2-2v-79.667c0-1.104,0.896-2,2-2h55c1.104,0,2,0.896,2,2V234
			C237.5,235.104,236.604,236,235.5,236z M182.5,232h51v-75.667h-51V232z"/>
	</g>
	<g>
		<path class="st1" d="M236.5,156.333h-56c-1.104,0-2-0.896-2-2v-16.666c0-1.104,0.896-2,2-2h56c3.309,0,6,2.691,6,6v8.666
			C242.5,153.642,239.809,156.333,236.5,156.333z M182.5,152.333h54c1.103,0,2-0.897,2-2v-8.666c0-1.103-0.897-2-2-2h-54V152.333z"
			/>
	</g>
	<g>
		<path class="st2" d="M56.55,214.972h-17.1c-2.361,0-4.275-1.914-4.275-4.275v-33.06c0-2.361,1.914-4.275,4.275-4.275h17.1
			c2.361,0,4.275,1.914,4.275,4.275v33.06C60.825,213.058,58.911,214.972,56.55,214.972z"/>
	</g>
	<g>
		<path class="st2" d="M216.55,214.972h-17.1c-2.361,0-4.275-1.914-4.275-4.275v-33.06c0-2.361,1.914-4.275,4.275-4.275h17.1
			c2.361,0,4.275,1.914,4.275,4.275v33.06C220.825,213.058,218.911,214.972,216.55,214.972z"/>
	</g>
	<g>
		<path class="st1" d="M75.5,156.333h-56c-3.309,0-6-2.691-6-6v-8.666c0-3.309,2.691-6,6-6h56c1.104,0,2,0.896,2,2v16.666
			C77.5,155.438,76.604,156.333,75.5,156.333z M19.5,139.667c-1.103,0-2,0.897-2,2v8.666c0,1.103,0.897,2,2,2h54v-12.666H19.5z"/>
	</g>
	<g>
		<path class="st2" d="M125.214,37.192l-66.397,64.459c-2.191,2.127-2.243,5.629-0.116,7.82l0,0
			c2.133,2.197,5.638,2.249,7.827,0.108c4.46-4.36,16.98-16.497,59.381-57.66c1.164-1.13,3.017-1.13,4.181,0
			c42.401,41.164,54.921,53.3,59.381,57.66c2.189,2.14,5.694,2.088,7.827-0.108l0,0c2.128-2.191,2.076-5.693-0.116-7.82
			l-66.397-64.459C129.234,35.686,126.766,35.686,125.214,37.192z"/>
	</g>
	<g>
		<path class="st1" d="M193.325,113.152c-1.975,0-3.836-0.758-5.251-2.143c-2.943-2.877-9.396-9.141-25.631-24.898l-33.745-32.757
			c-0.391-0.379-1.004-0.38-1.395,0.001L94.575,85.123c-17.208,16.703-23.647,22.952-26.648,25.887
			c-1.416,1.385-3.277,2.143-5.252,2.143c-0.034,0-0.067,0-0.1,0c-2.016-0.026-3.901-0.839-5.308-2.287
			c-2.893-2.979-2.822-7.756,0.157-10.648l66.396-64.459c2.343-2.275,6.016-2.275,8.358,0l66.397,64.459
			c1.443,1.401,2.254,3.28,2.284,5.291c0.03,2.012-0.726,3.914-2.127,5.357c-1.407,1.448-3.292,2.261-5.309,2.287
			C193.392,113.152,193.358,113.152,193.325,113.152z M128,49.063c1.253,0,2.507,0.475,3.483,1.422l33.744,32.756
			c16.242,15.766,22.698,22.031,25.642,24.91c0.673,0.658,1.566,1.018,2.503,1.002c0.945-0.012,1.83-0.394,2.491-1.074
			c0.657-0.677,1.011-1.568,0.997-2.511c-0.014-0.943-0.395-1.824-1.071-2.481l-66.397-64.459c-0.782-0.759-2.005-0.757-2.786,0l0,0
			L60.21,103.086c-1.396,1.356-1.43,3.596-0.074,4.992c0.661,0.681,1.545,1.063,2.49,1.074c0.937,0.017,1.831-0.344,2.504-1.002
			c3.006-2.94,9.447-9.191,26.659-25.897l32.727-31.768C125.493,49.537,126.747,49.063,128,49.063z M125.214,37.192h0.01H125.214z"
			/>
	</g>
	<g>
		<path class="st1" d="M75.5,236h-55c-1.104,0-2-0.896-2-2v-79.667c0-1.104,0.896-2,2-2h55c1.104,0,2,0.896,2,2V234
			C77.5,235.104,76.604,236,75.5,236z M22.5,232h51v-75.667h-51V232z"/>
	</g>
	<g>
		<path class="st1" d="M150.612,236h-45.225c-1.104,0-2-0.896-2-2v-30.055c0-13.571,11.041-24.612,24.612-24.612
			s24.612,11.041,24.612,24.612V234C152.612,235.104,151.717,236,150.612,236z M107.388,232h41.225v-28.055
			c0-11.365-9.247-20.612-20.612-20.612s-20.612,9.247-20.612,20.612V232z"/>
	</g>
	<g>
		<path class="st11" d="M124.837,116.5h-11.635c-0.656,0-1.188-0.532-1.188-1.188l0,0c0-0.656,0.532-1.188,1.188-1.188h11.635
			c0.656,0,1.187,0.532,1.187,1.188l0,0C126.024,115.968,125.493,116.5,124.837,116.5z"/>
	</g>
	<g>
		<path class="st11" d="M143.038,116.5h-11.635c-0.656,0-1.188-0.532-1.188-1.188l0,0c0-0.656,0.532-1.188,1.188-1.188h11.635
			c0.656,0,1.188,0.532,1.188,1.188l0,0C144.226,115.968,143.694,116.5,143.038,116.5z"/>
	</g>
	<g>
		<path class="st11" d="M124.837,122.5h-11.635c-0.656,0-1.188-0.532-1.188-1.188l0,0c0-0.656,0.532-1.188,1.188-1.188h11.635
			c0.656,0,1.187,0.532,1.187,1.188l0,0C126.024,121.968,125.493,122.5,124.837,122.5z"/>
	</g>
	<g>
		<path class="st11" d="M143.038,122.5h-11.635c-0.656,0-1.188-0.532-1.188-1.188l0,0c0-0.656,0.532-1.188,1.188-1.188h11.635
			c0.656,0,1.188,0.532,1.188,1.188l0,0C144.226,121.968,143.694,122.5,143.038,122.5z"/>
	</g>
	<g>
		<path class="st11" d="M124.837,128.5h-11.635c-0.656,0-1.188-0.532-1.188-1.188l0,0c0-0.656,0.532-1.188,1.188-1.188h11.635
			c0.656,0,1.187,0.532,1.187,1.188l0,0C126.024,127.968,125.493,128.5,124.837,128.5z"/>
	</g>
	<g>
		<path class="st11" d="M143.038,128.5h-11.635c-0.656,0-1.188-0.532-1.188-1.188l0,0c0-0.656,0.532-1.188,1.188-1.188h11.635
			c0.656,0,1.188,0.532,1.188,1.188l0,0C144.226,127.968,143.694,128.5,143.038,128.5z"/>
	</g>
	<g>
		<path class="st1" d="M56.55,216.972h-17.1c-3.46,0-6.275-2.815-6.275-6.275v-33.06c0-3.46,2.815-6.275,6.275-6.275h17.1
			c3.46,0,6.275,2.815,6.275,6.275v33.06C62.825,214.156,60.01,216.972,56.55,216.972z M39.45,175.361
			c-1.255,0-2.275,1.021-2.275,2.275v33.06c0,1.255,1.021,2.275,2.275,2.275h17.1c1.255,0,2.275-1.021,2.275-2.275v-33.06
			c0-1.255-1.021-2.275-2.275-2.275H39.45z"/>
	</g>
	<g>
		<path class="st1" d="M216.55,216.972h-17.1c-3.46,0-6.275-2.815-6.275-6.275v-33.06c0-3.46,2.815-6.275,6.275-6.275h17.1
			c3.46,0,6.275,2.815,6.275,6.275v33.06C222.825,214.156,220.01,216.972,216.55,216.972z M199.45,175.361
			c-1.255,0-2.275,1.021-2.275,2.275v33.06c0,1.255,1.021,2.275,2.275,2.275h17.1c1.255,0,2.275-1.021,2.275-2.275v-33.06
			c0-1.255-1.021-2.275-2.275-2.275H199.45z"/>
	</g>
	<g>
		<path class="st1" d="M180.5,236h-105c-1.104,0-2-0.896-2-2V100.854c0-0.541,0.219-1.059,0.606-1.435l50.41-48.934
			c1.953-1.896,5.014-1.896,6.967-0.001v0.001l50.41,48.934c0.388,0.376,0.606,0.894,0.606,1.435V234
			C182.5,235.104,181.604,236,180.5,236z M77.5,232h101V101.699l-49.803-48.345v0.001c-0.391-0.381-1.004-0.381-1.395,0
			L77.5,101.699V232z"/>
	</g>
</g>
</svg>
