<?xml version="1.0" encoding="utf-8"?>
<!-- Generator: Adobe Illustrator 22.1.0, SVG Export Plug-In . SVG Version: 6.00 Build 0)  -->
<svg version="1.1" id="Layer_1" xmlns="http://www.w3.org/2000/svg" xmlns:xlink="http://www.w3.org/1999/xlink" x="0px" y="0px"
	 viewBox="0 0 256 256" style="enable-background:new 0 0 256 256;" xml:space="preserve">
<style type="text/css">
	.st0{fill:#E0EBFC;}
	.st1{fill:#3762CC;}
	.st2{fill:#4671C6;}
	.st3{fill:#6BDDDD;}
	.st4{fill:#F9A7A7;}
	.st5{fill:#A4C9FF;}
	.st6{fill:#FFEA92;}
	.st7{fill:#F9CFCF;}
	.st8{fill:#FFE164;}
	.st9{fill:#FFDC85;}
	.st10{fill:#FFEA94;}
	.st11{fill:#B9BEFC;}
	.st12{fill:#EAA97D;}
</style>
<g>
	<g>
		<path class="st5" d="M100.421,16.095h80.421c2.209,0,4,1.791,4,4v103.5H96.421v-103.5C96.421,17.885,98.212,16.095,100.421,16.095
			z"/>
	</g>
	<g>
		<path class="st3" d="M174.421,115.081h-67.579c-1.105,0-2-0.895-2-2V26.608c0-1.105,0.895-2,2-2h67.579c1.105,0,2,0.895,2,2
			v86.473C176.421,114.186,175.526,115.081,174.421,115.081z"/>
	</g>
	<g>
		<path class="st5" d="M92.421,231.095H12c-2.209,0-4-1.791-4-4v-103.5h88.421v103.5C96.421,229.304,94.63,231.095,92.421,231.095z"
			/>
	</g>
	<g>
		<path class="st5" d="M12,16.095h80.421c2.209,0,4,1.791,4,4v103.5H8v-103.5C8,17.885,9.791,16.095,12,16.095z"/>
	</g>
	<g>
		<path class="st1" d="M86,224.581H18.421c-2.206,0-4-1.794-4-4v-86.474c0-2.206,1.794-4,4-4H86c2.206,0,4,1.794,4,4v86.474
			C90,222.787,88.206,224.581,86,224.581z M18.421,134.107v86.474h67.582L86,134.107H18.421z"/>
	</g>
	<g>
		<path class="st7" d="M62,148.448H42.421c-1.105,0-2-0.895-2-2v-4.958c0-1.105,0.895-2,2-2H62c1.105,0,2,0.895,2,2v4.958
			C64,147.552,63.105,148.448,62,148.448z"/>
	</g>
	<g>
		<path class="st2" d="M74.105,162.766h-43.79c-1.104,0-2-0.896-2-2s0.896-2,2-2h43.79c1.104,0,2,0.896,2,2
			S75.21,162.766,74.105,162.766z"/>
	</g>
	<g>
		<path class="st2" d="M74.105,169.933h-43.79c-1.104,0-2-0.896-2-2s0.896-2,2-2h43.79c1.104,0,2,0.896,2,2
			S75.21,169.933,74.105,169.933z"/>
	</g>
	<g>
		<path class="st2" d="M74.105,177.099h-43.79c-1.104,0-2-0.896-2-2s0.896-2,2-2h43.79c1.104,0,2,0.896,2,2
			S75.21,177.099,74.105,177.099z"/>
	</g>
	<g>
		<path class="st0" d="M28.632,184.953L28.632,184.953c1.86,0,3.368,1.508,3.368,3.368v20.138c0,1.86-1.508,3.368-3.368,3.368h0
			c-1.86,0-3.368-1.508-3.368-3.368v-20.138C25.263,186.461,26.771,184.953,28.632,184.953z"/>
	</g>
	<g>
		<path class="st5" d="M180.842,231.095h-80.421c-2.209,0-4-1.791-4-4v-103.5h88.421v103.5
			C184.842,229.304,183.051,231.095,180.842,231.095z"/>
	</g>
	<g>
		<path class="st1" d="M174.421,224.581h-67.579c-2.206,0-4-1.794-4-4v-86.474c0-2.206,1.794-4,4-4h67.579c2.206,0,4,1.794,4,4
			v86.474C178.421,222.787,176.626,224.581,174.421,224.581z M106.842,134.107v86.474h67.581l-0.002-86.474H106.842z"/>
	</g>
	<g>
		<path class="st7" d="M150.421,148.448h-19.579c-1.105,0-2-0.895-2-2v-4.958c0-1.105,0.895-2,2-2h19.579c1.105,0,2,0.895,2,2v4.958
			C152.421,147.552,151.526,148.448,150.421,148.448z"/>
	</g>
	<g>
		<path class="st2" d="M162.526,162.766h-43.789c-1.104,0-2-0.896-2-2s0.896-2,2-2h43.789c1.104,0,2,0.896,2,2
			S163.631,162.766,162.526,162.766z"/>
	</g>
	<g>
		<path class="st2" d="M162.526,169.933h-43.789c-1.104,0-2-0.896-2-2s0.896-2,2-2h43.789c1.104,0,2,0.896,2,2
			S163.631,169.933,162.526,169.933z"/>
	</g>
	<g>
		<path class="st2" d="M162.526,177.099h-43.789c-1.104,0-2-0.896-2-2s0.896-2,2-2h43.789c1.104,0,2,0.896,2,2
			S163.631,177.099,162.526,177.099z"/>
	</g>
	<g>
		<path class="st0" d="M117.053,184.953L117.053,184.953c1.86,0,3.368,1.508,3.368,3.368v20.138c0,1.86-1.508,3.368-3.368,3.368h0
			c-1.86,0-3.368-1.508-3.368-3.368v-20.138C113.684,186.461,115.192,184.953,117.053,184.953z"/>
	</g>
	<g>
		<path class="st1" d="M23.332,241.905H16c-2.206,0-4-1.794-4-4v-6.811c0-1.104,0.896-2,2-2h11.332c1.104,0,2,0.896,2,2v6.811
			C27.332,240.111,25.538,241.905,23.332,241.905z M16,233.095v4.811h7.334l-0.002-4.811H16z"/>
	</g>
	<g>
		<path class="st1" d="M88.421,241.905h-7.332c-2.206,0-4-1.794-4-4v-6.811c0-1.104,0.896-2,2-2h11.332c1.104,0,2,0.896,2,2v6.811
			C92.421,240.111,90.626,241.905,88.421,241.905z M81.089,233.095v4.811h7.334l-0.002-4.811H81.089z"/>
	</g>
	<g>
		<path class="st1" d="M111.753,241.905h-7.332c-2.206,0-4-1.794-4-4v-6.811c0-1.104,0.896-2,2-2h11.332c1.104,0,2,0.896,2,2v6.811
			C115.753,240.111,113.958,241.905,111.753,241.905z M104.421,233.095v4.811h7.334l-0.002-4.811H104.421z"/>
	</g>
	<g>
		<path class="st1" d="M176.842,241.905h-7.332c-2.206,0-4-1.794-4-4v-6.811c0-1.104,0.896-2,2-2h11.332c1.104,0,2,0.896,2,2v6.811
			C180.842,240.111,179.048,241.905,176.842,241.905z M169.51,233.095v4.811h7.334l-0.002-4.811H169.51z"/>
	</g>
	<g>
		<path class="st1" d="M184.842,125.595H96.421c-1.104,0-2-0.896-2-2v-103.5c0-3.309,2.691-6,6-6h80.421c3.309,0,6,2.691,6,6v103.5
			C186.842,124.699,185.947,125.595,184.842,125.595z M98.421,121.595h84.421v-101.5c0-1.103-0.897-2-2-2h-80.421
			c-1.103,0-2,0.897-2,2V121.595z"/>
	</g>
	<g>
		<path class="st1" d="M92.421,233.095H12c-3.309,0-6-2.691-6-6v-103.5c0-1.104,0.896-2,2-2h88.421c1.104,0,2,0.896,2,2v103.5
			C98.421,230.403,95.729,233.095,92.421,233.095z M10,125.595v101.5c0,1.103,0.897,2,2,2h80.421c1.103,0,2-0.897,2-2v-101.5H10z"/>
	</g>
	<g>
		<path class="st1" d="M96.421,125.595H8c-1.104,0-2-0.896-2-2v-103.5c0-3.309,2.691-6,6-6h80.421c3.309,0,6,2.691,6,6v103.5
			C98.421,124.699,97.525,125.595,96.421,125.595z M10,121.595h84.421v-101.5c0-1.103-0.897-2-2-2H12c-1.103,0-2,0.897-2,2V121.595z
			"/>
	</g>
	<g>
		<path class="st1" d="M180.842,233.095h-80.421c-3.309,0-6-2.691-6-6v-103.5c0-1.104,0.896-2,2-2h88.421c1.104,0,2,0.896,2,2v103.5
			C186.842,230.403,184.151,233.095,180.842,233.095z M98.421,125.595v101.5c0,1.103,0.897,2,2,2h80.421c1.103,0,2-0.897,2-2v-101.5
			H98.421z"/>
	</g>
	<g>
		<path class="st7" d="M142.067,115.081h-8.994c-1.131,0-2.049-0.917-2.049-2.049V51.673c0-1.131,0.917-2.049,2.049-2.049h8.994
			c1.131,0,2.049,0.917,2.049,2.049v61.359C144.116,114.164,143.199,115.081,142.067,115.081z"/>
	</g>
	<g>
		<path class="st4" d="M137.571,95.342L137.571,95.342c-1.545,0-2.798-1.253-2.798-2.798V60.982c0-1.545,1.253-2.798,2.798-2.798
			l0,0c1.545,0,2.798,1.253,2.798,2.798v31.562C140.369,94.089,139.116,95.342,137.571,95.342z"/>
	</g>
	<g>
		<rect x="131.025" y="103.081" class="st2" width="13.091" height="5.216"/>
	</g>
	<g>
		<path class="st1" d="M142.067,117.081h-8.994c-2.232,0-4.049-1.816-4.049-4.049V51.673c0-2.232,1.816-4.049,4.049-4.049h8.994
			c2.232,0,4.049,1.816,4.049,4.049v61.359C146.116,115.265,144.3,117.081,142.067,117.081z M133.074,51.624l-0.049,61.408
			l9.042,0.049c0.027,0,0.049-0.021,0.049-0.049V51.673L133.074,51.624z"/>
	</g>
	<g>
		<path class="st1" d="M86,117.081H18.421c-2.206,0-4-1.794-4-4V26.607c0-2.206,1.794-4,4-4H86c2.206,0,4,1.794,4,4v86.474
			C90,115.287,88.206,117.081,86,117.081z M18.421,26.607v86.474h67.582L86,26.607H18.421z"/>
	</g>
	<g>
		<path class="st7" d="M62,41.393H42.421c-1.105,0-2-0.895-2-2v-4.958c0-1.105,0.895-2,2-2H62c1.105,0,2,0.895,2,2v4.958
			C64,40.497,63.105,41.393,62,41.393z"/>
	</g>
	<g>
		<path class="st2" d="M74.105,55.71h-43.79c-1.104,0-2-0.896-2-2s0.896-2,2-2h43.79c1.104,0,2,0.896,2,2S75.21,55.71,74.105,55.71z
			"/>
	</g>
	<g>
		<path class="st2" d="M74.105,62.877h-43.79c-1.104,0-2-0.896-2-2s0.896-2,2-2h43.79c1.104,0,2,0.896,2,2
			S75.21,62.877,74.105,62.877z"/>
	</g>
	<g>
		<path class="st2" d="M74.105,70.044h-43.79c-1.104,0-2-0.896-2-2s0.896-2,2-2h43.79c1.104,0,2,0.896,2,2
			S75.21,70.044,74.105,70.044z"/>
	</g>
	<g>
		<path class="st0" d="M28.632,77.898L28.632,77.898c1.86,0,3.368,1.508,3.368,3.368v20.138c0,1.86-1.508,3.368-3.368,3.368h0
			c-1.86,0-3.368-1.508-3.368-3.368V81.267C25.263,79.406,26.771,77.898,28.632,77.898z"/>
	</g>
	<g>
		<path class="st7" d="M115.885,115.081h-8.994c-1.131,0-2.049-0.917-2.049-2.049V51.673c0-1.131,0.917-2.049,2.049-2.049h8.994
			c1.131,0,2.049,0.917,2.049,2.049v61.359C117.933,114.164,117.016,115.081,115.885,115.081z"/>
	</g>
	<g>
		<path class="st4" d="M111.388,95.342L111.388,95.342c-1.545,0-2.798-1.253-2.798-2.798V60.982c0-1.545,1.253-2.798,2.798-2.798h0
			c1.545,0,2.798,1.253,2.798,2.798v31.562C114.186,94.089,112.933,95.342,111.388,95.342z"/>
	</g>
	<g>
		<rect x="104.842" y="103.081" class="st2" width="13.091" height="5.216"/>
	</g>
	<g>
		<path class="st1" d="M115.885,117.081h-8.994c-2.232,0-4.048-1.816-4.048-4.049V51.673c0-2.232,1.816-4.049,4.048-4.049h8.994
			c2.232,0,4.049,1.816,4.049,4.049v61.359C119.934,115.265,118.117,117.081,115.885,117.081z M106.891,51.624l-0.048,61.408
			l9.042,0.049c0.027,0,0.049-0.021,0.049-0.049V51.673L106.891,51.624z"/>
	</g>
	<g>
		<path class="st2" d="M128.976,115.081h-8.994c-1.131,0-2.049-0.917-2.049-2.049V51.673c0-1.131,0.917-2.049,2.049-2.049h8.994
			c1.131,0,2.049,0.917,2.049,2.049v61.359C131.025,114.164,130.108,115.081,128.976,115.081z"/>
	</g>
	<g>
		<path class="st6" d="M124.479,95.342L124.479,95.342c-1.545,0-2.798-1.253-2.798-2.798V60.982c0-1.545,1.253-2.798,2.798-2.798
			l0,0c1.545,0,2.798,1.253,2.798,2.798v31.562C127.277,94.089,126.025,95.342,124.479,95.342z"/>
	</g>
	<g>
		<rect x="117.933" y="103.081" class="st4" width="13.091" height="5.216"/>
	</g>
	<g>
		<path class="st1" d="M128.976,117.081h-8.994c-2.232,0-4.049-1.816-4.049-4.049V51.673c0-2.232,1.816-4.049,4.049-4.049h8.994
			c2.232,0,4.049,1.816,4.049,4.049v61.359C133.025,115.265,131.208,117.081,128.976,117.081z M119.982,51.624l-0.049,61.408
			l9.042,0.049c0.027,0,0.049-0.021,0.049-0.049V51.673L119.982,51.624z"/>
	</g>
	<g>
		<path class="st1" d="M174.421,117.081h-67.579c-2.206,0-4-1.794-4-4V26.607c0-2.206,1.794-4,4-4h67.579c2.206,0,4,1.794,4,4
			v86.474C178.421,115.287,176.626,117.081,174.421,117.081z M106.842,26.607v86.474h67.581l-0.002-86.474H106.842z"/>
	</g>
	<g>
		<path class="st0" d="M246,115.081h-67.579c-1.105,0-2-0.895-2-2V26.608c0-1.105,0.895-2,2-2H246c1.105,0,2,0.895,2,2v86.473
			C248,114.186,247.105,115.081,246,115.081z"/>
	</g>
	<g>
		<path class="st5" d="M234.105,55.71h-43.79c-1.104,0-2-0.896-2-2s0.896-2,2-2h43.79c1.104,0,2,0.896,2,2
			S235.21,55.71,234.105,55.71z"/>
	</g>
	<g>
		<path class="st5" d="M234.105,62.877h-43.79c-1.104,0-2-0.896-2-2s0.896-2,2-2h43.79c1.104,0,2,0.896,2,2
			S235.21,62.877,234.105,62.877z"/>
	</g>
	<g>
		<path class="st5" d="M234.105,70.044h-43.79c-1.104,0-2-0.896-2-2s0.896-2,2-2h43.79c1.104,0,2,0.896,2,2
			S235.21,70.044,234.105,70.044z"/>
	</g>
	<g>
		<path class="st1" d="M246,117.081h-67.579c-2.206,0-4-1.794-4-4V26.607c0-2.206,1.794-4,4-4H246c2.206,0,4,1.794,4,4v86.474
			C250,115.287,248.206,117.081,246,117.081z M178.421,26.607v86.474h67.582L246,26.607H178.421z"/>
	</g>
	<g>
		<path class="st2" d="M171.605,112.63l-8.674,2.378c-1.091,0.299-2.218-0.343-2.518-1.434L144.19,54.398
			c-0.299-1.091,0.343-2.218,1.434-2.518l8.674-2.378c1.091-0.299,2.218,0.343,2.518,1.434l16.224,59.176
			C173.338,111.203,172.696,112.33,171.605,112.63z"/>
	</g>
	<g>
		<path class="st6" d="M162.049,94.782L162.049,94.782c-1.49,0.409-3.03-0.468-3.439-1.959l-8.345-30.439
			c-0.409-1.49,0.468-3.03,1.959-3.439v0c1.49-0.409,3.03,0.468,3.439,1.959l8.345,30.439
			C164.416,92.834,163.539,94.373,162.049,94.782z"/>
	</g>
	<g>
		
			<rect x="158.239" y="102.153" transform="matrix(0.9644 -0.2644 0.2644 0.9644 -21.8352 47.2995)" class="st4" width="13.091" height="5.216"/>
	</g>
	<g>
		<path class="st1" d="M162.391,117.081c-1.779,0-3.414-1.183-3.906-2.979l-16.224-59.174c-0.59-2.154,0.682-4.386,2.834-4.976
			l8.673-2.378c1.042-0.286,2.135-0.149,3.075,0.386c0.939,0.536,1.614,1.404,1.9,2.447l16.224,59.176
			c0.59,2.152-0.68,4.384-2.833,4.976c0,0,0,0-0.001,0l-8.674,2.378C163.103,117.034,162.744,117.081,162.391,117.081z
			 M154.886,51.466l-8.734,2.344l16.19,59.234l8.733-2.343c0.026-0.008,0.042-0.034,0.035-0.06L154.886,51.466z M171.605,112.63
			h0.01H171.605z"/>
	</g>
</g>
</svg>
