<?xml version="1.0" encoding="utf-8"?>
<!-- Generator: Adobe Illustrator 22.1.0, SVG Export Plug-In . SVG Version: 6.00 Build 0)  -->
<svg version="1.1" id="Layer_1" xmlns="http://www.w3.org/2000/svg" xmlns:xlink="http://www.w3.org/1999/xlink" x="0px" y="0px"
	 viewBox="0 0 256 256" style="enable-background:new 0 0 256 256;" xml:space="preserve">
<style type="text/css">
	.st0{fill:#E0EBFC;}
	.st1{fill:#3762CC;}
	.st2{fill:#4671C6;}
	.st3{fill:#6BDDDD;}
	.st4{fill:#F9A7A7;}
	.st5{fill:#A4C9FF;}
	.st6{fill:#FFEA92;}
	.st7{fill:#F9CFCF;}
	.st8{fill:#FFE164;}
	.st9{fill:#FFDC85;}
	.st10{fill:#FFEA94;}
	.st11{fill:#B9BEFC;}
	.st12{fill:#EAA97D;}
</style>
<g>
	<g>
		<path class="st7" d="M79.932,155.259c0,1.421,0,5.544,0,6.99l0.02-0.013l20.851,4.686l20.851-4.686c0-2.549,0-4.425,0-6.992
			C108.622,162.053,92.978,162.064,79.932,155.259z"/>
	</g>
	<g>
		<path class="st1" d="M100.804,168.923c-0.147,0-0.294-0.016-0.438-0.049l-20.703-4.652c-0.233-0.032-0.462-0.105-0.674-0.221
			c-0.645-0.35-1.056-1.018-1.056-1.751v-6.99c0-0.699,0.365-1.348,0.963-1.71c0.6-0.363,1.343-0.386,1.962-0.063
			c12.483,6.513,27.39,6.507,39.871-0.013c0.618-0.324,1.364-0.301,1.962,0.062c0.599,0.362,0.964,1.011,0.964,1.71v6.992
			c0,0.936-0.648,1.746-1.562,1.951l-20.851,4.686C101.098,168.907,100.951,168.923,100.804,168.923z M81.933,160.632l18.871,4.241
			l18.851-4.237v-2.216c-12.013,5.256-25.705,5.262-37.722,0.012V160.632z"/>
	</g>
	<g>
		<path class="st2" d="M156.914,225.189H44.712V192.9c0-13.279,10.765-24.043,24.043-24.043h64.116
			c13.279,0,24.043,10.765,24.043,24.043V225.189z"/>
	</g>
	<g>
		<path class="st1" d="M156.914,227.189H44.712c-1.104,0-2-0.896-2-2V192.9c0-14.36,11.684-26.043,26.044-26.043h64.115
			c14.36,0,26.043,11.683,26.043,26.043v32.289C158.914,226.293,158.019,227.189,156.914,227.189z M46.712,223.189h108.202V192.9
			c0-12.154-9.889-22.043-22.043-22.043H68.756c-12.155,0-22.044,9.889-22.044,22.043V223.189z"/>
	</g>
	<g>
		<path class="st4" d="M160.513,192.528c0-14.565-11.787-25.603-25.563-25.603H66.676c-14.14,0-25.603,11.463-25.603,25.603l0,0
			l59.72,27.92L160.513,192.528z"/>
	</g>
	<g>
		<path class="st1" d="M100.793,222.448c-0.289,0-0.579-0.063-0.847-0.188l-59.72-27.92c-0.704-0.329-1.153-1.036-1.153-1.812
			c0-15.22,12.383-27.603,27.603-27.603h68.275c15.198,0,27.563,12.383,27.563,27.603c0,0.776-0.449,1.483-1.153,1.812
			l-59.721,27.92C101.372,222.386,101.082,222.448,100.793,222.448z M43.106,191.271l57.687,26.969l57.688-26.969
			c-0.654-12.433-10.958-22.346-23.529-22.346H66.676C54.083,168.925,43.762,178.838,43.106,191.271z M160.514,192.528h0.01H160.514
			z"/>
	</g>
	<g>
		<polygon class="st0" points="100.793,166.925 72.563,166.925 100.793,202.922 129.023,166.925 		"/>
	</g>
	<g>
		<path class="st4" d="M100.803,166.938l-7.383,9.413c0.217,1.013,0.014,0.014,1.301,6.461c4.394,0,7.749,0,12.143,0
			c1.311-6.565,1.089-5.471,1.305-6.481L100.803,166.938z"/>
	</g>
	<g>
		<path class="st4" d="M92.94,192.908l7.853,10.014l7.853-10.014l-1.782-10.096c-4.399,0-7.758,0-12.143,0L92.94,192.908z"/>
	</g>
	<g>
		<path class="st1" d="M106.864,184.812H94.722c-0.953,0-1.774-0.673-1.961-1.608l-0.622-3.115c-0.515-2.579-0.514-2.579-0.615-3.05
			l-0.059-0.269c-0.124-0.58,0.016-1.186,0.383-1.653l7.383-9.413c0.379-0.483,0.959-0.766,1.573-0.766l0,0
			c0.614,0,1.194,0.282,1.574,0.766l7.366,9.393c0.365,0.467,0.506,1.072,0.382,1.652l-0.063,0.293
			c-0.095,0.442-0.095,0.442-0.646,3.2l-0.592,2.962C108.639,184.138,107.817,184.812,106.864,184.812z M96.362,180.812h8.862
			l0.27-1.354c0.309-1.544,0.447-2.239,0.526-2.627l-5.217-6.652l-5.233,6.672c0.076,0.375,0.206,1.028,0.491,2.455L96.362,180.812z
			"/>
	</g>
	<g>
		<path class="st1" d="M100.793,204.922c-0.614,0-1.194-0.282-1.574-0.766l-7.854-10.014c-0.351-0.447-0.494-1.022-0.396-1.582
			l1.782-10.097c0.169-0.956,0.999-1.652,1.97-1.652h12.143c0.971,0,1.801,0.697,1.97,1.652l1.782,10.097
			c0.099,0.56-0.045,1.135-0.396,1.582l-7.854,10.014C101.987,204.64,101.407,204.922,100.793,204.922z M95.064,192.376l5.729,7.305
			l5.729-7.305l-1.335-7.565h-8.787L95.064,192.376z"/>
	</g>
	<g>
		<polygon class="st0" points="72.563,166.931 72.568,166.931 86.687,184.935 100.813,166.925 79.952,162.237 		"/>
	</g>
	<g>
		<polygon class="st0" points="121.654,162.237 100.793,166.925 114.909,184.923 129.019,166.931 129.023,166.931 		"/>
	</g>
	<g>
		<path class="st1" d="M100.793,204.922c-0.614,0-1.194-0.282-1.574-0.766L70.989,168.16c-0.472-0.603-0.559-1.421-0.225-2.109
			c0.335-0.688,1.033-1.125,1.799-1.125h56.46c0.766,0,1.464,0.437,1.799,1.125c0.334,0.688,0.247,1.507-0.225,2.109l-28.23,35.997
			C101.987,204.64,101.407,204.922,100.793,204.922z M76.674,168.925l24.119,30.756l24.12-30.756H76.674z"/>
	</g>
	<g>
		<polygon class="st0" points="121.654,162.237 100.793,166.925 114.909,184.923 129.019,166.931 129.023,166.931 		"/>
	</g>
	<g>
		<path class="st1" d="M114.909,186.922c-0.614,0-1.194-0.282-1.573-0.766L99.22,168.16c-0.424-0.54-0.541-1.259-0.311-1.906
			s0.775-1.129,1.445-1.28l20.861-4.688c0.518-0.118,1.064-0.021,1.513,0.264l7.369,4.694c0.75,0.478,1.095,1.393,0.846,2.247
			c-0.085,0.292-0.233,0.554-0.427,0.771l-14.033,17.896C116.104,186.64,115.523,186.922,114.909,186.922z M104.32,168.182
			l10.589,13.5l11.176-14.251l-4.804-3.06L104.32,168.182z"/>
	</g>
	<g>
		<polygon class="st0" points="72.563,166.931 72.568,166.931 86.687,184.935 100.813,166.925 79.952,162.237 		"/>
	</g>
	<g>
		<path class="st1" d="M86.688,186.936L86.688,186.936c-0.614,0-1.194-0.282-1.574-0.766l-14.076-17.95
			c-0.177-0.209-0.313-0.456-0.393-0.731c-0.248-0.854,0.096-1.77,0.847-2.247l7.389-4.694c0.448-0.285,0.99-0.381,1.511-0.263
			l20.861,4.688c0.67,0.15,1.215,0.633,1.445,1.28s0.113,1.366-0.311,1.906l-14.126,18.01
			C87.882,186.653,87.302,186.936,86.688,186.936z M75.503,167.433l11.185,14.262l10.599-13.513l-16.963-3.812L75.503,167.433z"/>
	</g>
	<g>
		<path class="st11" d="M105.535,212.617H10.635c-1.455,0-2.635-1.18-2.635-2.635v-16.687c0-1.455,1.18-2.635,2.635-2.635h94.901
			c1.455,0,2.635,1.18,2.635,2.635v16.687C108.17,211.437,106.991,212.617,105.535,212.617z"/>
	</g>
	<g>
		<path class="st1" d="M105.535,214.617h-94.9c-2.556,0-4.635-2.079-4.635-4.635v-16.687c0-2.556,2.079-4.635,4.635-4.635h94.9
			c2.556,0,4.635,2.079,4.635,4.635v16.687C110.17,212.538,108.091,214.617,105.535,214.617z M10.635,192.66
			c-0.35,0-0.635,0.285-0.635,0.635v16.687c0,0.35,0.285,0.635,0.635,0.635h94.9c0.35,0,0.635-0.285,0.635-0.635v-16.687
			c0-0.35-0.285-0.635-0.635-0.635H10.635z"/>
	</g>
	<g>
		<path class="st7" d="M72.699,184.712c-0.622-1.108-1.793-1.794-3.064-1.794H46.404c-1.275,0-2.45,0.691-3.07,1.805l-3.282,5.897
			c-0.727,1.306-1.108,2.776-1.108,4.271c0,11.616-0.737,16.958,3.325,24.257l0.002,0.003c0.812,1.458,0.598,2.345,0.437,6.044
			h30.618c-0.162-3.71-0.374-4.591,0.437-6.047c4.063-7.3,3.325-12.62,3.325-24.316c0-1.505-0.387-2.984-1.123-4.296L72.699,184.712
			z"/>
	</g>
	<g>
		<path class="st1" d="M73.326,227.194H42.708c-0.546,0-1.067-0.223-1.444-0.617c-0.378-0.394-0.577-0.925-0.554-1.47
			c0.025-0.594,0.053-1.117,0.077-1.581c0.123-2.351,0.117-2.712-0.251-3.382c-0.005-0.008-0.01-0.016-0.015-0.024
			c-3.742-6.724-3.69-11.967-3.605-20.652c0.014-1.415,0.028-2.933,0.028-4.578c0-1.832,0.471-3.646,1.361-5.244l3.281-5.897
			c0.973-1.747,2.818-2.832,4.817-2.832h23.231c1.992,0,3.834,1.079,4.808,2.816l3.266,5.822c0.902,1.608,1.379,3.432,1.379,5.275
			c0,1.657,0.015,3.186,0.028,4.609c0.085,8.703,0.136,13.955-3.605,20.68c-0.381,0.684-0.388,1.027-0.264,3.413
			c0.024,0.463,0.052,0.983,0.077,1.574c0.023,0.545-0.176,1.076-0.554,1.47C74.394,226.972,73.872,227.194,73.326,227.194z
			 M44.81,223.194h26.415c-0.109-2.201-0.101-3.419,0.791-5.02c3.227-5.798,3.185-10.108,3.102-18.695
			c-0.015-1.436-0.029-2.978-0.029-4.648c0-1.159-0.3-2.307-0.867-3.318l-3.266-5.822c0,0,0,0-0.001-0.001
			c-0.267-0.476-0.771-0.772-1.318-0.772H46.404c-0.549,0-1.055,0.298-1.322,0.777l-3.281,5.897
			c-0.561,1.005-0.856,2.146-0.856,3.298c0,1.658-0.015,3.189-0.029,4.617c-0.083,8.556-0.125,12.857,3.089,18.644
			c0.005,0.009,0.01,0.018,0.016,0.027C44.911,219.78,44.919,220.997,44.81,223.194z"/>
	</g>
	<g>
		<path class="st2" d="M145.642,94.796v4.201c4.652-0.094,8.72,2.092,11.251,5.46c0.63-2.737,0.461-1.547,0.461-31.011h-17.219
			C143.644,79.784,145.642,87.058,145.642,94.796z"/>
	</g>
	<g>
		<path class="st1" d="M156.894,106.457c-0.621,0-1.217-0.29-1.599-0.798c-2.286-3.041-5.805-4.729-9.612-4.662
			c-0.485,0.022-1.056-0.195-1.439-0.571c-0.384-0.376-0.601-0.891-0.601-1.429v-4.201c0-7.121-1.817-14.168-5.257-20.381
			c-0.343-0.62-0.332-1.375,0.027-1.984s1.015-0.984,1.723-0.984h17.219c1.104,0,2,0.896,2,2c0,6.25,0.008,11.121,0.014,14.942
			c0.022,14.144,0.022,14.144-0.497,16.395l-0.028,0.122c-0.175,0.758-0.772,1.346-1.534,1.508
			C157.171,106.443,157.031,106.457,156.894,106.457z M147.643,97.089c2.804,0.31,5.466,1.366,7.702,3.034
			c0.038-2.008,0.033-5.41,0.023-11.728c-0.006-3.405-0.012-7.644-0.014-12.949H143.39c2.79,6.042,4.253,12.667,4.253,19.35V97.089z
			"/>
	</g>
	<g>
		<path class="st7" d="M145.642,98.997v-4.201c0-24.554-20.086-44.458-44.863-44.458l0,0c-24.777,0-44.863,19.905-44.863,44.458
			v4.201c-7.79-0.158-13.97,6.048-13.97,13.549c0,8.01,6.993,14.346,15.155,13.483c4.63,19.67,22.422,34.324,43.678,34.324
			c21.257,0,39.048-14.656,43.678-34.324c8.151,0.862,15.155-5.462,15.155-13.483C159.613,105.042,153.428,98.839,145.642,98.997z"
			/>
	</g>
	<g>
		<path class="st1" d="M100.789,139.337c-3.278,0-6.332-1.183-8.379-3.246c-1.563-1.575-2.423-3.565-2.423-5.602
			c0-1.104,0.896-2,2-2s2,0.896,2,2c0,0.989,0.437,1.952,1.263,2.785c1.282,1.292,3.354,2.063,5.54,2.063
			c2.2,0,4.207-0.752,5.508-2.063c0.826-0.833,1.263-1.796,1.263-2.785c0-1.104,0.896-2,2-2s2,0.896,2,2
			c0,2.037-0.86,4.027-2.423,5.602c-2.046,2.063-5.088,3.246-8.347,3.247C100.79,139.337,100.79,139.337,100.789,139.337z"/>
	</g>
	<g>
		<path class="st1" d="M124.071,122.751L124.071,122.751c-3.48,0-6.3-2.821-6.3-6.3v-6.72c0-3.48,2.821-6.3,6.3-6.3h0
			c3.48,0,6.3,2.821,6.3,6.3v6.72C130.371,119.93,127.55,122.751,124.071,122.751z"/>
	</g>
	<g>
		<path class="st1" d="M77.477,122.751L77.477,122.751c-3.48,0-6.3-2.821-6.3-6.3v-6.72c0-3.48,2.821-6.3,6.3-6.3h0
			c3.48,0,6.3,2.821,6.3,6.3v6.72C83.778,119.93,80.957,122.751,77.477,122.751z"/>
	</g>
	<g>
		<path class="st1" d="M100.779,162.354c-21.328,0-39.685-13.999-45.212-34.248c-3.856-0.019-7.596-1.443-10.471-4.03
			c-3.273-2.945-5.15-7.148-5.15-11.53c0-4.194,1.657-8.128,4.666-11.077c2.545-2.493,5.793-4.013,9.305-4.385v-2.288
			c0-25.617,21.022-46.458,46.862-46.458c25.841,0,46.863,20.841,46.863,46.458v2.288c3.512,0.372,6.76,1.892,9.305,4.386
			c3.009,2.949,4.666,6.882,4.666,11.077c0,4.382-1.877,8.584-5.149,11.529c-2.876,2.588-6.616,4.012-10.472,4.031
			C140.466,148.355,122.108,162.354,100.779,162.354z M57.104,124.03c0.917,0,1.73,0.631,1.945,1.542
			c4.543,19.302,21.703,32.782,41.729,32.782c20.028,0,37.188-13.48,41.73-32.782c0.23-0.981,1.172-1.641,2.157-1.531
			c3.333,0.352,6.654-0.719,9.121-2.939c2.431-2.187,3.825-5.305,3.825-8.555c0-3.11-1.23-6.029-3.466-8.22
			c-2.257-2.212-5.264-3.396-8.465-3.33c-0.485,0.022-1.056-0.195-1.439-0.571c-0.384-0.376-0.601-0.891-0.601-1.429v-4.201
			c0-23.412-19.229-42.458-42.863-42.458S57.917,71.385,57.917,94.796v4.201c0,0.538-0.217,1.052-0.601,1.428
			c-0.374,0.367-0.877,0.572-1.399,0.572c-0.014,0-0.027,0-0.04,0c-3.209-0.06-6.208,1.118-8.465,3.33
			c-2.235,2.19-3.466,5.109-3.466,8.22c0,3.25,1.395,6.369,3.826,8.557c2.502,2.251,5.742,3.295,9.12,2.938
			C56.963,124.033,57.034,124.03,57.104,124.03z"/>
	</g>
	<g>
		<path class="st1" d="M100.779,162.354c-21.328,0-39.685-13.999-45.212-34.248c-3.856-0.019-7.596-1.443-10.471-4.03
			c-3.273-2.945-5.15-7.148-5.15-11.53c0-4.194,1.657-8.128,4.666-11.077c2.545-2.493,5.793-4.013,9.305-4.385v-2.288
			c0-25.617,21.022-46.458,46.862-46.458c25.841,0,46.863,20.841,46.863,46.458v2.288c3.512,0.372,6.76,1.892,9.305,4.386
			c3.009,2.949,4.666,6.882,4.666,11.077c0,4.382-1.877,8.584-5.149,11.529c-2.876,2.588-6.616,4.012-10.472,4.031
			C140.466,148.355,122.108,162.354,100.779,162.354z M57.104,124.03c0.917,0,1.73,0.631,1.945,1.542
			c4.543,19.302,21.703,32.782,41.729,32.782c20.028,0,37.188-13.48,41.73-32.782c0.23-0.981,1.172-1.641,2.157-1.531
			c3.333,0.352,6.654-0.719,9.121-2.939c2.431-2.187,3.825-5.305,3.825-8.555c0-3.11-1.23-6.029-3.466-8.22
			c-2.257-2.212-5.264-3.396-8.465-3.33c-0.485,0.022-1.056-0.195-1.439-0.571c-0.384-0.376-0.601-0.891-0.601-1.429v-4.201
			c0-23.412-19.229-42.458-42.863-42.458S57.917,71.385,57.917,94.796v4.201c0,0.538-0.217,1.052-0.601,1.428
			c-0.374,0.367-0.877,0.572-1.399,0.572c-0.014,0-0.027,0-0.04,0c-3.209-0.06-6.208,1.118-8.465,3.33
			c-2.235,2.19-3.466,5.109-3.466,8.22c0,3.25,1.395,6.369,3.826,8.557c2.502,2.251,5.742,3.295,9.12,2.938
			C56.963,124.033,57.034,124.03,57.104,124.03z"/>
	</g>
	<g>
		<path class="st1" d="M100.779,162.354c-21.328,0-39.685-13.999-45.212-34.248c-3.856-0.019-7.596-1.443-10.471-4.03
			c-3.273-2.945-5.15-7.148-5.15-11.53c0-4.194,1.657-8.128,4.666-11.077c2.545-2.493,5.793-4.013,9.305-4.385v-2.288
			c0-25.617,21.022-46.458,46.862-46.458c25.841,0,46.863,20.841,46.863,46.458v2.288c3.512,0.372,6.76,1.892,9.305,4.386
			c3.009,2.949,4.666,6.882,4.666,11.077c0,4.382-1.877,8.584-5.149,11.529c-2.876,2.588-6.616,4.012-10.472,4.031
			C140.466,148.355,122.108,162.354,100.779,162.354z M57.104,124.03c0.917,0,1.73,0.631,1.945,1.542
			c4.543,19.302,21.703,32.782,41.729,32.782c20.028,0,37.188-13.48,41.73-32.782c0.23-0.981,1.172-1.641,2.157-1.531
			c3.333,0.352,6.654-0.719,9.121-2.939c2.431-2.187,3.825-5.305,3.825-8.555c0-3.11-1.23-6.029-3.466-8.22
			c-2.257-2.212-5.264-3.396-8.465-3.33c-0.485,0.022-1.056-0.195-1.439-0.571c-0.384-0.376-0.601-0.891-0.601-1.429v-4.201
			c0-23.412-19.229-42.458-42.863-42.458S57.917,71.385,57.917,94.796v4.201c0,0.538-0.217,1.052-0.601,1.428
			c-0.374,0.367-0.877,0.572-1.399,0.572c-0.014,0-0.027,0-0.04,0c-3.209-0.06-6.208,1.118-8.465,3.33
			c-2.235,2.19-3.466,5.109-3.466,8.22c0,3.25,1.395,6.369,3.826,8.557c2.502,2.251,5.742,3.295,9.12,2.938
			C56.963,124.033,57.034,124.03,57.104,124.03z"/>
	</g>
	<g>
		<path class="st2" d="M61.424,73.446H44.19c-0.001,0-0.002,0-0.003,0v4.742h0.003c0,4.565,0,17.673,0,22.327
			c0,1.363,0.171,2.683,0.465,3.957c2.529-3.376,6.602-5.569,11.262-5.474c0-6.444,0.003-3.656,0.023-4.912
			c7.209,2.619,6.465,2.021,61.674,2.021c12.374,0,23.137-6.899,28.653-17.059c0-2.089,0-3.523,0-5.601
			C135.391,73.446,88.511,73.446,61.424,73.446z"/>
	</g>
	<g>
		<path class="st1" d="M44.655,106.472c-0.137,0-0.275-0.014-0.412-0.043c-0.762-0.161-1.36-0.748-1.536-1.506
			c-0.344-1.482-0.518-2.965-0.518-4.408l-0.002-27.068c0-0.531,0.21-1.04,0.586-1.415c0.375-0.375,0.884-0.586,1.414-0.586h102.08
			c1.104,0,2,0.896,2,2v5.602c0,0.333-0.083,0.661-0.242,0.954c-6.063,11.168-17.717,18.105-30.411,18.105
			c-10.22,0-18.521,0.021-25.312,0.037c-25.484,0.063-29.914,0.073-34.386-1.271c0,0.562,0,1.258,0,2.123
			c0,0.538-0.216,1.052-0.601,1.428c-0.374,0.367-0.877,0.572-1.399,0.572c-0.014,0-0.027,0-0.04,0
			c-3.849-0.064-7.338,1.627-9.621,4.674C45.874,106.181,45.277,106.472,44.655,106.472z M46.188,75.446l-0.001,2.743l0.002,21.952
			c2.241-1.678,4.913-2.742,7.729-3.052c0.002-1.548,0.009-2.322,0.038-2.756l-0.021-0.001l0.006-0.278
			c0.011-0.646,0.333-1.248,0.866-1.615s1.21-0.453,1.816-0.232c5.49,1.994,5.824,2.011,35.67,1.938
			c6.793-0.017,15.098-0.037,25.321-0.037c11.061,0,21.227-5.955,26.653-15.576v-3.085H46.188z"/>
	</g>
	<g>
		<path class="st6" d="M190.861,86.738c0-14.564,0-25.903,0-38.72c-0.016,0.007-0.029,0.016-0.046,0.022l-3.837,1.474
			c0,12.719,0,29.064,0,37.224c-1.382,0.707-2.329,2.142-2.329,3.801v10.225h8.542V90.539
			C193.191,88.88,192.243,87.445,190.861,86.738z"/>
	</g>
	<g>
		<path class="st2" d="M95.283,8.508L10.375,41.125c-3.167,1.217-3.167,5.698,0,6.914l84.908,32.618
			c3.42,1.314,7.205,1.314,10.625,0l84.908-32.618c3.167-1.217,3.167-5.698,0-6.914L105.908,8.508
			C102.488,7.194,98.703,7.194,95.283,8.508z"/>
	</g>
	<g>
		<path class="st1" d="M100.596,83.645c-2.043,0-4.085-0.374-6.03-1.121L9.658,49.907C7.436,49.053,6,46.963,6,44.583
			c0-2.381,1.436-4.471,3.657-5.324L94.566,6.641c3.887-1.493,8.171-1.494,12.06,0l84.906,32.617
			c2.223,0.854,3.658,2.944,3.658,5.325c0,2.38-1.436,4.47-3.658,5.324l-84.907,32.618
			C104.682,83.271,102.639,83.645,100.596,83.645z M100.596,9.521c-1.557,0-3.113,0.285-4.595,0.854c-0.001,0-0.001,0-0.001,0
			L11.092,42.993C10.078,43.382,10,44.308,10,44.583c0,0.274,0.078,1.2,1.092,1.589L96,78.79c2.965,1.139,6.228,1.139,9.19,0
			l84.908-32.618c1.014-0.389,1.092-1.315,1.092-1.589c0-0.275-0.078-1.201-1.093-1.59l-84.906-32.618
			C103.709,9.806,102.152,9.521,100.596,9.521z M95.283,8.508h0.01H95.283z"/>
	</g>
	<g>
		<path class="st1" d="M100.596,83.645c-2.043,0-4.085-0.374-6.03-1.121L9.658,49.907C7.436,49.053,6,46.963,6,44.583
			c0-2.381,1.436-4.471,3.657-5.324L94.566,6.641c3.887-1.493,8.171-1.494,12.06,0l84.906,32.617
			c2.223,0.854,3.658,2.944,3.658,5.325c0,2.38-1.436,4.47-3.658,5.324l-84.907,32.618
			C104.682,83.271,102.639,83.645,100.596,83.645z M100.596,9.521c-1.557,0-3.113,0.285-4.595,0.854c-0.001,0-0.001,0-0.001,0
			L11.092,42.993C10.078,43.382,10,44.308,10,44.583c0,0.274,0.078,1.2,1.092,1.589L96,78.79c2.965,1.139,6.228,1.139,9.19,0
			l84.908-32.618c1.014-0.389,1.092-1.315,1.092-1.589c0-0.275-0.078-1.201-1.093-1.59l-84.906-32.618
			C103.709,9.806,102.152,9.521,100.596,9.521z M95.283,8.508h0.01H95.283z"/>
	</g>
	<g>
		<path class="st2" d="M153.817,49.284H47.726c-1.955,0-3.539,1.584-3.539,3.539v20.624h0c0,5.379,25.333,9.74,56.584,9.74
			c31.25,0,56.584-4.361,56.584-9.74h0.001V52.823C157.356,50.868,155.771,49.284,153.817,49.284z"/>
	</g>
	<g>
		<path class="st1" d="M100.771,85.187c-2.392,0-58.583-0.133-58.583-11.74V52.823c0-3.055,2.484-5.54,5.539-5.54h106.09
			c3.055,0,5.539,2.485,5.539,5.54v20.624C159.354,85.053,103.162,85.187,100.771,85.187z M47.727,51.283
			c-0.849,0-1.539,0.69-1.539,1.54v20.624c0.968,2.736,20.045,7.74,54.583,7.74c34.539,0,53.616-5.004,54.593-7.806l-0.008-20.558
			c0-0.849-0.69-1.54-1.539-1.54H47.727z"/>
	</g>
	<g>
		<circle class="st11" cx="198" cy="198.478" r="50"/>
	</g>
	<g>
		<path class="st6" d="M198,235.566c-20.45,0-37.089-16.638-37.089-37.088S177.55,161.389,198,161.389s37.087,16.637,37.087,37.088
			S218.45,235.566,198,235.566z"/>
	</g>
	<g>
		<path class="st1" d="M198,250.478c-28.673,0-52-23.327-52-52s23.327-52,52-52s52,23.327,52,52S226.673,250.478,198,250.478z
			 M198,150.478c-26.468,0-48,21.533-48,48s21.532,48,48,48s48-21.533,48-48S224.468,150.478,198,150.478z"/>
	</g>
	<g>
		<path class="st2" d="M188.305,183.857c-0.42-0.107-0.932-0.162-1.521-0.162h-4.486c-0.666,0-1.211,0.187-1.62,0.555
			c-0.423,0.381-0.638,0.869-0.638,1.45c0,0.897,0.441,1.345,0.813,1.563c0.46,0.27,1.09,0.401,1.924,0.401h2.563v2.367
			c-0.702,0.359-1.403,0.644-2.087,0.848c-0.752,0.225-1.57,0.338-2.433,0.338c-1.743,0-3.059-0.548-4.019-1.675
			c-0.968-1.135-1.459-2.804-1.459-4.961c0-1,0.129-1.922,0.384-2.741c0.249-0.801,0.61-1.483,1.075-2.028
			c0.457-0.538,1.018-0.954,1.663-1.237c0.652-0.286,1.409-0.431,2.249-0.431c0.811,0,1.477,0.119,1.979,0.353
			c0.505,0.235,0.908,0.523,1.197,0.859c0.318,0.368,0.721,0.931,1.215,1.701c0.223,0.301,0.504,0.539,0.834,0.708
			c0.332,0.168,0.684,0.254,1.045,0.254c0.646,0,1.207-0.223,1.67-0.664c0.47-0.448,0.708-0.997,0.708-1.634
			c0-0.542-0.182-1.155-0.539-1.821c-0.347-0.646-0.866-1.264-1.542-1.836c-0.674-0.57-1.556-1.046-2.622-1.416
			c-1.061-0.367-2.289-0.553-3.652-0.553c-1.649,0-3.15,0.246-4.461,0.73c-1.321,0.488-2.461,1.206-3.388,2.132
			c-0.928,0.928-1.639,2.069-2.114,3.394c-0.47,1.307-0.708,2.766-0.708,4.336c0,1.598,0.245,3.067,0.729,4.368
			c0.488,1.313,1.201,2.447,2.117,3.373c0.918,0.926,2.04,1.642,3.336,2.126c1.284,0.48,2.723,0.724,4.275,0.724
			c1.325,0,2.569-0.154,3.698-0.457c1.124-0.302,2.308-0.787,3.517-1.441c0.442-0.24,0.813-0.497,1.104-0.763
			c0.324-0.297,0.552-0.64,0.676-1.018c0.116-0.351,0.172-0.792,0.172-1.348v-3.741c0-0.787-0.145-1.377-0.442-1.804
			C189.212,184.271,188.804,183.985,188.305,183.857z"/>
	</g>
	<g>
		<path class="st2" d="M208.123,178.083c-0.33-0.814-0.82-1.513-1.458-2.078c-0.636-0.563-1.398-0.971-2.264-1.211
			c-0.86-0.246-2.037-0.365-3.599-0.365h-5.072c-0.997,0-1.752,0.233-2.245,0.693c-0.503,0.469-0.758,1.219-0.758,2.229v15.044
			c0,0.905,0.227,1.616,0.674,2.112c0.461,0.512,1.069,0.771,1.81,0.771c0.711,0,1.31-0.261,1.78-0.775
			c0.458-0.501,0.69-1.219,0.69-2.135v-5.025h3.121c2.532,0,4.481-0.557,5.793-1.654c1.337-1.12,2.016-2.77,2.016-4.903
			C208.611,179.793,208.447,178.884,208.123,178.083z M197.682,178.397h2.162c2.017,0,2.824,0.39,3.137,0.707
			c0.42,0.45,0.624,1.026,0.624,1.762c0,0.606-0.133,1.092-0.396,1.447c-0.266,0.359-0.65,0.614-1.178,0.778
			c-0.573,0.179-1.31,0.27-2.188,0.27h-2.162V178.397z"/>
	</g>
	<g>
		<path class="st2" d="M225.59,190.691l-5.096-12.585c-0.242-0.635-0.44-1.143-0.598-1.523c-0.167-0.406-0.376-0.793-0.623-1.152
			c-0.269-0.389-0.624-0.711-1.058-0.956c-0.442-0.251-0.989-0.378-1.624-0.378c-0.626,0-1.168,0.127-1.61,0.378
			c-0.436,0.247-0.793,0.575-1.063,0.976c-0.244,0.366-0.476,0.825-0.688,1.368l-5.503,13.98c-0.21,0.522-0.361,0.93-0.453,1.222
			c-0.103,0.331-0.155,0.658-0.155,0.975c0,0.602,0.245,1.141,0.727,1.6c0.476,0.454,1.035,0.685,1.663,0.685
			c0.748,0,1.308-0.239,1.665-0.712c0.289-0.384,0.616-1.072,1.001-2.103l0.811-2.177h7.243l0.813,2.14
			c0.126,0.305,0.276,0.658,0.451,1.056c0.191,0.437,0.371,0.76,0.552,0.989c0.195,0.247,0.44,0.445,0.728,0.589
			c0.291,0.146,0.635,0.219,1.022,0.219c0.667,0,1.245-0.24,1.718-0.712c0.473-0.474,0.713-1.011,0.713-1.599
			C226.226,192.463,226.017,191.716,225.59,190.691z M214.388,186.317l2.182-6.085l2.224,6.085H214.388z"/>
	</g>
	<g>
		<path class="st2" d="M191.419,212.71c-0.361-0.365-0.784-0.703-1.263-1.01c0.512-0.492,0.928-0.999,1.241-1.514
			c0.433-0.711,0.652-1.567,0.652-2.543c0-0.744-0.149-1.45-0.444-2.098c-0.296-0.651-0.739-1.229-1.316-1.719
			c-0.572-0.483-1.251-0.857-2.017-1.111c-0.759-0.251-1.605-0.378-2.515-0.378c-1.037,0-1.993,0.15-2.841,0.447
			c-0.854,0.298-1.582,0.704-2.165,1.205c-0.578,0.497-1.028,1.034-1.337,1.597c-0.319,0.583-0.48,1.154-0.48,1.698
			c0,0.618,0.201,1.125,0.598,1.51c0.393,0.381,0.839,0.574,1.327,0.574c0.372,0,0.711-0.069,1.009-0.206
			c0.337-0.156,0.579-0.384,0.727-0.693c0.15-0.343,0.314-0.707,0.495-1.095c0.164-0.353,0.336-0.639,0.512-0.852
			c0.152-0.185,0.369-0.339,0.644-0.458c0.286-0.123,0.67-0.186,1.141-0.186c0.662,0,1.166,0.191,1.542,0.584
			c0.382,0.4,0.567,0.864,0.567,1.419c0,0.745-0.229,1.292-0.701,1.675c-0.502,0.409-1.089,0.607-1.795,0.607h-0.546
			c-0.745,0-1.331,0.17-1.741,0.506c-0.433,0.355-0.662,0.846-0.662,1.418c0,0.579,0.189,1.046,0.562,1.387
			c0.36,0.33,0.855,0.498,1.47,0.498c0.113,0,0.368-0.018,0.767-0.056c0.352-0.033,0.609-0.051,0.777-0.051
			c0.878,0,1.535,0.24,2.01,0.732c0.479,0.499,0.712,1.184,0.712,2.096c0,0.612-0.139,1.13-0.423,1.585
			c-0.288,0.461-0.64,0.798-1.075,1.028c-0.441,0.234-0.885,0.348-1.356,0.348c-0.815,0-1.423-0.238-1.855-0.729
			c-0.484-0.549-0.952-1.422-1.388-2.584c-0.108-0.312-0.329-0.576-0.656-0.783c-0.312-0.197-0.644-0.297-0.987-0.297
			c-0.626,0-1.16,0.205-1.588,0.61c-0.435,0.412-0.655,0.953-0.655,1.608c0,0.476,0.151,1.041,0.464,1.725
			c0.302,0.66,0.749,1.305,1.331,1.915c0.588,0.617,1.342,1.136,2.239,1.542c0.905,0.41,1.938,0.617,3.069,0.617
			c1.104,0,2.129-0.179,3.049-0.533c0.921-0.354,1.729-0.854,2.405-1.487c0.677-0.634,1.198-1.369,1.548-2.184
			c0.35-0.813,0.527-1.668,0.527-2.541c0-0.736-0.134-1.435-0.397-2.075C192.334,213.824,191.938,213.234,191.419,212.71z"/>
	</g>
	<g>
		<path class="st2" d="M197.98,218.274c-0.697,0-1.292,0.248-1.769,0.736c-0.475,0.486-0.716,1.074-0.716,1.748
			c0,0.785,0.258,1.412,0.768,1.865c0.492,0.438,1.083,0.659,1.757,0.659c0.659,0,1.24-0.226,1.727-0.669
			c0.502-0.456,0.757-1.08,0.757-1.854c0-0.688-0.25-1.281-0.743-1.762C199.271,218.517,198.673,218.274,197.98,218.274z"/>
	</g>
	<g>
		<path class="st2" d="M217.369,214.533c-0.278-0.688-0.696-1.302-1.243-1.825c-0.331-0.316-0.716-0.596-1.149-0.838
			c0.559-0.386,1.01-0.839,1.348-1.355c0.501-0.764,0.755-1.64,0.755-2.604c0-0.748-0.144-1.465-0.426-2.132
			c-0.284-0.671-0.725-1.281-1.31-1.813c-0.58-0.527-1.31-0.944-2.17-1.241c-0.849-0.292-1.839-0.44-2.945-0.44
			c-1.324,0-2.504,0.255-3.507,0.759c-1.017,0.511-1.801,1.207-2.331,2.068c-0.53,0.863-0.8,1.795-0.8,2.772
			c0,1.715,0.718,3.055,2.137,3.996c-1.852,1.031-2.789,2.692-2.789,4.951c0,1.203,0.292,2.308,0.868,3.283
			c0.58,0.982,1.448,1.762,2.58,2.318c1.111,0.546,2.457,0.823,4.001,0.823c1.491,0,2.811-0.277,3.922-0.823
			c1.13-0.555,2.003-1.339,2.593-2.331c0.585-0.983,0.882-2.093,0.882-3.297C217.784,215.979,217.645,215.214,217.369,214.533z
			 M212.329,206.918c0.194,0.343,0.288,0.725,0.288,1.166c0,0.323-0.055,0.62-0.161,0.881c-0.108,0.263-0.256,0.481-0.451,0.669
			c-0.195,0.188-0.435,0.338-0.713,0.447c-0.281,0.11-0.604,0.166-0.957,0.166c-0.698,0-1.247-0.201-1.678-0.614
			c-0.425-0.406-0.632-0.904-0.632-1.522c0-0.687,0.203-1.228,0.622-1.653c0.416-0.423,0.96-0.629,1.661-0.629
			c0.461,0,0.871,0.099,1.219,0.295C211.876,206.318,212.138,206.579,212.329,206.918z M207.958,218.315
			c-0.247-0.452-0.372-0.987-0.372-1.591c0-0.952,0.252-1.663,0.77-2.174c0.521-0.512,1.15-0.761,1.926-0.761
			c0.561,0,1.05,0.116,1.495,0.354c0.433,0.231,0.758,0.553,0.996,0.985c0.242,0.438,0.364,0.967,0.364,1.569
			c0,0.605-0.124,1.144-0.367,1.602c-0.242,0.454-0.564,0.795-0.984,1.042c-0.423,0.249-0.889,0.37-1.424,0.37
			c-0.527,0-0.99-0.12-1.413-0.365C208.528,219.104,208.204,218.766,207.958,218.315z"/>
	</g>
</g>
</svg>
