<?xml version="1.0" encoding="utf-8"?>
<!-- Generator: Adobe Illustrator 22.1.0, SVG Export Plug-In . SVG Version: 6.00 Build 0)  -->
<svg version="1.1" id="Layer_1" xmlns="http://www.w3.org/2000/svg" xmlns:xlink="http://www.w3.org/1999/xlink" x="0px" y="0px"
	 viewBox="0 0 256 256" style="enable-background:new 0 0 256 256;" xml:space="preserve">
<style type="text/css">
	.st0{fill:#E0EBFC;}
	.st1{fill:#3762CC;}
	.st2{fill:#4671C6;}
	.st3{fill:#6BDDDD;}
	.st4{fill:#F9A7A7;}
	.st5{fill:#A4C9FF;}
	.st6{fill:#FFEA92;}
	.st7{fill:#F9CFCF;}
	.st8{fill:#FFE164;}
	.st9{fill:#FFDC85;}
	.st10{fill:#FFEA94;}
	.st11{fill:#B9BEFC;}
	.st12{fill:#EAA97D;}
</style>
<g>
	<g>
		<path class="st3" d="M240,195.559H16c-4.418,0-8-3.582-8-8v-154c0-4.418,3.582-8,8-8h224c4.418,0,8,3.582,8,8v154
			C248,191.977,244.418,195.559,240,195.559z"/>
	</g>
	<g>
		<path class="st0" d="M20.2,179.11V42.007c0-2.209,1.791-4,4-4h207.6c2.209,0,4,1.791,4,4V179.11c0,2.209-1.791,4-4,4H24.2
			C21.991,183.11,20.2,181.32,20.2,179.11z"/>
	</g>
	<g>
		<path class="st1" d="M240,197.559H16c-5.514,0-10-4.486-10-10v-154c0-5.514,4.486-10,10-10h224c5.514,0,10,4.486,10,10v154
			C250,193.072,245.514,197.559,240,197.559z M16,27.559c-3.309,0-6,2.691-6,6v154c0,3.309,2.691,6,6,6h224c3.309,0,6-2.691,6-6
			v-154c0-3.309-2.691-6-6-6H16z"/>
	</g>
	<g>
		<path class="st6" d="M172.949,107.734c0-7.891,0-13.978,0-20.981l-2.033,0.781c0,6.75,0,15.772,0,20.2
			c-0.724,0.37-1.22,1.122-1.22,1.99v5.353h4.472v-5.353C174.169,108.855,173.673,108.104,172.949,107.734z"/>
	</g>
	<g>
		<path class="st2" d="M125.351,67.028L83.015,83.292c-1.579,0.607-1.579,2.841,0,3.448l42.336,16.264
			c1.705,0.655,3.592,0.655,5.298,0l42.336-16.264c1.579-0.607,1.579-2.841,0-3.448l-42.336-16.264
			C128.944,66.373,127.056,66.373,125.351,67.028z"/>
	</g>
	<g>
		<path class="st1" d="M128,105.495c-1.141,0-2.281-0.208-3.366-0.625L82.298,88.606c-1.499-0.576-2.467-1.985-2.467-3.591
			s0.968-3.015,2.467-3.591l42.335-16.264c2.171-0.835,4.562-0.834,6.732,0l42.336,16.264c1.499,0.576,2.467,1.985,2.467,3.591
			s-0.968,3.015-2.467,3.591l-42.335,16.264C130.281,105.287,129.14,105.495,128,105.495z M84.105,85.016l41.963,16.12
			c1.246,0.479,2.617,0.479,3.863,0l41.963-16.12l-41.963-16.12c-1.246-0.479-2.617-0.479-3.863,0l0,0L84.105,85.016z
			 M125.351,67.028h0.01H125.351z"/>
	</g>
	<g>
		<path class="st2" d="M154.031,87.854h-51.887c-0.475,0-0.859,0.385-0.859,0.859v12.811c0,2.828,12,5.12,26.803,5.12
			s26.803-2.292,26.803-5.12h0.001V88.713C154.891,88.239,154.506,87.854,154.031,87.854z"/>
	</g>
	<g>
		<path class="st1" d="M128.087,108.645c-4.81,0-28.803-0.344-28.803-7.12V88.713c0-1.577,1.283-2.859,2.859-2.859h51.887
			c1.577,0,2.859,1.282,2.859,2.859v12.812C156.89,108.302,132.897,108.645,128.087,108.645z M103.285,101.185
			c1.453,1.245,9.957,3.46,24.803,3.46s23.35-2.215,24.803-3.46l0-11.331h-49.606V101.185z M154.031,89.854h0.01H154.031z"/>
	</g>
	<g>
		<path class="st4" d="M128,44.564c-23.165,0.05-44.143,6.965-59.312,18.089c-2.961,2.172-2.592,6.705,0.681,8.371l0,0
			c1.659,0.844,3.643,0.673,5.146-0.426C87.959,60.771,106.953,54.612,128,54.564c21.047,0.049,40.041,6.207,53.484,16.034
			c1.503,1.098,3.487,1.27,5.146,0.426l0,0c3.273-1.665,3.643-6.199,0.681-8.371C172.142,51.529,151.165,44.614,128,44.564z"/>
	</g>
	<g>
		<path class="st4" d="M170.5,162.806h-85c-2.761,0-5-2.239-5-5l0,0c0-2.761,2.239-5,5-5h85c2.761,0,5,2.239,5,5l0,0
			C175.5,160.568,173.261,162.806,170.5,162.806z"/>
	</g>
	<g>
		<path class="st3" d="M88.529,125.212c-3.429-0.465-6.722-1.333-9.838-2.546c0.324-1.308-0.31-3.465-1.742-5.51
			c-1.887-2.695-4.435-4.166-5.691-3.287c-1.076,0.753-0.847,2.988,0.424,5.307c-6.098-3.758-11.181-8.971-14.799-15.114
			c1.089-0.759,2.156-2.496,2.737-4.666c0.851-3.177,0.341-6.075-1.14-6.472c-1.481-0.397-3.372,1.857-4.223,5.035
			c-0.049,0.183-0.092,0.364-0.132,0.545c-2.098-5.104-3.261-10.663-3.261-16.45c0-1.037-0.841-1.878-1.878-1.878
			s-1.878,0.841-1.878,1.878c0,1.926,0.129,3.827,0.358,5.701c-0.453-0.359-0.956-0.704-1.503-1.02
			c-2.849-1.645-5.78-1.902-6.546-0.574s0.921,3.738,3.77,5.382c1.932,1.115,3.884,1.575,5.191,1.353
			c1.72,7.25,5.131,13.897,9.804,19.481c-2.996-0.688-5.643-0.161-6.021,1.25c-0.397,1.481,1.857,3.372,5.035,4.224
			c2.535,0.679,4.887,0.489,5.938-0.366c6.804,6.031,15.369,10.156,24.891,11.449c0.086,0.011,0.171,0.017,0.255,0.017
			c0.925,0,1.731-0.683,1.858-1.625C90.276,126.298,89.556,125.352,88.529,125.212z"/>
	</g>
	<g>
		<path class="st3" d="M216.641,99.766c-0.648-1.39-3.59-1.39-6.571,0c-0.183,0.085-0.362,0.174-0.536,0.266
			c2.308-5.573,3.587-11.65,3.587-17.978c0-1.037-0.841-1.878-1.878-1.878s-1.878,0.841-1.878,1.878
			c0,1.777-0.119,3.531-0.331,5.259c-0.379-0.539-0.821-1.081-1.341-1.6c-2.326-2.326-5.091-3.333-6.175-2.248
			c-1.084,1.084-0.078,3.849,2.248,6.175c1.458,1.458,3.089,2.397,4.37,2.627c-1.513,6.223-4.371,11.965-8.27,16.866
			c0.397-2.607-0.157-4.775-1.423-5.114c-1.481-0.397-3.372,1.857-4.223,5.034c-0.643,2.399-0.508,4.637,0.233,5.761
			c-6.237,5.475-14.062,9.218-22.753,10.397c-1.028,0.14-1.748,1.085-1.608,2.113c0.127,0.942,0.933,1.625,1.857,1.625
			c0.084,0,0.17-0.005,0.255-0.017c3.704-0.503,7.261-1.437,10.629-2.742c0.698,1.161,2.841,2.142,5.451,2.37
			c3.277,0.287,6.042-0.719,6.175-2.247c0.126-1.444-2.144-2.835-5.161-3.226c7.279-4.194,13.314-10.258,17.488-17.489
			c1.25,0.49,3.426,0.227,5.629-0.8C215.398,103.409,217.289,101.156,216.641,99.766z"/>
	</g>
	<g>
		<path class="st6" d="M213.346,200.702c-3.244,0-5.63-5.176-8.558-6.127c-3.034-0.985-8,1.766-10.525-0.072
			c-2.55-1.856-1.459-7.442-3.315-9.992c-1.838-2.525-7.497-3.203-8.482-6.237c-0.95-2.927,3.199-6.789,3.199-10.033
			c0-3.244-4.149-7.106-3.198-10.034c0.985-3.034,6.644-3.712,8.482-6.237c1.856-2.55,0.765-8.136,3.315-9.992
			c2.525-1.838,7.491,0.913,10.525-0.072c2.927-0.95,5.313-6.127,8.557-6.127c3.244,0,5.63,5.176,8.558,6.127
			c3.034,0.985,8-1.766,10.525,0.072c2.55,1.856,1.459,7.442,3.315,9.992c1.838,2.525,7.497,3.203,8.482,6.237
			c0.95,2.927-3.199,6.789-3.199,10.033c0,3.244,4.149,7.106,3.198,10.034c-0.985,3.034-6.644,3.712-8.482,6.237
			c-1.856,2.55-0.765,8.136-3.315,9.992c-2.525,1.838-7.491-0.913-10.525,0.072C218.976,195.525,216.59,200.702,213.346,200.702z"/>
	</g>
	<g>
		<path class="st2" d="M221.903,194.575c-2.927,0.95-5.313,6.127-8.557,6.127c-3.244,0-5.63-5.176-8.558-6.127
			c-1.778-0.577-4.217,0.125-6.442,0.439v33.424c0,1.773,2.135,2.669,3.401,1.428l10.199-10.007c0.778-0.763,2.024-0.763,2.801,0
			l10.199,10.007c1.265,1.242,3.401,0.345,3.401-1.428v-33.424C226.121,194.7,223.681,193.997,221.903,194.575z"/>
	</g>
	<g>
		<path class="st1" d="M213.346,202.701c-2.669,0-4.612-2.034-6.327-3.829c-1.001-1.048-2.037-2.132-2.849-2.396
			c-0.887-0.289-2.417-0.015-3.896,0.247c-2.394,0.428-5.109,0.91-7.188-0.604c-2.098-1.527-2.475-4.273-2.808-6.696
			c-0.203-1.476-0.413-3.002-0.947-3.736c-0.521-0.716-1.894-1.377-3.221-2.017c-2.22-1.069-4.735-2.281-5.546-4.78
			c-0.782-2.408,0.504-4.816,1.639-6.941c0.719-1.346,1.462-2.738,1.462-3.709s-0.743-2.363-1.462-3.709
			c-1.135-2.125-2.421-4.533-1.639-6.942c0.812-2.498,3.327-3.71,5.546-4.779c1.328-0.64,2.701-1.301,3.222-2.017
			c0.535-0.734,0.745-2.261,0.947-3.736c0.333-2.423,0.711-5.169,2.808-6.696c2.079-1.513,4.793-1.029,7.187-0.604
			c1.479,0.265,3.01,0.535,3.898,0.247c0.811-0.263,1.847-1.348,2.849-2.396c1.714-1.795,3.657-3.829,6.326-3.829
			c2.668,0,4.612,2.034,6.327,3.828c1.001,1.049,2.038,2.133,2.849,2.396c0.886,0.287,2.417,0.017,3.897-0.247
			c2.396-0.426,5.109-0.908,7.187,0.604c2.098,1.527,2.475,4.273,2.808,6.696c0.203,1.476,0.413,3.001,0.947,3.736
			c0.521,0.716,1.894,1.378,3.222,2.018c2.219,1.068,4.734,2.28,5.545,4.778c0.782,2.408-0.504,4.817-1.639,6.941
			c-0.719,1.347-1.462,2.738-1.462,3.709s0.743,2.363,1.462,3.709c1.135,2.125,2.421,4.534,1.639,6.943
			c-0.812,2.497-3.327,3.709-5.546,4.778c-1.328,0.64-2.7,1.301-3.222,2.017c-0.534,0.735-0.744,2.261-0.947,3.736
			c-0.333,2.424-0.711,5.17-2.809,6.696c-2.08,1.513-4.793,1.031-7.188,0.604c-1.479-0.263-3.01-0.537-3.897-0.247
			c-0.81,0.264-1.846,1.348-2.848,2.396C217.958,200.667,216.015,202.701,213.346,202.701z M203.197,192.354
			c0.755,0,1.496,0.087,2.208,0.318c1.771,0.575,3.161,2.03,4.506,3.438c1.161,1.215,2.476,2.592,3.435,2.592
			s2.274-1.377,3.435-2.592c1.344-1.407,2.734-2.862,4.504-3.438c1.84-0.598,3.87-0.236,5.833,0.114
			c1.609,0.286,3.432,0.611,4.133,0.1c0.721-0.524,0.975-2.374,1.2-4.006c0.27-1.966,0.55-3.998,1.676-5.546
			c1.113-1.529,2.947-2.412,4.72-3.267c1.497-0.722,3.194-1.539,3.478-2.411c0.257-0.79-0.641-2.472-1.362-3.823
			c-0.951-1.78-1.934-3.621-1.934-5.593s0.983-3.813,1.934-5.593c0.721-1.351,1.619-3.032,1.362-3.822
			c-0.283-0.872-1.979-1.689-3.477-2.41c-1.773-0.854-3.607-1.738-4.72-3.268c-1.126-1.548-1.406-3.58-1.676-5.546
			c-0.224-1.632-0.479-3.481-1.199-4.006c-0.701-0.512-2.524-0.187-4.133,0.1c-1.964,0.349-3.995,0.71-5.833,0.113
			c-1.771-0.575-3.161-2.03-4.506-3.438c-1.161-1.215-2.476-2.592-3.434-2.592s-2.273,1.377-3.434,2.592
			c-1.344,1.407-2.734,2.862-4.505,3.438c-1.841,0.596-3.871,0.235-5.834-0.113c-1.608-0.286-3.432-0.608-4.132-0.101
			c-0.72,0.524-0.975,2.374-1.199,4.007c-0.27,1.966-0.55,3.998-1.676,5.545c-1.113,1.529-2.947,2.413-4.72,3.268
			c-1.498,0.721-3.194,1.538-3.478,2.411c-0.257,0.79,0.641,2.471,1.362,3.821c0.951,1.781,1.934,3.622,1.934,5.594
			s-0.983,3.813-1.934,5.594c-0.721,1.351-1.619,3.031-1.362,3.821c0.283,0.873,1.98,1.69,3.477,2.412
			c1.773,0.854,3.606,1.737,4.72,3.267c1.126,1.547,1.406,3.58,1.676,5.545c0.224,1.633,0.479,3.482,1.199,4.007
			c0.701,0.512,2.525,0.187,4.133-0.1C200.776,192.571,202.004,192.354,203.197,192.354z"/>
	</g>
	<g>
		<path class="st1" d="M226.343,232.439c-1.026,0-2.034-0.396-2.798-1.146l-10.199-10.007l-10.198,10.007
			c-1.154,1.132-2.861,1.458-4.351,0.832c-1.489-0.625-2.451-2.072-2.451-3.688v-33.425c0-0.997,0.734-1.842,1.721-1.98
			c0.493-0.069,0.996-0.159,1.5-0.249c1.966-0.348,3.999-0.706,5.838-0.111c1.771,0.575,3.161,2.03,4.505,3.438
			c1.161,1.215,2.476,2.592,3.435,2.592s2.274-1.377,3.435-2.592c1.344-1.407,2.734-2.862,4.504-3.438c0,0,0,0,0,0
			c1.839-0.597,3.872-0.238,5.837,0.112c0.505,0.09,1.009,0.18,1.502,0.249c0.987,0.139,1.721,0.983,1.721,1.98v33.424
			c0,1.615-0.962,3.063-2.451,3.688C227.393,232.336,226.865,232.438,226.343,232.439z M213.346,217.294
			c1.015,0,2.029,0.379,2.802,1.138l10.198,10.006v-31.729c-1.457-0.26-2.951-0.517-3.825-0.232
			c-0.811,0.264-1.847,1.348-2.848,2.396c-1.714,1.795-3.658,3.829-6.327,3.829s-4.612-2.034-6.327-3.829
			c-1.001-1.048-2.037-2.132-2.849-2.396c-0.873-0.283-2.368-0.026-3.824,0.231v31.729l10.198-10.007
			C211.317,217.673,212.332,217.294,213.346,217.294z"/>
	</g>
	<g>
		<circle class="st7" cx="213.346" cy="168.304" r="19.25"/>
	</g>
	<g>
		<path class="st2" d="M122.327,117.082c-0.547-0.367-1.275-0.554-2.161-0.554h-1.264c-0.838,0-1.446,0.08-1.861,0.245
			c-0.476,0.191-0.833,0.535-1.058,1.023c-0.179,0.389-0.374,0.99-0.595,1.834l-2.396,9.03l-2.394-9.028
			c-0.222-0.848-0.417-1.448-0.596-1.836c-0.225-0.488-0.581-0.832-1.058-1.023c-0.413-0.165-1.022-0.245-1.86-0.245h-1.264
			c-0.887,0-1.614,0.186-2.161,0.553c-0.618,0.414-0.931,1.166-0.931,2.237v15.94c0,0.917,0.224,1.626,0.667,2.11
			c0.455,0.497,1.045,0.749,1.752,0.749c0.728,0,1.326-0.256,1.778-0.761c0.435-0.487,0.655-1.192,0.655-2.097v-9.466l2.147,8.533
			l0.324,1.22c0.117,0.432,0.281,0.834,0.487,1.195c0.228,0.399,0.549,0.729,0.956,0.983c0.417,0.261,0.922,0.393,1.501,0.393
			c0.769,0,1.392-0.209,1.851-0.622c0.428-0.383,0.726-0.82,0.888-1.297c0.138-0.402,0.315-1.034,0.528-1.878l2.146-8.529v9.467
			c0,0.907,0.223,1.614,0.664,2.1c0.455,0.503,1.041,0.758,1.74,0.758c0.738,0,1.341-0.256,1.791-0.761
			c0.435-0.487,0.656-1.192,0.656-2.097v-15.94C123.258,118.248,122.945,117.496,122.327,117.082z"/>
	</g>
	<g>
		<path class="st2" d="M129.084,132.88c-0.729,0-1.351,0.259-1.85,0.77c-0.496,0.508-0.748,1.123-0.748,1.827
			c0,0.82,0.27,1.476,0.803,1.95c0.515,0.457,1.132,0.689,1.836,0.689c0.688,0,1.296-0.236,1.806-0.7
			c0.525-0.478,0.792-1.13,0.792-1.939c0-0.719-0.262-1.338-0.777-1.843C130.433,133.134,129.807,132.88,129.084,132.88z"/>
	</g>
	<g>
		<path class="st2" d="M147.585,120.345c-0.25-0.656-0.455-1.181-0.617-1.573c-0.174-0.423-0.392-0.826-0.647-1.196
			c-0.28-0.407-0.651-0.742-1.103-0.998c-0.463-0.261-1.032-0.394-1.693-0.394c-0.652,0-1.216,0.133-1.68,0.394
			c-0.453,0.257-0.825,0.599-1.106,1.017c-0.255,0.379-0.495,0.857-0.715,1.419l-0.529,1.352l-5.151,13.077
			c-0.218,0.54-0.374,0.962-0.468,1.264c-0.108,0.345-0.163,0.686-0.163,1.016c0,0.631,0.256,1.195,0.761,1.676
			c0.498,0.475,1.083,0.715,1.74,0.715c0.783,0,1.37-0.251,1.745-0.748c0.301-0.4,0.641-1.112,1.038-2.18l0.828-2.225h7.429
			l0.833,2.187c0.129,0.315,0.285,0.679,0.465,1.09c0.198,0.454,0.386,0.791,0.574,1.028c0.205,0.259,0.461,0.467,0.763,0.618
			c0.305,0.153,0.665,0.23,1.07,0.23c0.698,0,1.302-0.251,1.797-0.745c0.495-0.494,0.745-1.058,0.745-1.674
			c0-0.527-0.216-1.302-0.659-2.363L147.585,120.345z M141.298,128.799l2.205-6.147l2.246,6.147H141.298z"/>
	</g>
	<g>
		<path class="st2" d="M159.994,133.635c-0.512-0.501-1.139-0.755-1.862-0.755c-0.729,0-1.351,0.259-1.85,0.77
			c-0.496,0.508-0.748,1.123-0.748,1.827c0,0.82,0.27,1.476,0.803,1.95c0.515,0.457,1.132,0.689,1.836,0.689
			c0.688,0,1.296-0.236,1.806-0.7c0.525-0.478,0.792-1.13,0.792-1.939C160.771,134.759,160.51,134.139,159.994,133.635z"/>
	</g>
</g>
</svg>
