<?xml version="1.0" encoding="utf-8"?>
<!-- Generator: Adobe Illustrator 22.1.0, SVG Export Plug-In . SVG Version: 6.00 Build 0)  -->
<svg version="1.1" id="Layer_1" xmlns="http://www.w3.org/2000/svg" xmlns:xlink="http://www.w3.org/1999/xlink" x="0px" y="0px"
	 viewBox="0 0 256 256" style="enable-background:new 0 0 256 256;" xml:space="preserve">
<style type="text/css">
	.st0{fill:#E0EBFC;}
	.st1{fill:#3762CC;}
	.st2{fill:#4671C6;}
	.st3{fill:#6BDDDD;}
	.st4{fill:#F9A7A7;}
	.st5{fill:#A4C9FF;}
	.st6{fill:#FFEA92;}
	.st7{fill:#F9CFCF;}
	.st8{fill:#FFE164;}
	.st9{fill:#FFDC85;}
	.st10{fill:#FFEA94;}
	.st11{fill:#B9BEFC;}
	.st12{fill:#EAA97D;}
</style>
<g>
	<g>
		<path class="st0" d="M238,192.833H18c-5.523,0-10-4.477-10-10v-146.5c0-5.523,4.477-10,10-10h220c5.523,0,10,4.477,10,10v146.5
			C248,188.356,243.523,192.833,238,192.833z"/>
	</g>
	<g>
		<path class="st3" d="M16.5,149V39c0-2.209,1.791-4,4-4h215c2.209,0,4,1.791,4,4v110c0,2.209-1.791,4-4,4h-215
			C18.291,153,16.5,151.209,16.5,149z"/>
	</g>
	<g>
		<path class="st5" d="M180.67,248H75.33c-4.048,0-7.33-3.282-7.33-7.33v-0.007c0-4.048,3.282-7.33,7.33-7.33h105.34
			c4.048,0,7.33,3.282,7.33,7.33v0.007C188,244.718,184.718,248,180.67,248z"/>
	</g>
	<g>
		<path class="st0" d="M163.667,192.833c-8.104,0-62.303,0-71.333,0L81,233.333c10.522,0,83.48,0,94,0L163.667,192.833z"/>
	</g>
	<g>
		<path class="st5" d="M8,182.833c0,5.523,4.477,10,10,10h220c5.523,0,10-4.477,10-10v-21.5H8V182.833z"/>
	</g>
	<g>
		<circle class="st2" cx="128" cy="177.083" r="10.333"/>
	</g>
	<g>
		<path class="st1" d="M238,194.834H18c-6.617,0-12-5.383-12-12V36.333c0-6.617,5.383-12,12-12h220c6.617,0,12,5.383,12,12v146.501
			C250,189.451,244.617,194.834,238,194.834z M18,28.333c-4.411,0-8,3.589-8,8v146.501c0,4.411,3.589,8,8,8h220c4.411,0,8-3.589,8-8
			V36.333c0-4.411-3.589-8-8-8H18z"/>
	</g>
	<g>
		<path class="st1" d="M235.5,155h-215c-3.309,0-6-2.691-6-6V39c0-3.309,2.691-6,6-6h215c3.309,0,6,2.691,6,6v110
			C241.5,152.309,238.809,155,235.5,155z M20.5,37c-1.103,0-2,0.897-2,2v110c0,1.103,0.897,2,2,2h215c1.103,0,2-0.897,2-2V39
			c0-1.103-0.897-2-2-2H20.5z"/>
	</g>
	<g>
		<path class="st1" d="M180.67,250H75.33c-5.145,0-9.33-4.186-9.33-9.33c0-5.151,4.186-9.336,9.33-9.336h105.34
			c5.145,0,9.33,4.185,9.33,9.329C190,245.814,185.814,250,180.67,250z M75.33,235.334c-2.939,0-5.33,2.391-5.33,5.329
			c0,2.946,2.391,5.337,5.33,5.337h105.34c2.939,0,5.33-2.391,5.33-5.33c0-2.945-2.391-5.336-5.33-5.336H75.33z"/>
	</g>
	<g>
		<path class="st1" d="M175,235.334H81c-0.625,0-1.215-0.293-1.593-0.791c-0.378-0.499-0.501-1.146-0.333-1.748l11.333-40.5
			c0.242-0.863,1.029-1.461,1.926-1.461h71.333c0.897,0,1.684,0.598,1.926,1.461l11.333,40.5c0.169,0.603,0.046,1.249-0.333,1.748
			C176.215,235.041,175.625,235.334,175,235.334z M83.637,231.334h88.727l-10.214-36.5H93.851L83.637,231.334z"/>
	</g>
	<g>
		<path class="st1" d="M238,194.834H18c-6.617,0-12-5.383-12-12v-21.5c0-1.104,0.896-2,2-2h240c1.104,0,2,0.896,2,2v21.5
			C250,189.451,244.617,194.834,238,194.834z M10,163.334v19.5c0,4.411,3.589,8,8,8h220c4.411,0,8-3.589,8-8v-19.5H10z"/>
	</g>
	<g>
		<rect x="60.5" y="35" class="st0" width="135" height="118"/>
	</g>
	<g>
		<path class="st2" d="M60.5,13v22h135V13c0-2.761-2.239-5-5-5h-125C62.739,8,60.5,10.239,60.5,13z"/>
	</g>
	<g>
		<path class="st11" d="M166.6,25.7h-7.2c-0.663,0-1.2-0.537-1.2-1.2v-6c0-0.663,0.537-1.2,1.2-1.2h7.2c0.663,0,1.2,0.537,1.2,1.2v6
			C167.8,25.163,167.263,25.7,166.6,25.7z"/>
	</g>
	<g>
		<path class="st11" d="M185.8,25.7h-7.2c-0.663,0-1.2-0.537-1.2-1.2v-6c0-0.663,0.537-1.2,1.2-1.2h7.2c0.663,0,1.2,0.537,1.2,1.2v6
			C187,25.163,186.463,25.7,185.8,25.7z"/>
	</g>
	<g>
		<path class="st11" d="M147.4,25.7h-7.2c-0.663,0-1.2-0.537-1.2-1.2v-6c0-0.663,0.537-1.2,1.2-1.2h7.2c0.663,0,1.2,0.537,1.2,1.2v6
			C148.6,25.163,148.063,25.7,147.4,25.7z"/>
	</g>
	<g>
		<path class="st5" d="M182.511,56.745H73.489c-2.516,0-4.556-2.04-4.556-4.556v0c0-2.516,2.04-4.556,4.556-4.556h109.023
			c2.516,0,4.556,2.04,4.556,4.556v0C187.068,54.705,185.028,56.745,182.511,56.745z"/>
	</g>
	<g>
		<path class="st5" d="M85.451,79.72h-9.439c-1.303,0-2.36-1.057-2.36-2.36v-9.439c0-1.303,1.057-2.36,2.36-2.36h9.439
			c1.303,0,2.36,1.057,2.36,2.36v9.439C87.81,78.663,86.754,79.72,85.451,79.72z"/>
	</g>
	<g>
		<path class="st5" d="M182.511,100.368H73.489c-2.516,0-4.556-2.04-4.556-4.556v0c0-2.516,2.04-4.556,4.556-4.556h109.023
			c2.516,0,4.556,2.04,4.556,4.556v0C187.068,98.328,185.028,100.368,182.511,100.368z"/>
	</g>
	<g>
		<path class="st5" d="M132.646,79.72h-9.439c-1.303,0-2.36-1.057-2.36-2.36v-9.439c0-1.303,1.057-2.36,2.36-2.36h9.439
			c1.303,0,2.36,1.057,2.36,2.36v9.439C135.006,78.663,133.949,79.72,132.646,79.72z"/>
	</g>
	<g>
		<path class="st5" d="M179.841,79.851h-9.439c-1.303,0-2.36-1.057-2.36-2.36v-9.439c0-1.303,1.057-2.36,2.36-2.36h9.439
			c1.303,0,2.36,1.057,2.36,2.36v9.439C182.201,78.794,181.145,79.851,179.841,79.851z"/>
	</g>
	<g>
		<path class="st5" d="M85.451,123.342h-9.439c-1.303,0-2.36-1.057-2.36-2.36v-9.439c0-1.303,1.057-2.36,2.36-2.36h9.439
			c1.303,0,2.36,1.057,2.36,2.36v9.439C87.81,122.285,86.754,123.342,85.451,123.342z"/>
	</g>
	<g>
		<path class="st5" d="M132.646,123.342h-9.439c-1.303,0-2.36-1.057-2.36-2.36v-9.439c0-1.303,1.057-2.36,2.36-2.36h9.439
			c1.303,0,2.36,1.057,2.36,2.36v9.439C135.006,122.285,133.949,123.342,132.646,123.342z"/>
	</g>
	<g>
		<path class="st5" d="M179.841,123.342h-9.439c-1.303,0-2.36-1.057-2.36-2.36v-9.439c0-1.303,1.057-2.36,2.36-2.36h9.439
			c1.303,0,2.36,1.057,2.36,2.36v9.439C182.201,122.285,181.145,123.342,179.841,123.342z"/>
	</g>
	<g>
		<path class="st7" d="M127.153,77.803c-0.004,0-0.007,0-0.01,0c-1.041-0.003-2.022-0.512-2.624-1.361l-4.427-6.236
			c-0.688-0.97-0.461-2.314,0.51-3.003c0.971-0.689,2.315-0.46,3.003,0.509l3.555,5.007l9.299-12.928
			c0.695-0.966,2.041-1.185,3.006-0.491c0.965,0.695,1.185,2.04,0.491,3.006l-10.179,14.152
			C129.17,77.301,128.19,77.803,127.153,77.803z"/>
	</g>
	<g>
		<path class="st5" d="M182.511,140.367H73.489c-2.516,0-4.556-2.04-4.556-4.556l0,0c0-2.516,2.04-4.556,4.556-4.556h109.023
			c2.516,0,4.556,2.04,4.556,4.556l0,0C187.068,138.328,185.028,140.367,182.511,140.367z"/>
	</g>
	<g>
		<path class="st4" d="M80.815,117.099l10.141,23.727c0.379,0.887,1.671,0.776,1.893-0.164l2.308-9.79
			c0.087-0.369,0.375-0.657,0.744-0.744l9.79-2.308c0.939-0.221,1.051-1.514,0.164-1.893l-23.727-10.141
			C81.298,115.432,80.46,116.27,80.815,117.099z"/>
	</g>
	<g>
		<path class="st1" d="M195.5,155h-135c-1.104,0-2-0.896-2-2V35c0-1.104,0.896-2,2-2h135c1.104,0,2,0.896,2,2v118
			C197.5,154.104,196.604,155,195.5,155z M62.5,151h131V37h-131V151z"/>
	</g>
	<g>
		<path class="st1" d="M195.5,37h-135c-1.104,0-2-0.896-2-2V13c0-3.859,3.14-7,7-7h125c3.86,0,7,3.141,7,7v22
			C197.5,36.104,196.604,37,195.5,37z M62.5,33h131V13c0-1.654-1.346-3-3-3h-125c-1.654,0-3,1.346-3,3V33z"/>
	</g>
	<g>
		<circle class="st4" cx="198" cy="180" r="50"/>
	</g>
	<g>
		<circle class="st0" cx="198" cy="180" r="36.607"/>
	</g>
	<g>
		<path class="st1" d="M198,232c-28.673,0-52-23.327-52-52s23.327-52,52-52s52,23.327,52,52S226.673,232,198,232z M198,132
			c-26.467,0-48,21.532-48,48s21.533,48,48,48s48-21.532,48-48S224.467,132,198,132z"/>
	</g>
	<g>
		<path class="st1" d="M198,218.607c-21.288,0-38.607-17.319-38.607-38.607s17.319-38.607,38.607-38.607
			s38.607,17.319,38.607,38.607S219.288,218.607,198,218.607z M198,145.393c-19.083,0-34.607,15.524-34.607,34.607
			s15.525,34.607,34.607,34.607s34.607-15.524,34.607-34.607S217.083,145.393,198,145.393z"/>
	</g>
	<g>
		<path class="st11" d="M198,181.328v-27.134c15.224,0,27.678,12.065,28.316,27.134H198z"/>
	</g>
	<g>
		<path class="st2" d="M198.078,183.99c-1.534,0-2.778-1.244-2.778-2.778v-26.903c0-1.534,1.244-2.778,2.778-2.778
			c1.534,0,2.778,1.244,2.778,2.778v26.903C200.855,182.746,199.612,183.99,198.078,183.99z"/>
	</g>
	<g>
		<path class="st3" d="M224.981,178.435h-26.903c-1.534,0-2.778,1.244-2.778,2.778s1.244,2.778,2.778,2.778h26.903
			c1.534,0,2.778-1.244,2.778-2.778S226.515,178.435,224.981,178.435z"/>
	</g>
</g>
</svg>
