<?xml version="1.0" encoding="utf-8"?>
<!-- Generator: Adobe Illustrator 22.1.0, SVG Export Plug-In . SVG Version: 6.00 Build 0)  -->
<svg version="1.1" id="Layer_1" xmlns="http://www.w3.org/2000/svg" xmlns:xlink="http://www.w3.org/1999/xlink" x="0px" y="0px"
	 viewBox="0 0 256 256" style="enable-background:new 0 0 256 256;" xml:space="preserve">
<style type="text/css">
	.st0{fill:#E0EBFC;}
	.st1{fill:#3762CC;}
	.st2{fill:#4671C6;}
	.st3{fill:#6BDDDD;}
	.st4{fill:#F9A7A7;}
	.st5{fill:#A4C9FF;}
	.st6{fill:#FFEA92;}
	.st7{fill:#F9CFCF;}
	.st8{fill:#FFE164;}
	.st9{fill:#FFDC85;}
	.st10{fill:#FFEA94;}
	.st11{fill:#B9BEFC;}
	.st12{fill:#EAA97D;}
</style>
<g>
	<g>
		<path class="st0" d="M195.205,248H23.568c-4.82,0-8.727-3.907-8.727-8.727V16.727c0-4.82,3.907-8.727,8.727-8.727h171.636
			c4.82,0,8.727,3.907,8.727,8.727v222.545C203.932,244.093,200.024,248,195.205,248z"/>
	</g>
	<g>
		<path class="st1" d="M195.205,250H23.568c-5.915,0-10.728-4.813-10.728-10.728V16.728C12.841,10.813,17.653,6,23.568,6h171.636
			c5.915,0,10.727,4.813,10.727,10.728v222.545C205.932,245.188,201.12,250,195.205,250z M23.568,10
			c-3.709,0-6.728,3.018-6.728,6.728v222.545c0,3.71,3.018,6.728,6.728,6.728h171.636c3.709,0,6.727-3.018,6.727-6.728V16.728
			c0-3.71-3.018-6.728-6.727-6.728H23.568z"/>
	</g>
	<g>
		<path class="st5" d="M178.687,42.793H40.086c-3.199,0-5.793-2.593-5.793-5.793v0c0-3.199,2.593-5.793,5.793-5.793h138.602
			c3.199,0,5.793,2.593,5.793,5.793v0C184.48,40.199,181.886,42.793,178.687,42.793z"/>
	</g>
	<g>
		<path class="st5" d="M55.293,72h-12c-1.657,0-3-1.343-3-3V57c0-1.657,1.343-3,3-3h12c1.657,0,3,1.343,3,3v12
			C58.293,70.657,56.95,72,55.293,72z"/>
	</g>
	<g>
		<path class="st5" d="M178.687,94.793H40.086c-3.199,0-5.793-2.593-5.793-5.793v0c0-3.199,2.593-5.793,5.793-5.793h138.602
			c3.199,0,5.793,2.593,5.793,5.793v0C184.48,92.199,181.886,94.793,178.687,94.793z"/>
	</g>
	<g>
		<path class="st5" d="M178.687,120.793H40.086c-3.199,0-5.793-2.593-5.793-5.793v0c0-3.199,2.593-5.793,5.793-5.793h138.602
			c3.199,0,5.793,2.593,5.793,5.793v0C184.48,118.199,181.886,120.793,178.687,120.793z"/>
	</g>
	<g>
		<path class="st5" d="M178.687,172.793H40.086c-3.199,0-5.793-2.593-5.793-5.793l0,0c0-3.199,2.593-5.793,5.793-5.793h138.602
			c3.199,0,5.793,2.593,5.793,5.793l0,0C184.48,170.199,181.886,172.793,178.687,172.793z"/>
	</g>
	<g>
		<path class="st5" d="M178.687,198.793H40.086c-3.199,0-5.793-2.593-5.793-5.793l0,0c0-3.199,2.593-5.793,5.793-5.793h138.602
			c3.199,0,5.793,2.593,5.793,5.793l0,0C184.48,196.199,181.886,198.793,178.687,198.793z"/>
	</g>
	<g>
		<path class="st5" d="M115.293,72h-12c-1.657,0-3-1.343-3-3V57c0-1.657,1.343-3,3-3h12c1.657,0,3,1.343,3,3v12
			C118.293,70.657,116.95,72,115.293,72z"/>
	</g>
	<g>
		<path class="st5" d="M175.293,72h-12c-1.657,0-3-1.343-3-3V57c0-1.657,1.343-3,3-3h12c1.657,0,3,1.343,3,3v12
			C178.293,70.657,176.95,72,175.293,72z"/>
	</g>
	<g>
		<path class="st5" d="M55.293,150h-12c-1.657,0-3-1.343-3-3v-12c0-1.657,1.343-3,3-3h12c1.657,0,3,1.343,3,3v12
			C58.293,148.657,56.95,150,55.293,150z"/>
	</g>
	<g>
		<path class="st5" d="M115.293,150h-12c-1.657,0-3-1.343-3-3v-12c0-1.657,1.343-3,3-3h12c1.657,0,3,1.343,3,3v12
			C118.293,148.657,116.95,150,115.293,150z"/>
	</g>
	<g>
		<path class="st5" d="M175.293,150h-12c-1.657,0-3-1.343-3-3v-12c0-1.657,1.343-3,3-3h12c1.657,0,3,1.343,3,3v12
			C178.293,148.657,176.95,150,175.293,150z"/>
	</g>
	<g>
		<path class="st5" d="M55.293,228h-12c-1.657,0-3-1.343-3-3v-12c0-1.657,1.343-3,3-3h12c1.657,0,3,1.343,3,3v12
			C58.293,226.657,56.95,228,55.293,228z"/>
	</g>
	<g>
		<path class="st5" d="M115.293,228h-12c-1.657,0-3-1.343-3-3v-12c0-1.657,1.343-3,3-3h12c1.657,0,3,1.343,3,3v12
			C118.293,226.657,116.95,228,115.293,228z"/>
	</g>
	<g>
		<path class="st7" d="M108.309,69.563c-0.005,0-0.009,0-0.013,0c-1.324-0.004-2.571-0.651-3.336-1.73l-5.629-7.928
			c-0.875-1.233-0.586-2.942,0.648-3.818c1.234-0.876,2.943-0.584,3.818,0.648l4.52,6.366l11.822-16.435
			c0.883-1.228,2.594-1.507,3.822-0.624c1.227,0.883,1.507,2.594,0.624,3.822l-12.941,17.991
			C110.874,68.925,109.627,69.563,108.309,69.563z"/>
	</g>
	<g>
		<path class="st7" d="M108.309,147.563c-0.005,0-0.009,0-0.013,0c-1.324-0.004-2.571-0.651-3.336-1.73l-5.629-7.928
			c-0.875-1.233-0.586-2.942,0.648-3.818c1.234-0.876,2.943-0.584,3.818,0.648l4.52,6.366l11.822-16.435
			c0.883-1.228,2.594-1.507,3.822-0.624c1.227,0.883,1.507,2.594,0.624,3.822l-12.941,17.991
			C110.874,146.925,109.627,147.563,108.309,147.563z"/>
	</g>
	<g>
		<path class="st7" d="M193.134,38.413l-70.735,70.735l-4.09,22.28c-0.14,0.763,0.666,1.569,1.429,1.429l22.28-4.09l70.735-70.735
			L193.134,38.413z"/>
	</g>
	<g>
		<path class="st3" d="M193.134,38.413l-70.703,70.703c1.576,2.112,6.102,0.457,7.865,2.22c0.928,0.928,0.725,1.659,1.237,6.285
			c0.383,3.458,6.385,1.338,8.298,3.25c1.763,1.763,0.108,6.289,2.22,7.865l70.703-70.703
			C200.604,45.883,205.502,50.781,193.134,38.413z"/>
	</g>
	<g>
		
			<rect x="192.809" y="39.196" transform="matrix(-0.7071 -0.7071 0.7071 -0.7071 321.3745 222.0844)" class="st0" width="27.746" height="10.575"/>
	</g>
	<g>
		<path class="st4" d="M219.838,20.088l11.24,11.24c2.314,2.314,2.314,6.066,0,8.38l-10.846,10.847l-19.62-19.62l10.847-10.847
			C213.772,17.774,217.524,17.774,219.838,20.088z"/>
	</g>
	<g>
		<path class="st1" d="M212.753,60.032c-0.512,0-1.023-0.195-1.414-0.586l-19.62-19.62c-0.375-0.375-0.586-0.884-0.586-1.414
			s0.211-1.039,0.586-1.414l7.478-7.478c0.78-0.781,2.047-0.781,2.828,0l19.62,19.62c0.375,0.375,0.586,0.884,0.586,1.414
			s-0.211,1.039-0.586,1.414l-7.478,7.478C213.777,59.837,213.265,60.032,212.753,60.032z M195.962,38.412l16.791,16.792
			l4.649-4.649l-16.791-16.792L195.962,38.412z"/>
	</g>
	<g>
		<path class="st1" d="M220.231,52.555c-0.53,0-1.039-0.211-1.414-0.586l-19.62-19.62c-0.781-0.781-0.781-2.047,0-2.828
			l10.846-10.847c3.09-3.091,8.119-3.089,11.208,0l0,0l11.24,11.24c1.497,1.496,2.321,3.486,2.321,5.604s-0.824,4.107-2.321,5.604
			l-10.847,10.847C221.271,52.344,220.762,52.555,220.231,52.555z M203.44,30.935l16.791,16.792l9.432-9.433
			c0.741-0.741,1.149-1.728,1.149-2.776s-0.408-2.034-1.149-2.775l-11.24-11.24c-1.53-1.529-4.021-1.529-5.552,0L203.44,30.935z"/>
	</g>
	<g>
		<path class="st2" d="M120.678,118.521l-2.369,12.907c-0.14,0.763,0.666,1.569,1.429,1.429l12.907-2.369L120.678,118.521z"/>
	</g>
	<g>
		<path class="st1" d="M119.562,134.872c-0.833,0-1.66-0.346-2.291-0.976c-0.767-0.767-1.114-1.824-0.93-2.83l4.089-22.28
			c0.073-0.398,0.266-0.766,0.553-1.053l70.735-70.735c0.75-0.75,2.078-0.75,2.828,0l19.62,19.62c0.781,0.781,0.781,2.047,0,2.828
			l-70.735,70.734c-0.287,0.287-0.654,0.479-1.053,0.553l-22.281,4.09C119.921,134.856,119.741,134.872,119.562,134.872z
			 M124.253,110.121l-3.774,20.566l20.566-3.775l68.88-68.88L193.134,41.24L124.253,110.121z"/>
	</g>
	<g>
		<circle class="st4" cx="191.159" cy="186.051" r="50"/>
	</g>
	<g>
		<path class="st2" d="M191.159,223.139c-20.45,0-37.089-16.638-37.089-37.088s16.638-37.088,37.089-37.088
			s37.087,16.637,37.087,37.088S211.61,223.139,191.159,223.139z"/>
	</g>
	<g>
		<path class="st1" d="M191.159,238.051c-28.673,0-52-23.327-52-52s23.327-52,52-52s52,23.327,52,52
			S219.832,238.051,191.159,238.051z M191.159,138.051c-26.467,0-48,21.532-48,48s21.533,48,48,48s48-21.532,48-48
			S217.626,138.051,191.159,138.051z"/>
	</g>
	<g>
		<path class="st3" d="M182.254,214.841c-0.01,0-0.019,0-0.028,0c-2.903-0.009-5.639-1.427-7.317-3.794l-12.345-17.388
			c-1.919-2.705-1.284-6.453,1.421-8.373c2.706-1.922,6.454-1.282,8.373,1.42l9.913,13.962l25.927-36.046
			c1.937-2.693,5.69-3.304,8.382-1.369c2.692,1.937,3.305,5.689,1.368,8.382l-28.381,39.458
			C187.878,213.441,185.145,214.841,182.254,214.841z"/>
	</g>
</g>
</svg>
