<?xml version="1.0" encoding="utf-8"?>
<!-- Generator: Adobe Illustrator 22.1.0, SVG Export Plug-In . SVG Version: 6.00 Build 0)  -->
<svg version="1.1" id="Layer_1" xmlns="http://www.w3.org/2000/svg" xmlns:xlink="http://www.w3.org/1999/xlink" x="0px" y="0px"
	 viewBox="0 0 256 256" style="enable-background:new 0 0 256 256;" xml:space="preserve">
<style type="text/css">
	.st0{fill:#E0EBFC;}
	.st1{fill:#3762CC;}
	.st2{fill:#4671C6;}
	.st3{fill:#6BDDDD;}
	.st4{fill:#F9A7A7;}
	.st5{fill:#A4C9FF;}
	.st6{fill:#FFEA92;}
	.st7{fill:#F9CFCF;}
	.st8{fill:#FFE164;}
	.st9{fill:#FFDC85;}
	.st10{fill:#FFEA94;}
	.st11{fill:#B9BEFC;}
	.st12{fill:#EAA97D;}
</style>
<g>
	<g>
		<path class="st2" d="M177.454,199.133H78.929V170.78c0-11.66,9.452-21.112,21.112-21.112h56.3c11.66,0,21.112,9.452,21.112,21.112
			V199.133z"/>
	</g>
	<g>
		<path class="st1" d="M177.454,201.133H78.929c-1.104,0-2-0.896-2-2V170.78c0-12.744,10.368-23.112,23.112-23.112h56.3
			c12.744,0,23.112,10.368,23.112,23.112v28.353C179.454,200.237,178.558,201.133,177.454,201.133z M80.929,197.133h94.524V170.78
			c0-10.539-8.574-19.112-19.112-19.112h-56.3c-10.539,0-19.112,8.574-19.112,19.112V197.133z"/>
	</g>
	<g>
		<path class="st4" d="M180.614,170.453c0-12.789-10.35-22.482-22.446-22.482H98.215c-12.417,0-22.482,10.065-22.482,22.482l0,0
			l52.44,24.517L180.614,170.453z"/>
	</g>
	<g>
		<path class="st1" d="M128.174,196.97c-0.29,0-0.579-0.063-0.847-0.188l-52.44-24.517c-0.703-0.329-1.153-1.036-1.153-1.812
			c0-13.5,10.982-24.482,24.482-24.482h59.952c13.479,0,24.446,10.982,24.446,24.482c0,0.776-0.45,1.483-1.153,1.812l-52.44,24.517
			C128.752,196.907,128.463,196.97,128.174,196.97z M77.771,169.198l50.402,23.563l50.402-23.563
			c-0.649-10.712-9.555-19.227-20.408-19.227H98.215C87.343,149.971,78.422,158.486,77.771,169.198z M180.614,170.453h0.01H180.614z
			"/>
	</g>
	<g>
		<polygon class="st0" points="128.174,147.971 103.385,147.971 128.174,179.58 152.962,147.971 		"/>
	</g>
	<g>
		<path class="st4" d="M128.183,147.983l-6.483,8.265c0.191,0.889,0.012,0.012,1.143,5.673c3.858,0,6.804,0,10.663,0
			c1.151-5.765,0.956-4.804,1.146-5.691L128.183,147.983z"/>
	</g>
	<g>
		<path class="st4" d="M121.278,170.787l6.896,8.793l6.896-8.793l-1.565-8.866c-3.863,0-6.812,0-10.663,0L121.278,170.787z"/>
	</g>
	<g>
		<path class="st1" d="M133.505,163.921h-10.663c-0.954,0-1.774-0.673-1.961-1.608l-0.534-2.674
			c-0.462-2.318-0.462-2.318-0.552-2.733l-0.051-0.238c-0.125-0.581,0.016-1.186,0.382-1.653l6.483-8.266
			c0.379-0.483,0.959-0.766,1.574-0.766l0,0c0.614,0,1.195,0.282,1.574,0.766l6.469,8.248c0.366,0.467,0.506,1.073,0.382,1.653
			l-0.055,0.255c-0.083,0.385-0.083,0.385-0.547,2.708l-0.539,2.701C135.279,163.248,134.458,163.921,133.505,163.921z
			 M124.482,159.921h7.382l0.218-1.092c0.23-1.154,0.349-1.748,0.42-2.099l-4.32-5.508l-4.334,5.526
			c0.071,0.352,0.189,0.944,0.421,2.107L124.482,159.921z"/>
	</g>
	<g>
		<path class="st1" d="M128.173,181.58L128.173,181.58c-0.614,0-1.195-0.282-1.574-0.766l-6.896-8.793
			c-0.351-0.447-0.495-1.022-0.396-1.582l1.564-8.866c0.169-0.956,0.999-1.652,1.97-1.652h10.663c0.97,0,1.801,0.697,1.97,1.652
			l1.565,8.865c0.099,0.56-0.045,1.135-0.396,1.582l-6.896,8.793C129.368,181.298,128.788,181.58,128.173,181.58z M123.402,170.255
			l4.771,6.084l4.771-6.084l-1.118-6.333h-7.307L123.402,170.255z"/>
	</g>
	<g>
		<polygon class="st0" points="103.385,147.976 103.389,147.976 115.787,163.786 128.191,147.971 109.873,143.854 		"/>
	</g>
	<g>
		<polygon class="st0" points="146.492,143.854 128.174,147.971 140.569,163.775 152.958,147.976 152.962,147.976 		"/>
	</g>
	<g>
		<path class="st7" d="M109.856,137.727c0,1.248,0,4.868,0,6.138l0.018-0.011l18.309,4.115l18.309-4.115c0-2.238,0-3.886,0-6.139
			C135.048,143.693,121.311,143.702,109.856,137.727z"/>
	</g>
	<g>
		<path class="st1" d="M128.183,149.969c-0.147,0-0.294-0.016-0.438-0.049l-18.17-4.083c-0.236-0.034-0.467-0.11-0.681-0.229
			c-0.635-0.353-1.038-1.017-1.038-1.743v-6.138c0-0.699,0.365-1.348,0.963-1.71c0.599-0.362,1.342-0.386,1.962-0.063
			c10.893,5.682,23.897,5.676,34.785-0.012c0.621-0.324,1.365-0.301,1.962,0.062c0.599,0.362,0.964,1.011,0.964,1.71v6.14
			c0,0.936-0.648,1.746-1.562,1.951l-18.309,4.115C128.477,149.953,128.33,149.969,128.183,149.969z M111.855,142.25l16.327,3.669
			l16.309-3.666v-1.38c-10.416,4.446-22.219,4.45-32.636,0.01V142.25z"/>
	</g>
	<g>
		<path class="st1" d="M128.174,181.58c-0.614,0-1.195-0.282-1.574-0.766l-24.789-31.609c-0.472-0.603-0.56-1.421-0.225-2.109
			c0.335-0.688,1.033-1.125,1.798-1.125h49.577c0.765,0,1.463,0.437,1.798,1.125c0.335,0.688,0.248,1.507-0.225,2.109
			l-24.789,31.609C129.369,181.298,128.788,181.58,128.174,181.58z M107.496,149.971l20.678,26.368l20.678-26.368H107.496z"/>
	</g>
	<g>
		<polygon class="st0" points="146.492,143.854 128.174,147.971 140.569,163.775 152.958,147.976 152.962,147.976 		"/>
	</g>
	<g>
		<path class="st1" d="M140.569,165.775c-0.614,0-1.194-0.282-1.574-0.766L126.6,149.206c-0.423-0.54-0.541-1.259-0.31-1.906
			c0.23-0.646,0.776-1.129,1.445-1.28l18.318-4.117c0.519-0.115,1.063-0.021,1.513,0.264l6.471,4.122
			c0.75,0.478,1.094,1.393,0.845,2.247c-0.084,0.288-0.229,0.546-0.418,0.761l-12.322,15.712
			C141.764,165.493,141.183,165.775,140.569,165.775z M131.702,149.228l8.867,11.306l9.456-12.058l-3.906-2.488L131.702,149.228z"/>
	</g>
	<g>
		<polygon class="st0" points="103.385,147.976 103.389,147.976 115.787,163.786 128.191,147.971 109.873,143.854 		"/>
	</g>
	<g>
		<path class="st1" d="M115.788,165.786L115.788,165.786c-0.614,0-1.195-0.282-1.574-0.766l-12.358-15.758
			c-0.175-0.208-0.31-0.455-0.39-0.728c-0.248-0.854,0.096-1.77,0.847-2.247l6.488-4.122c0.449-0.286,0.992-0.38,1.511-0.263
			l18.318,4.117c0.669,0.15,1.215,0.633,1.445,1.28c0.23,0.646,0.113,1.366-0.31,1.906l-12.404,15.815
			C116.982,165.504,116.402,165.786,115.788,165.786z M106.324,148.479l9.463,12.067l8.876-11.317l-14.418-3.241L106.324,148.479z"
			/>
	</g>
	<g>
		<path class="st0" d="M204.674,217.853H51.326c-4.705,0-8.519-3.814-8.519-8.519v-17.201c0-4.705,3.814-8.519,8.519-8.519h153.348
			c4.705,0,8.519,3.814,8.519,8.519v17.201C213.193,214.038,209.379,217.853,204.674,217.853z"/>
	</g>
	<g>
		<path class="st1" d="M204.674,219.853H51.326c-5.8,0-10.519-4.719-10.519-10.519v-17.201c0-5.8,4.719-10.52,10.519-10.52h153.349
			c5.8,0,10.519,4.719,10.519,10.52v17.201C215.193,215.134,210.475,219.853,204.674,219.853z M51.326,185.613
			c-3.595,0-6.519,2.925-6.519,6.52v17.201c0,3.595,2.924,6.519,6.519,6.519h153.349c3.595,0,6.519-2.924,6.519-6.519v-17.201
			c0-3.595-2.924-6.52-6.519-6.52H51.326z"/>
	</g>
	<g>
		<path class="st2" d="M143.081,245.866v-39.31c0-1.176-0.954-2.13-2.13-2.13h-25.902c-1.176,0-2.13,0.954-2.13,2.13v39.31
			c0,1.85,2.196,2.82,3.564,1.575l10.083-9.181c0.813-0.74,2.055-0.74,2.868,0l10.083,9.181
			C140.885,248.686,143.081,247.716,143.081,245.866z"/>
	</g>
	<g>
		<path class="st1" d="M140.934,250.004c-1,0-1.979-0.371-2.763-1.084l-10.083-9.181c-0.05-0.046-0.125-0.046-0.175,0l-10.083,9.181
			c-1.227,1.117-2.932,1.396-4.451,0.723c-1.518-0.67-2.46-2.118-2.46-3.777v-39.31c0-2.277,1.853-4.13,4.13-4.13h25.901
			c2.277,0,4.13,1.853,4.13,4.13v39.31c0,1.659-0.942,3.106-2.46,3.777C142.072,249.886,141.5,250.004,140.934,250.004z
			 M128,235.698c0.994,0,1.988,0.361,2.781,1.083l10.083,9.181c0.032,0.028,0.061,0.057,0.14,0.023
			c0.077-0.034,0.077-0.075,0.077-0.119v-39.31c0-0.072-0.058-0.13-0.13-0.13h-25.901c-0.072,0-0.13,0.058-0.13,0.13v39.31
			c0,0.043,0,0.084,0.077,0.119s0.108,0.005,0.141-0.023l10.082-9.181C126.012,236.059,127.006,235.698,128,235.698z"/>
	</g>
	<g>
		<circle class="st3" cx="128" cy="200.733" r="30.17"/>
	</g>
	<g>
		<path class="st2" d="M108.286,202.329v5.24c0,3.099-3.75,3.077-3.75,0.025c0-18.611-1.983-16.567,7.185-16.567
			c4.005,0,6.933,1.209,6.933,5.556C118.653,203.138,111.909,202.329,108.286,202.329z M108.286,193.843v5.657h2.525
			c1.281,0,2.818-0.165,3.575-1.187c0.641-0.868,0.702-2.626-0.253-3.65C113.076,193.592,110.1,193.843,108.286,193.843z"/>
	</g>
	<g>
		<path class="st2" d="M124.917,197.922c2.971-3.439,8.839-2.887,8.839,3.232c0,5.828,0.626,8.7-1.731,8.7
			c-4.223,0,1.041-11.352-4.066-11.352c-5.94,0-0.603,11.352-4.786,11.352c-1.136,0-1.704-0.699-1.704-2.096
			c0-14.829-0.285-15.668,0.448-16.523c0.611-0.714,1.924-0.7,2.537,0.006C125.173,192.068,124.917,193.504,124.917,197.922z"/>
	</g>
	<g>
		<path class="st2" d="M144.614,191.028c6.095,0,8.637,3.691,8.637,9.206c0,5.757-2.61,9.306-8.562,9.306
			c-6.01,0-7.26,0.584-7.26-2.639C137.43,188.741,135.691,191.028,144.614,191.028z M141.18,193.995v12.564
			c3.813,0,8.27,1.039,8.27-6.351C149.45,193.386,145.562,193.995,141.18,193.995z"/>
	</g>
	<g>
		<path class="st1" d="M128,232.903c-17.739,0-32.17-14.431-32.17-32.17c0-17.738,14.431-32.169,32.17-32.169
			s32.17,14.431,32.17,32.169C160.17,218.472,145.739,232.903,128,232.903z M128,172.563c-15.533,0-28.17,12.637-28.17,28.169
			s12.637,28.17,28.17,28.17s28.17-12.637,28.17-28.17S143.533,172.563,128,172.563z"/>
	</g>
	<g>
		<path class="st2" d="M167.556,84.635v3.689c4.085-0.083,7.657,1.837,9.879,4.794c0.554-2.404,0.405-1.358,0.405-27.23h-15.12
			C165.801,71.452,167.556,77.84,167.556,84.635z"/>
	</g>
	<g>
		<path class="st1" d="M177.435,95.118c-0.621,0-1.216-0.29-1.599-0.798c-1.958-2.606-4.971-4.063-8.24-3.997
			c-0.573,0.018-1.057-0.195-1.44-0.571c-0.384-0.376-0.6-0.891-0.6-1.428v-3.688c0-6.213-1.585-12.36-4.585-17.779
			c-0.343-0.62-0.333-1.374,0.026-1.984c0.36-0.61,1.015-0.984,1.723-0.984h15.12c1.104,0,2,0.896,2,2
			c0,5.5,0.007,9.784,0.012,13.143c0.02,12.426,0.02,12.426-0.443,14.43l-0.025,0.106c-0.174,0.758-0.773,1.346-1.534,1.508
			C177.712,95.104,177.573,95.118,177.435,95.118z M169.556,86.432c2.269,0.286,4.426,1.12,6.284,2.411
			c0.025-1.802,0.021-4.726,0.013-9.806c-0.005-2.941-0.011-6.592-0.012-11.148h-9.883c2.362,5.243,3.599,10.97,3.599,16.748V86.432
			z"/>
	</g>
	<g>
		<path class="st7" d="M167.556,88.324v-3.689c0-21.561-17.637-39.039-39.394-39.039l0,0c-21.757,0-39.394,17.478-39.394,39.039
			v3.689c-6.84-0.139-12.267,5.311-12.267,11.898c0,7.034,6.14,12.597,13.308,11.84c4.065,17.272,19.689,30.14,38.353,30.14
			c18.666,0,34.288-12.869,38.353-30.14c7.158,0.757,13.308-4.796,13.308-11.84C179.823,93.631,174.392,88.185,167.556,88.324z"/>
	</g>
	<g>
		<path class="st1" d="M128.17,125.431C128.17,125.431,128.17,125.431,128.17,125.431c-2.943,0-5.688-1.065-7.53-2.922
			c-1.417-1.429-2.198-3.237-2.198-5.091c0-1.104,0.896-2,2-2s2,0.896,2,2c0,0.803,0.359,1.589,1.038,2.273
			c1.081,1.089,2.834,1.74,4.69,1.74c1.868,0,3.568-0.634,4.665-1.74c0.679-0.685,1.038-1.471,1.038-2.273c0-1.104,0.896-2,2-2
			s2,0.896,2,2c0,1.854-0.781,3.662-2.198,5.091C133.832,124.365,131.096,125.431,128.17,125.431z"/>
	</g>
	<g>
		<path class="st1" d="M148.614,109.182L148.614,109.182c-3.055,0-5.532-2.477-5.532-5.532v-5.901c0-3.055,2.477-5.532,5.532-5.532
			l0,0c3.055,0,5.532,2.477,5.532,5.532v5.901C154.146,106.705,151.669,109.182,148.614,109.182z"/>
	</g>
	<g>
		<path class="st1" d="M107.7,109.182L107.7,109.182c-3.055,0-5.532-2.477-5.532-5.532v-5.901c0-3.055,2.477-5.532,5.532-5.532h0
			c3.055,0,5.532,2.477,5.532,5.532v5.901C113.232,106.705,110.756,109.182,107.7,109.182z"/>
	</g>
	<g>
		<path class="st1" d="M128.162,144.201c-18.777,0-34.947-12.285-39.888-30.075c-3.379-0.061-6.647-1.329-9.17-3.599
			c-2.926-2.632-4.604-6.389-4.604-10.306c0-3.75,1.481-7.266,4.171-9.901c2.221-2.177,5.042-3.523,8.097-3.894v-1.791
			c0-22.629,18.569-41.039,41.394-41.039s41.394,18.41,41.394,41.039v1.791c3.055,0.371,5.875,1.717,8.097,3.895
			c2.689,2.635,4.17,6.151,4.17,9.901c0,3.917-1.677,7.673-4.602,10.305c-2.523,2.271-5.792,3.539-9.171,3.6
			C163.108,131.917,146.939,144.201,128.162,144.201z M89.81,110.061c0.918,0,1.731,0.63,1.945,1.542
			c3.963,16.838,18.935,28.598,36.407,28.598s32.443-11.76,36.406-28.598c0.231-0.98,1.153-1.638,2.157-1.531
			c2.854,0.3,5.705-0.616,7.82-2.52c2.083-1.875,3.278-4.546,3.278-7.331c0-2.666-1.055-5.167-2.97-7.044
			c-1.935-1.896-4.499-2.9-7.257-2.854c-0.537,0.02-1.056-0.194-1.44-0.571c-0.384-0.376-0.6-0.891-0.6-1.429v-3.688
			c0-20.423-16.775-37.039-37.394-37.039c-20.619,0-37.394,16.616-37.394,37.039v3.688c0,0.538-0.216,1.052-0.6,1.429
			c-0.384,0.376-0.903,0.588-1.44,0.571c-2.752-0.044-5.322,0.958-7.257,2.854c-1.916,1.877-2.97,4.379-2.97,7.044
			c0,2.785,1.195,5.457,3.279,7.333c2.145,1.93,4.922,2.822,7.819,2.518C89.669,110.064,89.74,110.061,89.81,110.061z"/>
	</g>
	<g>
		<path class="st1" d="M128.162,144.201c-18.777,0-34.947-12.285-39.888-30.075c-3.379-0.061-6.647-1.329-9.17-3.599
			c-2.926-2.632-4.604-6.389-4.604-10.306c0-3.75,1.481-7.266,4.171-9.901c2.221-2.177,5.042-3.523,8.097-3.894v-1.791
			c0-22.629,18.569-41.039,41.394-41.039s41.394,18.41,41.394,41.039v1.791c3.055,0.371,5.875,1.717,8.097,3.895
			c2.689,2.635,4.17,6.151,4.17,9.901c0,3.917-1.677,7.673-4.602,10.305c-2.523,2.271-5.792,3.539-9.171,3.6
			C163.108,131.917,146.939,144.201,128.162,144.201z M89.81,110.061c0.918,0,1.731,0.63,1.945,1.542
			c3.963,16.838,18.935,28.598,36.407,28.598s32.443-11.76,36.406-28.598c0.231-0.98,1.153-1.638,2.157-1.531
			c2.854,0.3,5.705-0.616,7.82-2.52c2.083-1.875,3.278-4.546,3.278-7.331c0-2.666-1.055-5.167-2.97-7.044
			c-1.935-1.896-4.499-2.9-7.257-2.854c-0.537,0.02-1.056-0.194-1.44-0.571c-0.384-0.376-0.6-0.891-0.6-1.429v-3.688
			c0-20.423-16.775-37.039-37.394-37.039c-20.619,0-37.394,16.616-37.394,37.039v3.688c0,0.538-0.216,1.052-0.6,1.429
			c-0.384,0.376-0.903,0.588-1.44,0.571c-2.752-0.044-5.322,0.958-7.257,2.854c-1.916,1.877-2.97,4.379-2.97,7.044
			c0,2.785,1.195,5.457,3.279,7.333c2.145,1.93,4.922,2.822,7.819,2.518C89.669,110.064,89.74,110.061,89.81,110.061z"/>
	</g>
	<g>
		<path class="st1" d="M128.162,144.201c-18.777,0-34.947-12.285-39.888-30.075c-3.379-0.061-6.647-1.329-9.17-3.599
			c-2.926-2.632-4.604-6.389-4.604-10.306c0-3.75,1.481-7.266,4.171-9.901c2.221-2.177,5.042-3.523,8.097-3.894v-1.791
			c0-22.629,18.569-41.039,41.394-41.039s41.394,18.41,41.394,41.039v1.791c3.055,0.371,5.875,1.717,8.097,3.895
			c2.689,2.635,4.17,6.151,4.17,9.901c0,3.917-1.677,7.673-4.602,10.305c-2.523,2.271-5.792,3.539-9.171,3.6
			C163.108,131.917,146.939,144.201,128.162,144.201z M89.81,110.061c0.918,0,1.731,0.63,1.945,1.542
			c3.963,16.838,18.935,28.598,36.407,28.598s32.443-11.76,36.406-28.598c0.231-0.98,1.153-1.638,2.157-1.531
			c2.854,0.3,5.705-0.616,7.82-2.52c2.083-1.875,3.278-4.546,3.278-7.331c0-2.666-1.055-5.167-2.97-7.044
			c-1.935-1.896-4.499-2.9-7.257-2.854c-0.537,0.02-1.056-0.194-1.44-0.571c-0.384-0.376-0.6-0.891-0.6-1.429v-3.688
			c0-20.423-16.775-37.039-37.394-37.039c-20.619,0-37.394,16.616-37.394,37.039v3.688c0,0.538-0.216,1.052-0.6,1.429
			c-0.384,0.376-0.903,0.588-1.44,0.571c-2.752-0.044-5.322,0.958-7.257,2.854c-1.916,1.877-2.97,4.379-2.97,7.044
			c0,2.785,1.195,5.457,3.279,7.333c2.145,1.93,4.922,2.822,7.819,2.518C89.669,110.064,89.74,110.061,89.81,110.061z"/>
	</g>
	<g>
		<path class="st2" d="M93.604,65.888H78.47c-0.001,0-0.002,0-0.002,0v4.164h0.002c0,4.008,0,15.518,0,19.606
			c0,1.197,0.15,2.356,0.408,3.474c2.221-2.965,5.797-4.89,9.889-4.807c0-5.658,0.003-3.211,0.02-4.313
			c6.331,2.3,5.677,1.775,54.156,1.775c10.866,0,20.317-6.058,25.16-14.98c0-1.834,0-3.094,0-4.919
			C158.554,65.888,117.389,65.888,93.604,65.888z"/>
	</g>
	<g>
		<path class="st1" d="M78.878,95.131c-0.137,0-0.275-0.014-0.413-0.043c-0.761-0.161-1.36-0.749-1.536-1.507
			c-0.305-1.32-0.459-2.64-0.459-3.924l-0.002-23.768c0-0.531,0.21-1.04,0.585-1.415c0.375-0.375,0.884-0.586,1.415-0.586h89.636
			c1.104,0,2,0.896,2,2v4.918c0,0.333-0.083,0.661-0.242,0.954c-5.366,9.885-15.68,16.026-26.918,16.026
			c-8.979,0-16.273,0.018-22.237,0.033c-21.812,0.056-26.082,0.065-29.938-1.033c0,0.43,0,0.938,0,1.538
			c0,0.538-0.216,1.052-0.6,1.429c-0.384,0.376-0.903,0.588-1.44,0.571c-3.273-0.075-6.291,1.394-8.249,4.007
			C80.097,94.84,79.5,95.131,78.878,95.131z M80.469,67.888l-0.001,2.165l0.002,18.799c1.861-1.296,4.024-2.133,6.299-2.42
			c0.002-1.197,0.009-1.835,0.034-2.212l-0.02-0.001l0.005-0.238c0.01-0.647,0.333-1.249,0.865-1.615
			c0.534-0.367,1.21-0.453,1.818-0.233c4.779,1.736,5.07,1.753,31.226,1.688c5.967-0.015,13.264-0.033,22.247-0.033
			c9.604,0,18.431-5.159,23.16-13.498v-2.401H80.469z"/>
	</g>
	<g>
		<path class="st6" d="M207.262,87.351c0-16.351,0-28.063,0-43.792c-0.014,0.006-0.026,0.014-0.04,0.019l-3.37,1.295
			c0,10.494,0,32.903,0,42.478c-1.213,0.621-2.045,1.881-2.045,3.338v8.979h7.501v-8.979
			C209.308,89.231,208.476,87.971,207.262,87.351z"/>
	</g>
	<g>
		<path class="st2" d="M123.335,8.865L48.778,37.507c-2.781,1.068-2.781,5.003,0,6.071l74.557,28.642
			c3.003,1.154,6.327,1.154,9.33,0l74.557-28.642c2.781-1.068,2.781-5.003,0-6.071L132.665,8.865
			C129.662,7.712,126.338,7.712,123.335,8.865z"/>
	</g>
	<g>
		<path class="st1" d="M128,75.086c-1.823,0-3.646-0.333-5.382-1L48.061,45.445c-2.046-0.786-3.369-2.711-3.369-4.903
			s1.322-4.117,3.369-4.903l74.558-28.642c3.471-1.333,7.293-1.333,10.764,0l74.558,28.641c2.046,0.786,3.369,2.711,3.369,4.903
			s-1.322,4.117-3.369,4.903l-74.558,28.642C131.646,74.753,129.823,75.086,128,75.086z M128,9.999
			c-1.337,0-2.674,0.245-3.947,0.733v0L49.495,39.374c-0.725,0.278-0.803,0.91-0.803,1.168s0.078,0.89,0.803,1.168l74.558,28.642
			c2.545,0.979,5.35,0.979,7.895,0l74.558-28.642c0.725-0.278,0.803-0.91,0.803-1.168s-0.078-0.89-0.803-1.168l-74.558-28.642
			C130.675,10.243,129.337,9.999,128,9.999z M123.335,8.865h0.01H123.335z"/>
	</g>
	<g>
		<path class="st1" d="M128,75.086c-1.823,0-3.646-0.333-5.382-1L48.061,45.445c-2.046-0.786-3.369-2.711-3.369-4.903
			s1.322-4.117,3.369-4.903l74.558-28.642c3.471-1.333,7.293-1.333,10.764,0l74.558,28.641c2.046,0.786,3.369,2.711,3.369,4.903
			s-1.322,4.117-3.369,4.903l-74.558,28.642C131.646,74.753,129.823,75.086,128,75.086z M128,9.999
			c-1.337,0-2.674,0.245-3.947,0.733v0L49.495,39.374c-0.725,0.278-0.803,0.91-0.803,1.168s0.078,0.89,0.803,1.168l74.558,28.642
			c2.545,0.979,5.35,0.979,7.895,0l74.558-28.642c0.725-0.278,0.803-0.91,0.803-1.168s-0.078-0.89-0.803-1.168l-74.558-28.642
			C130.675,10.243,129.337,9.999,128,9.999z M123.335,8.865h0.01H123.335z"/>
	</g>
	<g>
		<path class="st2" d="M174.733,44.67H81.576c-1.716,0-3.108,1.391-3.108,3.108v18.11h0c0,4.723,22.245,8.553,49.686,8.553
			c27.441,0,49.686-3.829,49.686-8.553h0.001v-18.11C177.841,46.062,176.45,44.67,174.733,44.67z"/>
	</g>
	<g>
		<path class="st1" d="M128.154,76.44c-13.382,0-25.979-0.9-35.473-2.534c-14.371-2.474-16.213-5.584-16.213-8.019v-18.11
			c0-2.816,2.291-5.108,5.107-5.108h93.158c2.816,0,5.108,2.292,5.108,5.108v18.11c-0.001,2.435-1.844,5.545-16.215,8.019
			C154.134,75.541,141.536,76.44,128.154,76.44z M80.468,65.787c1.363,2.415,18.263,6.654,47.686,6.654
			c29.422,0,46.322-4.239,47.686-6.654l0.001-18.009c0-0.611-0.497-1.108-1.108-1.108H81.576c-0.611,0-1.107,0.497-1.107,1.108
			V65.787z"/>
	</g>
</g>
</svg>
