<?xml version="1.0" encoding="utf-8"?>
<!-- Generator: Adobe Illustrator 22.1.0, SVG Export Plug-In . SVG Version: 6.00 Build 0)  -->
<svg version="1.1" id="Layer_1" xmlns="http://www.w3.org/2000/svg" xmlns:xlink="http://www.w3.org/1999/xlink" x="0px" y="0px"
	 viewBox="0 0 256 256" style="enable-background:new 0 0 256 256;" xml:space="preserve">
<style type="text/css">
	.st0{fill:#E0EBFC;}
	.st1{fill:#3762CC;}
	.st2{fill:#4671C6;}
	.st3{fill:#6BDDDD;}
	.st4{fill:#F9A7A7;}
	.st5{fill:#A4C9FF;}
	.st6{fill:#FFEA92;}
	.st7{fill:#F9CFCF;}
	.st8{fill:#FFE164;}
	.st9{fill:#FFDC85;}
	.st10{fill:#FFEA94;}
	.st11{fill:#B9BEFC;}
	.st12{fill:#EAA97D;}
</style>
<g>
	<g>
		<path class="st7" d="M127.693,177.882c-8.385,0-16.281-2.055-23.218-5.673v12.98h46.391v-12.956
			C143.94,175.836,136.06,177.882,127.693,177.882z"/>
	</g>
	<g>
		<path class="st1" d="M150.866,187.188h-46.392c-1.104,0-2-0.896-2-2v-12.979c0-0.699,0.365-1.348,0.963-1.71
			c0.599-0.364,1.344-0.386,1.962-0.063c6.832,3.563,14.541,5.446,22.294,5.446c7.736,0,15.431-1.875,22.25-5.424
			c0.621-0.321,1.363-0.297,1.961,0.064c0.597,0.363,0.962,1.011,0.962,1.71v12.956
			C152.866,186.293,151.971,187.188,150.866,187.188z M106.475,183.188h42.392v-7.777c-6.629,2.933-13.884,4.471-21.173,4.471
			c-7.306,0-14.577-1.545-21.219-4.49V183.188z"/>
	</g>
	<g>
		<path class="st3" d="M195.193,248h-135v-37.811c0-13.807,11.193-25,25-25h85c13.807,0,25,11.193,25,25V248z"/>
	</g>
	<g>
		<path class="st1" d="M195.193,250h-135c-1.104,0-2-0.896-2-2v-37.812c0-14.888,12.112-27,27-27h85c14.888,0,27,12.112,27,27V248
			C197.193,249.104,196.298,250,195.193,250z M62.193,246h131v-35.812c0-12.683-10.317-23-23-23h-85c-12.683,0-23,10.317-23,23V246z
			"/>
	</g>
	<g>
		<path class="st5" d="M77.723,109.54v-4.68c0-12.283,4.523-23.514,11.996-32.169H77.162c-8.284,0-15,6.716-15,15v36.94
			C62.162,116.276,69.046,109.363,77.723,109.54z"/>
	</g>
	<g>
		<path class="st5" d="M177.664,104.86v4.68c8.113-0.165,14.664,5.872,15.474,13.496V87.691c0-8.284-6.716-15-15-15h-12.471
			C173.14,81.347,177.664,92.577,177.664,104.86z"/>
	</g>
	<g>
		<path class="st1" d="M62.161,126.632c-1.104,0-2-0.896-2-2v-36.94c0-9.374,7.626-17,17-17h12.558c0.782,0,1.493,0.456,1.818,1.168
			c0.326,0.711,0.207,1.547-0.305,2.139c-7.422,8.598-11.51,19.558-11.51,30.862v4.68c0,0.537-0.217,1.053-0.601,1.429
			s-0.898,0.584-1.44,0.571c-3.623-0.08-7.032,1.266-9.591,3.772c-2.534,2.482-3.93,5.792-3.93,9.319
			C64.161,125.736,63.266,126.632,62.161,126.632z M77.161,74.691c-7.168,0-13,5.832-13,13v25.98c0.354-0.42,0.731-0.826,1.13-1.217
			c2.847-2.789,6.493-4.469,10.432-4.84v-2.755c0-10.856,3.475-21.42,9.855-30.169H77.161z"/>
	</g>
	<g>
		<path class="st1" d="M193.136,125.036c-1.016,0-1.878-0.767-1.987-1.788c-0.725-6.815-6.518-11.85-13.444-11.708
			c-0.53,0.008-1.057-0.195-1.44-0.571s-0.601-0.892-0.601-1.429v-4.68c0-11.305-4.088-22.265-11.51-30.862
			c-0.512-0.592-0.631-1.428-0.305-2.139c0.325-0.712,1.036-1.168,1.818-1.168h12.471c9.374,0,17,7.626,17,17v35.345
			c0,1.063-0.832,1.94-1.895,1.997C193.208,125.035,193.172,125.036,193.136,125.036z M179.663,107.614
			c4.583,0.43,8.648,2.61,11.475,5.91V87.691c0-7.168-5.832-13-13-13h-8.33c6.381,8.749,9.855,19.313,9.855,30.169V107.614z"/>
	</g>
	<g>
		<path class="st3" d="M32.821,107.573c0-12.016,0-40.139,0-53.305l-4.228-1.625c-0.018-0.007-0.032-0.017-0.05-0.024
			c0,19.738,0,34.435,0,54.953c-1.523,0.779-2.567,2.36-2.567,4.188v11.266h9.412v-11.266
			C35.388,109.934,34.343,108.352,32.821,107.573z"/>
	</g>
	<g>
		<path class="st7" d="M177.663,109.54v-4.679c0-27.349-22.372-49.52-49.97-49.52l0,0c-27.598,0-49.97,22.171-49.97,49.52v4.679
			c-8.677-0.176-15.561,6.736-15.561,15.092c0,8.922,7.789,15.98,16.881,15.018c5.157,21.909,24.975,38.232,48.651,38.232
			c23.677,0,43.494-16.325,48.651-38.232c9.079,0.96,16.881-6.084,16.881-15.018C193.225,116.272,186.335,109.364,177.663,109.54z"
			/>
	</g>
	<g>
		<path class="st1" d="M153.636,135.998L153.636,135.998c-3.876,0-7.018-3.142-7.018-7.018v-7.486c0-3.876,3.142-7.018,7.018-7.018
			h0c3.876,0,7.018,3.142,7.018,7.018v7.486C160.654,132.856,157.512,135.998,153.636,135.998z"/>
	</g>
	<g>
		<path class="st1" d="M101.738,135.998L101.738,135.998c-3.876,0-7.018-3.142-7.018-7.018v-7.486c0-3.876,3.142-7.018,7.018-7.018
			h0c3.876,0,7.018,3.142,7.018,7.018v7.486C108.755,132.856,105.613,135.998,101.738,135.998z"/>
	</g>
	<g>
		<polygon class="st0" points="127.671,185.189 96.281,185.189 127.671,225.214 159.06,185.189 		"/>
	</g>
	<g>
		<path class="st4" d="M127.682,185.203l-8.209,10.466c0.241,1.126,0.015,0.015,1.447,7.184h6.751h6.751
			c1.458-7.3,1.211-6.084,1.452-7.206L127.682,185.203z"/>
	</g>
	<g>
		<path class="st4" d="M118.938,214.08l8.732,11.135l8.732-11.135l-1.981-11.226c-4.892,0-8.626,0-13.502,0L118.938,214.08z"/>
	</g>
	<g>
		<path class="st1" d="M134.422,204.854H120.92c-0.953,0-1.774-0.673-1.961-1.608l-0.644-3.22c-0.618-3.099-0.618-3.099-0.732-3.63
			l-0.066-0.307c-0.124-0.58,0.016-1.187,0.383-1.653l8.209-10.467c0.758-0.967,2.389-0.967,3.146,0l8.191,10.444
			c0.367,0.467,0.507,1.072,0.383,1.653l-0.071,0.328c-0.107,0.497-0.107,0.497-0.746,3.702l-0.629,3.148
			C136.196,204.181,135.376,204.854,134.422,204.854z M122.561,200.854h10.221l0.308-1.539c0.393-1.968,0.548-2.748,0.634-3.168
			l-6.041-7.702l-6.059,7.725c0.085,0.417,0.235,1.171,0.615,3.073L122.561,200.854z"/>
	</g>
	<g>
		<path class="st1" d="M127.671,227.215c-0.614,0-1.194-0.282-1.574-0.766l-8.732-11.135c-0.351-0.447-0.494-1.022-0.396-1.582
			l1.981-11.227c0.169-0.956,0.999-1.652,1.97-1.652h13.502c0.971,0,1.801,0.696,1.97,1.652l1.98,11.227
			c0.099,0.56-0.045,1.135-0.396,1.582l-8.731,11.135C128.865,226.933,128.285,227.215,127.671,227.215z M121.063,213.549
			l6.607,8.425l6.606-8.425l-1.533-8.695h-10.146L121.063,213.549z"/>
	</g>
	<g>
		<path class="st1" d="M127.671,227.215c-0.614,0-1.194-0.282-1.574-0.766l-31.39-40.026c-0.472-0.603-0.559-1.421-0.225-2.109
			c0.335-0.688,1.033-1.125,1.799-1.125h62.778c0.766,0,1.464,0.437,1.799,1.125c0.334,0.688,0.247,1.507-0.225,2.109
			l-31.389,40.026C128.865,226.933,128.285,227.215,127.671,227.215z M100.392,187.188l27.279,34.785l27.278-34.785H100.392z"/>
	</g>
	<g>
		<path class="st1" d="M127.693,179.882c-23.714,0-44.113-15.601-50.187-38.146c-0.029,0.001-0.059,0.001-0.087,0.001
			c-4.27,0-8.415-1.567-11.598-4.432c-3.598-3.237-5.661-7.856-5.661-12.673c0-4.611,1.822-8.936,5.13-12.177
			c2.847-2.789,6.493-4.469,10.432-4.84v-2.755c0-28.408,23.313-51.52,51.971-51.52c28.656,0,51.97,23.111,51.97,51.52v2.755
			c3.939,0.371,7.586,2.052,10.433,4.842c3.308,3.241,5.129,7.564,5.129,12.175c0,4.816-2.063,9.436-5.66,12.673
			c-3.183,2.863-7.329,4.431-11.598,4.432c-0.028,0-0.058,0-0.087-0.001C171.807,164.281,151.406,179.882,127.693,179.882z
			 M79.045,137.65c0.917,0,1.73,0.631,1.945,1.542c5.084,21.603,24.289,36.689,46.703,36.689s41.619-15.087,46.703-36.689
			c0.231-0.98,1.167-1.625,2.157-1.531c3.783,0.404,7.54-0.815,10.335-3.33c2.756-2.479,4.336-6.015,4.336-9.699
			c0-3.526-1.396-6.836-3.929-9.318c-2.558-2.506-5.922-3.847-9.593-3.773c-0.49,0.008-1.056-0.195-1.439-0.571
			s-0.601-0.892-0.601-1.429v-4.68c0-26.202-21.52-47.52-47.97-47.52c-26.451,0-47.971,21.317-47.971,47.52v4.68
			c0,0.537-0.217,1.053-0.601,1.429s-0.898,0.584-1.44,0.571c-3.623-0.08-7.032,1.266-9.591,3.772
			c-2.534,2.482-3.93,5.792-3.93,9.319c0,3.684,1.581,7.22,4.337,9.7c2.796,2.516,6.565,3.726,10.335,3.329
			C78.904,137.654,78.975,137.65,79.045,137.65z"/>
	</g>
	<g>
		<path class="st1" d="M101.737,147.02c-12.01,0-21.781-9.771-21.781-21.782c0-12.01,9.771-21.781,21.781-21.781
			c12.011,0,21.782,9.771,21.782,21.781C123.52,137.248,113.748,147.02,101.737,147.02z M101.737,107.456
			c-9.805,0-17.781,7.977-17.781,17.781s7.977,17.782,17.781,17.782s17.782-7.978,17.782-17.782S111.542,107.456,101.737,107.456z"
			/>
	</g>
	<g>
		<path class="st1" d="M153.636,147.02c-12.01,0-21.781-9.771-21.781-21.782c0-12.01,9.771-21.781,21.781-21.781
			c12.011,0,21.782,9.771,21.782,21.781C175.418,137.248,165.646,147.02,153.636,147.02z M153.636,107.456
			c-9.805,0-17.781,7.977-17.781,17.781s7.977,17.782,17.781,17.782s17.782-7.978,17.782-17.782S163.44,107.456,153.636,107.456z"/>
	</g>
	<g>
		<path class="st1" d="M136.444,128.237h-17.548c-1.657,0-3-1.343-3-3s1.343-3,3-3h17.548c1.657,0,3,1.343,3,3
			S138.102,128.237,136.444,128.237z"/>
	</g>
	<g>
		<polygon class="st0" points="96.281,185.189 111.986,205.215 127.693,185.189 104.497,179.976 		"/>
	</g>
	<g>
		<polygon class="st0" points="150.866,179.976 127.671,185.189 143.366,205.2 159.06,185.189 		"/>
	</g>
	<g>
		<path class="st1" d="M111.986,207.215L111.986,207.215c-0.614,0-1.194-0.282-1.574-0.766l-15.705-20.026
			c-0.349-0.444-0.492-1.017-0.396-1.573s0.422-1.047,0.899-1.35l8.216-5.213c0.447-0.285,0.99-0.381,1.51-0.263l23.196,5.213
			c0.67,0.15,1.215,0.634,1.445,1.28c0.23,0.646,0.113,1.365-0.311,1.905l-15.707,20.026
			C113.181,206.933,112.601,207.215,111.986,207.215z M99.219,185.693l12.768,16.28l12.18-15.528l-19.298-4.337L99.219,185.693z"/>
	</g>
	<g>
		<path class="st1" d="M143.366,207.2c-0.614,0-1.194-0.282-1.573-0.766l-15.695-20.012c-0.424-0.54-0.541-1.26-0.311-1.905
			c0.23-0.646,0.775-1.13,1.445-1.28l23.195-5.213c0.516-0.12,1.063-0.023,1.512,0.264l8.193,5.213
			c0.477,0.303,0.803,0.794,0.898,1.35c0.095,0.557-0.05,1.128-0.397,1.572l-15.693,20.012
			C144.561,206.918,143.98,207.2,143.366,207.2z M131.198,186.445l12.168,15.514l12.758-16.268l-5.63-3.582L131.198,186.445z"/>
	</g>
	<g>
		<path class="st2" d="M133.853,9.086l93.554,35.939c3.49,1.341,3.49,6.278,0,7.618l-93.554,35.939
			c-3.768,1.447-7.939,1.447-11.707,0L28.593,52.643c-3.49-1.341-3.49-6.278,0-7.618l93.554-35.939
			C125.915,7.638,130.085,7.638,133.853,9.086z"/>
	</g>
	<g>
		<path class="st1" d="M128,91.67c-2.227,0-4.452-0.406-6.571-1.221L27.876,54.511c-2.37-0.91-3.901-3.139-3.901-5.677
			s1.531-4.767,3.901-5.677L121.43,7.219c4.237-1.628,8.904-1.629,13.142,0l93.553,35.938c2.37,0.91,3.901,3.139,3.901,5.677
			s-1.531,4.767-3.901,5.677L134.57,90.449C132.452,91.263,130.226,91.67,128,91.67z M128,9.998c-1.74,0-3.48,0.318-5.136,0.955
			L29.31,46.892c-1.238,0.476-1.335,1.607-1.335,1.942s0.097,1.467,1.335,1.942l93.554,35.938c3.313,1.273,6.962,1.273,10.272,0
			l93.555-35.938c1.238-0.476,1.335-1.607,1.335-1.942s-0.097-1.467-1.335-1.942l-93.554-35.938h-0.001
			C131.48,10.316,129.74,9.998,128,9.998z"/>
	</g>
	<g>
		<path class="st2" d="M185.644,54.145H69.664c-2.138,0-3.871,1.733-3.871,3.871v22.566h0.001c0,5.886,27.695,10.657,61.86,10.657
			c34.164,0,61.86-4.771,61.86-10.657V58.015C189.514,55.877,187.781,54.145,185.644,54.145z"/>
	</g>
	<g>
		<path class="st1" d="M127.654,93.238c-16.634,0-32.288-1.119-44.081-3.15c-17.728-3.055-19.778-6.889-19.778-9.507l-0.001-22.564
			c0-3.238,2.633-5.872,5.869-5.872h115.981c3.236,0,5.87,2.634,5.87,5.872v22.564c0,2.618-2.051,6.452-19.779,9.507
			C159.943,92.119,144.288,93.238,127.654,93.238z M69.663,56.145c-1.03,0-1.869,0.84-1.869,1.872v22.564
			c0.005,0.011,1.117,3.019,17.257,5.7c11.48,1.906,26.611,2.957,42.604,2.957s31.122-1.05,42.604-2.957
			c16.14-2.681,17.252-5.689,17.259-5.719l-0.002-22.546c0-1.032-0.839-1.872-1.87-1.872H69.663z"/>
	</g>
	<g>
		<path class="st5" d="M151.882,158.574h-12.875c-6.282,0-11.375-5.093-11.375-11.375v-4.553h8.786
			c8.54,0,15.464,6.923,15.464,15.464V158.574z"/>
	</g>
	<g>
		<path class="st5" d="M103.382,158.574h12.875c6.282,0,11.375-5.093,11.375-11.375v-4.553h-8.786
			c-8.54,0-15.464,6.923-15.464,15.464V158.574z"/>
	</g>
	<g>
		<path class="st1" d="M151.882,160.573h-12.875c-7.375,0-13.375-6-13.375-13.375v-4.553c0-1.104,0.896-2,2-2h8.786
			c9.63,0,17.464,7.834,17.464,17.464v0.464C153.882,159.678,152.986,160.573,151.882,160.573z M129.632,144.646v2.553
			c0,5.169,4.206,9.375,9.375,9.375h10.788c-0.765-6.703-6.473-11.928-13.377-11.928H129.632z"/>
	</g>
	<g>
		<path class="st1" d="M116.257,160.573h-12.875c-1.104,0-2-0.896-2-2v-0.464c0-9.63,7.834-17.464,17.464-17.464h8.786
			c1.104,0,2,0.896,2,2v4.553C129.632,154.573,123.632,160.573,116.257,160.573z M105.469,156.573h10.788
			c5.169,0,9.375-4.206,9.375-9.375v-2.553h-6.786C111.941,144.646,106.233,149.87,105.469,156.573z"/>
	</g>
</g>
</svg>
