<?xml version="1.0" encoding="utf-8"?>
<!-- Generator: Adobe Illustrator 22.1.0, SVG Export Plug-In . SVG Version: 6.00 Build 0)  -->
<svg version="1.1" id="Layer_1" xmlns="http://www.w3.org/2000/svg" xmlns:xlink="http://www.w3.org/1999/xlink" x="0px" y="0px"
	 viewBox="0 0 256 256" style="enable-background:new 0 0 256 256;" xml:space="preserve">
<style type="text/css">
	.st0{fill:#E0EBFC;}
	.st1{fill:#3762CC;}
	.st2{fill:#4671C6;}
	.st3{fill:#6BDDDD;}
	.st4{fill:#F9A7A7;}
	.st5{fill:#A4C9FF;}
	.st6{fill:#FFEA92;}
	.st7{fill:#F9CFCF;}
	.st8{fill:#FFE164;}
	.st9{fill:#FFDC85;}
	.st10{fill:#FFEA94;}
	.st11{fill:#B9BEFC;}
	.st12{fill:#EAA97D;}
</style>
<g>
	<g>
		<g>
			<path class="st3" d="M228.331,196.728H93.362c-3.79,0-6.863-3.073-6.863-6.863V14.863c0-3.79,3.073-6.863,6.863-6.863h134.969
				c3.79,0,6.863,3.073,6.863,6.863v175.002C235.194,193.656,232.121,196.728,228.331,196.728z"/>
		</g>
		<g>
			<g>
				<path class="st0" d="M216.533,43.416H107.582c-2.527,0-4.575-2.048-4.575-4.575v0c0-2.527,2.048-4.575,4.575-4.575h108.951
					c2.527,0,4.575,2.048,4.575,4.575v0C221.109,41.367,219.06,43.416,216.533,43.416z"/>
			</g>
			<g>
				<path class="st0" d="M216.533,68.579H107.582c-2.527,0-4.575-2.048-4.575-4.575v0c0-2.527,2.048-4.575,4.575-4.575h108.951
					c2.527,0,4.575,2.048,4.575,4.575v0C221.109,66.531,219.06,68.579,216.533,68.579z"/>
			</g>
			<g>
				<path class="st0" d="M216.533,93.743H107.582c-2.527,0-4.575-2.048-4.575-4.575v0c0-2.527,2.048-4.575,4.575-4.575h108.951
					c2.527,0,4.575,2.048,4.575,4.575v0C221.109,91.695,219.06,93.743,216.533,93.743z"/>
			</g>
			<g>
				<path class="st0" d="M216.533,118.907H107.582c-2.527,0-4.575-2.048-4.575-4.575v0c0-2.527,2.048-4.575,4.575-4.575h108.951
					c2.527,0,4.575,2.048,4.575,4.575v0C221.109,116.858,219.06,118.907,216.533,118.907z"/>
			</g>
			<g>
				<path class="st0" d="M216.533,144.071H107.582c-2.527,0-4.575-2.048-4.575-4.575l0,0c0-2.527,2.048-4.575,4.575-4.575h108.951
					c2.527,0,4.575,2.048,4.575,4.575l0,0C221.109,142.022,219.06,144.071,216.533,144.071z"/>
			</g>
			<g>
				<path class="st0" d="M216.533,169.234H107.582c-2.527,0-4.575-2.048-4.575-4.575v0c0-2.527,2.048-4.575,4.575-4.575h108.951
					c2.527,0,4.575,2.048,4.575,4.575v0C221.109,167.186,219.06,169.234,216.533,169.234z"/>
			</g>
		</g>
		<g>
			<path class="st1" d="M228.331,198.728H93.362c-4.888,0-8.863-3.976-8.863-8.863V14.863C84.499,9.976,88.475,6,93.362,6h134.969
				c4.888,0,8.863,3.976,8.863,8.863v175.002C237.194,194.752,233.219,198.728,228.331,198.728z M93.362,10
				c-2.682,0-4.863,2.182-4.863,4.863v175.002c0,2.681,2.182,4.863,4.863,4.863h134.969c2.682,0,4.863-2.182,4.863-4.863V14.863
				c0-2.681-2.182-4.863-4.863-4.863H93.362z"/>
		</g>
	</g>
	<g>
		<g>
			<g>
				<path class="st4" d="M201.795,80.935c-19.275-19.275-50.568-19.345-69.757-0.156c-19.189,19.189-19.119,50.482,0.156,69.757
					c19.275,19.275,50.567,19.345,69.756,0.156C221.14,131.502,221.07,100.209,201.795,80.935z M192.304,141.044
					c-6.719,6.719-15.684,10.407-25.243,10.383c-9.551-0.023-18.524-3.749-25.267-10.492c-13.956-13.955-14.005-36.614-0.109-50.51
					c6.719-6.719,15.683-10.407,25.242-10.383c9.551,0.023,18.525,3.75,25.268,10.492c6.744,6.744,10.471,15.721,10.492,25.274
					C202.709,125.365,199.021,134.327,192.304,141.044z"/>
			</g>
			<g>
				<path class="st1" d="M167.216,167.036c-13.182,0.001-26.379-5.03-36.436-15.086c-9.699-9.699-15.057-22.598-15.088-36.32
					c-0.03-13.726,5.272-26.605,14.933-36.265c9.631-9.631,22.465-14.932,36.146-14.932c0.041,0,0.078,0,0.119,0
					c13.723,0.031,26.621,5.389,36.319,15.088l0,0l0,0c20.055,20.054,20.125,52.616,0.156,72.584
					C193.41,162.06,180.321,167.035,167.216,167.036z M166.771,68.433c-12.614,0-24.442,4.884-33.318,13.76
					c-8.901,8.902-13.789,20.773-13.761,33.427c0.028,12.658,4.971,24.555,13.916,33.501c18.497,18.495,48.52,18.564,66.929,0.156
					c18.409-18.41,18.339-48.434-0.156-66.928l0,0c-8.945-8.945-20.843-13.888-33.501-13.916
					C166.844,68.433,166.808,68.433,166.771,68.433z M167.152,153.427c-0.032,0-0.063,0-0.096,0
					c-10.084-0.025-19.558-3.959-26.676-11.078c-7.126-7.126-11.063-16.604-11.085-26.688c-0.021-10.087,3.876-19.551,10.976-26.65
					c7.075-7.076,16.507-10.969,26.565-10.969c0.032,0,0.063,0,0.096,0c10.083,0.024,19.557,3.958,26.677,11.078
					c7.121,7.121,11.056,16.598,11.078,26.684c0.022,10.091-3.873,19.557-10.969,26.653l0,0
					C186.643,149.534,177.211,153.427,167.152,153.427z M166.837,82.042c-8.991,0-17.417,3.477-23.737,9.797
					c-6.342,6.341-9.823,14.799-9.804,23.814c0.02,9.018,3.54,17.495,9.913,23.868c6.366,6.366,14.839,9.884,23.857,9.906
					c9.024-0.009,17.482-3.457,23.824-9.797c6.338-6.338,9.817-14.797,9.797-23.816c-0.021-9.021-3.538-17.497-9.906-23.865
					c-6.367-6.366-14.84-9.885-23.858-9.906C166.895,82.042,166.865,82.042,166.837,82.042z M192.305,141.044h0.01H192.305z"/>
			</g>
			<g>
				<path class="st2" d="M245.247,193.987L245.247,193.987c-3.655,3.655-9.582,3.655-13.237,0l-26.14-26.14
					c-1.084-1.084-1.084-2.84,0-3.924l9.313-9.313c1.084-1.084,2.84-1.084,3.924,0l26.14,26.14
					C248.902,184.405,248.902,190.331,245.247,193.987z"/>
			</g>
			<g>
				<path class="st1" d="M238.628,198.723c-2.909,0-5.817-1.107-8.032-3.322l-26.141-26.14c-1.861-1.862-1.861-4.89,0-6.752
					l9.313-9.313c0.902-0.902,2.102-1.398,3.376-1.398c1.276,0,2.475,0.497,3.376,1.398l26.141,26.14
					c4.429,4.429,4.43,11.636,0,16.065v0C244.446,197.615,241.537,198.723,238.628,198.723z M217.145,155.797
					c-0.119,0-0.351,0.029-0.548,0.227l-9.313,9.313c-0.302,0.302-0.302,0.793,0,1.096l26.141,26.14
					c2.869,2.869,7.538,2.869,10.409,0l0,0c2.869-2.87,2.869-7.54,0-10.409l-26.141-26.14
					C217.495,155.826,217.265,155.797,217.145,155.797z M245.247,193.987h0.01H245.247z"/>
			</g>
			<g>
				<path class="st0" d="M214.926,154.866l-8.864-8.865c-1.259,1.626-2.62,3.198-4.111,4.689c-1.491,1.491-3.063,2.852-4.689,4.111
					l8.864,8.864L214.926,154.866z"/>
			</g>
			<g>
				<path class="st1" d="M206.126,165.666c-0.512,0-1.023-0.195-1.414-0.586l-8.864-8.864c-0.406-0.406-0.618-0.967-0.582-1.541
					s0.317-1.104,0.771-1.455c1.657-1.282,3.129-2.572,4.5-3.943c1.371-1.372,2.661-2.843,3.942-4.5
					c0.352-0.454,0.882-0.735,1.455-0.772c0.583-0.035,1.136,0.176,1.541,0.582l8.864,8.865c0.781,0.781,0.781,2.047,0,2.828
					l-8.8,8.8C207.149,165.471,206.638,165.666,206.126,165.666z M200.248,154.96l5.878,5.877l5.972-5.971l-5.877-5.877
					c-0.927,1.102-1.871,2.131-2.855,3.116C202.396,153.074,201.353,154.03,200.248,154.96z"/>
			</g>
		</g>
	</g>
	<g>
		<path class="st0" d="M128.204,248H9.631v-34.122c0-14.033,11.376-25.408,25.408-25.408h67.756
			c14.033,0,25.408,11.376,25.408,25.408V248z"/>
	</g>
	<g>
		<path class="st1" d="M128.203,250H9.631c-1.104,0-2-0.896-2-2v-34.123c0-15.113,12.295-27.408,27.408-27.408h67.756
			c15.113,0,27.408,12.295,27.408,27.408V248C130.203,249.104,129.308,250,128.203,250z M11.631,246h114.572v-32.123
			c0-12.907-10.501-23.408-23.408-23.408H35.039c-12.907,0-23.408,10.501-23.408,23.408V246z"/>
	</g>
	<g>
		<path class="st1" d="M68.906,245.79C68.906,245.79,68.906,245.79,68.906,245.79c-0.706,0-1.359-0.372-1.72-0.978L34.31,189.49
			c-0.367-0.618-0.374-1.386-0.019-2.011s1.02-1.011,1.738-1.011h65.798c0.72,0,1.383,0.386,1.738,1.011
			c0.355,0.625,0.349,1.394-0.02,2.012l-32.921,55.321C70.265,245.418,69.611,245.79,68.906,245.79z M39.544,190.468l29.363,49.408
			l29.402-49.408H39.544z"/>
	</g>
	<g>
		<path class="st4" d="M68.929,188.469L68.929,188.469l-9.19,11.828l1.891,7.665c5.266,0,9.289,0,14.552,0l1.902-7.709
			L68.929,188.469z"/>
	</g>
	<g>
		<polygon class="st4" points="68.906,243.79 79.205,226.483 76.182,207.962 61.63,207.962 58.61,226.464 		"/>
	</g>
	<g>
		<path class="st1" d="M128.203,250H9.631c-1.104,0-2-0.896-2-2v-34.123c0-15.113,12.295-27.408,27.408-27.408h67.756
			c15.113,0,27.408,12.295,27.408,27.408V248C130.203,249.104,129.308,250,128.203,250z M11.631,246h114.572v-32.123
			c0-12.907-10.501-23.408-23.408-23.408H35.039c-12.907,0-23.408,10.501-23.408,23.408V246z"/>
	</g>
	<g>
		<path class="st1" d="M68.907,245.79c-0.531,0-1.056-0.211-1.442-0.614c-0.624-0.649-0.737-1.635-0.277-2.409l32.921-55.32
			c0.36-0.606,1.014-0.977,1.719-0.977h0.968c4.458,0,8.89,1.1,12.816,3.181c0.945,0.501,1.329,1.657,0.871,2.624l-15.131,31.915
			c-0.331,0.698-1.035,1.143-1.808,1.143h-3.877l2.43,1.449c0.617,0.368,0.989,1.039,0.976,1.758
			c-0.015,0.719-0.414,1.375-1.046,1.718L69.86,245.547C69.56,245.71,69.232,245.79,68.907,245.79z M102.964,190.47l-28.619,48.091
			l18.686-10.145l-5.648-3.367c-0.772-0.461-1.143-1.381-0.903-2.249c0.238-0.868,1.027-1.469,1.928-1.469h9.872l13.736-28.971
			C109.166,191.141,106.074,190.493,102.964,190.47z"/>
	</g>
	<g>
		<path class="st1" d="M68.906,245.79c-0.325,0-0.652-0.079-0.953-0.242l-28.166-15.292c-0.632-0.343-1.031-0.999-1.046-1.718
			c-0.014-0.719,0.358-1.39,0.976-1.758l2.43-1.449H38.27c-0.772,0-1.477-0.445-1.808-1.143l-15.127-31.906
			c-0.458-0.966-0.075-2.122,0.87-2.624c3.931-2.087,8.368-3.19,12.834-3.19h0.993c0.705,0,1.358,0.372,1.72,0.978l32.875,55.32
			c0.459,0.774,0.346,1.76-0.278,2.409C69.962,245.578,69.437,245.79,68.906,245.79z M44.783,228.417l18.692,10.149L34.895,190.47
			c-3.126,0.02-6.231,0.671-9.092,1.898l13.732,28.964h9.872c0.9,0,1.689,0.601,1.928,1.469c0.239,0.868-0.131,1.788-0.903,2.249
			L44.783,228.417z"/>
	</g>
	<g>
		<polygon class="st0" points="45.418,183.183 68.929,188.468 50.288,212.461 36.03,188.468 		"/>
	</g>
	<g>
		<polygon class="st0" points="92.439,183.183 68.928,188.468 87.569,212.461 101.827,188.468 		"/>
	</g>
	<g>
		<path class="st1" d="M50.288,214.461c-0.041,0-0.083-0.001-0.124-0.004c-0.66-0.041-1.258-0.406-1.596-0.974L34.31,189.49
			c-0.274-0.463-0.352-1.018-0.213-1.538c0.14-0.52,0.482-0.962,0.951-1.227l9.389-5.285c0.432-0.243,0.938-0.318,1.42-0.208
			l23.512,5.284c0.668,0.15,1.213,0.631,1.444,1.275c0.23,0.645,0.116,1.362-0.304,1.903l-18.642,23.993
			C51.487,214.177,50.903,214.461,50.288,214.461z M38.795,189.207l11.714,19.711l14.909-19.189l-19.688-4.425L38.795,189.207z"/>
	</g>
	<g>
		<path class="st1" d="M87.569,214.461c-0.615,0-1.199-0.284-1.579-0.773l-18.642-23.993c-0.42-0.541-0.534-1.258-0.304-1.903
			c0.231-0.644,0.776-1.125,1.444-1.275l23.512-5.284c0.479-0.11,0.988-0.035,1.42,0.208l9.388,5.285
			c0.469,0.264,0.812,0.707,0.951,1.227c0.139,0.521,0.062,1.075-0.213,1.538l-14.258,23.993c-0.338,0.569-0.936,0.934-1.596,0.975
			C87.652,214.459,87.61,214.461,87.569,214.461z M72.439,189.729l14.909,19.188l11.713-19.71l-6.934-3.903L72.439,189.729z"/>
	</g>
	<g>
		<path class="st1" d="M76.182,209.962H61.63c-0.92,0-1.722-0.627-1.941-1.521l-1.892-7.665c-0.147-0.594-0.014-1.223,0.362-1.706
			l9.19-11.828c0.379-0.488,0.962-0.773,1.579-0.773l0,0c0.617,0,1.2,0.285,1.579,0.773l9.155,11.784
			c0.376,0.483,0.51,1.112,0.362,1.706l-1.902,7.709C77.903,209.335,77.102,209.962,76.182,209.962z M63.196,205.962h11.419
			l1.295-5.248l-6.981-8.986l-7.017,9.03L63.196,205.962z"/>
	</g>
	<g>
		<path class="st1" d="M68.906,245.79C68.906,245.79,68.906,245.79,68.906,245.79c-0.706,0-1.359-0.372-1.72-0.978L56.89,227.486
			c-0.24-0.404-0.33-0.88-0.254-1.344l3.021-18.502c0.157-0.967,0.993-1.678,1.974-1.678h14.552c0.98,0,1.816,0.71,1.974,1.678
			l3.023,18.521c0.076,0.464-0.015,0.941-0.255,1.345l-10.299,17.307C70.265,245.418,69.611,245.79,68.906,245.79z M60.7,226.068
			l8.207,13.809l8.207-13.791l-2.633-16.124H63.33L60.7,226.068z"/>
	</g>
	<g>
		<path class="st7" d="M68.906,180.281c-8.583,0-16.616-2.317-23.512-6.342c0,3.265,0,6.269,0,9.258l0.024-0.013l23.512,5.284l0,0
			l23.488-5.279c0-2.925,0-5.891,0-9.25C85.522,177.964,77.49,180.281,68.906,180.281z"/>
	</g>
	<g>
		<path class="st1" d="M68.93,190.468c-0.147,0-0.294-0.016-0.438-0.049l-23.364-5.251c-0.255-0.035-0.503-0.119-0.73-0.251
			c-0.613-0.358-1.002-1.009-1.002-1.72v-9.258c0-0.716,0.383-1.378,1.004-1.734c0.622-0.357,1.387-0.354,2.005,0.007
			c6.802,3.971,14.583,6.069,22.503,6.069c7.918,0,15.7-2.099,22.504-6.07c0.619-0.361,1.383-0.364,2.004-0.007
			c0.621,0.356,1.004,1.018,1.004,1.734v9.25c0,0.936-0.648,1.746-1.562,1.951l-23.488,5.279
			C69.224,190.452,69.077,190.468,68.93,190.468z M47.395,181.578l21.535,4.84l21.488-4.83v-4.307c-6.661,3.279-14.031,5-21.512,5
			c-7.482,0-14.852-1.72-21.512-4.999V181.578z"/>
	</g>
	<g>
		<path class="st7" d="M115.34,116.775v-4.348c0-25.414-20.789-46.016-46.434-46.016l0,0c-25.645,0-46.434,20.602-46.434,46.016
			v4.348c-8.063-0.164-14.46,6.26-14.46,14.024c0,8.291,7.238,14.849,15.686,13.955c4.792,20.359,23.208,35.527,45.208,35.527
			c22.002,0,40.416-15.169,45.208-35.527c8.437,0.892,15.686-5.653,15.686-13.955C129.8,123.031,123.398,116.612,115.34,116.775z"/>
	</g>
	<g>
		<path class="st4" d="M77.25,163.965L77.25,163.965c-4.273,4.307-12.528,4.206-16.7,0l0,0c-2.567-2.588-2.216-4.826-2.216-8.129
			h21.132C79.466,159.019,79.856,161.338,77.25,163.965z"/>
	</g>
	<g>
		<path class="st1" d="M93.015,145.319c-3.598,0-6.521-2.916-6.521-6.521v-6.956c0-3.602,2.92-6.521,6.521-6.521
			c3.598,0,6.521,2.916,6.521,6.521v6.956C99.536,142.399,96.616,145.319,93.015,145.319z"/>
	</g>
	<g>
		<path class="st1" d="M44.789,145.319L44.789,145.319c-3.602,0-6.521-2.92-6.521-6.521v-6.956c0-3.602,2.92-6.521,6.521-6.521h0
			c3.601,0,6.521,2.92,6.521,6.521v6.956C51.31,142.399,48.391,145.319,44.789,145.319z"/>
	</g>
	<g>
		<path class="st1" d="M68.906,182.281c-22.063,0-41.048-14.492-46.744-35.447c-3.991-0.007-7.866-1.476-10.843-4.153
			c-3.373-3.036-5.308-7.366-5.308-11.882c0-4.323,1.708-8.377,4.809-11.416c2.638-2.584,6.009-4.153,9.651-4.525v-2.431
			c0-26.476,21.728-48.016,48.435-48.016c26.706,0,48.434,21.54,48.434,48.016v2.431c3.643,0.372,7.014,1.941,9.651,4.526
			c3.101,3.039,4.809,7.093,4.809,11.415c0,4.516-1.934,8.846-5.307,11.881c-2.976,2.678-6.853,4.147-10.844,4.154
			C109.953,167.789,90.969,182.281,68.906,182.281z M23.7,142.755c0.917,0,1.73,0.63,1.945,1.542
			c4.709,20.009,22.499,33.984,43.261,33.984s38.551-13.975,43.26-33.984c0.231-0.981,1.164-1.642,2.157-1.531
			c3.477,0.367,6.927-0.749,9.495-3.06c2.53-2.277,3.981-5.523,3.981-8.907c0-3.239-1.281-6.278-3.608-8.558
			c-2.351-2.303-5.501-3.524-8.811-3.466c-0.554,0.018-1.057-0.194-1.44-0.571s-0.601-0.891-0.601-1.429v-4.348
			c0-24.271-19.933-44.016-44.434-44.016s-44.435,19.745-44.435,44.016v4.348c0,0.538-0.217,1.052-0.601,1.429
			c-0.384,0.376-0.909,0.591-1.44,0.571c-3.307-0.057-6.462,1.164-8.811,3.466c-2.327,2.28-3.608,5.32-3.608,8.559
			c0,3.383,1.452,6.63,3.983,8.908c2.566,2.311,6.021,3.425,9.493,3.059C23.559,142.758,23.63,142.755,23.7,142.755z"/>
	</g>
	<g>
		<path class="st2" d="M126.425,92.403c0-32.532-35.387-51.158-57.519-37.955c-21.728-12.962-57.519,4.979-57.519,37.955
			c0,24.267-0.166,24.473,0.562,28.702c2.625-2.722,6.345-4.415,10.523-4.33c0-6.757-0.001-3.641,0.023-5.101H66.64
			c12.233,0,22.15-9.917,22.15-22.15V84.11c0,14.877,11.788,26.995,26.533,27.538c0.02,1.172,0.017-0.983,0.017,5.127
			c4.176-0.085,7.897,1.608,10.523,4.33C126.59,116.879,126.425,116.711,126.425,92.403z"/>
	</g>
	<g>
		<path class="st1" d="M44.787,155.142c-11.238,0-20.382-9.143-20.382-20.382s9.144-20.382,20.382-20.382
			s20.382,9.144,20.382,20.382S56.025,155.142,44.787,155.142z M44.787,118.378c-9.033,0-16.382,7.349-16.382,16.382
			s7.349,16.382,16.382,16.382s16.382-7.349,16.382-16.382S53.82,118.378,44.787,118.378z"/>
	</g>
	<g>
		<path class="st1" d="M93.013,155.142c-11.238,0-20.382-9.143-20.382-20.382s9.144-20.382,20.382-20.382
			s20.382,9.144,20.382,20.382S104.251,155.142,93.013,155.142z M93.013,118.378c-9.033,0-16.382,7.349-16.382,16.382
			s7.349,16.382,16.382,16.382s16.382-7.349,16.382-16.382S102.046,118.378,93.013,118.378z"/>
	</g>
	<g>
		<path class="st1" d="M76.906,136.769h-16c-1.104,0-2-0.896-2-2s0.896-2,2-2h16c1.104,0,2,0.896,2,2S78.011,136.769,76.906,136.769
			z"/>
	</g>
	<g>
		<path class="st1" d="M68.918,168.657C68.917,168.657,68.917,168.657,68.918,168.657c-3.703,0-7.141-1.326-9.433-3.636
			c-2.726-2.747-2.695-5.247-2.66-8.142c0.005-0.336,0.009-0.683,0.009-1.043c0-0.829,0.672-1.5,1.5-1.5h21.132
			c0.828,0,1.5,0.671,1.5,1.5c0,0.369,0.006,0.726,0.011,1.073c0.041,2.75,0.08,5.348-2.661,8.112l-0.001,0
			C76.022,167.332,72.597,168.657,68.918,168.657z M59.82,157.336c-0.024,2.407,0.054,3.817,1.794,5.572
			c1.733,1.747,4.395,2.749,7.303,2.749h0.001c2.885,0,5.534-1.002,7.267-2.749l0,0c1.759-1.773,1.828-3.249,1.798-5.572H59.82z
			 M77.25,163.965h0.01H77.25z"/>
	</g>
	<g>
		<path class="st1" d="M125.863,123.105c-0.534,0-1.057-0.215-1.439-0.611c-2.382-2.469-5.621-3.772-9.043-3.719
			c-0.554,0.018-1.057-0.194-1.44-0.571s-0.601-0.891-0.601-1.429v-2.07c0-0.489,0-0.878,0-1.189
			c-10.553-1.057-19.37-7.563-23.69-16.649c-3.114,9.738-12.251,16.807-23.009,16.807H24.472c0,0.547,0,1.296,0,2.323v0.778
			c0,0.538-0.217,1.052-0.601,1.429s-0.909,0.591-1.44,0.571c-3.46-0.053-6.661,1.25-9.043,3.719
			c-0.523,0.542-1.306,0.745-2.028,0.523c-0.72-0.222-1.255-0.83-1.382-1.573c-0.623-3.623-0.621-4.432-0.601-17.943
			c0.004-3.005,0.01-6.647,0.01-11.099c0-16.079,8.413-30.456,22.505-38.458c12.269-6.967,26.331-7.621,37.015-1.8
			c10.692-5.831,24.707-5.208,36.892,1.711c14.168,8.045,22.627,22.455,22.627,38.546c0,4.46,0.006,8.108,0.01,11.116
			c0.021,13.497,0.022,14.305-0.601,17.925c-0.127,0.743-0.662,1.351-1.383,1.573C126.258,123.077,126.06,123.105,125.863,123.105z
			 M52.823,52.2c-6.263,0-12.842,1.751-18.957,5.224c-12.823,7.282-20.479,20.358-20.479,34.979c0,4.454-0.006,8.098-0.01,11.104
			c-0.013,8.161-0.018,11.573,0.113,13.768c2.098-1.336,4.472-2.161,6.981-2.417c0.002-1.447,0.011-2.31,0.058-2.86l-0.043-0.003
			c0.003-0.047,0.005-0.146,0.008-0.353c0.018-1.092,0.908-1.968,2-1.968h44.146c11.11,0,20.149-9.039,20.149-20.15V84.11
			c0-1.104,0.896-2,2-2s2,0.896,2,2c0,13.813,10.809,25.031,24.606,25.54c1.063,0.039,1.909,0.902,1.927,1.965
			c0.004,0.263,0.007,0.336,0.009,0.388c0.007,0.145,0.008,0.145,0.008,2.703v0.152c2.511,0.256,4.884,1.081,6.981,2.417
			c0.131-2.192,0.126-5.602,0.113-13.75c-0.004-3.01-0.01-6.66-0.01-11.123c0-14.633-7.702-27.742-20.603-35.068
			c-11.328-6.433-24.314-6.882-33.892-1.169c-0.631,0.376-1.418,0.376-2.049,0C63.44,53.516,58.251,52.2,52.823,52.2z"/>
	</g>
</g>
</svg>
