<?xml version="1.0" encoding="utf-8"?>
<!-- Generator: Adobe Illustrator 22.1.0, SVG Export Plug-In . SVG Version: 6.00 Build 0)  -->
<svg version="1.1" id="Layer_1" xmlns="http://www.w3.org/2000/svg" xmlns:xlink="http://www.w3.org/1999/xlink" x="0px" y="0px"
	 viewBox="0 0 256 256" style="enable-background:new 0 0 256 256;" xml:space="preserve">
<style type="text/css">
	.st0{fill:#E0EBFC;}
	.st1{fill:#3762CC;}
	.st2{fill:#4671C6;}
	.st3{fill:#6BDDDD;}
	.st4{fill:#F9A7A7;}
	.st5{fill:#A4C9FF;}
	.st6{fill:#FFEA92;}
	.st7{fill:#F9CFCF;}
	.st8{fill:#FFE164;}
	.st9{fill:#FFDC85;}
	.st10{fill:#FFEA94;}
	.st11{fill:#B9BEFC;}
	.st12{fill:#EAA97D;}
</style>
<g>
	<g>
		<path class="st5" d="M138.485,218.199c7.356-3.26,12.494-10.613,12.494-19.177c0-11.587-9.393-20.979-20.979-20.979
			c-11.587,0-20.979,9.393-20.979,20.979c0,8.564,5.138,15.917,12.494,19.177c-8.912,3.415-15.241,12.045-15.241,22.158v7.586
			h47.453v-7.586C153.727,230.244,147.397,221.614,138.485,218.199z"/>
	</g>
	<g>
		<path class="st1" d="M153.727,249.942h-47.453c-1.104,0-2-0.896-2-2v-7.586c0-9.225,5.046-17.744,12.889-22.288
			c-6.264-4.224-10.142-11.335-10.142-19.046c0-12.671,10.309-22.979,22.979-22.979s22.979,10.309,22.979,22.979
			c0,7.71-3.877,14.822-10.142,19.046c7.842,4.544,12.889,13.063,12.889,22.288v7.586
			C155.727,249.047,154.831,249.942,153.727,249.942z M108.273,245.942h43.453v-5.586c0-8.937-5.609-17.091-13.957-20.29
			c-0.756-0.289-1.263-1.007-1.284-1.815c-0.021-0.81,0.449-1.552,1.189-1.88c6.867-3.045,11.305-9.854,11.305-17.349
			c0-10.465-8.514-18.979-18.979-18.979s-18.979,8.515-18.979,18.979c0,7.494,4.438,14.305,11.305,17.349
			c0.74,0.328,1.209,1.07,1.189,1.88c-0.021,0.809-0.528,1.526-1.284,1.815c-8.348,3.199-13.957,11.354-13.957,20.29V245.942z"/>
	</g>
	<g>
		<path class="st5" d="M49.893,218.199c7.356-3.26,12.494-10.613,12.494-19.177c0-11.587-9.393-20.979-20.979-20.979
			c-11.587,0-20.979,9.393-20.979,20.979c0,8.564,5.138,15.917,12.494,19.177c-8.912,3.415-15.241,12.045-15.241,22.158v7.586
			h47.453v-7.586C65.134,230.244,58.804,221.614,49.893,218.199z"/>
	</g>
	<g>
		<path class="st1" d="M65.134,249.943H17.681c-1.104,0-2-0.896-2-2v-7.586c0-9.225,5.046-17.745,12.889-22.288
			c-6.264-4.224-10.141-11.335-10.141-19.047c0-12.671,10.309-22.979,22.979-22.979s22.979,10.309,22.979,22.979
			c0,7.712-3.877,14.823-10.141,19.047c7.842,4.543,12.889,13.063,12.889,22.288v7.586
			C67.134,249.048,66.239,249.943,65.134,249.943z M19.681,245.943h43.454v-5.586c0-8.938-5.609-17.092-13.958-20.291
			c-0.756-0.289-1.263-1.007-1.284-1.816c-0.021-0.81,0.449-1.551,1.189-1.879c6.867-3.044,11.304-9.854,11.304-17.349
			c0-10.465-8.514-18.979-18.979-18.979c-10.465,0-18.979,8.515-18.979,18.979c0,7.495,4.438,14.305,11.304,17.349
			c0.741,0.328,1.21,1.069,1.189,1.879c-0.021,0.81-0.528,1.527-1.284,1.816c-8.349,3.199-13.958,11.354-13.958,20.291V245.943z"/>
	</g>
	<g>
		<path class="st5" d="M223.078,218.199c7.356-3.26,12.494-10.613,12.494-19.177c0-11.587-9.393-20.979-20.979-20.979
			c-11.587,0-20.979,9.393-20.979,20.979c0,8.564,5.138,15.917,12.494,19.177c-8.912,3.415-15.241,12.045-15.241,22.158v7.586
			h47.453v-7.586C238.319,230.244,231.99,221.614,223.078,218.199z"/>
	</g>
	<g>
		<path class="st1" d="M238.319,249.942h-47.454c-1.104,0-2-0.896-2-2v-7.586c0-9.225,5.047-17.744,12.889-22.288
			c-6.264-4.224-10.142-11.335-10.142-19.046c0-12.671,10.309-22.979,22.979-22.979s22.979,10.309,22.979,22.979
			c0,7.711-3.877,14.822-10.142,19.046c7.842,4.544,12.889,13.063,12.889,22.288v7.586
			C240.319,249.047,239.424,249.942,238.319,249.942z M192.866,245.942h43.454v-5.586c0-8.937-5.609-17.091-13.958-20.29
			c-0.756-0.289-1.263-1.007-1.284-1.815c-0.021-0.81,0.449-1.552,1.189-1.88c6.867-3.044,11.305-9.854,11.305-17.349
			c0-10.465-8.514-18.979-18.979-18.979c-10.465,0-18.979,8.515-18.979,18.979c0,7.494,4.438,14.305,11.305,17.349
			c0.74,0.328,1.209,1.07,1.189,1.88c-0.021,0.809-0.528,1.526-1.284,1.815c-8.349,3.199-13.958,11.354-13.958,20.29V245.942z"/>
	</g>
	<g>
		<rect x="195.24" y="13.639" class="st6" width="11.883" height="15.352"/>
	</g>
	<g>
		<path class="st1" d="M207.123,30.991H195.24c-1.104,0-2-0.896-2-2V13.64c0-1.104,0.896-2,2-2h11.882c1.104,0,2,0.896,2,2v15.352
			C209.123,30.096,208.227,30.991,207.123,30.991z M197.24,26.991h7.882V15.64h-7.882V26.991z"/>
	</g>
	<g>
		<path class="st12" d="M212.705,34.573h-5.582V8.057h5.582c7.322,0,13.258,5.936,13.258,13.258v0
			C225.963,28.638,220.027,34.573,212.705,34.573z"/>
	</g>
	<g>
		<path class="st1" d="M212.705,36.573h-5.583c-1.104,0-2-0.896-2-2V8.057c0-1.104,0.896-2,2-2h5.583
			c8.413,0,15.258,6.845,15.258,15.259C227.963,29.729,221.118,36.573,212.705,36.573z M209.123,32.573h3.583
			c6.208,0,11.258-5.05,11.258-11.258s-5.05-11.259-11.258-11.259h-3.583V32.573z"/>
	</g>
	<g>
		<path class="st12" d="M42.677,8.328h5.322v25.28h-5.322c-6.981,0-12.64-5.659-12.64-12.64v0
			C30.037,13.987,35.696,8.328,42.677,8.328z"/>
	</g>
	<g>
		<path class="st2" d="M59.327,13.65v105.246c0,3.991,1.91,7.74,5.138,10.086l55.487,40.328c4.371,3.177,10.291,3.177,14.662,0
			l55.487-40.328c3.228-2.346,5.138-6.096,5.138-10.086V13.65C175.55,13.65,79.053,13.65,59.327,13.65z"/>
	</g>
	<g>
		<path class="st7" d="M88.63,146.545l31.323,22.765c4.371,3.177,10.291,3.177,14.662,0l31.323-22.765V13.65
			c-9.39,0-67.885,0-77.308,0V146.545z"/>
	</g>
	<g>
		<rect x="47.999" y="13.65" class="st6" width="11.328" height="14.636"/>
	</g>
	<g>
		<path class="st1" d="M47.999,35.607h-5.322c-8.072,0-14.64-6.567-14.64-14.64s6.567-14.64,14.64-14.64h5.322c1.104,0,2,0.896,2,2
			v25.279C49.999,34.712,49.104,35.607,47.999,35.607z M42.677,10.328c-5.867,0-10.64,4.772-10.64,10.64s4.773,10.64,10.64,10.64
			h3.322V10.328H42.677z"/>
	</g>
	<g>
		<path class="st1" d="M59.328,30.286H47.999c-1.104,0-2-0.896-2-2V13.65c0-1.104,0.896-2,2-2h11.329c1.104,0,2,0.896,2,2v14.636
			C61.328,29.391,60.432,30.286,59.328,30.286z M49.999,26.286h7.329V15.65h-7.329V26.286z"/>
	</g>
	<g>
		<path class="st1" d="M127.284,173.702c-2.981,0-5.962-0.925-8.506-2.773L63.29,130.601c-3.733-2.713-5.962-7.089-5.962-11.704
			V13.65c0-1.104,0.896-2,2-2H195.24c1.104,0,2,0.896,2,2v105.246c0,4.616-2.229,8.991-5.963,11.704l-55.487,40.328
			C133.247,172.777,130.265,173.702,127.284,173.702z M61.328,15.65v103.246c0,3.34,1.613,6.505,4.314,8.468l55.487,40.328
			c3.681,2.675,8.627,2.675,12.31,0l55.487-40.328c2.702-1.963,4.314-5.128,4.314-8.468V15.65H61.328z"/>
	</g>
	<g>
		<path class="st4" d="M143.059,91.867c8.698-8.698,8.698-22.852,0-31.55c-8.697-8.699-22.853-8.697-31.55,0
			c-8.698,8.698-8.698,22.852,0,31.55c3.457,3.458,7.778,5.518,12.274,6.227v10.837h-8.562c-1.933,0-3.5,1.567-3.5,3.5
			s1.567,3.5,3.5,3.5h8.562v10.581c0,1.933,1.567,3.5,3.5,3.5s3.5-1.567,3.5-3.5V115.93h8.562c1.933,0,3.5-1.567,3.5-3.5
			s-1.567-3.5-3.5-3.5h-8.562V98.093C135.28,97.384,139.602,95.325,143.059,91.867z M116.458,65.266
			c2.984-2.984,6.905-4.477,10.825-4.477c3.921,0,7.842,1.492,10.826,4.477c5.969,5.97,5.969,15.682,0,21.651
			c-5.968,5.968-15.682,5.97-21.651,0C110.49,80.948,110.49,71.236,116.458,65.266z"/>
	</g>
	<g>
		<path class="st7" d="M134.785,229.334c0-3.044,0.993-5.85,2.657-8.137h0l-6.704-0.996l-5.316,18.792l9.363,0.578V229.334z"/>
	</g>
	<g>
		<path class="st4" d="M130.738,220.201l-29.41-4.374l0.003,0.014c-1.002-0.23-2.041-0.364-3.113-0.364H61.268
			c-7.653,0-13.857,6.204-13.857,13.857v18.608h64.664v-9.774l13.347,0.824L130.738,220.201z"/>
	</g>
	<g>
		<path class="st1" d="M112.075,249.942H47.411c-1.104,0-2-0.896-2-2v-18.608c0-8.744,7.113-15.857,15.856-15.857h36.951
			c1.087,0,2.204,0.122,3.322,0.362c0.027,0.003,0.055,0.006,0.082,0.01l29.41,4.374c0.568,0.085,1.073,0.41,1.385,0.893
			c0.312,0.483,0.401,1.077,0.245,1.63l-5.316,18.791c-0.256,0.905-1.104,1.515-2.047,1.452l-11.224-0.693v7.647
			C114.075,249.047,113.179,249.942,112.075,249.942z M49.411,245.942h60.664v-7.774c0-0.552,0.228-1.079,0.63-1.457
			c0.402-0.379,0.941-0.582,1.493-0.539l11.738,0.725l4.258-15.052l-26.935-4.006c-0.125-0.004-0.251-0.021-0.376-0.049
			c-0.904-0.208-1.801-0.313-2.665-0.313H61.268c-6.538,0-11.856,5.319-11.856,11.857V245.942z"/>
	</g>
	<g>
		<path class="st4" d="M134.785,247.942h64.664v-18.609c0-7.653-6.204-13.857-13.857-13.857h-36.951
			c-7.653,0-13.857,6.204-13.857,13.857V247.942z"/>
	</g>
	<g>
		<path class="st7" d="M167.117,213.896c4.346,0,8.439-1.065,12.034-2.94v4.521v0.001c0,6.64-5.383,12.023-12.023,12.023
			s-12.023-5.383-12.023-12.023v-0.001v-4.509C158.696,212.836,162.78,213.896,167.117,213.896z"/>
	</g>
	<g>
		<path class="st1" d="M199.449,249.942h-64.664c-1.104,0-2-0.896-2-2v-18.608c0-8.744,7.113-15.857,15.856-15.857h4.464v-2.509
			c0-0.699,0.365-1.347,0.962-1.71c0.597-0.36,1.342-0.386,1.961-0.064c3.446,1.794,7.177,2.703,11.087,2.703
			c3.918,0,7.656-0.913,11.109-2.714c0.62-0.323,1.363-0.3,1.962,0.063c0.598,0.362,0.963,1.011,0.963,1.71v2.521h4.441
			c8.743,0,15.856,7.113,15.856,15.857v18.608C201.449,249.047,200.553,249.942,199.449,249.942z M136.785,245.942h60.664v-16.608
			c0-6.538-5.319-11.857-11.856-11.857h-6.441c-1.104,0-2-0.896-2-2v-1.433c-6.369,2.433-13.675,2.436-20.045,0.009v1.424
			c0,1.104-0.896,2-2,2h-6.464c-6.538,0-11.856,5.319-11.856,11.857V245.942z"/>
	</g>
	<g>
		<path class="st1" d="M199.449,249.942h-64.664c-1.104,0-2-0.896-2-2v-18.608c0-8.744,7.113-15.857,15.856-15.857h4.464v-2.509
			c0-0.699,0.365-1.347,0.962-1.71c0.597-0.36,1.342-0.386,1.961-0.064c3.446,1.794,7.177,2.703,11.087,2.703
			c3.918,0,7.656-0.913,11.109-2.714c0.62-0.323,1.363-0.3,1.962,0.063c0.598,0.362,0.963,1.011,0.963,1.71v2.521h4.441
			c8.743,0,15.856,7.113,15.856,15.857v18.608C201.449,249.047,200.553,249.942,199.449,249.942z M136.785,245.942h60.664v-16.608
			c0-6.538-5.319-11.857-11.856-11.857h-6.441c-1.104,0-2-0.896-2-2v-1.433c-6.369,2.433-13.675,2.436-20.045,0.009v1.424
			c0,1.104-0.896,2-2,2h-6.464c-6.538,0-11.856,5.319-11.856,11.857V245.942z"/>
	</g>
	<g>
		<path class="st2" d="M120.466,200.213l-6.746-30.135c-10.108,0-57.176,0-67.943,0l-6.746,30.135
			c-0.18,0.805-0.271,1.628-0.271,2.453c0,6.202,5.028,11.23,11.23,11.23c5.979,0,54.478,0,59.516,0
			c6.202,0,11.23-5.028,11.23-11.23C120.737,201.841,120.646,201.018,120.466,200.213z"/>
	</g>
	<g>
		<path class="st1" d="M109.507,215.896H49.99c-7.295,0-13.23-5.936-13.23-13.23c0-0.972,0.107-1.944,0.32-2.891l6.746-30.134
			c0.205-0.914,1.016-1.563,1.952-1.563h67.942c0.936,0,1.747,0.649,1.952,1.563l6.746,30.135l0,0
			c0.212,0.947,0.319,1.919,0.319,2.89C122.737,209.961,116.802,215.896,109.507,215.896z M47.379,172.078l-6.396,28.571
			c-0.148,0.661-0.223,1.339-0.223,2.017c0,5.09,4.141,9.23,9.23,9.23h59.517c5.089,0,9.23-4.141,9.23-9.23
			c0-0.677-0.075-1.355-0.223-2.017l-6.396-28.571H47.379z"/>
	</g>
	<g>
		<path class="st7" d="M53.843,178.474v-2.425c0-14.175,11.596-25.667,25.9-25.667l0,0c14.304,0,25.9,11.491,25.9,25.667v2.425
			c4.497-0.091,8.065,3.491,8.065,7.822c0,4.624-4.037,8.282-8.75,7.784c-2.673,11.356-12.945,19.816-25.216,19.816
			c-12.272,0-22.543-8.461-25.216-19.816c-4.706,0.498-8.75-3.153-8.75-7.784C45.777,181.963,49.348,178.383,53.843,178.474z"/>
	</g>
	<g>
		<path class="st1" d="M79.746,201.353C79.746,201.353,79.746,201.353,79.746,201.353c-1.841,0-3.558-0.666-4.71-1.828
			c-0.873-0.881-1.354-1.991-1.354-3.125c0-0.553,0.448-1,1-1s1,0.447,1,1c0,0.612,0.268,1.206,0.774,1.717
			c0.779,0.785,1.979,1.236,3.29,1.236c1.303,0,2.54-0.462,3.308-1.236c0.506-0.511,0.773-1.104,0.773-1.717c0-0.553,0.448-1,1-1
			s1,0.447,1,1c0,1.135-0.48,2.244-1.353,3.125C83.321,200.687,81.597,201.353,79.746,201.353z"/>
	</g>
	<g>
		<path class="st1" d="M79.743,215.896c-12.486,0-23.262-8.061-26.747-19.796c-2.203-0.152-4.31-1.03-5.965-2.52
			c-2.067-1.86-3.253-4.516-3.253-7.285c0-2.65,1.047-5.136,2.947-6.998c1.423-1.395,3.193-2.307,5.118-2.66v-0.589
			c0-15.256,12.516-27.667,27.9-27.667s27.9,12.411,27.9,27.667v0.589c1.925,0.354,3.695,1.266,5.118,2.66
			c1.9,1.862,2.947,4.348,2.947,6.998c0,2.77-1.186,5.425-3.253,7.285c-1.655,1.488-3.763,2.367-5.965,2.52
			C103.006,207.836,92.229,215.896,79.743,215.896z M54.528,192.08c0.918,0,1.731,0.631,1.945,1.542
			c2.533,10.76,12.101,18.274,23.269,18.274c11.168,0,20.737-7.515,23.27-18.274c0.231-0.979,1.15-1.621,2.157-1.531
			c1.71,0.187,3.347-0.346,4.61-1.483c1.226-1.103,1.929-2.675,1.929-4.312c0-1.566-0.621-3.037-1.747-4.142
			c-1.139-1.117-2.654-1.722-4.278-1.681c-0.558-0.016-1.058-0.196-1.44-0.571c-0.384-0.376-0.6-0.892-0.6-1.429v-2.425
			c0-13.05-10.722-23.667-23.9-23.667c-13.178,0-23.9,10.617-23.9,23.667v2.425c0,0.537-0.216,1.053-0.6,1.429
			c-0.384,0.375-0.888,0.56-1.44,0.571c-1.607-0.042-3.138,0.563-4.278,1.681c-1.126,1.104-1.747,2.575-1.747,4.142
			c0,1.661,0.685,3.192,1.929,4.312c1.265,1.138,2.903,1.67,4.61,1.483C54.388,192.084,54.458,192.08,54.528,192.08z"/>
	</g>
	<g>
		<path class="st1" d="M61.851,180.903c0.139,0,4.534,0.005,4.395,0.005c2.169,0,3.687,1.708,3.687,3.632v3.88
			c0,2.009-1.629,3.637-3.637,3.637c-2.009,0-3.637-1.628-3.637-3.637c0-4.035-0.035-3.935,0.062-4.499h-0.871
			c-0.833,0-1.509-0.675-1.509-1.509C60.342,181.578,61.018,180.903,61.851,180.903z"/>
	</g>
	<g>
		<path class="st1" d="M97.641,180.903c0,0-4.436-0.001-4.445-0.001c-2.009,0-3.637,1.629-3.637,3.637v3.88
			c0,4.805,7.275,4.812,7.275,0c0-4.035,0.035-3.935-0.062-4.499h0.871C99.635,183.92,99.637,180.903,97.641,180.903z"/>
	</g>
	<g>
		<path class="st7" d="M79.743,213.896c4.346,0,8.439-1.065,12.034-2.94v4.521v0.001c0,6.64-5.383,12.023-12.023,12.023
			c-6.64,0-12.023-5.383-12.023-12.023v-0.001v-4.509C71.322,212.836,75.406,213.896,79.743,213.896z"/>
	</g>
	<g>
		<path class="st1" d="M112.075,249.942H47.411c-1.104,0-2-0.896-2-2v-18.608c0-8.744,7.113-15.857,15.856-15.857h4.464v-2.509
			c0-0.699,0.365-1.347,0.962-1.71c0.598-0.36,1.341-0.386,1.961-0.064c3.446,1.794,7.177,2.703,11.087,2.703
			c3.919,0,7.657-0.913,11.109-2.714c0.621-0.323,1.364-0.3,1.962,0.063c0.598,0.362,0.963,1.011,0.963,1.71v2.521h4.441
			c1.087,0,2.204,0.122,3.322,0.362c0.027,0.003,0.055,0.006,0.082,0.01l36.114,5.37c0.692,0.104,1.28,0.56,1.55,1.205
			s0.185,1.385-0.227,1.95c-1.488,2.044-2.274,4.451-2.274,6.96v10.236c0,0.552-0.228,1.079-0.63,1.457
			c-0.402,0.379-0.94,0.583-1.493,0.539l-20.587-1.271v7.647C114.075,249.047,113.179,249.942,112.075,249.942z M49.411,245.942
			h60.664v-7.774c0-0.552,0.228-1.079,0.63-1.457c0.402-0.379,0.941-0.582,1.493-0.539l20.587,1.271v-8.109
			c0-2.301,0.493-4.535,1.441-6.593l-32.967-4.902c-0.125-0.004-0.251-0.021-0.376-0.049c-0.904-0.208-1.801-0.313-2.665-0.313
			h-6.441c-1.104,0-2-0.896-2-2v-1.433c-6.369,2.433-13.674,2.436-20.045,0.009v1.424c0,1.104-0.896,2-2,2h-6.464
			c-6.538,0-11.856,5.319-11.856,11.857V245.942z"/>
	</g>
	<g>
		<path class="st2" d="M73.721,139.781h6.022v27.944v0c0,4.178-3.387,7.564-7.564,7.564H45.777v-7.564
			C45.777,152.292,58.288,139.781,73.721,139.781z"/>
	</g>
	<g>
		<path class="st2" d="M85.765,139.781h-6.022v27.944v0c0,4.178,3.387,7.564,7.564,7.564h26.401v-7.564
			C113.708,152.292,101.198,139.781,85.765,139.781z"/>
	</g>
	<g>
		<path class="st1" d="M113.708,177.288H87.307c-3.074,0-5.813-1.457-7.564-3.717c-1.751,2.26-4.49,3.717-7.564,3.717H45.777
			c-1.104,0-2-0.896-2-2v-7.563c0-16.511,13.433-29.943,29.944-29.943h12.043c16.511,0,29.944,13.433,29.944,29.943v7.563
			C115.708,176.393,114.813,177.288,113.708,177.288z M81.743,167.725c0,3.067,2.496,5.563,5.564,5.563h24.401v-5.563
			c0-14.306-11.638-25.943-25.944-25.943H73.721c-14.306,0-25.944,11.638-25.944,25.943v5.563h24.401
			c3.068,0,5.564-2.496,5.564-5.563c0-1.104,0.896-2,2-2S81.743,166.62,81.743,167.725z"/>
	</g>
	<g>
		<path class="st2" d="M179.63,209.447h-25.025c-11.848,0-21.453-9.605-21.453-21.453v-12.733h67.931v12.733
			C201.082,199.843,191.478,209.447,179.63,209.447z"/>
	</g>
	<g>
		<path class="st1" d="M179.629,211.447h-25.025c-12.932,0-23.453-10.521-23.453-23.453v-12.732c0-1.104,0.896-2,2-2h67.931
			c1.104,0,2,0.896,2,2v12.732C203.083,200.926,192.562,211.447,179.629,211.447z M135.151,177.262v10.732
			c0,10.727,8.727,19.453,19.453,19.453h25.025c10.727,0,19.453-8.727,19.453-19.453v-10.732H135.151z"/>
	</g>
	<g>
		<path class="st7" d="M141.217,178.474v-2.425c0-14.175,11.596-25.667,25.9-25.667l0,0c14.304,0,25.9,11.491,25.9,25.667v2.425
			c4.497-0.091,8.065,3.491,8.065,7.822c0,4.624-4.037,8.282-8.75,7.784c-2.673,11.356-12.945,19.816-25.216,19.816
			c-12.272,0-22.543-8.461-25.216-19.816c-4.706,0.498-8.75-3.153-8.75-7.784C133.151,181.963,136.722,178.383,141.217,178.474z"/>
	</g>
	<g>
		<path class="st1" d="M167.12,201.353L167.12,201.353c-1.841,0-3.557-0.666-4.71-1.828c-0.873-0.881-1.354-1.991-1.354-3.125
			c0-0.553,0.448-1,1-1s1,0.447,1,1c0,0.612,0.268,1.206,0.774,1.717c0.779,0.785,1.979,1.236,3.29,1.236
			c1.303,0,2.54-0.462,3.308-1.236c0.506-0.511,0.774-1.104,0.774-1.717c0-0.553,0.448-1,1-1s1,0.447,1,1
			c0,1.135-0.481,2.244-1.354,3.125C170.694,200.687,168.971,201.353,167.12,201.353z"/>
	</g>
	<g>
		<path class="st1" d="M167.117,215.896c-12.486,0-23.262-8.061-26.747-19.796c-2.203-0.152-4.31-1.03-5.965-2.52
			c-2.067-1.86-3.253-4.516-3.253-7.285c0-2.65,1.047-5.136,2.947-6.998c1.423-1.395,3.193-2.307,5.118-2.66v-0.589
			c0-15.256,12.516-27.667,27.9-27.667s27.9,12.411,27.9,27.667v0.589c1.925,0.354,3.695,1.266,5.118,2.66
			c1.9,1.862,2.947,4.348,2.947,6.998c0,2.77-1.186,5.425-3.253,7.285c-1.655,1.488-3.763,2.367-5.965,2.52
			C190.38,207.836,179.604,215.896,167.117,215.896z M141.902,192.08c0.918,0,1.731,0.631,1.945,1.542
			c2.533,10.76,12.101,18.274,23.269,18.274c11.168,0,20.737-7.515,23.27-18.274c0.23-0.979,1.15-1.621,2.157-1.531
			c1.711,0.187,3.347-0.346,4.61-1.483c1.226-1.103,1.929-2.675,1.929-4.312c0-1.566-0.621-3.037-1.747-4.142
			c-1.14-1.117-2.66-1.722-4.278-1.681c-0.562-0.016-1.057-0.196-1.44-0.571c-0.384-0.376-0.6-0.892-0.6-1.429v-2.425
			c0-13.05-10.722-23.667-23.9-23.667c-13.178,0-23.9,10.617-23.9,23.667v2.425c0,0.537-0.216,1.053-0.6,1.429
			c-0.384,0.375-0.893,0.56-1.44,0.571c-1.613-0.042-3.138,0.563-4.278,1.681c-1.126,1.104-1.747,2.575-1.747,4.142
			c0,1.661,0.685,3.192,1.929,4.312c1.265,1.138,2.906,1.67,4.61,1.483C141.762,192.084,141.833,192.08,141.902,192.08z"/>
	</g>
	<g>
		<path class="st2" d="M161.095,139.781h6.022v27.944v0c0,4.178-3.387,7.564-7.564,7.564h-26.401v-7.564
			C133.151,152.292,145.662,139.781,161.095,139.781z"/>
	</g>
	<g>
		<path class="st2" d="M173.139,139.781h-6.022v27.944v0c0,4.178,3.387,7.564,7.564,7.564h26.401v-7.564
			C201.082,152.292,188.572,139.781,173.139,139.781z"/>
	</g>
	<g>
		<path class="st1" d="M201.083,177.288h-26.401c-3.074,0-5.813-1.457-7.564-3.717c-1.751,2.26-4.49,3.717-7.564,3.717h-26.401
			c-1.104,0-2-0.896-2-2v-7.563c0-16.511,13.433-29.943,29.943-29.943h12.044c16.511,0,29.944,13.433,29.944,29.943v7.563
			C203.083,176.393,202.187,177.288,201.083,177.288z M169.117,167.725c0,3.067,2.496,5.563,5.564,5.563h24.401v-5.563
			c0-14.306-11.638-25.943-25.944-25.943h-12.044c-14.305,0-25.943,11.638-25.943,25.943v5.563h24.401
			c3.068,0,5.564-2.496,5.564-5.563c0-1.104,0.896-2,2-2S169.117,166.62,169.117,167.725z"/>
	</g>
	<g>
		<path class="st1" d="M182.598,182.612c-2.349-1.912-5.827-0.24-5.827,2.766v3.819c0,1.977,1.603,3.58,3.58,3.58
			c1.977,0,3.58-1.603,3.58-3.58v-3.819c0-0.241-0.026-0.476-0.071-0.704c1.347-0.237,2.863-0.256,2.625-1.605
			C186.238,181.664,184.766,182.23,182.598,182.612z"/>
	</g>
	<g>
		<path class="st1" d="M151.629,182.612c-2.156-0.38-3.641-0.936-3.887,0.457c-0.238,1.35,1.281,1.369,2.625,1.605
			c-0.11,0.553-0.071,3.898-0.071,4.522c0,1.977,1.603,3.58,3.58,3.58c1.977,0,3.58-1.603,3.58-3.58v-3.819
			C157.456,182.38,153.982,180.696,151.629,182.612z"/>
	</g>
	<g>
		<path class="st2" d="M196.73,203.159h-1.926c-2.511,2.512-5.647,4.392-9.148,5.415v18.678c0,6.865,5.565,12.431,12.431,12.431
			h9.074c1.105,0,2-0.895,2-2v-22.094C209.16,208.724,203.595,203.159,196.73,203.159z"/>
	</g>
	<g>
		<path class="st1" d="M207.16,241.682h-9.074c-7.957,0-14.431-6.474-14.431-14.431v-18.678c0-0.889,0.586-1.671,1.439-1.92
			c3.131-0.915,6-2.612,8.295-4.909c0.375-0.375,0.884-0.586,1.415-0.586h1.926c7.957,0,14.43,6.473,14.43,14.43v22.094
			C211.16,239.888,209.366,241.682,207.16,241.682z M187.656,210.021v17.229c0,5.752,4.679,10.431,10.431,10.431h9.074v-22.094
			c0-5.751-4.679-10.43-10.43-10.43h-1.12C193.319,207.289,190.604,208.948,187.656,210.021z"/>
	</g>
</g>
</svg>
