<?xml version="1.0" encoding="utf-8"?>
<!-- Generator: Adobe Illustrator 22.1.0, SVG Export Plug-In . SVG Version: 6.00 Build 0)  -->
<svg version="1.1" id="Layer_1" xmlns="http://www.w3.org/2000/svg" xmlns:xlink="http://www.w3.org/1999/xlink" x="0px" y="0px"
	 viewBox="0 0 256 256" style="enable-background:new 0 0 256 256;" xml:space="preserve">
<style type="text/css">
	.st0{fill:#E0EBFC;}
	.st1{fill:#3762CC;}
	.st2{fill:#4671C6;}
	.st3{fill:#6BDDDD;}
	.st4{fill:#F9A7A7;}
	.st5{fill:#A4C9FF;}
	.st6{fill:#FFEA92;}
	.st7{fill:#F9CFCF;}
	.st8{fill:#FFE164;}
	.st9{fill:#FFDC85;}
	.st10{fill:#FFEA94;}
	.st11{fill:#B9BEFC;}
	.st12{fill:#EAA97D;}
</style>
<g>
	<g>
		<path class="st3" d="M238,210.5H18c-5.523,0-10-4.477-10-10v-145c0-5.523,4.477-10,10-10h220c5.523,0,10,4.477,10,10v145
			C248,206.023,243.523,210.5,238,210.5z"/>
	</g>
	<g>
		<path class="st0" d="M93.55,195.15H28.292c-3.314,0-6-2.686-6-6v-84.3c0-3.314,2.686-6,6-6H93.55c3.314,0,6,2.686,6,6v84.3
			C99.55,192.464,96.863,195.15,93.55,195.15z"/>
	</g>
	<g>
		<path class="st4" d="M85.668,183.453v-7.912c0-13.667-11.08-24.747-24.747-24.747s-24.747,11.08-24.747,24.747v7.912H85.668z"/>
	</g>
	<g>
		<path class="st5" d="M85.668,183.453v-7.912c0-13.667-11.08-24.747-24.747-24.747s-24.747,11.08-24.747,24.747v7.912H85.668z"/>
	</g>
	<g>
		<path class="st1" d="M85.668,185.453H36.174c-1.104,0-2-0.896-2-2v-7.912c0-14.748,11.999-26.747,26.747-26.747
			s26.747,11.999,26.747,26.747v7.912C87.668,184.558,86.772,185.453,85.668,185.453z M38.174,181.453h45.494v-5.912
			c0-12.543-10.204-22.747-22.747-22.747s-22.747,10.204-22.747,22.747V181.453z"/>
	</g>
	<g>
		<path class="st1" d="M85.668,185.453H36.174c-1.104,0-2-0.896-2-2v-7.912c0-14.748,11.999-26.747,26.747-26.747
			s26.747,11.999,26.747,26.747v7.912C87.668,184.558,86.772,185.453,85.668,185.453z M38.174,181.453h45.494v-5.912
			c0-12.543-10.204-22.747-22.747-22.747s-22.747,10.204-22.747,22.747V181.453z"/>
	</g>
	<g>
		<circle class="st7" cx="60.921" cy="132.429" r="21.882"/>
	</g>
	<g>
		<path class="st1" d="M60.921,156.311c-13.169,0-23.882-10.713-23.882-23.882s10.713-23.882,23.882-23.882
			s23.882,10.713,23.882,23.882S74.09,156.311,60.921,156.311z M60.921,112.547c-10.963,0-19.882,8.919-19.882,19.882
			s8.919,19.882,19.882,19.882s19.882-8.919,19.882-19.882S71.884,112.547,60.921,112.547z"/>
	</g>
	<g>
		<path class="st2" d="M238,45.5H18c-5.523,0-10,4.477-10,10v28h240v-28C248,49.977,243.523,45.5,238,45.5z"/>
	</g>
	<g>
		<path class="st0" d="M227.05,111.85H134.5c-3.59,0-6.5-2.91-6.5-6.5v0c0-3.59,2.91-6.5,6.5-6.5h92.55c3.59,0,6.5,2.91,6.5,6.5v0
			C233.55,108.94,230.64,111.85,227.05,111.85z"/>
	</g>
	<g>
		<path class="st0" d="M227.05,139.85H134.5c-3.59,0-6.5-2.91-6.5-6.5v0c0-3.59,2.91-6.5,6.5-6.5h92.55c3.59,0,6.5,2.91,6.5,6.5v0
			C233.55,136.94,230.64,139.85,227.05,139.85z"/>
	</g>
	<g>
		<path class="st0" d="M227.05,167.85H134.5c-3.59,0-6.5-2.91-6.5-6.5v0c0-3.59,2.91-6.5,6.5-6.5h92.55c3.59,0,6.5,2.91,6.5,6.5v0
			C233.55,164.94,230.64,167.85,227.05,167.85z"/>
	</g>
	<g>
		<path class="st0" d="M227.05,195.15H198c-3.59,0-6.5-2.91-6.5-6.5v-1c0-3.59,2.91-6.5,6.5-6.5h29.05c3.59,0,6.5,2.91,6.5,6.5v1
			C233.55,192.24,230.64,195.15,227.05,195.15z"/>
	</g>
	<g>
		<path class="st5" d="M226.679,72.242H29.163c-3.795,0-6.871-3.076-6.871-6.871v0c0-3.795,3.076-6.871,6.871-6.871h197.515
			c3.795,0,6.871,3.076,6.871,6.871v0C233.55,69.166,230.473,72.242,226.679,72.242z"/>
	</g>
	<g>
		<path class="st1" d="M238,212.5H18c-6.617,0-12-5.383-12-12v-145c0-6.617,5.383-12,12-12h220c6.617,0,12,5.383,12,12v145
			C250,207.117,244.617,212.5,238,212.5z M18,47.5c-4.411,0-8,3.589-8,8v145c0,4.411,3.589,8,8,8h220c4.411,0,8-3.589,8-8v-145
			c0-4.411-3.589-8-8-8H18z"/>
	</g>
	<g>
		<path class="st1" d="M93.55,197.15H28.292c-4.411,0-8-3.589-8-8V104.85c0-4.411,3.589-8,8-8H93.55c4.411,0,8,3.589,8,8v84.301
			C101.55,193.562,97.961,197.15,93.55,197.15z M28.292,100.85c-2.206,0-4,1.794-4,4v84.301c0,2.206,1.794,4,4,4H93.55
			c2.206,0,4-1.794,4-4V104.85c0-2.206-1.794-4-4-4H28.292z"/>
	</g>
</g>
</svg>
