<?xml version="1.0" encoding="utf-8"?>
<!-- Generator: Adobe Illustrator 22.1.0, SVG Export Plug-In . SVG Version: 6.00 Build 0)  -->
<svg version="1.1" id="Layer_1" xmlns="http://www.w3.org/2000/svg" xmlns:xlink="http://www.w3.org/1999/xlink" x="0px" y="0px"
	 viewBox="0 0 256 256" style="enable-background:new 0 0 256 256;" xml:space="preserve">
<style type="text/css">
	.st0{fill:#E0EBFC;}
	.st1{fill:#3762CC;}
	.st2{fill:#4671C6;}
	.st3{fill:#6BDDDD;}
	.st4{fill:#F9A7A7;}
	.st5{fill:#A4C9FF;}
	.st6{fill:#FFEA92;}
	.st7{fill:#F9CFCF;}
	.st8{fill:#FFE164;}
	.st9{fill:#FFDC85;}
	.st10{fill:#FFEA94;}
	.st11{fill:#B9BEFC;}
	.st12{fill:#EAA97D;}
</style>
<g>
	<g>
		<path class="st4" d="M202.5,248h-149c-4.418,0-8-3.582-8-8V46.5c0-4.418,3.582-8,8-8h149c4.418,0,8,3.582,8,8V240
			C210.5,244.418,206.918,248,202.5,248z"/>
	</g>
	<g>
		<path class="st0" d="M59.15,231.452V55.048c0-3.314,2.686-6,6-6h125.7c3.314,0,6,2.686,6,6v176.404c0,3.314-2.686,6-6,6H65.15
			C61.836,237.452,59.15,234.766,59.15,231.452z"/>
	</g>
	<g>
		<path class="st1" d="M202.5,250h-149c-5.514,0-10-4.486-10-10V46.5c0-5.514,4.486-10,10-10h149c5.514,0,10,4.486,10,10V240
			C212.5,245.514,208.014,250,202.5,250z M53.5,40.5c-3.309,0-6,2.691-6,6V240c0,3.309,2.691,6,6,6h149c3.309,0,6-2.691,6-6V46.5
			c0-3.309-2.691-6-6-6H53.5z"/>
	</g>
	<g>
		<path class="st1" d="M190.85,239.452H65.15c-4.411,0-8-3.589-8-8V55.048c0-4.411,3.589-8,8-8H190.85c4.411,0,8,3.589,8,8v176.404
			C198.85,235.863,195.261,239.452,190.85,239.452z M65.15,51.048c-2.206,0-4,1.794-4,4v176.404c0,2.206,1.794,4,4,4H190.85
			c2.206,0,4-1.794,4-4V55.048c0-2.206-1.794-4-4-4H65.15z"/>
	</g>
	<g>
		<path class="st7" d="M165.016,62H90.984c-4.038,0-7.312-3.274-7.312-7.312V38.237c0-2.524,2.046-4.57,4.57-4.57h79.516
			c2.524,0,4.57,2.046,4.57,4.57v16.452C172.328,58.726,169.054,62,165.016,62z"/>
	</g>
	<g>
		<path class="st5" d="M95.25,139.667H73.417v-16c0-2.761,2.239-5,5-5H95.25V139.667z"/>
	</g>
	<g>
		<rect x="95.25" y="118.667" class="st5" width="21.833" height="21"/>
	</g>
	<g>
		<rect x="117.083" y="118.667" class="st5" width="21.833" height="21"/>
	</g>
	<g>
		<rect x="138.917" y="118.667" class="st5" width="21.833" height="21"/>
	</g>
	<g>
		<path class="st5" d="M182.583,139.667H160.75v-21h16.833c2.761,0,5,2.239,5,5V139.667z"/>
	</g>
	<g>
		<path class="st1" d="M95.25,162.667H73.417c-1.104,0-2-0.896-2-2v-21c0-1.104,0.896-2,2-2H95.25c1.104,0,2,0.896,2,2v21
			C97.25,161.771,96.354,162.667,95.25,162.667z M75.417,158.667H93.25v-17H75.417V158.667z"/>
	</g>
	<g>
		<path class="st1" d="M117.083,162.667H95.25c-1.104,0-2-0.896-2-2v-21c0-1.104,0.896-2,2-2h21.833c1.104,0,2,0.896,2,2v21
			C119.083,161.771,118.188,162.667,117.083,162.667z M97.25,158.667h17.833v-17H97.25V158.667z"/>
	</g>
	<g>
		<path class="st1" d="M138.917,162.667h-21.834c-1.104,0-2-0.896-2-2v-21c0-1.104,0.896-2,2-2h21.834c1.104,0,2,0.896,2,2v21
			C140.917,161.771,140.021,162.667,138.917,162.667z M119.083,158.667h17.834v-17h-17.834V158.667z"/>
	</g>
	<g>
		<path class="st1" d="M160.75,162.667h-21.833c-1.104,0-2-0.896-2-2v-21c0-1.104,0.896-2,2-2h21.833c1.104,0,2,0.896,2,2v21
			C162.75,161.771,161.854,162.667,160.75,162.667z M140.917,158.667h17.833v-17h-17.833V158.667z"/>
	</g>
	<g>
		<path class="st1" d="M182.583,162.667H160.75c-1.104,0-2-0.896-2-2v-21c0-1.104,0.896-2,2-2h21.833c1.104,0,2,0.896,2,2v21
			C184.583,161.771,183.688,162.667,182.583,162.667z M162.75,158.667h17.833v-17H162.75V158.667z"/>
	</g>
	<g>
		<path class="st1" d="M95.25,183.667H73.417c-1.104,0-2-0.896-2-2v-21c0-1.104,0.896-2,2-2H95.25c1.104,0,2,0.896,2,2v21
			C97.25,182.771,96.354,183.667,95.25,183.667z M75.417,179.667H93.25v-17H75.417V179.667z"/>
	</g>
	<g>
		<path class="st1" d="M117.083,183.667H95.25c-1.104,0-2-0.896-2-2v-21c0-1.104,0.896-2,2-2h21.833c1.104,0,2,0.896,2,2v21
			C119.083,182.771,118.188,183.667,117.083,183.667z M97.25,179.667h17.833v-17H97.25V179.667z"/>
	</g>
	<g>
		<path class="st1" d="M138.917,183.667h-21.834c-1.104,0-2-0.896-2-2v-21c0-1.104,0.896-2,2-2h21.834c1.104,0,2,0.896,2,2v21
			C140.917,182.771,140.021,183.667,138.917,183.667z M119.083,179.667h17.834v-17h-17.834V179.667z"/>
	</g>
	<g>
		<path class="st1" d="M160.75,183.667h-21.833c-1.104,0-2-0.896-2-2v-21c0-1.104,0.896-2,2-2h21.833c1.104,0,2,0.896,2,2v21
			C162.75,182.771,161.854,183.667,160.75,183.667z M140.917,179.667h17.833v-17h-17.833V179.667z"/>
	</g>
	<g>
		<path class="st1" d="M182.583,183.667H160.75c-1.104,0-2-0.896-2-2v-21c0-1.104,0.896-2,2-2h21.833c1.104,0,2,0.896,2,2v21
			C184.583,182.771,183.688,183.667,182.583,183.667z M162.75,179.667h17.833v-17H162.75V179.667z"/>
	</g>
	<g>
		<path class="st1" d="M95.25,204.667H73.417c-1.104,0-2-0.896-2-2v-21c0-1.104,0.896-2,2-2H95.25c1.104,0,2,0.896,2,2v21
			C97.25,203.771,96.354,204.667,95.25,204.667z M75.417,200.667H93.25v-17H75.417V200.667z"/>
	</g>
	<g>
		<path class="st1" d="M117.083,204.667H95.25c-1.104,0-2-0.896-2-2v-21c0-1.104,0.896-2,2-2h21.833c1.104,0,2,0.896,2,2v21
			C119.083,203.771,118.188,204.667,117.083,204.667z M97.25,200.667h17.833v-17H97.25V200.667z"/>
	</g>
	<g>
		<path class="st1" d="M138.917,204.667h-21.834c-1.104,0-2-0.896-2-2v-21c0-1.104,0.896-2,2-2h21.834c1.104,0,2,0.896,2,2v21
			C140.917,203.771,140.021,204.667,138.917,204.667z M119.083,200.667h17.834v-17h-17.834V200.667z"/>
	</g>
	<g>
		<path class="st1" d="M160.75,204.667h-21.833c-1.104,0-2-0.896-2-2v-21c0-1.104,0.896-2,2-2h21.833c1.104,0,2,0.896,2,2v21
			C162.75,203.771,161.854,204.667,160.75,204.667z M140.917,200.667h17.833v-17h-17.833V200.667z"/>
	</g>
	<g>
		<path class="st1" d="M182.583,204.667H160.75c-1.104,0-2-0.896-2-2v-21c0-1.104,0.896-2,2-2h21.833c1.104,0,2,0.896,2,2v21
			C184.583,203.771,183.688,204.667,182.583,204.667z M162.75,200.667h17.833v-17H162.75V200.667z"/>
	</g>
	<g>
		<path class="st1" d="M95.25,225.667H78.417c-3.859,0-7-3.14-7-7v-16c0-1.104,0.896-2,2-2H95.25c1.104,0,2,0.896,2,2v21
			C97.25,224.771,96.354,225.667,95.25,225.667z M75.417,204.667v14c0,1.654,1.346,3,3,3H93.25v-17H75.417z"/>
	</g>
	<g>
		<path class="st1" d="M117.083,225.667H95.25c-1.104,0-2-0.896-2-2v-21c0-1.104,0.896-2,2-2h21.833c1.104,0,2,0.896,2,2v21
			C119.083,224.771,118.188,225.667,117.083,225.667z M97.25,221.667h17.833v-17H97.25V221.667z"/>
	</g>
	<g>
		<path class="st1" d="M138.917,225.667h-21.834c-1.104,0-2-0.896-2-2v-21c0-1.104,0.896-2,2-2h21.834c1.104,0,2,0.896,2,2v21
			C140.917,224.771,140.021,225.667,138.917,225.667z M119.083,221.667h17.834v-17h-17.834V221.667z"/>
	</g>
	<g>
		<path class="st1" d="M160.75,225.667h-21.833c-1.104,0-2-0.896-2-2v-21c0-1.104,0.896-2,2-2h21.833c1.104,0,2,0.896,2,2v21
			C162.75,224.771,161.854,225.667,160.75,225.667z M140.917,221.667h17.833v-17h-17.833V221.667z"/>
	</g>
	<g>
		<path class="st1" d="M177.583,225.667H160.75c-1.104,0-2-0.896-2-2v-21c0-1.104,0.896-2,2-2h21.833c1.104,0,2,0.896,2,2v16
			C184.583,222.526,181.442,225.667,177.583,225.667z M162.75,221.667h14.833c1.654,0,3-1.346,3-3v-14H162.75V221.667z"/>
	</g>
	<g>
		<path class="st7" d="M150.5,33.667V23c0-8.284-6.716-15-15-15h-15c-8.284,0-15,6.716-15,15v10.667H150.5z M123.757,18.757
			c2.343-2.343,6.142-2.343,8.485,0c2.343,2.343,2.343,6.142,0,8.485c-2.343,2.343-6.142,2.343-8.485,0
			C121.414,24.899,121.414,21.101,123.757,18.757z"/>
	</g>
	<g>
		<path class="st1" d="M150.5,35.667h-45c-1.104,0-2-0.896-2-2V23c0-9.374,7.626-17,17-17h15c9.374,0,17,7.626,17,17v10.667
			C152.5,34.771,151.604,35.667,150.5,35.667z M107.5,31.667h41V23c0-7.168-5.832-13-13-13h-15c-7.168,0-13,5.832-13,13V31.667z"/>
	</g>
	<g>
		<path class="st1" d="M165.017,64H90.983c-5.135,0-9.312-4.177-9.312-9.312V38.236c0-3.623,2.947-6.57,6.57-6.57h79.516
			c3.623,0,6.57,2.947,6.57,6.57v16.452C174.328,59.823,170.151,64,165.017,64z M88.242,35.667c-1.417,0-2.57,1.153-2.57,2.57
			v16.452c0,2.929,2.383,5.312,5.312,5.312h74.033c2.929,0,5.312-2.383,5.312-5.312V38.236c0-1.417-1.153-2.57-2.57-2.57H88.242z"/>
	</g>
	<g>
		<path class="st1" d="M128,31c-2.137,0-4.146-0.832-5.656-2.343C120.832,27.146,120,25.137,120,23s0.832-4.146,2.344-5.657l0,0l0,0
			c0,0,0,0,0,0C123.854,15.832,125.863,15,128,15s4.146,0.832,5.656,2.343C135.168,18.854,136,20.863,136,23
			s-0.832,4.146-2.344,5.657C132.146,30.168,130.137,31,128,31z M128,19c-1.068,0-2.072,0.416-2.828,1.171c0,0,0,0,0,0
			C124.416,20.927,124,21.932,124,23s0.416,2.073,1.172,2.828c1.512,1.512,4.145,1.511,5.656,0C131.584,25.073,132,24.068,132,23
			s-0.416-2.073-1.172-2.828C130.072,19.416,129.068,19,128,19z M123.758,18.757h0.01H123.758z"/>
	</g>
	<g>
		<path class="st1" d="M95.25,141.667H73.417c-1.104,0-2-0.896-2-2v-16c0-3.86,3.141-7,7-7H95.25c1.104,0,2,0.896,2,2v21
			C97.25,140.771,96.354,141.667,95.25,141.667z M75.417,137.667H93.25v-17H78.417c-1.654,0-3,1.346-3,3V137.667z"/>
	</g>
	<g>
		<path class="st1" d="M117.083,141.667H95.25c-1.104,0-2-0.896-2-2v-21c0-1.104,0.896-2,2-2h21.833c1.104,0,2,0.896,2,2v21
			C119.083,140.771,118.188,141.667,117.083,141.667z M97.25,137.667h17.833v-17H97.25V137.667z"/>
	</g>
	<g>
		<path class="st1" d="M138.917,141.667h-21.834c-1.104,0-2-0.896-2-2v-21c0-1.104,0.896-2,2-2h21.834c1.104,0,2,0.896,2,2v21
			C140.917,140.771,140.021,141.667,138.917,141.667z M119.083,137.667h17.834v-17h-17.834V137.667z"/>
	</g>
	<g>
		<path class="st1" d="M160.75,141.667h-21.833c-1.104,0-2-0.896-2-2v-21c0-1.104,0.896-2,2-2h21.833c1.104,0,2,0.896,2,2v21
			C162.75,140.771,161.854,141.667,160.75,141.667z M140.917,137.667h17.833v-17h-17.833V137.667z"/>
	</g>
	<g>
		<path class="st1" d="M182.583,141.667H160.75c-1.104,0-2-0.896-2-2v-21c0-1.104,0.896-2,2-2h16.833c3.859,0,7,3.14,7,7v16
			C184.583,140.771,183.688,141.667,182.583,141.667z M162.75,137.667h17.833v-14c0-1.654-1.346-3-3-3H162.75V137.667z"/>
	</g>
	<g>
		<path class="st6" d="M170.779,107.059c0-7.486,0-13.261,0-19.905l-1.929,0.741c0,6.404,0,14.963,0,19.164
			c-0.686,0.351-1.157,1.064-1.157,1.888v5.079h4.243v-5.079C171.936,108.122,171.466,107.41,170.779,107.059z"/>
	</g>
	<g>
		<path class="st2" d="M125.622,68.441L85.457,83.87c-1.498,0.576-1.498,2.695,0,3.271l40.165,15.43
			c1.618,0.621,3.408,0.621,5.026,0l40.165-15.43c1.498-0.576,1.498-2.695,0-3.271l-40.165-15.429
			C129.03,67.819,127.239,67.819,125.622,68.441z"/>
	</g>
	<g>
		<path class="st1" d="M128.135,105.038c-1.095,0-2.188-0.2-3.23-0.601L84.74,89.008c-1.462-0.562-2.406-1.937-2.406-3.503
			c0-1.566,0.944-2.94,2.405-3.502l40.166-15.43l-0.001,0c2.084-0.801,4.377-0.801,6.461,0l40.164,15.429
			c1.462,0.562,2.406,1.937,2.406,3.502c0,1.566-0.944,2.941-2.405,3.502l-40.166,15.43
			C130.323,104.837,129.229,105.038,128.135,105.038z M86.776,85.506l39.563,15.197c1.158,0.445,2.435,0.445,3.591,0l39.563-15.198
			l-39.563-15.197c-1.158-0.445-2.435-0.445-3.591,0c0,0,0,0-0.001,0L86.776,85.506z M125.622,68.441h0.01H125.622z"/>
	</g>
	<g>
		<path class="st2" d="M152.831,88.198h-49.226c-0.45,0-0.815,0.365-0.815,0.815v12.154c0,2.683,11.385,4.858,25.428,4.858
			s25.428-2.175,25.428-4.858h0.001V89.014C153.646,88.563,153.281,88.198,152.831,88.198z"/>
	</g>
	<g>
		<path class="st1" d="M128.218,108.025c-6.435,0-27.428-0.495-27.428-6.857V89.014c0-1.552,1.263-2.815,2.814-2.815h49.227
			c1.553,0,2.815,1.263,2.815,2.815v12.154C155.645,107.531,134.651,108.025,128.218,108.025z M104.79,100.796
			c1.464,1.17,9.527,3.229,23.428,3.229s21.964-2.059,23.428-3.229l0.001-10.598H104.79V100.796z M152.831,90.198h0.01H152.831z"/>
	</g>
</g>
</svg>
