<?xml version="1.0" encoding="utf-8"?>
<!-- Generator: Adobe Illustrator 22.1.0, SVG Export Plug-In . SVG Version: 6.00 Build 0)  -->
<svg version="1.1" id="Layer_1" xmlns="http://www.w3.org/2000/svg" xmlns:xlink="http://www.w3.org/1999/xlink" x="0px" y="0px"
	 viewBox="0 0 256 256" style="enable-background:new 0 0 256 256;" xml:space="preserve">
<style type="text/css">
	.st0{fill:#E0EBFC;}
	.st1{fill:#3762CC;}
	.st2{fill:#4671C6;}
	.st3{fill:#6BDDDD;}
	.st4{fill:#F9A7A7;}
	.st5{fill:#A4C9FF;}
	.st6{fill:#FFEA92;}
	.st7{fill:#F9CFCF;}
	.st8{fill:#FFE164;}
	.st9{fill:#FFDC85;}
	.st10{fill:#FFEA94;}
	.st11{fill:#B9BEFC;}
	.st12{fill:#EAA97D;}
</style>
<g>
	<g>
		<path class="st7" d="M189.7,75.823c-31.877-37.66-90.574-38.78-123.398-0.003c-1.59,1.877-1.231,4.719,0.734,6.2l0.001,0
			c1.554,1.172,3.692,1.153,5.236-0.032c9.023-6.922,20.032-12.183,32.271-15.169c-0.387,2.402-0.307,3.198-0.307,11.404h47.528
			c0-8.268,0.08-9.003-0.307-11.404c12.24,2.987,23.25,8.249,32.274,15.172c1.544,1.185,3.682,1.205,5.236,0.032
			C190.93,80.542,191.289,77.701,189.7,75.823z"/>
	</g>
	<g>
		<path class="st6" d="M151.456,66.819c2.138,0.522,4.224,1.137,6.283,1.795l0.01-0.016c2.464-4.096,4.099-8.744,4.691-13.713
			c-21.643-10.193-47.034-10.375-68.873-0.078l-0.009,0.073c0.591,4.971,2.227,9.621,4.692,13.718l0.01,0.016
			c2.059-0.657,4.145-1.273,6.283-1.795c-0.387,2.402-0.307,3.198-0.307,11.404l0,0h47.528l0,0
			C151.764,69.955,151.843,69.22,151.456,66.819z"/>
	</g>
	<g>
		<path class="st1" d="M186.375,84.885c-1.362,0-2.727-0.437-3.862-1.308c-8.204-6.294-18.104-11.138-28.78-14.099
			c0.043,1.141,0.04,2.65,0.035,5.216l-0.004,3.528c0,1.104-0.896,2-2,2h-47.528c-1.104,0-2-0.896-2-2l-0.004-3.526
			c-0.005-2.539-0.008-4.057,0.036-5.219c-10.677,2.961-20.576,7.805-28.778,14.098c-2.252,1.726-5.401,1.745-7.657,0.042
			c-1.389-1.048-2.296-2.64-2.488-4.368c-0.192-1.728,0.315-3.404,1.432-4.722c15.8-18.665,38.793-29.371,63.079-29.371
			c0.002,0,0,0,0.001,0c24.473,0,47.57,10.706,63.371,29.374l0,0c1.116,1.318,1.624,2.996,1.431,4.724
			c-0.193,1.729-1.1,3.319-2.487,4.365C189.052,84.463,187.714,84.885,186.375,84.885z M151.456,64.818
			c0.158,0,0.317,0.019,0.475,0.057c12.258,2.992,23.675,8.361,33.017,15.528c0.829,0.636,1.988,0.648,2.813,0.022
			c0.522-0.394,0.849-0.967,0.922-1.615c0.069-0.624-0.111-1.227-0.509-1.696c-15.04-17.768-37.025-27.958-60.318-27.958
			c-23.108-0.001-44.988,10.188-60.027,27.955c-0.397,0.471-0.579,1.072-0.509,1.695c0.072,0.648,0.398,1.223,0.92,1.616
			c0.829,0.626,1.985,0.615,2.814-0.021c9.34-7.165,20.756-12.534,33.015-15.526c0.651-0.157,1.339,0.02,1.832,0.475
			c0.492,0.454,0.724,1.126,0.617,1.787c-0.297,1.842-0.296,2.603-0.286,7.552l0.002,1.534h43.532l0.002-1.536
			c0.01-4.945,0.011-5.706-0.286-7.551c-0.106-0.661,0.126-1.332,0.618-1.787C150.473,65.004,150.959,64.818,151.456,64.818z"/>
	</g>
	<g>
		<path class="st1" d="M186.375,84.885c-1.362,0-2.727-0.437-3.862-1.308c-8.204-6.294-18.104-11.138-28.78-14.099
			c0.043,1.141,0.04,2.65,0.035,5.216l-0.004,3.528c0,1.104-0.896,2-2,2h-47.528c-1.104,0-2-0.896-2-2l-0.004-3.526
			c-0.005-2.539-0.008-4.057,0.036-5.219c-10.677,2.961-20.576,7.805-28.778,14.098c-2.252,1.726-5.401,1.745-7.657,0.042
			c-1.389-1.048-2.296-2.64-2.488-4.368c-0.192-1.728,0.315-3.404,1.432-4.722c15.8-18.665,38.793-29.371,63.079-29.371
			c0.002,0,0,0,0.001,0c24.473,0,47.57,10.706,63.371,29.374l0,0c1.116,1.318,1.624,2.996,1.431,4.724
			c-0.193,1.729-1.1,3.319-2.487,4.365C189.052,84.463,187.714,84.885,186.375,84.885z M151.456,64.818
			c0.158,0,0.317,0.019,0.475,0.057c12.258,2.992,23.675,8.361,33.017,15.528c0.829,0.636,1.988,0.648,2.813,0.022
			c0.522-0.394,0.849-0.967,0.922-1.615c0.069-0.624-0.111-1.227-0.509-1.696c-15.04-17.768-37.025-27.958-60.318-27.958
			c-23.108-0.001-44.988,10.188-60.027,27.955c-0.397,0.471-0.579,1.072-0.509,1.695c0.072,0.648,0.398,1.223,0.92,1.616
			c0.829,0.626,1.985,0.615,2.814-0.021c9.34-7.165,20.756-12.534,33.015-15.526c0.651-0.157,1.339,0.02,1.832,0.475
			c0.492,0.454,0.724,1.126,0.617,1.787c-0.297,1.842-0.296,2.603-0.286,7.552l0.002,1.534h43.532l0.002-1.536
			c0.01-4.945,0.011-5.706-0.286-7.551c-0.106-0.661,0.126-1.332,0.618-1.787C150.473,65.004,150.959,64.818,151.456,64.818z"/>
	</g>
	<g>
		<circle class="st7" cx="127.999" cy="29.07" r="21.071"/>
	</g>
	<g>
		<path class="st1" d="M127.999,52.142c-12.721,0-23.07-10.35-23.07-23.071s10.35-23.071,23.07-23.071
			c12.722,0,23.071,10.35,23.071,23.071S140.721,52.142,127.999,52.142z M127.999,9.999c-10.516,0-19.07,8.556-19.07,19.071
			s8.555,19.071,19.07,19.071s19.071-8.556,19.071-19.071S138.515,9.999,127.999,9.999z"/>
	</g>
	<g>
		<path class="st7" d="M75.823,66.299c-16.403,13.884-27.2,34.187-28.501,57.035c-1.427,7.17-0.363,41.933,28.498,66.364
			c1.877,1.59,4.719,1.231,6.2-0.734l0-0.001c1.172-1.554,1.153-3.692-0.032-5.236c-6.922-9.023-12.183-20.032-15.169-32.271
			c2.402,0.387,3.198,0.307,11.404,0.307v-47.528c-8.268,0-9.003-0.08-11.404,0.307c2.987-12.24,8.249-23.25,15.172-32.274
			c1.185-1.544,1.205-3.682,0.032-5.236C80.542,65.069,77.701,64.709,75.823,66.299z"/>
	</g>
	<g>
		<path class="st5" d="M54.88,93.558c-4.305,9.119-6.954,19.172-7.558,29.773c-0.615,3.086-0.616,6.246,0,9.337
			c0.604,10.601,3.253,20.654,7.558,29.773c4.971-0.591,9.621-2.227,13.718-4.692c-0.656-2.054-1.236-4.156-1.758-6.289
			c2.438,0.39,3.344,0.303,11.383,0.303v-47.528c-8.145,0-8.985-0.08-11.383,0.303c0.522-2.133,1.102-4.234,1.758-6.289
			C64.5,95.785,59.851,94.149,54.88,93.558z"/>
	</g>
	<g>
		<path class="st1" d="M78.535,192.695c-1.471,0-2.873-0.511-4.008-1.472c-27.79-23.524-31.119-57.997-29.195-68.139
			c1.318-22.47,11.955-43.718,29.198-58.313l0,0c1.317-1.116,2.999-1.621,4.724-1.432c1.729,0.193,3.319,1.101,4.366,2.489
			c1.702,2.255,1.685,5.403-0.043,7.656c-6.294,8.204-11.138,18.104-14.099,28.779c1.135-0.043,2.633-0.041,5.187-0.034l3.558,0.004
			c1.104,0,2,0.896,2,2v47.528c0,1.104-0.896,2-2,2l-3.526,0.004c-2.54,0.007-4.057,0.007-5.219-0.036
			c2.962,10.676,7.805,20.575,14.098,28.777c1.727,2.253,1.744,5.401,0.042,7.658c-1.048,1.389-2.64,2.296-4.368,2.488
			C79.01,192.683,78.771,192.695,78.535,192.695z M78.549,67.302c-0.528,0-1.03,0.182-1.435,0.523l0,0
			c-16.444,13.919-26.575,34.193-27.796,55.623c-0.006,0.093-0.018,0.185-0.035,0.276c-1.146,5.756-0.916,40.114,27.828,64.446
			c0.47,0.397,1.073,0.581,1.695,0.509c0.648-0.072,1.223-0.398,1.616-0.92c0.624-0.828,0.615-1.985-0.021-2.816
			c-7.165-9.339-12.533-20.754-15.526-33.013c-0.158-0.651,0.02-1.339,0.475-1.832c0.453-0.492,1.122-0.722,1.787-0.617
			c1.842,0.298,2.605,0.302,7.552,0.286l1.534-0.002v-43.532l-1.565-0.002c-4.927-0.013-5.681-0.011-7.521,0.285
			c-0.658,0.104-1.332-0.125-1.787-0.618c-0.454-0.492-0.632-1.18-0.474-1.831c2.992-12.257,8.361-23.674,15.528-33.017
			c0.637-0.83,0.646-1.986,0.022-2.813c-0.394-0.522-0.967-0.85-1.616-0.922C78.723,67.307,78.636,67.302,78.549,67.302z
			 M75.822,66.299h0.01H75.822z"/>
	</g>
	<g>
		<circle class="st7" cx="29.07" cy="127.999" r="21.071"/>
	</g>
	<g>
		<path class="st1" d="M29.07,151.07c-12.722,0-23.071-10.35-23.071-23.071c0-12.721,10.35-23.07,23.071-23.07
			s23.071,10.35,23.071,23.07C52.142,140.721,41.792,151.07,29.07,151.07z M29.07,108.929c-10.516,0-19.071,8.555-19.071,19.07
			s8.556,19.071,19.071,19.071s19.071-8.556,19.071-19.071S39.586,108.929,29.07,108.929z"/>
	</g>
	<g>
		<path class="st7" d="M180.177,66.3c16.403,13.884,27.2,34.187,28.501,57.035c0.614,3.087,0.615,6.242,0,9.331
			c-1.301,22.846-12.096,43.148-28.498,57.033c-1.877,1.59-4.719,1.231-6.2-0.734l0-0.001c-1.172-1.554-1.153-3.692,0.032-5.236
			c6.922-9.023,12.183-20.032,15.169-32.271c-2.402,0.387-3.198,0.307-11.404,0.307v-47.528c8.268,0,9.003-0.08,11.404,0.307
			c-2.987-12.24-8.249-23.25-15.172-32.274c-1.185-1.544-1.205-3.682-0.032-5.236C175.458,65.07,178.299,64.711,180.177,66.3z"/>
	</g>
	<g>
		<path class="st3" d="M201.12,93.559c4.305,9.119,6.954,19.172,7.558,29.773c0.615,3.086,0.616,6.246,0,9.337
			c-0.604,10.601-3.253,20.654-7.558,29.773c-4.971-0.591-9.621-2.227-13.718-4.692c0.656-2.054,1.236-4.156,1.758-6.289
			c-2.438,0.39-3.344,0.303-11.383,0.303v-47.528c8.145,0,8.985-0.08,11.383,0.303c-0.522-2.133-1.102-4.234-1.758-6.289
			C191.5,95.786,196.149,94.151,201.12,93.559z"/>
	</g>
	<g>
		<path class="st1" d="M177.465,192.696c-0.236,0-0.475-0.013-0.715-0.04c-1.728-0.192-3.319-1.099-4.366-2.487
			c-1.703-2.257-1.687-5.406,0.041-7.658c6.293-8.202,11.137-18.102,14.098-28.778c-1.163,0.044-2.677,0.043-5.219,0.036
			l-3.526-0.004c-1.104,0-2-0.896-2-2v-47.528c0-1.104,0.896-2,2-2l3.528-0.004c2.564-0.007,4.075-0.008,5.216,0.035
			c-2.961-10.676-7.805-20.576-14.099-28.779c-1.728-2.254-1.745-5.403-0.042-7.659c1.046-1.387,2.637-2.293,4.364-2.486
			c1.725-0.196,3.405,0.314,4.725,1.431l0,0c17.243,14.595,27.88,35.841,29.198,58.311c0.631,3.262,0.631,6.568,0,9.833
			c-1.317,22.469-11.953,43.714-29.195,58.308C180.338,192.186,178.936,192.696,177.465,192.696z M189.182,149.457
			c0.554,0,1.088,0.229,1.469,0.643c0.455,0.493,0.633,1.181,0.475,1.832c-2.992,12.259-8.361,23.675-15.526,33.015
			c-0.637,0.829-0.646,1.986-0.022,2.813c0.394,0.521,0.969,0.849,1.618,0.921c0.621,0.071,1.225-0.111,1.694-0.509
			c16.443-13.918,26.573-34.19,27.793-55.619c0.006-0.093,0.018-0.186,0.035-0.276c0.564-2.839,0.564-5.716,0-8.551
			c-0.018-0.092-0.029-0.184-0.035-0.277c-1.221-21.429-11.352-41.703-27.796-55.622l0,0c-0.471-0.397-1.073-0.578-1.696-0.509
			c-0.648,0.073-1.222,0.399-1.615,0.921c-0.624,0.827-0.614,1.984,0.022,2.815c7.167,9.341,12.536,20.758,15.528,33.016
			c0.158,0.651-0.02,1.339-0.474,1.831c-0.455,0.493-1.13,0.722-1.787,0.618c-1.845-0.296-2.602-0.297-7.551-0.286l-1.536,0.002
			v43.532l1.534,0.002c4.953,0.014,5.71,0.011,7.552-0.286C188.97,149.466,189.076,149.457,189.182,149.457z"/>
	</g>
	<g>
		<circle class="st7" cx="226.93" cy="128.001" r="21.071"/>
	</g>
	<g>
		<path class="st1" d="M226.93,151.071c-12.722,0-23.071-10.35-23.071-23.07c0-12.722,10.35-23.071,23.071-23.071
			s23.071,10.35,23.071,23.071C250.001,140.722,239.651,151.071,226.93,151.071z M226.93,108.93
			c-10.516,0-19.071,8.556-19.071,19.071s8.556,19.07,19.071,19.07s19.071-8.555,19.071-19.07S237.445,108.93,226.93,108.93z"/>
	</g>
	<g>
		<path class="st7" d="M189.701,180.177c-13.884,16.403-34.187,27.2-57.035,28.501c-7.17,1.427-41.933,0.363-66.364-28.498
			c-1.59-1.877-1.231-4.719,0.734-6.2l0.001,0c1.554-1.172,3.692-1.153,5.236,0.032c9.023,6.922,20.032,12.183,32.271,15.169
			c-0.387-2.402-0.307-3.198-0.307-11.404h47.528c0,8.268,0.08,9.003-0.307,11.404c12.24-2.987,23.25-8.249,32.274-15.172
			c1.544-1.185,3.682-1.205,5.236-0.032C190.931,175.458,191.291,178.299,189.701,180.177z"/>
	</g>
	<g>
		<path class="st2" d="M151.458,189.181c0.387-2.402,0.307-3.136,0.307-11.404h-47.528c0,8.206-0.08,9.002,0.307,11.404
			c-2.142-0.523-4.231-1.139-6.293-1.798l0,0.019c-2.46,4.089-4.093,8.728-4.688,13.688c17.774,8.387,34.393,8.526,39.103,7.588
			c10.607-0.604,20.653-3.277,29.776-7.585v-15.351C158.908,187.087,155.25,188.256,151.458,189.181z"/>
	</g>
	<g>
		<path class="st1" d="M127.087,211.114c-14.067,0.001-42.192-5.875-62.311-29.642c-1.116-1.317-1.624-2.995-1.432-4.723
			s1.099-3.319,2.487-4.366c2.258-1.701,5.406-1.687,7.658,0.041c8.203,6.293,18.103,11.136,28.778,14.098
			c-0.044-1.162-0.041-2.68-0.036-5.219l0.004-3.526c0-1.104,0.896-2,2-2h47.528c1.104,0,2,0.896,2,2l0.004,3.558
			c0.005,2.549,0.008,4.051-0.034,5.187c10.675-2.961,20.575-7.805,28.779-14.099c2.252-1.727,5.4-1.744,7.658-0.042
			c1.387,1.046,2.294,2.637,2.487,4.365c0.193,1.728-0.315,3.405-1.432,4.724c-14.595,17.243-35.843,27.88-58.313,29.198
			C131.447,210.946,129.468,211.114,127.087,211.114z M69.629,175.114c-0.49,0-0.979,0.154-1.388,0.462
			c-0.521,0.394-0.849,0.969-0.921,1.618c-0.069,0.622,0.111,1.225,0.509,1.694c24.332,28.743,58.694,28.977,64.446,27.828
			c0.092-0.018,0.184-0.029,0.276-0.035c21.43-1.221,41.704-11.352,55.623-27.796l0,0c0.397-0.471,0.579-1.072,0.509-1.695
			c-0.072-0.649-0.399-1.223-0.92-1.615c-0.828-0.624-1.984-0.615-2.814,0.021c-9.343,7.167-20.76,12.536-33.017,15.528
			c-0.652,0.158-1.339-0.02-1.831-0.474c-0.492-0.455-0.725-1.126-0.618-1.787c0.296-1.841,0.295-2.598,0.285-7.521l-0.002-1.565
			h-43.532l-0.002,1.534c-0.01,4.949-0.011,5.71,0.286,7.552c0.106,0.661-0.125,1.333-0.617,1.787
			c-0.493,0.455-1.183,0.632-1.832,0.475c-12.259-2.993-23.674-8.361-33.014-15.526C70.636,175.276,70.132,175.114,69.629,175.114z"
			/>
	</g>
	<g>
		<circle class="st7" cx="128.001" cy="226.93" r="21.071"/>
	</g>
	<g>
		<path class="st1" d="M128.001,250.001c-12.722,0-23.071-10.35-23.071-23.071s10.35-23.071,23.071-23.071
			c12.721,0,23.07,10.35,23.07,23.071S140.722,250.001,128.001,250.001z M128.001,207.858c-10.516,0-19.071,8.556-19.071,19.071
			s8.556,19.071,19.071,19.071s19.07-8.556,19.07-19.071S138.517,207.858,128.001,207.858z"/>
	</g>
	<g>
		<circle class="st4" cx="127.999" cy="127.999" r="55.35"/>
	</g>
	<g>
		<path class="st6" d="M167.419,142.887c0-7.892,0-14.379,0-21.106l-2.621,1.007c0,7.496,0,15.622,0,20.099
			c-0.933,0.477-1.572,1.446-1.572,2.566v6.901h5.766v-6.901C168.992,144.333,168.352,143.365,167.419,142.887z"/>
	</g>
	<g>
		<path class="st2" d="M125.648,104.08l-37.589,14.44c-1.402,0.539-1.402,2.522,0,3.061l37.589,14.44
			c1.514,0.582,3.19,0.582,4.704,0l37.589-14.44c1.402-0.539,1.402-2.522,0-3.061l-37.589-14.44
			C128.837,103.499,127.162,103.499,125.648,104.08z"/>
	</g>
	<g>
		<path class="st1" d="M127.999,138.458c-1.04,0-2.079-0.189-3.068-0.569l-37.589-14.44c-1.418-0.545-2.334-1.878-2.334-3.397
			s0.916-2.853,2.334-3.397l37.589-14.44l0,0c1.979-0.761,4.158-0.759,6.138,0l37.589,14.44c1.418,0.545,2.334,1.878,2.334,3.397
			s-0.916,2.853-2.334,3.397l-37.589,14.44C130.079,138.269,129.039,138.458,127.999,138.458z M89.652,120.051l36.712,14.104
			c1.055,0.404,2.216,0.404,3.271,0l36.712-14.104l-36.712-14.104c-1.055-0.404-2.216-0.405-3.271,0L89.652,120.051z"/>
	</g>
	<g>
		<path class="st2" d="M152.037,139.343h-47.919c-0.602,0-1.091-0.488-1.091-1.091v-15.03c0-0.602,0.488-1.091,1.091-1.091h47.919
			c0.602,0,1.091,0.488,1.091,1.091v15.03C153.127,138.855,152.639,139.343,152.037,139.343z"/>
	</g>
	<g>
		<path class="st1" d="M152.037,141.343h-47.919c-1.704,0-3.091-1.386-3.091-3.09v-15.03c0-1.704,1.387-3.091,3.091-3.091h47.919
			c1.704,0,3.09,1.387,3.09,3.091v15.03C155.127,139.957,153.741,141.343,152.037,141.343z M105.027,137.343h46.1v-13.211h-46.1
			V137.343z"/>
	</g>
	<g>
		<path class="st1" d="M127.999,185.35c-31.623,0-57.35-25.728-57.35-57.351s25.727-57.35,57.35-57.35s57.351,25.727,57.351,57.35
			S159.622,185.35,127.999,185.35z M127.999,74.649c-29.417,0-53.35,23.933-53.35,53.35c0,29.418,23.933,53.351,53.35,53.351
			c29.418,0,53.351-23.933,53.351-53.351C181.35,98.582,157.417,74.649,127.999,74.649z"/>
	</g>
</g>
</svg>
