<?xml version="1.0" encoding="utf-8"?>
<!-- Generator: Adobe Illustrator 22.1.0, SVG Export Plug-In . SVG Version: 6.00 Build 0)  -->
<svg version="1.1" id="Layer_1" xmlns="http://www.w3.org/2000/svg" xmlns:xlink="http://www.w3.org/1999/xlink" x="0px" y="0px"
	 viewBox="0 0 256 256" style="enable-background:new 0 0 256 256;" xml:space="preserve">
<style type="text/css">
	.st0{fill:#E0EBFC;}
	.st1{fill:#3762CC;}
	.st2{fill:#4671C6;}
	.st3{fill:#6BDDDD;}
	.st4{fill:#F9A7A7;}
	.st5{fill:#A4C9FF;}
	.st6{fill:#FFEA92;}
	.st7{fill:#F9CFCF;}
	.st8{fill:#FFE164;}
	.st9{fill:#FFDC85;}
	.st10{fill:#FFEA94;}
	.st11{fill:#B9BEFC;}
	.st12{fill:#EAA97D;}
</style>
<g>
	<g>
		<path class="st2" d="M192.282,73.524c1.344,4.719,2.078,9.69,2.078,14.835v5.153c4.936-0.1,9.336,1.894,12.446,5.105
			c4.702-8.387,7.251-18.144,7.251-29.348c0-10.847-5.853-20.321-14.569-25.453c0.298,2.02,0.457,4.084,0.457,6.186
			C199.944,58.798,197.098,66.925,192.282,73.524z"/>
	</g>
	<g>
		<path class="st1" d="M206.806,100.617c-0.538,0-1.058-0.217-1.437-0.608c-2.892-2.985-6.803-4.569-10.968-4.498
			c-0.535,0.013-1.057-0.195-1.44-0.571c-0.384-0.376-0.601-0.891-0.601-1.429v-5.153c0-4.813-0.674-9.62-2.002-14.288
			c-0.168-0.592-0.055-1.229,0.309-1.726c4.761-6.525,7.277-14.251,7.277-22.343c0-1.951-0.146-3.934-0.436-5.894
			c-0.112-0.762,0.223-1.521,0.861-1.951s1.469-0.455,2.132-0.064c9.595,5.648,15.555,16.062,15.555,27.177
			c0,11.239-2.525,21.442-7.507,30.326c-0.309,0.551-0.86,0.924-1.486,1.005C206.978,100.612,206.892,100.617,206.806,100.617z
			 M196.36,91.577c3.628,0.307,7.022,1.631,9.873,3.846c3.866-7.752,5.823-16.537,5.823-26.154c0-8.304-3.813-16.161-10.162-21.346
			c0.033,0.695,0.05,1.389,0.05,2.079c0,8.62-2.583,16.864-7.481,23.908c1.26,4.73,1.897,9.586,1.897,14.449V91.577z"/>
	</g>
	<g>
		<path class="st2" d="M84.301,93.512v-5.153c0-0.295,0.018-0.586,0.022-0.88c-6.69-2.432-12.582-6.529-17.159-11.804v7.629
			c0,5.898,1.309,11.487,3.639,16.506C73.925,95.905,78.777,93.4,84.301,93.512z"/>
	</g>
	<g>
		<path class="st1" d="M70.805,101.809c-0.08,0-0.16-0.005-0.24-0.014c-0.688-0.083-1.283-0.516-1.575-1.144
			c-2.538-5.467-3.825-11.303-3.825-17.348v-7.629c0-0.835,0.519-1.582,1.3-1.874c0.783-0.293,1.663-0.068,2.21,0.563
			c4.393,5.063,10.04,8.948,16.331,11.234c0.802,0.292,1.331,1.06,1.316,1.913l-0.011,0.406c-0.005,0.146-0.011,0.293-0.011,0.441
			v5.153c0,0.538-0.216,1.052-0.6,1.429c-0.384,0.376-0.899,0.582-1.44,0.571c-4.673-0.09-9,1.927-11.895,5.547
			C71.984,101.536,71.408,101.809,70.805,101.809z M69.165,80.586v2.717c0,4.455,0.774,8.785,2.305,12.909
			c3.007-2.67,6.778-4.29,10.832-4.635v-2.731C77.466,86.904,73.008,84.096,69.165,80.586z"/>
	</g>
	<g>
		<path class="st5" d="M208.026,243.492H70.636v-39.538c0-16.26,13.181-29.441,29.441-29.441h78.508
			c16.26,0,29.441,13.181,29.441,29.441V243.492z"/>
	</g>
	<g>
		<path class="st7" d="M139.331,168.773c-9.234,0-17.929-2.263-25.569-6.248v11.989v0.003c0,14.108,11.436,25.544,25.544,25.544h0
			c14.108,0,25.544-11.436,25.544-25.544v-0.003v-11.962C157.222,166.519,148.545,168.773,139.331,168.773z"/>
	</g>
	<g>
		<path class="st1" d="M208.025,245.492H70.636c-1.104,0-2-0.896-2-2v-39.538c0-17.336,14.104-31.44,31.44-31.44h11.686v-9.989
			c0-0.699,0.365-1.348,0.963-1.71c0.598-0.363,1.342-0.387,1.962-0.063c7.553,3.939,16.075,6.021,24.645,6.021
			c8.551,0,17.056-2.073,24.596-5.996c0.621-0.321,1.363-0.298,1.961,0.065c0.597,0.362,0.962,1.011,0.962,1.709v9.962h11.735
			c17.336,0,31.44,14.104,31.44,31.44v39.538C210.025,244.597,209.13,245.492,208.025,245.492z M72.636,241.492h133.39v-37.538
			c0-15.131-12.31-27.44-27.44-27.44H164.85c-1.104,0-2-0.896-2-2v-8.773c-7.351,3.3-15.416,5.032-23.519,5.032
			c-8.121,0-16.204-1.74-23.569-5.055v8.796c0,1.104-0.896,2-2,2h-13.686c-15.131,0-27.44,12.31-27.44,27.44V241.492z"/>
	</g>
	<g>
		<path class="st0" d="M134.931,243.492h22.48l37.114-64.284c1.103-1.91,0.448-4.352-1.462-5.455l-9.943-5.741
			c-1.91-1.103-4.352-0.448-5.455,1.462L134.931,243.492z"/>
	</g>
	<g>
		<path class="st1" d="M157.411,245.492h-22.479c-0.715,0-1.375-0.381-1.732-1c-0.356-0.619-0.356-1.381,0-2l42.734-74.019
			c0.801-1.386,2.093-2.378,3.64-2.792c1.545-0.414,3.161-0.201,4.548,0.599l9.943,5.741c1.387,0.8,2.378,2.093,2.792,3.639
			s0.202,3.162-0.6,4.548l-37.113,64.284C158.786,245.111,158.126,245.492,157.411,245.492z M138.396,241.492h17.861l36.536-63.284
			c0.267-0.461,0.338-0.999,0.2-1.513s-0.468-0.944-0.929-1.21l-9.943-5.741c-0.463-0.267-1.001-0.336-1.513-0.199
			c-0.515,0.138-0.944,0.468-1.21,0.929L138.396,241.492z"/>
	</g>
	<g>
		<path class="st2" d="M152.377,243.492H94.056v-74.719h54.356c2.19,0,3.965,1.775,3.965,3.965V243.492z"/>
	</g>
	<g>
		<path class="st4" d="M94.056,243.492h-9.72v-70.754c0-2.19,1.775-3.965,3.965-3.965h5.755V243.492z"/>
	</g>
	<g>
		<path class="st0" d="M142.319,196.22h-38.205c-1.133,0-2.052-0.919-2.052-2.052V182.03c0-1.133,0.919-2.052,2.052-2.052h38.205
			c1.133,0,2.052,0.919,2.052,2.052v12.138C144.371,195.301,143.452,196.22,142.319,196.22z"/>
	</g>
	<g>
		<path class="st1" d="M152.377,245.492H94.056c-1.104,0-2-0.896-2-2v-74.719c0-1.104,0.896-2,2-2h54.355
			c3.29,0,5.966,2.676,5.966,5.965v70.754C154.377,244.597,153.481,245.492,152.377,245.492z M96.056,241.492h54.321v-68.754
			c0-1.083-0.882-1.965-1.966-1.965H96.056V241.492z"/>
	</g>
	<g>
		<path class="st1" d="M94.056,245.492h-9.72c-1.104,0-2-0.896-2-2v-70.754c0-3.289,2.676-5.965,5.965-5.965h5.755
			c1.104,0,2,0.896,2,2v74.719C96.056,244.597,95.161,245.492,94.056,245.492z M86.336,241.492h5.72v-70.719h-3.755
			c-1.083,0-1.965,0.882-1.965,1.965V241.492z"/>
	</g>
	<g>
		<path class="st7" d="M169.264,239.548v-26.451c0-1.452-0.786-2.789-2.055-3.495l-6.715-3.737
			c-1.487-0.828-3.161-1.262-4.863-1.262h-13.03c-5.106,0-10.128,1.303-14.589,3.786l-0.003,0.002
			c-0.869,0.484-1.855,0.717-2.848,0.673l-62.354-2.718c-9.041-0.395-17.22,5.334-19.94,13.966h0c-1.232,3.91-1.232,8.105,0,12.015
			h0c2.719,8.632,10.898,14.36,19.94,13.966l62.358-2.719c0.993-0.043,1.979,0.19,2.848,0.673h0
			c4.462,2.483,9.483,3.786,14.589,3.786H155.7c1.713,0,3.398-0.44,4.892-1.278l6.63-3.719
			C168.483,242.329,169.264,240.995,169.264,239.548z"/>
	</g>
	<g>
		<path class="st1" d="M155.699,250.033h-13.098c-5.433,0-10.813-1.396-15.562-4.039c-0.546-0.304-1.162-0.447-1.788-0.423
			l-62.358,2.719c-9.916,0.437-18.948-5.885-21.934-15.363c-1.362-4.323-1.362-8.894,0-13.217
			c2.986-9.479,12.004-15.797,21.935-15.363l62.354,2.719c0.625,0.028,1.243-0.12,1.79-0.423c4.75-2.644,10.132-4.041,15.564-4.041
			h13.03c2.037,0,4.056,0.524,5.836,1.515l6.715,3.737c1.901,1.058,3.082,3.067,3.082,5.243v26.451c0,2.167-1.175,4.173-3.065,5.233
			l-6.629,3.718C159.782,249.503,157.752,250.033,155.699,250.033z M125.4,241.568c1.253,0,2.486,0.319,3.585,0.931
			c4.154,2.312,8.862,3.534,13.616,3.534h13.098c1.368,0,2.722-0.354,3.914-1.022l6.629-3.718c0.631-0.354,1.022-1.022,1.022-1.745
			v-26.451c0-0.725-0.394-1.395-1.027-1.748l-6.715-3.737c-1.188-0.661-2.532-1.01-3.891-1.01h-13.03
			c-4.754,0-9.462,1.222-13.616,3.534c-1.196,0.665-2.543,0.988-3.911,0.926l-62.354-2.719c-8.132-0.341-15.502,4.814-17.945,12.569
			c-1.114,3.537-1.114,7.276,0,10.813c2.443,7.755,9.829,12.918,17.945,12.569l62.358-2.719
			C125.185,241.571,125.292,241.568,125.4,241.568z"/>
	</g>
	<g>
		<path class="st7" d="M194.36,93.512v-5.153c0-30.118-24.637-54.534-55.029-54.534l0,0c-30.392,0-55.029,24.416-55.029,54.534
			v5.153c-9.555-0.194-17.136,7.418-17.136,16.62c0,9.825,8.578,17.597,18.59,16.539c5.679,24.127,27.503,42.103,53.576,42.103
			c26.074,0,47.897-17.977,53.576-42.103c9.999,1.057,18.59-6.7,18.59-16.539C211.496,100.926,203.91,93.318,194.36,93.512z"/>
	</g>
	<g>
		<path class="st1" d="M139.342,144.553L139.342,144.553c-3.901,0-7.53-1.403-9.956-3.848c-1.832-1.847-2.84-4.174-2.84-6.552
			c0-1.104,0.896-2,2-2c1.105,0,2,0.896,2,2c0,1.335,0.58,2.627,1.68,3.735c1.68,1.693,4.274,2.665,7.116,2.665
			c2.819,0,5.399-0.972,7.08-2.666c1.099-1.108,1.68-2.399,1.68-3.735c0-1.104,0.896-2,2-2s2,0.896,2,2
			c0,2.378-1.009,4.706-2.84,6.552C146.836,143.15,143.22,144.553,139.342,144.553z"/>
	</g>
	<g>
		<path class="st1" d="M167.9,122.649L167.9,122.649c-4.268,0-7.728-3.46-7.728-7.728v-8.243c0-4.268,3.46-7.728,7.728-7.728h0
			c4.268,0,7.728,3.46,7.728,7.728v8.243C175.628,119.189,172.168,122.649,167.9,122.649z"/>
	</g>
	<g>
		<path class="st1" d="M110.748,122.649L110.748,122.649c-4.268,0-7.728-3.46-7.728-7.728v-8.243c0-4.268,3.46-7.728,7.728-7.728h0
			c4.268,0,7.728,3.46,7.728,7.728v8.243C118.476,119.189,115.016,122.649,110.748,122.649z"/>
	</g>
	<g>
		<path class="st1" d="M139.331,170.773c-26.073,0-48.498-17.19-55.113-42.01c-4.749,0.059-9.356-1.65-12.886-4.825
			c-3.919-3.527-6.167-8.559-6.167-13.806c0-5.022,1.984-9.733,5.588-13.264c3.145-3.082,7.187-4.921,11.548-5.29v-3.218
			c0-31.173,25.583-56.534,57.03-56.534s57.029,25.361,57.029,56.534v3.218c4.361,0.369,8.402,2.208,11.548,5.291
			c3.604,3.531,5.588,8.241,5.588,13.264c0,5.247-2.247,10.279-6.166,13.805c-3.529,3.175-8.172,4.875-12.887,4.826
			C187.827,153.583,165.403,170.773,139.331,170.773z M85.756,124.67c0.918,0,1.731,0.63,1.945,1.542
			c5.622,23.882,26.852,40.562,51.629,40.562c24.776,0,46.007-16.679,51.628-40.561c0.231-0.981,1.164-1.641,2.157-1.531
			c4.209,0.445,8.417-0.91,11.538-3.718c3.077-2.769,4.842-6.717,4.842-10.832c0-3.938-1.558-7.634-4.388-10.407
			c-2.855-2.799-6.66-4.29-10.707-4.213c-0.535,0.013-1.057-0.195-1.44-0.571c-0.384-0.376-0.601-0.891-0.601-1.429v-5.153
			c0-28.967-23.789-52.534-53.029-52.534c-29.241,0-53.03,23.566-53.03,52.534v5.153c0,0.538-0.216,1.052-0.6,1.429
			c-0.384,0.375-0.899,0.582-1.44,0.571c-4.026-0.068-7.852,1.414-10.708,4.213c-2.829,2.772-4.387,6.468-4.387,10.407
			c0,4.115,1.765,8.063,4.843,10.833c3.12,2.808,7.327,4.16,11.536,3.717C85.616,124.673,85.687,124.67,85.756,124.67z"/>
	</g>
	<g>
		<path class="st2" d="M90.907,23.233C83.04,32.989,72.474,39.37,60.722,40.481c-2.1,0.198-3.683,2.002-3.683,4.111v3.971
			c0,22.867,18.537,41.404,41.404,41.404h61.537c22.072,0,39.965-17.893,39.965-39.965v0c0-23.215-18.82-42.035-42.035-42.035
			l-34.9,0C110.557,7.967,98.724,13.54,90.907,23.233z"/>
	</g>
	<g>
		<path class="st1" d="M159.979,91.967H98.443c-23.933,0-43.404-19.471-43.404-43.404v-3.971c0-3.183,2.362-5.806,5.495-6.103
			c10.821-1.022,21.056-6.886,28.817-16.511l0,0c8.205-10.175,20.473-16.011,33.659-16.011h34.899
			c24.281,0,44.035,19.754,44.035,44.035C201.944,73.142,183.119,91.967,159.979,91.967z M92.464,24.489
			C84.02,34.96,72.813,41.347,60.91,42.472c-1.049,0.099-1.871,1.031-1.871,2.12v3.971c0,21.728,17.677,39.404,39.404,39.404h61.537
			c20.934,0,37.965-17.031,37.965-37.965c0-22.076-17.96-40.035-40.035-40.035H123.01C111.04,9.967,99.906,15.26,92.464,24.489
			C92.464,24.489,92.464,24.489,92.464,24.489z M90.907,23.233h0.01H90.907z"/>
	</g>
</g>
</svg>
