<?xml version="1.0" encoding="utf-8"?>
<!-- Generator: Adobe Illustrator 22.0.0, SVG Export Plug-In . SVG Version: 6.00 Build 0)  -->
<svg version="1.1" id="Layer_1" xmlns="http://www.w3.org/2000/svg" xmlns:xlink="http://www.w3.org/1999/xlink" x="0px" y="0px"
	 viewBox="0 0 256 256" style="enable-background:new 0 0 256 256;" xml:space="preserve">
<style type="text/css">
	.st0{fill:#E0EBFC;}
	.st1{fill:#3762CC;}
	.st2{fill:#4671C6;}
	.st3{fill:#6BDDDD;}
	.st4{fill:#F9A7A7;}
	.st5{fill:#A4C9FF;}
	.st6{fill:#FFEA92;}
	.st7{fill:#F9CFCF;}
	.st8{fill:#FFE164;}
	.st9{fill:#FFDC85;}
	.st10{fill:#FFEA94;}
	.st11{fill:#B9BEFC;}
	.st12{fill:#EAA97D;}
</style>
<g>
	<g>
		<path class="st2" d="M231.083,75.121l-5.744-25.66h-28.856h-28.856l-5.744,25.66c-0.144,0.645-0.217,1.305-0.217,1.966v0.06
			c0,5.269,4.272,9.541,9.541,9.541h25.277h25.277c5.269,0,9.541-4.271,9.541-9.541v-0.06
			C231.301,76.426,231.228,75.766,231.083,75.121z"/>
	</g>
	<g>
		<path class="st1" d="M221.76,88.688h-50.554c-6.363,0-11.541-5.177-11.541-11.541c0-0.868,0.089-1.676,0.266-2.463l5.744-25.66
			c0.205-0.914,1.016-1.563,1.952-1.563h57.712c0.936,0,1.747,0.649,1.952,1.563l5.744,25.66c0.176,0.787,0.266,1.595,0.266,2.403
			C233.3,83.51,228.123,88.688,221.76,88.688z M169.228,51.461l-5.394,24.097c-0.112,0.5-0.169,1.015-0.169,1.529
			c0,4.218,3.383,7.601,7.541,7.601h50.554c4.158,0,7.541-3.383,7.541-7.541c0-0.574-0.057-1.088-0.169-1.588c0,0,0,0,0,0
			l-5.394-24.097H169.228z"/>
	</g>
	<g>
		<path class="st6" d="M169.014,115.613h54.937v-15.81c0-6.502-5.271-11.772-11.772-11.772h-31.393
			c-6.502,0-11.772,5.271-11.772,11.772V115.613z"/>
	</g>
	<g>
		<path class="st7" d="M206.707,84.19c0,0.481,0,3.361,0,3.842c0,5.641-4.573,10.214-10.214,10.214
			c-5.638,0-10.214-4.57-10.214-10.215V84.2C192.66,87.52,200.317,87.521,206.707,84.19z"/>
	</g>
	<g>
		<path class="st1" d="M223.951,117.613h-54.937c-1.104,0-2-0.896-2-2v-15.81c0-7.594,6.178-13.772,13.772-13.772h3.492V84.2
			c0-0.699,0.365-1.347,0.962-1.709c0.597-0.363,1.341-0.387,1.96-0.065c5.82,3.028,12.766,3.024,18.581-0.009
			c0.621-0.323,1.363-0.299,1.962,0.063c0.598,0.363,0.963,1.011,0.963,1.71v1.841h3.473c7.594,0,13.772,6.178,13.772,13.772v15.81
			C225.951,116.717,225.056,117.613,223.951,117.613z M171.014,113.613h50.937v-13.81c0-5.388-4.384-9.772-9.772-9.772h-5.473
			c-1.104,0-2-0.896-2-2v-0.782c-5.302,1.922-11.125,1.924-16.428,0.007v0.774c0,1.104-0.896,2-2,2h-5.492
			c-5.389,0-9.772,4.384-9.772,9.772V113.613z"/>
	</g>
	<g>
		<path class="st7" d="M61.03,86.688c-3.692,0-7.169-0.905-10.224-2.498v3.841v0.001c0,5.641,4.573,10.214,10.214,10.214
			s10.214-4.573,10.214-10.214v-0.001V84.2C68.184,85.787,64.715,86.688,61.03,86.688z"/>
	</g>
	<g>
		<path class="st1" d="M88.499,117.613H33.562c-1.104,0-2-0.896-2-2v-15.81c0-7.594,6.178-13.772,13.772-13.772h3.472V84.19
			c0-0.699,0.365-1.348,0.963-1.71c0.598-0.362,1.342-0.386,1.961-0.063c2.89,1.507,6.019,2.271,9.299,2.271
			c3.274,0,6.396-0.761,9.281-2.262c0.62-0.321,1.364-0.298,1.961,0.064c0.598,0.363,0.962,1.011,0.962,1.71v1.831h3.492
			c7.594,0,13.772,6.178,13.772,13.772v15.81C90.499,116.717,89.603,117.613,88.499,117.613z M35.562,113.613h50.937v-13.81
			c0-5.388-4.384-9.772-9.772-9.772h-5.492c-1.104,0-2-0.896-2-2v-0.778c-5.245,1.89-11.185,1.886-16.428-0.007v0.785
			c0,1.104-0.896,2-2,2h-5.472c-5.389,0-9.772,4.384-9.772,9.772V113.613z"/>
	</g>
	<g>
		<rect x="8" y="124.613" class="st4" width="240" height="102.108"/>
	</g>
	<g>
		<path class="st7" d="M246,233.613H10c-1.105,0-2-0.895-2-2v-14c0-1.105,0.895-2,2-2h236c1.105,0,2,0.895,2,2v14
			C248,232.717,247.105,233.613,246,233.613z"/>
	</g>
	<g>
		<path class="st7" d="M246,133.613H10c-1.105,0-2-0.895-2-2v-14c0-1.105,0.895-2,2-2h236c1.105,0,2,0.895,2,2v14
			C248,132.717,247.105,133.613,246,133.613z"/>
	</g>
	<g>
		<path class="st1" d="M246,235.613H10c-2.206,0-4-1.794-4-4v-14c0-2.206,1.794-4,4-4h236c2.206,0,4,1.794,4,4v14
			C250,233.818,248.206,235.613,246,235.613z M10,217.613v14h236.002l-0.002-14H10z"/>
	</g>
	<g>
		<path class="st1" d="M246,135.613H10c-2.206,0-4-1.794-4-4v-14c0-2.206,1.794-4,4-4h236c2.206,0,4,1.794,4,4v14
			C250,133.818,248.206,135.613,246,135.613z M10,117.613v14h236.002l-0.002-14H10z"/>
	</g>
	<g>
		<path class="st2" d="M204.261,215.613h-54.937v-15.81c0-6.502,5.271-11.772,11.772-11.772h31.393
			c6.502,0,11.772,5.271,11.772,11.772V215.613z"/>
	</g>
	<g>
		<path class="st7" d="M176.793,186.688c-3.692,0-7.169-0.905-10.224-2.498v3.841v0.001c0,5.641,4.573,10.214,10.214,10.214
			s10.214-4.573,10.214-10.214v-0.001V184.2C183.947,185.787,180.477,186.688,176.793,186.688z"/>
	</g>
	<g>
		<path class="st1" d="M204.261,217.613h-54.937c-1.104,0-2-0.896-2-2v-15.81c0-7.594,6.178-13.772,13.772-13.772h3.472v-1.841
			c0-0.699,0.365-1.348,0.963-1.71c0.598-0.362,1.342-0.386,1.961-0.063c2.89,1.507,6.019,2.271,9.299,2.271
			c3.274,0,6.396-0.761,9.281-2.262c0.62-0.322,1.364-0.298,1.961,0.064c0.598,0.363,0.962,1.011,0.962,1.71v1.831h3.492
			c7.594,0,13.772,6.178,13.772,13.772v15.81C206.261,216.717,205.366,217.613,204.261,217.613z M151.324,213.613h50.937v-13.81
			c0-5.388-4.384-9.772-9.772-9.772h-5.492c-1.104,0-2-0.896-2-2v-0.778c-5.245,1.89-11.185,1.886-16.428-0.007v0.785
			c0,1.104-0.896,2-2,2h-5.472c-5.389,0-9.772,4.384-9.772,9.772V213.613z"/>
	</g>
	<g>
		<path class="st3" d="M106.981,215.613H52.044v-15.81c0-6.502,5.271-11.772,11.772-11.772h31.393
			c6.502,0,11.772,5.271,11.772,11.772V215.613z"/>
	</g>
	<g>
		<path class="st7" d="M79.513,186.688c-3.692,0-7.169-0.905-10.224-2.498v3.841v0.001c0,5.641,4.573,10.214,10.214,10.214
			c5.641,0,10.214-4.573,10.214-10.214v-0.001V184.2C86.667,185.787,83.197,186.688,79.513,186.688z"/>
	</g>
	<g>
		<path class="st1" d="M106.981,217.613H52.044c-1.104,0-2-0.896-2-2v-15.81c0-7.594,6.178-13.772,13.772-13.772h3.472v-1.841
			c0-0.699,0.365-1.348,0.963-1.71c0.598-0.363,1.341-0.387,1.962-0.063c2.89,1.507,6.019,2.271,9.299,2.271
			c3.274,0,6.396-0.761,9.281-2.262c0.62-0.322,1.364-0.298,1.961,0.064c0.598,0.363,0.962,1.011,0.962,1.71v1.831h3.492
			c7.594,0,13.772,6.178,13.772,13.772v15.81C108.981,216.717,108.086,217.613,106.981,217.613z M54.044,213.613h50.937v-13.81
			c0-5.388-4.384-9.772-9.772-9.772h-5.492c-1.104,0-2-0.896-2-2v-0.778c-5.245,1.89-11.184,1.888-16.428-0.007v0.785
			c0,1.104-0.896,2-2,2h-5.472c-5.388,0-9.772,4.384-9.772,9.772V213.613z"/>
	</g>
	<g>
		<path class="st7" d="M83.034,56.594v-2.06c0-12.043-9.852-21.806-22.004-21.806l0,0c-12.153,0-22.004,9.763-22.004,21.806v2.06
			c-3.821-0.078-6.852,2.966-6.852,6.646c0,3.929,3.43,7.036,7.433,6.613C41.878,79.5,50.605,86.688,61.03,86.688
			c10.426,0,19.152-7.188,21.423-16.835c3.998,0.423,7.433-2.679,7.433-6.613C89.887,59.558,86.853,56.516,83.034,56.594z"/>
	</g>
	<g>
		<path class="st1" d="M61.035,77.092c-1.613,0-3.116-0.583-4.124-1.598c-0.77-0.775-1.194-1.756-1.194-2.761c0-0.552,0.448-1,1-1
			s1,0.448,1,1c0,0.48,0.212,0.948,0.614,1.352c0.625,0.63,1.636,1.007,2.703,1.007c1.074,0,2.054-0.367,2.688-1.006
			c0.402-0.405,0.614-0.873,0.614-1.353c0-0.552,0.448-1,1-1s1,0.448,1,1c0,1.004-0.424,1.985-1.194,2.761
			C64.136,76.51,62.639,77.092,61.035,77.092z"/>
	</g>
	<g>
		<path class="st1" d="M72.454,68.133L72.454,68.133c-1.707,0-3.09-1.384-3.09-3.09v-3.296c0-1.707,1.384-3.09,3.09-3.09h0
			c1.707,0,3.09,1.384,3.09,3.09v3.296C75.544,66.75,74.161,68.133,72.454,68.133z"/>
	</g>
	<g>
		<path class="st1" d="M49.601,68.133L49.601,68.133c-1.707,0-3.09-1.384-3.09-3.09v-3.296c0-1.707,1.384-3.09,3.09-3.09h0
			c1.707,0,3.09,1.384,3.09,3.09v3.296C52.691,66.75,51.308,68.133,49.601,68.133z"/>
	</g>
	<g>
		<path class="st1" d="M61.03,88.688c-10.673,0-19.893-6.846-22.953-16.835c-1.862-0.173-3.637-0.938-5.04-2.2
			c-1.82-1.638-2.864-3.975-2.864-6.413c0-2.333,0.921-4.521,2.594-6.161c1.191-1.167,2.659-1.95,4.258-2.292v-0.253
			c0-13.127,10.769-23.806,24.004-23.806s24.004,10.679,24.004,23.806v0.253c1.599,0.342,3.067,1.125,4.258,2.292
			c1.673,1.64,2.594,3.827,2.594,6.161c0,2.438-1.043,4.775-2.863,6.412c-1.404,1.263-3.179,2.027-5.041,2.201
			C80.923,81.842,71.703,88.688,61.03,88.688z M39.609,67.852c0.918,0,1.731,0.631,1.945,1.542
			c2.119,9.004,10.128,15.293,19.476,15.293c9.348,0,17.357-6.289,19.476-15.293c0.231-0.98,1.152-1.638,2.157-1.531
			c1.361,0.145,2.674-0.276,3.685-1.186c0.992-0.893,1.539-2.114,1.539-3.438c0-1.25-0.495-2.423-1.394-3.304
			c-0.91-0.892-2.123-1.358-3.418-1.343c-0.573,0.005-1.057-0.196-1.44-0.571c-0.384-0.376-0.6-0.891-0.6-1.428v-2.06
			c0-10.921-8.974-19.806-20.004-19.806s-20.004,8.885-20.004,19.806v2.06c0,0.538-0.216,1.052-0.6,1.428
			c-0.384,0.376-0.903,0.589-1.44,0.571c-1.299-0.032-2.508,0.45-3.417,1.342c-0.899,0.881-1.394,2.054-1.394,3.304
			c0,1.325,0.546,2.546,1.539,3.439c1.01,0.909,2.318,1.329,3.684,1.185C39.468,67.856,39.539,67.852,39.609,67.852z"/>
	</g>
	<g>
		<path class="st2" d="M41.668,28.492c-3.146,3.901-7.371,6.452-12.07,6.897c-0.84,0.079-1.473,0.8-1.473,1.644v1.588
			c0,9.144,7.412,16.556,16.556,16.556h24.606c8.826,0,15.98-7.155,15.98-15.98v0c0-9.283-7.525-16.808-16.808-16.808l-13.955,0
			C49.525,22.388,44.793,24.616,41.668,28.492z"/>
	</g>
	<g>
		<path class="st2" d="M39.026,56.594v-2.06c0-0.118,0.007-0.234,0.009-0.352c-2.675-0.972-5.031-2.611-6.861-4.72v3.051
			c0,2.358,0.523,4.593,1.455,6.6C34.877,57.551,36.817,56.549,39.026,56.594z"/>
	</g>
	<g>
		<path class="st2" d="M82.203,48.601c0.537,1.887,0.831,3.875,0.831,5.932v2.06c1.974-0.04,3.733,0.757,4.977,2.041
			c1.88-3.354,2.899-7.255,2.899-11.735c0-4.337-2.34-8.126-5.826-10.178c0.119,0.808,0.183,1.633,0.183,2.474
			C85.267,42.713,84.129,45.963,82.203,48.601z"/>
	</g>
	<g>
		<path class="st1" d="M69.287,57.176H44.681c-10.231,0-18.556-8.324-18.556-18.556v-1.588c0-1.895,1.412-3.458,3.284-3.635
			c4.002-0.378,7.803-2.566,10.701-6.161l0,0c3.51-4.353,8.756-6.849,14.394-6.849h13.955c10.371,0,18.809,8.438,18.809,18.808
			C87.268,49.11,79.202,57.176,69.287,57.176z M30.125,37.344v1.276c0,8.026,6.53,14.556,14.556,14.556h24.606
			c7.709,0,13.98-6.271,13.98-13.98c0-8.166-6.643-14.809-14.809-14.809H54.504c-4.421,0-8.533,1.954-11.28,5.36h0
			C39.723,34.09,35.083,36.778,30.125,37.344z"/>
	</g>
	<g>
		<path class="st1" d="M33.629,61.112c-0.08,0-0.16-0.005-0.24-0.014c-0.688-0.083-1.283-0.516-1.575-1.144
			c-1.089-2.346-1.641-4.85-1.641-7.442v-3.051c0-0.835,0.519-1.582,1.301-1.874c0.781-0.294,1.663-0.068,2.21,0.563
			c1.623,1.871,3.709,3.306,6.034,4.151c0.802,0.292,1.33,1.06,1.316,1.913l-0.009,0.319v2.06c0,0.538-0.216,1.052-0.6,1.428
			c-0.384,0.375-0.912,0.579-1.44,0.571c-1.476-0.014-2.873,0.614-3.795,1.768C34.809,60.839,34.232,61.112,33.629,61.112z
			 M34.249,53.959c0.062,0.599,0.165,1.189,0.305,1.771c0.481-0.274,0.988-0.502,1.514-0.68
			C35.441,54.722,34.834,54.357,34.249,53.959z"/>
	</g>
	<g>
		<path class="st1" d="M88.011,60.635c-0.538,0-1.057-0.217-1.437-0.608c-0.922-0.951-2.175-1.454-3.5-1.434
			c-0.543,0.021-1.056-0.194-1.44-0.571c-0.384-0.376-0.6-0.891-0.6-1.429v-2.06c0-1.815-0.254-3.627-0.754-5.384
			c-0.169-0.592-0.055-1.229,0.308-1.727c1.753-2.402,2.68-5.247,2.68-8.226c0-0.72-0.054-1.455-0.162-2.182
			c-0.112-0.762,0.223-1.521,0.861-1.951c0.639-0.43,1.468-0.455,2.132-0.064c4.202,2.474,6.812,7.034,6.812,11.901
			c0,4.701-1.062,8.979-3.155,12.713c-0.309,0.551-0.86,0.924-1.487,1.005C88.183,60.63,88.097,60.635,88.011,60.635z
			 M85.034,54.786c0.782,0.167,1.531,0.44,2.232,0.812c1.092-2.625,1.644-5.542,1.644-8.699c0-2.025-0.637-3.976-1.765-5.598
			c-0.319,2.742-1.261,5.353-2.775,7.678c0.44,1.821,0.664,3.685,0.664,5.553V54.786z"/>
	</g>
	<g>
		<path class="st7" d="M174.479,56.594v-2.06c0-12.043,9.852-21.806,22.004-21.806l0,0c12.153,0,22.004,9.763,22.004,21.806v2.06
			c3.821-0.078,6.852,2.966,6.852,6.646c0,3.929-3.43,7.036-7.433,6.613c-2.271,9.648-10.998,16.835-21.423,16.835
			c-10.426,0-19.152-7.188-21.423-16.835c-3.998,0.423-7.433-2.679-7.433-6.613C167.626,59.558,170.66,56.516,174.479,56.594z"/>
	</g>
	<g>
		<path class="st1" d="M196.485,76.181C196.485,76.181,196.485,76.181,196.485,76.181c-1.604,0-3.101-0.583-4.108-1.598
			c-0.77-0.776-1.194-1.756-1.194-2.761c0-0.552,0.448-1,1-1s1,0.448,1,1c0,0.48,0.212,0.947,0.614,1.352
			c0.634,0.64,1.614,1.007,2.688,1.007c1.067,0,2.078-0.376,2.703-1.006c0.401-0.405,0.614-0.873,0.614-1.353c0-0.552,0.448-1,1-1
			s1,0.448,1,1c0,1.005-0.424,1.985-1.194,2.761C199.601,75.599,198.098,76.181,196.485,76.181z"/>
	</g>
	<g>
		<path class="st1" d="M196.483,88.688c-10.672,0-19.893-6.846-22.953-16.835c-1.862-0.173-3.637-0.938-5.041-2.201
			c-1.819-1.637-2.863-3.974-2.863-6.412c0-2.333,0.921-4.521,2.594-6.161c1.191-1.167,2.659-1.951,4.258-2.292v-0.253
			c0-13.127,10.769-23.806,24.004-23.806s24.004,10.679,24.004,23.806v0.253c1.599,0.341,3.066,1.125,4.258,2.292
			c1.673,1.64,2.594,3.828,2.594,6.161c0,2.438-1.044,4.775-2.864,6.413c-1.403,1.263-3.178,2.027-5.04,2.2
			C216.375,81.842,207.155,88.688,196.483,88.688z M175.061,67.852c0.918,0,1.731,0.63,1.945,1.542
			c2.12,9.005,10.129,15.294,19.477,15.294s17.356-6.289,19.476-15.293c0.231-0.98,1.151-1.638,2.157-1.531
			c1.363,0.145,2.674-0.276,3.684-1.185c0.993-0.893,1.539-2.114,1.539-3.439c0-1.25-0.495-2.423-1.394-3.304
			c-0.91-0.892-2.116-1.358-3.417-1.342c-0.562,0.005-1.057-0.196-1.44-0.571c-0.384-0.376-0.6-0.891-0.6-1.428v-2.06
			c0-10.921-8.974-19.806-20.004-19.806s-20.004,8.885-20.004,19.806v2.06c0,0.538-0.216,1.052-0.6,1.428
			c-0.384,0.376-0.897,0.589-1.44,0.571c-1.293-0.032-2.507,0.45-3.417,1.343c-0.899,0.881-1.394,2.054-1.394,3.304
			c0,1.325,0.546,2.546,1.539,3.438c1.01,0.909,2.321,1.329,3.684,1.186C174.92,67.856,174.991,67.852,175.061,67.852z"/>
	</g>
	<g>
		<path class="st1" d="M181.282,58.657h3.714c0.007,0,0.013,0.004,0.02,0.004c0.014,0,0.028-0.004,0.042-0.004
			c1.707,0,3.09,1.384,3.09,3.09v3.296c0,1.707-1.384,3.09-3.09,3.09s-3.09-1.383-3.09-3.09v-3.296c0-0.18,0.023-0.354,0.053-0.526
			h-0.74c-0.708,0-1.282-0.574-1.282-1.282C180,59.231,180.574,58.657,181.282,58.657z"/>
	</g>
	<g>
		<path class="st1" d="M211.689,58.657h-3.714c-0.007,0-0.013,0.004-0.02,0.004c-0.014,0-0.028-0.004-0.042-0.004
			c-1.707,0-3.09,1.384-3.09,3.09v3.296c0,1.707,1.384,3.09,3.09,3.09s3.09-1.383,3.09-3.09v-3.296c0-0.18-0.023-0.354-0.053-0.526
			h0.74c0.708,0,1.282-0.574,1.282-1.282C212.971,59.231,212.397,58.657,211.689,58.657z"/>
	</g>
	<g>
		<path class="st2" d="M191.367,23.721h5.116c0,0.32,0,24.035,0,23.74c0,3.549-2.877,6.426-6.426,6.426h-22.43v-6.426
			C167.626,34.35,178.255,23.721,191.367,23.721z"/>
	</g>
	<g>
		<path class="st2" d="M201.599,23.721h-5.116c0,0.32,0,24.035,0,23.74c0,3.549,2.877,6.426,6.426,6.426h22.43v-6.426
			C225.339,34.35,214.71,23.721,201.599,23.721z"/>
	</g>
	<g>
		<path class="st1" d="M225.339,55.887h-22.43c-2.572,0-4.879-1.159-6.426-2.982c-1.547,1.823-3.854,2.982-6.426,2.982h-22.43
			c-1.104,0-2-0.896-2-2v-6.426c0-14.193,11.547-25.74,25.74-25.74h10.232c14.193,0,25.74,11.547,25.74,25.74v6.426
			C227.339,54.992,226.443,55.887,225.339,55.887z M198.483,47.461c0,2.44,1.986,4.426,4.426,4.426h20.43v-4.426
			c0-11.988-9.752-21.74-21.74-21.74h-10.232c-11.988,0-21.74,9.752-21.74,21.74v4.426h20.43c2.44,0,4.426-1.986,4.426-4.426
			c0-1.104,0.896-2,2-2S198.483,46.357,198.483,47.461z"/>
	</g>
	<g>
		<path class="st1" d="M49.601,73.035c-5.315,0-9.64-4.325-9.64-9.64s4.325-9.64,9.64-9.64s9.64,4.324,9.64,9.64
			S54.917,73.035,49.601,73.035z M49.601,55.755c-4.213,0-7.64,3.427-7.64,7.64c0,4.213,3.427,7.64,7.64,7.64
			c4.212,0,7.64-3.427,7.64-7.64C57.241,59.182,53.813,55.755,49.601,55.755z"/>
	</g>
	<g>
		<path class="st1" d="M72.454,73.035c-5.315,0-9.64-4.325-9.64-9.64s4.325-9.64,9.64-9.64s9.64,4.324,9.64,9.64
			S77.77,73.035,72.454,73.035z M72.454,55.755c-4.213,0-7.64,3.427-7.64,7.64c0,4.213,3.427,7.64,7.64,7.64
			c4.212,0,7.64-3.427,7.64-7.64C80.094,59.182,76.667,55.755,72.454,55.755z"/>
	</g>
	<g>
		<path class="st1" d="M64.03,64.895h-6c-0.829,0-1.5-0.671-1.5-1.5s0.671-1.5,1.5-1.5h6c0.829,0,1.5,0.671,1.5,1.5
			S64.859,64.895,64.03,64.895z"/>
	</g>
	<g>
		<path class="st3" d="M176.783,215.613h-39.048c-1.923,0-3.482-1.559-3.482-3.482v0c0-1.923,1.559-3.482,3.482-3.482h39.048
			V215.613z"/>
	</g>
	<g>
		<path class="st0" d="M176.783,208.648v-6.195l-20.671-4.704c-1.456-0.331-2.945-0.499-4.438-0.499h-9.699c-1.657,0-3,1.343-3,3
			v8.398H176.783z"/>
	</g>
	<g>
		<path class="st1" d="M176.783,217.613h-39.048c-3.023,0-5.482-2.459-5.482-5.482s2.459-5.482,5.482-5.482h39.048
			c1.104,0,2,0.896,2,2v6.965C178.783,216.717,177.888,217.613,176.783,217.613z M137.735,210.648c-0.817,0-1.482,0.665-1.482,1.482
			s0.665,1.482,1.482,1.482h37.048v-2.965H137.735z"/>
	</g>
	<g>
		<path class="st1" d="M176.783,210.648h-37.808c-1.104,0-2-0.896-2-2v-8.397c0-2.757,2.243-5,5-5h9.699
			c1.641,0,3.284,0.185,4.882,0.548l20.671,4.704c0.91,0.207,1.556,1.017,1.556,1.95v6.195
			C178.783,209.752,177.888,210.648,176.783,210.648z M140.976,206.648h33.808v-2.599l-19.115-4.35
			c-1.308-0.298-2.651-0.449-3.994-0.449h-9.699c-0.551,0-1,0.449-1,1V206.648z"/>
	</g>
	<g>
		<path class="st3" d="M176.783,215.613h39.048c1.923,0,3.482-1.559,3.482-3.482v0c0-1.923-1.559-3.482-3.482-3.482l-39.048,0
			V215.613z"/>
	</g>
	<g>
		<path class="st0" d="M176.783,208.648v-6.195l20.671-4.704c1.456-0.331,2.945-0.499,4.438-0.499h9.699c1.657,0,3,1.343,3,3v8.398
			H176.783z"/>
	</g>
	<g>
		<path class="st1" d="M215.831,217.613h-39.047c-1.104,0-2-0.896-2-2v-6.965c0-1.104,0.896-2,2-2h39.047
			c3.023,0,5.482,2.459,5.482,5.482S218.854,217.613,215.831,217.613z M178.783,213.613h37.047c0.817,0,1.482-0.665,1.482-1.482
			s-0.665-1.482-1.482-1.482h-37.047V213.613z"/>
	</g>
	<g>
		<path class="st1" d="M214.591,210.648h-37.808c-1.104,0-2-0.896-2-2v-6.195c0-0.934,0.646-1.743,1.556-1.95l20.67-4.704
			c1.598-0.364,3.241-0.548,4.882-0.548h9.699c2.757,0,5,2.243,5,5v8.397C216.591,209.752,215.695,210.648,214.591,210.648z
			 M178.783,206.648h33.808v-6.397c0-0.551-0.449-1-1-1h-9.699c-1.343,0-2.687,0.151-3.995,0.449l-19.114,4.35V206.648z"/>
	</g>
	<g>
		<path class="st3" d="M79.503,215.613H40.455c-1.923,0-3.482-1.559-3.482-3.482v0c0-1.923,1.559-3.482,3.482-3.482h39.048V215.613z
			"/>
	</g>
	<g>
		<path class="st0" d="M79.503,208.648v-6.195l-20.671-4.704c-1.456-0.331-2.945-0.499-4.438-0.499h-9.699c-1.657,0-3,1.343-3,3
			v8.398H79.503z"/>
	</g>
	<g>
		<path class="st3" d="M79.503,215.613h39.048c1.923,0,3.482-1.559,3.482-3.482v0c0-1.923-1.559-3.482-3.482-3.482H79.503V215.613z"
			/>
	</g>
	<g>
		<path class="st0" d="M79.503,208.648v-6.195l20.671-4.704c1.456-0.331,2.945-0.499,4.438-0.499h9.699c1.657,0,3,1.343,3,3v8.398
			H79.503z"/>
	</g>
	<g>
		<path class="st1" d="M79.503,217.613H40.455c-3.023,0-5.482-2.459-5.482-5.482s2.459-5.482,5.482-5.482h39.048
			c1.104,0,2,0.896,2,2v6.965C81.503,216.717,80.607,217.613,79.503,217.613z M40.455,210.648c-0.817,0-1.482,0.665-1.482,1.482
			s0.665,1.482,1.482,1.482h37.048v-2.965H40.455z"/>
	</g>
	<g>
		<path class="st1" d="M79.503,210.648H41.695c-1.104,0-2-0.896-2-2v-8.397c0-2.757,2.243-5,5-5h9.699
			c1.641,0,3.284,0.185,4.882,0.548l20.671,4.704c0.91,0.207,1.556,1.017,1.556,1.95v6.195
			C81.503,209.752,80.607,210.648,79.503,210.648z M43.695,206.648h33.808v-2.599l-19.115-4.35
			c-1.308-0.298-2.651-0.449-3.994-0.449h-9.699c-0.551,0-1,0.449-1,1V206.648z"/>
	</g>
	<g>
		<path class="st1" d="M118.551,217.613H79.503c-1.104,0-2-0.896-2-2v-6.965c0-1.104,0.896-2,2-2h39.048
			c3.023,0,5.482,2.459,5.482,5.482S121.574,217.613,118.551,217.613z M81.503,213.613h37.048c0.817,0,1.482-0.665,1.482-1.482
			s-0.665-1.482-1.482-1.482H81.503V213.613z"/>
	</g>
	<g>
		<path class="st1" d="M117.311,210.648H79.503c-1.104,0-2-0.896-2-2v-6.195c0-0.934,0.646-1.743,1.556-1.95l20.671-4.704
			c1.598-0.364,3.241-0.548,4.882-0.548h9.699c2.757,0,5,2.243,5,5v8.397C119.311,209.752,118.415,210.648,117.311,210.648z
			 M81.503,206.648h33.808v-6.397c0-0.551-0.449-1-1-1h-9.699c-1.343,0-2.687,0.151-3.994,0.449l-19.115,4.35V206.648z"/>
	</g>
	<g>
		<path class="st7" d="M198.797,156.594v-2.06c0-12.043-9.852-21.806-22.004-21.806l0,0c-12.153,0-22.004,9.763-22.004,21.806v2.06
			c-3.821-0.077-6.852,2.966-6.852,6.646c0,3.929,3.43,7.036,7.433,6.613c2.271,9.648,10.998,16.835,21.423,16.835
			c10.426,0,19.152-7.188,21.423-16.835c3.998,0.423,7.433-2.679,7.433-6.613C205.649,159.558,202.616,156.516,198.797,156.594z"/>
	</g>
	<g>
		<path class="st1" d="M176.797,177.092L176.797,177.092c-1.613,0-3.116-0.583-4.123-1.598c-0.77-0.775-1.194-1.756-1.194-2.761
			c0-0.552,0.448-1,1-1s1,0.448,1,1c0,0.48,0.212,0.948,0.614,1.352c0.625,0.63,1.636,1.007,2.703,1.007l0,0
			c1.074,0,2.054-0.367,2.689-1.006c0.401-0.405,0.614-0.873,0.614-1.353c0-0.552,0.448-1,1-1s1,0.448,1,1
			c0,1.004-0.424,1.984-1.194,2.761C179.899,176.51,178.401,177.092,176.797,177.092z"/>
	</g>
	<g>
		<path class="st1" d="M188.217,168.133L188.217,168.133c-1.707,0-3.09-1.384-3.09-3.09v-3.296c0-1.707,1.384-3.09,3.09-3.09h0
			c1.707,0,3.09,1.384,3.09,3.09v3.296C191.307,166.75,189.923,168.133,188.217,168.133z"/>
	</g>
	<g>
		<path class="st1" d="M165.364,168.133L165.364,168.133c-1.707,0-3.09-1.384-3.09-3.09v-3.296c0-1.707,1.384-3.09,3.09-3.09h0
			c1.707,0,3.09,1.384,3.09,3.09v3.296C168.454,166.75,167.07,168.133,165.364,168.133z"/>
	</g>
	<g>
		<path class="st1" d="M176.793,188.688c-10.673,0-19.893-6.846-22.953-16.835c-1.862-0.173-3.637-0.938-5.04-2.2
			c-1.82-1.638-2.864-3.975-2.864-6.413c0-2.333,0.921-4.521,2.594-6.161c1.191-1.167,2.659-1.95,4.258-2.292v-0.253
			c0-13.127,10.769-23.806,24.004-23.806s24.004,10.679,24.004,23.806v0.253c1.599,0.342,3.067,1.125,4.258,2.292
			c1.673,1.64,2.594,3.827,2.594,6.161c0,2.438-1.043,4.775-2.863,6.412c-1.404,1.263-3.179,2.027-5.041,2.201
			C196.686,181.842,187.465,188.688,176.793,188.688z M155.372,167.852c0.918,0,1.731,0.631,1.945,1.542
			c2.119,9.004,10.128,15.293,19.476,15.293c9.348,0,17.357-6.289,19.476-15.293c0.231-0.98,1.148-1.636,2.157-1.531
			c1.36,0.145,2.674-0.276,3.685-1.186c0.992-0.893,1.539-2.114,1.539-3.438c0-1.25-0.495-2.423-1.394-3.304
			c-0.91-0.892-2.125-1.353-3.418-1.343c-0.57,0.004-1.057-0.196-1.44-0.571c-0.384-0.376-0.6-0.891-0.6-1.428v-2.06
			c0-10.921-8.974-19.806-20.004-19.806s-20.004,8.885-20.004,19.806v2.06c0,0.538-0.216,1.052-0.6,1.428
			c-0.384,0.376-0.909,0.592-1.44,0.571c-1.301-0.026-2.508,0.45-3.417,1.342c-0.899,0.881-1.394,2.054-1.394,3.304
			c0,1.325,0.546,2.546,1.539,3.439c1.009,0.909,2.317,1.33,3.684,1.185C155.231,167.856,155.302,167.852,155.372,167.852z"/>
	</g>
	<g>
		<path class="st2" d="M154.789,156.594v-2.06c0-0.118,0.007-0.234,0.009-0.352c-2.675-0.972-5.031-2.611-6.861-4.72v3.051
			c0,2.358,0.523,4.593,1.455,6.6C150.64,157.551,152.58,156.549,154.789,156.594z"/>
	</g>
	<g>
		<path class="st2" d="M197.966,148.601c0.537,1.887,0.831,3.875,0.831,5.932v2.06c1.974-0.04,3.733,0.757,4.977,2.041
			c1.88-3.354,2.899-7.255,2.899-11.735c0-4.337-2.34-8.126-5.826-10.178c0.119,0.808,0.183,1.633,0.183,2.474
			C201.03,142.713,199.892,145.963,197.966,148.601z"/>
	</g>
	<g>
		<path class="st1" d="M149.392,161.112c-0.08,0-0.16-0.005-0.24-0.014c-0.688-0.083-1.283-0.516-1.575-1.144
			c-1.089-2.346-1.641-4.85-1.641-7.442v-3.051c0-0.835,0.519-1.582,1.301-1.874c0.78-0.294,1.663-0.068,2.21,0.563
			c1.623,1.871,3.709,3.306,6.034,4.151c0.802,0.292,1.33,1.06,1.316,1.913l-0.009,0.319v2.06c0,0.538-0.216,1.052-0.6,1.428
			c-0.384,0.375-0.91,0.578-1.44,0.571c-1.479-0.015-2.873,0.614-3.795,1.768C150.572,160.839,149.995,161.112,149.392,161.112z
			 M150.012,153.959c0.062,0.599,0.165,1.189,0.305,1.771c0.481-0.274,0.988-0.502,1.514-0.68
			C151.204,154.722,150.597,154.357,150.012,153.959z"/>
	</g>
	<g>
		<path class="st1" d="M203.774,160.635c-0.538,0-1.057-0.217-1.437-0.608c-0.922-0.952-2.179-1.468-3.5-1.434
			c-0.53,0.023-1.056-0.194-1.44-0.571c-0.384-0.376-0.6-0.891-0.6-1.429v-2.06c0-1.815-0.254-3.627-0.754-5.384
			c-0.169-0.592-0.055-1.229,0.308-1.727c1.753-2.402,2.68-5.247,2.68-8.226c0-0.72-0.054-1.455-0.162-2.182
			c-0.112-0.762,0.223-1.521,0.861-1.951c0.639-0.43,1.467-0.455,2.132-0.064c4.202,2.474,6.812,7.034,6.812,11.901
			c0,4.701-1.062,8.979-3.155,12.713c-0.309,0.551-0.86,0.924-1.487,1.005C203.946,160.63,203.859,160.635,203.774,160.635z
			 M200.797,154.786c0.782,0.167,1.531,0.44,2.232,0.812c1.092-2.625,1.644-5.542,1.644-8.699c0-2.025-0.637-3.976-1.765-5.598
			c-0.319,2.742-1.261,5.353-2.775,7.678c0.44,1.821,0.664,3.685,0.664,5.553V154.786z"/>
	</g>
	<g>
		<path class="st2" d="M157.43,128.492c-3.146,3.901-7.371,6.452-12.07,6.897c-0.84,0.079-1.473,0.8-1.473,1.644v1.588
			c0,9.144,7.412,16.556,16.556,16.556h24.606c8.826,0,15.98-7.155,15.98-15.98v0c0-9.283-7.525-16.808-16.808-16.808h-13.955
			C165.287,122.388,160.556,124.616,157.43,128.492z"/>
	</g>
	<g>
		<path class="st1" d="M185.05,157.176h-24.606c-10.231,0-18.556-8.324-18.556-18.556v-1.588c0-1.895,1.412-3.458,3.284-3.635
			c4.002-0.378,7.803-2.566,10.701-6.161l0,0c3.51-4.353,8.756-6.849,14.394-6.849h13.955c10.371,0,18.809,8.438,18.809,18.808
			C203.03,149.11,194.964,157.176,185.05,157.176z M145.888,137.344v1.276c0,8.026,6.53,14.556,14.556,14.556h24.606
			c7.709,0,13.98-6.271,13.98-13.98c0-8.166-6.643-14.809-14.809-14.809h-13.955c-4.421,0-8.533,1.954-11.28,5.36h0
			C155.485,134.09,150.845,136.778,145.888,137.344z"/>
	</g>
	<g>
		<path class="st7" d="M101.517,156.594v-2.06c0-12.043-9.852-21.806-22.004-21.806l0,0c-12.153,0-22.004,9.763-22.004,21.806v2.06
			c-3.821-0.077-6.852,2.966-6.852,6.646c0,3.929,3.43,7.036,7.433,6.613c2.271,9.648,10.998,16.835,21.423,16.835
			c10.426,0,19.152-7.188,21.423-16.835c3.998,0.423,7.433-2.679,7.433-6.613C108.369,159.558,105.335,156.516,101.517,156.594z"/>
	</g>
	<g>
		<path class="st1" d="M79.517,177.092L79.517,177.092c-1.613,0-3.116-0.583-4.123-1.598c-0.77-0.776-1.194-1.757-1.194-2.761
			c0-0.552,0.448-1,1-1s1,0.448,1,1c0,0.48,0.212,0.948,0.614,1.353c0.625,0.63,1.636,1.006,2.703,1.006l0,0
			c1.074,0,2.054-0.367,2.689-1.006c0.401-0.405,0.614-0.873,0.614-1.353c0-0.552,0.448-1,1-1s1,0.448,1,1
			c0,1.005-0.424,1.985-1.194,2.761C82.619,176.51,81.121,177.092,79.517,177.092z"/>
	</g>
	<g>
		<path class="st1" d="M90.937,168.133L90.937,168.133c-1.707,0-3.09-1.384-3.09-3.09v-3.296c0-1.707,1.384-3.09,3.09-3.09h0
			c1.707,0,3.09,1.384,3.09,3.09v3.296C94.027,166.75,92.643,168.133,90.937,168.133z"/>
	</g>
	<g>
		<path class="st1" d="M68.083,168.133L68.083,168.133c-1.707,0-3.09-1.384-3.09-3.09v-3.296c0-1.707,1.384-3.09,3.09-3.09l0,0
			c1.707,0,3.09,1.384,3.09,3.09v3.296C71.174,166.75,69.79,168.133,68.083,168.133z"/>
	</g>
	<g>
		<path class="st1" d="M79.513,188.688c-10.672,0-19.893-6.846-22.953-16.835c-1.862-0.173-3.636-0.937-5.04-2.2
			c-1.82-1.638-2.864-3.975-2.864-6.413c0-2.333,0.921-4.521,2.594-6.161c1.191-1.168,2.659-1.951,4.258-2.292v-0.253
			c0-13.127,10.768-23.806,24.004-23.806s24.004,10.679,24.004,23.806v0.253c1.599,0.341,3.066,1.125,4.258,2.292
			c1.673,1.639,2.594,3.827,2.594,6.161c0,2.438-1.043,4.775-2.863,6.412c-1.404,1.263-3.179,2.027-5.041,2.201
			C99.405,181.842,90.185,188.688,79.513,188.688z M58.091,167.852c0.918,0,1.731,0.63,1.945,1.542
			c2.12,9.004,10.128,15.293,19.476,15.293s17.357-6.289,19.476-15.293c0.231-0.98,1.155-1.636,2.157-1.531
			c1.361,0.145,2.674-0.276,3.685-1.186c0.992-0.893,1.539-2.114,1.539-3.438c0-1.25-0.495-2.423-1.394-3.304
			c-0.91-0.892-2.122-1.353-3.417-1.343c-0.532,0.023-1.057-0.195-1.44-0.571c-0.384-0.376-0.6-0.891-0.6-1.428v-2.06
			c0-10.921-8.974-19.806-20.004-19.806s-20.004,8.885-20.004,19.806v2.06c0,0.538-0.216,1.052-0.6,1.428
			c-0.384,0.376-0.911,0.592-1.44,0.571c-1.32-0.015-2.508,0.45-3.418,1.342c-0.899,0.881-1.394,2.055-1.394,3.304
			c0,1.325,0.546,2.546,1.539,3.439c1.01,0.909,2.318,1.33,3.684,1.185C57.951,167.856,58.021,167.852,58.091,167.852z"/>
	</g>
	<g>
		<path class="st2" d="M57.509,156.594v-2.06c0-0.118,0.007-0.234,0.009-0.352c-2.675-0.972-5.031-2.611-6.861-4.72v3.051
			c0,2.358,0.523,4.593,1.455,6.6C53.36,157.551,55.3,156.549,57.509,156.594z"/>
	</g>
	<g>
		<path class="st2" d="M100.686,148.601c0.537,1.887,0.831,3.875,0.831,5.932v2.06c1.974-0.04,3.733,0.757,4.977,2.041
			c1.88-3.354,2.899-7.255,2.899-11.735c0-4.337-2.34-8.126-5.826-10.178c0.119,0.808,0.183,1.633,0.183,2.474
			C103.75,142.713,102.612,145.963,100.686,148.601z"/>
	</g>
	<g>
		<path class="st1" d="M52.112,161.112c-0.08,0-0.159-0.005-0.239-0.014c-0.688-0.083-1.283-0.515-1.575-1.144
			c-1.089-2.345-1.642-4.849-1.642-7.442v-3.051c0-0.835,0.519-1.582,1.301-1.874c0.781-0.294,1.663-0.068,2.21,0.563
			c1.623,1.871,3.709,3.306,6.034,4.151c0.802,0.292,1.33,1.06,1.316,1.913l-0.008,0.319v2.06c0,0.538-0.216,1.052-0.6,1.428
			c-0.384,0.375-0.908,0.578-1.44,0.571c-1.498-0.037-2.873,0.614-3.794,1.768C53.292,160.839,52.715,161.112,52.112,161.112z
			 M52.731,153.959c0.063,0.599,0.165,1.189,0.306,1.771c0.481-0.274,0.987-0.502,1.513-0.68
			C53.924,154.722,53.316,154.357,52.731,153.959z"/>
	</g>
	<g>
		<path class="st1" d="M106.494,160.635c-0.538,0-1.058-0.217-1.437-0.609c-0.922-0.951-2.178-1.464-3.5-1.433
			c-0.532,0.023-1.056-0.194-1.44-0.571c-0.384-0.376-0.6-0.891-0.6-1.429v-2.06c0-1.814-0.254-3.625-0.754-5.385
			c-0.169-0.592-0.055-1.229,0.308-1.727c1.753-2.402,2.68-5.246,2.68-8.226c0-0.723-0.054-1.457-0.161-2.182
			c-0.112-0.762,0.223-1.521,0.861-1.951c0.639-0.43,1.468-0.455,2.132-0.064c4.201,2.473,6.811,7.034,6.811,11.901
			c0,4.701-1.062,8.979-3.155,12.713c-0.309,0.551-0.86,0.924-1.487,1.005C106.666,160.63,106.579,160.635,106.494,160.635z
			 M103.517,154.786c0.782,0.167,1.531,0.44,2.232,0.812c1.092-2.625,1.644-5.541,1.644-8.698c0-2.026-0.637-3.977-1.765-5.598
			c-0.318,2.742-1.26,5.353-2.775,7.678c0.44,1.823,0.664,3.687,0.664,5.553V154.786z"/>
	</g>
	<g>
		<path class="st2" d="M86.942,122.387c-13.726,0-10.772,0-24.354,0c-8.152,0-14.864,6.108-15.844,13.995
			c-0.2,0.47-0.136,1.413-0.136,1.986l0,0c0,9.806,7.729,16.808,16.556,16.808h0.252c13.726,0,10.773,0,24.354,0
			c8.152,0,14.864-6.108,15.844-13.994c0.208-0.489,0.136-1.695,0.136-2.238C103.75,130.143,96.778,122.387,86.942,122.387z"/>
	</g>
	<g>
		<path class="st1" d="M87.77,157.176H63.163c-10.405,0-18.556-8.262-18.556-18.808l-0.004-0.309
			c-0.012-0.647-0.026-1.431,0.183-2.133c1.208-8.873,8.824-15.539,17.802-15.539h24.354c10.546,0,18.808,8.151,18.808,18.556
			l0.004,0.313c0.018,0.895,0.014,1.702-0.183,2.376C104.367,150.509,96.75,157.176,87.77,157.176z M48.62,137.074
			c-0.03,0.195-0.022,0.657-0.018,0.912l0.005,0.381c0,8.304,6.394,14.808,14.556,14.808H87.77c7.034,0,12.992-5.262,13.859-12.241
			c0.019-0.148,0.053-0.293,0.104-0.433c0.041-0.252,0.028-0.889,0.023-1.167l-0.005-0.392c0-8.162-6.504-14.556-14.808-14.556
			H62.588c-7.034,0-12.992,5.263-13.859,12.241C48.709,136.781,48.673,136.93,48.62,137.074z M101.773,140.399
			c-0.007,0.018-0.015,0.036-0.022,0.055C101.758,140.436,101.766,140.418,101.773,140.399z M48.601,137.123
			c-0.005,0.014-0.011,0.028-0.017,0.042C48.59,137.152,48.596,137.138,48.601,137.123z"/>
	</g>
	<g>
		<path class="st3" d="M61.03,115.613H21.983c-1.923,0-3.482-1.559-3.482-3.482l0,0c0-1.923,1.559-3.482,3.482-3.482H61.03V115.613z
			"/>
	</g>
	<g>
		<path class="st0" d="M61.03,108.648v-6.195L40.36,97.749c-1.456-0.331-2.945-0.499-4.438-0.499h-9.699c-1.657,0-3,1.343-3,3v8.398
			H61.03z"/>
	</g>
	<g>
		<path class="st1" d="M61.03,117.613H21.982c-3.023,0-5.482-2.459-5.482-5.482s2.459-5.482,5.482-5.482H61.03c1.104,0,2,0.896,2,2
			v6.965C63.03,116.717,62.135,117.613,61.03,117.613z M21.982,110.648c-0.817,0-1.482,0.665-1.482,1.482s0.665,1.482,1.482,1.482
			H59.03v-2.965H21.982z"/>
	</g>
	<g>
		<path class="st1" d="M61.03,110.648H23.223c-1.104,0-2-0.896-2-2v-8.397c0-2.757,2.243-5,5-5h9.699
			c1.641,0,3.284,0.185,4.882,0.548l20.671,4.704c0.91,0.207,1.556,1.017,1.556,1.95v6.195
			C63.03,109.752,62.135,110.648,61.03,110.648z M25.223,106.648H59.03v-2.599l-19.115-4.35c-1.308-0.298-2.651-0.449-3.994-0.449
			h-9.699c-0.551,0-1,0.449-1,1V106.648z"/>
	</g>
	<g>
		<path class="st3" d="M61.03,115.613h39.048c1.923,0,3.482-1.559,3.482-3.482l0,0c0-1.923-1.559-3.482-3.482-3.482H61.03V115.613z"
			/>
	</g>
	<g>
		<path class="st0" d="M61.03,108.648v-6.195l20.671-4.704c1.456-0.331,2.945-0.499,4.438-0.499h9.699c1.657,0,3,1.343,3,3v8.398
			H61.03z"/>
	</g>
	<g>
		<path class="st1" d="M100.078,117.613H61.03c-1.104,0-2-0.896-2-2v-6.965c0-1.104,0.896-2,2-2h39.048
			c3.023,0,5.482,2.459,5.482,5.482S103.101,117.613,100.078,117.613z M63.03,113.613h37.048c0.817,0,1.482-0.665,1.482-1.482
			s-0.665-1.482-1.482-1.482H63.03V113.613z"/>
	</g>
	<g>
		<path class="st1" d="M98.838,110.648H61.03c-1.104,0-2-0.896-2-2v-6.195c0-0.934,0.646-1.743,1.556-1.95l20.671-4.704
			c1.598-0.364,3.241-0.548,4.882-0.548h9.699c2.757,0,5,2.243,5,5v8.397C100.838,109.752,99.942,110.648,98.838,110.648z
			 M63.03,106.648h33.808v-6.397c0-0.551-0.449-1-1-1h-9.699c-1.343,0-2.687,0.151-3.994,0.449l-19.115,4.35V106.648z"/>
	</g>
	<g>
		<path class="st3" d="M196.493,115.613h-39.048c-1.923,0-3.482-1.559-3.482-3.482l0,0c0-1.923,1.559-3.482,3.482-3.482h39.048
			V115.613z"/>
	</g>
	<g>
		<path class="st0" d="M196.493,108.648v-6.195l-20.671-4.704c-1.456-0.331-2.945-0.499-4.438-0.499h-9.699c-1.657,0-3,1.343-3,3
			v8.398H196.493z"/>
	</g>
	<g>
		<path class="st1" d="M196.493,117.613h-39.048c-3.023,0-5.482-2.459-5.482-5.482s2.459-5.482,5.482-5.482h39.048
			c1.104,0,2,0.896,2,2v6.965C198.493,116.717,197.597,117.613,196.493,117.613z M157.445,110.648c-0.817,0-1.482,0.665-1.482,1.482
			s0.665,1.482,1.482,1.482h37.048v-2.965H157.445z"/>
	</g>
	<g>
		<path class="st1" d="M196.493,110.648h-37.808c-1.104,0-2-0.896-2-2v-8.397c0-2.757,2.243-5,5-5h9.699
			c1.641,0,3.284,0.185,4.882,0.548l20.671,4.704c0.91,0.207,1.556,1.017,1.556,1.95v6.195
			C198.493,109.752,197.597,110.648,196.493,110.648z M160.685,106.648h33.808v-2.599l-19.115-4.35
			c-1.308-0.298-2.651-0.449-3.994-0.449h-9.699c-0.551,0-1,0.449-1,1V106.648z"/>
	</g>
	<g>
		<path class="st3" d="M196.493,115.613h39.048c1.923,0,3.482-1.559,3.482-3.482l0,0c0-1.923-1.559-3.482-3.482-3.482h-39.048
			V115.613z"/>
	</g>
	<g>
		<path class="st0" d="M196.493,108.648v-6.195l20.671-4.704c1.456-0.331,2.945-0.499,4.438-0.499h9.699c1.657,0,3,1.343,3,3v8.398
			H196.493z"/>
	</g>
	<g>
		<path class="st1" d="M235.541,117.613h-39.048c-1.104,0-2-0.896-2-2v-6.965c0-1.104,0.896-2,2-2h39.048
			c3.023,0,5.482,2.459,5.482,5.482S238.563,117.613,235.541,117.613z M198.493,113.613h37.048c0.817,0,1.482-0.665,1.482-1.482
			s-0.665-1.482-1.482-1.482h-37.048V113.613z"/>
	</g>
	<g>
		<path class="st1" d="M234.3,110.648h-37.808c-1.104,0-2-0.896-2-2v-6.195c0-0.934,0.646-1.743,1.556-1.95l20.67-4.704
			c1.599-0.364,3.241-0.548,4.882-0.548h9.699c2.757,0,5,2.243,5,5v8.397C236.3,109.752,235.405,110.648,234.3,110.648z
			 M198.493,106.648H232.3v-6.397c0-0.551-0.449-1-1-1h-9.699c-1.343,0-2.687,0.151-3.995,0.449l-19.114,4.35V106.648z"/>
	</g>
</g>
</svg>
