<?xml version="1.0" encoding="utf-8"?>
<!-- Generator: Adobe Illustrator 22.1.0, SVG Export Plug-In . SVG Version: 6.00 Build 0)  -->
<svg version="1.1" id="Layer_1" xmlns="http://www.w3.org/2000/svg" xmlns:xlink="http://www.w3.org/1999/xlink" x="0px" y="0px"
	 viewBox="0 0 256 256" style="enable-background:new 0 0 256 256;" xml:space="preserve">
<style type="text/css">
	.st0{fill:#E0EBFC;}
	.st1{fill:#3762CC;}
	.st2{fill:#4671C6;}
	.st3{fill:#6BDDDD;}
	.st4{fill:#F9A7A7;}
	.st5{fill:#A4C9FF;}
	.st6{fill:#FFEA92;}
	.st7{fill:#F9CFCF;}
	.st8{fill:#FFE164;}
	.st9{fill:#FFDC85;}
	.st10{fill:#FFEA94;}
	.st11{fill:#B9BEFC;}
	.st12{fill:#EAA97D;}
</style>
<g>
	<g>
		<path class="st5" d="M176.609,243.46H39.257v-39.527c0-16.255,13.177-29.432,29.433-29.432h78.487
			c16.255,0,29.433,13.177,29.433,29.432V243.46z"/>
	</g>
	<g>
		<path class="st7" d="M107.933,168.762c-9.231,0-17.924-2.263-25.562-6.246v11.985v0.003c0,14.104,11.433,25.537,25.537,25.537h0
			c14.104,0,25.537-11.433,25.537-25.537v-0.003v-11.959C125.82,166.509,117.145,168.762,107.933,168.762z"/>
	</g>
	<g>
		<path class="st1" d="M176.609,245.46H39.257c-1.104,0-2-0.896-2-2v-39.526c0-17.332,14.101-31.433,31.433-31.433h11.682v-9.985
			c0-0.699,0.365-1.348,0.963-1.71c0.598-0.363,1.341-0.387,1.962-0.063c7.552,3.938,16.072,6.02,24.637,6.02
			c8.549,0,17.052-2.072,24.589-5.994c0.62-0.321,1.364-0.297,1.96,0.064c0.598,0.363,0.962,1.011,0.962,1.71v9.959h11.731
			c17.332,0,31.433,14.101,31.433,31.433v39.526C178.609,244.564,177.714,245.46,176.609,245.46z M41.257,241.46h133.352v-37.526
			c0-15.126-12.306-27.433-27.433-27.433h-13.731c-1.104,0-2-0.896-2-2v-8.77c-7.349,3.299-15.412,5.03-23.512,5.03
			c-8.117,0-16.197-1.74-23.562-5.054v8.793c0,1.104-0.896,2-2,2H68.69c-15.126,0-27.433,12.307-27.433,27.433V241.46z"/>
	</g>
	<g>
		<path class="st2" d="M52.919,93.521V88.37c0-0.295,0.018-0.586,0.022-0.88c-6.689-2.431-12.579-6.527-17.154-11.801v7.627
			c0,5.896,1.309,11.484,3.638,16.501C42.546,95.914,47.397,93.409,52.919,93.521z"/>
	</g>
	<g>
		<path class="st2" d="M160.87,73.539c1.343,4.717,2.078,9.688,2.078,14.831v5.151c4.934-0.1,9.333,1.894,12.443,5.104
			c4.701-8.384,7.249-18.139,7.249-29.34c0-10.844-5.852-20.315-14.565-25.446c0.298,2.019,0.457,4.083,0.457,6.184
			C168.53,58.817,165.684,66.942,160.87,73.539z"/>
	</g>
	<g>
		<path class="st1" d="M39.426,101.817c-0.08,0-0.16-0.005-0.24-0.015c-0.688-0.082-1.283-0.515-1.575-1.144
			c-2.538-5.465-3.824-11.3-3.824-17.343v-7.627c0-0.835,0.519-1.582,1.3-1.874c0.783-0.293,1.663-0.067,2.21,0.563
			c4.392,5.062,10.038,8.945,16.327,11.231c0.802,0.292,1.331,1.06,1.316,1.913l-0.011,0.405c-0.005,0.146-0.011,0.293-0.011,0.441
			v5.151c0,0.537-0.216,1.053-0.6,1.429c-0.385,0.376-0.911,0.574-1.44,0.571c-4.682-0.14-8.998,1.925-11.891,5.545
			C40.606,101.544,40.029,101.817,39.426,101.817z M37.788,80.601v2.716c0,4.453,0.774,8.781,2.304,12.904
			c3.006-2.669,6.776-4.288,10.828-4.633v-2.73C46.086,86.916,41.629,84.109,37.788,80.601z"/>
	</g>
	<g>
		<path class="st1" d="M175.39,100.625c-0.538,0-1.057-0.217-1.437-0.608c-2.892-2.984-6.763-4.613-10.966-4.495
			c-0.508,0.007-1.056-0.195-1.44-0.571c-0.384-0.376-0.6-0.892-0.6-1.429V88.37c0-4.814-0.673-9.62-2.001-14.283
			c-0.169-0.593-0.055-1.229,0.308-1.727c4.76-6.522,7.276-14.247,7.276-22.337c0-1.949-0.146-3.932-0.435-5.894
			c-0.112-0.762,0.223-1.521,0.862-1.95c0.639-0.43,1.468-0.455,2.131-0.064c9.592,5.648,15.55,16.059,15.55,27.17
			c0,11.236-2.525,21.438-7.504,30.318c-0.309,0.551-0.86,0.924-1.487,1.005C175.562,100.619,175.476,100.625,175.39,100.625z
			 M164.947,91.587c3.626,0.307,7.02,1.63,9.871,3.845c3.864-7.749,5.821-16.531,5.821-26.146c0-8.301-3.81-16.154-10.158-21.339
			c0.033,0.694,0.05,1.388,0.05,2.077c0,8.617-2.583,16.86-7.48,23.901c1.259,4.726,1.897,9.581,1.897,14.445V91.587z"/>
	</g>
	<g>
		<path class="st7" d="M162.947,93.521V88.37c0-30.11-24.631-54.518-55.014-54.518l0,0c-30.383,0-55.014,24.409-55.014,54.518v5.151
			c-9.553-0.194-17.132,7.416-17.132,16.615c0,9.823,8.575,17.592,18.585,16.534c5.678,24.121,27.496,42.091,53.561,42.091
			c26.067,0,47.884-17.972,53.561-42.091c9.996,1.057,18.585-6.698,18.585-16.534C180.079,100.933,172.494,93.327,162.947,93.521z"
			/>
	</g>
	<g>
		<path class="st1" d="M107.95,144.549C107.949,144.549,107.949,144.549,107.95,144.549c-3.904,0-7.533-1.402-9.958-3.848
			c-1.831-1.846-2.84-4.172-2.84-6.551c0-1.104,0.896-2,2-2s2,0.896,2,2c0,1.335,0.581,2.626,1.68,3.734
			c1.655,1.668,4.316,2.664,7.118,2.664c2.815,0,5.393-0.971,7.073-2.664c1.099-1.108,1.68-2.399,1.68-3.734c0-1.104,0.896-2,2-2
			s2,0.896,2,2c0,2.379-1.009,4.705-2.84,6.551C115.436,143.146,111.823,144.549,107.95,144.549z"/>
	</g>
	<g>
		<path class="st1" d="M136.495,122.65L136.495,122.65c-4.267,0-7.726-3.459-7.726-7.726v-8.241c0-4.267,3.459-7.726,7.726-7.726h0
			c4.267,0,7.726,3.459,7.726,7.726v8.241C144.221,119.191,140.762,122.65,136.495,122.65z"/>
	</g>
	<g>
		<path class="st1" d="M79.358,122.65L79.358,122.65c-4.267,0-7.726-3.459-7.726-7.726v-8.241c0-4.267,3.459-7.726,7.726-7.726h0
			c4.267,0,7.726,3.459,7.726,7.726v8.241C87.084,119.191,83.625,122.65,79.358,122.65z"/>
	</g>
	<g>
		<path class="st1" d="M107.933,170.762c-26.066,0-48.484-17.186-55.098-41.998c-4.718,0.085-9.354-1.649-12.882-4.825
			c-3.918-3.525-6.166-8.557-6.166-13.802c0-5.021,1.984-9.731,5.587-13.262c3.144-3.081,7.185-4.919,11.545-5.288V88.37
			c0-31.164,25.576-56.519,57.014-56.519s57.014,25.354,57.014,56.519v3.217c4.36,0.369,8.4,2.208,11.545,5.289
			c3.603,3.53,5.587,8.239,5.587,13.261c0,5.245-2.247,10.275-6.164,13.801c-3.529,3.176-8.125,4.853-12.884,4.826
			C156.417,153.576,134,170.762,107.933,170.762z M54.374,124.671c0.918,0,1.731,0.631,1.945,1.542
			c5.62,23.874,26.845,40.549,51.614,40.549c24.77,0,45.995-16.675,51.614-40.549c0.231-0.979,1.154-1.62,2.157-1.531
			c4.211,0.445,8.414-0.908,11.535-3.718c3.076-2.768,4.84-6.714,4.84-10.827c0-3.938-1.558-7.632-4.386-10.404
			c-2.856-2.798-6.644-4.307-10.705-4.211c-0.508,0.007-1.056-0.195-1.44-0.571c-0.384-0.376-0.6-0.892-0.6-1.429V88.37
			c0-28.959-23.782-52.519-53.014-52.519S54.919,59.411,54.919,88.37v5.151c0,0.537-0.216,1.053-0.6,1.429
			c-0.385,0.376-0.911,0.574-1.44,0.571c-4.054-0.117-7.85,1.412-10.705,4.211c-2.829,2.771-4.386,6.467-4.386,10.404
			c0,4.113,1.765,8.06,4.841,10.829c3.118,2.806,7.318,4.156,11.533,3.716C54.233,124.675,54.304,124.671,54.374,124.671z"/>
	</g>
	<g>
		<path class="st2" d="M59.523,23.262c-7.865,9.753-18.428,16.132-30.177,17.242c-2.099,0.198-3.682,2.001-3.682,4.11v3.97
			c0,22.86,18.532,41.393,41.393,41.393h61.52c22.066,0,39.954-17.888,39.954-39.954v0C168.53,26.815,149.716,8,126.507,8l-34.89,0
			C79.167,8,67.338,13.572,59.523,23.262z"/>
	</g>
	<g>
		<path class="st1" d="M128.577,91.978h-61.52c-23.927,0-43.393-19.466-43.393-43.393v-3.97c0-3.183,2.362-5.806,5.494-6.102
			c10.818-1.022,21.049-6.885,28.809-16.507h0C66.169,11.834,78.434,6,91.617,6h34.89c24.274,0,44.023,19.749,44.023,44.023
			C170.53,73.157,151.71,91.978,128.577,91.978z M91.617,10C79.65,10,68.52,15.292,61.081,24.519c0,0,0,0,0,0
			c-8.441,10.468-19.645,16.853-31.546,17.978c-1.049,0.099-1.87,1.03-1.87,2.119v3.97c0,21.721,17.671,39.393,39.393,39.393h61.52
			c20.928,0,37.954-17.026,37.954-37.954C166.53,27.954,148.576,10,126.507,10H91.617z M59.523,23.263h0.01H59.523z"/>
	</g>
	<g>
		<path class="st0" d="M103.535,243.46h22.474l37.104-64.266c1.102-1.91,0.448-4.351-1.461-5.454l-9.94-5.739
			c-1.91-1.102-4.351-0.448-5.454,1.461L103.535,243.46z"/>
	</g>
	<g>
		<path class="st1" d="M126.009,245.46h-22.474c-0.714,0-1.375-0.381-1.732-1c-0.357-0.619-0.357-1.381,0-2l42.723-73.998
			c1.653-2.861,5.326-3.842,8.186-2.193l9.94,5.739c2.861,1.652,3.845,5.324,2.193,8.186l-37.104,64.267
			C127.384,245.079,126.723,245.46,126.009,245.46z M106.999,241.46h17.855l36.527-63.267c0.549-0.951,0.222-2.172-0.729-2.721
			l-9.94-5.739c-0.461-0.267-0.997-0.337-1.512-0.199c-0.514,0.138-0.944,0.467-1.21,0.928L106.999,241.46z"/>
	</g>
	<g>
		<path class="st2" d="M120.976,243.46H62.671v-74.698h54.34c2.189,0,3.964,1.775,3.964,3.964V243.46z"/>
	</g>
	<g>
		<path class="st4" d="M62.671,243.46h-9.717v-70.734c0-2.189,1.775-3.964,3.964-3.964h5.753V243.46z"/>
	</g>
	<g>
		<path class="st0" d="M110.921,196.201H72.726c-1.133,0-2.051-0.918-2.051-2.051v-12.135c0-1.133,0.918-2.051,2.051-2.051h38.195
			c1.133,0,2.051,0.918,2.051,2.051v12.135C112.972,195.282,112.054,196.201,110.921,196.201z"/>
	</g>
	<g>
		<path class="st1" d="M120.976,245.46H62.671c-1.104,0-2-0.896-2-2v-74.698c0-1.104,0.896-2,2-2h54.34
			c3.289,0,5.964,2.676,5.964,5.964v70.734C122.976,244.564,122.08,245.46,120.976,245.46z M64.671,241.46h54.304v-68.734
			c0-1.083-0.881-1.964-1.964-1.964h-52.34V241.46z"/>
	</g>
	<g>
		<path class="st1" d="M62.671,245.46h-9.718c-1.104,0-2-0.896-2-2v-70.734c0-3.288,2.676-5.964,5.964-5.964h5.753
			c1.104,0,2,0.896,2,2v74.698C64.671,244.564,63.776,245.46,62.671,245.46z M54.954,241.46h5.718v-70.698h-3.753
			c-1.083,0-1.964,0.881-1.964,1.964V241.46z"/>
	</g>
	<g>
		<path class="st7" d="M140.513,239.517v-26.444c0-1.451-0.786-2.788-2.054-3.494l-6.713-3.736c-1.487-0.827-3.16-1.262-4.862-1.262
			h-13.026c-5.105,0-10.125,1.303-14.585,3.785l-0.003,0.002c-0.869,0.483-1.854,0.716-2.848,0.673l-62.337-2.718
			c-9.039-0.394-17.215,5.333-19.934,13.962h0c-1.232,3.909-1.232,8.103,0,12.012h0c2.719,8.629,10.895,14.356,19.934,13.962
			l62.341-2.718c0.993-0.043,1.979,0.19,2.848,0.673h0c4.46,2.482,9.48,3.785,14.585,3.785h13.094c1.713,0,3.397-0.44,4.891-1.278
			l6.628-3.717C139.732,242.297,140.513,240.963,140.513,239.517z"/>
	</g>
	<g>
		<path class="st1" d="M126.952,250h-13.094c-5.432,0-10.812-1.396-15.558-4.037c-0.546-0.305-1.167-0.45-1.787-0.423l-62.342,2.718
			c-9.935,0.407-18.943-5.885-21.929-15.36c-1.361-4.32-1.361-8.89,0-13.213c2.986-9.477,12.004-15.785,21.929-15.359l62.336,2.718
			c0.623,0.024,1.242-0.118,1.788-0.423c4.75-2.643,10.129-4.039,15.561-4.039h13.026c2.036,0,4.054,0.523,5.834,1.514l6.713,3.737
			c1.9,1.057,3.082,3.064,3.082,5.241v26.443c0,2.167-1.174,4.172-3.063,5.232l-6.629,3.717C131.032,249.47,129.003,250,126.952,250
			z M96.664,241.537c1.251,0,2.483,0.318,3.582,0.93c4.153,2.312,8.86,3.533,13.612,3.533h13.094c1.367,0,2.72-0.354,3.912-1.022
			l6.628-3.717c0.629-0.354,1.021-1.021,1.021-1.744v-26.443c0-0.726-0.393-1.395-1.026-1.746l-6.714-3.737
			c-1.187-0.66-2.532-1.009-3.889-1.009h-13.026c-4.752,0-9.459,1.222-13.612,3.533c-1.198,0.666-2.547,0.986-3.912,0.925
			l-62.335-2.718c-8.123-0.356-15.497,4.813-17.939,12.564c-1.114,3.537-1.114,7.275,0,10.811
			c2.442,7.752,9.819,12.922,17.939,12.565l62.34-2.718C96.447,241.539,96.555,241.537,96.664,241.537z"/>
	</g>
	<g>
		<circle class="st3" cx="192.773" cy="186.051" r="50"/>
	</g>
	<g>
		<path class="st6" d="M192.773,223.139c-20.45,0-37.089-16.638-37.089-37.088s16.638-37.088,37.089-37.088
			s37.087,16.637,37.087,37.088S213.223,223.139,192.773,223.139z"/>
	</g>
	<g>
		<path class="st1" d="M192.773,238.051c-28.673,0-52-23.327-52-52s23.327-52,52-52s52,23.327,52,52
			S221.446,238.051,192.773,238.051z M192.773,138.051c-26.467,0-48,21.532-48,48s21.533,48,48,48s48-21.532,48-48
			S219.24,138.051,192.773,138.051z"/>
	</g>
	<g>
		<path class="st4" d="M183.868,214.841c-0.01,0-0.019,0-0.028,0c-2.903-0.009-5.639-1.427-7.317-3.794l-12.345-17.388
			c-1.919-2.705-1.284-6.453,1.421-8.373c2.706-1.922,6.454-1.282,8.373,1.42l9.913,13.962l25.927-36.046
			c1.937-2.693,5.69-3.304,8.382-1.369c2.692,1.937,3.305,5.689,1.368,8.382l-28.381,39.458
			C189.492,213.441,186.759,214.841,183.868,214.841z"/>
	</g>
</g>
</svg>
