<?xml version="1.0" encoding="utf-8"?>
<!-- Generator: Adobe Illustrator 22.1.0, SVG Export Plug-In . SVG Version: 6.00 Build 0)  -->
<svg version="1.1" id="Layer_1" xmlns="http://www.w3.org/2000/svg" xmlns:xlink="http://www.w3.org/1999/xlink" x="0px" y="0px"
	 viewBox="0 0 256 256" style="enable-background:new 0 0 256 256;" xml:space="preserve">
<style type="text/css">
	.st0{fill:#E0EBFC;}
	.st1{fill:#3762CC;}
	.st2{fill:#4671C6;}
	.st3{fill:#6BDDDD;}
	.st4{fill:#F9A7A7;}
	.st5{fill:#A4C9FF;}
	.st6{fill:#FFEA92;}
	.st7{fill:#F9CFCF;}
	.st8{fill:#FFE164;}
	.st9{fill:#FFDC85;}
	.st10{fill:#FFEA94;}
	.st11{fill:#B9BEFC;}
	.st12{fill:#EAA97D;}
</style>
<g>
	<g>
		<circle class="st5" cx="88.712" cy="105.055" r="22.955"/>
	</g>
	<g>
		<path class="st1" d="M88.712,130.01c-13.761,0-24.955-11.194-24.955-24.955S74.951,80.1,88.712,80.1s24.955,11.195,24.955,24.955
			S102.473,130.01,88.712,130.01z M88.712,84.1c-11.555,0-20.955,9.4-20.955,20.955c0,11.554,9.4,20.955,20.955,20.955
			s20.955-9.4,20.955-20.955C109.667,93.5,100.267,84.1,88.712,84.1z"/>
	</g>
	<g>
		<circle class="st5" cx="167.288" cy="105.055" r="22.955"/>
	</g>
	<g>
		<path class="st1" d="M167.288,130.01c-13.761,0-24.955-11.194-24.955-24.955S153.527,80.1,167.288,80.1
			s24.955,11.195,24.955,24.955S181.049,130.01,167.288,130.01z M167.288,84.1c-11.555,0-20.955,9.4-20.955,20.955
			c0,11.554,9.4,20.955,20.955,20.955s20.955-9.4,20.955-20.955C188.243,93.5,178.843,84.1,167.288,84.1z"/>
	</g>
	<g>
		<path class="st3" d="M177,248.082H79c-5.851,0-10.595-4.743-10.595-10.595v-46.793c0-5.851,4.743-10.595,10.595-10.595h98
			c5.851,0,10.595,4.743,10.595,10.595v46.793C187.595,243.339,182.851,248.082,177,248.082z"/>
	</g>
	<g>
		<rect x="119.171" y="148.978" class="st0" width="17.658" height="31.122"/>
	</g>
	<g>
		<path class="st3" d="M195.253,148.978H60.747c-4.303,0-7.792-3.489-7.792-7.792v0c0-4.303,3.489-7.792,7.792-7.792h134.507
			c4.303,0,7.792,3.489,7.792,7.792v0C203.045,145.49,199.557,148.978,195.253,148.978z"/>
	</g>
	<g>
		<circle class="st5" cx="128" cy="105.055" r="22.955"/>
	</g>
	<g>
		<path class="st6" d="M174.898,229.768c0-7.801,0-14.445,0-21.06l-3.112,1.196c0,7.672,0,15.339,0,19.865
			c-1.108,0.567-1.867,1.717-1.867,3.047v8.195h6.846v-8.195C176.766,231.485,176.006,230.335,174.898,229.768z"/>
	</g>
	<g>
		<path class="st2" d="M125.3,187.69l-44.632,17.146c-1.665,0.64-1.665,2.995,0,3.635l44.632,17.146
			c1.798,0.691,3.787,0.691,5.585,0l44.632-17.146c1.665-0.64,1.665-2.995,0-3.635l-44.632-17.146
			C129.087,187,127.098,187,125.3,187.69z"/>
	</g>
	<g>
		<path class="st1" d="M128.093,228.135c-1.189,0-2.378-0.218-3.511-0.653l-44.631-17.145c-1.538-0.591-2.532-2.038-2.532-3.685
			s0.994-3.093,2.532-3.684l44.632-17.146c2.263-0.87,4.757-0.869,7.02,0l44.631,17.145c1.538,0.59,2.532,2.036,2.532,3.684
			s-0.994,3.094-2.532,3.685l-44.632,17.146C130.471,227.917,129.282,228.135,128.093,228.135z M81.516,206.653l44.501,17.096
			c1.34,0.515,2.813,0.514,4.15,0l44.502-17.096l-44.501-17.096c-1.339-0.514-2.812-0.514-4.15,0l-0.001,0L81.516,206.653z
			 M125.3,187.69h0.01H125.3z"/>
	</g>
	<g>
		<path class="st2" d="M156.634,229.56H99.736c-0.715,0-1.295-0.58-1.295-1.295v-17.846c0-0.715,0.58-1.295,1.295-1.295h56.897
			c0.715,0,1.295,0.58,1.295,1.295v17.846C157.929,228.981,157.349,229.56,156.634,229.56z"/>
	</g>
	<g>
		<path class="st1" d="M156.634,231.561H99.736c-1.816,0-3.295-1.478-3.295-3.295v-17.847c0-1.817,1.479-3.295,3.295-3.295h56.897
			c1.816,0,3.295,1.478,3.295,3.295v17.847C159.929,230.083,158.45,231.561,156.634,231.561z M100.441,227.561h55.487v-16.437
			h-55.487V227.561z"/>
	</g>
	<g>
		<path class="st4" d="M137.384,32.259h-3.28V9.228c0-0.723-0.586-1.31-1.31-1.31h-9.169c-0.723,0-1.31,0.586-1.31,1.31v23.031
			h-3.28c-1.058,0-1.679,1.189-1.076,2.057l9.174,13.204c0.521,0.75,1.63,0.75,2.151,0l9.174-13.204
			C139.063,33.447,138.441,32.259,137.384,32.259z"/>
	</g>
	<g>
		<path class="st4" d="M181.384,32.259h-3.28V9.228c0-0.723-0.586-1.31-1.31-1.31h-9.169c-0.723,0-1.31,0.586-1.31,1.31v23.031
			h-3.28c-1.058,0-1.679,1.189-1.076,2.057l9.174,13.204c0.521,0.75,1.63,0.75,2.151,0l9.174-13.204
			C183.063,33.447,182.441,32.259,181.384,32.259z"/>
	</g>
	<g>
		<path class="st4" d="M93.384,32.259h-3.28V9.228c0-0.723-0.586-1.31-1.31-1.31h-9.169c-0.723,0-1.31,0.586-1.31,1.31v23.031h-3.28
			c-1.058,0-1.679,1.189-1.076,2.057l9.174,13.204c0.521,0.75,1.63,0.75,2.151,0l9.174-13.204
			C95.063,33.447,94.441,32.259,93.384,32.259z"/>
	</g>
	<g>
		<path class="st1" d="M128,130.01c-13.761,0-24.955-11.194-24.955-24.955S114.239,80.1,128,80.1s24.955,11.195,24.955,24.955
			S141.761,130.01,128,130.01z M128,84.1c-11.555,0-20.955,9.4-20.955,20.955c0,11.554,9.4,20.955,20.955,20.955
			s20.955-9.4,20.955-20.955C148.955,93.5,139.555,84.1,128,84.1z"/>
	</g>
	<g>
		<circle class="st5" cx="107.333" cy="73.037" r="22.955"/>
	</g>
	<g>
		<path class="st2" d="M120.998,78.683c0,0.976-0.241,2.032-0.722,3.168c-0.481,1.136-1.237,2.251-2.269,3.346
			c-1.032,1.095-2.349,1.983-3.952,2.666c-1.603,0.683-3.471,1.024-5.604,1.024c-1.617,0-3.088-0.153-4.412-0.46
			c-1.325-0.307-2.527-0.784-3.607-1.432c-1.081-0.648-2.074-1.502-2.98-2.562c-0.809-0.962-1.499-2.039-2.07-3.23
			c-0.572-1.192-1.001-2.464-1.286-3.816c-0.286-1.352-0.429-2.788-0.429-4.308c0-2.467,0.359-4.677,1.077-6.629
			c0.718-1.952,1.746-3.621,3.084-5.008c1.338-1.387,2.906-2.443,4.705-3.168c1.799-0.725,3.715-1.087,5.75-1.087
			c2.481,0,4.691,0.495,6.629,1.485c1.937,0.99,3.422,2.213,4.454,3.67c1.032,1.457,1.547,2.833,1.547,4.13
			c0,0.711-0.251,1.338-0.753,1.882c-0.502,0.544-1.108,0.815-1.819,0.815c-0.795,0-1.39-0.188-1.788-0.565
			c-0.397-0.376-0.84-1.024-1.328-1.945c-0.808-1.519-1.76-2.656-2.854-3.408c-1.095-0.753-2.443-1.129-4.046-1.129
			c-2.551,0-4.583,0.969-6.095,2.906c-1.513,1.938-2.269,4.691-2.269,8.26c0,2.384,0.335,4.367,1.004,5.949
			c0.669,1.582,1.617,2.764,2.844,3.544c1.226,0.781,2.662,1.171,4.308,1.171c1.784,0,3.293-0.442,4.527-1.328
			c1.234-0.885,2.164-2.185,2.791-3.9c0.265-0.808,0.592-1.467,0.983-1.976c0.39-0.509,1.017-0.763,1.882-0.763
			c0.739,0,1.373,0.258,1.903,0.774C120.733,77.275,120.998,77.916,120.998,78.683z"/>
	</g>
	<g>
		<path class="st1" d="M107.333,97.992c-13.761,0-24.955-11.195-24.955-24.955s11.194-24.955,24.955-24.955
			s24.955,11.195,24.955,24.955S121.094,97.992,107.333,97.992z M107.333,52.082c-11.555,0-20.955,9.4-20.955,20.955
			s9.4,20.955,20.955,20.955s20.955-9.4,20.955-20.955S118.888,52.082,107.333,52.082z"/>
	</g>
	<g>
		<circle class="st5" cx="150.494" cy="73.037" r="22.955"/>
	</g>
	<g>
		<path class="st2" d="M164.159,78.683c0,0.976-0.241,2.032-0.722,3.168c-0.481,1.136-1.237,2.251-2.269,3.346
			c-1.032,1.095-2.349,1.983-3.952,2.666c-1.603,0.683-3.471,1.024-5.604,1.024c-1.617,0-3.088-0.153-4.412-0.46
			c-1.325-0.307-2.527-0.784-3.607-1.432c-1.081-0.648-2.074-1.502-2.98-2.562c-0.809-0.962-1.499-2.039-2.07-3.23
			c-0.572-1.192-1.001-2.464-1.286-3.816c-0.286-1.352-0.429-2.788-0.429-4.308c0-2.467,0.359-4.677,1.077-6.629
			c0.718-1.952,1.746-3.621,3.084-5.008c1.338-1.387,2.906-2.443,4.705-3.168c1.799-0.725,3.715-1.087,5.75-1.087
			c2.481,0,4.691,0.495,6.629,1.485c1.937,0.99,3.422,2.213,4.454,3.67c1.032,1.457,1.547,2.833,1.547,4.13
			c0,0.711-0.251,1.338-0.753,1.882c-0.502,0.544-1.108,0.815-1.819,0.815c-0.795,0-1.39-0.188-1.788-0.565
			c-0.397-0.376-0.84-1.024-1.328-1.945c-0.808-1.519-1.76-2.656-2.854-3.408c-1.095-0.753-2.443-1.129-4.046-1.129
			c-2.551,0-4.583,0.969-6.095,2.906c-1.513,1.938-2.269,4.691-2.269,8.26c0,2.384,0.335,4.367,1.004,5.949
			c0.669,1.582,1.617,2.764,2.844,3.544c1.226,0.781,2.662,1.171,4.308,1.171c1.784,0,3.293-0.442,4.527-1.328
			c1.234-0.885,2.164-2.185,2.791-3.9c0.265-0.808,0.592-1.467,0.983-1.976c0.39-0.509,1.017-0.763,1.882-0.763
			c0.739,0,1.373,0.258,1.903,0.774C163.893,77.275,164.159,77.916,164.159,78.683z"/>
	</g>
	<g>
		<path class="st1" d="M150.494,97.992c-13.761,0-24.955-11.195-24.955-24.955s11.194-24.955,24.955-24.955
			c13.76,0,24.954,11.195,24.954,24.955S164.254,97.992,150.494,97.992z M150.494,52.082c-11.555,0-20.955,9.4-20.955,20.955
			s9.4,20.955,20.955,20.955c11.554,0,20.954-9.4,20.954-20.955S162.048,52.082,150.494,52.082z"/>
	</g>
	<g>
		<path class="st7" d="M185.5,133.395h-115c-5.523,0-10-4.477-10-10v-19.106c0-0.552,0.448-1,1-1h133c0.552,0,1,0.448,1,1v19.106
			C195.5,128.918,191.023,133.395,185.5,133.395z"/>
	</g>
	<g>
		<path class="st1" d="M185.5,135.395h-115c-6.617,0-12-5.383-12-12v-19.106c0-1.654,1.346-3,3-3h133c1.654,0,3,1.346,3,3v19.106
			C197.5,130.012,192.117,135.395,185.5,135.395z M62.5,105.289v18.106c0,4.411,3.589,8,8,8h115c4.411,0,8-3.589,8-8v-18.106H62.5z"
			/>
	</g>
	<g>
		<path class="st1" d="M177,250.082H79c-6.944,0-12.595-5.65-12.595-12.595v-46.792c0-6.945,5.65-12.595,12.595-12.595h98
			c6.944,0,12.595,5.65,12.595,12.595v46.792C189.595,244.432,183.944,250.082,177,250.082z M79,182.1
			c-4.739,0-8.595,3.855-8.595,8.595v46.792c0,4.739,3.855,8.595,8.595,8.595h98c4.739,0,8.595-3.855,8.595-8.595v-46.792
			c0-4.739-3.855-8.595-8.595-8.595H79z"/>
	</g>
	<g>
		<path class="st1" d="M136.829,182.1h-17.658c-1.104,0-2-0.896-2-2v-31.122c0-1.104,0.896-2,2-2h17.658c1.104,0,2,0.896,2,2V180.1
			C138.829,181.205,137.934,182.1,136.829,182.1z M121.171,178.1h13.658v-27.122h-13.658V178.1z"/>
	</g>
	<g>
		<path class="st1" d="M195.253,150.979H60.747c-5.399,0-9.792-4.393-9.792-9.792c0-5.399,4.393-9.792,9.792-9.792h134.506
			c5.399,0,9.792,4.393,9.792,9.792C205.045,146.586,200.652,150.979,195.253,150.979z M60.747,135.395
			c-3.193,0-5.792,2.598-5.792,5.792c0,3.194,2.599,5.792,5.792,5.792h134.506c3.193,0,5.792-2.598,5.792-5.792
			c0-3.193-2.599-5.792-5.792-5.792H60.747z"/>
	</g>
</g>
</svg>
