<?xml version="1.0" encoding="utf-8"?>
<!-- Generator: Adobe Illustrator 22.1.0, SVG Export Plug-In . SVG Version: 6.00 Build 0)  -->
<svg version="1.1" id="Layer_1" xmlns="http://www.w3.org/2000/svg" xmlns:xlink="http://www.w3.org/1999/xlink" x="0px" y="0px"
	 viewBox="0 0 256 256" style="enable-background:new 0 0 256 256;" xml:space="preserve">
<style type="text/css">
	.st0{fill:#E0EBFC;}
	.st1{fill:#3762CC;}
	.st2{fill:#4671C6;}
	.st3{fill:#6BDDDD;}
	.st4{fill:#F9A7A7;}
	.st5{fill:#A4C9FF;}
	.st6{fill:#FFEA92;}
	.st7{fill:#F9CFCF;}
	.st8{fill:#FFE164;}
	.st9{fill:#FFDC85;}
	.st10{fill:#FFEA94;}
	.st11{fill:#B9BEFC;}
	.st12{fill:#EAA97D;}
</style>
<g>
	<g>
		<path class="st3" d="M151.932,247.673H36.744v-33.149c0-13.632,11.051-24.683,24.683-24.683h65.822
			c13.632,0,24.683,11.051,24.683,24.683V247.673z"/>
	</g>
	<g>
		<path class="st7" d="M94.338,187.025c-7.742,0-15.032-1.898-21.437-5.238v8.054v0.002c0,11.828,9.588,21.416,21.416,21.416
			c11.823,0,21.416-9.582,21.416-21.419v-8.032C109.339,185.136,102.063,187.025,94.338,187.025z"/>
	</g>
	<g>
		<path class="st1" d="M151.933,249.673H36.743c-1.104,0-2-0.896-2-2v-33.148c0-14.713,11.97-26.684,26.684-26.684H70.9v-6.054
			c0-0.699,0.365-1.348,0.963-1.71c0.6-0.363,1.344-0.386,1.962-0.063c6.287,3.278,13.381,5.011,20.513,5.011
			c7.22,0,14.108-1.679,20.473-4.991c0.62-0.322,1.363-0.298,1.961,0.065c0.597,0.362,0.962,1.011,0.962,1.709v6.032h9.516
			c14.714,0,26.684,11.97,26.684,26.684v33.148C153.933,248.777,153.037,249.673,151.933,249.673z M38.743,245.673h111.189v-31.148
			c0-12.508-10.176-22.684-22.684-22.684h-11.516c-1.104,0-2-0.896-2-2v-4.862c-6.081,2.654-12.724,4.046-19.396,4.046
			c-6.687,0-13.344-1.398-19.438-4.064v4.88c0,1.104-0.896,2-2,2H61.427c-12.508,0-22.684,10.176-22.684,22.684V245.673z"/>
	</g>
	<g>
		<g>
			<path class="st4" d="M94.318,247.673H12.106c-2.311,0-4.184-1.873-4.184-4.184v0c0-2.311,1.873-4.184,4.184-4.184h82.212V247.673
				z"/>
		</g>
		<g>
			<path class="st4" d="M94.318,247.673h82.212c2.311,0,4.184-1.873,4.184-4.184v0c0-2.311-1.873-4.184-4.184-4.184H94.318V247.673z
				"/>
		</g>
		<g>
			<path class="st1" d="M94.317,249.673H12.105c-3.409,0-6.184-2.774-6.184-6.184s2.774-6.184,6.184-6.184h82.212
				c1.104,0,2,0.896,2,2v8.368C96.317,248.777,95.422,249.673,94.317,249.673z M12.105,241.305c-1.204,0-2.184,0.98-2.184,2.184
				s0.979,2.184,2.184,2.184h80.212v-4.368H12.105z"/>
		</g>
		<g>
			<path class="st1" d="M176.53,249.673H94.317c-1.104,0-2-0.896-2-2v-8.368c0-1.104,0.896-2,2-2h82.213
				c3.409,0,6.184,2.774,6.184,6.184S179.939,249.673,176.53,249.673z M96.317,245.673h80.213c1.204,0,2.184-0.98,2.184-2.184
				s-0.979-2.184-2.184-2.184H96.317V245.673z"/>
		</g>
		<g>
			<path class="st0" d="M94.318,239.305v-9.621l-31.016-3.579c-14.864-1.715-29.891-1.42-44.677,0.877h0
				c-2.486,0.386-4.32,2.527-4.32,5.043v7.28H94.318z"/>
		</g>
		<g>
			<path class="st0" d="M94.318,239.305v-9.621l31.016-3.579c14.864-1.715,29.891-1.42,44.677,0.877h0
				c2.486,0.386,4.32,2.527,4.32,5.043v7.28H94.318z"/>
		</g>
		<g>
			<path class="st1" d="M94.317,241.305H14.305c-1.104,0-2-0.896-2-2v-7.28c0-3.526,2.529-6.478,6.014-7.019
				c14.96-2.325,30.172-2.623,45.213-0.888l31.016,3.579c1.009,0.117,1.771,0.971,1.771,1.987v9.621
				C96.317,240.409,95.422,241.305,94.317,241.305z M16.305,237.305h76.013v-5.838l-29.245-3.375
				c-14.683-1.694-29.534-1.403-44.141,0.866c-1.522,0.237-2.627,1.526-2.627,3.067V237.305z"/>
		</g>
		<g>
			<path class="st1" d="M174.331,241.305H94.317c-1.104,0-2-0.896-2-2v-9.621c0-1.016,0.762-1.87,1.771-1.987l31.017-3.579
				c15.041-1.736,30.252-1.438,45.213,0.888c3.484,0.541,6.014,3.493,6.014,7.019v7.28
				C176.331,240.409,175.436,241.305,174.331,241.305z M96.317,237.305h76.014v-5.28c0-1.541-1.104-2.83-2.627-3.067
				c-14.605-2.27-29.458-2.562-44.141-0.866l-29.246,3.375V237.305z"/>
		</g>
	</g>
	<g>
		<path class="st2" d="M48.201,123.925v-4.32c0-0.247,0.015-0.491,0.019-0.738c-5.609-2.039-10.549-5.474-14.386-9.897v6.396
			c0,4.945,1.098,9.631,3.051,13.838C39.501,125.932,43.57,123.831,48.201,123.925z"/>
	</g>
	<g>
		<path class="st2" d="M138.733,107.167c1.127,3.956,1.742,8.125,1.742,12.438v4.32c4.138-0.084,7.827,1.588,10.435,4.28
			c3.942-7.031,6.079-15.212,6.079-24.606c0-9.094-4.907-17.037-12.215-21.34c0.25,1.693,0.383,3.424,0.383,5.186
			C145.157,94.821,142.77,101.635,138.733,107.167z"/>
	</g>
	<g>
		<path class="st1" d="M36.885,131.205c-0.079,0-0.159-0.005-0.239-0.014c-0.688-0.083-1.283-0.516-1.574-1.144
			c-2.148-4.625-3.237-9.564-3.237-14.681v-6.396c0-0.835,0.519-1.582,1.301-1.874c0.778-0.292,1.662-0.068,2.21,0.563
			c3.646,4.203,8.335,7.429,13.559,9.327c0.801,0.292,1.33,1.059,1.316,1.912l-0.01,0.349c-0.004,0.119-0.009,0.237-0.009,0.357
			v4.32c0,0.538-0.217,1.052-0.601,1.429c-0.385,0.376-0.902,0.598-1.44,0.571c-0.085-0.001-0.171-0.002-0.257-0.002
			c-3.712,0-7.146,1.642-9.456,4.531C38.065,130.932,37.488,131.205,36.885,131.205z M35.834,113.812v1.555
			c0,3.54,0.589,6.983,1.753,10.272c2.437-2.038,5.417-3.299,8.614-3.629v-1.778C42.414,118.684,38.904,116.507,35.834,113.812z"/>
	</g>
	<g>
		<path class="st1" d="M150.91,130.206c-0.538,0-1.058-0.217-1.437-0.608c-2.361-2.437-5.559-3.729-8.958-3.672
			c-0.526,0.024-1.057-0.195-1.44-0.571c-0.384-0.376-0.601-0.891-0.601-1.429v-4.32c0-4.01-0.561-8.01-1.666-11.89
			c-0.168-0.592-0.055-1.229,0.309-1.727c3.951-5.414,6.04-11.825,6.04-18.542c0-1.617-0.122-3.264-0.361-4.896
			c-0.112-0.762,0.223-1.521,0.862-1.95c0.637-0.43,1.468-0.455,2.131-0.064c8.143,4.794,13.2,13.632,13.2,23.064
			c0,9.479-2.131,18.087-6.335,25.583c-0.309,0.551-0.859,0.924-1.486,1.005C151.082,130.2,150.996,130.206,150.91,130.206z
			 M142.475,122.009c2.861,0.294,5.544,1.331,7.839,3.025c3.104-6.368,4.676-13.565,4.676-21.434c0-6.62-2.93-12.895-7.847-17.178
			c0.01,0.342,0.015,0.684,0.015,1.024c0,7.244-2.156,14.174-6.246,20.105c1.038,3.943,1.563,7.994,1.563,12.053V122.009z"/>
	</g>
	<g>
		<path class="st7" d="M140.475,123.925v-4.32c0-25.251-20.656-45.721-46.137-45.721l0,0c-25.481,0-46.137,20.47-46.137,45.721v4.32
			c-8.011-0.162-14.367,6.22-14.367,13.934c0,8.238,7.192,14.754,15.586,13.866c4.761,20.229,23.059,35.299,44.918,35.299
			c21.861,0,40.157-15.072,44.918-35.299c8.383,0.886,15.586-5.617,15.586-13.866C154.842,130.141,148.482,123.763,140.475,123.925z
			"/>
	</g>
	<g>
		<path class="st1" d="M94.339,172.104L94.339,172.104c-3.353,0-6.475-1.21-8.567-3.319c-1.597-1.609-2.476-3.641-2.476-5.721
			c0-1.104,0.896-2,2-2s2,0.896,2,2c0,1.032,0.455,2.037,1.315,2.904c1.347,1.357,3.435,2.136,5.728,2.136
			c2.285,0,4.368-0.778,5.715-2.136c0.86-0.867,1.314-1.871,1.314-2.904c0-1.104,0.896-2,2-2s2,0.896,2,2
			c0,2.081-0.879,4.113-2.475,5.721C100.801,170.894,97.683,172.104,94.339,172.104z"/>
	</g>
	<g>
		<path class="st1" d="M118.291,153.419L118.291,153.419c-3.578,0-6.479-2.901-6.479-6.479v-6.911c0-3.578,2.901-6.479,6.479-6.479
			h0c3.578,0,6.479,2.901,6.479,6.479v6.911C124.77,150.518,121.869,153.419,118.291,153.419z"/>
	</g>
	<g>
		<path class="st1" d="M70.374,153.419L70.374,153.419c-3.578,0-6.479-2.901-6.479-6.479v-6.911c0-3.578,2.901-6.479,6.479-6.479h0
			c3.578,0,6.479,2.901,6.479,6.479v6.911C76.853,150.518,73.952,153.419,70.374,153.419z"/>
	</g>
	<g>
		<path class="st1" d="M94.338,189.025c-21.924,0-40.791-14.398-46.454-35.22c-3.966-0.009-7.814-1.469-10.771-4.129
			c-3.354-3.019-5.278-7.325-5.278-11.816c0-4.299,1.698-8.33,4.782-11.352c2.619-2.567,5.967-4.126,9.585-4.499v-2.404
			c0-26.313,21.594-47.721,48.137-47.721s48.137,21.408,48.137,47.721v2.404c3.619,0.372,6.966,1.932,9.587,4.5
			c3.083,3.021,4.781,7.052,4.781,11.351c0,4.491-1.923,8.796-5.276,11.814c-2.958,2.662-6.809,4.122-10.773,4.131
			C135.128,174.626,116.261,189.025,94.338,189.025z M49.422,149.726c0.918,0,1.73,0.63,1.945,1.542
			c4.678,19.876,22.348,33.757,42.971,33.757c20.622,0,38.293-13.882,42.972-33.758c0.231-0.981,1.147-1.644,2.157-1.53
			c3.442,0.362,6.876-0.743,9.424-3.037c2.512-2.26,3.952-5.482,3.952-8.841c0-3.214-1.271-6.231-3.581-8.494
			c-2.333-2.286-5.438-3.501-8.746-3.441c-0.526,0.024-1.057-0.195-1.44-0.571c-0.384-0.376-0.601-0.891-0.601-1.429v-4.32
			c0-24.108-19.8-43.721-44.137-43.721s-44.137,19.613-44.137,43.721v4.32c0,0.538-0.217,1.052-0.601,1.429
			c-0.385,0.375-0.902,0.598-1.44,0.571c-3.282-0.062-6.412,1.154-8.745,3.439c-2.31,2.263-3.581,5.28-3.581,8.495
			c0,3.358,1.441,6.582,3.954,8.842c2.585,2.327,5.933,3.402,9.422,3.035C49.28,149.729,49.352,149.726,49.422,149.726z"/>
	</g>
	<g>
		<path class="st2" d="M53.739,65.003c-6.596,8.179-15.454,13.529-25.308,14.46c-1.761,0.166-3.088,1.678-3.088,3.447v3.329
			c0,19.172,15.542,34.714,34.714,34.714h51.593c18.505,0,33.507-15.002,33.507-33.507v0c0-19.464-15.779-35.243-35.243-35.243
			l-29.26,0C70.214,52.204,60.293,56.876,53.739,65.003z"/>
	</g>
	<g>
		<path class="st1" d="M111.65,122.953H60.058c-20.244,0-36.714-16.47-36.714-36.713v-3.33c0-2.836,2.106-5.174,4.899-5.438
			c8.985-0.849,17.486-5.723,23.939-13.724l0,0c6.94-8.608,17.318-13.544,28.472-13.544h29.261
			c20.535,0,37.242,16.707,37.242,37.243C147.157,107.025,131.229,122.953,111.65,122.953z M80.654,54.204
			c-9.938,0-19.181,4.394-25.358,12.055l0,0c-7.135,8.848-16.608,14.244-26.676,15.196c-0.716,0.067-1.276,0.707-1.276,1.456v3.33
			c0,18.038,14.676,32.713,32.714,32.713h51.593c17.373,0,31.507-14.134,31.507-31.507c0-18.33-14.912-33.243-33.242-33.243H80.654z
			 M53.739,65.003h0.01H53.739z"/>
	</g>
	<g>
		<path class="st5" d="M197.5,8C169.61,8,147,30.61,147,58.5c0,9.147,2.445,17.719,6.698,25.119l-5.967,17.286
			c-0.816,2.365,1.45,4.631,3.815,3.815l16.042-5.537C175.961,105.35,186.303,109,197.5,109c27.89,0,50.5-22.61,50.5-50.5
			S225.39,8,197.5,8z"/>
	</g>
	<g>
		<path class="st2" d="M235.492,49.044h-7.695c-0.569-1.817-1.305-3.589-2.192-5.276c9.265-9.265,9.183-7.2-2.434-18.818
			c-1.518-1.518-3.975-1.518-5.492,0l-5.445,5.446c-1.687-0.888-3.46-1.624-5.277-2.193v-7.694c0-2.141-1.742-3.884-3.884-3.884
			h-11.144c-2.142,0-3.884,1.742-3.884,3.884v7.694c-1.816,0.568-3.589,1.305-5.277,2.193c-5.701-5.701-6.11-6.583-8.191-6.583
			c-1.038,0-2.013,0.404-2.746,1.137c-11.688,11.688-11.686,9.566-2.434,18.818c-0.888,1.687-1.624,3.46-2.192,5.276h-7.695
			c-2.142,0-3.884,1.742-3.884,3.884v11.144c0,2.141,1.742,3.884,3.884,3.884h7.695c0.569,1.817,1.305,3.589,2.192,5.276
			c-9.265,9.265-9.183,7.2,2.434,18.818c1.518,1.518,3.975,1.518,5.492,0l5.445-5.446c1.687,0.888,3.46,1.624,5.277,2.193v7.694
			c0,2.141,1.742,3.884,3.884,3.884h11.144c2.142,0,3.884-1.742,3.884-3.884v-7.694c1.816-0.568,3.589-1.305,5.277-2.193
			l5.445,5.446c1.518,1.518,3.975,1.518,5.492,0c8.513-8.513,9.018-8.542,9.018-10.626c0-2.065-0.835-2.443-6.583-8.192
			c0.888-1.687,1.624-3.46,2.192-5.276h7.695c2.142,0,3.884-1.742,3.884-3.884V52.928C239.375,50.786,237.633,49.044,235.492,49.044
			z M216.148,58.5c0,10.283-8.365,18.648-18.648,18.648s-18.648-8.365-18.648-18.648c0-10.283,8.365-18.648,18.648-18.648
			S216.148,48.217,216.148,58.5z"/>
	</g>
	<g>
		<path class="st7" d="M197.5,33.66c-13.696,0-24.84,11.143-24.84,24.84c0,13.698,11.143,24.841,24.84,24.841
			c13.698,0,24.841-11.143,24.841-24.841C222.341,44.803,211.198,33.66,197.5,33.66z M197.5,77.148
			c-10.283,0-18.648-8.365-18.648-18.648s8.365-18.648,18.648-18.648s18.648,8.365,18.648,18.648S207.783,77.148,197.5,77.148z"/>
	</g>
	<g>
		<path class="st1" d="M197.5,111c-10.925,0-21.357-3.312-30.24-9.588l-15.062,5.199c-1.82,0.629-3.802,0.173-5.167-1.19
			c-1.363-1.364-1.82-3.343-1.191-5.167l5.674-16.437C147.249,76.084,145,67.352,145,58.5C145,29.551,168.552,6,197.5,6
			S250,29.551,250,58.5S226.448,111,197.5,111z M167.588,97.183c0.421,0,0.838,0.133,1.187,0.39
			C177.147,103.74,187.081,107,197.5,107c26.743,0,48.5-21.757,48.5-48.5S224.243,10,197.5,10S149,31.757,149,58.5
			c0,8.46,2.224,16.801,6.432,24.123c0.288,0.501,0.345,1.103,0.156,1.649l-5.967,17.286c-0.184,0.534,0.105,0.9,0.238,1.034
			c0.133,0.132,0.498,0.422,1.034,0.238l16.042-5.537C167.148,97.219,167.368,97.183,167.588,97.183z"/>
	</g>
	<g>
		<circle class="st0" cx="197.5" cy="58.5" r="18.648"/>
	</g>
	<g>
		<path class="st4" d="M194.607,54.706c-2.833-6.855-2.942-8.465-5.224-8.465c-0.885,0-1.687,0.408-2.145,1.09
			c-0.402,0.597-5.158,12.422-5.158,13.32c0,0.984,0.9,1.847,1.928,1.847c1.449,0,1.655-0.905,2.712-3.771h5.298
			c0.722,1.942,1.129,3.776,2.763,3.776c0.529,0,1.026-0.206,1.4-0.579C197.176,60.93,197.031,60.578,194.607,54.706z
			 M187.867,55.485l1.475-4.114l1.503,4.114H187.867z"/>
	</g>
	<g>
		<path class="st4" d="M210.678,60.381c1.034-0.756,1.557-1.802,1.557-3.119c0-4.494-4.681-4.195-8.989-4.195
			c-4.223,0-3.382,0.895-3.473,8.167c-0.103,8.289-0.25,7.485,5.757,7.485c2.583,0,7.391,0,7.391-4.698
			C212.92,62.356,212.167,61.135,210.678,60.381z M203.767,59.092v-2.772c3.589-0.012,4.575-0.011,4.575,1.331
			C208.342,59.301,206.556,59.13,203.767,59.092z M203.767,62.203c2.47-0.01,5.838-0.365,5.128,2.063
			c-0.428,1.46-2.665,1.192-5.128,1.192V62.203z"/>
	</g>
	<g>
		<path class="st6" d="M91.622,36.863L91.622,36.863c-2.43,0-4.4-1.97-4.4-4.4v-13.2c0-2.43,1.97-4.4,4.4-4.4h0
			c2.43,0,4.4,1.97,4.4,4.4v13.2C96.022,34.893,94.052,36.863,91.622,36.863z"/>
	</g>
	<g>
		<path class="st6" d="M59.4,47.641L59.4,47.641c-1.718,1.718-4.504,1.718-6.223,0l-9.334-9.334c-1.718-1.718-1.718-4.504,0-6.223
			l0,0c1.718-1.718,4.504-1.718,6.223,0l9.334,9.334C61.118,43.137,61.118,45.922,59.4,47.641z"/>
	</g>
	<g>
		<path class="st6" d="M123.844,47.641L123.844,47.641c1.718,1.718,4.504,1.718,6.223,0l9.334-9.334
			c1.718-1.718,1.718-4.504,0-6.223v0c-1.718-1.718-4.504-1.718-6.223,0l-9.334,9.334C122.125,43.137,122.125,45.922,123.844,47.641
			z"/>
	</g>
</g>
</svg>
