<?xml version="1.0" encoding="utf-8"?>
<!-- Generator: Adobe Illustrator 22.1.0, SVG Export Plug-In . SVG Version: 6.00 Build 0)  -->
<svg version="1.1" id="Layer_1" xmlns="http://www.w3.org/2000/svg" xmlns:xlink="http://www.w3.org/1999/xlink" x="0px" y="0px"
	 viewBox="0 0 256 256" style="enable-background:new 0 0 256 256;" xml:space="preserve">
<style type="text/css">
	.st0{fill:#E0EBFC;}
	.st1{fill:#3762CC;}
	.st2{fill:#4671C6;}
	.st3{fill:#6BDDDD;}
	.st4{fill:#F9A7A7;}
	.st5{fill:#A4C9FF;}
	.st6{fill:#FFEA92;}
	.st7{fill:#F9CFCF;}
	.st8{fill:#FFE164;}
	.st9{fill:#FFDC85;}
	.st10{fill:#FFEA94;}
	.st11{fill:#B9BEFC;}
	.st12{fill:#EAA97D;}
</style>
<g>
	<g>
		<path class="st7" d="M57.205,182.119c-6.858,0-13.276-1.851-18.786-5.068v8.378l0.019-0.011l18.786,4.222l0,0l18.767-4.218v-8.372
			C70.481,180.267,64.063,182.119,57.205,182.119z"/>
	</g>
	<g>
		<path class="st1" d="M57.224,191.642c-0.147,0-0.294-0.016-0.438-0.049L38.134,187.4c-0.245-0.036-0.484-0.117-0.705-0.244
			c-0.619-0.357-1.01-1.012-1.01-1.727v-8.378c0-0.716,0.383-1.378,1.004-1.734c0.622-0.357,1.386-0.354,2.004,0.007
			c5.374,3.137,11.521,4.794,17.778,4.794s12.404-1.658,17.778-4.794c0.619-0.362,1.383-0.364,2.004-0.007
			c0.621,0.356,1.004,1.018,1.004,1.734v8.372c0,0.936-0.648,1.746-1.562,1.951l-18.768,4.218
			C57.518,191.625,57.371,191.642,57.224,191.642z M40.419,183.814l16.805,3.777l16.768-3.769v-3.46
			c-5.223,2.465-10.962,3.756-16.786,3.756s-11.563-1.291-16.786-3.756V183.814z"/>
	</g>
	<g>
		<path class="st0" d="M104.585,237.208H9.843v-27.264c0-11.212,9.089-20.302,20.302-20.302h54.138
			c11.212,0,20.302,9.089,20.302,20.302V237.208z"/>
	</g>
	<g>
		<path class="st1" d="M104.584,239.208H9.843c-1.104,0-2-0.896-2-2v-27.264c0-12.297,10.004-22.301,22.302-22.301h54.138
			c12.297,0,22.302,10.004,22.302,22.301v27.264C106.584,238.313,105.689,239.208,104.584,239.208z M11.843,235.208h90.741v-25.264
			c0-10.091-8.21-18.301-18.302-18.301H30.145c-10.092,0-18.302,8.21-18.302,18.301V235.208z"/>
	</g>
	<g>
		<path class="st0" d="M57.224,189.641l-18.786-4.222l-7.501,4.222l11.81,15.057c0.679,0.865,1.989,0.865,2.668,0L57.224,189.641z"
			/>
	</g>
	<g>
		<path class="st0" d="M57.222,189.642l18.786-4.222l7.501,4.222L71.7,204.699c-0.679,0.865-1.989,0.865-2.668,0L57.222,189.642z"/>
	</g>
	<g>
		<path class="st1" d="M44.08,207.348c-1.143,0-2.203-0.516-2.908-1.416l-11.81-15.057c-0.36-0.459-0.501-1.053-0.388-1.625
			s0.472-1.066,0.98-1.352l7.501-4.222c0.431-0.243,0.936-0.318,1.419-0.208l18.786,4.222c0.669,0.15,1.215,0.633,1.445,1.28
			c0.23,0.646,0.113,1.366-0.31,1.906l-11.81,15.057C46.283,206.832,45.223,207.348,44.08,207.348z M33.949,190.241l10.131,12.917
			l9.616-12.26l-14.947-3.359L33.949,190.241z"/>
	</g>
	<g>
		<path class="st4" d="M51.391,205.217l-5.222,31.991c7.982,0,14.087,0,22.071,0l-5.222-31.991H51.391z"/>
	</g>
	<g>
		<path class="st1" d="M68.241,239.208H46.169c-0.587,0-1.144-0.258-1.524-0.705c-0.38-0.447-0.544-1.039-0.45-1.618l5.222-31.991
			c0.158-0.967,0.994-1.678,1.974-1.678h11.627c0.98,0,1.816,0.71,1.974,1.678l5.222,31.991c0.095,0.579-0.07,1.17-0.45,1.618
			C69.385,238.95,68.828,239.208,68.241,239.208z M48.522,235.208h17.365l-4.569-27.991h-8.227L48.522,235.208z"/>
	</g>
	<g>
		<path class="st1" d="M44.08,207.348c-1.143,0-2.203-0.516-2.908-1.416l-11.81-15.057c-0.36-0.459-0.501-1.053-0.388-1.625
			s0.472-1.066,0.98-1.352l7.501-4.222c0.431-0.243,0.936-0.318,1.419-0.208l18.786,4.222c0.669,0.15,1.215,0.633,1.445,1.28
			c0.23,0.646,0.113,1.366-0.31,1.906l-11.81,15.057C46.283,206.832,45.223,207.348,44.08,207.348z M33.949,190.241l10.131,12.917
			l9.616-12.26l-14.947-3.359L33.949,190.241z"/>
	</g>
	<g>
		<path class="st4" d="M57.223,189.642l-7.359,9.383l1.528,6.192c4.208,0,7.422,0,11.627,0l1.536-6.227L57.223,189.642z"/>
	</g>
	<g>
		<path class="st1" d="M70.366,207.348c-1.143,0-2.203-0.516-2.908-1.415l-11.81-15.057c-0.423-0.54-0.541-1.259-0.31-1.906
			c0.23-0.646,0.776-1.129,1.445-1.28l18.786-4.222c0.484-0.109,0.988-0.034,1.419,0.208l7.501,4.222
			c0.508,0.286,0.867,0.78,0.98,1.352s-0.028,1.166-0.388,1.625l-11.81,15.057C72.568,206.833,71.508,207.348,70.366,207.348z
			 M60.75,190.898l9.616,12.261l10.131-12.918l-4.8-2.702L60.75,190.898z"/>
	</g>
	<g>
		<path class="st1" d="M63.019,207.218H51.391c-0.92,0-1.721-0.627-1.942-1.521l-1.528-6.192c-0.147-0.597-0.012-1.229,0.368-1.713
			l7.359-9.383c0.759-0.967,2.389-0.967,3.147,0l7.333,9.348c0.38,0.484,0.516,1.116,0.368,1.713l-1.537,6.227
			C64.74,206.59,63.938,207.218,63.019,207.218z M52.958,203.218h8.495l0.928-3.76l-5.157-6.575l-5.184,6.609L52.958,203.218z"/>
	</g>
	<g>
		<path class="st3" d="M239.847,171.433H26.972c-4.199,0-7.603-3.404-7.603-7.603V26.394c0-4.199,3.404-7.603,7.603-7.603h212.875
			c4.199,0,7.603,3.404,7.603,7.603v137.436C247.45,168.029,244.046,171.433,239.847,171.433z"/>
	</g>
	<g>
		<path class="st5" d="M28.706,159.718V30.507c0-1.598,1.296-2.894,2.894-2.894h203.619c1.598,0,2.894,1.296,2.894,2.894v129.212
			c0,1.598-1.296,2.894-2.894,2.894H31.601C30.002,162.612,28.706,161.317,28.706,159.718z"/>
	</g>
	<g>
		<path class="st0" d="M115.625,97.934c2.874-2.849,5.922-4.315,7.989-7.724c2.715-4.484,0.606-11.667-7.7-11.667
			c-9.507,0-11.14,10.538-6.025,10.538c2.756,0,2.987-2.875,3.588-3.936c2.331-3.572,8.822,0.578,1.443,5.8
			c-1.581,1.064-4.967,4.466-6.329,5.879c-2.895,3.076-1.674,6.906,1.908,6.906h11.519c2.021,0,3.102-1.343,3.102-2.883
			C125.12,97.111,120.222,97.934,115.625,97.934z"/>
	</g>
	<g>
		<path class="st0" d="M145.662,93.95c2.946-3.968,5.617-6.48,3.185-8.572c-1.083-0.929-2.872-1-3.984-0.083
			c-0.901,0.745-1.834,2.223-3.2,4.146c-2.623-3.586-3.21-4.794-5.152-4.794c-1.842,0-2.977,1.313-2.977,2.679
			c0,1.425,0.765,2.163,4.076,6.624c-3.587,5.141-4.498,6.161-4.498,7.446c0,1.375,1.233,2.726,3.008,2.726
			c1.983,0,2.546-1.221,5.545-5.521c2.67,3.924,3.416,5.521,5.52,5.521c0.809,0,1.508-0.249,2.079-0.74
			C151.547,101.414,149.393,99.296,145.662,93.95z"/>
	</g>
	<g>
		<path class="st0" d="M173.336,97.934h-5.939c3.449-3.419,11.402-7.511,8.565-14.576c-2.631-6.557-13.905-6.434-16.604,0.092
			c-2.265,5.481,2.74,6.792,4.47,4.683c0.999-1.221,0.85-1.98,1.42-2.987c1.792-2.746,6.121-0.942,4.512,2.528
			c-1.496,3.228-14.726,10.496-10.06,15.104c0.64,0.633,1.505,0.953,2.57,0.953c12.293,0,12.729,0.284,13.821-0.857
			c0.523-0.547,0.799-1.248,0.799-2.026C176.891,99.256,175.727,97.934,173.336,97.934z"/>
	</g>
	<g>
		<path class="st0" d="M188.438,91.799h11.957c4.104,0,4.098-6.203,0-6.203h-11.957c-1.713,0-3.102,1.389-3.102,3.102
			C185.337,90.41,186.724,91.799,188.438,91.799z"/>
	</g>
	<g>
		<path class="st0" d="M188.438,100.851h11.957c4.104,0,4.098-6.203,0-6.203h-11.957c-1.713,0-3.102,1.389-3.102,3.102
			C185.337,99.461,186.724,100.851,188.438,100.851z"/>
	</g>
	<g>
		<path class="st0" d="M227.959,93.231V82.162c0-2.399-1.25-3.775-3.43-3.775c-2.153,0-1.979,0.68-12.314,14.366
			c-2.43,3.245-0.479,6.079,2.924,6.079h6.805c0,1.256-0.465,5.29,3.008,5.29c3.413,0,3.008-3.685,3.008-5.291
			c0.976-0.012,1.725-0.21,2.289-0.603C231.727,97.197,232.272,93.408,227.959,93.231z M218.352,93.223l3.592-4.853v4.853H218.352z"
			/>
	</g>
	<g>
		<path class="st1" d="M239.847,173.433H26.973c-5.295,0-9.603-4.308-9.603-9.603V26.395c0-5.295,4.308-9.603,9.603-9.603h212.875
			c5.295,0,9.603,4.308,9.603,9.603v137.436C249.45,169.125,245.142,173.433,239.847,173.433z M26.973,20.792
			c-3.089,0-5.603,2.513-5.603,5.603v137.436c0,3.089,2.514,5.603,5.603,5.603h212.875c3.089,0,5.603-2.513,5.603-5.603V26.395
			c0-3.089-2.514-5.603-5.603-5.603H26.973z"/>
	</g>
	<g>
		<path class="st1" d="M235.219,164.612H31.601c-2.699,0-4.894-2.195-4.894-4.894V30.507c0-2.699,2.195-4.895,4.894-4.895h203.619
			c2.699,0,4.895,2.196,4.895,4.895v129.211C240.114,162.417,237.918,164.612,235.219,164.612z M31.601,29.612
			c-0.493,0-0.894,0.401-0.894,0.895v129.211c0,0.493,0.401,0.894,0.894,0.894h203.619c0.493,0,0.895-0.401,0.895-0.894V30.507
			c0-0.493-0.401-0.895-0.895-0.895H31.601z"/>
	</g>
	<g>
		<path class="st4" d="M238.114,171.433h-93.2v-16.576c0-2.099,1.702-3.801,3.801-3.801h85.597c2.099,0,3.801,1.702,3.801,3.801
			V171.433z"/>
	</g>
	<g>
		<path class="st1" d="M238.114,173.433h-93.2c-1.104,0-2-0.896-2-2v-16.576c0-3.199,2.603-5.801,5.802-5.801h85.597
			c3.199,0,5.802,2.603,5.802,5.801v16.576C240.114,172.538,239.218,173.433,238.114,173.433z M146.914,169.433h89.2v-14.576
			c0-0.993-0.808-1.801-1.802-1.801h-85.597c-0.994,0-1.802,0.808-1.802,1.801V169.433z"/>
	</g>
	<g>
		<path class="st7" d="M94.306,131.377v-3.474c0-20.306-16.611-36.767-37.101-36.767l0,0c-20.491,0-37.101,16.461-37.101,36.767
			v3.474c-6.442-0.131-11.554,5.001-11.554,11.205c0,6.624,5.783,11.864,12.534,11.151c3.829,16.267,18.543,28.386,36.121,28.386
			c17.58,0,32.293-12.121,36.121-28.386c6.741,0.713,12.534-4.517,12.534-11.151C105.86,136.375,100.745,131.246,94.306,131.377z"/>
	</g>
	<g>
		<path class="st4" d="M63.872,169.082L63.872,169.082c-3.414,3.442-10.01,3.36-13.344,0l0,0c-2.051-2.068-1.771-3.856-1.771-6.495
			h16.885C65.643,165.13,65.954,166.983,63.872,169.082z"/>
	</g>
	<g>
		<path class="st1" d="M76.468,154.184c-2.875,0-5.21-2.33-5.21-5.21v-5.558c0-2.878,2.333-5.21,5.21-5.21
			c2.875,0,5.21,2.33,5.21,5.21v5.558C81.679,151.851,79.346,154.184,76.468,154.184z"/>
	</g>
	<g>
		<path class="st1" d="M37.936,154.184L37.936,154.184c-2.878,0-5.21-2.333-5.21-5.21v-5.558c0-2.878,2.333-5.21,5.21-5.21h0
			c2.878,0,5.21,2.333,5.21,5.21v5.558C43.146,151.851,40.813,154.184,37.936,154.184z"/>
	</g>
	<g>
		<path class="st1" d="M57.205,184.119c-17.708,0-32.961-11.565-37.656-28.326c-3.18-0.078-6.25-1.28-8.625-3.418
			c-2.78-2.501-4.374-6.071-4.374-9.792c0-3.563,1.407-6.904,3.963-9.408c2.086-2.044,4.728-3.317,7.591-3.687v-1.584
			c0-21.376,17.541-38.767,39.102-38.767s39.101,17.391,39.101,38.767v1.584c2.863,0.37,5.504,1.643,7.591,3.688
			c2.556,2.504,3.963,5.845,3.963,9.408c0,3.722-1.594,7.291-4.373,9.792c-2.376,2.138-5.447,3.341-8.627,3.419
			C90.166,172.553,74.913,184.119,57.205,184.119z M21.085,151.733c0.918,0,1.731,0.63,1.945,1.542
			c3.721,15.806,17.774,26.844,34.175,26.844s30.454-11.039,34.174-26.844c0.231-0.98,1.155-1.641,2.157-1.531
			c2.7,0.287,5.28-0.547,7.275-2.344c1.938-1.743,3.048-4.228,3.048-6.818c0-2.479-0.981-4.805-2.762-6.551
			c-1.8-1.764-4.203-2.71-6.751-2.655c-0.537,0.021-1.056-0.194-1.44-0.571c-0.384-0.376-0.6-0.891-0.6-1.429v-3.474
			c0-19.17-15.746-34.767-35.101-34.767s-35.102,15.597-35.102,34.767v3.474c0,0.538-0.216,1.052-0.6,1.429
			c-0.384,0.376-0.907,0.589-1.44,0.571c-2.545-0.056-4.951,0.891-6.75,2.654c-1.782,1.746-2.763,4.072-2.763,6.551
			c0,2.59,1.111,5.075,3.05,6.819c1.995,1.796,4.575,2.626,7.274,2.343C20.944,151.736,21.015,151.733,21.085,151.733z"/>
	</g>
	<g>
		<path class="st2" d="M103.163,111.903c0-25.993-28.275-40.876-45.958-30.327c-17.361-10.357-45.958,3.978-45.958,30.327
			c0,19.39-0.133,19.554,0.449,22.933c2.097-2.175,5.07-3.527,8.408-3.46c0-5.399-0.001-2.909,0.018-4.076h35.273
			c9.774,0,17.698-7.924,17.698-17.698v-4.326c0,11.887,9.419,21.569,21.2,22.003c0.016,0.937,0.013-0.786,0.013,4.096
			c3.337-0.068,6.31,1.285,8.408,3.46C103.295,131.46,103.163,131.325,103.163,111.903z"/>
	</g>
	<g>
		<path class="st1" d="M37.934,162.434c-9.202,0-16.688-7.486-16.688-16.687c0-9.202,7.486-16.688,16.688-16.688
			c9.201,0,16.687,7.486,16.687,16.688C54.621,154.948,47.135,162.434,37.934,162.434z M37.934,133.06
			c-6.996,0-12.688,5.691-12.688,12.688c0,6.996,5.691,12.687,12.688,12.687c6.996,0,12.687-5.691,12.687-12.687
			C50.621,138.751,44.93,133.06,37.934,133.06z"/>
	</g>
	<g>
		<path class="st1" d="M76.467,162.434c-9.202,0-16.688-7.486-16.688-16.687c0-9.202,7.486-16.688,16.688-16.688
			s16.688,7.486,16.688,16.688C93.154,154.948,85.668,162.434,76.467,162.434z M76.467,133.06c-6.996,0-12.688,5.691-12.688,12.688
			c0,6.996,5.691,12.687,12.688,12.687s12.688-5.691,12.688-12.687C89.154,138.751,83.463,133.06,76.467,133.06z"/>
	</g>
	<g>
		<path class="st1" d="M63.205,147.754h-12c-1.104,0-2-0.896-2-2s0.896-2,2-2h12c1.104,0,2,0.896,2,2S64.31,147.754,63.205,147.754z
			"/>
	</g>
	<g>
		<path class="st1" d="M57.215,173.132C57.214,173.132,57.215,173.132,57.215,173.132c-3.039,0-5.864-1.091-7.751-2.995
			c-2.267-2.284-2.24-4.439-2.212-6.721c0.003-0.268,0.007-0.543,0.007-0.83c0-0.829,0.671-1.5,1.5-1.5h16.885
			c0.829,0,1.5,0.671,1.5,1.5c0,0.293,0.004,0.577,0.008,0.854c0.033,2.163,0.066,4.399-2.214,6.698l0,0
			C63.049,172.041,60.234,173.132,57.215,173.132z M50.245,164.087c-0.007,1.71,0.112,2.692,1.349,3.938
			c1.329,1.339,3.377,2.107,5.621,2.107c2.226,0,4.264-0.768,5.593-2.107l0,0c1.247-1.256,1.363-2.282,1.352-3.938H50.245z"/>
	</g>
	<g>
		<path class="st1" d="M102.714,136.837c-0.535,0-1.057-0.215-1.439-0.611c-1.824-1.891-4.26-2.897-6.928-2.849
			c-0.518,0.021-1.056-0.194-1.44-0.571c-0.384-0.376-0.6-0.891-0.6-1.429v-1.704c0-0.201,0-0.38,0-0.54
			c-8.08-0.931-14.868-5.8-18.46-12.631c-2.802,7.469-10.016,12.799-18.451,12.799H22.104c0,0.355,0,0.791,0,1.325v0.751
			c0,0.538-0.216,1.052-0.6,1.429c-0.384,0.376-0.907,0.589-1.44,0.571c-2.644-0.045-5.105,0.958-6.928,2.849
			c-0.523,0.543-1.307,0.746-2.028,0.523c-0.72-0.222-1.255-0.83-1.383-1.573c-0.503-2.927-0.502-3.575-0.486-14.39
			c0.004-2.404,0.008-5.318,0.008-8.882c0-12.994,6.798-24.612,18.185-31.078c9.851-5.593,21.14-6.151,29.774-1.545
			c8.639-4.613,19.891-4.082,29.676,1.475c11.448,6.5,18.282,18.145,18.282,31.148c0,3.563,0.004,6.476,0.008,8.879
			c0.016,10.818,0.017,11.466-0.486,14.393c-0.128,0.743-0.663,1.351-1.383,1.573C103.109,136.808,102.911,136.837,102.714,136.837z
			 M96.306,129.487c1.707,0.22,3.331,0.762,4.808,1.598c0.07-1.771,0.066-4.56,0.058-10.296c-0.004-2.405-0.008-5.321-0.008-8.886
			c0-11.545-6.078-21.89-16.258-27.67c-8.927-5.069-19.148-5.429-26.676-0.939c-0.631,0.376-1.418,0.376-2.049,0
			c-7.519-4.486-17.777-4.098-26.774,1.01c-10.119,5.746-16.16,16.064-16.16,27.6c0,3.566-0.004,6.482-0.008,8.888
			c-0.009,5.735-0.013,8.522,0.058,10.293c1.477-0.836,3.101-1.378,4.809-1.599c0.002-0.919,0.011-1.525,0.043-1.947l-0.032-0.002
			l0.006-0.269c0.018-1.092,0.908-1.967,2-1.967h35.273c8.656,0,15.698-7.042,15.698-15.698v-4.326c0-1.104,0.896-2,2-2s2,0.896,2,2
			c0,10.819,8.466,19.606,19.274,20.005c1.062,0.039,1.908,0.902,1.926,1.965l0.007,0.3
			C96.305,127.658,96.306,127.662,96.306,129.487z"/>
	</g>
</g>
</svg>
