<?xml version="1.0" encoding="utf-8"?>
<!-- Generator: Adobe Illustrator 22.1.0, SVG Export Plug-In . SVG Version: 6.00 Build 0)  -->
<svg version="1.1" id="Layer_1" xmlns="http://www.w3.org/2000/svg" xmlns:xlink="http://www.w3.org/1999/xlink" x="0px" y="0px"
	 viewBox="0 0 256 256" style="enable-background:new 0 0 256 256;" xml:space="preserve">
<style type="text/css">
	.st0{fill:#E0EBFC;}
	.st1{fill:#3762CC;}
	.st2{fill:#4671C6;}
	.st3{fill:#6BDDDD;}
	.st4{fill:#F9A7A7;}
	.st5{fill:#A4C9FF;}
	.st6{fill:#FFEA92;}
	.st7{fill:#F9CFCF;}
	.st8{fill:#FFE164;}
	.st9{fill:#FFDC85;}
	.st10{fill:#FFEA94;}
	.st11{fill:#B9BEFC;}
	.st12{fill:#EAA97D;}
</style>
<g>
	<g>
		<path class="st5" d="M212.953,216.598H72.766l0,0H46.411c-4.955,0-8.972,4.017-8.972,8.972l0,0v13.458
			c0,4.955,4.017,8.972,8.972,8.972h166.542c3.097,0,5.607-2.511,5.607-5.608c0-13.314,0-17.018,0-31.402
			C218.561,214.087,216.05,216.598,212.953,216.598z"/>
	</g>
	<g>
		<path class="st1" d="M212.953,250H46.411c-6.05,0-10.972-4.922-10.972-10.972V225.57c0-6.05,4.922-10.972,10.972-10.972h166.542
			c1.989,0,3.607-1.618,3.607-3.607c0-1.104,0.896-2,2-2s2,0.896,2,2v31.401C220.561,246.587,217.147,250,212.953,250z
			 M46.411,218.598c-3.844,0-6.972,3.128-6.972,6.972v13.458c0,3.844,3.128,6.972,6.972,6.972h166.542
			c1.989,0,3.607-1.619,3.607-3.608v-24.705c-1.074,0.581-2.303,0.911-3.607,0.911H46.411z"/>
	</g>
	<g>
		<path class="st0" d="M72.766,216.598H46.411c-4.955,0-8.972,4.017-8.972,8.972v4.486c0,4.955,4.017,8.972,8.972,8.972h162.617
			v-22.43H72.766z"/>
	</g>
	<g>
		<path class="st5" d="M212.953,216.598H72.766V8h140.187c3.097,0,5.607,2.511,5.607,5.607v197.383
			C218.561,214.088,216.05,216.598,212.953,216.598z"/>
	</g>
	<g>
		<path class="st2" d="M46.411,216.598h26.355V8H46.411c-4.955,0-8.972,4.017-8.972,8.972V225.57
			C37.439,220.615,41.456,216.598,46.411,216.598z"/>
	</g>
	<g>
		<path class="st1" d="M212.953,218.598H72.767c-1.104,0-2-0.896-2-2V8c0-1.104,0.896-2,2-2h140.187
			c4.194,0,7.607,3.413,7.607,7.607v197.383C220.561,215.186,217.147,218.598,212.953,218.598z M74.767,214.598h138.187
			c1.989,0,3.607-1.618,3.607-3.607V13.607c0-1.989-1.618-3.607-3.607-3.607H74.767V214.598z"/>
	</g>
	<g>
		<path class="st1" d="M37.439,227.57c-1.104,0-2-0.896-2-2V16.972C35.439,10.922,40.361,6,46.411,6h26.355c1.104,0,2,0.896,2,2
			v208.598c0,1.104-0.896,2-2,2H46.411c-3.844,0-6.972,3.128-6.972,6.972C39.439,226.675,38.544,227.57,37.439,227.57z M46.411,10
			c-3.844,0-6.972,3.128-6.972,6.972v200.132c1.896-1.565,4.326-2.506,6.972-2.506h24.355V10H46.411z"/>
	</g>
	<g>
		<path class="st4" d="M198.383,118.07h-106c-3.314,0-6-2.686-6-6v-73c0-3.314,2.686-6,6-6h106c3.314,0,6,2.686,6,6v73
			C204.383,115.384,201.697,118.07,198.383,118.07z"/>
	</g>
	<g>
		<path class="st4" d="M196.131,157.346H94.636c-3.716,0-6.729-3.013-6.729-6.729v0c0-3.716,3.013-6.729,6.729-6.729h101.495
			c3.716,0,6.729,3.013,6.729,6.729v0C202.86,154.333,199.847,157.346,196.131,157.346z"/>
	</g>
	<g>
		<path class="st7" d="M105.283,91.562V66.813c-4.605,3.536-7.706,5.303-9.301,5.303c-0.762,0-1.438-0.303-2.026-0.911
			c-0.59-0.607-0.884-1.31-0.884-2.108c0-0.925,0.289-1.605,0.87-2.04c0.58-0.435,1.604-0.997,3.073-1.686
			c2.193-1.033,3.947-2.121,5.263-3.264c1.314-1.142,2.479-2.421,3.494-3.835c1.016-1.414,1.678-2.285,1.985-2.611
			c0.309-0.326,0.889-0.49,1.741-0.49c0.961,0,1.731,0.372,2.312,1.115c0.58,0.744,0.87,1.768,0.87,3.073v31.141
			c0,3.644-1.242,5.467-3.726,5.467c-1.106,0-1.995-0.372-2.665-1.115C105.618,94.11,105.283,93.013,105.283,91.562z"/>
	</g>
	<g>
		<path class="st6" d="M138.279,89.522h14.197c1.414,0,2.493,0.29,3.236,0.87c0.743,0.581,1.115,1.369,1.115,2.366
			c0,0.889-0.295,1.641-0.884,2.257c-0.59,0.617-1.482,0.925-2.679,0.925h-20.018c-1.359,0-2.42-0.376-3.182-1.129
			c-0.762-0.752-1.143-1.636-1.143-2.652c0-0.653,0.245-1.518,0.734-2.597c0.489-1.078,1.024-1.926,1.604-2.543
			c2.411-2.502,4.587-4.646,6.527-6.432c1.94-1.786,3.327-2.96,4.161-3.522c1.486-1.051,2.724-2.108,3.713-3.168
			c0.987-1.061,1.74-2.149,2.257-3.264c0.517-1.115,0.775-2.207,0.775-3.277c0-1.16-0.276-2.198-0.83-3.114
			c-0.553-0.915-1.305-1.627-2.257-2.135c-0.952-0.507-1.99-0.761-3.114-0.761c-2.375,0-4.243,1.043-5.603,3.128
			c-0.182,0.272-0.485,1.016-0.911,2.23c-0.426,1.215-0.907,2.149-1.441,2.801c-0.535,0.653-1.319,0.979-2.353,0.979
			c-0.907,0-1.659-0.299-2.258-0.897c-0.598-0.598-0.897-1.414-0.897-2.448c0-1.251,0.281-2.557,0.844-3.916
			c0.562-1.36,1.4-2.593,2.516-3.699c1.115-1.106,2.529-1.999,4.242-2.679c1.714-0.68,3.722-1.02,6.024-1.02
			c2.774,0,5.141,0.435,7.099,1.305c1.269,0.58,2.384,1.378,3.345,2.393c0.961,1.016,1.709,2.189,2.244,3.522
			c0.534,1.333,0.803,2.715,0.803,4.147c0,2.249-0.558,4.293-1.673,6.133c-1.115,1.841-2.253,3.282-3.413,4.324
			c-1.161,1.043-3.105,2.679-5.834,4.909c-2.729,2.23-4.601,3.962-5.616,5.195C139.177,88.244,138.732,88.833,138.279,89.522z"/>
	</g>
	<g>
		<path class="st3" d="M181.489,71.191c1.668,0,3.104-0.49,4.311-1.469c1.205-0.979,1.809-2.384,1.809-4.216
			c0-1.396-0.48-2.597-1.441-3.604c-0.961-1.006-2.258-1.509-3.89-1.509c-1.105,0-2.017,0.154-2.733,0.462
			c-0.716,0.309-1.282,0.717-1.699,1.224c-0.417,0.508-0.812,1.161-1.184,1.958c-0.371,0.798-0.711,1.55-1.02,2.257
			c-0.182,0.381-0.508,0.68-0.979,0.897c-0.472,0.218-1.016,0.326-1.632,0.326c-0.725,0-1.392-0.295-1.999-0.884
			c-0.607-0.589-0.91-1.373-0.91-2.353c0-0.943,0.285-1.935,0.856-2.978c0.571-1.042,1.404-2.035,2.502-2.978
			c1.097-0.943,2.461-1.7,4.093-2.271c1.632-0.571,3.454-0.857,5.467-0.857c1.759,0,3.363,0.241,4.814,0.721
			c1.45,0.481,2.71,1.174,3.78,2.081c1.069,0.907,1.876,1.958,2.42,3.155s0.816,2.484,0.816,3.862c0,1.813-0.395,3.368-1.184,4.664
			c-0.788,1.297-1.917,2.561-3.386,3.794c1.414,0.761,2.606,1.632,3.576,2.611c0.97,0.979,1.7,2.063,2.189,3.25
			c0.489,1.188,0.734,2.471,0.734,3.848c0,1.65-0.331,3.246-0.992,4.787c-0.662,1.541-1.637,2.915-2.924,4.12
			c-1.288,1.206-2.815,2.149-4.583,2.828s-3.722,1.02-5.861,1.02c-2.176,0-4.125-0.39-5.847-1.169
			c-1.723-0.779-3.142-1.754-4.257-2.924s-1.958-2.38-2.529-3.631c-0.571-1.251-0.856-2.285-0.856-3.1
			c0-1.051,0.34-1.899,1.02-2.543c0.681-0.643,1.527-0.966,2.543-0.966c0.508,0,0.997,0.15,1.469,0.449
			c0.472,0.299,0.779,0.657,0.925,1.074c0.942,2.52,1.953,4.392,3.032,5.616s2.598,1.836,4.556,1.836c1.124,0,2.207-0.276,3.25-0.83
			c1.043-0.553,1.904-1.373,2.584-2.461s1.02-2.348,1.02-3.78c0-2.121-0.58-3.785-1.74-4.991c-1.16-1.206-2.774-1.809-4.841-1.809
			c-0.363,0-0.925,0.036-1.687,0.109c-0.762,0.073-1.251,0.109-1.469,0.109c-0.997,0-1.768-0.249-2.312-0.748
			c-0.544-0.498-0.816-1.192-0.816-2.081c0-0.87,0.327-1.573,0.979-2.108c0.652-0.535,1.622-0.802,2.91-0.802H181.489z"/>
	</g>
	<g>
		<path class="st4" d="M196.131,183.346H94.636c-3.716,0-6.729-3.013-6.729-6.729v0c0-3.716,3.013-6.729,6.729-6.729h101.495
			c3.716,0,6.729,3.013,6.729,6.729v0C202.86,180.333,199.847,183.346,196.131,183.346z"/>
	</g>
	<g>
		<path class="st11" d="M62,239.028v-22.43l-15.589,0c-4.955,0-8.972,4.017-8.972,8.972v4.486c0,4.955,4.017,8.972,8.972,8.972
			L62,239.028z"/>
	</g>
	<g>
		<path class="st1" d="M209.028,241.028H46.411c-6.05,0-10.972-4.922-10.972-10.972v-4.486c0-6.05,4.922-10.972,10.972-10.972
			h162.617c1.104,0,2,0.896,2,2v22.43C211.028,240.132,210.133,241.028,209.028,241.028z M46.411,218.598
			c-3.844,0-6.972,3.128-6.972,6.972v4.486c0,3.844,3.128,6.972,6.972,6.972h160.617v-18.43H46.411z"/>
	</g>
</g>
</svg>
