<?xml version="1.0" encoding="utf-8"?>
<!-- Generator: Adobe Illustrator 22.1.0, SVG Export Plug-In . SVG Version: 6.00 Build 0)  -->
<svg version="1.1" id="Layer_1" xmlns="http://www.w3.org/2000/svg" xmlns:xlink="http://www.w3.org/1999/xlink" x="0px" y="0px"
	 viewBox="0 0 256 256" style="enable-background:new 0 0 256 256;" xml:space="preserve">
<style type="text/css">
	.st0{fill:#E0EBFC;}
	.st1{fill:#3762CC;}
	.st2{fill:#4671C6;}
	.st3{fill:#6BDDDD;}
	.st4{fill:#F9A7A7;}
	.st5{fill:#A4C9FF;}
	.st6{fill:#FFEA92;}
	.st7{fill:#F9CFCF;}
	.st8{fill:#FFE164;}
	.st9{fill:#FFDC85;}
	.st10{fill:#FFEA94;}
	.st11{fill:#B9BEFC;}
	.st12{fill:#EAA97D;}
</style>
<g>
	<g>
		<path class="st7" d="M242.287,220.264H118.464l0,0H95.185c-4.377,0-7.925,3.548-7.925,7.925l0,0v11.887
			c0,4.377,3.548,7.925,7.925,7.925h147.102c2.735,0,4.953-2.218,4.953-4.953c0-11.76,0-15.031,0-27.736
			C247.24,218.046,245.022,220.264,242.287,220.264z"/>
	</g>
	<g>
		<path class="st1" d="M242.287,250H95.185c-5.473,0-9.925-4.452-9.925-9.925v-11.887c0-5.473,4.452-9.925,9.925-9.925h147.103
			c1.628,0,2.953-1.325,2.953-2.953c0-1.104,0.896-2,2-2s2,0.896,2,2v27.736C249.24,246.881,246.121,250,242.287,250z
			 M95.185,222.264c-3.267,0-5.925,2.658-5.925,5.925v11.887c0,3.267,2.658,5.925,5.925,5.925h147.103
			c1.628,0,2.953-1.325,2.953-2.953v-21.442c-0.896,0.423-1.898,0.659-2.953,0.659H95.185z"/>
	</g>
	<g>
		<path class="st0" d="M118.464,220.264H95.185c-4.377,0-7.925,3.548-7.925,7.925v3.962c0,4.377,3.548,7.925,7.925,7.925H238.82
			v-19.812H118.464z"/>
	</g>
	<g>
		<path class="st5" d="M97.667,220.264h-2.482c-4.377,0-7.925,3.548-7.925,7.925v3.962c0,4.377,3.548,7.925,7.925,7.925h2.482
			V220.264z"/>
	</g>
	<g>
		<path class="st1" d="M238.82,242.075H95.185c-5.473,0-9.925-4.452-9.925-9.925v-3.962c0-5.473,4.452-9.925,9.925-9.925H238.82
			c1.104,0,2,0.896,2,2v19.812C240.82,241.18,239.925,242.075,238.82,242.075z M95.185,222.264c-3.267,0-5.925,2.658-5.925,5.925
			v3.962c0,3.267,2.658,5.925,5.925,5.925H236.82v-15.812H95.185z"/>
	</g>
	<g>
		<path class="st0" d="M167.415,220.264H15.615c-4.263,0-7.719-3.456-7.719-7.719V15.719C7.896,11.456,11.352,8,15.615,8h151.801
			c4.263,0,7.719,3.456,7.719,7.719v196.826C175.134,216.808,171.678,220.264,167.415,220.264z"/>
	</g>
	<g>
		<path class="st1" d="M167.415,222.264h-151.8c-5.359,0-9.719-4.359-9.719-9.719V15.719C5.896,10.359,10.256,6,15.615,6h151.8
			c5.359,0,9.719,4.359,9.719,9.719v196.826C177.134,217.904,172.774,222.264,167.415,222.264z M15.615,10
			c-3.153,0-5.719,2.565-5.719,5.719v196.826c0,3.153,2.565,5.719,5.719,5.719h151.8c3.153,0,5.719-2.565,5.719-5.719V15.719
			c0-3.153-2.565-5.719-5.719-5.719H15.615z"/>
	</g>
	<g>
		<path class="st5" d="M152.807,96.089H30.223c-2.829,0-5.123-2.294-5.123-5.123v0c0-2.829,2.294-5.123,5.123-5.123h122.584
			c2.829,0,5.123,2.294,5.123,5.123v0C157.93,93.795,155.636,96.089,152.807,96.089z"/>
	</g>
	<g>
		<path class="st5" d="M152.807,137.127H30.223c-2.829,0-5.123-2.294-5.123-5.123v0c0-2.829,2.294-5.123,5.123-5.123h122.584
			c2.829,0,5.123,2.294,5.123,5.123v0C157.93,134.833,155.636,137.127,152.807,137.127z"/>
	</g>
	<g>
		<path class="st5" d="M84.093,36.763H29.648c-2.512,0-4.548-2.036-4.548-4.548v0c0-2.512,2.036-4.548,4.548-4.548h54.445
			c2.512,0,4.548,2.036,4.548,4.548v0C88.641,34.726,86.605,36.763,84.093,36.763z"/>
	</g>
	<g>
		<path class="st5" d="M84.093,56.47H29.648c-2.512,0-4.548-2.036-4.548-4.548v0c0-2.512,2.036-4.548,4.548-4.548h54.445
			c2.512,0,4.548,2.036,4.548,4.548v0C88.641,54.434,86.605,56.47,84.093,56.47z"/>
	</g>
	<g>
		<path class="st5" d="M152.807,117.102H30.223c-2.829,0-5.123-2.294-5.123-5.123v0c0-2.829,2.294-5.123,5.123-5.123h122.584
			c2.829,0,5.123,2.294,5.123,5.123v0C157.93,114.808,155.636,117.102,152.807,117.102z"/>
	</g>
	<g>
		<path class="st5" d="M152.807,157.804H30.223c-2.829,0-5.123-2.294-5.123-5.123v0c0-2.829,2.294-5.123,5.123-5.123h122.584
			c2.829,0,5.123,2.294,5.123,5.123v0C157.93,155.51,155.636,157.804,152.807,157.804z"/>
	</g>
	<g>
		<path class="st5" d="M152.807,178.48H30.223c-2.829,0-5.123-2.294-5.123-5.123v0c0-2.829,2.294-5.123,5.123-5.123h122.584
			c2.829,0,5.123,2.294,5.123,5.123v0C157.93,176.187,155.636,178.48,152.807,178.48z"/>
	</g>
	<g>
		<path class="st4" d="M242.287,220.264H118.464V36.014h123.823c2.735,0,4.953,2.218,4.953,4.953v174.343
			C247.24,218.046,245.022,220.264,242.287,220.264z"/>
	</g>
	<g>
		<path class="st2" d="M95.185,220.264h23.279V36.014H95.185c-4.377,0-7.925,3.548-7.925,7.925v184.249
			C87.26,223.811,90.808,220.264,95.185,220.264z"/>
	</g>
	<g>
		<path class="st7" d="M227.428,142.007H137.78c-3.283,0-5.944-2.661-5.944-5.944V55.331c0-3.283,2.661-5.944,5.944-5.944h89.648
			c3.283,0,5.944,2.661,5.944,5.944v80.733C233.372,139.346,230.711,142.007,227.428,142.007z"/>
	</g>
	<g>
		<path class="st6" d="M223.638,115.562c0-6.846,0-15.989,0-24l-2.574,0.989c0,6.239,0,21.098,0,23.011
			c-0.916,0.469-1.544,1.421-1.544,2.52v6.777h5.662v-6.777C225.182,116.982,224.553,116.031,223.638,115.562z"/>
	</g>
	<g>
		<path class="st2" d="M179.996,72.992L140.64,88.111c-1.468,0.564-1.468,2.641,0,3.205l39.357,15.119
			c1.585,0.609,3.34,0.609,4.925,0l39.357-15.119c1.468-0.564,1.468-2.641,0-3.205l-39.357-15.119
			C183.336,72.383,181.581,72.383,179.996,72.992z"/>
	</g>
	<g>
		<path class="st1" d="M182.458,108.893c-1.077,0-2.153-0.196-3.179-0.59l-39.356-15.119c-1.449-0.558-2.385-1.92-2.384-3.472
			c0-1.551,0.936-2.912,2.384-3.468l39.356-15.119c2.048-0.787,4.308-0.787,6.359,0l39.355,15.119
			c1.448,0.556,2.385,1.917,2.385,3.468c0,1.552-0.936,2.915-2.384,3.472l-39.357,15.119
			C184.613,108.696,183.535,108.893,182.458,108.893z M142.045,89.714l38.668,14.854c1.126,0.432,2.367,0.432,3.491,0l38.668-14.854
			l-38.668-14.854c-1.126-0.433-2.364-0.435-3.49,0c0,0,0,0-0.001,0L142.045,89.714z M179.996,72.992h0.01H179.996z"/>
	</g>
	<g>
		<path class="st2" d="M207.928,91.893h-50.775c-0.464,0-0.841,0.376-0.841,0.841v12.536l0,0c0,2.767,11.743,5.01,26.228,5.01
			s26.228-2.243,26.228-5.01h0.001V92.733C208.768,92.269,208.392,91.893,207.928,91.893z"/>
	</g>
	<g>
		<path class="st1" d="M182.54,112.28c-6.622,0-28.228-0.506-28.228-7.011V92.733c0-1.566,1.274-2.841,2.841-2.841h50.774
			c1.566,0,2.841,1.274,2.841,2.841v12.536C210.767,111.774,189.161,112.28,182.54,112.28z M158.313,104.917
			c1.457,1.214,9.776,3.363,24.228,3.363s22.771-2.149,24.228-3.363l0.001-11.024h-48.456V104.917z M207.928,93.893h0.01H207.928z"
			/>
	</g>
	<g>
		<path class="st7" d="M227.428,167.928H137.78c-3.283,0-5.944-2.661-5.944-5.944v0c0-3.283,2.661-5.944,5.944-5.944h89.648
			c3.283,0,5.944,2.661,5.944,5.944v0C233.372,165.266,230.711,167.928,227.428,167.928z"/>
	</g>
	<g>
		<path class="st7" d="M217.275,190.711h-69.341c-2.735,0-4.953-2.217-4.953-4.953v0c0-2.735,2.217-4.953,4.953-4.953h69.341
			c2.735,0,4.953,2.217,4.953,4.953v0C222.228,188.494,220.01,190.711,217.275,190.711z"/>
	</g>
	<g>
		<path class="st7" d="M52.847,171.66V71.625L39.984,52.979c-0.441-0.639-1.58-0.639-2.021,0L25.1,71.626l0,100.034H52.847z"/>
	</g>
	<g>
		<path class="st3" d="M32.231,171.66V75.663c-2.493,0-4.523-4.37-7.131-3.992v99.989H32.231z"/>
	</g>
	<g>
		<path class="st3" d="M45.716,171.66V75.663c-1.313,0-1.686-0.66-5.319-3.569c-2.716-2.174-5.461,3.569-8.166,3.569v95.997H45.716z
			"/>
	</g>
	<g>
		<path class="st3" d="M52.847,171.66V71.671c-2.608-0.379-4.638,3.992-7.131,3.992v95.997H52.847z"/>
	</g>
	<g>
		<rect x="25.1" y="171.66" class="st0" width="27.746" height="10.575"/>
	</g>
	<g>
		<path class="st4" d="M46.921,203.5H31.026c-3.273,0-5.926-2.653-5.926-5.926v-15.339h27.746v15.339
			C52.847,200.847,50.194,203.5,46.921,203.5z"/>
	</g>
	<g>
		<path class="st1" d="M52.847,184.235H25.101c-1.104,0-2-0.896-2-2V171.66c0-1.104,0.896-2,2-2h27.746c1.104,0,2,0.896,2,2v10.575
			C54.847,183.34,53.951,184.235,52.847,184.235z M27.101,180.235h23.746v-6.575H27.101V180.235z"/>
	</g>
	<g>
		<path class="st1" d="M46.921,205.5H31.025c-4.37,0-7.925-3.556-7.925-7.926v-15.339c0-1.104,0.896-2,2-2h27.746
			c1.104,0,2,0.896,2,2v15.339C54.847,201.944,51.291,205.5,46.921,205.5z M27.101,184.235v13.339c0,2.165,1.761,3.926,3.925,3.926
			h15.896c2.165,0,3.926-1.761,3.926-3.926v-13.339H27.101z"/>
	</g>
	<g>
		<path class="st2" d="M47.435,63.781l-7.451-10.802c-0.441-0.639-1.58-0.639-2.021,0l-7.451,10.802H47.435z"/>
	</g>
	<g>
		<path class="st1" d="M52.847,173.66H25.101c-1.104,0-2-0.896-2-2V71.626c0-0.405,0.123-0.802,0.354-1.136l12.862-18.646
			c0.579-0.841,1.572-1.344,2.655-1.344c0,0,0.001,0,0.002,0c1.083,0,2.076,0.502,2.657,1.344l12.862,18.646
			c0.23,0.334,0.354,0.73,0.354,1.136V171.66C54.847,172.765,53.951,173.66,52.847,173.66z M27.101,169.66h23.746V72.248
			L38.974,55.036L27.101,72.249V169.66z"/>
	</g>
	<g>
		<path class="st1" d="M242.287,222.264H118.464c-1.104,0-2-0.896-2-2V36.015c0-1.104,0.896-2,2-2h123.823
			c3.834,0,6.953,3.119,6.953,6.952v174.344C249.24,219.145,246.121,222.264,242.287,222.264z M120.464,218.264h121.823
			c1.628,0,2.953-1.325,2.953-2.953V40.967c0-1.628-1.325-2.952-2.953-2.952H120.464V218.264z"/>
	</g>
	<g>
		<path class="st1" d="M87.26,230.188c-1.104,0-2-0.896-2-2V43.939c0-5.473,4.452-9.925,9.925-9.925h23.279c1.104,0,2,0.896,2,2
			v184.249c0,1.104-0.896,2-2,2H95.185c-3.267,0-5.925,2.658-5.925,5.925C89.26,229.293,88.364,230.188,87.26,230.188z
			 M95.185,38.015c-3.267,0-5.925,2.658-5.925,5.925V220.23c1.654-1.234,3.706-1.967,5.925-1.967h21.279V38.015H95.185z"/>
	</g>
</g>
</svg>
