<?xml version="1.0" encoding="utf-8"?>
<!-- Generator: Adobe Illustrator 22.1.0, SVG Export Plug-In . SVG Version: 6.00 Build 0)  -->
<svg version="1.1" id="Layer_1" xmlns="http://www.w3.org/2000/svg" xmlns:xlink="http://www.w3.org/1999/xlink" x="0px" y="0px"
	 viewBox="0 0 256 256" style="enable-background:new 0 0 256 256;" xml:space="preserve">
<style type="text/css">
	.st0{fill:#E0EBFC;}
	.st1{fill:#3762CC;}
	.st2{fill:#4671C6;}
	.st3{fill:#6BDDDD;}
	.st4{fill:#F9A7A7;}
	.st5{fill:#A4C9FF;}
	.st6{fill:#FFEA92;}
	.st7{fill:#F9CFCF;}
	.st8{fill:#FFE164;}
	.st9{fill:#FFDC85;}
	.st10{fill:#FFEA94;}
	.st11{fill:#B9BEFC;}
	.st12{fill:#EAA97D;}
</style>
<g>
	<g>
		<path class="st2" d="M54.586,93.512v-5.153c0-0.295,0.018-0.586,0.022-0.88c-6.69-2.432-12.582-6.529-17.159-11.804v7.629
			c0,5.898,1.309,11.487,3.639,16.506C44.209,95.905,49.062,93.4,54.586,93.512z"/>
	</g>
	<g>
		<path class="st2" d="M162.566,73.524c2.347,8.242,2.078,13.925,2.078,19.988c4.936-0.1,9.336,1.894,12.446,5.105
			c4.702-8.387,7.251-18.144,7.251-29.348c0-10.847-5.853-20.321-14.569-25.453c0.298,2.02,0.457,4.084,0.457,6.186
			C170.229,58.798,167.382,66.925,162.566,73.524z"/>
	</g>
	<g>
		<path class="st1" d="M41.088,101.81c-0.079,0-0.159-0.005-0.239-0.015c-0.688-0.083-1.283-0.515-1.575-1.144
			c-2.538-5.468-3.825-11.304-3.825-17.348v-7.629c0-0.835,0.519-1.582,1.3-1.874c0.783-0.292,1.663-0.067,2.21,0.563
			c4.393,5.063,10.04,8.948,16.331,11.234c0.802,0.292,1.331,1.06,1.316,1.913l-0.011,0.405c-0.005,0.146-0.011,0.294-0.011,0.441
			v5.153c0,0.537-0.216,1.053-0.6,1.429c-0.384,0.375-0.911,0.584-1.44,0.571c-4.68-0.13-9,1.926-11.895,5.547
			C42.269,101.536,41.692,101.81,41.088,101.81z M39.449,80.586v2.718c0,4.454,0.774,8.784,2.305,12.909
			c3.007-2.67,6.778-4.289,10.832-4.635v-2.732C47.75,86.904,43.292,84.096,39.449,80.586z"/>
	</g>
	<g>
		<path class="st1" d="M177.09,100.617c-0.538,0-1.058-0.217-1.437-0.608c-2.892-2.986-6.785-4.605-10.969-4.497
			c-0.52,0.017-1.056-0.196-1.44-0.571c-0.384-0.376-0.6-0.892-0.6-1.429l0.005-1.699c0.022-5.421,0.044-10.542-2.006-17.741
			c-0.169-0.593-0.055-1.229,0.308-1.727c4.762-6.524,7.278-14.25,7.278-22.343c0-1.954-0.146-3.937-0.435-5.895
			c-0.112-0.762,0.223-1.521,0.862-1.951c0.639-0.43,1.468-0.454,2.132-0.064c9.594,5.65,15.554,16.063,15.554,27.177
			c0,11.239-2.525,21.442-7.506,30.327c-0.309,0.551-0.86,0.924-1.487,1.005C177.262,100.611,177.176,100.617,177.09,100.617z
			 M166.65,91.577c3.626,0.308,7.019,1.632,9.869,3.847c3.865-7.752,5.823-16.537,5.823-26.155c0-8.303-3.812-16.159-10.163-21.346
			c0.033,0.695,0.05,1.389,0.05,2.079c0,8.62-2.583,16.864-7.481,23.906C166.662,81.063,166.671,86.416,166.65,91.577z"/>
	</g>
	<g>
		<path class="st5" d="M178.31,243.492H40.92v-39.538c0-16.26,13.181-29.441,29.441-29.441h78.508
			c16.26,0,29.441,13.181,29.441,29.441V243.492z"/>
	</g>
	<g>
		<path class="st7" d="M109.615,168.773c-9.234,0-17.929-2.263-25.569-6.248v11.989v0.003c0,14.108,11.436,25.544,25.544,25.544h0
			c14.108,0,25.544-11.436,25.544-25.544v-0.003v-11.962C127.507,166.519,118.829,168.773,109.615,168.773z"/>
	</g>
	<g>
		<path class="st1" d="M178.31,245.492H40.92c-1.104,0-2-0.896-2-2v-39.537c0-17.337,14.104-31.441,31.44-31.441h11.686v-9.988
			c0-0.699,0.365-1.348,0.963-1.71c0.598-0.364,1.342-0.387,1.962-0.063c7.553,3.939,16.075,6.021,24.644,6.021
			c8.673,0,16.948-2.018,24.597-5.996c0.619-0.322,1.363-0.297,1.96,0.064c0.598,0.363,0.962,1.011,0.962,1.71v9.962h11.735
			c17.336,0,31.44,14.104,31.44,31.441v39.537C180.31,244.597,179.414,245.492,178.31,245.492z M42.92,241.492h133.39v-37.537
			c0-15.131-12.31-27.441-27.44-27.441h-13.735c-1.104,0-2-0.896-2-2v-8.773c-7.352,3.301-15.418,5.033-23.52,5.033
			c-8.121,0-16.204-1.74-23.569-5.056v8.796c0,1.104-0.896,2-2,2H70.36c-15.131,0-27.44,12.311-27.44,27.441V241.492z"/>
	</g>
	<g>
		<path class="st7" d="M164.644,93.512v-5.153c0-30.118-24.637-54.534-55.029-54.534l0,0c-30.392,0-55.029,24.416-55.029,54.534
			v5.153c-9.555-0.194-17.136,7.418-17.136,16.62c0,9.825,8.578,17.597,18.59,16.539c5.679,24.127,27.503,42.103,53.576,42.103
			c26.074,0,47.897-17.977,53.576-42.103c9.999,1.057,18.59-6.7,18.59-16.539C181.781,100.926,174.194,93.318,164.644,93.512z"/>
	</g>
	<g>
		<path class="st1" d="M109.631,144.553C109.631,144.553,109.631,144.553,109.631,144.553c-3.904,0-7.535-1.403-9.96-3.849
			c-1.832-1.847-2.84-4.174-2.84-6.552c0-1.104,0.896-2,2-2s2,0.896,2,2c0,1.335,0.581,2.627,1.68,3.735
			c1.655,1.668,4.317,2.665,7.12,2.665c2.816,0,5.395-0.972,7.075-2.665c1.1-1.108,1.681-2.4,1.681-3.735c0-1.104,0.896-2,2-2
			s2,0.896,2,2c0,2.378-1.009,4.705-2.841,6.552C117.119,143.149,113.505,144.553,109.631,144.553z"/>
	</g>
	<g>
		<path class="st1" d="M138.184,122.649L138.184,122.649c-4.268,0-7.728-3.46-7.728-7.728v-8.243c0-4.268,3.46-7.728,7.728-7.728h0
			c4.268,0,7.728,3.46,7.728,7.728v8.243C145.912,119.189,142.452,122.649,138.184,122.649z"/>
	</g>
	<g>
		<path class="st1" d="M81.032,122.649L81.032,122.649c-4.268,0-7.728-3.46-7.728-7.728v-8.243c0-4.268,3.46-7.728,7.728-7.728h0
			c4.268,0,7.728,3.46,7.728,7.728v8.243C88.76,119.189,85.3,122.649,81.032,122.649z"/>
	</g>
	<g>
		<path class="st1" d="M109.615,170.772c-26.073,0-48.497-17.19-55.112-42.01c-4.762,0.066-9.357-1.65-12.886-4.825
			c-3.919-3.527-6.167-8.559-6.167-13.806c0-5.023,1.985-9.734,5.588-13.266c3.145-3.081,7.187-4.92,11.548-5.289v-3.218
			c0-31.173,25.583-56.534,57.029-56.534s57.029,25.361,57.029,56.534v3.218c4.361,0.369,8.403,2.208,11.548,5.29
			c3.604,3.531,5.588,8.242,5.588,13.265c0,5.247-2.248,10.278-6.166,13.805c-3.53,3.177-8.151,4.883-12.887,4.826
			C158.112,153.582,135.688,170.772,109.615,170.772z M56.041,124.67c0.918,0,1.731,0.631,1.945,1.542
			c5.621,23.881,26.852,40.561,51.629,40.561s46.008-16.68,51.629-40.561c0.231-0.979,1.154-1.619,2.157-1.531
			c4.214,0.444,8.417-0.908,11.538-3.718c3.077-2.769,4.842-6.717,4.842-10.831c0-3.938-1.558-7.635-4.388-10.407
			c-2.857-2.8-6.662-4.313-10.708-4.213c-0.52,0.017-1.056-0.196-1.44-0.571c-0.384-0.376-0.6-0.892-0.6-1.429v-5.152
			c0-28.968-23.789-52.534-53.029-52.534S56.585,59.392,56.585,88.359v5.152c0,0.537-0.216,1.053-0.6,1.429
			c-0.384,0.375-0.911,0.584-1.44,0.571c-4.044-0.107-7.852,1.413-10.708,4.212c-2.83,2.772-4.388,6.469-4.388,10.408
			c0,4.114,1.765,8.063,4.843,10.832c3.12,2.808,7.329,4.161,11.536,3.717C55.9,124.674,55.971,124.67,56.041,124.67z"/>
	</g>
	<g>
		<path class="st2" d="M61.191,23.233c-7.867,9.755-18.433,16.137-30.185,17.247c-2.1,0.198-3.683,2.002-3.683,4.111v3.971
			c0,22.867,18.537,41.404,41.404,41.404h61.537c22.072,0,39.965-17.893,39.965-39.965v0c0-23.215-18.82-42.035-42.035-42.035
			l-34.9,0C80.841,7.967,69.008,13.54,61.191,23.233z"/>
	</g>
	<g>
		<path class="st1" d="M130.264,91.967H68.727c-23.933,0-43.404-19.471-43.404-43.404v-3.971c0-3.184,2.363-5.807,5.496-6.103
			c10.821-1.022,21.055-6.886,28.816-16.512c0,0,0,0,0,0C67.84,11.803,80.108,5.967,93.294,5.967h34.9
			c24.281,0,44.035,19.754,44.035,44.035C172.229,73.142,153.403,91.967,130.264,91.967z M62.749,24.489
			c-8.444,10.472-19.65,16.857-31.554,17.982c-1.049,0.099-1.872,1.03-1.872,2.12v3.971c0,21.728,17.677,39.404,39.404,39.404
			h61.537c20.934,0,37.965-17.031,37.965-37.965c0-22.075-17.959-40.035-40.035-40.035h-34.9
			C81.324,9.967,70.19,15.26,62.749,24.489L62.749,24.489z"/>
	</g>
	<g>
		<path class="st0" d="M105.216,243.492h22.48l37.114-64.284c1.103-1.91,0.448-4.352-1.462-5.455l-9.943-5.741
			c-1.91-1.103-4.352-0.448-5.455,1.462L105.216,243.492z"/>
	</g>
	<g>
		<path class="st1" d="M127.695,245.492h-22.479c-0.714,0-1.375-0.381-1.732-1c-0.357-0.619-0.357-1.381,0-2l42.734-74.019
			c0.8-1.387,2.092-2.378,3.639-2.793c1.544-0.413,3.161-0.202,4.548,0.599l9.943,5.741c1.386,0.801,2.378,2.093,2.792,3.64
			c0.415,1.546,0.202,3.161-0.599,4.548l-37.115,64.284C129.07,245.111,128.41,245.492,127.695,245.492z M108.68,241.492h17.861
			l36.538-63.284c0.266-0.461,0.337-0.998,0.199-1.513c-0.138-0.515-0.467-0.944-0.929-1.21l-9.943-5.741
			c-0.461-0.267-0.998-0.336-1.513-0.199c-0.514,0.138-0.944,0.468-1.21,0.929L108.68,241.492z"/>
	</g>
	<g>
		<path class="st2" d="M122.661,243.492H64.34v-74.719h54.356c2.19,0,3.965,1.775,3.965,3.965V243.492z"/>
	</g>
	<g>
		<path class="st4" d="M64.34,243.492h-9.72v-70.754c0-2.19,1.775-3.965,3.965-3.965h5.755V243.492z"/>
	</g>
	<g>
		<path class="st0" d="M112.603,196.22H74.398c-1.133,0-2.052-0.919-2.052-2.052V182.03c0-1.133,0.919-2.052,2.052-2.052h38.205
			c1.133,0,2.052,0.919,2.052,2.052v12.138C114.655,195.301,113.736,196.22,112.603,196.22z"/>
	</g>
	<g>
		<path class="st1" d="M122.661,245.492H64.34c-1.104,0-2-0.896-2-2v-74.72c0-1.104,0.896-2,2-2h54.355
			c3.289,0,5.965,2.676,5.965,5.966v70.754C124.661,244.597,123.765,245.492,122.661,245.492z M66.34,241.492h54.32v-68.754
			c0-1.084-0.881-1.966-1.965-1.966H66.34V241.492z"/>
	</g>
	<g>
		<path class="st1" d="M64.34,245.492h-9.72c-1.104,0-2-0.896-2-2v-70.754c0-3.29,2.676-5.966,5.965-5.966h5.755
			c1.104,0,2,0.896,2,2v74.72C66.34,244.597,65.445,245.492,64.34,245.492z M56.62,241.492h5.72v-70.72h-3.755
			c-1.083,0-1.965,0.882-1.965,1.966V241.492z"/>
	</g>
	<g>
		<path class="st7" d="M139.549,239.548v-26.451c0-1.452-0.786-2.789-2.055-3.495l-6.715-3.737
			c-1.487-0.828-3.161-1.262-4.863-1.262h-13.03c-5.106,0-10.128,1.303-14.589,3.786l-0.003,0.002
			c-0.869,0.484-1.855,0.717-2.848,0.673l-62.354-2.718c-9.041-0.395-17.22,5.334-19.94,13.966h0c-1.232,3.91-1.232,8.105,0,12.015
			h0c2.719,8.632,10.898,14.36,19.94,13.966l62.358-2.719c0.993-0.043,1.979,0.19,2.848,0.673h0
			c4.462,2.483,9.483,3.786,14.589,3.786h13.098c1.713,0,3.398-0.44,4.892-1.278l6.63-3.719
			C138.767,242.329,139.549,240.995,139.549,239.548z"/>
	</g>
	<g>
		<path class="st1" d="M125.984,250.033h-13.098c-5.434,0-10.815-1.396-15.562-4.039c-0.546-0.303-1.165-0.45-1.789-0.423
			l-62.357,2.72c-9.914,0.436-18.948-5.886-21.934-15.364c-1.362-4.323-1.362-8.893,0-13.216
			c2.986-9.479,12.02-15.776,21.935-15.363l62.354,2.718c0.62,0.024,1.243-0.118,1.789-0.423c4.75-2.644,10.131-4.04,15.565-4.04
			h13.03c2.039,0,4.057,0.523,5.836,1.515l6.714,3.737c1.901,1.058,3.082,3.066,3.082,5.242v26.451c0,2.168-1.174,4.174-3.065,5.233
			l-6.629,3.718C130.064,249.503,128.035,250.033,125.984,250.033z M95.681,241.568c1.255,0,2.489,0.319,3.588,0.931
			c4.153,2.313,8.862,3.534,13.617,3.534h13.098c1.367,0,2.72-0.354,3.914-1.022l6.629-3.719c0.63-0.354,1.021-1.021,1.021-1.744
			v-26.451c0-0.726-0.394-1.395-1.027-1.748l-6.715-3.736c-1.186-0.661-2.531-1.01-3.89-1.01h-13.03
			c-4.755,0-9.463,1.222-13.617,3.533c-1.198,0.666-2.542,0.986-3.913,0.926l-62.353-2.718c-8.111-0.352-15.502,4.813-17.945,12.568
			c-1.114,3.537-1.114,7.276,0,10.813c2.443,7.754,9.835,12.924,17.945,12.569l62.358-2.72
			C95.468,241.57,95.575,241.568,95.681,241.568z"/>
	</g>
	<g>
		<circle class="st3" cx="193.773" cy="186.051" r="50"/>
	</g>
	<g>
		<path class="st6" d="M193.773,223.139c-20.45,0-37.089-16.638-37.089-37.088s16.638-37.088,37.089-37.088
			s37.087,16.637,37.087,37.088S214.223,223.139,193.773,223.139z"/>
	</g>
	<g>
		<path class="st1" d="M193.773,238.051c-28.673,0-52-23.327-52-52s23.327-52,52-52s52,23.327,52,52
			S222.446,238.051,193.773,238.051z M193.773,138.051c-26.467,0-48,21.532-48,48s21.533,48,48,48s48-21.532,48-48
			S220.24,138.051,193.773,138.051z"/>
	</g>
	<g>
		<path class="st2" d="M218.277,184.17c-1.657,0-3,1.343-3,3v7.733c0,0.551-0.448,1-1,1H181.73v-4.957
			c0-0.855-0.933-1.383-1.666-0.943l-13.262,7.957c-0.712,0.427-0.712,1.459,0,1.886l13.262,7.957
			c0.733,0.44,1.666-0.088,1.666-0.943v-4.957h32.547c3.859,0,7-3.14,7-7v-7.733C221.277,185.514,219.934,184.17,218.277,184.17z"/>
	</g>
	<g>
		<path class="st4" d="M220.743,172.619l-13.262-7.957c-0.733-0.44-1.666,0.088-1.666,0.943v4.957h-32.547c-3.859,0-7,3.14-7,7
			v7.733c0,1.657,1.343,3,3,3s3-1.343,3-3v-7.733c0-0.551,0.448-1,1-1h32.547v4.957c0,0.855,0.933,1.383,1.666,0.943l13.262-7.957
			C221.455,174.079,221.455,173.047,220.743,172.619z"/>
	</g>
</g>
</svg>
