<?xml version="1.0" encoding="utf-8"?>
<!-- Generator: Adobe Illustrator 22.1.0, SVG Export Plug-In . SVG Version: 6.00 Build 0)  -->
<svg version="1.1" id="Layer_1" xmlns="http://www.w3.org/2000/svg" xmlns:xlink="http://www.w3.org/1999/xlink" x="0px" y="0px"
	 viewBox="0 0 256 256" style="enable-background:new 0 0 256 256;" xml:space="preserve">
<style type="text/css">
	.st0{fill:#E0EBFC;}
	.st1{fill:#3762CC;}
	.st2{fill:#4671C6;}
	.st3{fill:#6BDDDD;}
	.st4{fill:#F9A7A7;}
	.st5{fill:#A4C9FF;}
	.st6{fill:#FFEA92;}
	.st7{fill:#F9CFCF;}
	.st8{fill:#FFE164;}
	.st9{fill:#FFDC85;}
	.st10{fill:#FFEA94;}
	.st11{fill:#B9BEFC;}
	.st12{fill:#EAA97D;}
</style>
<g>
	<g>
		<path class="st5" d="M243.839,241.701H107.358v-39.276c0-16.152,13.094-29.246,29.246-29.246h77.989
			c16.152,0,29.246,13.094,29.246,29.246V241.701z"/>
	</g>
	<g>
		<path class="st1" d="M243.839,243.701H107.357c-1.104,0-2-0.896-2-2v-39.276c0-17.229,14.017-31.246,31.246-31.246h77.99
			c17.229,0,31.245,14.017,31.245,31.246v39.276C245.839,242.806,244.943,243.701,243.839,243.701z M109.357,239.701h132.481
			v-37.276c0-15.023-12.222-27.246-27.245-27.246h-77.99c-15.023,0-27.246,12.223-27.246,27.246V239.701z"/>
	</g>
	<g>
		<path class="st0" d="M180.179,178.164l-4.592,8.588l-0.001-0.004l-4.592-8.588h-23.448v4.58c0,15.493,12.56,28.053,28.052,28.053
			h0c15.493,0,28.053-12.56,28.053-28.053v-4.576H180.179z"/>
	</g>
	<g>
		<path class="st7" d="M170.994,178.16L170.994,178.16l4.592,8.587l0.001,0.004l4.592-8.588h0.004l-0.004-0.004l20.795-9.266v-7.612
			c-7.583,3.949-16.212,6.193-25.375,6.193c-9.173,0-17.811-2.249-25.4-6.206v7.625L170.994,178.16z"/>
	</g>
	<g>
		<path class="st1" d="M175.588,188.751c-0.082,0-0.164-0.005-0.246-0.015c-0.678-0.084-1.255-0.505-1.549-1.101l-4.239-7.928
			l-20.169-8.987c-0.721-0.321-1.186-1.037-1.186-1.827v-7.625c0-0.699,0.365-1.348,0.963-1.71c0.6-0.363,1.344-0.386,1.962-0.063
			c7.501,3.912,15.964,5.979,24.475,5.979c8.501,0,16.956-2.063,24.451-5.967c0.62-0.323,1.364-0.298,1.961,0.064
			c0.598,0.363,0.963,1.011,0.963,1.71v7.611c0,0.79-0.465,1.505-1.186,1.827l-20.166,8.986l-4.271,7.988
			C177,188.351,176.318,188.751,175.588,188.751z M152.199,167.596l19.609,8.738c0.405,0.181,0.739,0.492,0.949,0.884l2.83,5.292
			l2.827-5.288c0.008-0.016,0.017-0.031,0.025-0.046c0.207-0.368,0.528-0.666,0.924-0.842l19.609-8.738v-3.123
			c-7.307,3.28-15.322,5.003-23.375,5.003c-8.062,0-16.086-1.727-23.399-5.014V167.596z"/>
	</g>
	<g>
		<path class="st1" d="M175.586,204.707c-1.104,0-2-0.896-2-2v-15.959c0-1.104,0.896-2,2-2s2,0.896,2,2v15.959
			C177.586,203.812,176.69,204.707,175.586,204.707z"/>
	</g>
	<g>
		<path class="st1" d="M175.599,212.793c-16.571,0-30.053-13.481-30.053-30.053v-4.58c0-1.104,0.896-2,2-2h23.447
			c0.738,0,1.416,0.406,1.764,1.057l2.83,5.292l2.828-5.288c0.348-0.651,1.025-1.057,1.764-1.057h23.473c1.104,0,2,0.896,2,2v4.576
			C205.651,199.312,192.17,212.793,175.599,212.793z M149.546,180.16v2.58c0,14.366,11.688,26.053,26.053,26.053
			s26.053-11.687,26.053-26.053v-2.576h-20.274l-4.026,7.53c-0.385,0.719-1.175,1.126-1.976,1.046
			c-0.688-0.073-1.278-0.494-1.578-1.097l-4.002-7.483H149.546z"/>
	</g>
	<g>
		<path class="st0" d="M170.994,178.16l-25.375-11.307l-13.595,6.325l8.352,22.418c1.1,2.953,4.784,3.938,7.212,1.93L170.994,178.16
			z"/>
	</g>
	<g>
		<path class="st0" d="M180.179,178.16l25.375-11.307l13.595,6.325l-8.352,22.418c-1.1,2.953-4.784,3.938-7.212,1.93L180.179,178.16
			z"/>
	</g>
	<g>
		<path class="st1" d="M144.663,200.577c-0.567,0-1.138-0.073-1.697-0.223c-2.054-0.55-3.723-2.067-4.464-4.06l-8.353-22.417
			c-0.364-0.978,0.084-2.071,1.03-2.512l13.596-6.325c0.525-0.243,1.129-0.249,1.658-0.013l25.375,11.307
			c0.632,0.281,1.073,0.87,1.167,1.556c0.094,0.686-0.173,1.371-0.706,1.812l-23.407,19.367
			C147.67,200.054,146.178,200.577,144.663,200.577z M134.543,174.212l7.707,20.686c0.295,0.793,0.934,1.373,1.75,1.592
			c0.815,0.219,1.659,0.036,2.313-0.504l20.923-17.311l-21.599-9.624L134.543,174.212z"/>
	</g>
	<g>
		<path class="st1" d="M206.51,200.577c-1.516,0-3.008-0.523-4.199-1.509l-23.407-19.367c-0.533-0.441-0.8-1.126-0.706-1.812
			c0.094-0.686,0.535-1.274,1.167-1.556l25.375-11.307c0.529-0.236,1.133-0.23,1.658,0.013l13.595,6.325
			c0.946,0.44,1.395,1.534,1.03,2.512l-8.352,22.418c-0.741,1.992-2.41,3.509-4.464,4.059
			C207.647,200.504,207.077,200.577,206.51,200.577z M183.938,178.675l20.923,17.311c0.652,0.54,1.494,0.724,2.313,0.504
			c0.816-0.219,1.455-0.799,1.75-1.591l7.706-20.687l-11.093-5.161L183.938,178.675z"/>
	</g>
	<g>
		<path class="st7" d="M230.264,92.712v-5.119c0-29.919-24.475-54.173-54.666-54.173l0,0c-30.191,0-54.666,24.254-54.666,54.173
			v5.119c-9.492-0.193-17.023,7.369-17.023,16.51c0,9.76,8.521,17.481,18.467,16.429c5.642,23.968,27.322,41.824,53.222,41.824
			c25.902,0,47.581-17.859,53.222-41.824c9.933,1.05,18.467-6.655,18.467-16.429C247.287,100.077,239.751,92.519,230.264,92.712z"/>
	</g>
	<g>
		<path class="st4" d="M185.422,148.267L185.422,148.267c-5.031,5.071-14.749,4.951-19.661,0l0,0
			c-3.022-3.046-2.609-5.681-2.609-9.57h24.878C188.031,142.445,188.489,145.174,185.422,148.267z"/>
	</g>
	<g>
		<path class="st1" d="M202.665,130.478c-4.236,0-7.677-3.433-7.677-7.677v-8.189c0-4.24,3.437-7.677,7.677-7.677
			c4.236,0,7.677,3.433,7.677,7.677v8.189C210.342,127.041,206.905,130.478,202.665,130.478z"/>
	</g>
	<g>
		<path class="st1" d="M145.89,130.478L145.89,130.478c-4.24,0-7.677-3.437-7.677-7.677v-8.189c0-4.24,3.437-7.677,7.677-7.677h0
			c4.24,0,7.677,3.437,7.677,7.677v8.189C153.568,127.041,150.13,130.478,145.89,130.478z"/>
	</g>
	<g>
		<path class="st1" d="M175.599,169.476c-25.903,0-48.183-17.076-54.759-41.732c-0.079,0.001-0.159,0.001-0.239,0.001
			c-4.623,0-9.113-1.698-12.56-4.798c-3.896-3.506-6.131-8.509-6.131-13.725c0-4.993,1.973-9.676,5.555-13.187
			c3.123-3.061,7.137-4.888,11.468-5.258v-3.185c0-30.974,25.42-56.173,56.666-56.173c31.245,0,56.665,25.199,56.665,56.173v3.185
			c4.331,0.37,8.345,2.198,11.469,5.259c3.582,3.51,5.555,8.193,5.555,13.186c0,5.216-2.234,10.218-6.13,13.723
			c-3.446,3.102-7.938,4.8-12.561,4.8c-0.08,0-0.16,0-0.239-0.001C223.78,152.4,201.502,169.476,175.599,169.476z M122.379,123.651
			c0.917,0,1.73,0.63,1.945,1.542c5.582,23.717,26.667,40.282,51.274,40.282c24.606,0,45.691-16.565,51.274-40.283
			c0.23-0.98,1.168-1.645,2.157-1.53c4.183,0.441,8.354-0.903,11.452-3.69c3.054-2.748,4.805-6.666,4.805-10.75
			c0-3.909-1.546-7.577-4.354-10.329c-2.835-2.778-6.622-4.249-10.628-4.182c-0.551,0.01-1.057-0.195-1.44-0.571
			c-0.384-0.376-0.601-0.891-0.601-1.429v-5.119c0-28.768-23.625-52.173-52.665-52.173s-52.666,23.405-52.666,52.173v5.119
			c0,0.538-0.217,1.052-0.601,1.428c-0.384,0.376-0.911,0.584-1.44,0.571c-3.99-0.069-7.793,1.403-10.627,4.181
			c-2.808,2.751-4.354,6.42-4.354,10.33c0,4.083,1.752,8.002,4.807,10.751c3.097,2.786,7.268,4.13,11.45,3.689
			C122.237,123.655,122.309,123.651,122.379,123.651z"/>
	</g>
	<g>
		<path class="st2" d="M243.314,64.019c0-38.299-41.661-60.227-67.715-44.684c-25.58-15.26-67.715,5.861-67.715,44.684
			c0,28.569-0.195,28.812,0.661,33.79c3.09-3.205,7.47-5.197,12.388-5.097c0-7.955-0.002-4.286,0.027-6.005h51.972
			c14.402,0,26.076-11.675,26.076-26.076v-6.374c0,17.515,13.878,31.78,31.237,32.42c0.023,1.38,0.02-1.158,0.02,6.036
			c4.916-0.1,9.297,1.893,12.388,5.098C243.508,92.834,243.314,92.636,243.314,64.019z"/>
	</g>
	<g>
		<path class="st1" d="M147.204,139.525c-13.035,0-23.641-10.605-23.641-23.641s10.605-23.641,23.641-23.641
			s23.641,10.605,23.641,23.641S160.239,139.525,147.204,139.525z M147.204,96.244c-10.83,0-19.641,8.811-19.641,19.641
			s8.811,19.641,19.641,19.641s19.641-8.811,19.641-19.641S158.034,96.244,147.204,96.244z"/>
	</g>
	<g>
		<path class="st1" d="M203.979,139.525c-13.035,0-23.641-10.605-23.641-23.641s10.605-23.641,23.641-23.641
			s23.641,10.605,23.641,23.641S217.014,139.525,203.979,139.525z M203.979,96.244c-10.83,0-19.641,8.811-19.641,19.641
			s8.811,19.641,19.641,19.641s19.641-8.811,19.641-19.641S214.809,96.244,203.979,96.244z"/>
	</g>
	<g>
		<path class="st1" d="M186.599,118.896h-22c-1.657,0-3-1.343-3-3s1.343-3,3-3h22c1.657,0,3,1.343,3,3
			S188.256,118.896,186.599,118.896z"/>
	</g>
	<g>
		<path class="st1" d="M175.614,153.525c-4.289,0-8.269-1.532-10.918-4.202c-3.13-3.156-3.095-6.047-3.054-9.396
			c0.005-0.396,0.01-0.805,0.01-1.229c0-0.829,0.672-1.5,1.5-1.5h24.878c0.828,0,1.5,0.671,1.5,1.5c0,0.436,0.007,0.858,0.013,1.268
			c0.048,3.18,0.093,6.184-3.056,9.358l0,0C183.838,151.993,179.875,153.525,175.614,153.525z M164.64,140.197
			c-0.035,2.969-0.001,4.808,2.187,7.013c2.09,2.106,5.293,3.315,8.787,3.315c3.468,0,6.654-1.208,8.743-3.315c0,0,0,0,0.001,0
			c2.212-2.23,2.23-4.153,2.188-7.013H164.64z"/>
	</g>
	<g>
		<path class="st1" d="M242.652,99.81c-0.534,0-1.057-0.215-1.439-0.612c-2.872-2.978-6.722-4.557-10.909-4.487
			c-0.512,0.01-1.056-0.195-1.439-0.571c-0.384-0.376-0.601-0.891-0.601-1.428v-2.628c0-0.66,0-1.156,0-1.53
			c-12.764-1.162-23.392-9.157-28.313-20.279c-3.336,11.779-14.186,20.433-27.019,20.433h-49.999c0,0.685,0,1.708,0,3.236v0.769
			c0,0.538-0.217,1.052-0.601,1.428c-0.384,0.376-0.949,0.584-1.439,0.571c-4.174-0.086-8.037,1.509-10.908,4.486
			c-0.522,0.543-1.306,0.746-2.027,0.523c-0.721-0.222-1.255-0.83-1.383-1.573c-0.729-4.232-0.727-5.181-0.702-21.029
			c0.005-3.544,0.012-7.843,0.012-13.1c0-18.8,9.837-35.61,26.314-44.966c14.399-8.178,30.907-8.92,43.4-2.023
			c12.5-6.905,28.953-6.204,43.257,1.918c16.567,9.408,26.458,26.257,26.458,45.071c0,5.251,0.007,9.546,0.012,13.088
			c0.024,15.86,0.025,16.809-0.702,21.042c-0.127,0.743-0.662,1.351-1.383,1.573C243.047,99.781,242.849,99.81,242.652,99.81z
			 M232.264,90.778c3.222,0.274,6.256,1.355,8.886,3.154c0.197-2.58,0.191-6.439,0.176-16.818c-0.005-3.544-0.012-7.84-0.012-13.094
			c0-17.356-9.134-32.904-24.434-41.593c-13.45-7.638-28.874-8.164-40.257-1.373c-0.631,0.376-1.418,0.376-2.049,0
			c-11.37-6.784-26.852-6.217-40.401,1.478c-15.209,8.637-24.289,24.146-24.289,41.488c0,5.26-0.007,9.56-0.012,13.106
			c-0.017,10.369-0.022,14.227,0.175,16.806c2.63-1.798,5.665-2.879,8.886-3.153c0.002-1.938,0.011-3.021,0.07-3.675l-0.053-0.004
			c0.003-0.055,0.006-0.172,0.01-0.425c0.019-1.092,0.908-1.967,2-1.967h51.972c13.275,0,24.076-10.801,24.076-24.077v-6.374
			c0-1.104,0.896-2,2-2s2,0.896,2,2c0,16.453,12.874,29.815,29.31,30.421c1.063,0.039,1.908,0.902,1.927,1.964
			c0.005,0.315,0.009,0.404,0.012,0.465c0.007,0.166,0.008,0.166,0.008,2.977V90.778z"/>
	</g>
	<g>
		<path class="st3" d="M109.942,241.701H23.972v-24.74c0-10.174,8.248-18.422,18.422-18.422H91.52
			c10.174,0,18.422,8.248,18.422,18.422V241.701z"/>
	</g>
	<g>
		<path class="st7" d="M66.957,200.522c-5.704,0-11.119-1.218-15.999-3.402v1.419v0.002c0,8.828,7.156,15.984,15.984,15.984
			s15.984-7.156,15.984-15.984v-0.002v-1.406C78.053,199.308,72.649,200.522,66.957,200.522z"/>
	</g>
	<g>
		<path class="st1" d="M109.941,243.701H23.973c-1.104,0-2-0.896-2-2v-24.74c0-11.261,9.161-20.422,20.422-20.422h6.649
			c0.136-0.446,0.425-0.837,0.826-1.097c0.569-0.369,1.285-0.424,1.904-0.147c4.787,2.142,9.896,3.228,15.183,3.228
			c5.276,0,10.375-1.082,15.153-3.215c0.618-0.276,1.335-0.222,1.904,0.148c0.396,0.257,0.684,0.644,0.821,1.083h6.684
			c11.261,0,20.422,9.161,20.422,20.422v24.74C111.941,242.806,111.046,243.701,109.941,243.701z M25.973,239.701h81.969v-22.74
			c0-9.055-7.367-16.422-16.422-16.422h-8.594c-0.58,0-1.102-0.247-1.467-0.641c-4.625,1.742-9.492,2.624-14.502,2.624
			c-5.019,0-9.894-0.884-14.524-2.632c-0.365,0.399-0.891,0.649-1.475,0.649h-8.563c-9.055,0-16.422,7.367-16.422,16.422V239.701z"
			/>
	</g>
	<g>
		<path class="st4" d="M107.358,241.707h-93.14c-2.618,0-4.74-2.122-4.74-4.74l0,0c0-2.618,2.122-4.74,4.74-4.74h93.14V241.707z"/>
	</g>
	<g>
		<path class="st4" d="M107.358,241.707h93.14c2.618,0,4.74-2.122,4.74-4.74l0,0c0-2.618-2.122-4.74-4.74-4.74h-93.14V241.707z"/>
	</g>
	<g>
		<path class="st1" d="M107.357,243.707h-93.14c-3.717,0-6.74-3.023-6.74-6.74s3.023-6.74,6.74-6.74h93.14c1.104,0,2,0.896,2,2v9.48
			C109.357,242.812,108.462,243.707,107.357,243.707z M14.218,234.227c-1.511,0-2.74,1.229-2.74,2.74s1.229,2.74,2.74,2.74h91.14
			v-5.48H14.218z"/>
	</g>
	<g>
		<path class="st1" d="M200.498,243.707h-93.141c-1.104,0-2-0.896-2-2v-9.48c0-1.104,0.896-2,2-2h93.141
			c3.717,0,6.74,3.023,6.74,6.74S204.215,243.707,200.498,243.707z M109.357,239.707h91.141c1.511,0,2.74-1.229,2.74-2.74
			s-1.229-2.74-2.74-2.74h-91.141V239.707z"/>
	</g>
	<g>
		<path class="st0" d="M107.358,232.226v-10.9l-35.139-4.055c-16.84-1.943-33.865-1.609-50.615,0.993h0
			c-2.817,0.438-4.894,2.863-4.894,5.713v8.248H107.358z"/>
	</g>
	<g>
		<path class="st0" d="M107.358,232.226v-10.9l35.139-4.055c16.84-1.943,33.865-1.609,50.615,0.993h0
			c2.817,0.438,4.894,2.863,4.894,5.713v8.248H107.358z"/>
	</g>
	<g>
		<path class="st1" d="M107.357,234.227H16.709c-1.104,0-2-0.896-2-2v-8.248c0-3.863,2.771-7.097,6.588-7.689
			c16.925-2.63,34.135-2.968,51.151-1.004l35.139,4.055c1.009,0.116,1.771,0.971,1.771,1.987v10.9
			C109.357,233.331,108.462,234.227,107.357,234.227z M18.709,230.227h86.648v-7.118l-33.368-3.851
			c-16.66-1.922-33.507-1.591-50.079,0.983c-1.854,0.288-3.201,1.86-3.201,3.737V230.227z"/>
	</g>
	<g>
		<path class="st1" d="M198.007,234.227h-90.649c-1.104,0-2-0.896-2-2v-10.9c0-1.016,0.762-1.871,1.771-1.987l35.14-4.055
			c17.016-1.963,34.226-1.625,51.151,1.004c3.817,0.593,6.588,3.827,6.588,7.689v8.248
			C200.007,233.331,199.111,234.227,198.007,234.227z M109.357,230.227h86.649v-6.248c0-1.877-1.347-3.449-3.201-3.737
			c-16.572-2.574-33.423-2.905-50.079-0.983l-33.369,3.851V230.227z"/>
	</g>
	<g>
		<path class="st2" d="M28.009,147.254v-3.647c0-0.209,0.013-0.415,0.016-0.623c-4.735-1.721-8.905-4.621-12.145-8.355
			c0,6.179-0.364,10.75,2.576,17.082C20.665,148.948,24.099,147.174,28.009,147.254z"/>
	</g>
	<g>
		<path class="st2" d="M104.435,133.107c0.951,3.34,1.471,6.859,1.471,10.5v3.647c3.493-0.071,6.608,1.341,8.809,3.614
			c3.328-5.936,5.132-12.842,5.132-20.772c0-7.677-4.143-14.383-10.312-18.015c0.211,1.429,0.323,2.891,0.323,4.378
			C109.858,122.684,107.843,128.436,104.435,133.107z"/>
	</g>
	<g>
		<path class="st1" d="M18.455,153.711c-0.079,0-0.159-0.005-0.239-0.014c-0.688-0.083-1.283-0.516-1.575-1.144
			c-2.829-6.096-2.801-10.733-2.769-16.102c0.004-0.593,0.008-1.199,0.008-1.822c0-0.835,0.519-1.582,1.301-1.874
			c0.78-0.292,1.662-0.068,2.21,0.563c3.044,3.509,6.958,6.201,11.317,7.785c0.8,0.291,1.328,1.057,1.316,1.908l-0.016,0.595v3.647
			c0,0.538-0.217,1.052-0.601,1.429s-0.892,0.593-1.44,0.571c-3.069-0.073-6.017,1.287-7.951,3.707
			C19.635,153.438,19.059,153.711,18.455,153.711z M17.872,139.388c0.04,3.047,0.271,5.735,1.314,8.799
			c1.967-1.542,4.313-2.519,6.822-2.829v-1.014C23.061,143.116,20.313,141.44,17.872,139.388z"/>
	</g>
	<g>
		<path class="st1" d="M114.715,152.867c-0.538,0-1.058-0.217-1.437-0.609c-1.932-1.995-4.508-3.072-7.333-3.005
			c-0.498,0.02-1.056-0.194-1.439-0.571c-0.384-0.376-0.601-0.891-0.601-1.428v-3.647c0-3.356-0.469-6.704-1.395-9.952
			c-0.168-0.592-0.055-1.229,0.309-1.727c3.297-4.516,5.039-9.865,5.039-15.469c0-1.354-0.102-2.729-0.302-4.086
			c-0.112-0.762,0.223-1.521,0.861-1.951s1.469-0.455,2.132-0.064c6.968,4.103,11.297,11.667,11.297,19.739
			c0,8.056-1.813,15.374-5.388,21.75c-0.309,0.551-0.86,0.924-1.486,1.005C114.887,152.862,114.801,152.867,114.715,152.867z
			 M107.905,145.357c2.242,0.275,4.35,1.082,6.187,2.362c2.493-5.25,3.755-11.167,3.755-17.625c0-5.256-2.225-10.251-5.988-13.789
			c0,0.05,0,0.101,0,0.152c0,6.131-1.811,11.999-5.247,17.032c0.859,3.312,1.294,6.71,1.294,10.116V145.357z"/>
	</g>
	<g>
		<path class="st7" d="M105.906,147.254v-3.647c0-21.317-17.438-38.598-38.949-38.598l0,0c-21.511,0-38.949,17.281-38.949,38.598
			v3.647c-6.763-0.137-12.129,5.251-12.129,11.763c0,6.954,6.071,12.455,13.158,11.706c4.02,17.077,19.466,29.799,37.92,29.799
			c18.455,0,33.901-12.724,37.92-29.799c7.077,0.748,13.158-4.742,13.158-11.706C118.034,152.501,112.665,147.117,105.906,147.254z"
			/>
	</g>
	<g>
		<path class="st1" d="M66.965,186.813L66.965,186.813c-2.916,0-5.635-1.056-7.461-2.896c-1.405-1.417-2.18-3.21-2.18-5.049
			c0-1.104,0.896-2,2-2s2,0.896,2,2c0,0.788,0.353,1.56,1.02,2.232c1.064,1.073,2.792,1.713,4.621,1.713
			c1.841,0,3.516-0.625,4.596-1.713c0.668-0.673,1.021-1.445,1.021-2.232c0-1.104,0.896-2,2-2s2,0.896,2,2
			c0,1.838-0.774,3.632-2.181,5.049C72.574,185.757,69.864,186.813,66.965,186.813z"/>
	</g>
	<g>
		<path class="st1" d="M87.178,170.725L87.178,170.725c-3.021,0-5.47-2.449-5.47-5.47v-5.834c0-3.021,2.449-5.47,5.47-5.47h0
			c3.021,0,5.47,2.449,5.47,5.47v5.834C92.648,168.276,90.199,170.725,87.178,170.725z"/>
	</g>
	<g>
		<path class="st1" d="M46.727,170.725L46.727,170.725c-3.021,0-5.47-2.449-5.47-5.47v-5.834c0-3.021,2.449-5.47,5.47-5.47h0
			c3.021,0,5.47,2.449,5.47,5.47v5.834C52.197,168.276,49.748,170.725,46.727,170.725z"/>
	</g>
	<g>
		<path class="st1" d="M66.957,202.522c-18.569,0-34.561-12.146-39.455-29.735c-3.34-0.064-6.569-1.319-9.063-3.563
			c-2.897-2.607-4.559-6.327-4.559-10.206c0-3.713,1.467-7.196,4.13-9.806c2.195-2.151,4.981-3.483,7.999-3.854v-1.751
			c0-22.386,18.369-40.598,40.948-40.598s40.948,18.212,40.948,40.598v1.751c3.018,0.371,5.804,1.703,7.999,3.854
			c2.663,2.61,4.13,6.092,4.13,9.805c0,3.879-1.661,7.599-4.558,10.206c-2.495,2.245-5.726,3.5-9.065,3.564
			C101.518,190.377,85.525,202.522,66.957,202.522z M29.039,168.723c0.917,0,1.73,0.63,1.945,1.542
			c3.916,16.637,18.708,28.257,35.973,28.257c17.264,0,32.057-11.62,35.973-28.258c0.231-0.981,1.164-1.643,2.157-1.53
			c2.825,0.296,5.629-0.608,7.714-2.485c2.055-1.849,3.233-4.485,3.233-7.232c0-2.629-1.04-5.097-2.93-6.948
			c-1.909-1.871-4.453-2.882-7.158-2.815c-0.537,0.02-1.057-0.194-1.44-0.571s-0.601-0.891-0.601-1.429v-3.647
			c0-20.18-16.575-36.598-36.948-36.598s-36.948,16.417-36.948,36.598v3.647c0,0.538-0.217,1.052-0.601,1.429
			c-0.384,0.376-0.892,0.593-1.44,0.571c-2.69-0.066-5.25,0.945-7.158,2.815c-1.89,1.852-2.93,4.319-2.93,6.949
			c0,2.747,1.179,5.383,3.234,7.232c2.116,1.905,4.857,2.784,7.713,2.484C28.897,168.726,28.969,168.723,29.039,168.723z"/>
	</g>
	<g>
		<path class="st2" d="M32.684,97.512c-5.568,6.905-13.046,11.421-21.364,12.207c-1.486,0.14-2.607,1.417-2.607,2.91v2.811
			c0,16.185,13.12,29.305,29.305,29.305h43.554c15.622,0,28.286-12.664,28.286-28.286v0c0-16.431-13.32-29.751-29.751-29.751H55.405
			C46.592,86.707,38.217,90.652,32.684,97.512z"/>
	</g>
	<g>
		<path class="st1" d="M81.572,146.745H38.018c-17.262,0-31.305-14.043-31.305-31.305v-2.811c0-2.556,1.899-4.663,4.418-4.901
			c7.501-0.709,14.603-4.783,19.997-11.472c5.918-7.34,14.768-11.55,24.277-11.55h24.701c17.508,0,31.752,14.244,31.752,31.751
			C111.858,133.158,98.272,146.745,81.572,146.745z M55.405,88.707c-8.294,0-16.008,3.667-21.164,10.061l0,0
			c-6.077,7.536-14.15,12.132-22.733,12.943c-0.445,0.042-0.795,0.445-0.795,0.918v2.811c0,15.056,12.249,27.305,27.305,27.305
			h43.555c14.494,0,26.286-11.792,26.286-26.286c0-15.302-12.449-27.751-27.752-27.751H55.405z M32.685,97.512h0.01H32.685z"/>
	</g>
</g>
</svg>
