<?xml version="1.0" encoding="utf-8"?>
<!-- Generator: Adobe Illustrator 22.1.0, SVG Export Plug-In . SVG Version: 6.00 Build 0)  -->
<svg version="1.1" id="Layer_1" xmlns="http://www.w3.org/2000/svg" xmlns:xlink="http://www.w3.org/1999/xlink" x="0px" y="0px"
	 viewBox="0 0 256 256" style="enable-background:new 0 0 256 256;" xml:space="preserve">
<style type="text/css">
	.st0{fill:#E0EBFC;}
	.st1{fill:#3762CC;}
	.st2{fill:#4671C6;}
	.st3{fill:#6BDDDD;}
	.st4{fill:#F9A7A7;}
	.st5{fill:#A4C9FF;}
	.st6{fill:#FFEA92;}
	.st7{fill:#F9CFCF;}
	.st8{fill:#FFE164;}
	.st9{fill:#FFDC85;}
	.st10{fill:#FFEA94;}
	.st11{fill:#B9BEFC;}
	.st12{fill:#EAA97D;}
</style>
<g>
	<g>
		<path class="st0" d="M8.042,168.952V14c0-3.314,2.686-6,6-6h155.701c3.314,0,6,2.686,6,6v154.952c0,3.314-2.686,6-6,6H14.042
			C10.728,174.952,8.042,172.266,8.042,168.952z"/>
	</g>
	<g>
		<path class="st1" d="M169.742,176.952h-155.7c-4.411,0-8-3.589-8-8V14c0-4.411,3.589-8,8-8h155.7c4.411,0,8,3.589,8,8v154.952
			C177.742,173.363,174.153,176.952,169.742,176.952z M14.042,10c-2.206,0-4,1.794-4,4v154.952c0,2.206,1.794,4,4,4h155.7
			c2.206,0,4-1.794,4-4V14c0-2.206-1.794-4-4-4H14.042z"/>
	</g>
	<g>
		<path class="st5" d="M52.007,53.113h-26.59V33.627c0-3.363,2.726-6.089,6.089-6.089h20.501V53.113z"/>
	</g>
	<g>
		<rect x="52.007" y="27.538" class="st5" width="26.59" height="25.575"/>
	</g>
	<g>
		<rect x="78.597" y="27.538" class="st5" width="26.59" height="25.575"/>
	</g>
	<g>
		<rect x="105.187" y="27.538" class="st5" width="26.59" height="25.575"/>
	</g>
	<g>
		<path class="st5" d="M158.368,53.113h-26.59V27.538h20.501c3.363,0,6.089,2.726,6.089,6.089V53.113z"/>
	</g>
	<g>
		<path class="st1" d="M52.007,80.688h-26.59c-1.105,0-2-0.896-2-2V53.113c0-1.104,0.895-2,2-2h26.59c1.104,0,2,0.896,2,2v25.575
			C54.007,79.793,53.111,80.688,52.007,80.688z M27.417,76.688h22.59V55.113h-22.59V76.688z"/>
	</g>
	<g>
		<path class="st1" d="M78.597,80.688h-26.59c-1.104,0-2-0.896-2-2V53.113c0-1.104,0.896-2,2-2h26.59c1.104,0,2,0.896,2,2v25.575
			C80.597,79.793,79.701,80.688,78.597,80.688z M54.007,76.688h22.59V55.113h-22.59V76.688z"/>
	</g>
	<g>
		<path class="st1" d="M105.187,80.688H78.597c-1.104,0-2-0.896-2-2V53.113c0-1.104,0.896-2,2-2h26.591c1.105,0,2,0.896,2,2v25.575
			C107.187,79.793,106.292,80.688,105.187,80.688z M80.597,76.688h22.591V55.113H80.597V76.688z"/>
	</g>
	<g>
		<path class="st1" d="M131.777,80.688h-26.59c-1.104,0-2-0.896-2-2V53.113c0-1.104,0.896-2,2-2h26.59c1.104,0,2,0.896,2,2v25.575
			C133.777,79.793,132.882,80.688,131.777,80.688z M107.187,76.688h22.59V55.113h-22.59V76.688z"/>
	</g>
	<g>
		<path class="st1" d="M158.367,80.688h-26.59c-1.104,0-2-0.896-2-2V53.113c0-1.104,0.896-2,2-2h26.59c1.104,0,2,0.896,2,2v25.575
			C160.367,79.793,159.472,80.688,158.367,80.688z M133.777,76.688h22.59V55.113h-22.59V76.688z"/>
	</g>
	<g>
		<path class="st1" d="M52.007,106.264h-26.59c-1.105,0-2-0.896-2-2V78.688c0-1.104,0.895-2,2-2h26.59c1.104,0,2,0.896,2,2v25.575
			C54.007,105.368,53.111,106.264,52.007,106.264z M27.417,102.264h22.59V80.688h-22.59V102.264z"/>
	</g>
	<g>
		<path class="st1" d="M78.597,106.264h-26.59c-1.104,0-2-0.896-2-2V78.688c0-1.104,0.896-2,2-2h26.59c1.104,0,2,0.896,2,2v25.575
			C80.597,105.368,79.701,106.264,78.597,106.264z M54.007,102.264h22.59V80.688h-22.59V102.264z"/>
	</g>
	<g>
		<path class="st1" d="M105.187,106.264H78.597c-1.104,0-2-0.896-2-2V78.688c0-1.104,0.896-2,2-2h26.591c1.105,0,2,0.896,2,2v25.575
			C107.187,105.368,106.292,106.264,105.187,106.264z M80.597,102.264h22.591V80.688H80.597V102.264z"/>
	</g>
	<g>
		<path class="st1" d="M131.777,106.264h-26.59c-1.104,0-2-0.896-2-2V78.688c0-1.104,0.896-2,2-2h26.59c1.104,0,2,0.896,2,2v25.575
			C133.777,105.368,132.882,106.264,131.777,106.264z M107.187,102.264h22.59V80.688h-22.59V102.264z"/>
	</g>
	<g>
		<path class="st1" d="M158.367,106.264h-26.59c-1.104,0-2-0.896-2-2V78.688c0-1.104,0.896-2,2-2h26.59c1.104,0,2,0.896,2,2v25.575
			C160.367,105.368,159.472,106.264,158.367,106.264z M133.777,102.264h22.59V80.688h-22.59V102.264z"/>
	</g>
	<g>
		<path class="st1" d="M52.007,131.839h-26.59c-1.105,0-2-0.896-2-2v-25.575c0-1.104,0.895-2,2-2h26.59c1.104,0,2,0.896,2,2v25.575
			C54.007,130.943,53.111,131.839,52.007,131.839z M27.417,127.839h22.59v-21.575h-22.59V127.839z"/>
	</g>
	<g>
		<path class="st1" d="M78.597,131.839h-26.59c-1.104,0-2-0.896-2-2v-25.575c0-1.104,0.896-2,2-2h26.59c1.104,0,2,0.896,2,2v25.575
			C80.597,130.943,79.701,131.839,78.597,131.839z M54.007,127.839h22.59v-21.575h-22.59V127.839z"/>
	</g>
	<g>
		<path class="st1" d="M105.187,131.839H78.597c-1.104,0-2-0.896-2-2v-25.575c0-1.104,0.896-2,2-2h26.591c1.105,0,2,0.896,2,2
			v25.575C107.187,130.943,106.292,131.839,105.187,131.839z M80.597,127.839h22.591v-21.575H80.597V127.839z"/>
	</g>
	<g>
		<path class="st1" d="M131.777,131.839h-26.59c-1.104,0-2-0.896-2-2v-25.575c0-1.104,0.896-2,2-2h26.59c1.104,0,2,0.896,2,2v25.575
			C133.777,130.943,132.882,131.839,131.777,131.839z M107.187,127.839h22.59v-21.575h-22.59V127.839z"/>
	</g>
	<g>
		<path class="st1" d="M158.367,131.839h-26.59c-1.104,0-2-0.896-2-2v-25.575c0-1.104,0.896-2,2-2h26.59c1.104,0,2,0.896,2,2v25.575
			C160.367,130.943,159.472,131.839,158.367,131.839z M133.777,127.839h22.59v-21.575h-22.59V127.839z"/>
	</g>
	<g>
		<path class="st1" d="M52.007,157.414H31.506c-4.46,0-8.089-3.629-8.089-8.089v-19.486c0-1.104,0.895-2,2-2h26.59
			c1.104,0,2,0.896,2,2v25.575C54.007,156.519,53.111,157.414,52.007,157.414z M27.417,131.839v17.486
			c0,2.255,1.834,4.089,4.089,4.089h18.501v-21.575H27.417z"/>
	</g>
	<g>
		<path class="st1" d="M78.597,157.414h-26.59c-1.104,0-2-0.896-2-2v-25.575c0-1.104,0.896-2,2-2h26.59c1.104,0,2,0.896,2,2v25.575
			C80.597,156.519,79.701,157.414,78.597,157.414z M54.007,153.414h22.59v-21.575h-22.59V153.414z"/>
	</g>
	<g>
		<path class="st1" d="M105.187,157.414H78.597c-1.104,0-2-0.896-2-2v-25.575c0-1.104,0.896-2,2-2h26.591c1.105,0,2,0.896,2,2
			v25.575C107.187,156.519,106.292,157.414,105.187,157.414z M80.597,153.414h22.591v-21.575H80.597V153.414z"/>
	</g>
	<g>
		<path class="st1" d="M131.777,157.414h-26.59c-1.104,0-2-0.896-2-2v-25.575c0-1.104,0.896-2,2-2h26.59c1.104,0,2,0.896,2,2v25.575
			C133.777,156.519,132.882,157.414,131.777,157.414z M107.187,153.414h22.59v-21.575h-22.59V153.414z"/>
	</g>
	<g>
		<path class="st1" d="M152.278,157.414h-20.501c-1.104,0-2-0.896-2-2v-25.575c0-1.104,0.896-2,2-2h26.59c1.104,0,2,0.896,2,2
			v19.486C160.367,153.785,156.738,157.414,152.278,157.414z M133.777,153.414h18.501c2.255,0,4.089-1.834,4.089-4.089v-17.486
			h-22.59V153.414z"/>
	</g>
	<g>
		<path class="st1" d="M52.007,55.113h-26.59c-1.105,0-2-0.896-2-2V33.627c0-4.46,3.629-8.089,8.089-8.089h20.501
			c1.104,0,2,0.896,2,2v25.575C54.007,54.218,53.111,55.113,52.007,55.113z M27.417,51.113h22.59V29.538H31.506
			c-2.255,0-4.089,1.834-4.089,4.089V51.113z"/>
	</g>
	<g>
		<path class="st1" d="M78.597,55.113h-26.59c-1.104,0-2-0.896-2-2V27.538c0-1.104,0.896-2,2-2h26.59c1.104,0,2,0.896,2,2v25.575
			C80.597,54.218,79.701,55.113,78.597,55.113z M54.007,51.113h22.59V29.538h-22.59V51.113z"/>
	</g>
	<g>
		<path class="st1" d="M105.187,55.113H78.597c-1.104,0-2-0.896-2-2V27.538c0-1.104,0.896-2,2-2h26.591c1.105,0,2,0.896,2,2v25.575
			C107.187,54.218,106.292,55.113,105.187,55.113z M80.597,51.113h22.591V29.538H80.597V51.113z"/>
	</g>
	<g>
		<path class="st1" d="M131.777,55.113h-26.59c-1.104,0-2-0.896-2-2V27.538c0-1.104,0.896-2,2-2h26.59c1.104,0,2,0.896,2,2v25.575
			C133.777,54.218,132.882,55.113,131.777,55.113z M107.187,51.113h22.59V29.538h-22.59V51.113z"/>
	</g>
	<g>
		<path class="st1" d="M158.367,55.113h-26.59c-1.104,0-2-0.896-2-2V27.538c0-1.104,0.896-2,2-2h20.501
			c4.46,0,8.089,3.629,8.089,8.089v19.486C160.367,54.218,159.472,55.113,158.367,55.113z M133.777,51.113h22.59V33.627
			c0-2.255-1.834-4.089-4.089-4.089h-18.501V51.113z"/>
	</g>
	<g>
		<path class="st4" d="M199.727,64.689H93.651v167.393h106.076c2.485,0,4.5-2.015,4.5-4.5V69.189
			C204.227,66.704,202.212,64.689,199.727,64.689z"/>
	</g>
	<g>
		<path class="st7" d="M186.253,132.469h-74.63c-2.659,0-4.815-2.156-4.815-4.815V93.148c0-2.659,2.156-4.815,4.815-4.815h74.63
			c2.659,0,4.815,2.156,4.815,4.815v34.506C191.068,130.313,188.913,132.469,186.253,132.469z"/>
	</g>
	<g>
		<path class="st2" d="M93.651,232.083H71.722c-3.546,0-6.42-2.874-6.42-6.42V71.109c0-3.546,2.874-6.42,6.42-6.42h21.929V232.083z"
			/>
	</g>
	<g>
		<path class="st1" d="M93.65,234.083H71.722c-4.643,0-8.42-3.777-8.42-8.42V71.109c0-4.643,3.777-8.42,8.42-8.42H93.65
			c1.104,0,2,0.896,2,2v167.394C95.65,233.188,94.755,234.083,93.65,234.083z M71.722,66.689c-2.438,0-4.42,1.982-4.42,4.42v154.554
			c0,2.438,1.982,4.42,4.42,4.42H91.65V66.689H71.722z"/>
	</g>
	<g>
		<path class="st1" d="M199.727,234.083H93.65c-1.104,0-2-0.896-2-2V64.689c0-1.104,0.896-2,2-2h106.076c3.584,0,6.5,2.916,6.5,6.5
			v158.394C206.227,231.167,203.311,234.083,199.727,234.083z M95.65,230.083h104.076c1.379,0,2.5-1.121,2.5-2.5V69.189
			c0-1.379-1.121-2.5-2.5-2.5H95.65V230.083z"/>
	</g>
	<g>
		<path class="st6" d="M246.007,193.364c0-12.626,0-22.363,0-33.568l-3.253,1.25c0,10.8,0,25.234,0,32.318
			c-1.158,0.593-1.951,1.795-1.951,3.184v8.565h7.155v-8.565C247.958,195.158,247.164,193.956,246.007,193.364z"/>
	</g>
	<g>
		<path class="st2" d="M169.853,128.238l-67.735,26.021c-2.527,0.971-2.527,4.545,0,5.516l67.735,26.021
			c2.728,1.048,5.748,1.048,8.476,0l67.735-26.021c2.527-0.971,2.527-4.545,0-5.516l-67.735-26.021
			C175.6,127.19,172.581,127.19,169.853,128.238z"/>
	</g>
	<g>
		<path class="st1" d="M174.091,188.582c-1.679,0-3.357-0.307-4.955-0.92l-67.734-26.021c-1.931-0.742-3.178-2.558-3.178-4.625
			s1.247-3.883,3.177-4.625l67.735-26.021l0,0c3.195-1.227,6.716-1.227,9.909,0l67.735,26.021c1.931,0.742,3.178,2.558,3.178,4.625
			s-1.247,3.883-3.177,4.625l-67.736,26.021C177.448,188.275,175.77,188.582,174.091,188.582z M170.569,130.105l-67.734,26.021
			c-0.552,0.212-0.611,0.693-0.611,0.891s0.06,0.679,0.612,0.891l67.733,26.021c2.271,0.873,4.771,0.873,7.042,0l67.735-26.021
			c0.552-0.212,0.611-0.693,0.611-0.891s-0.06-0.679-0.612-0.891l-67.734-26.021C175.341,129.231,172.84,129.232,170.569,130.105
			L170.569,130.105z"/>
	</g>
	<g>
		<path class="st2" d="M215.739,161.558h-83.016c-0.759,0-1.375,0.615-1.375,1.375v20.497c0,4.524,19.199,8.192,42.882,8.192
			s42.882-3.668,42.882-8.192h0.001v-20.497C217.114,162.173,216.499,161.558,215.739,161.558z"/>
	</g>
	<g>
		<path class="st1" d="M174.23,193.622c-1.833,0-44.882-0.116-44.882-10.192v-20.497c0-1.861,1.514-3.375,3.374-3.375h83.017
			c1.861,0,3.375,1.514,3.375,3.375v20.497C219.112,193.506,176.063,193.622,174.23,193.622z M133.349,183.357
			c1.103,2.269,15.571,6.265,40.882,6.265c25.312,0,39.78-3.996,40.883-6.265l0.001-19.8h-81.766V183.357z M215.739,163.558h0.01
			H215.739z"/>
	</g>
	<g>
		<circle class="st3" cx="174.398" cy="211.66" r="36.34"/>
	</g>
	<g>
		<path class="st6" d="M174.398,238.932c-15.038,0-27.273-12.235-27.273-27.273c0-15.038,12.235-27.273,27.273-27.273
			s27.272,12.234,27.272,27.273C201.67,226.698,189.436,238.932,174.398,238.932z"/>
	</g>
	<g>
		<path class="st1" d="M174.398,250c-21.142,0-38.341-17.199-38.341-38.341c0-21.141,17.199-38.34,38.341-38.34
			c21.141,0,38.34,17.199,38.34,38.34C212.738,232.801,195.539,250,174.398,250z M174.398,177.319
			c-18.936,0-34.341,15.405-34.341,34.34c0,18.936,15.405,34.341,34.341,34.341c18.935,0,34.34-15.405,34.34-34.341
			C208.738,192.725,193.333,177.319,174.398,177.319z"/>
	</g>
	<g>
		<path class="st2" d="M173.966,201.034v21.502c0,1.518-1.659,2.453-2.958,1.666l-17.744-10.751c-1.251-0.758-1.251-2.574,0-3.332
			l17.744-10.751C172.306,198.581,173.966,199.516,173.966,201.034z"/>
	</g>
	<g>
		<path class="st2" d="M191.606,201.034v21.502c0,1.518-1.659,2.453-2.958,1.666l-17.744-10.751c-1.251-0.758-1.251-2.574,0-3.332
			l17.744-10.751C189.947,198.581,191.606,199.516,191.606,201.034z"/>
	</g>
</g>
</svg>
